<svg version="1.1" id="OktaLogo" xmlns="http://www.w3.org/2000/svg" xmlns:xlink="http://www.w3.org/1999/xlink" x="0px" y="0px" viewBox="0 0 431.9 151.4" style="enable-background:new 0 0 431.9 151.4;" xml:space="preserve">
  <g>
    <g>
      <g>
        <path d="M102.2,41.4c-21,0-38.1,17.1-38.1,38.1s17.1,38.1,38.1,38.1s38.1-17.1,38.1-38.1l0,0C140.3,58.5,123.2,41.4,102.2,41.4z M102.2,98.5c-10.5,0-19-8.5-19-19s8.5-19,19-19s19,8.5,19,19c0.1,10.5-8.4,19-18.9,19.1C102.3,98.6,102.2,98.6,102.2,98.5L102.2,98.5z"/>
        <path d="M169.1,92.3c0-1.9,1.5-3.4,3.4-3.4c0.9,0,1.8,0.4,2.4,1c9.5,9.7,25.3,26.3,25.4,26.4c0.4,0.5,0.8,0.8,1.4,0.9l1.6,0.2h17.2c1.8,0,3.3-1.4,3.4-3.2c0-0.8-0.3-1.5-0.8-2.2l-28.6-29.2l-1.5-1.5c-3.2-3.9-2.9-5.4,0.8-9.3l22.6-25.1c1.1-1.4,0.8-3.5-0.6-4.6c-0.6-0.4-1.3-0.7-2-0.7h-17c-0.6,0.2-1.1,0.5-1.5,0.9L175,64.4c-1.3,1.4-3.4,1.5-4.8,0.2c-0.7-0.6-1.1-1.5-1.1-2.5V18.9c0-1.7-1.3-3-3-3c-0.1,0-0.2,0-0.3,0h-12.7c-2.2,0-3.3,1.5-3.3,2.8v95.8c0,2.2,1.8,2.8,3.3,2.8h12.7c1.7,0.1,3.2-1.2,3.3-2.9c0,0,0,0,0,0V92.3z"/>
        <path d="M273,114l-1.4-12.8c-0.2-1.7-1.7-2.9-3.4-2.7c0,0,0,0-0.1,0l-2.9,0.2c-10.1,0-18.5-7.9-19-18c0-0.3,0-0.7,0-1V64.2c-0.1-2,1.5-3.6,3.5-3.7c0,0,0,0,0,0h17c1.7-0.1,3.1-1.5,3-3.2c0,0,0-0.1,0-0.1v-12c0-2.3-1.5-3.6-2.8-3.6h-17.1c-1.9,0.1-3.5-1.5-3.6-3.4c0,0,0,0,0,0V18.9c-0.1-1.7-1.5-3.1-3.2-3c0,0-0.1,0-0.1,0h-12.7c-1.6-0.1-3,1.1-3.1,2.7c0,0.1,0,0.1,0,0.2c0,0,0,61.7,0,62c0.5,21,17.9,37.6,38.9,37c1.4,0,2.9-0.2,4.3-0.3C272,117.2,273.2,115.7,273,114z"/>
      </g>
      <path d="M364.7,98c-10.8,0-12.4-3.8-12.4-18.3l0,0V44.8c0-1.8-1.4-3.2-3.2-3.2c0,0-0.1,0-0.1,0h-12.8c-1.8,0-3.2,1.4-3.3,3.2v1.6C314.6,36,291.3,42.5,281,60.8c-10.4,18.3-3.9,41.6,14.4,51.9c14,7.9,31.4,6.2,43.5-4.2c3.6,5.5,9.3,9.1,18.3,9.1c1.5,0,9.7,0.3,9.7-3.5v-13.6C367,99.2,366,98.1,364.7,98z M314.2,98.6c-10.5,0-19-8.5-19-19s8.5-19,19-19s19,8.5,19,19l0,0C333.2,90.1,324.7,98.6,314.2,98.6z"/>
    </g>
  </g>
</svg>
