<svg width="37" height="37" viewBox="0 0 37 37" fill="none" xmlns="http://www.w3.org/2000/svg">
<path d="M25.4702 19.334H21.0099C20.042 19.334 19.2578 20.1182 19.2578 21.0861V25.458C19.2578 26.4259 20.042 27.2101 21.0099 27.2101H25.4702C26.438 27.2101 27.2222 26.4259 27.2222 25.458V21.0861C27.2222 20.1182 26.438 19.334 25.4702 19.334Z" fill="#CBCBCB"/>
<path d="M15.4936 19.334H11.0333C10.0654 19.334 9.28125 20.1182 9.28125 21.0861V25.458C9.28125 26.4259 10.0654 27.2101 11.0333 27.2101H15.4936C16.4615 27.2101 17.2457 26.4259 17.2457 25.458V21.0861C17.2457 20.1182 16.4615 19.334 15.4936 19.334Z" fill="#CBCBCB"/>
<path d="M15.4936 9.35742H11.0333C10.0654 9.35742 9.28125 10.1416 9.28125 11.1095V15.4814C9.28125 16.4493 10.0654 17.2335 11.0333 17.2335H15.4936C16.4615 17.2335 17.2457 16.4493 17.2457 15.4814V11.1095C17.2457 10.1416 16.4615 9.35742 15.4936 9.35742Z" fill="#CBCBCB"/>
<path d="M20.2609 12.2988H26.2955C26.8406 12.2988 27.281 12.7404 27.281 13.2844C27.281 13.8295 26.8395 14.2699 26.2955 14.2699H20.2609C19.7158 14.2699 19.2754 13.8284 19.2754 13.2844C19.2754 12.7404 19.7158 12.2988 20.2609 12.2988Z" fill="#6E6E6E"/>
<path d="M22.292 16.3025V10.2668C22.292 9.72162 22.7335 9.28125 23.2775 9.28125C23.8227 9.28125 24.2631 9.7228 24.2631 10.2668V16.3013C24.2631 16.8465 23.8215 17.2869 23.2775 17.2869C22.7335 17.2881 22.292 16.8465 22.292 16.3025Z" fill="#6E6E6E"/>
</svg>
