<svg width="24" height="26" viewBox="0 0 24 26" fill="none" xmlns="http://www.w3.org/2000/svg">
<path d="M0.335999 10.9481C0.335999 6.80392 0.335999 4.73189 0.825265 4.03481C1.31452 3.33773 3.26278 2.67084 7.15932 1.33703L7.90168 1.08293C9.93288 0.387647 10.9484 0.0400085 12 0.0400085C13.0516 0.0400085 14.0671 0.387647 16.0983 1.08293L16.8407 1.33703C20.7372 2.67084 22.6855 3.33773 23.1748 4.03481C23.664 4.73189 23.664 6.80392 23.664 10.9481V12.9889C23.664 20.2957 18.1703 23.8417 14.7234 25.3474C13.7885 25.7558 13.321 25.96 12 25.96C10.679 25.96 10.2115 25.7558 9.27653 25.3474C5.82969 23.8417 0.335999 20.2957 0.335999 12.9889V10.9481Z" fill="#CFD6F8"/>
<path d="M9.10202 9.38409C9.10202 7.74343 10.431 6.41447 12.0716 6.41447C13.7123 6.41447 15.0413 7.74343 15.0413 9.38409C15.0413 11.0248 13.7123 12.3537 12.0716 12.3537C10.431 12.3537 9.10202 11.0248 9.10202 9.38409Z" fill="#3F59E4"/>
<path d="M6.9882 14.4146C7.54483 13.858 8.29906 13.5463 9.0867 13.5463H15.0412C15.8275 13.5463 16.5831 13.8594 17.1397 14.4146C17.6964 14.9713 18.0081 15.7255 18.0081 16.5131V17.1087C18.0081 17.7628 17.4779 18.293 16.8238 18.293H7.31244C6.65283 18.293 6.11847 17.7586 6.11847 17.099V16.5131C6.11986 15.7269 6.43157 14.9713 6.9882 14.4146Z" fill="#7286EB"/>
</svg>
