<svg width="24" height="26" viewBox="0 0 24 26" fill="none" xmlns="http://www.w3.org/2000/svg">
<path d="M0.33606 10.9481C0.33606 6.80395 0.33606 4.73192 0.825326 4.03484C1.31458 3.33776 3.26284 2.67087 7.15938 1.33706L7.90174 1.08296C9.93294 0.387678 10.9485 0.0400391 12.0001 0.0400391C13.0516 0.0400391 14.0672 0.387678 16.0984 1.08296L16.8407 1.33706C20.7373 2.67087 22.6856 3.33776 23.1748 4.03484C23.6641 4.73192 23.6641 6.80395 23.6641 10.9481V12.9889C23.6641 20.2957 18.1703 23.8417 14.7235 25.3474C13.7885 25.7558 13.3211 25.96 12.0001 25.96C10.679 25.96 10.2116 25.7558 9.27659 25.3474C5.82975 23.8417 0.33606 20.2957 0.33606 12.9889V10.9481Z" fill="#E1E1E1"/>
<path d="M9.10205 9.38417C9.10205 7.7435 10.431 6.41455 12.0717 6.41455C13.7123 6.41455 15.0413 7.7435 15.0413 9.38417C15.0413 11.0248 13.7123 12.3538 12.0717 12.3538C10.431 12.3538 9.10205 11.0248 9.10205 9.38417Z" fill="#6E6E6E"/>
<path d="M6.98826 14.4147C7.54489 13.8581 8.29913 13.5464 9.08676 13.5464H15.0413C15.8275 13.5464 16.5832 13.8595 17.1398 14.4147C17.6964 14.9714 18.0081 15.7256 18.0081 16.5132V17.1088C18.0081 17.7629 17.4779 18.293 16.8239 18.293H7.3125C6.65289 18.293 6.11853 17.7587 6.11853 17.0991V16.5132C6.11992 15.727 6.43163 14.9714 6.98826 14.4147Z" fill="#AEAEAE"/>
</svg>
