<svg width="32" height="32" viewBox="0 0 32 32" fill="none" xmlns="http://www.w3.org/2000/svg">
<path d="M12.051 15.1341C11.5238 15.1341 10.9966 15.1341 10.4704 15.1341C10.0816 15.1341 9.70388 15.2404 9.31148 15.2294C8.4359 15.2065 7.56216 14.4336 7.44389 13.5681C7.3137 12.6165 7.67585 11.9041 8.48633 11.4145C8.75679 11.2513 9.05843 11.1807 9.38115 11.1826C9.97251 11.1844 10.474 10.9763 10.8077 10.4665C11.1616 9.92558 11.1736 9.35256 10.8435 8.80338C10.1064 7.57941 10.9132 5.93095 12.3352 5.77692C13.2208 5.68157 13.8947 6.01438 14.3559 6.77076C14.6749 7.29427 15.1168 7.63442 15.7375 7.64909C16.3683 7.66467 16.8442 7.35112 17.165 6.81385C17.6638 5.97862 18.422 5.67607 19.2921 5.7925C20.0879 5.89886 20.7535 6.54706 20.9305 7.37954C21.0286 7.84254 20.9864 8.30279 20.7517 8.7337C20.5912 9.028 20.4656 9.3278 20.4482 9.67987C20.407 10.5353 21.1065 11.2724 22.027 11.2816C23.0328 11.2917 23.7671 11.8537 24.0486 12.8209C24.3053 13.7066 23.8038 14.7866 22.9704 15.1588C22.6825 15.2872 22.3974 15.2029 22.1159 15.1644C21.3174 15.0571 20.5307 14.8856 19.7505 14.6793C19.2884 14.5565 18.8768 14.3227 18.4422 14.1412C18.3441 14.0999 18.2506 14.0458 18.1525 14.0036C17.8087 13.856 17.8059 13.8569 17.8499 13.4856C17.9884 12.3158 17.1091 11.288 15.986 11.178C14.6704 11.0487 13.5692 12.148 13.6811 13.4499C13.7214 13.9184 13.9112 14.3337 14.2257 14.6839C14.3192 14.7884 14.2963 14.8242 14.2019 14.9095C14.002 15.0892 13.7865 15.1506 13.5179 15.1387C13.0301 15.1176 12.5406 15.1332 12.0519 15.1332L12.051 15.1341Z" fill="#9DAAF1"/>
<path d="M12.6052 16.4545L12.6072 16.4554C12.3698 16.7084 12.1733 16.9203 11.9744 17.1293C11.2191 17.9242 11.1968 19.2058 11.9265 20.0043C12.7049 20.8568 13.9584 20.977 14.8376 20.2748C15.2134 19.9751 15.5835 19.6667 15.9382 19.3431C16.0904 19.2048 16.1635 19.2274 16.2927 19.3685C17.9136 21.1443 19.5497 22.9059 21.1248 24.722C21.2119 24.8229 21.2393 24.9122 21.1843 25.0287C21.1018 25.2029 21.0245 25.3756 20.7908 25.3949C20.2895 25.4361 19.7882 25.4848 19.2869 25.5297C19.2411 25.5333 19.195 25.5365 19.1492 25.5365C18.7201 25.5337 18.4076 25.7184 18.1472 26.0677C17.215 27.3162 17.351 27.0343 16.0212 27.2679C15.7005 27.3248 15.3802 27.4038 15.0466 27.3773C14.6423 27.3443 14.2909 27.1873 13.9929 26.9242C12.4619 25.5682 10.9364 24.2066 9.40991 22.8461C9.10931 22.5784 8.93914 22.2417 8.93628 21.8412C8.92619 20.4523 8.89239 19.0612 8.95288 17.6732C8.9813 17.0342 9.53323 16.4815 10.1511 16.4613C10.9496 16.4356 11.75 16.4545 12.6052 16.4545ZM16.4734 15.4984C17.4717 15.3977 18.4291 15.5536 19.3513 15.9642C20.0617 16.2804 20.8256 16.4032 21.5974 16.4554C22.3059 16.5041 22.6619 16.8692 22.6619 17.5824V19.4857C22.6619 20.0814 22.6465 20.6771 22.6658 21.2719C22.6814 21.7449 22.5377 22.1562 22.281 22.5394C22.1233 22.7741 21.939 22.988 21.7556 23.2025C21.6732 23.2995 21.6148 23.3284 21.5095 23.2103C20.6202 22.2128 19.7274 21.2192 18.8289 20.2308C18.0688 19.3947 17.3013 18.5655 16.5339 17.7367C16.3086 17.4941 16.141 17.4933 15.8835 17.7103C15.2885 18.2128 14.6944 18.7157 14.0994 19.2172C13.7391 19.5205 13.2581 19.5101 12.9373 19.1947C12.6056 18.8692 12.5838 18.3801 12.9138 18.0199C13.527 17.3508 14.1471 16.6857 14.8162 16.0707C15.2782 15.6462 15.8793 15.5589 16.4734 15.4984Z" fill="#3F59E4"/>
</svg>
