<svg width="32" height="32" viewBox="2 2 32 32" fill="none" xmlns="http://www.w3.org/2000/svg">
<path d="M16.1951 7.37305L8.05974 13.5133C6.82948 14.4415 6.31596 16.0796 6.78692 17.5735L9.89277 27.432C10.3651 28.9327 11.7217 29.9474 13.2526 29.9474H23.3089C24.8398 29.9474 26.1964 28.9314 26.6687 27.432L29.7746 17.5735C30.2456 16.0796 29.732 14.4415 28.5018 13.5133L20.3719 7.37305C19.1279 6.43388 17.4377 6.43388 16.1951 7.37305Z" fill="#C1C9F6"/>
<path d="M15.6651 25.3724C14.7232 25.3724 13.7799 25.0168 13.0577 24.3042L13.022 24.2685C12.3272 23.5504 11.9578 22.6112 11.9743 21.6185C11.9922 20.6271 12.3945 19.7017 13.1071 19.0124C14.3758 17.7863 16.2761 17.6366 17.7013 18.5621L19.4698 16.7936L22.058 14.2054C22.0594 14.204 22.0608 14.2026 22.0635 14.1999L22.4521 13.8113C22.7377 13.5257 23.2004 13.5257 23.4874 13.8113C23.773 14.0969 23.773 14.561 23.4874 14.8466L22.7981 15.5359L23.9075 16.6453C24.1931 16.9309 24.1931 17.395 23.9075 17.6806L22.2544 19.331C21.9688 19.6166 21.5061 19.6166 21.2191 19.331L20.1097 18.2216L18.7448 19.5864C19.7115 21.0212 19.5687 22.9902 18.3068 24.2685C17.5832 25.0031 16.6248 25.3724 15.6651 25.3724ZM15.6857 19.9324C15.249 19.9324 14.8124 20.0971 14.4733 20.4253C13.7813 21.094 13.762 22.2007 14.4307 22.8927L14.4431 22.905C15.1282 23.5806 16.2363 23.5737 16.9118 22.8886C17.24 22.5563 17.4185 22.1169 17.4144 21.6514C17.4116 21.1928 17.2331 20.7617 16.9104 20.4363C16.9063 20.4322 16.9022 20.4294 16.8981 20.4253C16.5576 20.0958 16.1209 19.9324 15.6857 19.9324Z" fill="#3F59E4"/>
</svg>
