<svg width="16" height="16" viewBox="0 0 16 16" fill="none" xmlns="http://www.w3.org/2000/svg">
<path fill-rule="evenodd" clip-rule="evenodd" d="M7.99999 2C4.68628 2 1.99999 4.68629 1.99999 8C1.99999 11.3137 4.68628 14 7.99999 14C11.3137 14 14 11.3137 14 8C14 4.68629 11.3137 2 7.99999 2ZM0.666656 8C0.666656 3.94991 3.9499 0.666664 7.99999 0.666664C12.0501 0.666664 15.3333 3.94991 15.3333 8C15.3333 12.0501 12.0501 15.3333 7.99999 15.3333C3.9499 15.3333 0.666656 12.0501 0.666656 8ZM7.33332 7.33333V5.33333H8.66666V7.33333H10.6667V8.66666H8.66666V10.6667L7.33332 10.6667V8.66666H5.33332V7.33333H7.33332Z" fill="#272727"/>
</svg>
