<svg width="16" height="16" viewBox="0 0 16 16" fill="none" xmlns="http://www.w3.org/2000/svg">
<path fill-rule="evenodd" clip-rule="evenodd" d="M4.33334 1.33331C2.67649 1.33331 1.33334 2.67646 1.33334 4.33331C1.33334 5.99017 2.67649 7.33331 4.33334 7.33331C5.9902 7.33331 7.33334 5.99017 7.33334 4.33331C7.33334 2.67646 5.9902 1.33331 4.33334 1.33331ZM4.33334 8.66665C2.67649 8.66665 1.33334 10.0098 1.33334 11.6666C1.33334 13.3235 2.67649 14.6666 4.33334 14.6666C5.9902 14.6666 7.33334 13.3235 7.33334 11.6666C7.33334 10.0098 5.9902 8.66665 4.33334 8.66665ZM8.66668 4.33331C8.66668 2.67646 10.0098 1.33331 11.6667 1.33331C13.3235 1.33331 14.6667 2.67646 14.6667 4.33331C14.6667 5.99017 13.3235 7.33331 11.6667 7.33331C10.0098 7.33331 8.66668 5.99017 8.66668 4.33331ZM11.6667 8.66665C10.0098 8.66665 8.66668 10.0098 8.66668 11.6666C8.66668 13.3235 10.0098 14.6666 11.6667 14.6666C13.3235 14.6666 14.6667 13.3235 14.6667 11.6666C14.6667 10.0098 13.3235 8.66665 11.6667 8.66665Z" fill="#272727"/>
</svg>
