<svg width="16" height="16" viewBox="0 0 16 16" fill="none" xmlns="http://www.w3.org/2000/svg">
<path fill-rule="evenodd" clip-rule="evenodd" d="M6.58582 1.13807C7.36687 0.357021 8.6332 0.357023 9.41425 1.13807L14.862 6.5858C15.643 7.36685 15.643 8.63317 14.862 9.41422L9.41426 14.8619C8.63321 15.643 7.36689 15.643 6.58584 14.8619L1.13811 9.4142C0.357064 8.63316 0.357064 7.36683 1.13811 6.58578L6.58582 1.13807ZM8 8.66666C7.63181 8.66666 7.33333 8.36819 7.33333 8L7.33333 4.66666H8.66667V8C8.66667 8.36819 8.36819 8.66666 8 8.66666ZM8 9.83333C7.53976 9.83333 7.16667 10.2064 7.16667 10.6667C7.16667 11.1269 7.53976 11.5 7.99999 11.5C8.46023 11.5 8.83333 11.1269 8.83333 10.6667C8.83333 10.2064 8.46023 9.83333 8 9.83333Z" fill="#272727"/>
</svg>
