<svg width="16" height="16" viewBox="0 0 16 16" fill="none" xmlns="http://www.w3.org/2000/svg">
<path fill-rule="evenodd" clip-rule="evenodd" d="M3.33334 1.33333C2.22877 1.33333 1.33334 2.22876 1.33334 3.33333V12.6667C1.33334 13.7712 2.22877 14.6667 3.33334 14.6667H12.6667C13.7712 14.6667 14.6667 13.7712 14.6667 12.6667V3.33333C14.6667 2.22876 13.7712 1.33333 12.6667 1.33333H3.33334ZM2.66668 3.33333C2.66668 2.96514 2.96515 2.66667 3.33334 2.66667H4.00001V13.3333H3.33334C2.96515 13.3333 2.66668 13.0349 2.66668 12.6667V3.33333ZM5.33334 13.3333H6.12014L6.28739 12.4971C6.57778 11.0451 7.85264 10 9.33334 10C10.814 10 12.0889 11.0451 12.3793 12.4971L12.5465 13.3333H12.6667C13.0349 13.3333 13.3333 13.0349 13.3333 12.6667V3.33333C13.3333 2.96514 13.0349 2.66667 12.6667 2.66667H5.33334V13.3333ZM11.0719 12.7586L11.1868 13.3333H7.47988L7.59483 12.7586C7.76057 11.9299 8.48822 11.3333 9.33334 11.3333C10.1785 11.3333 10.9061 11.9299 11.0719 12.7586ZM8.00001 6.66667C8.00001 5.93029 8.59696 5.33333 9.33334 5.33333C10.0697 5.33333 10.6667 5.93029 10.6667 6.66667C10.6667 7.40305 10.0697 8 9.33334 8C8.59696 8 8.00001 7.40305 8.00001 6.66667ZM9.33334 4C7.86058 4 6.66668 5.19391 6.66668 6.66667C6.66668 8.13942 7.86058 9.33333 9.33334 9.33333C10.8061 9.33333 12 8.13942 12 6.66667C12 5.19391 10.8061 4 9.33334 4Z" fill="#272727"/>
</svg>
