<svg width="16" height="16" viewBox="0 0 16 16" fill="none" xmlns="http://www.w3.org/2000/svg">
<path fill-rule="evenodd" clip-rule="evenodd" d="M3.33335 13.3333L3.33335 10.6667L2.00002 10.6667L2.00002 13.3333C2.00002 14.4379 2.89545 15.3333 4.00002 15.3333L12 15.3333C13.1046 15.3333 14 14.4379 14 13.3333L14 10.6667L12.6667 10.6667L12.6667 13.3333C12.6667 13.7015 12.3682 14 12 14L4.00002 14C3.63183 14 3.33335 13.7015 3.33335 13.3333ZM12.1954 6.33336L8.66688 9.86187L8.66688 0.804781L7.33354 0.804781L7.33354 9.86204L3.80487 6.33336L2.86206 7.27617L7.1516 11.5657L7.16251 11.5766C7.21864 11.6328 7.28567 11.6999 7.34957 11.7541C7.42362 11.817 7.53602 11.9007 7.69111 11.9511C7.89195 12.0163 8.1083 12.0163 8.30915 11.9511C8.46423 11.9007 8.57663 11.817 8.65068 11.7541C8.71458 11.6999 8.7816 11.6328 8.83773 11.5766L8.83775 11.5766L8.84866 11.5657L13.1382 7.27617L12.1954 6.33336Z" fill="#272727"/>
</svg>
