<svg width="16" height="16" viewBox="0 0 16 16" fill="none" xmlns="http://www.w3.org/2000/svg">
<path fill-rule="evenodd" clip-rule="evenodd" d="M14.6667 14.6667H13.3333V1.33333H14.6667V14.6667ZM2.94285 8.66667H12V7.33333H2.94285L6.47145 3.80474L5.52864 2.86193L1.23909 7.15147L1.22818 7.16238L1.22816 7.1624C1.17199 7.21853 1.10492 7.28555 1.05067 7.34945C0.987811 7.42349 0.904114 7.53589 0.853723 7.69098C0.788465 7.89183 0.788465 8.10817 0.853723 8.30902C0.904114 8.46411 0.987812 8.57651 1.05067 8.65056C1.10492 8.71446 1.17201 8.78149 1.22818 8.83762L1.23909 8.84853L5.52864 13.1381L6.47145 12.1953L2.94285 8.66667Z" fill="#272727"/>
</svg>
