<svg width="16" height="16" viewBox="0 0 16 16" fill="none" xmlns="http://www.w3.org/2000/svg">
<path fill-rule="evenodd" clip-rule="evenodd" d="M5.5286 9.52859L12.3905 2.66666H6.66667V1.33333H13.4667L13.4821 1.33333C13.5615 1.3333 13.6563 1.33326 13.7399 1.34009C13.8367 1.348 13.9754 1.36829 14.1207 1.44232C14.3088 1.5382 14.4618 1.69118 14.5577 1.87934C14.6317 2.02464 14.652 2.1633 14.6599 2.26011C14.6667 2.34365 14.6667 2.43849 14.6667 2.5179L14.6667 2.53333V9.33333H13.3333V3.60947L6.4714 10.4714L5.5286 9.52859ZM10.6917 13.3559V8.12378L12.025 6.7627V14.0226V14.6892H11.3584H2.01595H1.34928V14.0226V4.6441V3.97743H2.01595H9.23478L7.87371 5.31076H2.68262V13.3559H10.6917Z" fill="#272727"/>
</svg>
