<svg width="16" height="16" viewBox="0 0 16 16" fill="none" xmlns="http://www.w3.org/2000/svg">
<path fill-rule="evenodd" clip-rule="evenodd" d="M12.6666 4.33333C12.6666 5.25381 11.9205 6 11 6C10.0795 6 9.33331 5.25381 9.33331 4.33333C9.33331 3.41286 10.0795 2.66667 11 2.66667C11.9205 2.66667 12.6666 3.41286 12.6666 4.33333ZM14 4.33333C14 5.99019 12.6568 7.33333 11 7.33333C9.34313 7.33333 7.99998 5.99019 7.99998 4.33333C7.99998 2.67648 9.34313 1.33333 11 1.33333C12.6568 1.33333 14 2.67648 14 4.33333ZM6.66665 7.66667C6.66665 8.58714 5.92046 9.33333 4.99998 9.33333C4.07951 9.33333 3.33331 8.58714 3.33331 7.66667C3.33331 6.74619 4.07951 6 4.99998 6C5.92046 6 6.66665 6.74619 6.66665 7.66667ZM7.99998 7.66667C7.99998 9.32352 6.65684 10.6667 4.99998 10.6667C3.34313 10.6667 1.99998 9.32352 1.99998 7.66667C1.99998 6.00981 3.34313 4.66667 4.99998 4.66667C6.65684 4.66667 7.99998 6.00981 7.99998 7.66667ZM4.99998 12.6667C3.79524 12.6667 2.6807 13.8296 2.66662 15.3396L1.33334 15.3271C1.35274 13.2475 2.91186 11.3333 4.99998 11.3333C7.08998 11.3333 8.65446 13.2396 8.66664 15.3294L7.33333 15.3372C7.32452 13.8257 6.21066 12.6667 4.99998 12.6667ZM8.72199 11.4615C8.96683 10.2113 9.94715 9.33333 11 9.33333C12.2073 9.33333 13.3245 10.4929 13.3333 12.0039L14.6666 11.9961C14.6545 9.90572 13.0856 8 11 8C9.17678 8 7.75344 9.46946 7.41351 11.2052C7.36337 11.4612 7.33585 11.7251 7.33334 11.9938L8.66662 12.0062C8.66835 11.8205 8.68737 11.6382 8.72199 11.4615Z" fill="#272727"/>
</svg>
