<svg width="16" height="16" viewBox="0 0 16 16" fill="none" xmlns="http://www.w3.org/2000/svg">
<path fill-rule="evenodd" clip-rule="evenodd" d="M14 8C14 11.3137 11.3137 14 7.99999 14C4.68628 14 1.99999 11.3137 1.99999 8C1.99999 4.68629 4.68628 2 7.99999 2C11.3137 2 14 4.68629 14 8ZM15.3333 8C15.3333 12.0501 12.0501 15.3333 7.99999 15.3333C3.9499 15.3333 0.666656 12.0501 0.666656 8C0.666656 3.94991 3.9499 0.666666 7.99999 0.666666C12.0501 0.666666 15.3333 3.94991 15.3333 8ZM6 6.66666C6.36819 6.66666 6.66667 6.36818 6.66667 5.99999C6.66667 5.6318 6.36819 5.33333 6 5.33333C5.63181 5.33333 5.33333 5.6318 5.33333 5.99999C5.33333 6.36818 5.63181 6.66666 6 6.66666ZM10.6667 5.99999C10.6667 6.36818 10.3682 6.66666 10 6.66666C9.63181 6.66666 9.33333 6.36818 9.33333 5.99999C9.33333 5.6318 9.63181 5.33333 10 5.33333C10.3682 5.33333 10.6667 5.6318 10.6667 5.99999ZM4.76592 8.37578C5.10937 8.24698 5.49205 8.41986 5.62275 8.76204L5.62527 8.76824C5.62842 8.77588 5.63439 8.78999 5.64335 8.80966C5.66131 8.84909 5.69093 8.91017 5.73339 8.98565C5.81896 9.13777 5.95279 9.34156 6.14261 9.54403C6.51495 9.9412 7.09853 10.3333 8 10.3333C8.90147 10.3333 9.48505 9.9412 9.85739 9.54403C10.0472 9.34156 10.181 9.13777 10.2666 8.98565C10.3091 8.91017 10.3387 8.84909 10.3567 8.80966C10.3656 8.78999 10.3716 8.77588 10.3747 8.76824L10.3772 8.76204C10.5079 8.41986 10.8906 8.24698 11.2341 8.37578C11.5788 8.50506 11.7535 8.88933 11.6242 9.23408L11 9C11.6242 9.23408 11.6241 9.23439 11.624 9.2347L11.6237 9.23537L11.6232 9.23686L11.6218 9.24039L11.6182 9.24966L11.6073 9.27668C11.5984 9.29833 11.5861 9.32719 11.5701 9.36221C11.5383 9.43215 11.4917 9.52732 11.4287 9.63934C11.3033 9.86222 11.109 10.1584 10.8301 10.456C10.265 11.0588 9.34853 11.6667 8 11.6667C6.65147 11.6667 5.73505 11.0588 5.16989 10.456C4.89096 10.1584 4.69667 9.86222 4.57129 9.63934C4.50829 9.52732 4.46174 9.43215 4.4299 9.36221C4.41395 9.32719 4.40161 9.29833 4.39268 9.27668L4.38178 9.24966L4.37818 9.24039L4.37683 9.23686L4.37627 9.23537L4.37602 9.2347C4.3759 9.23439 4.37578 9.23408 5 9L4.37578 9.23408C4.2465 8.88933 4.42117 8.50506 4.76592 8.37578Z" fill="#272727"/>
</svg>
