<svg width="16" height="16" viewBox="0 0 16 16" fill="none" xmlns="http://www.w3.org/2000/svg">
<path fill-rule="evenodd" clip-rule="evenodd" d="M8.00001 2C9.56887 2 10.845 2.49665 11.8609 3.19087L10.7604 4.07127C9.99467 3.62508 9.0813 3.33333 8.00001 3.33333C5.83085 3.33333 4.33748 4.50743 3.35604 5.74714C2.86577 6.36642 2.51508 6.98911 2.28709 7.45813C2.17847 7.68157 2.09868 7.86811 2.04564 8C2.09868 8.13189 2.17847 8.31843 2.28709 8.54187C2.49551 8.97061 2.80645 9.52777 3.23281 10.0933L2.19128 10.9266C1.68867 10.2652 1.32749 9.6176 1.08793 9.12479C0.958473 8.85848 0.863457 8.63513 0.800043 8.47612C0.768311 8.39656 0.744421 8.33292 0.728024 8.28786C0.719824 8.26533 0.713492 8.24742 0.708985 8.23448L0.703586 8.21881L0.701902 8.21384L0.701311 8.21208L0.701079 8.21139C0.70098 8.21109 0.700888 8.21082 1.33334 8C0.700888 7.78918 0.70098 7.78891 0.701079 7.78861L0.701311 7.78792L0.701902 7.78616L0.703586 7.78119L0.708985 7.76552C0.713492 7.75258 0.719824 7.73467 0.728024 7.71214C0.744421 7.66708 0.768311 7.60344 0.800043 7.52388C0.863457 7.36487 0.958473 7.14152 1.08793 6.87521C1.34605 6.34422 1.74536 5.63358 2.31065 4.91953C3.44032 3.49258 5.28028 2 8.00001 2ZM1.33334 8L0.700888 8.21082L0.630615 8L0.700888 7.78918L1.33334 8ZM8.00001 4.66667C8.55697 4.66667 9.08203 4.80327 9.5435 5.04479L8.31805 6.02515C8.21448 6.0086 8.10825 6 8.00001 6C6.93689 6 6.0675 6.8295 6.00376 7.87659L4.77794 8.85724C4.70536 8.58371 4.66668 8.29637 4.66668 8C4.66668 6.15905 6.15906 4.66667 8.00001 4.66667ZM9.99503 7.85773L7.42286 9.91546C7.6056 9.97045 7.79935 10 8.00001 10C9.10458 10 10 9.10457 10 8C10 7.95217 9.99833 7.90472 9.99503 7.85773ZM6.26145 10.8446L5.05034 11.8135C5.85356 12.324 6.82817 12.6667 8.00001 12.6667C10.1692 12.6667 11.6625 11.4926 12.644 10.2529C13.1342 9.63358 13.4849 9.01089 13.7129 8.54187C13.8216 8.31843 13.9013 8.13189 13.9544 8C13.9013 7.86811 13.8216 7.68157 13.7129 7.45813C13.4849 6.98911 13.1342 6.36642 12.644 5.74714C12.6426 5.74539 12.6412 5.74364 12.6398 5.74189L11.1572 6.92798C11.2714 7.26441 11.3333 7.62497 11.3333 8C11.3333 9.84095 9.84096 11.3333 8.00001 11.3333C7.36295 11.3333 6.76763 11.1546 6.26145 10.8446ZM13.681 4.90896L15.4165 3.52058L14.5835 2.47942L1.2502 13.1461L2.08313 14.1872L3.96195 12.6842C5.00541 13.443 6.33855 14 8.00001 14C10.7197 14 12.5597 12.5074 13.6894 11.0805C14.2547 10.3664 14.654 9.65578 14.9121 9.12479C15.0415 8.85848 15.1366 8.63513 15.2 8.47612C15.2317 8.39656 15.2556 8.33292 15.272 8.28786C15.2802 8.26533 15.2865 8.24742 15.291 8.23448L15.2964 8.21881L15.2981 8.21384L15.2987 8.21208L15.2989 8.21139C15.299 8.21109 15.2991 8.21082 14.6667 8L15.2991 8.21082L15.3694 8L15.2991 7.78918L14.6667 8C15.2991 7.78918 15.299 7.78891 15.2989 7.78861L15.2987 7.78792L15.2981 7.78616L15.2964 7.78119L15.291 7.76552C15.2865 7.75258 15.2802 7.73467 15.272 7.71214C15.2556 7.66708 15.2317 7.60344 15.2 7.52388C15.1366 7.36487 15.0415 7.14152 14.9121 6.87521C14.654 6.34422 14.2547 5.63358 13.6894 4.91953C13.6866 4.91601 13.6838 4.91248 13.681 4.90896Z" fill="#272727"/>
</svg>
