<svg width="16" height="16" viewBox="0 0 16 16" fill="none" xmlns="http://www.w3.org/2000/svg">
<path fill-rule="evenodd" clip-rule="evenodd" d="M12.9428 3.33336L14.4714 4.86196L14.9428 5.33336L14.4714 5.80477L12.1381 8.1381L11.6667 8.60951L11.1953 8.1381L9.66666 6.60951L7.92716 8.34901C8.3928 9.00289 8.66666 9.80281 8.66666 10.6667C8.66666 12.8758 6.8758 14.6667 4.66666 14.6667C2.45752 14.6667 0.666656 12.8758 0.666656 10.6667C0.666656 8.45756 2.45752 6.6667 4.66666 6.6667C5.53054 6.6667 6.33047 6.94056 6.98435 7.4062L8.72385 5.6667L9.19525 5.19529L11.5286 2.86196L12 2.39055L12.8619 1.52863L13.8047 2.47143L12.9428 3.33336Z" fill="#272727"/>
</svg>
