<svg width="16" height="16" viewBox="0 0 16 16" fill="none" xmlns="http://www.w3.org/2000/svg">
<path fill-rule="evenodd" clip-rule="evenodd" d="M7.99999 2C4.68628 2 1.99999 4.68629 1.99999 8C1.99999 11.3137 4.68628 14 7.99999 14C11.3137 14 14 11.3137 14 8C14 4.68629 11.3137 2 7.99999 2ZM0.666656 8C0.666656 3.94991 3.9499 0.666664 7.99999 0.666664C12.0501 0.666664 15.3333 3.94991 15.3333 8C15.3333 12.0501 12.0501 15.3333 7.99999 15.3333C3.9499 15.3333 0.666656 12.0501 0.666656 8ZM7.99999 5.83333C8.46023 5.83333 8.83332 5.46024 8.83332 5C8.83332 4.53975 8.46023 4.16666 7.99999 4.16666C7.53976 4.16666 7.16666 4.53975 7.16666 5C7.16666 5.46024 7.53976 5.83333 7.99999 5.83333ZM8.66666 7.66666C8.66666 7.29847 8.36818 7 7.99999 7C7.6318 7 7.33332 7.29847 7.33332 7.66666V11.6667L8.66666 11.6667V7.66666Z" fill="#272727"/>
</svg>
