<svg width="16" height="16" viewBox="0 0 16 16" fill="none" xmlns="http://www.w3.org/2000/svg">
<path fill-rule="evenodd" clip-rule="evenodd" d="M13.9516 1.95606L13.9972 2.00165L14.0428 2.04721L14.0428 2.04722L14.0428 2.04724C14.3063 2.31058 14.5017 2.50584 14.6418 2.70993C15.2656 3.61903 15.2656 4.81826 14.6418 5.72736C14.5018 5.93144 14.3064 6.12669 14.0428 6.39004L14.0428 6.39006L14.0428 6.39006L13.9972 6.43564L11.3152 9.1176L11.2957 9.13708C10.9163 9.51655 10.6031 9.82973 10.3272 10.064C10.0405 10.3073 9.75049 10.5044 9.40513 10.6167C8.86954 10.7907 8.29262 10.7907 7.75704 10.6167C7.41167 10.5044 7.12163 10.3073 6.83501 10.064C6.60098 9.86533 6.34019 9.6099 6.0349 9.30543L6.97774 8.36259C7.28217 8.66606 7.50591 8.88456 7.69791 9.04755C7.92147 9.23734 8.05777 9.31242 8.16906 9.34859C8.43685 9.4356 8.72531 9.4356 8.9931 9.34859C9.1044 9.31242 9.24069 9.23734 9.46425 9.04755C9.69376 8.85272 9.96862 8.57859 10.3724 8.17479L13.0544 5.49283C13.3834 5.16376 13.4815 5.06167 13.5424 4.973C13.8542 4.51845 13.8543 3.91883 13.5424 3.46428C13.4815 3.37562 13.3834 3.27353 13.0544 2.94446C12.7253 2.61539 12.6232 2.51731 12.5346 2.45647C12.08 2.14458 11.4804 2.14458 11.0258 2.45647C10.9372 2.51731 10.8351 2.61539 10.506 2.94446L9.71838 3.73208C9.56942 3.6573 9.40964 3.59002 9.23794 3.53423C8.90642 3.42651 8.56434 3.36325 8.22042 3.34443L9.5632 2.00165L9.60877 1.95606C9.87212 1.6925 10.0674 1.49709 10.2715 1.35705C11.1806 0.733278 12.3798 0.733278 13.2889 1.35705C13.493 1.49709 13.6883 1.6925 13.9516 1.95606ZM9.74797 5.35497C9.982 5.55365 10.2428 5.80907 10.5481 6.11354L9.60522 7.05638C9.30081 6.75291 9.07707 6.53442 8.88507 6.37143C8.66151 6.18164 8.52522 6.10656 8.41392 6.0704C8.14613 5.98339 7.85767 5.98339 7.58988 6.0704C7.47859 6.10656 7.34229 6.18164 7.11873 6.37143C6.88922 6.56627 6.61436 6.84039 6.21057 7.24419L2.94447 10.5103C2.6154 10.8394 2.51732 10.9415 2.45648 11.0301C2.1446 11.4847 2.1446 12.0843 2.45648 12.5388C2.51732 12.6275 2.6154 12.7296 2.94447 13.0587C3.27354 13.3877 3.37563 13.4858 3.4643 13.5466C3.91885 13.8585 4.51846 13.8585 4.97301 13.5466C5.06168 13.4858 5.16377 13.3877 5.49284 13.0587L6.86459 11.6869C7.01354 11.7617 7.17332 11.829 7.34501 11.8847C7.67654 11.9925 8.01863 12.0557 8.36257 12.0745L6.43565 14.0015L6.39008 14.0471C6.12672 14.3106 5.93146 14.506 5.72737 14.6461C4.81827 15.2698 3.61904 15.2698 2.70994 14.6461C2.50585 14.506 2.31059 14.3106 2.04723 14.0471L2.04722 14.0471L2.00166 14.0015L1.95608 13.9559L1.95607 13.9559L1.95605 13.9559C1.6925 13.6925 1.4971 13.4973 1.35707 13.2932C0.733294 12.3841 0.733293 11.1849 1.35707 10.2758C1.4971 10.0717 1.69251 9.8764 1.95607 9.61305L2.00166 9.56748L5.26776 6.30138L5.28722 6.28191L5.28723 6.2819C5.66669 5.90243 5.97987 5.58925 6.25583 5.35497C6.54245 5.11165 6.83249 4.91454 7.17786 4.80232C7.71344 4.6283 8.29036 4.6283 8.82595 4.80232C9.17131 4.91454 9.46135 5.11165 9.74797 5.35497Z" fill="#272727"/>
</svg>
