<svg width="16" height="16" viewBox="0 0 16 16" fill="none" xmlns="http://www.w3.org/2000/svg">
<path fill-rule="evenodd" clip-rule="evenodd" d="M14 8C14 11.3137 11.3137 14 7.99999 14C4.68628 14 1.99999 11.3137 1.99999 8C1.99999 4.68629 4.68628 2 7.99999 2C11.3137 2 14 4.68629 14 8ZM15.3333 8C15.3333 12.0501 12.0501 15.3333 7.99999 15.3333C3.9499 15.3333 0.666656 12.0501 0.666656 8C0.666656 3.94991 3.9499 0.666666 7.99999 0.666666C12.0501 0.666666 15.3333 3.94991 15.3333 8ZM6 6.66666C6.36819 6.66666 6.66667 6.36818 6.66667 5.99999C6.66667 5.6318 6.36819 5.33333 6 5.33333C5.63181 5.33333 5.33333 5.6318 5.33333 5.99999C5.33333 6.36818 5.63181 6.66666 6 6.66666ZM10.6667 5.99999C10.6667 6.36818 10.3682 6.66666 10 6.66666C9.63181 6.66666 9.33333 6.36818 9.33333 5.99999C9.33333 5.6318 9.63181 5.33333 10 5.33333C10.3682 5.33333 10.6667 5.6318 10.6667 5.99999ZM4.99999 9.33333C4.6318 9.33333 4.33332 9.63181 4.33332 10C4.33332 10.3682 4.6318 10.6667 4.99999 10.6667H7.99999H11C11.3682 10.6667 11.6667 10.3682 11.6667 10C11.6667 9.63181 11.3682 9.33333 11 9.33333H7.99999H4.99999Z" fill="#272727"/>
</svg>
