<svg width="16" height="16" viewBox="0 0 16 16" fill="none" xmlns="http://www.w3.org/2000/svg">
<path fill-rule="evenodd" clip-rule="evenodd" d="M15.3334 8.00001C15.3334 12.0501 12.0501 15.3333 8.00002 15.3333C3.94993 15.3333 0.666687 12.0501 0.666687 8.00001C0.666687 3.94992 3.94993 0.666672 8.00002 0.666672C12.0501 0.666672 15.3334 3.94992 15.3334 8.00001ZM8.01485 5.33334C7.46851 5.33334 7.01874 5.78311 7.01874 6.32945H5.6854C5.6854 5.04673 6.73213 4.00001 8.01485 4.00001C9.29757 4.00001 10.3443 5.04673 10.3443 6.32945C10.3443 7.26653 9.85349 7.97071 9.09386 8.40477L9.0778 8.41396L9.06125 8.42223C8.90907 8.49832 8.73872 8.63702 8.61054 8.80792C8.48037 8.98148 8.4321 9.13521 8.4321 9.23932C8.4321 9.60751 8.13362 9.90599 7.76543 9.90599C7.39724 9.90599 7.09877 9.60751 7.09877 9.23932C7.09877 8.76145 7.29991 8.33321 7.54387 8.00793C7.78528 7.68604 8.10621 7.41323 8.44579 7.23936C8.84054 7.00952 9.01097 6.71821 9.01097 6.32945C9.01097 5.78311 8.56119 5.33334 8.01485 5.33334ZM7.79999 12.3333C8.26023 12.3333 8.63332 11.9602 8.63332 11.5C8.63332 11.0398 8.26023 10.6667 7.79999 10.6667C7.33975 10.6667 6.96665 11.0398 6.96665 11.5C6.96665 11.9602 7.33975 12.3333 7.79999 12.3333Z" fill="#272727"/>
</svg>
