<svg width="16" height="16" viewBox="0 0 16 16" fill="none" xmlns="http://www.w3.org/2000/svg">
<path fill-rule="evenodd" clip-rule="evenodd" d="M10.25 1.33333H9.58333V2V4.66667H5.79166H5.125V5.33333V8H1.33333H0.666664V8.66667V11.0667V11.0938C0.666655 11.5841 0.666647 11.9921 0.693856 12.3251C0.722202 12.672 0.78337 12.9959 0.939148 13.3016C1.17883 13.772 1.56128 14.1545 2.03169 14.3942C2.33742 14.55 2.66131 14.6111 3.00825 14.6395C3.34126 14.6667 3.74922 14.6667 4.23947 14.6667H4.26667H5.125H5.75H5.79166H6.41666H9.58333H10.2083H10.25H10.875H11.7333H11.7605C12.2508 14.6667 12.6587 14.6667 12.9917 14.6395C13.3387 14.6111 13.6626 14.55 13.9683 14.3942C14.4387 14.1545 14.8212 13.772 15.0608 13.3016C15.2166 12.9959 15.2778 12.672 15.3061 12.3251C15.3333 11.9921 15.3333 11.5841 15.3333 11.0939V11.0667V2V1.33333H14.6667H10.25ZM10.9167 13.3333V2.66667H14V11.0667C14 11.591 13.9995 11.9442 13.9772 12.2165C13.9556 12.481 13.9169 12.6099 13.8728 12.6963C13.761 12.9158 13.5825 13.0943 13.363 13.2062C13.2765 13.2502 13.1477 13.289 12.8832 13.3106C12.6109 13.3328 12.2577 13.3333 11.7333 13.3333H10.9167ZM6.45833 6V13.3333H9.54166V6H6.45833ZM2 9.33333V11.0667C2 11.591 2.00052 11.9442 2.02276 12.2165C2.04437 12.481 2.08311 12.6099 2.12716 12.6963C2.23901 12.9158 2.41749 13.0943 2.63701 13.2062C2.72345 13.2502 2.85234 13.289 3.11682 13.3106C3.38909 13.3328 3.74228 13.3333 4.26667 13.3333H5.08333V9.33333H2Z" fill="#272727"/>
</svg>
