<svg width="16" height="16" viewBox="0 0 16 16" fill="none" xmlns="http://www.w3.org/2000/svg">
<path fill-rule="evenodd" clip-rule="evenodd" d="M2.00001 8C2.00001 4.68629 4.6863 2 8.00001 2C11.3137 2 14 4.68629 14 8C14 11.3137 11.3137 14 8.00001 14C4.6863 14 2.00001 11.3137 2.00001 8ZM8.00001 0.666667C3.94992 0.666667 0.666672 3.94991 0.666672 8C0.666672 12.0501 3.94992 15.3333 8.00001 15.3333C12.0501 15.3333 15.3333 12.0501 15.3333 8C15.3333 3.94991 12.0501 0.666667 8.00001 0.666667ZM6.78055 11.0218L11.0352 8.89443C11.7722 8.52591 11.7722 7.4741 11.0352 7.10558L6.78055 4.97826C6.11565 4.64581 5.33334 5.12931 5.33334 5.87269V10.1273C5.33334 10.8707 6.11565 11.3542 6.78055 11.0218ZM6.66667 6.41203L9.84263 8.00001L6.66667 9.58798L6.66667 6.41203Z" fill="#272727"/>
</svg>
