<svg width="16" height="16" viewBox="0 0 16 16" fill="none" xmlns="http://www.w3.org/2000/svg">
<path fill-rule="evenodd" clip-rule="evenodd" d="M14 8C14 11.3137 11.3137 14 7.99999 14C4.68628 14 1.99999 11.3137 1.99999 8C1.99999 4.68629 4.68628 2 7.99999 2C11.3137 2 14 4.68629 14 8ZM15.3333 8C15.3333 12.0501 12.0501 15.3333 7.99999 15.3333C3.9499 15.3333 0.666656 12.0501 0.666656 8C0.666656 3.94991 3.9499 0.666666 7.99999 0.666666C12.0501 0.666666 15.3333 3.94991 15.3333 8ZM6 6.66666C6.36819 6.66666 6.66667 6.36818 6.66667 5.99999C6.66667 5.6318 6.36819 5.33333 6 5.33333C5.63181 5.33333 5.33333 5.6318 5.33333 5.99999C5.33333 6.36818 5.63181 6.66666 6 6.66666ZM10.6667 5.99999C10.6667 6.36818 10.3682 6.66666 10 6.66666C9.63181 6.66666 9.33333 6.36818 9.33333 5.99999C9.33333 5.6318 9.63181 5.33333 10 5.33333C10.3682 5.33333 10.6667 5.6318 10.6667 5.99999ZM4.76591 11.2909C5.10936 11.4197 5.49204 11.2468 5.62274 10.9046L5.62525 10.8984C5.62841 10.8908 5.63438 10.8767 5.64334 10.857C5.66129 10.8176 5.69092 10.7565 5.73338 10.681C5.81895 10.5289 5.95278 10.3251 6.1426 10.1226C6.51494 9.72546 7.09852 9.33333 7.99999 9.33333C8.90146 9.33333 9.48504 9.72546 9.85738 10.1226C10.0472 10.3251 10.181 10.5289 10.2666 10.681C10.3091 10.7565 10.3387 10.8176 10.3566 10.857C10.3656 10.8767 10.3716 10.8908 10.3747 10.8984L10.3772 10.9046C10.5079 11.2468 10.8906 11.4197 11.2341 11.2909C11.5788 11.1616 11.7535 10.7773 11.6242 10.4326L11 10.6667C11.6242 10.4326 11.6241 10.4323 11.624 10.432L11.6237 10.4313L11.6232 10.4298L11.6218 10.4263L11.6182 10.417L11.6073 10.39C11.5984 10.3683 11.586 10.3395 11.5701 10.3045C11.5382 10.2345 11.4917 10.1393 11.4287 10.0273C11.3033 9.80444 11.109 9.50823 10.8301 9.2107C10.2649 8.60787 9.34852 8 7.99999 8C6.65146 8 5.73504 8.60787 5.16988 9.2107C4.89095 9.50823 4.69666 9.80444 4.57128 10.0273C4.50828 10.1393 4.46173 10.2345 4.42989 10.3045C4.41394 10.3395 4.4016 10.3683 4.39267 10.39L4.38177 10.417L4.37817 10.4263L4.37682 10.4298L4.37626 10.4313L4.37601 10.432C4.37589 10.4323 4.37577 10.4326 4.99999 10.6667L4.37577 10.4326C4.24649 10.7773 4.42116 11.1616 4.76591 11.2909Z" fill="#272727"/>
</svg>
