<svg width="16" height="16" viewBox="0 0 16 16" fill="none" xmlns="http://www.w3.org/2000/svg">
<path fill-rule="evenodd" clip-rule="evenodd" d="M10.6667 6.66667C10.6667 8.87581 8.87582 10.6667 6.66668 10.6667C4.45754 10.6667 2.66668 8.87581 2.66668 6.66667C2.66668 4.45753 4.45754 2.66667 6.66668 2.66667C8.87582 2.66667 10.6667 4.45753 10.6667 6.66667ZM9.9132 10.8984C9.014 11.5893 7.8883 12 6.66668 12C3.72116 12 1.33334 9.61219 1.33334 6.66667C1.33334 3.72115 3.72116 1.33333 6.66668 1.33333C9.6122 1.33333 12 3.72115 12 6.66667C12 7.90999 11.5746 9.05394 10.8613 9.96088L14.4714 13.571L13.5286 14.5138L9.9132 10.8984Z" fill="#272727"/>
</svg>
