<svg width="16" height="16" viewBox="0 0 16 16" fill="none" xmlns="http://www.w3.org/2000/svg">
<path fill-rule="evenodd" clip-rule="evenodd" d="M4 0.666667C2.89543 0.666667 2 1.5621 2 2.66667V13.3333C2 14.4379 2.89543 15.3333 4 15.3333H12C13.1046 15.3333 14 14.4379 14 13.3333V2.66667C14 1.5621 13.1046 0.666667 12 0.666667H4ZM3.33333 2.66667C3.33333 2.29848 3.63181 2 4 2H12C12.3682 2 12.6667 2.29848 12.6667 2.66667L12.6667 5.11111H3.33333V2.66667ZM3.33333 6.44445H12.6667V9.55556H3.33333V6.44445ZM3.33333 10.8889V13.3333C3.33333 13.7015 3.63181 14 4 14H12C12.3682 14 12.6667 13.7015 12.6667 13.3333L12.6667 10.8889H3.33333ZM5.33333 4.22223C5.70152 4.22223 6 3.92375 6 3.55556C6 3.18737 5.70152 2.8889 5.33333 2.8889C4.96514 2.8889 4.66667 3.18737 4.66667 3.55556C4.66667 3.92375 4.96514 4.22223 5.33333 4.22223ZM5.33333 8.66667C5.70152 8.66667 6 8.3682 6 8.00001C6 7.63182 5.70152 7.33334 5.33333 7.33334C4.96514 7.33334 4.66667 7.63182 4.66667 8.00001C4.66667 8.3682 4.96514 8.66667 5.33333 8.66667ZM6 12.4444C6 12.8126 5.70152 13.1111 5.33333 13.1111C4.96514 13.1111 4.66667 12.8126 4.66667 12.4444C4.66667 12.0763 4.96514 11.7778 5.33333 11.7778C5.70152 11.7778 6 12.0763 6 12.4444Z" fill="#272727"/>
</svg>
