<svg width="16" height="16" viewBox="0 0 16 16" fill="none" xmlns="http://www.w3.org/2000/svg">
<path fill-rule="evenodd" clip-rule="evenodd" d="M0.878212 6.24406C1.19669 4.94801 1.85972 3.78742 2.76464 2.86495C3.37141 3.18408 4.2155 3.23245 4.91865 2.83995C5.66103 2.42554 6.04176 1.63387 6.0176 0.937771C6.64815 0.761141 7.31303 0.666687 7.99998 0.666687C8.68691 0.666687 9.35178 0.761137 9.98231 0.937758C9.95815 1.63386 10.3389 2.42554 11.0813 2.83995C11.7844 3.23246 12.6285 3.18407 13.2353 2.86493C14.1402 3.7874 14.8033 4.948 15.1217 6.24405C14.5785 6.60737 14.1626 7.25793 14.1626 8.00002C14.1626 8.74211 14.5785 9.39267 15.1217 9.75599C14.8033 11.052 14.1402 12.2126 13.2353 13.1351C12.6285 12.816 11.7844 12.7676 11.0813 13.1601C10.3389 13.5745 9.95818 14.3662 9.98234 15.0623C9.3518 15.2389 8.68692 15.3334 7.99998 15.3334C7.31304 15.3334 6.64816 15.2389 6.01762 15.0623C6.04178 14.3662 5.66105 13.5745 4.91867 13.1601C4.21551 12.7676 3.37142 12.816 2.76464 13.1351C1.85973 12.2126 1.19669 11.052 0.878212 9.75598C1.42146 9.39265 1.83733 8.74211 1.83733 8.00002C1.83733 7.25794 1.42146 6.60739 0.878212 6.24406ZM7.99996 10.6667C9.47272 10.6667 10.6666 9.47276 10.6666 8C10.6666 6.52724 9.47272 5.33333 7.99996 5.33333C6.5272 5.33333 5.33329 6.52724 5.33329 8C5.33329 9.47276 6.5272 10.6667 7.99996 10.6667Z" fill="#272727"/>
</svg>
