<svg width="16" height="16" viewBox="0 0 16 16" fill="none" xmlns="http://www.w3.org/2000/svg">
<path fill-rule="evenodd" clip-rule="evenodd" d="M2.28708 8.54187C2.17846 8.31843 2.09867 8.13189 2.04563 8C2.09867 7.86811 2.17846 7.68157 2.28708 7.45813C2.51507 6.98911 2.86576 6.36642 3.35603 5.74714C4.33747 4.50743 5.83084 3.33333 8 3.33333C10.1692 3.33333 11.6625 4.50743 12.644 5.74714C13.1342 6.36642 13.4849 6.98911 13.7129 7.45813C13.8215 7.68157 13.9013 7.86811 13.9544 8C13.9013 8.13189 13.8215 8.31843 13.7129 8.54187C13.4849 9.01089 13.1342 9.63358 12.644 10.2529C11.6625 11.4926 10.1692 12.6667 8 12.6667C5.83084 12.6667 4.33747 11.4926 3.35603 10.2529C2.86576 9.63358 2.51507 9.01089 2.28708 8.54187ZM15.2989 7.78861C15.299 7.78891 15.2991 7.78918 14.6667 8C15.2991 8.21082 15.299 8.21109 15.2989 8.21139L15.2987 8.21208L15.2981 8.21384L15.2964 8.21881L15.291 8.23448C15.2865 8.24742 15.2802 8.26533 15.272 8.28786C15.2556 8.33292 15.2317 8.39656 15.2 8.47612C15.1366 8.63513 15.0415 8.85848 14.9121 9.12479C14.654 9.65578 14.2547 10.3664 13.6894 11.0805C12.5597 12.5074 10.7197 14 8 14C5.28027 14 3.44031 12.5074 2.31063 11.0805C1.74535 10.3664 1.34604 9.65578 1.08792 9.12479C0.958462 8.85848 0.863446 8.63513 0.800031 8.47612C0.7683 8.39656 0.744409 8.33292 0.728013 8.28786C0.719813 8.26533 0.713481 8.24742 0.708974 8.23448L0.703575 8.21881L0.70189 8.21384L0.7013 8.21208L0.701067 8.21139C0.700969 8.21109 0.700877 8.21082 1.33333 8C0.700877 7.78918 0.700969 7.78891 0.701067 7.78861L0.7013 7.78792L0.70189 7.78616L0.703575 7.78119L0.708974 7.76552C0.713481 7.75258 0.719813 7.73467 0.728013 7.71214C0.744409 7.66708 0.7683 7.60344 0.800031 7.52388C0.863446 7.36487 0.958462 7.14152 1.08792 6.87521C1.34604 6.34422 1.74535 5.63358 2.31063 4.91953C3.44031 3.49258 5.28027 2 8 2C10.7197 2 12.5597 3.49258 13.6894 4.91953C14.2547 5.63358 14.654 6.34422 14.9121 6.87521C15.0415 7.14152 15.1366 7.36487 15.2 7.52388C15.2317 7.60344 15.2556 7.66708 15.272 7.71214C15.2802 7.73467 15.2865 7.75258 15.291 7.76552L15.2964 7.78119L15.2981 7.78616L15.2987 7.78792L15.2989 7.78861ZM1.33333 8L0.700877 8.21082L0.630604 8L0.700877 7.78918L1.33333 8ZM14.6667 8L15.2991 7.78918L15.3694 8L15.2991 8.21082L14.6667 8ZM6 8C6 6.89543 6.89543 6 8 6C9.10457 6 10 6.89543 10 8C10 9.10457 9.10457 10 8 10C6.89543 10 6 9.10457 6 8ZM8 4.66667C6.15905 4.66667 4.66667 6.15905 4.66667 8C4.66667 9.84095 6.15905 11.3333 8 11.3333C9.84095 11.3333 11.3333 9.84095 11.3333 8C11.3333 6.15905 9.84095 4.66667 8 4.66667Z" fill="#272727"/>
</svg>
