<svg width="16" height="16" viewBox="0 0 16 16" fill="none" xmlns="http://www.w3.org/2000/svg">
<path fill-rule="evenodd" clip-rule="evenodd" d="M10.6722 0.6667V1.3334C10.6722 1.44203 10.67 1.54868 10.6658 1.65339C10.7414 3.22038 11.3726 4.09484 12.0952 4.6024C12.9049 5.17117 13.918 5.33897 14.6535 5.33347L15.3202 5.32849L15.3203 5.33868L15.3301 5.33875L15.3252 6.0003L15.3301 6.66185L15.3203 6.66192L15.3202 6.67211L14.6535 6.66713C13.918 6.66163 12.9049 6.82943 12.0952 7.3982C11.3726 7.90576 10.7414 8.78022 10.6658 10.3472C10.67 10.4519 10.6722 10.5586 10.6722 10.6672V11.3339H10.6583H9.33877H9.32488V10.6672C9.32488 10.5586 9.32701 10.4519 9.33121 10.3472C9.25569 8.78022 8.62444 7.90576 7.90188 7.3982C7.0922 6.82943 6.07902 6.66163 5.34355 6.66713L4.67687 6.67211L4.6768 6.66192L4.6669 6.66185L4.67185 6.0003L4.6669 5.33875L4.6768 5.33868L4.67687 5.32849L5.34355 5.33347C6.07902 5.33897 7.0922 5.17117 7.90188 4.6024C8.62444 4.09484 9.25569 3.22038 9.33121 1.65339C9.32701 1.54868 9.32488 1.44203 9.32488 1.3334V0.6667H9.33877H10.6583H10.6722ZM11.3287 6.30709C10.8059 6.67434 10.3457 7.15858 9.99852 7.77989C9.65139 7.15858 9.19113 6.67434 8.66833 6.30709C8.50552 6.19272 8.33832 6.09086 8.1687 6.0003C8.33832 5.90975 8.50552 5.80788 8.66833 5.69351C9.19113 5.32626 9.65139 4.84202 9.99853 4.22071C10.3457 4.84202 10.8059 5.32626 11.3287 5.69351C11.4915 5.80788 11.6587 5.90975 11.8283 6.0003C11.6587 6.09086 11.4915 6.19272 11.3287 6.30709ZM4.00319 11.4905C3.84946 11.6867 3.67422 11.8562 3.48309 12.0006C3.67422 12.145 3.84946 12.3145 4.00319 12.5107C4.15693 12.3145 4.33217 12.145 4.5233 12.0006C4.33217 11.8562 4.15693 11.6867 4.00319 11.4905ZM7.33968 11.339L7.33473 12.0006L7.33968 12.6622L7.32977 12.6623L7.3297 12.6724L6.66302 12.6674C6.27875 12.6645 5.76675 12.7541 5.37039 13.0329C5.01327 13.2842 4.67188 13.741 4.67188 14.6674V15.3341H4.66791H3.33848H3.33451V14.6674C3.33451 13.741 2.99312 13.2842 2.636 13.0329C2.23964 12.7541 1.72763 12.6645 1.34337 12.6674L0.676686 12.6724L0.676611 12.6623L0.666702 12.6622L0.671656 12.0006L0.666702 11.339L0.676611 11.3389L0.676686 11.3288L1.34337 11.3338C1.72763 11.3367 2.23964 11.2471 2.636 10.9683C2.99312 10.717 3.33451 10.2602 3.33451 9.3338V8.6671H3.33848H4.66791H4.67188V9.3338C4.67188 10.2602 5.01327 10.717 5.37039 10.9683C5.76675 11.2471 6.27875 11.3367 6.66302 11.3338L7.3297 11.3288L7.32977 11.3389L7.33968 11.339Z" fill="#272727"/>
</svg>
