<svg width="16" height="16" viewBox="0 0 16 16" fill="none" xmlns="http://www.w3.org/2000/svg">
<path fill-rule="evenodd" clip-rule="evenodd" d="M7.72907 1.35856C7.41785 1.31783 7.11266 1.48034 6.97444 1.76558L4.5535 6.76167L3.186 6.76171C2.15402 6.76174 1.31788 7.59912 1.31938 8.63109L1.32526 12.6689C1.32686 13.7723 2.22186 14.666 3.32531 14.666L4.95513 14.6659L5.62179 14.6659V14.6613H12.0877C12.9064 14.6613 13.6039 14.0666 13.7334 13.2582L14.6459 7.56084C14.8146 6.50761 14.001 5.55338 12.9344 5.55338H10.033V4.03094C10.033 3.61929 9.94707 3.0266 9.60701 2.48998C9.24892 1.92489 8.64243 1.4781 7.72907 1.35856ZM5.62572 7.60658L7.96343 2.78222C8.22573 2.88683 8.38028 3.04509 8.48077 3.20367C8.64297 3.45963 8.69967 3.77849 8.69967 4.03094V6.22005V6.88672H9.36633H12.9344C13.1805 6.88672 13.3683 7.10692 13.3294 7.34998L12.4168 13.0473C12.3909 13.209 12.2514 13.3279 12.0877 13.3279H5.62572V7.60658ZM3.18603 8.09504L4.2884 8.09501L4.28844 13.3326L3.32527 13.3326C2.95746 13.3326 2.65912 13.0348 2.65859 12.6669L2.65272 8.62915C2.65229 8.3343 2.89118 8.09505 3.18603 8.09504Z" fill="#272727"/>
</svg>
