<svg width="16" height="16" viewBox="0 0 16 16" fill="none" xmlns="http://www.w3.org/2000/svg">
<path fill-rule="evenodd" clip-rule="evenodd" d="M7.73533 14.6506C7.42411 14.6913 7.11891 14.5288 6.9807 14.2436L4.55976 9.24749L3.19225 9.24745C2.16028 9.24743 1.32414 8.41004 1.32564 7.37807L1.33151 3.34029C1.33312 2.23683 2.22811 1.34317 3.33157 1.3432L4.96139 1.34324L5.62804 1.34326V1.34789H12.094C12.9127 1.34789 13.6102 1.94256 13.7396 2.75098L14.6522 8.44832C14.8209 9.50155 14.0073 10.4558 12.9406 10.4558H10.0393V11.9782C10.0393 12.3899 9.95332 12.9826 9.61327 13.5192C9.25517 14.0843 8.64869 14.5311 7.73533 14.6506ZM5.63197 8.40258L7.96969 13.2269C8.23198 13.1223 8.38653 12.9641 8.48703 12.8055C8.64923 12.5495 8.70592 12.2307 8.70592 11.9782V9.78911V9.12245H9.37259H12.9406C13.1868 9.12245 13.3745 8.90224 13.3356 8.65919L12.4231 2.96184C12.3972 2.80016 12.2577 2.68123 12.094 2.68123H5.63197V8.40258ZM3.19229 7.91412L4.29466 7.91415L4.2947 2.67656L3.33153 2.67653C2.96371 2.67652 2.66538 2.97441 2.66485 3.34223L2.65897 7.38001C2.65854 7.67486 2.89744 7.91411 3.19229 7.91412Z" fill="#272727"/>
</svg>
