<svg width="16" height="16" viewBox="0 0 16 16" fill="none" xmlns="http://www.w3.org/2000/svg">
<path fill-rule="evenodd" clip-rule="evenodd" d="M3.80483 6.47143L7.33335 2.94292L7.33335 12H8.66668L8.66668 2.94276L12.1954 6.47143L13.1382 5.52862L8.84862 1.23908L8.83772 1.22817C8.78158 1.17199 8.71455 1.10491 8.65065 1.05066C8.5766 0.987798 8.4642 0.904101 8.30911 0.853709C8.10827 0.788451 7.89192 0.788451 7.69108 0.853709C7.53599 0.904101 7.42359 0.987798 7.34954 1.05066C7.28565 1.1049 7.21862 1.17198 7.1625 1.22815L7.16247 1.22817L7.15157 1.23908L2.86202 5.52862L3.80483 6.47143ZM3.3333 13.3333V10.6667H1.99996V13.3333C1.99996 14.4379 2.89539 15.3333 3.99996 15.3333H12C13.1045 15.3333 14 14.4379 14 13.3333V10.6667H12.6666V13.3333C12.6666 13.7015 12.3682 14 12 14H3.99996C3.63177 14 3.3333 13.7015 3.3333 13.3333Z" fill="#272727"/>
</svg>
