<svg width="16" height="16" viewBox="0 0 16 16" fill="none" xmlns="http://www.w3.org/2000/svg">
<path fill-rule="evenodd" clip-rule="evenodd" d="M12.3333 1.33333C11.0447 1.33333 10 2.378 10 3.66667C10 4.95533 11.0447 6 12.3333 6C13.622 6 14.6667 4.95533 14.6667 3.66667C14.6667 2.378 13.622 1.33333 12.3333 1.33333ZM11.3333 3.66667C11.3333 3.11438 11.7811 2.66667 12.3333 2.66667C12.8856 2.66667 13.3333 3.11438 13.3333 3.66667C13.3333 4.21895 12.8856 4.66667 12.3333 4.66667C11.7811 4.66667 11.3333 4.21895 11.3333 3.66667ZM5.83334 3.66667C5.0134 3.66667 4.33334 4.34776 4.33334 5.33333V8.66667H3V5.33333C3 3.72032 4.17261 2.33333 5.83334 2.33333C7.49406 2.33333 8.66667 3.72032 8.66667 5.33333V10.6667C8.66667 11.6359 9.36213 12.3333 10.1667 12.3333C10.9532 12.3333 11.6667 11.6037 11.6667 10.6145V7.33333H13V10.6145C13 12.1915 11.8298 13.6667 10.1667 13.6667C8.52156 13.6667 7.33334 12.2636 7.33334 10.6667V5.33333C7.33334 4.34776 6.65327 3.66667 5.83334 3.66667ZM1.33334 12.3333C1.33334 11.0447 2.378 10 3.66667 10C4.95533 10 6 11.0447 6 12.3333C6 13.622 4.95533 14.6667 3.66667 14.6667C2.378 14.6667 1.33334 13.622 1.33334 12.3333ZM3.66667 11.3333C3.11438 11.3333 2.66667 11.781 2.66667 12.3333C2.66667 12.8856 3.11438 13.3333 3.66667 13.3333C4.21895 13.3333 4.66667 12.8856 4.66667 12.3333C4.66667 11.781 4.21895 11.3333 3.66667 11.3333Z" fill="#272727"/>
</svg>
