<svg width="16" height="16" viewBox="0 0 16 16" fill="none" xmlns="http://www.w3.org/2000/svg">
<path fill-rule="evenodd" clip-rule="evenodd" d="M4.33333 1.33333C2.67647 1.33333 1.33333 2.67648 1.33333 4.33333C1.33333 5.99019 2.67647 7.33333 4.33333 7.33333C5.99018 7.33333 7.33333 5.99019 7.33333 4.33333C7.33333 2.67648 5.99018 1.33333 4.33333 1.33333ZM2.66666 4.33333C2.66666 3.41286 3.41285 2.66667 4.33333 2.66667C5.2538 2.66667 6 3.41286 6 4.33333C6 5.25381 5.2538 6 4.33333 6C3.41285 6 2.66666 5.25381 2.66666 4.33333ZM4.33333 8.66667C2.67647 8.66667 1.33333 10.0098 1.33333 11.6667C1.33333 13.3235 2.67647 14.6667 4.33333 14.6667C5.99018 14.6667 7.33333 13.3235 7.33333 11.6667C7.33333 10.0098 5.99018 8.66667 4.33333 8.66667ZM2.66666 11.6667C2.66666 10.7462 3.41285 10 4.33333 10C5.2538 10 6 10.7462 6 11.6667C6 12.5871 5.2538 13.3333 4.33333 13.3333C3.41285 13.3333 2.66666 12.5871 2.66666 11.6667ZM8.66666 4.33333C8.66666 2.67648 10.0098 1.33333 11.6667 1.33333C13.3235 1.33333 14.6667 2.67648 14.6667 4.33333C14.6667 5.99019 13.3235 7.33333 11.6667 7.33333C10.0098 7.33333 8.66666 5.99019 8.66666 4.33333ZM11.6667 2.66667C10.7462 2.66667 10 3.41286 10 4.33333C10 5.25381 10.7462 6 11.6667 6C12.5871 6 13.3333 5.25381 13.3333 4.33333C13.3333 3.41286 12.5871 2.66667 11.6667 2.66667ZM11.6667 8.66667C10.0098 8.66667 8.66666 10.0098 8.66666 11.6667C8.66666 13.3235 10.0098 14.6667 11.6667 14.6667C13.3235 14.6667 14.6667 13.3235 14.6667 11.6667C14.6667 10.0098 13.3235 8.66667 11.6667 8.66667ZM10 11.6667C10 10.7462 10.7462 10 11.6667 10C12.5871 10 13.3333 10.7462 13.3333 11.6667C13.3333 12.5871 12.5871 13.3333 11.6667 13.3333C10.7462 13.3333 10 12.5871 10 11.6667Z" fill="#272727"/>
</svg>
