<svg width="24" height="24" viewBox="0 0 24 24" fill="none" xmlns="http://www.w3.org/2000/svg">
<path fill-rule="evenodd" clip-rule="evenodd" d="M17 16V8H16H13V20.9C15.2822 20.4367 17 18.419 17 16ZM11 8L8 8L7 8V16C7 18.419 8.71776 20.4367 11 20.9V8ZM5 8V12.382L1.55276 14.1056L2.44719 15.8944L5 14.618V16C5 17.0501 5.23124 18.0462 5.64557 18.9402L3.2929 21.2929L4.70711 22.7071L6.76598 20.6482C8.04821 22.091 9.91795 23 12 23C14.082 23 15.9518 22.091 17.234 20.6483L19.2929 22.7071L20.7071 21.2929L18.3544 18.9402C18.7688 18.0463 19 17.0501 19 16V14.618L21.5528 15.8944L22.4473 14.1056L19 12.382V8L23 8V6L19 6H18L17 6C17 3.23858 14.7614 1 12 1C9.23858 1 7 3.23858 7 6L6 6H5H1V8L5 8ZM9 6H11H13L15 6C15 4.34315 13.6569 3 12 3C10.3431 3 9 4.34315 9 6Z" fill="#1D1D21"/>
</svg>
