<svg width="16" height="16" viewBox="0 0 16 16" fill="none" xmlns="http://www.w3.org/2000/svg">
<path fill-rule="evenodd" clip-rule="evenodd" d="M11.3333 10.6667L11.3333 5.33333H10.6667H8.66667V13.9333C10.1882 13.6245 11.3333 12.2793 11.3333 10.6667ZM7.33333 5.33333L5.33333 5.33333H4.66667L4.66666 10.6667C4.66666 12.2793 5.81184 13.6245 7.33333 13.9333V5.33333ZM3.33333 5.33333V8.25464L1.03517 9.40372L1.63146 10.5963L3.33333 9.74535V10.6667C3.33333 11.3667 3.48749 12.0308 3.76371 12.6268L2.19526 14.1953L3.13807 15.1381L4.51065 13.7655C5.36547 14.7273 6.61197 15.3333 8 15.3333C9.38802 15.3333 10.6345 14.7273 11.4893 13.7655L12.8619 15.1381L13.8047 14.1953L12.2363 12.6268C12.5125 12.0308 12.6667 11.3668 12.6667 10.6667V9.74535L14.3685 10.5963L14.9648 9.40372L12.6667 8.25463V5.33333L15.3333 5.33333V4L12.6667 4H12L11.3333 4C11.3333 2.15905 9.84095 0.666664 8 0.666664C6.15905 0.666664 4.66667 2.15905 4.66667 4L4 4H3.33333H0.666664V5.33333L3.33333 5.33333ZM7.33333 4H8.66667L10 4C10 2.89543 9.10457 2 8 2C6.89543 2 6 2.89543 6 4L7.33333 4Z" fill="#272727"/>
</svg>
