<svg width="16" height="16" viewBox="0 0 16 16" fill="none" xmlns="http://www.w3.org/2000/svg">
<path fill-rule="evenodd" clip-rule="evenodd" d="M6.00001 0.666666V2.66667H10V0.666666H11.3333V2.66667H14H14.6667V3.33333V12.6667C14.6667 13.7712 13.7712 14.6667 12.6667 14.6667H3.33334C2.22877 14.6667 1.33334 13.7712 1.33334 12.6667V3.33333V2.66667H2.00001H4.66668V0.666666H6.00001ZM10 4V5.33333H11.3333V4H13.3333V6H2.66668V4H4.66668V5.33333H6.00001V4H10ZM2.66668 7.33333V12.6667C2.66668 13.0349 2.96515 13.3333 3.33334 13.3333H12.6667C13.0349 13.3333 13.3333 13.0349 13.3333 12.6667V7.33333H2.66668Z" fill="#272727"/>
</svg>
