<svg width="16" height="16" viewBox="0 0 16 16" fill="none" xmlns="http://www.w3.org/2000/svg">
<path fill-rule="evenodd" clip-rule="evenodd" d="M14 8C14 4.68629 11.3137 2 8 2V0.666666C12.0501 0.666666 15.3333 3.94991 15.3333 8H14ZM4.55393 4.23866C4.32105 3.92275 3.86702 3.87536 3.57393 4.13638C3.5628 4.14629 3.54474 4.16399 3.46572 4.24343C3.38574 4.32382 3.35429 4.35552 3.32538 4.38616C2.76268 4.98261 2.43958 5.76553 2.41784 6.58523C2.41672 6.62734 2.41667 6.67199 2.41667 6.7854V6.8437C2.41667 7.0144 2.41679 7.0816 2.41933 7.14502C2.45048 7.92469 2.75416 8.66872 3.27748 9.2475C3.32004 9.29458 3.36698 9.34268 3.48643 9.46462L6.40274 12.442C6.54195 12.5841 6.59689 12.6399 6.65094 12.6902C7.22868 13.2277 7.97836 13.5428 8.7666 13.5794C8.84035 13.5829 8.91868 13.583 9.11763 13.583H9.20425C9.30849 13.583 9.34953 13.583 9.38829 13.582C10.1987 13.5623 10.9741 13.2478 11.5695 12.6976C11.5979 12.6713 11.6274 12.6427 11.7022 12.5701C11.7768 12.4977 11.7934 12.4812 11.8028 12.471C12.0686 12.1823 12.0288 11.7276 11.7169 11.4895C11.7059 11.4811 11.6866 11.4677 11.6006 11.4094L9.80032 10.1889L8.68557 11.2586L8.67447 11.2692L8.67445 11.2693C8.61739 11.324 8.5492 11.3895 8.48439 11.4423C8.40924 11.5035 8.2955 11.5846 8.13993 11.6318C7.93837 11.693 7.72264 11.689 7.5235 11.6203C7.3698 11.5673 7.25917 11.482 7.18635 11.4181C7.12355 11.3629 7.05785 11.2949 7.00288 11.238L7.00287 11.238L6.99217 11.227L4.72272 8.88046L4.71215 8.86953L4.71211 8.86949L4.7121 8.86948C4.65787 8.81345 4.5929 8.74633 4.54042 8.68245C4.47942 8.60822 4.39876 8.49621 4.35078 8.34286C4.2885 8.14384 4.29001 7.93032 4.35508 7.73219C4.40522 7.57953 4.48745 7.46867 4.54949 7.39531C4.60288 7.33216 4.66881 7.26594 4.72383 7.21068L4.72384 7.21067L4.73456 7.19989L5.78779 6.14118L4.6377 4.36575C4.57679 4.27171 4.56277 4.25066 4.55393 4.23866ZM2.68718 3.14066C3.56645 2.35761 4.92855 2.49977 5.62718 3.44751C5.66343 3.49669 5.70159 3.55562 5.74654 3.62506L5.74655 3.62508L5.74656 3.62508L5.75676 3.64084L6.96533 5.50654L6.97241 5.51747C7.00772 5.57193 7.05127 5.6391 7.08574 5.702C7.12659 5.77656 7.17681 5.88321 7.19975 6.01888C7.23012 6.19847 7.21087 6.38294 7.14407 6.55238C7.0936 6.68039 7.02245 6.77437 6.96708 6.83889C6.92036 6.89333 6.86388 6.95006 6.81809 6.99605L6.80891 7.00528L5.77206 8.04753L7.85825 10.2046L8.95501 9.15216L8.96443 9.14313L8.96443 9.14312L8.96444 9.14311C9.01138 9.09804 9.06926 9.04246 9.12465 8.99664C9.19029 8.94234 9.28579 8.87274 9.41504 8.82459C9.58609 8.76087 9.77132 8.74518 9.95065 8.77923C10.0862 8.80495 10.192 8.8575 10.2658 8.89999C10.3282 8.93584 10.3945 8.98089 10.4484 9.01743L10.4592 9.02477L12.3488 10.3058L12.3632 10.3156L12.3632 10.3156L12.3633 10.3156C12.4268 10.3587 12.4808 10.3952 12.5259 10.4297C13.4617 11.144 13.5811 12.508 12.7838 13.3741C12.7453 13.4159 12.6985 13.4613 12.6434 13.5147L12.6434 13.5148L12.6308 13.5269L12.6244 13.5331L12.6244 13.5332L12.6243 13.5332C12.558 13.5976 12.5163 13.6381 12.4745 13.6767C11.641 14.4471 10.5554 14.8873 9.42082 14.915C9.36383 14.9164 9.30573 14.9164 9.21318 14.9164H9.21311H9.21304H9.20425H9.11763H9.10075H9.10066C8.92401 14.9164 8.81315 14.9164 8.7047 14.9113C7.60116 14.86 6.5516 14.4189 5.74276 13.6664C5.66327 13.5925 5.5857 13.5133 5.46208 13.3871L5.46208 13.3871L5.46207 13.3871L5.45022 13.375L2.53391 10.3976L2.52376 10.3873L2.52374 10.3872C2.41765 10.2789 2.35107 10.211 2.28847 10.1417C1.55583 9.33143 1.13067 8.28978 1.08706 7.19825C1.08333 7.10499 1.08333 7.00984 1.08334 6.85825V6.8582V6.8437V6.7854V6.77576V6.77539C1.08334 6.67488 1.08334 6.61175 1.08498 6.54988C1.11541 5.40231 1.56776 4.30622 2.35553 3.47119C2.39805 3.42612 2.44263 3.38131 2.51367 3.30991L2.52047 3.30307L2.53371 3.28975C2.59204 3.23109 2.64155 3.1813 2.68718 3.14066ZM8 4.66667C9.84095 4.66667 11.3333 6.15905 11.3333 8H12.6667C12.6667 5.42267 10.5773 3.33333 8 3.33333V4.66667Z" fill="#272727"/>
</svg>
