<svg width="16" height="16" viewBox="0 0 16 16" fill="none" xmlns="http://www.w3.org/2000/svg">
<path fill-rule="evenodd" clip-rule="evenodd" d="M4.13335 1.33333H4.10765H4.10762C3.7562 1.33332 3.45304 1.33331 3.20333 1.35371C2.93976 1.37525 2.67762 1.42279 2.42536 1.55132C2.04904 1.74307 1.74308 2.04903 1.55133 2.42535C1.4228 2.67761 1.37526 2.93975 1.35372 3.20332C1.33332 3.45302 1.33333 3.75619 1.33334 4.10761V4.10764V4.13333V10V11.1515L2.33196 10.5781L4.37779 9.40351H6.00001V11.1368L6.00001 11.1609C6 11.4203 5.99998 11.6537 6.01585 11.8479C6.03284 12.0559 6.0713 12.2769 6.18167 12.4935C6.34146 12.8071 6.59642 13.0621 6.91003 13.2219C7.12663 13.3322 7.34761 13.3707 7.55559 13.3877C7.7498 13.4035 7.98323 13.4035 8.24263 13.4035H8.26668H11.6222L13.6681 14.5781L14.6667 15.1515V14V7.6V7.57593V7.5759C14.6667 7.31652 14.6667 7.08311 14.6508 6.88891C14.6338 6.68093 14.5954 6.45995 14.485 6.24335C14.3252 5.92975 14.0703 5.67478 13.7567 5.51499C13.5401 5.40463 13.3191 5.36616 13.1111 5.34917C12.9169 5.3333 12.6835 5.33332 12.4241 5.33333L12.4 5.33333H10V2V1.33333H9.33335H4.13335ZM10 6.66667C10 7.00222 9.99931 7.29273 9.97963 7.53353C9.9581 7.79709 9.91055 8.05924 9.78203 8.31149C9.59028 8.68781 9.28432 8.99378 8.90799 9.18552C8.65574 9.31405 8.39359 9.3616 8.13003 9.38313C7.90618 9.40142 7.63937 9.40331 7.33335 9.40349V11.1368C7.33335 11.4279 7.33386 11.606 7.34476 11.7394C7.34983 11.8015 7.3562 11.839 7.36158 11.8618C7.36413 11.8727 7.36627 11.8794 7.36756 11.883C7.3688 11.8865 7.36954 11.8879 7.36968 11.8882C7.40163 11.9509 7.45263 12.0019 7.51535 12.0338C7.51562 12.034 7.51707 12.0347 7.52054 12.036C7.52415 12.0372 7.53083 12.0394 7.54168 12.0419C7.5645 12.0473 7.60207 12.0537 7.66417 12.0588C7.79748 12.0697 7.97565 12.0702 8.26668 12.0702H11.8H11.9778L12.132 12.1587L13.3333 12.8485V7.6C13.3333 7.30897 13.3328 7.1308 13.3219 6.99749C13.3169 6.93539 13.3105 6.89782 13.3051 6.875C13.3026 6.86415 13.3004 6.85747 13.2991 6.85386C13.2979 6.85039 13.2972 6.84894 13.297 6.84867C13.2651 6.78595 13.2141 6.73496 13.1513 6.703C13.1511 6.70286 13.1496 6.70212 13.1462 6.70088C13.1425 6.6996 13.1359 6.69745 13.125 6.6949C13.1022 6.68952 13.0646 6.68315 13.0025 6.67808C12.8692 6.66719 12.691 6.66667 12.4 6.66667H10ZM3.03068 2.73933C3.06365 2.72253 3.13079 2.69742 3.3119 2.68262C3.50079 2.66719 3.74898 2.66667 4.13335 2.66667H8.66668V6.60351C8.66668 6.98788 8.66616 7.23606 8.65073 7.42495C8.63593 7.60606 8.61081 7.67321 8.59402 7.70617C8.5301 7.83161 8.42811 7.9336 8.30267 7.99751C8.26971 8.01431 8.20256 8.03943 8.02145 8.05422C7.83256 8.06966 7.58438 8.07018 7.20001 8.07018H4.20001H4.02223L3.86806 8.1587L2.66668 8.84849V4.13333C2.66668 3.74897 2.6672 3.50078 2.68263 3.31189C2.69743 3.13078 2.72255 3.06364 2.73934 3.03067C2.80326 2.90523 2.90524 2.80325 3.03068 2.73933Z" fill="#272727"/>
</svg>
