<svg width="16" height="16" viewBox="0 0 16 16" fill="none" xmlns="http://www.w3.org/2000/svg">
<path fill-rule="evenodd" clip-rule="evenodd" d="M1.99999 8C1.99999 4.68629 4.68628 2 7.99999 2C11.3137 2 14 4.68629 14 8C14 11.3137 11.3137 14 7.99999 14C4.68628 14 1.99999 11.3137 1.99999 8ZM7.99999 0.666666C3.9499 0.666666 0.666656 3.94991 0.666656 8C0.666656 12.0501 3.9499 15.3333 7.99999 15.3333C12.0501 15.3333 15.3333 12.0501 15.3333 8C15.3333 3.94991 12.0501 0.666666 7.99999 0.666666ZM7.33332 4V7.66667C7.33332 8.21895 7.78104 8.66667 8.33332 8.66667H12V7.33333H8.66666V4H7.33332Z" fill="#272727"/>
</svg>
