<svg width="16" height="16" viewBox="0 0 16 16" fill="none" xmlns="http://www.w3.org/2000/svg">
<path fill-rule="evenodd" clip-rule="evenodd" d="M14.6667 14.6667H13.3333V1.33333H14.6667V14.6667ZM9.72386 8.66667H0.666672V7.33333H9.72386L6.19527 3.80474L7.13808 2.86193L11.4276 7.15147L11.4385 7.16238C11.4947 7.21851 11.5618 7.28554 11.616 7.34945C11.6789 7.42349 11.7626 7.53589 11.813 7.69098C11.8782 7.89183 11.8782 8.10817 11.813 8.30902C11.7626 8.46411 11.6789 8.57651 11.616 8.65056C11.5618 8.71446 11.4947 8.78149 11.4385 8.83762L11.4385 8.83762L11.4276 8.84853L7.13808 13.1381L6.19527 12.1953L9.72386 8.66667Z" fill="#272727"/>
</svg>
