<svg width="16" height="16" viewBox="0 0 16 16" fill="none" xmlns="http://www.w3.org/2000/svg">
<path fill-rule="evenodd" clip-rule="evenodd" d="M1.33333 14.6667V1.33333H2.66666V14.6667H1.33333ZM6.27614 8.66667H15.3333V7.33333H6.27614L9.80473 3.80474L8.86192 2.86193L4.57238 7.15147L4.56147 7.16238L4.56145 7.1624C4.50528 7.21853 4.4382 7.28555 4.38396 7.34945C4.3211 7.42349 4.2374 7.53589 4.18701 7.69098C4.12175 7.89183 4.12175 8.10817 4.18701 8.30902C4.2374 8.46411 4.3211 8.57651 4.38396 8.65056C4.43821 8.71446 4.50529 8.78149 4.56147 8.83762L4.57238 8.84853L8.86192 13.1381L9.80473 12.1953L6.27614 8.66667Z" fill="#272727"/>
</svg>
