<svg width="16" height="16" viewBox="0 0 16 16" fill="none" xmlns="http://www.w3.org/2000/svg">
<path fill-rule="evenodd" clip-rule="evenodd" d="M2.04167 1.41667H1.375V2.08333V10C1.375 11.1046 2.27043 12 3.375 12H11.3333H12V11.3333V3.41667C12 2.3121 11.1046 1.41667 10 1.41667H2.04167ZM2.70833 10V2.75H10C10.3682 2.75 10.6667 3.04848 10.6667 3.41667V10.6667H3.375C3.00681 10.6667 2.70833 10.3682 2.70833 10ZM13.3333 4.66667V12.6667C13.3333 13.0349 13.0349 13.3333 12.6667 13.3333H4V14.6667H12.6667C13.7712 14.6667 14.6667 13.7712 14.6667 12.6667V4.66667H13.3333Z" fill="#272727"/>
</svg>
