<svg width="16" height="16" viewBox="0 0 16 16" fill="none" xmlns="http://www.w3.org/2000/svg">
<path fill-rule="evenodd" clip-rule="evenodd" d="M10.6667 3.33333C10.6667 2.78105 11.1144 2.33333 11.6667 2.33333C12.219 2.33333 12.6667 2.78105 12.6667 3.33333C12.6667 3.88562 12.219 4.33333 11.6667 4.33333C11.1144 4.33333 10.6667 3.88562 10.6667 3.33333ZM9.42996 4H2V2.66667H9.42996C9.71681 1.70284 10.6097 1 11.6667 1C12.9553 1 14 2.04467 14 3.33333C14 4.622 12.9553 5.66667 11.6667 5.66667C10.6097 5.66667 9.71681 4.96383 9.42996 4ZM6.57004 13.3333C6.28319 14.2972 5.39034 15 4.33333 15C3.04467 15 2 13.9553 2 12.6667C2 11.378 3.04467 10.3333 4.33333 10.3333C5.39034 10.3333 6.28319 11.0362 6.57004 12H14V13.3333L6.57004 13.3333ZM4 8.66667H2V7.33333H4H5.76329C6.05014 6.3695 6.94299 5.66667 8 5.66667C9.05701 5.66667 9.94986 6.3695 10.2367 7.33333H14V8.66667H10.2367C9.94986 9.6305 9.05701 10.3333 8 10.3333C6.94299 10.3333 6.05014 9.6305 5.76329 8.66667H4ZM8 7C7.44772 7 7 7.44772 7 8C7 8.55229 7.44772 9 8 9C8.55229 9 9 8.55229 9 8C9 7.44772 8.55229 7 8 7ZM3.33333 12.6667C3.33333 12.1144 3.78105 11.6667 4.33333 11.6667C4.88562 11.6667 5.33333 12.1144 5.33333 12.6667C5.33333 13.219 4.88562 13.6667 4.33333 13.6667C3.78105 13.6667 3.33333 13.219 3.33333 12.6667Z" fill="#272727"/>
</svg>
