<svg width="16" height="16" viewBox="0 0 16 16" fill="none" xmlns="http://www.w3.org/2000/svg">
<path fill-rule="evenodd" clip-rule="evenodd" d="M2 4H9.42996C9.71681 4.96383 10.6097 5.66667 11.6667 5.66667C12.9553 5.66667 14 4.622 14 3.33333C14 2.04467 12.9553 1 11.6667 1C10.6097 1 9.71681 1.70284 9.42996 2.66667H2V4ZM4.33333 15C5.39034 15 6.28319 14.2972 6.57004 13.3333L14 13.3333V12H6.57004C6.28319 11.0362 5.39034 10.3333 4.33333 10.3333C3.04467 10.3333 2 11.378 2 12.6667C2 13.9553 3.04467 15 4.33333 15ZM2 8.66667H4H5.76329C6.05014 9.6305 6.94299 10.3333 8 10.3333C9.05701 10.3333 9.94986 9.6305 10.2367 8.66667H14V7.33333H10.2367C9.94986 6.3695 9.05701 5.66667 8 5.66667C6.94299 5.66667 6.05014 6.3695 5.76329 7.33333H4H2V8.66667Z" fill="#272727"/>
</svg>
