<svg width="16" height="16" viewBox="0 0 16 16" fill="none" xmlns="http://www.w3.org/2000/svg">
<path fill-rule="evenodd" clip-rule="evenodd" d="M9.41421 1.13807C8.63316 0.357022 7.36683 0.357022 6.58578 1.13807L1.13808 6.58578C0.35703 7.36682 0.35703 8.63315 1.13808 9.4142L6.5858 14.8619C7.36685 15.643 8.63318 15.643 9.41423 14.8619L14.8619 9.41422C15.643 8.63317 15.643 7.36684 14.8619 6.5858L9.41421 1.13807ZM7.52859 2.08088C7.78894 1.82053 8.21105 1.82053 8.4714 2.08088L13.9191 7.5286C14.1795 7.78896 14.1795 8.21106 13.9191 8.47141L8.47142 13.9191C8.21107 14.1795 7.78896 14.1795 7.52861 13.9191L2.08089 8.47139C1.82054 8.21104 1.82054 7.78893 2.08089 7.52859L7.52859 2.08088ZM8 8.66667C7.63181 8.66667 7.33333 8.36819 7.33333 8L7.33333 4.66667L8.66666 4.66667V8C8.66666 8.36819 8.36819 8.66667 8 8.66667ZM7.99999 9.83333C7.53976 9.83333 7.16666 10.2064 7.16666 10.6667C7.16666 11.1269 7.53976 11.5 7.99999 11.5C8.46023 11.5 8.83333 11.1269 8.83333 10.6667C8.83333 10.2064 8.46023 9.83333 7.99999 9.83333Z" fill="#272727"/>
</svg>
