<svg width="16" height="16" viewBox="0 0 16 16" fill="none" xmlns="http://www.w3.org/2000/svg">
<path fill-rule="evenodd" clip-rule="evenodd" d="M5.51949 0.666666H6H10H10.4805L10.6325 1.12251L11.1472 2.66667H13.3333H14V3.33333V6V6.66667H13.3333V12.5333V12.559V12.5591C13.3333 12.9105 13.3334 13.2137 13.313 13.4634C13.2914 13.7269 13.2439 13.9891 13.1153 14.2413C12.9236 14.6176 12.6176 14.9236 12.2413 15.1153C11.9891 15.2439 11.7269 15.2914 11.4634 15.313C11.2136 15.3334 10.9105 15.3333 10.5591 15.3333H10.559H10.5333H5.46667H5.441H5.44092C5.08951 15.3333 4.78635 15.3334 4.53665 15.313C4.27308 15.2914 4.01094 15.2439 3.75869 15.1153C3.38236 14.9236 3.0764 14.6176 2.88465 14.2413C2.75612 13.9891 2.70858 13.7269 2.68705 13.4634C2.66664 13.2136 2.66665 12.9105 2.66667 12.559L2.66667 12.5333L2.66667 6.66667H2V6V3.33333V2.66667H2.66667H4.85283L5.36754 1.12251L5.51949 0.666666ZM3.33333 5.33333H12.6667V4H11.5916H10.8718H10.6667H5.33333H4.40838H3.33333V5.33333ZM4 6.66667V12.5333C4 12.9177 4.00052 13.1659 4.01595 13.3548C4.03075 13.5359 4.05587 13.603 4.07266 13.636C4.13658 13.7614 4.23857 13.8634 4.36401 13.9273C4.39697 13.9441 4.46412 13.9693 4.64522 13.984C4.83412 13.9995 5.0823 14 5.46667 14H10.5333C10.9177 14 11.1659 13.9995 11.3548 13.984C11.5359 13.9693 11.603 13.9441 11.636 13.9273C11.7614 13.8634 11.8634 13.7614 11.9273 13.636C11.9441 13.603 11.9693 13.5359 11.984 13.3548C11.9995 13.1659 12 12.9177 12 12.5333V6.66667H4ZM9.51949 2L9.74172 2.66667H6.25828L6.48051 2H9.51949Z" fill="#272727"/>
</svg>
