<svg width="16" height="16" viewBox="0 0 16 16" fill="none" xmlns="http://www.w3.org/2000/svg">
<path fill-rule="evenodd" clip-rule="evenodd" d="M1.99999 8C1.99999 4.68629 4.68628 2 7.99999 2C9.41667 2 10.7187 2.49098 11.7451 3.31207L3.31206 11.7451C2.49097 10.7187 1.99999 9.41668 1.99999 8ZM4.25487 12.6879C5.28131 13.509 6.58331 14 7.99999 14C11.3137 14 14 11.3137 14 8C14 6.58332 13.509 5.28132 12.6879 4.25487L4.25487 12.6879ZM7.99999 0.666666C3.9499 0.666666 0.666656 3.94991 0.666656 8C0.666656 12.0501 3.9499 15.3333 7.99999 15.3333C12.0501 15.3333 15.3333 12.0501 15.3333 8C15.3333 3.94991 12.0501 0.666666 7.99999 0.666666Z" fill="#272727"/>
</svg>
