<svg width="24" height="24" viewBox="0 0 24 24" fill="none" xmlns="http://www.w3.org/2000/svg">
<path fill-rule="evenodd" clip-rule="evenodd" d="M5 2C3.34315 2 2 3.34315 2 5V12C2 13.6569 3.34315 15 5 15H9V17H6V19H13V20.5C13 21.3284 13.6716 22 14.5 22H20.5C21.3284 22 22 21.3284 22 20.5V10.5C22 9.67157 21.3284 9 20.5 9H18V5C18 3.34315 16.6569 2 15 2H5ZM16 9V5C16 4.44772 15.5523 4 15 4H5C4.44772 4 4 4.44772 4 5V12C4 12.5523 4.44772 13 5 13H13V10.5C13 9.67157 13.6716 9 14.5 9H16ZM13 15H11V17H13V15ZM15 20V11H20V20H15Z" fill="#272727"/>
</svg>
