<svg width="16" height="16" viewBox="0 0 16 16" fill="none" xmlns="http://www.w3.org/2000/svg">
<path fill-rule="evenodd" clip-rule="evenodd" d="M3.33333 1.33333C2.22876 1.33333 1.33333 2.22877 1.33333 3.33333V8C1.33333 9.10457 2.22877 10 3.33333 10H6V11.3333L4 11.3333V12.6667H8.66667L8.66667 13.6667C8.66667 14.219 9.11438 14.6667 9.66667 14.6667H13.6667C14.219 14.6667 14.6667 14.2189 14.6667 13.6667V7C14.6667 6.44772 14.219 6 13.6667 6H12V3.33333C12 2.22876 11.1046 1.33333 10 1.33333H3.33333ZM10.6667 6V3.33333C10.6667 2.96514 10.3682 2.66667 10 2.66667H3.33333C2.96514 2.66667 2.66667 2.96514 2.66667 3.33333V8C2.66667 8.36819 2.96514 8.66667 3.33333 8.66667H8.66667V7C8.66667 6.44772 9.11438 6 9.66667 6H10.6667ZM8.66667 10H7.33333V11.3333L8.66667 11.3333L8.66667 10ZM10 13.3333V7.33333H13.3333V13.3333H10Z" fill="#272727"/>
</svg>
