<svg width="24" height="24" viewBox="0 0 24 24" fill="none" xmlns="http://www.w3.org/2000/svg">
<path fill-rule="evenodd" clip-rule="evenodd" d="M5 2C3.34315 2 2 3.34315 2 5V19C2 20.6569 3.34315 22 5 22H19C20.6569 22 22 20.6569 22 19V5C22 3.34315 20.6569 2 19 2H5ZM4 5C4 4.44772 4.44772 4 5 4H6V20H5C4.44772 20 4 19.5523 4 19V5ZM8 20H9.1802L9.43107 18.7456C9.86666 16.5677 11.7789 15 14 15C16.2211 15 18.1333 16.5677 18.5689 18.7456L18.8198 20H19C19.5523 20 20 19.5523 20 19V5C20 4.44772 19.5523 4 19 4H8V20ZM16.6078 19.1379L16.7802 20H11.2198L11.3922 19.1379C11.6408 17.8948 12.7323 17 14 17C15.2677 17 16.3592 17.8948 16.6078 19.1379ZM12 10C12 8.89543 12.8954 8 14 8C15.1046 8 16 8.89543 16 10C16 11.1046 15.1046 12 14 12C12.8954 12 12 11.1046 12 10ZM14 6C11.7909 6 10 7.79086 10 10C10 12.2091 11.7909 14 14 14C16.2091 14 18 12.2091 18 10C18 7.79086 16.2091 6 14 6Z" fill="#272727"/>
</svg>
