<svg width="16" height="16" viewBox="0 0 16 16" fill="none" xmlns="http://www.w3.org/2000/svg">
<path fill-rule="evenodd" clip-rule="evenodd" d="M3.33334 1.33331C2.22877 1.33331 1.33334 2.22874 1.33334 3.33331V12.6666C1.33334 13.7712 2.22877 14.6666 3.33334 14.6666H4.00001H4.66668H5.33334H12.6667C13.7712 14.6666 14.6667 13.7712 14.6667 12.6666V3.33331C14.6667 2.22874 13.7712 1.33331 12.6667 1.33331H5.33334H4.66668H4.00001H3.33334ZM4.00001 2.66665H3.33334C2.96515 2.66665 2.66668 2.96512 2.66668 3.33331V12.6666C2.66668 13.0348 2.96515 13.3333 3.33334 13.3333H4.00001V7.99998V2.66665ZM11.8667 13.3333L11.7256 12.6278C11.4975 11.4875 10.4963 10.6666 9.33336 10.6666C8.17045 10.6666 7.1692 11.4875 6.94113 12.6278L6.80003 13.3333H11.8667ZM11.3334 6.66663C11.3334 7.7712 10.4379 8.66663 9.33336 8.66663C8.22879 8.66663 7.33336 7.7712 7.33336 6.66663C7.33336 5.56206 8.22879 4.66663 9.33336 4.66663C10.4379 4.66663 11.3334 5.56206 11.3334 6.66663Z" fill="#272727"/>
</svg>
