<svg width="16" height="16" viewBox="0 0 16 16" fill="none" xmlns="http://www.w3.org/2000/svg">
<path fill-rule="evenodd" clip-rule="evenodd" d="M1.33334 1.99997H0.666672V2.66663V13.3333V14H1.33334H5.77778C6.50652 14 7.11313 14.1325 7.55817 14.4996L7.57039 14.5095C7.5762 14.5141 7.59164 14.5264 7.61202 14.5404L7.61405 14.5418C7.63941 14.5594 7.77972 14.6566 7.98558 14.659C8.01667 14.6593 8.04753 14.6575 8.07796 14.6537C8.27796 14.6322 8.40706 14.5262 8.42635 14.5104L8.42811 14.509C8.44714 14.4937 8.46149 14.4805 8.46687 14.4756L8.47844 14.4647C8.81927 14.1396 9.38732 14 10.1333 14H14.6667H15.3333V13.3333V2.66663V1.99997H14.6667H9.37873C8.8902 1.99997 8.42116 2.19159 8.07237 2.53366C8.03877 2.56662 8.00622 2.60044 7.97472 2.63506C7.9254 2.58289 7.87368 2.53262 7.81964 2.48444C7.46967 2.1724 7.01717 1.99997 6.54829 1.99997H1.33334ZM7.33334 4.37448C7.33334 4.03267 7.18744 3.70711 6.93231 3.47964C6.8266 3.38539 6.68992 3.3333 6.54829 3.3333H2.00001V12.6666H5.77778C6.2751 12.6666 6.81361 12.717 7.33334 12.8876V4.37448ZM7.33334 13.9745C7.33321 13.9822 7.33334 13.9845 7.33334 13.9771L7.33334 13.9746L7.33334 13.9745ZM8.6667 13.9792C8.66671 13.9793 8.66671 13.9793 8.66672 13.9791L8.66667 13.9746L8.6667 13.9792ZM8.66667 12.864C9.15758 12.7095 9.67252 12.6666 10.1333 12.6666H14V3.3333H9.37873C9.23934 3.3333 9.1055 3.38798 9.00599 3.48558C8.78896 3.69844 8.66667 3.98965 8.66667 4.29364V4.37448V12.864ZM6.00001 7.3333H3.33334V5.99996H6.00001V7.3333ZM10 7.3333H12.6667V5.99996H10V7.3333ZM12.6667 9.99996H10V8.66663H12.6667V9.99996ZM3.33334 9.99996H6.00001V8.66663H3.33334V9.99996Z" fill="#272727"/>
</svg>
