<svg width="24" height="24" viewBox="0 0 24 24" fill="none" xmlns="http://www.w3.org/2000/svg">
<path fill-rule="evenodd" clip-rule="evenodd" d="M5.00003 20L5.00003 16L3.00003 16L3.00003 20C3.00003 21.6569 4.34318 23 6.00003 23L18 23C19.6569 23 21 21.6569 21 20L21 16L19 16L19 20C19 20.5523 18.5523 21 18 21L6.00003 21C5.44775 21 5.00003 20.5523 5.00003 20ZM18.2931 9.50003L13.0003 14.7928L13.0003 1.20716L11.0003 1.20716L11.0003 14.793L5.70731 9.50003L4.29309 10.9142L10.7274 17.3486L10.7437 17.3649L10.7438 17.3649L10.7438 17.365C10.828 17.4492 10.9285 17.5498 11.0244 17.6312C11.1354 17.7255 11.304 17.851 11.5367 17.9266C11.8379 18.0245 12.1625 18.0245 12.4637 17.9266C12.6964 17.851 12.865 17.7255 12.976 17.6312C13.0719 17.5498 13.1724 17.4492 13.2566 17.3649L13.2566 17.3649L13.273 17.3486L19.7073 10.9142L18.2931 9.50003Z" fill="#1D1D21"/>
</svg>
