<svg width="16" height="16" viewBox="0 0 16 16" fill="none" xmlns="http://www.w3.org/2000/svg">
<path fill-rule="evenodd" clip-rule="evenodd" d="M6 2.33333C6 2.88562 5.55228 3.33333 5 3.33333C4.44772 3.33333 4 2.88562 4 2.33333C4 1.78105 4.44772 1.33333 5 1.33333C5.55228 1.33333 6 1.78105 6 2.33333ZM11 3.33333C11.5523 3.33333 12 2.88562 12 2.33333C12 1.78105 11.5523 1.33333 11 1.33333C10.4477 1.33333 10 1.78105 10 2.33333C10 2.88562 10.4477 3.33333 11 3.33333ZM11 7.11111C11.5523 7.11111 12 6.6634 12 6.11111C12 5.55883 11.5523 5.11111 11 5.11111C10.4477 5.11111 10 5.55883 10 6.11111C10 6.6634 10.4477 7.11111 11 7.11111ZM12 9.88889C12 10.4412 11.5523 10.8889 11 10.8889C10.4477 10.8889 10 10.4412 10 9.88889C10 9.33661 10.4477 8.88889 11 8.88889C11.5523 8.88889 12 9.33661 12 9.88889ZM11 14.6667C11.5523 14.6667 12 14.219 12 13.6667C12 13.1144 11.5523 12.6667 11 12.6667C10.4477 12.6667 10 13.1144 10 13.6667C10 14.219 10.4477 14.6667 11 14.6667ZM5 7.11111C5.55228 7.11111 6 6.6634 6 6.11111C6 5.55883 5.55228 5.11111 5 5.11111C4.44772 5.11111 4 5.55883 4 6.11111C4 6.6634 4.44772 7.11111 5 7.11111ZM6 9.8889C6 10.4412 5.55228 10.8889 5 10.8889C4.44772 10.8889 4 10.4412 4 9.8889C4 9.33661 4.44772 8.8889 5 8.8889C5.55228 8.8889 6 9.33661 6 9.8889ZM5 14.6667C5.55228 14.6667 6 14.219 6 13.6667C6 13.1144 5.55228 12.6667 5 12.6667C4.44772 12.6667 4 13.1144 4 13.6667C4 14.219 4.44772 14.6667 5 14.6667Z" fill="#272727"/>
</svg>
