<svg width="24" height="24" viewBox="0 0 24 24" fill="none" xmlns="http://www.w3.org/2000/svg">
<path fill-rule="evenodd" clip-rule="evenodd" d="M9 3.5C9 4.32843 8.32843 5 7.5 5C6.67157 5 6 4.32843 6 3.5C6 2.67157 6.67157 2 7.5 2C8.32843 2 9 2.67157 9 3.5ZM16.5 5C17.3284 5 18 4.32843 18 3.5C18 2.67157 17.3284 2 16.5 2C15.6716 2 15 2.67157 15 3.5C15 4.32843 15.6716 5 16.5 5ZM16.5 10.6667C17.3284 10.6667 18 9.99509 18 9.16667C18 8.33824 17.3284 7.66667 16.5 7.66667C15.6716 7.66667 15 8.33824 15 9.16667C15 9.99509 15.6716 10.6667 16.5 10.6667ZM18 14.8333C18 15.6618 17.3284 16.3333 16.5 16.3333C15.6716 16.3333 15 15.6618 15 14.8333C15 14.0049 15.6716 13.3333 16.5 13.3333C17.3284 13.3333 18 14.0049 18 14.8333ZM16.5 22C17.3284 22 18 21.3284 18 20.5C18 19.6716 17.3284 19 16.5 19C15.6716 19 15 19.6716 15 20.5C15 21.3284 15.6716 22 16.5 22ZM7.5 10.6667C8.32843 10.6667 9 9.9951 9 9.16667C9 8.33824 8.32843 7.66667 7.5 7.66667C6.67157 7.66667 6 8.33824 6 9.16667C6 9.9951 6.67157 10.6667 7.5 10.6667ZM9 14.8333C9 15.6618 8.32843 16.3333 7.5 16.3333C6.67157 16.3333 6 15.6618 6 14.8333C6 14.0049 6.67157 13.3333 7.5 13.3333C8.32843 13.3333 9 14.0049 9 14.8333ZM7.5 22C8.32843 22 9 21.3284 9 20.5C9 19.6716 8.32843 19 7.5 19C6.67157 19 6 19.6716 6 20.5C6 21.3284 6.67157 22 7.5 22Z" fill="#272727"/>
</svg>
