<svg width="32" height="32" viewBox="0 0 32 32" fill="none" xmlns="http://www.w3.org/2000/svg">
<path d="M5.17587 10.9268H0V15.7112H10.3422C10.1877 13.0439 7.93367 10.9268 5.17587 10.9268Z" fill="#77AF54"/>
<path d="M10.8288 10.9271V16.0043C10.8288 18.7102 12.9869 20.9217 15.7063 21.0731V10.9271H10.8288Z" fill="#77AF54"/>
<path d="M26.8328 10.9268C24.0755 10.9268 21.8218 13.0439 21.6665 15.7112H32C31.8448 13.0439 29.5908 10.9268 26.8328 10.9268Z" fill="#77AF54"/>
<path d="M5.17586 21.073H0V16.2926H10.3422C10.1877 18.9587 7.93366 21.073 5.17586 21.073Z" fill="#77AF54"/>
<path d="M26.8328 21.0731C24.0755 21.0731 21.8218 18.9588 21.6666 16.2927H32C31.8448 18.9588 29.5908 21.0731 26.8328 21.0731Z" fill="#77AF54"/>
<path d="M21.1703 21.0643H16.3022V10.9268H21.1798V15.9998C21.1798 16.0983 21.1761 16.1952 21.1703 16.2928V21.0643Z" fill="#77AF54"/>
</svg>
