<svg width="16" height="16" viewBox="0 0 16 16" fill="none" xmlns="http://www.w3.org/2000/svg">
<path fill-rule="evenodd" clip-rule="evenodd" d="M11.1381 2.08088C10.8777 1.82053 10.4556 1.82053 10.1953 2.08088L9.27614 3L11.6667 5.39053L12.5858 4.47141C12.8461 4.21106 12.8461 3.78895 12.5858 3.5286L11.1381 2.08088ZM3.33333 8.94281L8.33333 3.94281L10.7239 6.33334L5.72386 11.3333H3.33333V8.94281ZM9.25245 1.13807C10.0335 0.357022 11.2998 0.357026 12.0809 1.13807L13.5286 2.58579C14.3096 3.36684 14.3096 4.63317 13.5286 5.41422L6.47141 12.4714L6.27614 12.6667H6H2.66667H2V12V8.66667V8.39053L2.19526 8.19526L9.25245 1.13807ZM2 15.3333H14V14H2V15.3333Z" fill="#272727"/>
</svg>
