<svg width="24" height="24" viewBox="0 0 24 24" fill="none" xmlns="http://www.w3.org/2000/svg">
<path fill-rule="evenodd" clip-rule="evenodd" d="M16.7071 3.12132C16.3166 2.7308 15.6834 2.7308 15.2929 3.12132L13.9142 4.5L17.5 8.08579L18.8787 6.70711C19.2692 6.31658 19.2692 5.68342 18.8787 5.2929L16.7071 3.12132ZM5 13.4142L12.5 5.91422L16.0858 9.5L8.58579 17H5V13.4142ZM13.8787 1.70711C15.0503 0.535537 16.9497 0.535537 18.1213 1.70711L20.2929 3.87868C21.4645 5.05026 21.4645 6.94975 20.2929 8.12132L9.70711 18.7071L9.41421 19H9H4H3V18V13V12.5858L3.29289 12.2929L13.8787 1.70711ZM3 23H21V21H3V23Z" fill="#272727"/>
</svg>
