<svg width="32" height="32" viewBox="0 0 32 32" fill="none" xmlns="http://www.w3.org/2000/svg">
<path fill-rule="evenodd" clip-rule="evenodd" d="M8.37128 23.3253V24.1104C8.37128 25.6292 9.60249 26.8604 11.1213 26.8604H28.1724C29.6912 26.8604 30.9224 25.6292 30.9224 24.1104V10.0283V9.27832H30.1724H24.3706V10.7783H28.3618L24.3706 14.7695V16.8908L29.4224 11.839V24.1104C29.4224 24.8008 28.8628 25.3604 28.1724 25.3604H11.1213C10.4309 25.3604 9.87128 24.8008 9.87128 24.1104V23.3253H8.37128ZM22.8706 16.4818V16.2695L22.7644 16.3757L22.8706 16.4818Z" fill="#4C64E1"/>
<path d="M1.07764 5.13965H22.1172M1.07764 5.13965V19.0733C1.07764 20.1779 1.97307 21.0733 3.07764 21.0733H20.1172C21.2218 21.0733 22.1172 20.1779 22.1172 19.0733V5.13965M1.07764 5.13965L12.0922 14.9377L22.1172 5.13965" stroke="#272727" stroke-width="1.5"/>
</svg>
