<svg width="24" height="24" viewBox="0 0 24 24" fill="none" xmlns="http://www.w3.org/2000/svg">
<path fill-rule="evenodd" clip-rule="evenodd" d="M22 22H20V2H22V22ZM4.41426 13H18V11H4.41426L9.70715 5.70711L8.29294 4.29289L1.85862 10.7272L1.84226 10.7436L1.84224 10.7436C1.75798 10.8278 1.65736 10.9283 1.576 11.0242C1.4817 11.1352 1.35616 11.3038 1.28057 11.5365C1.18268 11.8377 1.18268 12.1623 1.28057 12.4635C1.35616 12.6962 1.4817 12.8648 1.576 12.9758C1.65737 13.0717 1.758 13.1722 1.84226 13.2564L1.84228 13.2565L1.85863 13.2728L8.29294 19.7071L9.70715 18.2929L4.41426 13Z" fill="#1D1D21"/>
</svg>
