<svg width="16" height="16" viewBox="0 0 16 16" fill="none" xmlns="http://www.w3.org/2000/svg">
<path fill-rule="evenodd" clip-rule="evenodd" d="M1.33333 14.6667V1.33333H2.66666V14.6667H1.33333ZM13.0572 8.66667H3.99999V7.33333H13.0572L9.52859 3.80474L10.4714 2.86193L14.7609 7.15147L14.7719 7.16238L14.7719 7.16242C14.8281 7.21854 14.8951 7.28556 14.9494 7.34945C15.0122 7.42349 15.0959 7.53589 15.1463 7.69098C15.2116 7.89183 15.2116 8.10817 15.1463 8.30902C15.0959 8.46411 15.0122 8.57651 14.9494 8.65056C14.8951 8.71446 14.828 8.78149 14.7719 8.83762L14.7609 8.84853L10.4714 13.1381L9.52859 12.1953L13.0572 8.66667Z" fill="#272727"/>
</svg>
