<svg width="32" height="32" viewBox="0 0 32 32" fill="none" xmlns="http://www.w3.org/2000/svg">
<path d="M11.7551 13.9752C11.7551 14.9416 10.9716 15.7251 10.0051 15.7251C9.03862 15.7251 8.25513 14.9416 8.25513 13.9752C8.25513 13.0087 9.03862 12.2252 10.0051 12.2252C10.9716 12.2252 11.7551 13.0087 11.7551 13.9752Z" stroke="#272727" stroke-width="1.5"/>
<path d="M28.9885 22.4748C28.9885 27.1601 25.1902 30.9583 20.5048 30.9583C15.8195 30.9583 12.0212 27.1601 12.0212 22.4748C12.0212 17.7895 15.8195 13.9913 20.5048 13.9913C25.1902 13.9913 28.9885 17.7895 28.9885 22.4748Z" stroke="#4C64E1" stroke-width="1.5"/>
<path d="M15.5022 24.7848C16.1483 23.4028 15.6139 22.882 15.5592 21.7611C15.52 20.958 15.7825 19.9302 16.5051 18.9755C17.2276 18.0208 18.1339 16.9069 20.5339 16.9069C22.9339 16.9069 24.4542 18.6997 24.9542 19.533C25.4542 20.3663 26.2203 22.4485 25.3811 26.1815" stroke="#4C64E1" stroke-width="1.5" stroke-linecap="round"/>
<path d="M20.5332 21.6891C20.94 22.8499 21.2357 25.7788 19.1638 28.208" stroke="#4C64E1" stroke-width="1.5" stroke-linecap="round"/>
<path d="M17.0325 26.7671C17.3305 26.5119 17.9942 25.4667 18.1534 24.9891C18.3126 24.5114 18.4625 24.1368 18.1534 22.2629C18.0059 21.3687 18.3071 20.5889 18.6204 20.2415C18.9337 19.894 19.5388 19.3986 20.2239 19.3586C21.1698 19.3034 21.9356 19.7732 22.2779 20.0796C22.875 20.623 23.2328 21.5659 23.2598 23.2234C23.2861 24.8341 22.9715 25.5656 22.5509 27.0935" stroke="#4C64E1" stroke-width="1.5" stroke-linecap="round"/>
<path fill-rule="evenodd" clip-rule="evenodd" d="M6.01147 0.291626H5.26147V1.04163V8.29163H3.01147H2.26147V9.04163V24.0416C2.26147 25.5604 3.49269 26.7916 5.01147 26.7916H10.6779C10.4657 26.3092 10.2879 25.8081 10.1478 25.2916H5.01147C4.32112 25.2916 3.76147 24.732 3.76147 24.0416V9.79163H6.01147H14.0115H14.0183H14.0252H14.032H14.0388H14.0457H14.0525H14.0592H14.066H14.0728H14.0795H14.0863H14.093H14.0997H14.1064H14.1131H14.1198H14.1265H14.1332H14.1398H14.1465H14.1531H14.1597H14.1663H14.1729H14.1795H14.1861H14.1927H14.1992H14.2058H14.2123H14.2188H14.2254H14.2319H14.2384H14.2449H14.2513H14.2578H14.2642H14.2707H14.2771H14.2836H14.29H14.2964H14.3028H14.3092H14.3155H14.3219H14.3283H14.3346H14.3409H14.3473H14.3536H14.3599H14.3662H14.3725H14.3788H14.385H14.3913H14.3976H14.4038H14.41H14.4163H14.4225H14.4287H14.4349H14.4411H14.4473H14.4534H14.4596H14.4658H14.4719H14.4781H14.4842H14.4903H14.4964H14.5025H14.5086H14.5147H14.5208H14.5269H14.5329H14.539H14.545H14.5511H14.5571H14.5632H14.5692H14.5752H14.5812H14.5872H14.5932H14.5991H14.6051H14.6111H14.617H14.623H14.6289H14.6349H14.6408H14.6467H14.6526H14.6585H14.6644H14.6703H14.6762H14.6821H14.688H14.6938H14.6997H14.7055H14.7114H14.7172H14.723H14.7289H14.7347H14.7405H14.7463H14.7521H14.7579H14.7637H14.7694H14.7752H14.781H14.7867H14.7925H14.7983H14.804H14.8097H14.8155H14.8212H14.8269H14.8326H14.8383H14.844H14.8497H14.8554H14.8611H14.8668H14.8725H14.8781H14.8838H14.8894H14.8951H14.9007H14.9064H14.912H14.9177H14.9233H14.9289H14.9345H14.9401H14.9457H14.9514H14.957H14.9625H14.9681H14.9737H14.9793H14.9849H14.9904H14.996H15.0016H15.0071H15.0127H15.0182H15.0238H15.0293H15.0349H15.0404H15.0459H15.0514H15.057H15.0625H15.068H15.0735H15.079H15.0845H15.09H15.0955H15.101H15.1065H15.112H15.1175H15.1229H15.1284H15.1339H15.1393H15.1448H15.1503H15.1557H15.1612H15.1666H15.1721H15.1775H15.183H15.1884H15.1939H15.1993H15.2047H15.2102H15.2156H15.221H15.2264H15.2318H15.2373H15.2427H15.2481H15.2535H15.2589H15.2643H15.2697H15.2751H15.2805H15.2859H15.2913H15.2967H15.3021H15.3075H15.3129H15.3183H15.3237H15.329H15.3344H15.3398H15.3452H15.3506H15.3559H15.3613H15.3667H15.3721H15.3774H15.3828H15.3882H15.3935H15.3989H15.4043H15.4096H15.415H15.4204H15.4257H15.4311H15.4365H15.4418H15.4472H15.4525H15.4579H15.4633H15.4686H15.474H15.4793H15.4847H15.49H15.4954H15.5008H15.5061H15.5115H15.5168H15.5222H15.5275H15.5329H15.5383H15.5436H15.549H15.5543H15.5597H15.565H15.5704H15.5758H15.5811H15.5865H15.5919H15.5972H15.6026H15.6079H15.6133H15.6187H15.624H15.6294H15.6348H15.6401H15.6455H15.6509H15.6563H15.6616H15.667H15.6724H15.6778H15.6831H15.6885H15.6939H15.6993H15.7047H15.7101H15.7155H15.7208H15.7262H15.7316H15.737H15.7424H15.7478H15.7532H15.7586H15.764H15.7694H15.7749H15.7803H15.7857H15.7911H15.7965H15.8019H15.8074H15.8128H15.8182H15.8237H15.8291H15.8345H15.84H15.8454H15.8509H15.8563H15.8618H15.8672H15.8727H15.8781H15.8836H15.8891H15.8945H15.9H15.9055H15.911H15.9165H15.922H15.9274H15.9329H15.9384H15.9439H15.9494H15.955H15.9605H15.966H15.9715H15.977H15.9826H15.9881H15.9936H15.9992H16.0047H16.0103H16.0158H16.0214H16.0269H16.0325H16.0381H16.0437H16.0492H16.0548H16.0604H16.066H16.0716H16.0772H16.0828H16.0884H16.094H16.0997H16.1053H16.1109H16.1166H16.1222H16.1279H16.1335H16.1392H16.1448H16.1505H16.1562H16.1618H16.1675H16.1732H16.1789H16.1846H16.1903H16.196H16.2018H16.2075H16.2132H16.219H16.2247H16.2304H16.2362H16.242H16.2477H16.2535H16.2593H16.2615V12.6155C16.7442 12.4075 17.2452 12.2338 17.7615 12.0977V9.04163V8.29163H17.0115H17.0046H16.9978H16.9909H16.9841H16.9773H16.9705H16.9637H16.9569H16.9502H16.9434H16.9367H16.9299H16.9232H16.9165H16.9098H16.9031H16.8964H16.8898H16.8831H16.8765H16.8698H16.8632H16.8566H16.85H16.8434H16.8368H16.8303H16.8237H16.8172H16.8106H16.8041H16.7976H16.7911H16.7846H16.7781H16.7716H16.7652H16.7587H16.7523H16.7458H16.7394H16.733H16.7266H16.7202H16.7138H16.7074H16.701H16.6947H16.6883H16.682H16.6757H16.6694H16.6631H16.6568H16.6505H16.6442H16.6379H16.6316H16.6254H16.6191H16.6129H16.6067H16.6005H16.5943H16.5881H16.5819H16.5757H16.5695H16.5633H16.5572H16.551H16.5449H16.5388H16.5326H16.5265H16.5204H16.5143H16.5082H16.5021H16.4961H16.49H16.4839H16.4779H16.4719H16.4658H16.4598H16.4538H16.4478H16.4418H16.4358H16.4298H16.4238H16.4178H16.4119H16.4059H16.4H16.394H16.3881H16.3822H16.3762H16.3703H16.3644H16.3585H16.3526H16.3467H16.3409H16.335H16.3291H16.3233H16.3174H16.3116H16.3057H16.2999H16.2941H16.2883H16.2825H16.2767H16.2709H16.2651H16.2593H16.2535H16.2477H16.242H16.2362H16.2304H16.2247H16.219H16.2132H16.2075H16.2018H16.196H16.1903H16.1846H16.1789H16.1732H16.1675H16.1618H16.1562H16.1505H16.1448H16.1392H16.1335H16.1279H16.1222H16.1166H16.1109H16.1053H16.0997H16.094H16.0884H16.0828H16.0772H16.0716H16.066H16.0604H16.0548H16.0492H16.0437H16.0381H16.0325H16.0269H16.0214H16.0158H16.0103H16.0047H15.9992H15.9936H15.9881H15.9826H15.977H15.9715H15.966H15.9605H15.955H15.9494H15.9439H15.9384H15.9329H15.9274H15.922H15.9165H15.911H15.9055H15.9H15.8945H15.8891H15.8836H15.8781H15.8727H15.8672H15.8618H15.8563H15.8509H15.8454H15.84H15.8345H15.8291H15.8237H15.8182H15.8128H15.8074H15.8019H15.7965H15.7911H15.7857H15.7803H15.7749H15.7694H15.764H15.7586H15.7532H15.7478H15.7424H15.737H15.7316H15.7262H15.7208H15.7155H15.7101H15.7047H15.6993H15.6939H15.6885H15.6831H15.6778H15.6724H15.667H15.6616H15.6563H15.6509H15.6455H15.6401H15.6348H15.6294H15.624H15.6187H15.6133H15.6079H15.6026H15.5972H15.5919H15.5865H15.5811H15.5758H15.5704H15.565H15.5597H15.5543H15.549H15.5436H15.5383H15.5329H15.5275H15.5222H15.5168H15.5115H15.5061H15.5008H15.4954H15.49H15.4847H15.4793H15.474H15.4686H15.4633H15.4579H15.4525H15.4472H15.4418H15.4365H15.4311H15.4257H15.4204H15.415H15.4096H15.4043H15.3989H15.3935H15.3882H15.3828H15.3774H15.3721H15.3667H15.3613H15.3559H15.3506H15.3452H15.3398H15.3344H15.329H15.3237H15.3183H15.3129H15.3075H15.3021H15.2967H15.2913H15.2859H15.2805H15.2751H15.2697H15.2643H15.2589H15.2535H15.2481H15.2427H15.2373H15.2318H15.2264H15.221H15.2156H15.2102H15.2047H15.1993H15.1939H15.1884H15.183H15.1775H15.1721H15.1666H15.1612H15.1557H15.1503H15.1448H15.1393H15.1339H15.1284H15.1229H15.1175H15.112H15.1065H15.101H15.0955H15.09H15.0845H15.079H15.0735H15.068H15.0625H15.057H15.0514H15.0459H15.0404H15.0349H15.0293H15.0238H15.0182H15.0127H15.0071H15.0016H14.996H14.9904H14.9849H14.9793H14.9737H14.9681H14.9625H14.957H14.9514H14.9457H14.9401H14.9345H14.9289H14.9233H14.9177H14.912H14.9064H14.9007H14.8951H14.8894H14.8838H14.8781H14.8725H14.8668H14.8611H14.8554H14.8497H14.844H14.8383H14.8326H14.8269H14.8212H14.8155H14.8097H14.804H14.7983H14.7925H14.7867H14.781H14.7752H14.7694H14.7637H14.7615V1.04163V0.291626H14.0115H6.01147ZM13.2615 8.29163H6.76147V1.79163H13.2615V8.29163Z" fill="#272727"/>
</svg>
