<svg width="16" height="16" viewBox="0 0 16 16" fill="none" xmlns="http://www.w3.org/2000/svg">
<path fill-rule="evenodd" clip-rule="evenodd" d="M5.73815 3.33333C6.12154 3.33333 6.16331 3.34114 6.18977 3.34978C6.23437 3.36434 6.27539 3.38814 6.31016 3.41964C6.33079 3.43834 6.3583 3.47072 6.54851 3.8036L8.7545 7.66409L8.94645 8H9.33333H14V11.2C14 11.5844 13.9995 11.8325 13.984 12.0214C13.9693 12.2025 13.9441 12.2697 13.9273 12.3027C13.8634 12.4281 13.7614 12.5301 13.636 12.594C13.603 12.6108 13.5359 12.6359 13.3548 12.6507C13.1659 12.6661 12.9177 12.6667 12.5333 12.6667H3.46667C3.0823 12.6667 2.83412 12.6661 2.64522 12.6507C2.46411 12.6359 2.39697 12.6108 2.36401 12.594C2.23856 12.5301 2.13658 12.4281 2.07266 12.3027C2.05587 12.2697 2.03075 12.2025 2.01595 12.0214C2.00052 11.8325 2 11.5844 2 11.2V3.33333H5.73815ZM6.60349 2.08226C6.34791 1.99884 6.07481 1.99938 5.80314 1.99991L5.73815 2H1.33333H0.666665V2.66666V11.2V11.2257V11.2257C0.666654 11.5772 0.666645 11.8803 0.687046 12.13C0.70858 12.3936 0.756124 12.6557 0.884653 12.908C1.0764 13.2843 1.38236 13.5903 1.75869 13.782C2.01094 13.9105 2.27308 13.9581 2.53665 13.9796C2.78637 14 3.08955 14 3.441 14H3.46667H12.5333H12.559C12.9104 14 13.2136 14 13.4634 13.9796C13.7269 13.9581 13.9891 13.9105 14.2413 13.782C14.6176 13.5903 14.9236 13.2843 15.1153 12.908C15.2439 12.6557 15.2914 12.3936 15.313 12.13C15.3334 11.8803 15.3333 11.5771 15.3333 11.2257V11.2V7.33333V7.04006V6.66666V4V3.33333H14.6667H7.81545L7.70617 3.14208L7.674 3.08561C7.53968 2.84947 7.40465 2.61209 7.20542 2.43157C7.03159 2.27407 6.82648 2.15504 6.60349 2.08226ZM8.57736 4.66666L9.72022 6.66666H14V4.66666H8.57736Z" fill="#272727"/>
</svg>
