<svg width="16" height="16" viewBox="0 0 16 16" fill="none" xmlns="http://www.w3.org/2000/svg">
<path fill-rule="evenodd" clip-rule="evenodd" d="M7.44639 2.3153C7.68689 2.061 7.87419 2 8.00001 2C8.12582 2 8.31312 2.061 8.55362 2.3153C8.79545 2.57102 9.04395 2.97682 9.26664 3.53355C9.65421 4.50248 9.92405 5.82899 9.9863 7.33333H6.01371C6.07596 5.82899 6.3458 4.50248 6.73337 3.53355C6.95606 2.97682 7.20456 2.57102 7.44639 2.3153ZM4.67934 7.33333C4.74214 5.68855 5.03561 4.18784 5.4954 3.03836C5.58067 2.8252 5.67307 2.62055 5.77273 2.42699C3.759 3.23251 2.28374 5.09785 2.03662 7.33333H4.67934ZM2.03662 8.66667C2.28374 10.9022 3.759 12.7675 5.77273 13.573C5.67307 13.3794 5.58067 13.1748 5.4954 12.9616C5.03561 11.8122 4.74214 10.3114 4.67934 8.66667H2.03662ZM6.01371 8.66667H9.9863C9.92405 10.171 9.65421 11.4975 9.26664 12.4665C9.04395 13.0232 8.79545 13.429 8.55362 13.6847C8.31312 13.939 8.12582 14 8.00001 14C7.87419 14 7.68689 13.939 7.44639 13.6847C7.20456 13.429 6.95606 13.0232 6.73337 12.4665C6.3458 11.4975 6.07596 10.171 6.01371 8.66667ZM11.3207 8.66667C11.2579 10.3114 10.9644 11.8122 10.5046 12.9616C10.4193 13.1748 10.3269 13.3794 10.2273 13.573C12.241 12.7675 13.7163 10.9022 13.9634 8.66667H11.3207ZM13.9634 7.33333C13.7163 5.09785 12.241 3.23251 10.2273 2.42699C10.3269 2.62055 10.4193 2.8252 10.5046 3.03836C10.9644 4.18784 11.2579 5.68855 11.3207 7.33333H13.9634ZM15.3333 8C15.3333 12.0501 12.0501 15.3333 8.00001 15.3333C3.94992 15.3333 0.666672 12.0501 0.666672 8C0.666672 3.94991 3.94992 0.666666 8.00001 0.666666C12.0501 0.666666 15.3333 3.94991 15.3333 8Z" fill="#272727"/>
</svg>
