<svg width="16" height="16" viewBox="0 0 16 16" fill="none" xmlns="http://www.w3.org/2000/svg">
<path fill-rule="evenodd" clip-rule="evenodd" d="M4.66667 3.33333C4.66667 4.06971 4.06971 4.66667 3.33333 4.66667C2.59695 4.66667 2 4.06971 2 3.33333C2 2.59695 2.59695 2 3.33333 2C4.06971 2 4.66667 2.59695 4.66667 3.33333ZM4.66667 8C4.66667 8.73638 4.06971 9.33333 3.33333 9.33333C2.59695 9.33333 2 8.73638 2 8C2 7.26362 2.59695 6.66667 3.33333 6.66667C4.06971 6.66667 4.66667 7.26362 4.66667 8ZM3.33333 14C4.06971 14 4.66667 13.403 4.66667 12.6667C4.66667 11.9303 4.06971 11.3333 3.33333 11.3333C2.59695 11.3333 2 11.9303 2 12.6667C2 13.403 2.59695 14 3.33333 14ZM9.33333 3.33333C9.33333 4.06971 8.73638 4.66667 8 4.66667C7.26362 4.66667 6.66667 4.06971 6.66667 3.33333C6.66667 2.59695 7.26362 2 8 2C8.73638 2 9.33333 2.59695 9.33333 3.33333ZM8 9.33333C8.73638 9.33333 9.33333 8.73638 9.33333 8C9.33333 7.26362 8.73638 6.66667 8 6.66667C7.26362 6.66667 6.66667 7.26362 6.66667 8C6.66667 8.73638 7.26362 9.33333 8 9.33333ZM9.33333 12.6667C9.33333 13.403 8.73638 14 8 14C7.26362 14 6.66667 13.403 6.66667 12.6667C6.66667 11.9303 7.26362 11.3333 8 11.3333C8.73638 11.3333 9.33333 11.9303 9.33333 12.6667ZM12.6667 4.66667C13.403 4.66667 14 4.06971 14 3.33333C14 2.59695 13.403 2 12.6667 2C11.9303 2 11.3333 2.59695 11.3333 3.33333C11.3333 4.06971 11.9303 4.66667 12.6667 4.66667ZM14 8C14 8.73638 13.403 9.33333 12.6667 9.33333C11.9303 9.33333 11.3333 8.73638 11.3333 8C11.3333 7.26362 11.9303 6.66667 12.6667 6.66667C13.403 6.66667 14 7.26362 14 8ZM12.6667 14C13.403 14 14 13.403 14 12.6667C14 11.9303 13.403 11.3333 12.6667 11.3333C11.9303 11.3333 11.3333 11.9303 11.3333 12.6667C11.3333 13.403 11.9303 14 12.6667 14Z" fill="#272727"/>
</svg>
