<svg width="16" height="16" viewBox="0 0 16 16" fill="none" xmlns="http://www.w3.org/2000/svg">
<path fill-rule="evenodd" clip-rule="evenodd" d="M7.99999 0.436424L8.44597 0.837803L15.1126 6.8378L15.3333 7.03642V7.33333V13.3333C15.3333 14.4379 14.4379 15.3333 13.3333 15.3333H10.6667H9.99999V14.6667V10.6667C9.99999 9.5621 9.10456 8.66667 7.99999 8.66667C6.89542 8.66667 5.99999 9.5621 5.99999 10.6667V14.6667V15.3333H5.33332H2.66666C1.56209 15.3333 0.666656 14.4379 0.666656 13.3333V7.33333V7.03642L0.887347 6.8378L7.55401 0.837803L7.99999 0.436424ZM1.99999 7.63024V13.3333C1.99999 13.7015 2.29847 14 2.66666 14H4.66666V10.6667C4.66666 8.82572 6.15904 7.33333 7.99999 7.33333C9.84094 7.33333 11.3333 8.82571 11.3333 10.6667V14H13.3333C13.7015 14 14 13.7015 14 13.3333V7.63024L7.99999 2.23024L1.99999 7.63024Z" fill="#272727"/>
</svg>
