<svg width="16" height="16" viewBox="0 0 16 16" fill="none" xmlns="http://www.w3.org/2000/svg">
<path fill-rule="evenodd" clip-rule="evenodd" d="M9.66667 6.60948L7.92717 8.34898C8.39281 9.00286 8.66667 9.80278 8.66667 10.6667C8.66667 12.8758 6.87581 14.6667 4.66667 14.6667C2.45753 14.6667 0.666672 12.8758 0.666672 10.6667C0.666672 8.45753 2.45753 6.66667 4.66667 6.66667C5.53056 6.66667 6.33048 6.94053 6.98436 7.40617L8.72386 5.66667L9.19527 5.19526L11.5286 2.86193L12 2.39052L12.8619 1.52859L13.8047 2.4714L12.9428 3.33333L14.4714 4.86193L14.9428 5.33333L14.4714 5.80474L12.1381 8.13807L11.6667 8.60948L11.1953 8.13807L9.66667 6.60948ZM10.6095 5.66667L11.6667 6.72386L13.0572 5.33333L12 4.27614L10.6095 5.66667ZM4.66667 13.3333C6.13943 13.3333 7.33334 12.1394 7.33334 10.6667C7.33334 9.19391 6.13943 8 4.66667 8C3.19391 8 2.00001 9.19391 2.00001 10.6667C2.00001 12.1394 3.19391 13.3333 4.66667 13.3333Z" fill="#272727"/>
</svg>
