<svg width="32" height="32" viewBox="0 0 32 32" fill="none" xmlns="http://www.w3.org/2000/svg">
<path d="M13.1441 7.33021C14.7466 6.15541 16.6434 5.44773 18.6238 5.28577C20.6041 5.12381 22.5907 5.5139 24.3628 6.41272C26.1349 7.31154 27.6232 8.68392 28.6624 10.3775C29.7017 12.071 30.2512 14.0195 30.25 16.0065C30.2488 17.9935 29.6969 19.9413 28.6556 21.6336C27.6143 23.3259 26.1244 24.6965 24.3512 25.5931C22.578 26.4898 20.591 26.8775 18.6108 26.7132C16.6306 26.5488 14.7347 25.8388 13.1336 24.6621" stroke="#272727" stroke-width="1.5"/>
<path d="M5.50649 16.0142H25.4898M5.50649 16.0142L8.00027 13.4905M5.50649 16.0142L8.00027 18.4951M25.4898 16.0142L20.9878 11.5049M25.4898 16.0142L21.0014 20.4942" stroke="#272727" stroke-width="1.5"/>
<path fill-rule="evenodd" clip-rule="evenodd" d="M6.42705 11.5576C7.51442 11.4181 8.61534 11.6802 9.5231 12.2949C10.0879 12.6773 10.5538 13.1799 10.8912 13.7608H12.558C12.113 12.6665 11.3521 11.7218 10.3641 11.0528C9.15379 10.2333 7.68589 9.88373 6.23607 10.0698C4.78625 10.2559 3.45423 10.9649 2.49013 12.0636C1.52603 13.1623 0.996161 14.5751 1.00002 16.0369C1.00388 17.4986 1.5412 18.9086 2.51109 20.0022C3.48098 21.0958 4.81673 21.7977 6.26751 21.9761C7.71829 22.1546 9.18432 21.7973 10.3903 20.9713C11.3648 20.304 12.1153 19.3677 12.5564 18.2852H10.8889C10.5557 18.8575 10.0976 19.3537 9.54274 19.7338C8.63824 20.3532 7.53872 20.6212 6.45063 20.4874C5.36254 20.3535 4.36074 19.8271 3.63332 19.0069C2.9059 18.1867 2.50291 17.1292 2.50002 16.0329C2.49712 14.9366 2.89452 13.877 3.6176 13.053C4.34067 12.2289 5.33969 11.6972 6.42705 11.5576Z" fill="#4C64E1"/>
</svg>
