<svg width="16" height="16" viewBox="0 0 16 16" fill="none" xmlns="http://www.w3.org/2000/svg">
<path fill-rule="evenodd" clip-rule="evenodd" d="M15.3333 8C15.3333 12.0501 12.0501 15.3333 8 15.3333C3.94991 15.3333 0.666668 12.0501 0.666668 8C0.666668 3.94991 3.94991 0.666664 8 0.666664C12.0501 0.666664 15.3333 3.94991 15.3333 8ZM8.00001 5.83333C8.46024 5.83333 8.83333 5.46024 8.83333 5C8.83333 4.53975 8.46024 4.16666 8.00001 4.16666C7.53977 4.16666 7.16667 4.53975 7.16667 5C7.16667 5.46024 7.53977 5.83333 8.00001 5.83333ZM8 7C8.36819 7 8.66667 7.29847 8.66667 7.66666V11.6667H7.33333V7.66666C7.33333 7.29847 7.63181 7 8 7Z" fill="#272727"/>
</svg>
