<svg width="16" height="16" viewBox="0 0 16 16" fill="none" xmlns="http://www.w3.org/2000/svg">
<path fill-rule="evenodd" clip-rule="evenodd" d="M3.33332 4C3.33332 4.73638 2.73637 5.33333 1.99999 5.33333C1.26361 5.33333 0.666656 4.73638 0.666656 4C0.666656 3.26362 1.26361 2.66667 1.99999 2.66667C2.73637 2.66667 3.33332 3.26362 3.33332 4ZM1.99999 9.33333C2.73637 9.33333 3.33332 8.73638 3.33332 8C3.33332 7.26362 2.73637 6.66667 1.99999 6.66667C1.26361 6.66667 0.666656 7.26362 0.666656 8C0.666656 8.73638 1.26361 9.33333 1.99999 9.33333ZM1.99999 13.3333C2.73637 13.3333 3.33332 12.7364 3.33332 12C3.33332 11.2636 2.73637 10.6667 1.99999 10.6667C1.26361 10.6667 0.666656 11.2636 0.666656 12C0.666656 12.7364 1.26361 13.3333 1.99999 13.3333ZM5.33332 8.66667H15.3333V7.33333H5.33332V8.66667ZM15.3333 4.66667H5.33332V3.33333H15.3333V4.66667ZM5.33332 12.6667H15.3333V11.3333H5.33332V12.6667Z" fill="#272727"/>
</svg>
