<svg width="24" height="24" viewBox="0 0 24 24" fill="none" xmlns="http://www.w3.org/2000/svg">
<path fill-rule="evenodd" clip-rule="evenodd" d="M5 6C5 7.10457 4.10457 8 3 8C1.89543 8 1 7.10457 1 6C1 4.89543 1.89543 4 3 4C4.10457 4 5 4.89543 5 6ZM3 14C4.10457 14 5 13.1046 5 12C5 10.8954 4.10457 10 3 10C1.89543 10 1 10.8954 1 12C1 13.1046 1.89543 14 3 14ZM3 20C4.10457 20 5 19.1046 5 18C5 16.8954 4.10457 16 3 16C1.89543 16 1 16.8954 1 18C1 19.1046 1.89543 20 3 20ZM8 13H23V11H8V13ZM23 7H8V5H23V7ZM8 19H23V17H8V19Z" fill="#272727"/>
</svg>
