<svg width="16" height="16" viewBox="0 0 16 16" fill="none" xmlns="http://www.w3.org/2000/svg">
<path fill-rule="evenodd" clip-rule="evenodd" d="M7.99998 0.666666C5.02951 0.666666 2.68701 3.03752 2.42443 5.93267C2.22585 8.12227 1.89543 10.1044 1.36382 11.8006L1.09239 12.6667H1.99998H4.73133C5.0343 14.2011 6.36724 15.3333 7.99998 15.3333C9.63273 15.3333 10.9657 14.2011 11.2686 12.6667H14H14.9076L14.6362 11.8006C14.1046 10.1044 13.7741 8.12227 13.5755 5.93267C13.3129 3.03752 10.9705 0.666666 7.99998 0.666666ZM9.89114 12.6667H6.10882C6.37642 13.4525 7.10988 14 7.99998 14C8.89009 14 9.62355 13.4525 9.89114 12.6667ZM3.75232 6.0531C3.95841 3.78076 5.78174 2 7.99998 2C10.2182 2 12.0416 3.78076 12.2477 6.05311C12.4194 7.94679 12.6905 9.72857 13.1144 11.3333H2.88556C3.30948 9.72857 3.58057 7.94678 3.75232 6.0531Z" fill="#272727"/>
</svg>
