<svg width="32" height="32" viewBox="0 0 32 32" fill="none" xmlns="http://www.w3.org/2000/svg">
<path fill-rule="evenodd" clip-rule="evenodd" d="M23.8861 14.9805C23.9289 15.3146 23.9533 15.6544 23.9533 16C23.9533 20.3924 20.3925 23.9532 16 23.9532C11.6075 23.9532 8.0469 20.3924 8.0469 16C8.0469 11.6076 11.6075 8.04678 16 8.04678C18.3155 8.04678 20.3992 9.03694 21.8527 10.6162L16 16.4429L13.1511 13.6072C12.7231 13.181 11.9762 13.1803 11.5474 13.6072C11.3332 13.8205 11.2152 14.1039 11.2152 14.4055C11.2152 14.7074 11.3332 14.9909 11.5474 15.2038L15.1978 18.8383C15.4124 19.0516 15.6971 19.169 16 19.169C16.2983 19.169 16.5905 19.0484 16.8017 18.8383L29.0094 6.68467C28.5668 6.06769 28.0816 5.48335 27.5578 4.93623C24.6453 1.89449 20.5441 0 16 0C7.16357 0 0 7.16334 0 16C0 24.8365 7.16357 32 16 32C24.8366 32 32 24.8365 32 16C32 13.3581 31.358 10.8667 30.224 8.67078L23.8861 14.9805Z" fill="#00297A"/>
</svg>
