<svg width="32" height="32" viewBox="0 0 32 32" fill="none" xmlns="http://www.w3.org/2000/svg">
<path d="M6.45315 23.4645C4.91478 21.9261 3.86713 19.9661 3.44269 17.8323C3.01825 15.6985 3.23609 13.4867 4.06865 11.4768C4.90122 9.46677 6.31112 7.74881 8.12006 6.54011M8.12006 6.54011C9.929 5.33142 12.0557 4.68628 14.2313 4.68628M8.12006 6.54011L6.26622 4.68628M14.2313 4.68628C16.4069 4.68628 18.5337 5.33142 20.3426 6.54011M14.2313 4.68628V1.68628H11.7313H16.7313M20.3426 6.54011C22.1515 7.74881 23.5614 9.46677 24.394 11.4768C25.2266 13.4867 25.4444 15.6985 25.02 17.8323C24.5955 19.9661 23.5479 21.9261 22.0095 23.4645M20.3426 6.54011L22.1964 4.68628" stroke="#4C64E1" stroke-width="1.5"/>
<path d="M14.2312 9.18628V14.6863H19.7312" stroke="#4C64E1" stroke-width="1.5"/>
<path d="M10.2312 24.6777V27.6777M10.2312 30.6777V27.6777M10.2312 27.6777L12.7312 26.1777M10.2312 27.6777L7.7312 29.1777M10.2312 27.6777L7.7312 26.1777M10.2312 27.6777L12.7312 29.1777" stroke="#272727" stroke-width="1.5"/>
<path d="M26.2687 24.6777V27.6777M26.2687 30.6777V27.6777M26.2687 27.6777L28.7687 26.1777M26.2687 27.6777L23.7687 29.1777M26.2687 27.6777L23.7687 26.1777M26.2687 27.6777L28.7687 29.1777" stroke="#272727" stroke-width="1.5"/>
<path d="M18.25 24.6777V27.6777M18.25 30.6777V27.6777M18.25 27.6777L20.75 26.1777M18.25 27.6777L15.75 29.1777M18.25 27.6777L15.75 26.1777M18.25 27.6777L20.75 29.1777" stroke="#272727" stroke-width="1.5"/>
</svg>
