<svg width="32" height="32" viewBox="0 0 32 32" fill="none" xmlns="http://www.w3.org/2000/svg">
<path d="M9.72427 2.00004H2.48291V9.23279" stroke="#4C64E1" stroke-width="1.5"/>
<path d="M9.72427 30.0001H2.48291V22.7673" stroke="#4C64E1" stroke-width="1.5"/>
<path d="M22.2967 2.00004H29.5381V9.23279" stroke="#4C64E1" stroke-width="1.5"/>
<path d="M22.2967 30.0001H29.5381V22.7673" stroke="#4C64E1" stroke-width="1.5"/>
<path d="M4.41379 13.1157V16.0088M4.41379 18.9019V16.0088M4.41379 16.0088L6.82757 14.5623M4.41379 16.0088L6.82757 17.4554M4.41379 16.0088L2 17.4554M4.41379 16.0088L2 14.5623" stroke="#272727" stroke-width="1.5"/>
<path d="M12.1379 13.1157V16.0088M12.1379 18.9019V16.0088M12.1379 16.0088L14.5517 14.5623M12.1379 16.0088L14.5517 17.4554M12.1379 16.0088L9.72412 17.4554M12.1379 16.0088L9.72412 14.5623" stroke="#272727" stroke-width="1.5"/>
<path d="M19.8619 13.1157V16.0088M19.8619 18.9019V16.0088M19.8619 16.0088L22.2757 14.5623M19.8619 16.0088L22.2757 17.4554M19.8619 16.0088L17.4481 17.4554M19.8619 16.0088L17.4481 14.5623" stroke="#272727" stroke-width="1.5"/>
<path d="M27.5862 13.1157V16.0088M27.5862 18.9019V16.0088M27.5862 16.0088L29.9999 14.5623M27.5862 16.0088L29.9999 17.4554M27.5862 16.0088L25.1724 17.4554M27.5862 16.0088L25.1724 14.5623" stroke="#272727" stroke-width="1.5"/>
</svg>
