<svg width="16" height="16" viewBox="0 0 16 16" fill="none" xmlns="http://www.w3.org/2000/svg">
<path fill-rule="evenodd" clip-rule="evenodd" d="M8 2C4.68629 2 2 4.68629 2 8C2 11.3137 4.68629 14 8 14C11.3137 14 14 11.3137 14 8C14 4.68629 11.3137 2 8 2ZM0.666664 8C0.666664 3.94991 3.94991 0.666667 8 0.666667C12.0501 0.666667 15.3333 3.94991 15.3333 8C15.3333 12.0501 12.0501 15.3333 8 15.3333C3.94991 15.3333 0.666664 12.0501 0.666664 8ZM5.33333 4.66667H6.66666V11.3333H5.33333L5.33333 4.66667ZM10.6667 4.66667H9.33333V11.3333H10.6667L10.6667 4.66667Z" fill="#272727"/>
</svg>
