<svg width="16" height="16" viewBox="0 0 16 16" fill="none" xmlns="http://www.w3.org/2000/svg">
<path fill-rule="evenodd" clip-rule="evenodd" d="M8.00002 2C4.68631 2 2.00002 4.68629 2.00002 8C2.00002 11.3137 4.68631 14 8.00002 14C11.3137 14 14 11.3137 14 8C14 4.68629 11.3137 2 8.00002 2ZM0.666687 8C0.666687 3.94991 3.94993 0.666664 8.00002 0.666664C12.0501 0.666664 15.3334 3.94991 15.3334 8C15.3334 12.0501 12.0501 15.3333 8.00002 15.3333C3.94993 15.3333 0.666687 12.0501 0.666687 8ZM8.01485 5.33333C7.46851 5.33333 7.01874 5.78311 7.01874 6.32945H5.6854C5.6854 5.04673 6.73213 4 8.01485 4C9.29757 4 10.3443 5.04673 10.3443 6.32945C10.3443 7.26653 9.85349 7.9707 9.09386 8.40477L9.0778 8.41395L9.06125 8.42222C8.90907 8.49831 8.73872 8.63701 8.61054 8.80792C8.48037 8.98147 8.4321 9.1352 8.4321 9.23931C8.4321 9.6075 8.13362 9.90598 7.76543 9.90598C7.39724 9.90598 7.09877 9.6075 7.09877 9.23931C7.09877 8.76145 7.29991 8.3332 7.54387 8.00792C7.78528 7.68604 8.10621 7.41323 8.44579 7.23936C8.84054 7.00951 9.01097 6.71821 9.01097 6.32945C9.01097 5.78311 8.56119 5.33333 8.01485 5.33333ZM8.63332 11.5C8.63332 11.9602 8.26023 12.3333 7.79999 12.3333C7.33975 12.3333 6.96665 11.9602 6.96665 11.5C6.96665 11.0398 7.33975 10.6667 7.79999 10.6667C8.26023 10.6667 8.63332 11.0398 8.63332 11.5Z" fill="#272727"/>
</svg>
