<svg width="24" height="24" viewBox="0 0 24 24" fill="none" xmlns="http://www.w3.org/2000/svg">
<path fill-rule="evenodd" clip-rule="evenodd" d="M23 12C23 18.0751 18.0752 23 12 23C5.9249 23 1.00003 18.0751 1.00003 12C1.00003 5.92487 5.9249 1 12 1C18.0752 1 23 5.92487 23 12ZM12.0223 8C11.2028 8 10.5281 8.67466 10.5281 9.49417H8.52811C8.52811 7.57009 10.0982 6 12.0223 6C13.9464 6 15.5164 7.57009 15.5164 9.49417C15.5164 10.8998 14.7802 11.956 13.6408 12.6072L13.6167 12.6209L13.5919 12.6333C13.3636 12.7475 13.1081 12.9555 12.9158 13.2119C12.7206 13.4722 12.6481 13.7028 12.6481 13.859C12.6481 14.4113 12.2004 14.859 11.6481 14.859C11.0959 14.859 10.6481 14.4113 10.6481 13.859C10.6481 13.1422 10.9499 12.4998 11.3158 12.0119C11.6779 11.5291 12.1593 11.1198 12.6687 10.859C13.2608 10.5143 13.5164 10.0773 13.5164 9.49417C13.5164 8.67466 12.8418 8 12.0223 8ZM11.7 18.5C12.3903 18.5 12.95 17.9404 12.95 17.25C12.95 16.5596 12.3903 16 11.7 16C11.0096 16 10.45 16.5596 10.45 17.25C10.45 17.9404 11.0096 18.5 11.7 18.5Z" fill="#1D1D21"/>
</svg>
