<svg width="16" height="16" viewBox="0 0 16 16" fill="none" xmlns="http://www.w3.org/2000/svg">
<path fill-rule="evenodd" clip-rule="evenodd" d="M8 2C4.68629 2 2 4.68629 2 8H0.666668C0.666668 3.94991 3.94991 0.666666 8 0.666666C10.4811 0.666666 12.6734 1.89883 14 3.78276V1.33333H15.3333L15.3333 4.8L15.3333 4.81543C15.3334 4.89484 15.3334 4.98967 15.3266 5.07322C15.3187 5.17003 15.2984 5.30869 15.2243 5.45399C15.1285 5.64215 14.9755 5.79513 14.7873 5.89101C14.642 5.96504 14.5034 5.98533 14.4066 5.99324C14.323 6.00007 14.2282 6.00003 14.1488 6L14.1333 6H10.6667V4.66667H12.9898C11.9128 3.0578 10.0795 2 8 2ZM8 14C11.3137 14 14 11.3137 14 8H15.3333C15.3333 12.0501 12.0501 15.3333 8 15.3333C5.51893 15.3333 3.32657 14.1012 2 12.2172L2 14.6667H0.666668L0.666668 11.2L0.666664 11.1846C0.666634 11.1052 0.666598 11.0103 0.673424 10.9268C0.681334 10.83 0.701629 10.6913 0.775662 10.546C0.871535 10.3578 1.02452 10.2049 1.21268 10.109C1.35798 10.035 1.49664 10.0147 1.59345 10.0068C1.67699 9.99993 1.77183 9.99996 1.85123 10L1.86667 10L5.33333 10V11.3333L3.01023 11.3333C4.08718 12.9422 5.92055 14 8 14Z" fill="#272727"/>
</svg>
