<svg width="24" height="24" viewBox="0 0 24 24" fill="none" xmlns="http://www.w3.org/2000/svg">
<path fill-rule="evenodd" clip-rule="evenodd" d="M12 3C7.02945 3 3.00001 7.02944 3.00001 12H1.00001C1.00001 5.92487 5.92488 1 12 1C15.7216 1 19.0102 2.84825 21 5.67414V2L23 2V7.2L23 7.22314C23.0001 7.34226 23.0001 7.48451 22.9899 7.60983C22.978 7.75505 22.9476 7.96304 22.8365 8.18099C22.6927 8.46323 22.4632 8.6927 22.181 8.83651C21.9631 8.94756 21.7551 8.978 21.6098 8.98987C21.4845 9.00011 21.3423 9.00005 21.2232 9.00001L21.2 9H16V7L19.4847 7C17.8692 4.5867 15.1192 3 12 3ZM12 21C16.9706 21 21 16.9706 21 12H23C23 18.0751 18.0751 23 12 23C8.2784 23 4.98987 21.1517 3.00001 18.3259L3.00001 22H1.00001L1.00001 16.8L1.00001 16.7769C0.999961 16.6577 0.999906 16.5155 1.01015 16.3902C1.02201 16.245 1.05245 16.037 1.1635 15.819C1.30731 15.5368 1.53678 15.3073 1.81903 15.1635C2.03697 15.0524 2.24496 15.022 2.39018 15.0101C2.5155 14.9999 2.65776 14.9999 2.77687 15L2.80001 15H8.00001L8.00001 17H4.51535C6.13078 19.4133 8.88083 21 12 21Z" fill="#272727"/>
</svg>
