<svg width="16" height="16" viewBox="0 0 16 16" fill="none" xmlns="http://www.w3.org/2000/svg">
<path fill-rule="evenodd" clip-rule="evenodd" d="M12 1.33331H11.3333V1.99998V14L11.3333 14.6666H12H12.0205C12.3911 14.6667 12.6996 14.6667 12.9531 14.6509C13.2166 14.6346 13.4647 14.5994 13.707 14.509C14.3864 14.2556 14.9223 13.7197 15.1757 13.0403C15.2661 12.798 15.3013 12.5499 15.3176 12.2864C15.3333 12.0329 15.3333 11.7244 15.3333 11.3538V11.3538V11.3333V1.99998V1.33331H14.6667H12ZM6.00001 5.33331V14L6.00001 14.6666H6.66667H9.33334H10V14V5.33331V4.66665H9.33334H6.66667H6.00001L6.00001 5.33331ZM4.66667 14V8.66665V7.99998H4.00001H1.33334H0.666672V8.66665V11.3333L0.666672 11.3538C0.666667 11.7244 0.666662 12.0329 0.682402 12.2864C0.698758 12.5499 0.733909 12.798 0.824298 13.0403C1.0777 13.7197 1.61361 14.2556 2.29301 14.509C2.53535 14.5994 2.78341 14.6346 3.04688 14.6509C3.3004 14.6667 3.60883 14.6667 3.9794 14.6666H3.97952H4.00001H4.66667L4.66667 14Z" fill="#272727"/>
</svg>
