<svg width="16" height="16" viewBox="0 0 16 16" fill="none" xmlns="http://www.w3.org/2000/svg">
<path fill-rule="evenodd" clip-rule="evenodd" d="M2 8C2 4.68629 4.68629 2 8 2C10.0795 2 11.9128 3.0578 12.9898 4.66667H10.6667V6H14.1333L14.1488 6C14.2282 6.00003 14.323 6.00007 14.4066 5.99324C14.5034 5.98533 14.642 5.96504 14.7873 5.89101C14.9755 5.79513 15.1285 5.64215 15.2243 5.45399C15.2984 5.30869 15.3187 5.17003 15.3266 5.07322C15.3334 4.98967 15.3334 4.89484 15.3333 4.81543L15.3333 4.8L15.3333 1.33333H14V3.78276C12.6734 1.89883 10.4811 0.666666 8 0.666666C3.94991 0.666666 0.666667 3.94991 0.666667 8C0.666667 12.0501 3.94991 15.3333 8 15.3333C12.0501 15.3333 15.3333 12.0501 15.3333 8H14C14 11.3137 11.3137 14 8 14C4.68629 14 2 11.3137 2 8Z" fill="#272727"/>
</svg>
