<svg width="24" height="24" viewBox="0 0 24 24" fill="none" xmlns="http://www.w3.org/2000/svg">
<path fill-rule="evenodd" clip-rule="evenodd" d="M3 12C3 7.02944 7.02944 3 12 3C16.9706 3 21 7.02944 21 12C21 16.9706 16.9706 21 12 21C7.02944 21 3 16.9706 3 12ZM12 1C5.92487 1 1 5.92487 1 12C1 18.0751 5.92487 23 12 23C18.0751 23 23 18.0751 23 12C23 5.92487 18.0751 1 12 1ZM16.5528 13.3417C17.6584 12.7889 17.6584 11.2112 16.5528 10.6584L10.1708 7.46739C9.17347 6.96871 8 7.69395 8 8.80903L8 15.191C8 16.3061 9.17347 17.0313 10.1708 16.5326L16.5528 13.3417ZM10 9.61804L14.7639 12L10 14.382V9.61804Z" fill="#272727"/>
</svg>
