<svg width="16" height="16" viewBox="0 0 16 16" fill="none" xmlns="http://www.w3.org/2000/svg">
<path fill-rule="evenodd" clip-rule="evenodd" d="M7.99999 1.9971C4.68389 1.9971 1.99587 4.68481 1.99587 8C1.99587 11.3152 4.68389 14.0029 7.99999 14.0029C11.3161 14.0029 14.0041 11.3152 14.0041 8C14.0041 4.68481 11.3161 1.9971 7.99999 1.9971ZM0.665268 8C0.665268 3.9497 3.94925 0.666496 7.99999 0.666496C12.0507 0.666496 15.3347 3.9497 15.3347 8C15.3347 12.0503 12.0507 15.3335 7.99999 15.3335C3.94925 15.3335 0.665268 12.0503 0.665268 8ZM10.963 7.281H5.03695V5.9504H10.963V7.281ZM5.03695 10.0497H10.963V8.71907H5.03695V10.0497Z" fill="#272727"/>
</svg>
