<svg width="16" height="16" viewBox="0 0 16 16" fill="none" xmlns="http://www.w3.org/2000/svg">
<path fill-rule="evenodd" clip-rule="evenodd" d="M7.83831 0.686573C7.94447 0.660033 8.05553 0.660033 8.16169 0.686573L13.495 2.01991C13.7918 2.0941 14 2.36076 14 2.66667V8C14 10.2976 12.4788 12.1335 11.1057 13.3351C10.4051 13.9481 9.70764 14.4272 9.18667 14.7528C8.92548 14.9161 8.70688 15.0418 8.55204 15.1275C8.47458 15.1704 8.41295 15.2033 8.36979 15.226C8.3482 15.2373 8.33122 15.2461 8.31917 15.2523L8.30484 15.2596L8.30052 15.2618L8.29909 15.2625L8.29855 15.2627C8.29834 15.2629 8.29814 15.263 8 14.6667C7.70186 15.263 7.70166 15.2629 7.70145 15.2627L7.70091 15.2625L7.69948 15.2618L7.69516 15.2596L7.68083 15.2523C7.66878 15.2461 7.6518 15.2373 7.63021 15.226C7.58705 15.2033 7.52542 15.1704 7.44796 15.1275C7.29312 15.0418 7.07452 14.9161 6.81333 14.7528C6.29236 14.4272 5.59492 13.9481 4.89433 13.3351C3.52116 12.1335 2 10.2976 2 8V2.66667C2 2.36076 2.2082 2.0941 2.50498 2.01991L7.83831 0.686573ZM8 14.6667L7.70186 15.263C7.88954 15.3568 8.11046 15.3568 8.29814 15.263L8 14.6667ZM8 13.9085C8.12776 13.8361 8.29114 13.7402 8.48 13.6222C8.95903 13.3228 9.59492 12.8853 10.2277 12.3316C11.5212 11.1998 12.6667 9.70238 12.6667 8V3.18719L8 2.02052L3.33333 3.18719V8C3.33333 9.70238 4.47884 11.1998 5.77234 12.3316C6.40508 12.8853 7.04097 13.3228 7.52 13.6222C7.70886 13.7402 7.87224 13.8361 8 13.9085Z" fill="black"/>
</svg>
