<svg width="32" height="32" viewBox="0 0 32 32" fill="none" xmlns="http://www.w3.org/2000/svg">
<path d="M16.012 30.5359C6.9263 24.2719 2.75925 19.2976 2.75925 6.09136L15.307 1.69562C15.7352 1.54559 16.2017 1.54566 16.63 1.6958L29.2408 6.1176C29.2408 20.9249 23.5193 25.1455 16.012 30.5359Z" stroke="#4C64E1" stroke-width="1.5"/>
<path d="M18.0536 16.1343L18.389 16.8051L18.4076 16.7958L18.4257 16.7855L18.0536 16.1343ZM14.6698 19.8656C14.6698 20.2798 15.0055 20.6156 15.4198 20.6156C15.834 20.6156 16.1698 20.2798 16.1698 19.8656H14.6698ZM12.4385 12.1836C12.4385 10.1834 14.0781 8.54382 16.0782 8.54382V7.04382C13.2496 7.04382 10.9385 9.35499 10.9385 12.1836H12.4385ZM16.0782 8.54382C18.0784 8.54382 19.718 10.1834 19.718 12.1836H21.218C21.218 9.35499 18.9068 7.04382 16.0782 7.04382V8.54382ZM19.718 12.1836C19.718 13.6335 19.0181 14.7194 17.6815 15.4831L18.4257 16.7855C20.162 15.7933 21.218 14.2454 21.218 12.1836H19.718ZM17.7182 15.4635C16.9503 15.8474 16.2029 16.4739 15.6428 17.2207C15.085 17.9645 14.6698 18.8872 14.6698 19.8656H16.1698C16.1698 19.3076 16.413 18.6939 16.8428 18.1207C17.2704 17.5506 17.84 17.0797 18.389 16.8051L17.7182 15.4635Z" fill="#272727"/>
<circle cx="15.5279" cy="23.3061" r="0.825" fill="#272727"/>
</svg>
