<svg width="16" height="16" viewBox="0 0 16 16" fill="none" xmlns="http://www.w3.org/2000/svg">
<path fill-rule="evenodd" clip-rule="evenodd" d="M8.16169 0.686592C8.05553 0.660052 7.94447 0.660052 7.83831 0.686592L2.50498 2.01993C2.2082 2.09412 2 2.36078 2 2.66669V8.00002C2 10.2976 3.52116 12.1336 4.89433 13.3351C5.59492 13.9481 6.29236 14.4272 6.81333 14.7529C7.07452 14.9161 7.29312 15.0418 7.44796 15.1276C7.52542 15.1704 7.58705 15.2034 7.63021 15.226C7.6518 15.2374 7.66878 15.2461 7.68083 15.2523L7.69516 15.2596L7.69948 15.2618L7.70091 15.2625L7.70145 15.2628C7.70166 15.2629 7.70186 15.263 8 14.6667L7.70186 15.263C7.88954 15.3568 8.11046 15.3568 8.29814 15.263L8 14.6667C8.29814 15.263 8.29834 15.2629 8.29855 15.2628L8.29909 15.2625L8.30052 15.2618L8.30484 15.2596L8.31917 15.2523C8.33122 15.2461 8.3482 15.2374 8.36979 15.226C8.41295 15.2034 8.47458 15.1704 8.55204 15.1276C8.70688 15.0418 8.92548 14.9161 9.18667 14.7529C9.70764 14.4272 10.4051 13.9481 11.1057 13.3351C12.4788 12.1336 14 10.2976 14 8.00002V2.66669C14 2.36078 13.7918 2.09412 13.495 2.01993L8.16169 0.686592Z" fill="#272727"/>
</svg>
