<svg width="16" height="16" viewBox="0 0 16 16" fill="none" xmlns="http://www.w3.org/2000/svg">
<path fill-rule="evenodd" clip-rule="evenodd" d="M3.17066 8C3.17066 7.1661 2.8615 6.42211 2.39701 5.84817C2.59745 5.3267 2.86889 4.83981 3.19988 4.39941C3.96596 4.53058 4.81033 4.4274 5.56853 4.00416C6.37304 3.55508 6.91834 2.835 7.17779 2.05571C7.44615 2.01901 7.72058 2 7.99998 2C8.27937 2 8.55378 2.01901 8.82212 2.0557C9.08157 2.835 9.62687 3.55507 10.4314 4.00416L11.064 2.87084L10.4314 4.00416C11.1896 4.42741 12.034 4.53057 12.8001 4.3994C13.1311 4.83979 13.4025 5.32668 13.6029 5.84816C13.1384 6.4221 12.8293 7.16609 12.8293 8C12.8293 8.83391 13.1384 9.5779 13.6029 10.1518C13.4025 10.6733 13.1311 11.1602 12.8001 11.6006C12.034 11.4694 11.1896 11.5726 10.4314 11.9958C9.6269 12.4449 9.0816 13.165 8.82215 13.9443C8.5538 13.981 8.27938 14 7.99998 14C7.72059 14 7.44617 13.981 7.17782 13.9443C6.91837 13.165 6.37307 12.4449 5.56856 11.9958C4.81035 11.5726 3.96597 11.4694 3.19989 11.6006C2.86889 11.1602 2.59745 10.6733 2.39701 10.1518C2.8615 9.57789 3.17066 8.8339 3.17066 8ZM7.99998 0.666668C7.31303 0.666668 6.64815 0.761123 6.0176 0.937752C6.04176 1.63385 5.66103 2.42553 4.91865 2.83993C4.2155 3.23244 3.37141 3.18406 2.76463 2.86493C1.85972 3.7874 1.19669 4.948 0.878216 6.24405C1.42146 6.60737 1.83733 7.25792 1.83733 8C1.83733 8.74209 1.42146 9.39263 0.878216 9.75596C1.19669 11.052 1.85973 12.2126 2.76464 13.1351C3.37142 12.8159 4.21552 12.7676 4.91867 13.1601C5.66106 13.5745 6.04179 14.3662 6.01762 15.0623C6.64816 15.2389 7.31304 15.3333 7.99998 15.3333C8.68692 15.3333 9.3518 15.2389 9.98234 15.0623C9.95818 14.3662 10.3389 13.5745 11.0813 13.1601C11.7845 12.7676 12.6285 12.8159 13.2353 13.1351C14.1402 12.2126 14.8033 11.052 15.1217 9.75597C14.5785 9.39264 14.1626 8.74209 14.1626 8C14.1626 7.25791 14.5785 6.60736 15.1217 6.24403C14.8033 4.94798 14.1402 3.78739 13.2353 2.86492C12.6285 3.18406 11.7844 3.23245 11.0813 2.83993C10.3389 2.42552 9.95815 1.63384 9.98231 0.937739C9.35178 0.761118 8.68691 0.666668 7.99998 0.666668ZM6.66667 8C6.66667 7.26362 7.26362 6.66667 8 6.66667C8.73638 6.66667 9.33333 7.26362 9.33333 8C9.33333 8.73638 8.73638 9.33333 8 9.33333C7.26362 9.33333 6.66667 8.73638 6.66667 8ZM8 5.33333C6.52724 5.33333 5.33333 6.52724 5.33333 8C5.33333 9.47276 6.52724 10.6667 8 10.6667C9.47276 10.6667 10.6667 9.47276 10.6667 8C10.6667 6.52724 9.47276 5.33333 8 5.33333Z" fill="#272727"/>
</svg>
