<svg width="32" height="32" viewBox="0 0 32 32" fill="none" xmlns="http://www.w3.org/2000/svg">
<path d="M22 3H10C8.34315 3 7 4.34315 7 6V26C7 27.6569 8.34315 29 10 29H22C23.6569 29 25 27.6569 25 26V6C25 4.34315 23.6569 3 22 3Z" stroke="#272727" stroke-width="1.5"/>
<path d="M22 3H10C8.34315 3 7 4.34315 7 6V26C7 27.6569 8.34315 29 10 29H22C23.6569 29 25 27.6569 25 26V6C25 4.34315 23.6569 3 22 3Z" stroke="#272727" stroke-width="1.5"/>
<path d="M15 7H19M15 9.5H21M15 12H21" stroke="#4C64E1" stroke-width="1.5"/>
<path d="M15 7H19M15 9.5H21M15 12H21" stroke="#4C64E1" stroke-width="1.5"/>
<path d="M16 21.5V18.5C16 18.2239 15.7761 18 15.5 18H13.5M16 21.5H13.5M16 21.5V22.6667V24.5C16 24.7761 15.7761 25 15.5 25H13.5H11.5C11.2239 25 11 24.7761 11 24.5V21.5M11 21.5V18.5C11 18.2239 11.2239 18 11.5 18H13.5M11 21.5H13.5M13.5 21.5V18" stroke="#272727" stroke-width="1.5"/>
</svg>
