<svg width="16" height="16" viewBox="0 0 16 16" fill="none" xmlns="http://www.w3.org/2000/svg">
<path fill-rule="evenodd" clip-rule="evenodd" d="M3.33333 4.66667H13.0572L11.5286 6.19526L12.4714 7.13807L14.7609 4.84853L14.7719 4.83762L14.7719 4.83761L14.7719 4.83759C14.8281 4.78146 14.8951 4.71444 14.9494 4.65056C15.0122 4.57651 15.0959 4.46411 15.1463 4.30902C15.2116 4.10817 15.2116 3.89183 15.1463 3.69098C15.0959 3.53589 15.0122 3.42349 14.9494 3.34944C14.8951 3.28554 14.828 3.2185 14.7719 3.16237L14.7609 3.15147L12.4714 0.861929L11.5286 1.80474L13.0572 3.33333H3.33333C2.22876 3.33333 1.33333 4.22876 1.33333 5.33333V9.17157L2.66667 7.83824V5.33333C2.66667 4.96514 2.96514 4.66667 3.33333 4.66667ZM13.3333 10.6667V8.16176L14.6667 6.82843V10.6667C14.6667 11.7712 13.7712 12.6667 12.6667 12.6667H2.94282L4.4714 14.1953L3.52859 15.1381L1.23905 12.8485L1.22814 12.8376L1.22814 12.8376C1.17196 12.7815 1.10488 12.7145 1.05063 12.6506C0.98777 12.5765 0.904072 12.4641 0.853681 12.309C0.788423 12.1082 0.788423 11.8918 0.853681 11.691C0.904072 11.5359 0.987769 11.4235 1.05063 11.3494C1.10488 11.2855 1.17197 11.2185 1.22814 11.1624L1.23905 11.1515L3.52859 8.86193L4.4714 9.80474L2.9428 11.3333H12.6667C13.0349 11.3333 13.3333 11.0349 13.3333 10.6667Z" fill="#272727"/>
</svg>
