<svg width="16" height="16" viewBox="0 0 16 16" fill="none" xmlns="http://www.w3.org/2000/svg">
<path fill-rule="evenodd" clip-rule="evenodd" d="M6 4L6 6H13.3333H14V6.66667V12C14 13.8409 12.5076 15.3333 10.6667 15.3333H5.33334C3.49239 15.3333 2 13.841 2 12V6.66667V6H2.66667H4.66667L4.66667 4C4.66667 2.15905 6.15905 0.666667 8 0.666667C9.84095 0.666667 11.3333 2.15905 11.3333 4V4.33333H10V4C10 2.89543 9.10457 2 8 2C6.89543 2 6 2.89543 6 4ZM3.33333 7.33333V12C3.33333 13.1046 4.22877 14 5.33334 14H10.6667C11.7712 14 12.6667 13.1046 12.6667 12V7.33333H3.33333ZM8 11.6667C8.55228 11.6667 9 11.219 9 10.6667C9 10.1144 8.55228 9.66667 8 9.66667C7.44772 9.66667 7 10.1144 7 10.6667C7 11.219 7.44772 11.6667 8 11.6667Z" fill="#272727"/>
</svg>
