<svg width="24" height="24" viewBox="0 0 24 24" fill="none" xmlns="http://www.w3.org/2000/svg">
<path fill-rule="evenodd" clip-rule="evenodd" d="M9 6L9 9H20H21V10V18C21 20.7614 18.7614 23 16 23H8C5.23858 23 3 20.7614 3 18V10V9H4H7L7 6C7 3.23858 9.23858 1 12 1C14.7614 1 17 3.23858 17 6V6.5H15V6C15 4.34315 13.6569 3 12 3C10.3431 3 9 4.34315 9 6ZM5 11V18C5 19.6569 6.34315 21 8 21H16C17.6569 21 19 19.6569 19 18V11H5ZM12 17.5C12.8284 17.5 13.5 16.8284 13.5 16C13.5 15.1716 12.8284 14.5 12 14.5C11.1716 14.5 10.5 15.1716 10.5 16C10.5 16.8284 11.1716 17.5 12 17.5Z" fill="#272727"/>
</svg>
