<svg width="16" height="16" viewBox="0 0 16 16" fill="none" xmlns="http://www.w3.org/2000/svg">
<path fill-rule="evenodd" clip-rule="evenodd" d="M10.3334 4.33333C10.3334 5.622 9.2887 6.66667 8.00004 6.66667C6.71138 6.66667 5.66671 5.622 5.66671 4.33333C5.66671 3.04467 6.71138 2 8.00004 2C9.2887 2 10.3334 3.04467 10.3334 4.33333ZM11.6667 4.33333C11.6667 6.35838 10.0251 8 8.00004 8C5.975 8 4.33337 6.35838 4.33337 4.33333C4.33337 2.30829 5.975 0.666666 8.00004 0.666666C10.0251 0.666666 11.6667 2.30829 11.6667 4.33333ZM3.33336 15.3333C3.33336 13.7619 3.79591 12.4249 4.59075 11.4923C5.37619 10.5708 6.52149 10 8.00003 10C9.47685 10 10.6224 10.5747 11.4088 11.4995C12.2045 12.4355 12.6667 13.7731 12.6667 15.3333H14C14 13.5186 13.4622 11.8562 12.4246 10.6359C11.3776 9.40448 9.85655 8.66667 8.00003 8.66667C6.14524 8.66667 4.62387 9.39797 3.57598 10.6275C2.53748 11.8459 2.00003 13.5089 2.00003 15.3333H3.33336Z" fill="#272727"/>
</svg>
