<svg width="16" height="16" viewBox="0 0 16 16" fill="none" xmlns="http://www.w3.org/2000/svg">
<path fill-rule="evenodd" clip-rule="evenodd" d="M2.66667 1.99999C1.5621 1.99999 0.666672 2.89542 0.666672 3.99999V12C0.666672 13.1046 1.5621 14 2.66667 14H13.3333C14.4379 14 15.3333 13.1046 15.3333 12V3.99999C15.3333 2.89542 14.4379 1.99999 13.3333 1.99999H2.66667ZM2.00001 3.99999C2.00001 3.6318 2.29848 3.33332 2.66667 3.33332H13.3333C13.7015 3.33332 14 3.6318 14 3.99999V12C14 12.3682 13.7015 12.6667 13.3333 12.6667H2.66667C2.29848 12.6667 2.00001 12.3682 2.00001 12V3.99999ZM6.78055 11.0217L11.0352 8.89441C11.7722 8.52589 11.7722 7.47408 11.0352 7.10556L6.78055 4.97824C6.11565 4.64579 5.33334 5.12929 5.33334 5.87267V10.1273C5.33334 10.8707 6.11565 11.3542 6.78055 11.0217ZM6.66667 6.41201L9.84263 7.99999L6.66667 9.58796L6.66667 6.41201Z" fill="#272727"/>
</svg>
