<svg width="32" height="32" viewBox="0 0 32 32" fill="none" xmlns="http://www.w3.org/2000/svg">
<path d="M13.5 4.5H4.5C3.39543 4.5 2.5 5.39543 2.5 6.5V26.5C2.5 27.6046 3.39543 28.5 4.5 28.5H13.5C14.6046 28.5 15.5 27.6046 15.5 26.5V6.5C15.5 5.39543 14.6046 4.5 13.5 4.5Z" stroke="#272727" stroke-width="1.5"/>
<path d="M7 25.5H11" stroke="#272727" stroke-width="1.5"/>
<circle cx="9.11084" cy="8.00488" r="1.25" fill="#272727"/>
<path d="M19.0052 12.9948C19.3999 13.3894 19.7129 13.858 19.9265 14.3736C20.1401 14.8892 20.25 15.4419 20.25 16C20.25 16.5581 20.1401 17.1108 19.9265 17.6264C19.7129 18.142 19.3999 18.6106 19.0052 19.0052" stroke="#4C64E1" stroke-width="1.5"/>
<path d="M22.5407 9.45926C23.3997 10.3182 24.081 11.3379 24.5459 12.4602C25.0107 13.5824 25.25 14.7853 25.25 16C25.25 17.2147 25.0107 18.4176 24.5459 19.5398C24.081 20.6621 23.3997 21.6818 22.5407 22.5407" stroke="#4C64E1" stroke-width="1.5"/>
<path d="M26.0763 5.92373C27.3995 7.24696 28.4492 8.81787 29.1653 10.5468C29.8814 12.2756 30.25 14.1287 30.25 16C30.25 17.8713 29.8814 19.7243 29.1653 21.4532C28.4492 23.1821 27.3995 24.753 26.0763 26.0763" stroke="#4C64E1" stroke-width="1.5"/>
</svg>
