<svg width="16" height="16" viewBox="0 0 16 16" fill="none" xmlns="http://www.w3.org/2000/svg">
<path fill-rule="evenodd" clip-rule="evenodd" d="M6.22831 1.94552C6.97699 0.516207 9.02294 0.516206 9.77163 1.94552L14.9014 11.7387C15.5989 13.0703 14.633 14.6667 13.1297 14.6667H2.87023C1.36693 14.6667 0.401022 13.0703 1.09856 11.7387L6.22831 1.94552ZM8 9.33333C7.63181 9.33333 7.33333 9.03486 7.33333 8.66667L7.33333 5.33333H8.66667L8.66667 8.66667C8.66667 9.03486 8.36819 9.33333 8 9.33333ZM8 10.5C7.53976 10.5 7.16667 10.8731 7.16667 11.3333C7.16667 11.7936 7.53976 12.1667 8 12.1667C8.46023 12.1667 8.83333 11.7936 8.83333 11.3333C8.83333 10.8731 8.46023 10.5 8 10.5Z" fill="#272727"/>
</svg>
