<svg width="16" height="16" viewBox="0 0 16 16" fill="none" xmlns="http://www.w3.org/2000/svg">
<path fill-rule="evenodd" clip-rule="evenodd" d="M6.22833 1.94551C6.97702 0.516193 9.02297 0.51619 9.77166 1.94551L14.9014 11.7387C15.5989 13.0703 14.633 14.6667 13.1297 14.6667H2.87025C1.36696 14.6667 0.401047 13.0703 1.09859 11.7387L6.22833 1.94551ZM8.59055 2.56418C8.34099 2.08774 7.659 2.08774 7.40944 2.56418L2.2797 12.3573C2.04718 12.8012 2.36915 13.3333 2.87025 13.3333H13.1297C13.6308 13.3333 13.9528 12.8012 13.7203 12.3573L8.59055 2.56418ZM7.99999 10.5C7.53975 10.5 7.16666 10.8731 7.16666 11.3333C7.16666 11.7936 7.53975 12.1667 7.99999 12.1667C8.46023 12.1667 8.83333 11.7936 8.83333 11.3333C8.83333 10.8731 8.46023 10.5 7.99999 10.5ZM7.33333 8.66667C7.33333 9.03486 7.6318 9.33333 7.99999 9.33333C8.36818 9.33333 8.66666 9.03486 8.66666 8.66667L8.66666 5.33333H7.33333L7.33333 8.66667Z" fill="#272727"/>
</svg>
