<svg width="16" height="16" viewBox="0 0 16 16" fill="none" xmlns="http://www.w3.org/2000/svg">
<path fill-rule="evenodd" clip-rule="evenodd" d="M12.3333 1.33331C11.0447 1.33331 9.99999 2.37798 9.99999 3.66665C9.99999 4.95531 11.0447 5.99998 12.3333 5.99998C13.622 5.99998 14.6667 4.95531 14.6667 3.66665C14.6667 2.37798 13.622 1.33331 12.3333 1.33331ZM5.83333 3.66665C5.01339 3.66665 4.33333 4.34774 4.33333 5.33331V8.66665H2.99999V5.33331C2.99999 3.7203 4.1726 2.33331 5.83333 2.33331C7.49406 2.33331 8.66666 3.7203 8.66666 5.33331V10.6666C8.66666 11.6359 9.36212 12.3333 10.1667 12.3333C10.9532 12.3333 11.6667 11.6036 11.6667 10.6145V7.33331H13V10.6145C13 12.1915 11.8298 13.6666 10.1667 13.6666C8.52155 13.6666 7.33333 12.2635 7.33333 10.6666V5.33331C7.33333 4.34774 6.65326 3.66665 5.83333 3.66665ZM1.33333 12.3333C1.33333 11.0446 2.378 9.99998 3.66666 9.99998C4.95533 9.99998 5.99999 11.0446 5.99999 12.3333C5.99999 13.622 4.95533 14.6666 3.66666 14.6666C2.378 14.6666 1.33333 13.622 1.33333 12.3333Z" fill="#272727"/>
</svg>
