<svg width="32" height="32" viewBox="0 0 32 32" fill="none" xmlns="http://www.w3.org/2000/svg">
<path d="M32 21.6719H29.8899L26.0624 12.7477L22.3921 21.6838H20.2708L25.0859 10.2867H27.0726L32 21.6719ZM8.51912 13.6079C8.48544 11.6009 6.93651 10.2031 4.74781 10.2031H0.864258H0V21.6599H1.72852V11.8756H4.64679C5.62329 11.8756 6.67836 12.3893 6.68958 13.6198C6.70081 14.7189 5.89267 15.3999 4.52332 15.4596H4.50088L3.45703 15.4716L6.93651 21.6719H8.97931C8.97931 21.6719 7.30691 18.6733 6.25184 16.7977C7.78955 16.2123 8.53034 14.922 8.51912 13.6079ZM15.3434 14.9101C13.5251 14.3964 12.818 13.9543 12.818 13.0703C12.818 11.7323 14.4455 11.6009 15.0179 11.6009C15.9383 11.6009 17.0944 11.9115 17.779 12.2699L18.5198 10.8124C17.5882 10.3226 16.1627 10 14.973 10C12.4363 10 10.8537 11.1708 10.8537 13.1659C10.8537 15.4477 13.0873 16.0928 14.8271 16.5826C16.6342 17.0963 17.2739 17.6817 17.2739 18.5777C17.2739 20.0591 15.7924 20.2861 14.872 20.2861C13.6149 20.2861 12.571 19.9277 11.5609 19.2945L10.6966 20.7759C11.9761 21.5763 13.3006 21.9467 14.872 21.9467C17.4872 21.9467 19.2269 20.5728 19.2269 18.4463C19.2382 16.0689 17.1168 15.4118 15.3434 14.9101Z" fill="#BE3A34"/>
</svg>
