<svg width="24" height="24" viewBox="0 0 24 24" fill="none" xmlns="http://www.w3.org/2000/svg">
<path fill-rule="evenodd" clip-rule="evenodd" d="M6.2 2H6.16146H6.16142C5.63429 1.99998 5.17954 1.99997 4.80497 2.03057C4.40963 2.06287 4.01641 2.13419 3.63803 2.32698C3.07354 2.6146 2.6146 3.07354 2.32698 3.63803C2.13419 4.01641 2.06287 4.40963 2.03057 4.80497C1.99997 5.17954 1.99998 5.63429 2 6.16142V6.16146V6.2V15V16.7273L3.49793 15.8672L6.56667 14.1053H9V16.7053L9 16.7414C8.99998 17.1304 8.99996 17.4806 9.02376 17.7719C9.04925 18.0839 9.10694 18.4153 9.27249 18.7402C9.51217 19.2106 9.89462 19.5931 10.365 19.8328C10.6899 19.9983 11.0214 20.056 11.3334 20.0815C11.6247 20.1053 11.9748 20.1053 12.3639 20.1053L12.4 20.1053H17.4333L20.5021 21.8672L22 22.7273V21V11.4L22 11.3639C22 10.9748 22 10.6247 21.9762 10.3334C21.9508 10.0214 21.8931 9.68993 21.7275 9.36503C21.4878 8.89462 21.1054 8.51217 20.635 8.27249C20.3101 8.10694 19.9786 8.04925 19.6666 8.02376C19.3753 7.99996 19.0252 7.99998 18.6361 8L18.6 8H15V3V2H14H6.2ZM15 10C15 10.5033 14.9989 10.9391 14.9694 11.3003C14.9371 11.6956 14.8658 12.0889 14.673 12.4672C14.3854 13.0317 13.9265 13.4907 13.362 13.7783C12.9836 13.9711 12.5904 14.0424 12.195 14.0747C11.8593 14.1021 11.459 14.105 11 14.1052V16.7053C11 17.1418 11.0008 17.4091 11.0171 17.609C11.0247 17.7022 11.0343 17.7585 11.0423 17.7928C11.0462 17.809 11.0494 17.8191 11.0513 17.8245C11.0521 17.8266 11.0527 17.8283 11.0532 17.8295C11.0539 17.8312 11.0544 17.832 11.0545 17.8323C11.1024 17.9263 11.1789 18.0028 11.273 18.0508C11.2734 18.051 11.2756 18.0521 11.2808 18.0539C11.2862 18.0559 11.2962 18.0591 11.3125 18.0629C11.3467 18.071 11.4031 18.0805 11.4962 18.0882C11.6962 18.1045 11.9635 18.1053 12.4 18.1053H17.7H17.9667L18.1979 18.238L20 19.2727V11.4C20 10.9635 19.9992 10.6962 19.9829 10.4962C19.9753 10.4031 19.9657 10.3467 19.9577 10.3125C19.9538 10.2962 19.9506 10.2862 19.9487 10.2808C19.9468 10.2756 19.9457 10.2734 19.9455 10.273C19.8976 10.1789 19.8211 10.1024 19.727 10.0545C19.7266 10.0543 19.7244 10.0532 19.7192 10.0513C19.7138 10.0494 19.7038 10.0462 19.6875 10.0423C19.6533 10.0343 19.5969 10.0247 19.5038 10.0171C19.3038 10.0008 19.0365 10 18.6 10H15ZM4.54601 4.109C4.59546 4.0838 4.69617 4.04612 4.96784 4.02393C5.25117 4.00078 5.62345 4 6.2 4H13V9.90526C13 10.4818 12.9992 10.8541 12.9761 11.1374C12.9539 11.4091 12.9162 11.5098 12.891 11.5593C12.7951 11.7474 12.6422 11.9004 12.454 11.9963C12.4045 12.0215 12.3038 12.0591 12.0322 12.0813C11.7488 12.1045 11.3766 12.1053 10.8 12.1053H6.3H6.03334L5.80208 12.238L4 13.2727V6.2C4 5.62345 4.00078 5.25117 4.02393 4.96784C4.04612 4.69617 4.0838 4.59546 4.109 4.54601C4.20487 4.35785 4.35785 4.20487 4.54601 4.109Z" fill="#272727"/>
</svg>
