<svg width="24" height="24" viewBox="0 0 24 24" fill="none" xmlns="http://www.w3.org/2000/svg">
<path fill-rule="evenodd" clip-rule="evenodd" d="M2 2.99999H1V3.99999V20V21H2H8.66667C9.75977 21 10.6697 21.1988 11.3372 21.7494L11.3374 21.7495L11.3374 21.7495L11.3406 21.7522L11.3556 21.7643C11.3643 21.7713 11.3875 21.7896 11.418 21.8106L11.4211 21.8127C11.4591 21.8391 11.6696 21.9849 11.9784 21.9885C12.025 21.989 12.0713 21.9864 12.117 21.9806C12.4169 21.9484 12.6106 21.7894 12.6395 21.7656L12.6422 21.7635C12.6707 21.7406 12.6922 21.7208 12.7003 21.7134C12.7086 21.7058 12.7163 21.6984 12.7175 21.6972L12.7177 21.6971C13.2289 21.2094 14.081 21 15.2 21H22H23V20V3.99999V2.99999H22H14.0681C13.3353 2.99999 12.6317 3.28742 12.1086 3.80054C12.0582 3.84997 12.0093 3.90069 11.9621 3.95264C11.8881 3.87437 11.8105 3.79897 11.7295 3.7267C11.2045 3.25864 10.5257 2.99999 9.82243 2.99999H2ZM11 6.56177C11 6.04905 10.7811 5.56071 10.3985 5.2195C10.2399 5.07812 10.0349 4.99999 9.82243 4.99999H3V19H8.66667C9.41264 19 10.2204 19.0755 11 19.3314V6.56177ZM11 20.9621L10.9999 20.9683L10.9999 20.9716C10.9999 20.9722 10.9999 20.9725 10.9999 20.9724L11 20.9656V20.965V20.9621ZM13 20.9619C13 20.9693 13.0001 20.9705 13.0001 20.9673L13 20.9587V20.9619ZM13 19.2961C13.7364 19.0643 14.5088 19 15.2 19H21V4.99999H14.0681C13.859 4.99999 13.6582 5.08201 13.509 5.22841C13.1834 5.5477 13 5.98452 13 6.4405V6.56177V19.2961ZM9 11H5V8.99998H9V11ZM15 11H19V8.99998H15V11ZM19 15H15V13H19V15ZM5 15H9V13H5V15Z" fill="#1D1D21"/>
</svg>
