<svg width="32" height="32" viewBox="0 0 32 32" fill="none" xmlns="http://www.w3.org/2000/svg">
<path fill-rule="evenodd" clip-rule="evenodd" d="M29.4737 18.5263C30.8689 18.5263 32 17.3952 32 15.9999C32 14.6047 30.8689 13.4736 29.4737 13.4736H20.3758L24.9248 5.59458C25.6224 4.38626 25.2084 2.84119 24.0001 2.14357C22.7918 1.44595 21.2467 1.85995 20.5491 3.06827L11.6244 18.5263H29.4737Z" fill="#1A73E7"/>
<path fill-rule="evenodd" clip-rule="evenodd" d="M11.451 3.06827C10.7534 1.85995 9.20834 1.44595 8.00003 2.14357C6.79171 2.84119 6.37771 4.38626 7.07533 5.59458L11.6243 13.4737H14.5415L16 10.9474L11.451 3.06827Z" fill="#FABB04"/>
<path fill-rule="evenodd" clip-rule="evenodd" d="M14.5415 13.4736H2.52631C1.13107 13.4736 0 14.6047 0 15.9999C0 17.3952 1.13107 18.5263 2.52631 18.5263H11.6243L14.5415 13.4736Z" fill="#34A753"/>
<path fill-rule="evenodd" clip-rule="evenodd" d="M11.6244 18.5262L7.07546 26.4053C6.37783 27.6136 6.79183 29.1587 8.00015 29.8563C9.20847 30.5539 10.7535 30.1399 11.4512 28.9316L16.0001 21.0526L20.549 28.9316C21.2467 30.1399 22.7917 30.5539 24 29.8563C25.2084 29.1587 25.6224 27.6136 24.9247 26.4053L20.3758 18.5262H11.6244Z" fill="#E94335"/>
<path fill-rule="evenodd" clip-rule="evenodd" d="M16 10.9474L20.3757 18.5262H11.6244L16 10.9474Z" fill="#174EA5"/>
</svg>
