<svg width="24" height="24" viewBox="0 0 24 24" fill="none" xmlns="http://www.w3.org/2000/svg">
<path fill-rule="evenodd" clip-rule="evenodd" d="M12 1C7.54425 1 4.03051 4.55629 3.63664 8.89901C3.33876 12.1834 2.84314 15.1567 2.04573 17.7009L1.63858 19H2.99996H7.09699C7.55145 21.3016 9.55085 23 12 23C14.4491 23 16.4485 21.3016 16.9029 19H21H22.3614L21.9543 17.7009C21.1568 15.1567 20.6612 12.1834 20.3633 8.899C19.9694 4.55628 16.4557 1 12 1ZM14.8367 19H9.16323C9.56463 20.1787 10.6648 21 12 21C13.3351 21 14.4353 20.1787 14.8367 19ZM5.62847 9.07966C5.9376 5.67114 8.67261 3 12 3C15.3273 3 18.0623 5.67114 18.3715 9.07966C18.6291 11.9202 19.0358 14.5929 19.6716 17H4.32833C4.96422 14.5929 5.37084 11.9202 5.62847 9.07966Z" fill="#1D1D21"/>
</svg>
