<svg width="24" height="24" viewBox="0 0 24 24" fill="none" xmlns="http://www.w3.org/2000/svg">
<path fill-rule="evenodd" clip-rule="evenodd" d="M4.75599 12C4.75599 10.7492 4.29225 9.63317 3.59552 8.77226C3.89617 7.99005 4.30333 7.25971 4.79981 6.59911C5.94893 6.79586 7.21549 6.6411 8.3528 6.00624C9.55956 5.33261 10.3775 4.2525 10.7667 3.08356C11.1692 3.02851 11.5809 3 12 3C12.419 3 12.8307 3.02851 13.2332 3.08355C13.6224 4.2525 14.4403 5.33261 15.6471 6.00624C16.7844 6.64111 18.051 6.79587 19.2001 6.59911C19.6966 7.25969 20.1038 7.99003 20.4044 8.77223C19.7077 9.63315 19.2439 10.7491 19.2439 12C19.2439 13.2509 19.7077 14.3669 20.4044 15.2278C20.1038 16.01 19.6966 16.7403 19.2001 17.4009C18.051 17.2041 16.7844 17.3589 15.6471 17.9938L16.4872 19.4987L15.6471 17.9938C14.4403 18.6674 13.6224 19.7475 13.2332 20.9164C12.8307 20.9715 12.4191 21 12 21C11.5809 21 11.1693 20.9715 10.7667 20.9164C10.3775 19.7475 9.5596 18.6674 8.35284 17.9938C7.21552 17.3589 5.94895 17.2041 4.79982 17.4009C4.30333 16.7403 3.89617 16.01 3.59552 15.2277C4.29225 14.3668 4.75599 13.2508 4.75599 12ZM1.31732 9.36607C1.79504 7.42199 2.78958 5.6811 4.14695 4.2974C5.05711 4.77609 6.32324 4.84866 7.37797 4.2599C8.49154 3.63829 9.06264 2.45077 9.0264 1.40663C9.97222 1.14168 10.9695 1 12 1C13.0304 1 14.0277 1.14168 14.9735 1.40661C14.9372 2.45076 15.5083 3.63828 16.6219 4.2599C17.6766 4.84867 18.9428 4.77609 19.853 4.29737C21.2103 5.68108 22.2049 7.42197 22.6826 9.36605C21.8677 9.91103 21.2439 10.8869 21.2439 12C21.2439 13.1131 21.8677 14.089 22.6826 14.634C22.2049 16.578 21.2103 18.3189 19.853 19.7026C18.9428 19.2239 17.6767 19.1513 16.6219 19.7401C15.5084 20.3617 14.9373 21.5492 14.9735 22.5934C14.0277 22.8583 13.0304 23 12 23C10.9696 23 9.97224 22.8583 9.02643 22.5934C9.06268 21.5492 8.49158 20.3617 7.37801 19.7401C6.32327 19.1513 5.05713 19.2239 4.14696 19.7026C2.78959 18.3189 1.79504 16.578 1.31732 14.6339C2.13219 14.0889 2.75599 13.1131 2.75599 12C2.75599 10.8869 2.13219 9.91105 1.31732 9.36607ZM10 12C10 10.8954 10.8954 10 12 10C13.1046 10 14 10.8954 14 12C14 13.1046 13.1046 14 12 14C10.8954 14 10 13.1046 10 12ZM12 8C9.79086 8 8 9.79086 8 12C8 14.2091 9.79086 16 12 16C14.2091 16 16 14.2091 16 12C16 9.79086 14.2091 8 12 8Z" fill="#1D1D21"/>
</svg>
