<svg width="32" height="32" viewBox="0 0 32 32" fill="none" xmlns="http://www.w3.org/2000/svg">
<path d="M10.5 22V12C10.5 10.8954 11.3954 10 12.5 10H27.5C28.6046 10 29.5 10.8954 29.5 12V29L25.0858 24.5858C24.7107 24.2107 24.202 24 23.6716 24H12.5C11.3954 24 10.5 23.1046 10.5 22Z" stroke="#4C64E1" stroke-width="1.5"/>
<path d="M10.5 22V12C10.5 10.8954 11.3954 10 12.5 10H27.5C28.6046 10 29.5 10.8954 29.5 12V29L25.0858 24.5858C24.7107 24.2107 24.202 24 23.6716 24H12.5C11.3954 24 10.5 23.1046 10.5 22Z" stroke="#4C64E1" stroke-width="1.5"/>
<path d="M14 19H26M26 15H14" stroke="#272727" stroke-width="1.5"/>
<path d="M14 19H26M26 15H14" stroke="#272727" stroke-width="1.5"/>
<path d="M8.08978 15H6.5L2.5 19V5C2.5 3.89543 3.39543 3 4.5 3H17.5C18.6046 3 19.5 3.895 19.5 4.99957C19.5 5.85986 19.5 6.87837 19.5 7.80292" stroke="#272727" stroke-width="1.5"/>
</svg>
