<svg width="32" height="32" viewBox="0 0 32 32" fill="none" xmlns="http://www.w3.org/2000/svg">
<path d="M30.9828 0V0.984615H32V0H30.9828ZM30.9828 1.96923V2.95385H32V1.96923H30.9828ZM27.9312 2.95385V3.93846H28.9484V2.95385H27.9312ZM14.622 3.69165C6.54539 3.69165 0 10.0273 0 17.8452C0 25.663 6.54539 32 14.622 32C22.6987 32 29.244 25.6643 29.244 17.8452C29.244 10.026 22.6987 3.69165 14.6234 3.69165H14.622ZM14.622 8.20513C20.1177 8.20513 24.5825 12.5256 24.5825 17.8452C24.5825 23.1647 20.1177 27.4865 14.622 27.4865C9.12639 27.4865 4.70493 23.1647 4.70493 17.8452C4.70493 12.5256 9.12639 8.20513 14.622 8.20513Z" fill="#FDB511"/>
<path d="M29.9657 0.984497V1.96911H30.9829V0.984497H29.9657ZM29.9657 1.96911H27.9313V2.95372H29.9657V1.96911ZM27.9313 2.95372H26.9141V4.92295H27.9313V2.95372ZM27.9313 4.92295V5.90756H28.9485V4.92295H27.9313ZM28.9485 4.92295H29.9657V3.93833H28.9485V4.92295ZM27.9313 5.90756H26.9141V6.89217H25.8969V5.90756H23.8625V6.89217H22.8453V7.87678H23.8625V8.86139H22.8453V7.87678H21.8281V8.86139H20.8109V9.84601H19.7937V13.7845H21.8281V12.7998H22.8453V11.8152H23.8625V10.8306H22.8453V9.84601H23.8625V10.8306H24.8797V9.84601H25.8969V8.86139H26.9141V7.87678H27.9313V5.90756ZM25.8969 5.90756H26.9141V4.92295H25.8969V5.90756ZM25.8969 4.92295V3.93833H24.8797V4.92295H25.8969Z" fill="black"/>
<path d="M14.3945 18.0499C15.4523 15.4518 16.121 14.0418 18.7766 10.8306L20.811 10.8293V14.7678C17.9832 17.3751 17.3823 19.5452 16.9185 21.6444C16.6323 22.9244 16.6323 23.6635 15.1323 23.8355C14.8515 23.8355 14.1191 23.5965 13.8167 23.0557C13.4369 22.3743 12.3085 19.7605 11.4011 18.1733C10.6281 16.8198 9.51185 15.717 8.51906 14.5223C8.14066 14.0668 7.94671 13.6795 8.26408 13.2502C8.58145 12.8209 8.81202 12.8878 9.28129 13.0047C11.7619 14.0786 13.1941 15.6999 14.3945 18.0499Z" fill="black"/>
</svg>
