<svg width="16" height="16" viewBox="0 0 16 16" fill="none" xmlns="http://www.w3.org/2000/svg">
<path fill-rule="evenodd" clip-rule="evenodd" d="M7.73532 14.6506C7.4241 14.6913 7.1189 14.5288 6.98069 14.2436L4.55976 9.24749L3.19225 9.24745C2.16027 9.24743 1.32413 8.41004 1.32563 7.37807L1.33151 3.34029C1.33311 2.23683 2.22811 1.34317 3.33156 1.3432L4.96138 1.34324L5.62803 1.34326V1.34789H12.0939C12.9127 1.34789 13.6102 1.94255 13.7396 2.75097L14.6522 8.44831C14.8208 9.50154 14.0073 10.4558 12.9406 10.4558H10.0392V11.9782C10.0392 12.3899 9.95332 12.9826 9.61326 13.5192C9.25517 14.0843 8.64868 14.5311 7.73532 14.6506ZM5.63196 8.40258L7.96968 13.2269C8.23198 13.1223 8.38652 12.9641 8.48702 12.8055C8.64922 12.5495 8.70591 12.2307 8.70591 11.9782V9.78911V9.12244H9.37258H12.9406C13.1868 9.12244 13.3745 8.90223 13.3356 8.65918L12.4231 2.96184C12.3972 2.80015 12.2577 2.68122 12.0939 2.68122H5.63196V8.40258ZM3.19228 7.91412L4.29465 7.91415L4.29469 2.67656L3.33152 2.67653C2.9637 2.67652 2.66537 2.97441 2.66484 3.34223L2.65896 7.38001C2.65854 7.67486 2.89743 7.91411 3.19228 7.91412Z" fill="#272727"/>
</svg>
