<svg width="36" height="36" viewBox="0 0 36 36" fill="none" xmlns="http://www.w3.org/2000/svg">
<path d="M25.4698 19.3328H21.0096C20.0417 19.3328 19.2575 20.117 19.2575 21.0849V25.4569C19.2575 26.4247 20.0417 27.2089 21.0096 27.2089H25.4698C26.4377 27.2089 27.2219 26.4247 27.2219 25.4569V21.0849C27.2219 20.117 26.4377 19.3328 25.4698 19.3328Z" fill="#C1C9F6"/>
<path d="M15.4931 19.3328H11.0328C10.065 19.3328 9.28076 20.117 9.28076 21.0849V25.4569C9.28076 26.4247 10.065 27.2089 11.0328 27.2089H15.4931C16.461 27.2089 17.2452 26.4247 17.2452 25.4569V21.0849C17.2452 20.117 16.461 19.3328 15.4931 19.3328Z" fill="#C1C9F6"/>
<path d="M15.4931 9.35611H11.0328C10.065 9.35611 9.28076 10.1403 9.28076 11.1082V15.4801C9.28076 16.448 10.065 17.2322 11.0328 17.2322H15.4931C16.461 17.2322 17.2452 16.448 17.2452 15.4801V11.1082C17.2452 10.1403 16.461 9.35611 15.4931 9.35611Z" fill="#C1C9F6"/>
<path d="M20.2607 12.2986H26.2952C26.8404 12.2986 27.2808 12.7402 27.2808 13.2842C27.2808 13.8293 26.8392 14.2697 26.2952 14.2697H20.2607C19.7155 14.2697 19.2751 13.8281 19.2751 13.2842C19.2751 12.7402 19.7155 12.2986 20.2607 12.2986Z" fill="#3F59E4"/>
<path d="M22.2918 16.302V10.2663C22.2918 9.72114 22.7334 9.28076 23.2774 9.28076C23.8225 9.28076 24.2629 9.72231 24.2629 10.2663V16.3008C24.2629 16.846 23.8214 17.2864 23.2774 17.2864C22.7334 17.2876 22.2918 16.846 22.2918 16.302Z" fill="#3F59E4"/>
</svg>
