<svg width="958" height="346" viewBox="0 0 958 346" fill="none" xmlns="http://www.w3.org/2000/svg">
<rect width="958" height="346" fill="white"/>
<rect x="220" y="114" width="518" height="117" rx="4" fill="#FFDFE2"/>
<path fill-rule="evenodd" clip-rule="evenodd" d="M246.216 128.468L234.468 140.215C234.035 140.649 234.035 141.351 234.468 141.785L246.216 153.532C246.649 153.965 247.352 153.965 247.785 153.532L259.532 141.785C259.966 141.351 259.966 140.649 259.532 140.215L247.785 128.468C247.352 128.034 246.649 128.034 246.216 128.468ZM244.857 132.429H249.143V143.143H244.857V132.429ZM249.143 147.429C249.143 148.612 248.184 149.571 247 149.571C245.817 149.571 244.857 148.612 244.857 147.429C244.857 146.245 245.817 145.286 247 145.286C248.184 145.286 249.143 146.245 249.143 147.429Z" fill="#1D1D21"/>
<path d="M278.554 148H280.894V137.398H285.34V135.4H274.18V137.398H278.554V148ZM288.783 148.27C291.393 148.27 293.301 146.362 293.301 143.518C293.301 140.71 291.411 138.766 288.783 138.766C286.155 138.766 284.265 140.71 284.265 143.518C284.265 146.254 286.173 148.27 288.783 148.27ZM288.783 146.488C287.451 146.488 286.533 145.552 286.533 143.554C286.533 141.556 287.451 140.548 288.783 140.548C290.115 140.548 291.015 141.556 291.015 143.554C291.015 145.552 290.115 146.488 288.783 146.488ZM299.224 148.27C301.834 148.27 303.742 146.362 303.742 143.518C303.742 140.71 301.852 138.766 299.224 138.766C296.596 138.766 294.706 140.71 294.706 143.518C294.706 146.254 296.614 148.27 299.224 148.27ZM299.224 146.488C297.892 146.488 296.974 145.552 296.974 143.554C296.974 141.556 297.892 140.548 299.224 140.548C300.556 140.548 301.456 141.556 301.456 143.554C301.456 145.552 300.556 146.488 299.224 146.488ZM310.172 148H312.368V143.572C312.368 142.528 312.44 140.62 314.258 140.62C315.212 140.62 315.86 141.142 315.86 142.528V148H318.02V143.572C318.02 142.528 318.056 140.62 319.892 140.62C320.864 140.62 321.494 141.142 321.494 142.528V148H323.69V142.024C323.69 139.774 322.466 138.766 320.666 138.766C319.244 138.766 318.308 139.432 317.66 140.458C317.156 139.432 316.256 138.766 314.996 138.766C313.718 138.766 312.8 139.45 312.314 140.35V139.036H310.172V148ZM328.578 148.27C330.09 148.27 331.044 147.514 331.584 146.668C331.692 147.46 332.088 148 333.222 148H334.914V146.272H334.068C333.6 146.272 333.528 146.164 333.528 145.732V142.114C333.528 139.918 332.178 138.766 329.712 138.766C327.192 138.766 325.788 140.08 325.572 141.412L327.606 141.934C327.822 141.142 328.38 140.44 329.712 140.44C330.864 140.44 331.368 140.962 331.368 141.844V142.15C328.398 142.42 325.716 143.194 325.716 145.696C325.716 147.28 326.904 148.27 328.578 148.27ZM329.298 146.614C328.398 146.614 327.948 146.164 327.948 145.48C327.948 144.202 329.514 143.806 331.368 143.59V144.31C331.368 145.912 330.36 146.614 329.298 146.614ZM336.346 148H338.542V143.914C338.542 142.816 338.578 140.602 340.594 140.602C341.584 140.602 342.214 141.178 342.214 142.528V148H344.41V142.042C344.41 140.08 343.528 138.766 341.386 138.766C339.64 138.766 338.776 139.936 338.488 140.458V139.036H336.346V148ZM352.67 139.036L351.428 142.87L350.636 145.282C350.474 144.904 350.258 144.454 349.61 142.888L347.954 139.036H345.578L349.754 147.928L349.484 148.738C349.214 149.476 348.908 149.692 348.296 149.692H346.172V151.51H348.512C350.078 151.51 350.798 150.88 351.32 149.35L354.974 139.036H352.67ZM364.003 148.252C366.505 148.252 367.963 147.118 367.963 145.372C367.963 143.536 366.307 142.852 364.885 142.582L363.733 142.348C362.653 142.15 362.365 141.862 362.365 141.358C362.365 140.818 362.851 140.35 363.841 140.35C364.957 140.35 365.551 141.034 365.803 141.718L367.657 140.926C367.279 139.918 366.163 138.766 363.913 138.766C361.753 138.766 360.277 139.882 360.277 141.556C360.277 143.302 361.429 143.896 363.175 144.238L364.363 144.472C365.425 144.688 365.695 145.084 365.695 145.588C365.695 146.218 365.137 146.632 364.093 146.632C362.473 146.632 362.041 145.534 361.933 145.03L359.899 145.678C360.295 147.316 361.987 148.252 364.003 148.252ZM369.83 137.614H372.17V135.382H369.83V137.614ZM369.92 148H372.098V139.036H369.92V148ZM376.5 151.51H380.658C382.332 151.51 383.682 150.61 383.682 148.846C383.682 147.37 382.494 146.218 380.658 146.218H376.77C376.212 146.218 375.924 146.092 375.924 145.732C375.924 145.444 376.158 145.192 376.662 145.012C377.184 145.282 377.796 145.336 378.444 145.336C380.514 145.336 382.008 144.112 382.188 142.132L382.224 141.862C382.314 140.89 382.512 140.746 383.16 140.746H384.042V139.036H383.268C382.17 139.036 381.81 139.468 381.72 140.476C381.198 139.558 380.028 138.766 378.39 138.766C376.194 138.766 374.61 140.152 374.61 142.114C374.61 143.068 375.024 143.878 375.6 144.346C374.916 144.76 374.214 145.39 374.214 146.29C374.214 147.064 374.52 147.514 375.042 147.856C374.502 148.198 373.926 148.846 373.926 149.674C373.926 150.79 374.664 151.51 376.5 151.51ZM378.444 143.806C377.4 143.806 376.716 143.122 376.716 142.096C376.716 141.07 377.4 140.332 378.444 140.332C379.488 140.332 380.172 141.07 380.172 142.096C380.172 143.122 379.488 143.806 378.444 143.806ZM376.788 149.836C376.14 149.836 375.69 149.584 375.69 148.954C375.69 148.504 375.996 148.144 376.248 148H380.28C381.072 148 381.504 148.306 381.504 148.9C381.504 149.548 381.072 149.836 380.28 149.836H376.788ZM385.635 148H387.831V143.914C387.831 142.816 387.867 140.602 389.883 140.602C390.873 140.602 391.503 141.178 391.503 142.528V148H393.699V142.042C393.699 140.08 392.817 138.766 390.675 138.766C388.929 138.766 388.065 139.936 387.777 140.458V139.036H385.635V148ZM400.574 137.614H402.914V135.382H400.574V137.614ZM400.664 148H402.842V139.036H400.664V148ZM405.48 148H407.676V143.914C407.676 142.816 407.712 140.602 409.728 140.602C410.718 140.602 411.348 141.178 411.348 142.528V148H413.544V142.042C413.544 140.08 412.662 138.766 410.52 138.766C408.774 138.766 407.91 139.936 407.622 140.458V139.036H405.48V148ZM422.832 148.27C424.344 148.27 425.298 147.514 425.838 146.668C425.946 147.46 426.342 148 427.476 148H429.168V146.272H428.322C427.854 146.272 427.782 146.164 427.782 145.732V142.114C427.782 139.918 426.432 138.766 423.966 138.766C421.446 138.766 420.042 140.08 419.826 141.412L421.86 141.934C422.076 141.142 422.634 140.44 423.966 140.44C425.118 140.44 425.622 140.962 425.622 141.844V142.15C422.652 142.42 419.97 143.194 419.97 145.696C419.97 147.28 421.158 148.27 422.832 148.27ZM423.552 146.614C422.652 146.614 422.202 146.164 422.202 145.48C422.202 144.202 423.768 143.806 425.622 143.59V144.31C425.622 145.912 424.614 146.614 423.552 146.614ZM433.627 148H436.291V146.2H434.383C433.807 146.2 433.555 145.948 433.555 145.372V140.746H435.931V139.036H433.555V136.21H431.359V139.036H429.415V140.746H431.359V145.714C431.359 147.136 432.169 148 433.627 148ZM441.203 148H443.867V146.2H441.959C441.383 146.2 441.131 145.948 441.131 145.372V140.746H443.507V139.036H441.131V136.21H438.935V139.036H436.991V140.746H438.935V145.714C438.935 147.136 439.745 148 441.203 148ZM449.268 148.27C451.626 148.27 452.886 147.046 453.462 145.66L451.482 144.922C451.158 145.678 450.564 146.542 449.286 146.542C448.134 146.542 447.162 145.876 447.072 144.058H453.408C453.696 141.088 452.094 138.766 449.232 138.766C446.748 138.766 444.894 140.656 444.894 143.518C444.894 146.506 446.622 148.27 449.268 148.27ZM447.144 142.438C447.306 141.142 448.152 140.404 449.232 140.404C450.366 140.404 451.158 141.124 451.23 142.438H447.144ZM455.525 148H457.721V143.572C457.721 142.528 457.793 140.62 459.611 140.62C460.565 140.62 461.213 141.142 461.213 142.528V148H463.373V143.572C463.373 142.528 463.409 140.62 465.245 140.62C466.217 140.62 466.847 141.142 466.847 142.528V148H469.043V142.024C469.043 139.774 467.819 138.766 466.019 138.766C464.597 138.766 463.661 139.432 463.013 140.458C462.509 139.432 461.609 138.766 460.349 138.766C459.071 138.766 458.153 139.45 457.667 140.35V139.036H455.525V148ZM471.609 151.51H473.805V148.36V146.722C474.219 147.424 475.155 148.27 476.685 148.27C478.971 148.27 480.501 146.38 480.501 143.518C480.501 140.638 478.971 138.748 476.685 138.748C475.137 138.748 474.165 139.648 473.751 140.296V139.036H471.609V151.51ZM475.965 146.542C474.633 146.542 473.697 145.534 473.697 143.5C473.697 141.484 474.633 140.476 475.965 140.476C477.243 140.476 478.215 141.268 478.215 143.5C478.215 145.75 477.243 146.542 475.965 146.542ZM485.623 148H488.287V146.2H486.379C485.803 146.2 485.551 145.948 485.551 145.372V140.746H487.927V139.036H485.551V136.21H483.355V139.036H481.411V140.746H483.355V145.714C483.355 147.136 484.165 148 485.623 148ZM493.343 148.252C495.845 148.252 497.303 147.118 497.303 145.372C497.303 143.536 495.647 142.852 494.225 142.582L493.073 142.348C491.993 142.15 491.705 141.862 491.705 141.358C491.705 140.818 492.191 140.35 493.181 140.35C494.297 140.35 494.891 141.034 495.143 141.718L496.997 140.926C496.619 139.918 495.503 138.766 493.253 138.766C491.093 138.766 489.617 139.882 489.617 141.556C489.617 143.302 490.769 143.896 492.515 144.238L493.703 144.472C494.765 144.688 495.035 145.084 495.035 145.588C495.035 146.218 494.477 146.632 493.433 146.632C491.813 146.632 491.381 145.534 491.273 145.03L489.239 145.678C489.635 147.316 491.327 148.252 493.343 148.252Z" fill="#1D1D21"/>
<path d="M278.95 179H280.75V173.654L285.178 166.4H283.036L280.912 170.162C280.48 170.9 280.066 171.638 279.868 171.962C279.688 171.638 279.256 170.918 278.806 170.162L276.538 166.4H274.378L278.95 173.726V179ZM289.042 179.252C291.436 179.252 293.272 177.272 293.272 174.554C293.272 171.836 291.508 169.82 289.042 169.82C286.576 169.82 284.794 171.836 284.794 174.554C284.794 177.236 286.63 179.252 289.042 179.252ZM289.042 177.794C287.566 177.794 286.558 176.75 286.558 174.572C286.558 172.376 287.566 171.278 289.042 171.278C290.5 171.278 291.508 172.376 291.508 174.572C291.508 176.75 290.5 177.794 289.042 177.794ZM298.323 179.252C300.159 179.252 301.005 177.992 301.293 177.47V179H302.949V170.072H301.257V173.96C301.257 175.346 301.149 177.776 298.917 177.776C297.801 177.776 297.081 177.128 297.081 175.526V170.072H295.389V175.922C295.389 177.902 296.289 179.252 298.323 179.252ZM305.58 171.008H306.606L307.938 168.614V166.382H305.76V168.614H306.912L305.58 171.008ZM312.296 179H314.402L317.336 170.072H315.608L314.132 174.968C313.808 176.03 313.502 177.038 313.358 177.47C313.232 177.056 312.926 176.048 312.584 174.968L311.036 170.072H309.254L312.296 179ZM322.649 179.252C324.503 179.252 325.925 178.388 326.573 176.678L325.025 176.12C324.773 176.75 324.143 177.83 322.703 177.83C321.479 177.83 320.291 177.11 320.219 174.968H326.501C326.825 172.052 325.241 169.82 322.577 169.82C320.255 169.82 318.527 171.656 318.527 174.572C318.527 177.578 320.165 179.252 322.649 179.252ZM320.255 173.618C320.399 172.07 321.425 171.17 322.577 171.17C323.765 171.17 324.773 172.016 324.791 173.618H320.255ZM336.472 179.252C338.038 179.252 338.92 178.388 339.352 177.65V179H341.008V170.072H339.316V171.44C338.884 170.702 338.02 169.82 336.472 169.82C334.366 169.82 332.8 171.62 332.8 174.554C332.8 177.47 334.366 179.252 336.472 179.252ZM336.94 177.812C335.572 177.812 334.546 176.984 334.546 174.554C334.546 172.142 335.572 171.26 336.94 171.26C338.38 171.26 339.406 172.358 339.406 174.554C339.406 176.75 338.38 177.812 336.94 177.812ZM347.074 179H349.27V177.542H347.398C346.786 177.542 346.516 177.272 346.516 176.66V171.476H348.928V170.072H346.516V167.282H344.824V170.072H342.79V171.476H344.824V176.804C344.824 178.28 345.598 179 347.074 179ZM354.299 179H356.495V177.542H354.623C354.011 177.542 353.741 177.272 353.741 176.66V171.476H356.153V170.072H353.741V167.282H352.049V170.072H350.015V171.476H352.049V176.804C352.049 178.28 352.823 179 354.299 179ZM361.778 179.252C363.632 179.252 365.054 178.388 365.702 176.678L364.154 176.12C363.902 176.75 363.272 177.83 361.832 177.83C360.608 177.83 359.42 177.11 359.348 174.968H365.63C365.954 172.052 364.37 169.82 361.706 169.82C359.384 169.82 357.656 171.656 357.656 174.572C357.656 177.578 359.294 179.252 361.778 179.252ZM359.384 173.618C359.528 172.07 360.554 171.17 361.706 171.17C362.894 171.17 363.902 172.016 363.92 173.618H359.384ZM368.007 179H369.699V174.788C369.699 173.564 369.789 171.314 371.877 171.314C373.011 171.314 373.767 171.908 373.767 173.546V179H375.423V174.788C375.423 173.564 375.477 171.314 377.619 171.314C378.753 171.314 379.491 171.908 379.491 173.546V179H381.201V173.078C381.201 170.954 380.085 169.82 378.105 169.82C376.323 169.82 375.495 170.864 375.117 171.674C374.649 170.522 373.641 169.82 372.345 169.82C370.815 169.82 370.023 170.756 369.645 171.422V170.072H368.007V179ZM384.003 182.51H385.695V179.36V177.65C386.127 178.388 386.973 179.252 388.539 179.252C390.645 179.252 392.193 177.452 392.193 174.536C392.193 171.602 390.645 169.82 388.539 169.82C386.973 169.82 386.073 170.684 385.641 171.422V170.072H384.003V182.51ZM388.053 177.812C386.631 177.812 385.605 176.714 385.605 174.518C385.605 172.322 386.631 171.26 388.053 171.26C389.439 171.26 390.447 172.088 390.447 174.518C390.447 176.93 389.439 177.812 388.053 177.812ZM397.541 179H399.737V177.542H397.865C397.253 177.542 396.983 177.272 396.983 176.66V171.476H399.395V170.072H396.983V167.282H395.291V170.072H393.257V171.476H395.291V176.804C395.291 178.28 396.065 179 397.541 179ZM405.02 179.252C406.874 179.252 408.296 178.388 408.944 176.678L407.396 176.12C407.144 176.75 406.514 177.83 405.074 177.83C403.85 177.83 402.662 177.11 402.59 174.968H408.872C409.196 172.052 407.612 169.82 404.948 169.82C402.626 169.82 400.898 171.656 400.898 174.572C400.898 177.578 402.536 179.252 405.02 179.252ZM402.626 173.618C402.77 172.07 403.796 171.17 404.948 171.17C406.136 171.17 407.144 172.016 407.162 173.618H402.626ZM414.255 179.252C415.821 179.252 416.703 178.388 417.135 177.65V179H418.791V166.4H417.099V169.712V171.44C416.667 170.702 415.803 169.82 414.255 169.82C412.149 169.82 410.583 171.62 410.583 174.554C410.583 177.47 412.149 179.252 414.255 179.252ZM414.723 177.812C413.355 177.812 412.329 176.984 412.329 174.554C412.329 172.142 413.355 171.26 414.723 171.26C416.163 171.26 417.189 172.358 417.189 174.554C417.189 176.75 416.163 177.812 414.723 177.812ZM429.182 179H431.378V177.542H429.506C428.894 177.542 428.624 177.272 428.624 176.66V171.476H431.036V170.072H428.624V167.282H426.932V170.072H424.898V171.476H426.932V176.804C426.932 178.28 427.706 179 429.182 179ZM436.751 179.252C439.145 179.252 440.981 177.272 440.981 174.554C440.981 171.836 439.217 169.82 436.751 169.82C434.285 169.82 432.503 171.836 432.503 174.554C432.503 177.236 434.339 179.252 436.751 179.252ZM436.751 177.794C435.275 177.794 434.267 176.75 434.267 174.572C434.267 172.376 435.275 171.278 436.751 171.278C438.209 171.278 439.217 172.376 439.217 174.572C439.217 176.75 438.209 177.794 436.751 177.794ZM450.89 179.252C453.194 179.252 454.526 178.172 454.526 176.48C454.526 174.5 452.546 173.924 451.52 173.708L450.458 173.51C449.216 173.276 448.946 172.934 448.946 172.358C448.946 171.728 449.486 171.17 450.674 171.17C452.078 171.17 452.618 172.052 452.834 172.664L454.328 172.088C453.968 170.954 452.906 169.82 450.692 169.82C448.838 169.82 447.326 170.918 447.326 172.52C447.326 174.23 448.604 174.806 450.134 175.112L451.214 175.31C452.438 175.544 452.816 175.994 452.816 176.624C452.816 177.416 452.15 177.866 450.908 177.866C449.45 177.866 448.802 177.092 448.568 176.174L446.966 176.696C447.344 178.388 449.018 179.252 450.89 179.252ZM456.67 168.416H458.47V166.4H456.67V168.416ZM456.724 179H458.434V170.072H456.724V179ZM462.877 182.51H467.035C468.583 182.51 469.879 181.682 469.879 180.008C469.879 178.514 468.745 177.506 466.999 177.506H463.129C462.517 177.506 462.337 177.218 462.337 176.93C462.337 176.606 462.643 176.282 463.129 176.084C463.633 176.354 464.209 176.426 464.821 176.426C466.819 176.426 468.205 175.13 468.367 173.114L468.403 172.682C468.475 171.656 468.763 171.476 469.519 171.476H470.257V170.072H469.339C468.421 170.072 468.025 170.63 467.863 171.404C467.449 170.702 466.459 169.82 464.803 169.82C462.715 169.82 461.203 171.26 461.203 173.15C461.203 174.212 461.671 175.022 462.193 175.49C461.581 175.886 460.861 176.498 460.861 177.38C460.861 178.1 461.149 178.532 461.653 178.838C461.131 179.162 460.501 179.81 460.501 180.71C460.501 181.754 461.131 182.51 462.877 182.51ZM464.821 175.094C463.651 175.094 462.895 174.32 462.895 173.132C462.895 171.962 463.651 171.152 464.821 171.152C465.991 171.152 466.747 171.962 466.747 173.132C466.747 174.32 465.991 175.094 464.821 175.094ZM463.345 181.07C462.481 181.07 461.995 180.854 461.995 180.134C461.995 179.576 462.355 179.18 462.643 179H466.819C467.539 179 468.169 179.18 468.169 180.026C468.169 180.872 467.539 181.07 466.819 181.07H463.345ZM472.017 179H473.709V175.148C473.709 173.888 473.745 171.296 476.085 171.296C477.237 171.296 477.975 171.944 477.975 173.546V179H479.667V173.15C479.667 171.17 478.767 169.82 476.571 169.82C474.699 169.82 473.835 171.134 473.655 171.566V170.072H472.017V179ZM487.009 168.416H488.809V166.4H487.009V168.416ZM487.063 179H488.773V170.072H487.063V179ZM491.705 179H493.397V175.148C493.397 173.888 493.433 171.296 495.773 171.296C496.925 171.296 497.663 171.944 497.663 173.546V179H499.355V173.15C499.355 171.17 498.455 169.82 496.259 169.82C494.387 169.82 493.523 171.134 493.343 171.566V170.072H491.705V179ZM509.619 179H511.815V177.542H509.943C509.331 177.542 509.061 177.272 509.061 176.66V171.476H511.473V170.072H509.061V167.282H507.369V170.072H505.335V171.476H507.369V176.804C507.369 178.28 508.143 179 509.619 179ZM517.188 179.252C519.582 179.252 521.418 177.272 521.418 174.554C521.418 171.836 519.654 169.82 517.188 169.82C514.722 169.82 512.94 171.836 512.94 174.554C512.94 177.236 514.776 179.252 517.188 179.252ZM517.188 177.794C515.712 177.794 514.704 176.75 514.704 174.572C514.704 172.376 515.712 171.278 517.188 171.278C518.646 171.278 519.654 172.376 519.654 174.572C519.654 176.75 518.646 177.794 517.188 177.794ZM527.208 179.252C529.602 179.252 531.438 177.272 531.438 174.554C531.438 171.836 529.674 169.82 527.208 169.82C524.742 169.82 522.96 171.836 522.96 174.554C522.96 177.236 524.796 179.252 527.208 179.252ZM527.208 177.794C525.732 177.794 524.724 176.75 524.724 174.572C524.724 172.376 525.732 171.278 527.208 171.278C528.666 171.278 529.674 172.376 529.674 174.572C529.674 176.75 528.666 177.794 527.208 177.794ZM538.269 179H539.961V174.788C539.961 173.564 540.051 171.314 542.139 171.314C543.273 171.314 544.029 171.908 544.029 173.546V179H545.685V174.788C545.685 173.564 545.739 171.314 547.881 171.314C549.015 171.314 549.753 171.908 549.753 173.546V179H551.463V173.078C551.463 170.954 550.347 169.82 548.367 169.82C546.585 169.82 545.757 170.864 545.379 171.674C544.911 170.522 543.903 169.82 542.607 169.82C541.077 169.82 540.285 170.756 539.907 171.422V170.072H538.269V179ZM557.271 179.252C558.837 179.252 559.719 178.388 560.151 177.65V179H561.807V170.072H560.115V171.44C559.683 170.702 558.819 169.82 557.271 169.82C555.165 169.82 553.599 171.62 553.599 174.554C553.599 177.47 555.165 179.252 557.271 179.252ZM557.739 177.812C556.371 177.812 555.345 176.984 555.345 174.554C555.345 172.142 556.371 171.26 557.739 171.26C559.179 171.26 560.205 172.358 560.205 174.554C560.205 176.75 559.179 177.812 557.739 177.812ZM564.759 179H566.451V175.148C566.451 173.888 566.487 171.296 568.827 171.296C569.979 171.296 570.717 171.944 570.717 173.546V179H572.409V173.15C572.409 171.17 571.509 169.82 569.313 169.82C567.441 169.82 566.577 171.134 566.397 171.566V170.072H564.759V179ZM580.69 170.072L579.16 174.698C578.746 175.904 578.638 176.246 578.476 176.732C578.314 176.3 578.152 175.904 577.558 174.518L575.722 170.072H573.832L577.774 178.892L577.324 180.17C577.072 180.854 576.712 180.998 576.1 180.998H574.3V182.51H576.154C577.72 182.51 578.386 181.952 578.962 180.26L582.472 170.072H580.69ZM591.516 179H593.712V177.542H591.84C591.228 177.542 590.958 177.272 590.958 176.66V171.476H593.37V170.072H590.958V167.282H589.266V170.072H587.232V171.476H589.266V176.804C589.266 178.28 590.04 179 591.516 179ZM595.554 168.416H597.354V166.4H595.554V168.416ZM595.608 179H597.318V170.072H595.608V179ZM600.249 179H601.941V174.788C601.941 173.564 602.031 171.314 604.119 171.314C605.253 171.314 606.009 171.908 606.009 173.546V179H607.665V174.788C607.665 173.564 607.719 171.314 609.861 171.314C610.995 171.314 611.733 171.908 611.733 173.546V179H613.443V173.078C613.443 170.954 612.327 169.82 610.347 169.82C608.565 169.82 607.737 170.864 607.359 171.674C606.891 170.522 605.883 169.82 604.587 169.82C603.057 169.82 602.265 170.756 601.887 171.422V170.072H600.249V179ZM619.702 179.252C621.556 179.252 622.978 178.388 623.626 176.678L622.078 176.12C621.826 176.75 621.196 177.83 619.756 177.83C618.532 177.83 617.344 177.11 617.272 174.968H623.554C623.878 172.052 622.294 169.82 619.63 169.82C617.308 169.82 615.58 171.656 615.58 174.572C615.58 177.578 617.218 179.252 619.702 179.252ZM617.308 173.618C617.452 172.07 618.478 171.17 619.63 171.17C620.818 171.17 621.826 172.016 621.844 173.618H617.308ZM629.009 179.252C631.313 179.252 632.645 178.172 632.645 176.48C632.645 174.5 630.665 173.924 629.639 173.708L628.577 173.51C627.335 173.276 627.065 172.934 627.065 172.358C627.065 171.728 627.605 171.17 628.793 171.17C630.197 171.17 630.737 172.052 630.953 172.664L632.447 172.088C632.087 170.954 631.025 169.82 628.811 169.82C626.957 169.82 625.445 170.918 625.445 172.52C625.445 174.23 626.723 174.806 628.253 175.112L629.333 175.31C630.557 175.544 630.935 175.994 630.935 176.624C630.935 177.416 630.269 177.866 629.027 177.866C627.569 177.866 626.921 177.092 626.687 176.174L625.085 176.696C625.463 178.388 627.137 179.252 629.009 179.252ZM642.455 179.252C644.021 179.252 644.903 178.388 645.335 177.65V179H646.991V170.072H645.299V171.44C644.867 170.702 644.003 169.82 642.455 169.82C640.349 169.82 638.783 171.62 638.783 174.554C638.783 177.47 640.349 179.252 642.455 179.252ZM642.923 177.812C641.555 177.812 640.529 176.984 640.529 174.554C640.529 172.142 641.555 171.26 642.923 171.26C644.363 171.26 645.389 172.358 645.389 174.554C645.389 176.75 644.363 177.812 642.923 177.812ZM649.943 179H651.635V175.148C651.635 173.888 651.671 171.296 654.011 171.296C655.163 171.296 655.901 171.944 655.901 173.546V179H657.593V173.15C657.593 171.17 656.693 169.82 654.497 169.82C652.625 169.82 651.761 171.134 651.581 171.566V170.072H649.943V179ZM663.425 179.252C664.991 179.252 665.873 178.388 666.305 177.65V179H667.961V166.4H666.269V169.712V171.44C665.837 170.702 664.973 169.82 663.425 169.82C661.319 169.82 659.753 171.62 659.753 174.554C659.753 177.47 661.319 179.252 663.425 179.252ZM663.893 177.812C662.525 177.812 661.499 176.984 661.499 174.554C661.499 172.142 662.525 171.26 663.893 171.26C665.333 171.26 666.359 172.358 666.359 174.554C666.359 176.75 665.333 177.812 663.893 177.812ZM675.501 179H677.193V175.148C677.193 173.888 677.229 171.296 679.569 171.296C680.721 171.296 681.459 171.944 681.459 173.546V179H683.151V173.15C683.151 171.17 682.251 169.82 680.055 169.82C678.183 169.82 677.319 171.134 677.139 171.566V170.072H675.501V179ZM689.524 179.252C691.918 179.252 693.754 177.272 693.754 174.554C693.754 171.836 691.99 169.82 689.524 169.82C687.058 169.82 685.276 171.836 685.276 174.554C685.276 177.236 687.112 179.252 689.524 179.252ZM689.524 177.794C688.048 177.794 687.04 176.75 687.04 174.572C687.04 172.376 688.048 171.278 689.524 171.278C690.982 171.278 691.99 172.376 691.99 174.572C691.99 176.75 690.982 177.794 689.524 177.794ZM697.851 179H699.759L701.109 174.68C701.631 173.024 701.793 172.466 701.973 171.926L702.819 174.698L704.133 179H706.131L709.137 170.072H707.355L706.077 174.176C705.519 176.03 705.285 176.768 705.141 177.182L704.403 174.716L702.999 170.072H701.019L699.723 174.32C699.183 176.084 698.985 176.732 698.859 177.2L697.959 174.23L696.699 170.072H694.935L697.851 179ZM278.482 210.252C280.048 210.252 280.93 209.388 281.362 208.65V210H283.018V201.072H281.326V202.44C280.894 201.702 280.03 200.82 278.482 200.82C276.376 200.82 274.81 202.62 274.81 205.554C274.81 208.47 276.376 210.252 278.482 210.252ZM278.95 208.812C277.582 208.812 276.556 207.984 276.556 205.554C276.556 203.142 277.582 202.26 278.95 202.26C280.39 202.26 281.416 203.358 281.416 205.554C281.416 207.75 280.39 208.812 278.95 208.812ZM285.97 210H287.662V205.986C287.662 203.88 288.49 202.692 290.47 202.692C290.83 202.692 291.136 202.728 291.424 202.764V201.036C291.226 200.982 290.974 200.946 290.596 200.946C288.814 200.946 287.932 202.278 287.626 202.962V201.072H285.97V210ZM296.51 210.252C298.364 210.252 299.786 209.388 300.434 207.678L298.886 207.12C298.634 207.75 298.004 208.83 296.564 208.83C295.34 208.83 294.152 208.11 294.08 205.968H300.362C300.686 203.052 299.102 200.82 296.438 200.82C294.116 200.82 292.388 202.656 292.388 205.572C292.388 208.578 294.026 210.252 296.51 210.252ZM294.116 204.618C294.26 203.07 295.286 202.17 296.438 202.17C297.626 202.17 298.634 203.016 298.652 204.618H294.116ZM307.328 210H309.02V197.4H307.328V210ZM315.497 210.252C317.891 210.252 319.727 208.272 319.727 205.554C319.727 202.836 317.963 200.82 315.497 200.82C313.031 200.82 311.249 202.836 311.249 205.554C311.249 208.236 313.085 210.252 315.497 210.252ZM315.497 208.794C314.021 208.794 313.013 207.75 313.013 205.572C313.013 203.376 314.021 202.278 315.497 202.278C316.955 202.278 317.963 203.376 317.963 205.572C317.963 207.75 316.955 208.794 315.497 208.794ZM325.624 210.252C327.64 210.252 328.99 209.082 329.584 207.426L327.982 206.868C327.676 207.858 327.01 208.794 325.606 208.794C324.184 208.794 323.05 207.75 323.05 205.536C323.05 203.358 324.202 202.278 325.588 202.278C326.83 202.278 327.478 203.07 327.784 203.952L329.368 203.412C328.918 202.008 327.64 200.82 325.606 200.82C323.104 200.82 321.286 202.746 321.286 205.536C321.286 208.416 323.014 210.252 325.624 210.252ZM338.156 210H340.334L336.05 204.78L340.01 201.072H337.796L333.242 205.518V202.548V197.4H331.55V210H333.242V207.408L334.862 205.896L338.156 210ZM344.92 210.252C346.774 210.252 348.196 209.388 348.844 207.678L347.296 207.12C347.044 207.75 346.414 208.83 344.974 208.83C343.75 208.83 342.562 208.11 342.49 205.968H348.772C349.096 203.052 347.512 200.82 344.848 200.82C342.526 200.82 340.798 202.656 340.798 205.572C340.798 208.578 342.436 210.252 344.92 210.252ZM342.526 204.618C342.67 203.07 343.696 202.17 344.848 202.17C346.036 202.17 347.044 203.016 347.062 204.618H342.526ZM354.156 210.252C355.722 210.252 356.604 209.388 357.036 208.65V210H358.692V197.4H357V200.712V202.44C356.568 201.702 355.704 200.82 354.156 200.82C352.05 200.82 350.484 202.62 350.484 205.554C350.484 208.47 352.05 210.252 354.156 210.252ZM354.624 208.812C353.256 208.812 352.23 207.984 352.23 205.554C352.23 203.142 353.256 202.26 354.624 202.26C356.064 202.26 357.09 203.358 357.09 205.554C357.09 207.75 356.064 208.812 354.624 208.812ZM369.778 210.252C372.172 210.252 374.008 208.272 374.008 205.554C374.008 202.836 372.244 200.82 369.778 200.82C367.312 200.82 365.53 202.836 365.53 205.554C365.53 208.236 367.366 210.252 369.778 210.252ZM369.778 208.794C368.302 208.794 367.294 207.75 367.294 205.572C367.294 203.376 368.302 202.278 369.778 202.278C371.236 202.278 372.244 203.376 372.244 205.572C372.244 207.75 371.236 208.794 369.778 208.794ZM379.059 210.252C380.895 210.252 381.741 208.992 382.029 208.47V210H383.685V201.072H381.993V204.96C381.993 206.346 381.885 208.776 379.653 208.776C378.537 208.776 377.817 208.128 377.817 206.526V201.072H376.125V206.922C376.125 208.902 377.025 210.252 379.059 210.252ZM389.754 210H391.95V208.542H390.078C389.466 208.542 389.196 208.272 389.196 207.66V202.476H391.608V201.072H389.196V198.282H387.504V201.072H385.47V202.476H387.504V207.804C387.504 209.28 388.278 210 389.754 210ZM399.034 210H400.726V202.476H403.03V201.072H400.726V199.74C400.726 199.128 400.978 198.858 401.608 198.858H403.354V197.4H401.284C399.808 197.4 399.034 198.138 399.034 199.758V201.072H397.09V202.476H399.034V210ZM408.221 210.252C410.615 210.252 412.451 208.272 412.451 205.554C412.451 202.836 410.687 200.82 408.221 200.82C405.755 200.82 403.973 202.836 403.973 205.554C403.973 208.236 405.809 210.252 408.221 210.252ZM408.221 208.794C406.745 208.794 405.737 207.75 405.737 205.572C405.737 203.376 406.745 202.278 408.221 202.278C409.679 202.278 410.687 203.376 410.687 205.572C410.687 207.75 409.679 208.794 408.221 208.794ZM414.695 210H416.387V205.986C416.387 203.88 417.215 202.692 419.195 202.692C419.555 202.692 419.861 202.728 420.149 202.764V201.036C419.951 200.982 419.699 200.946 419.321 200.946C417.539 200.946 416.657 202.278 416.351 202.962V201.072H414.695V210ZM429.849 210.252C432.513 210.252 434.097 208.686 434.097 206.778C434.097 205.068 433.053 203.862 431.559 203.52C432.891 203.088 433.863 202.026 433.863 200.478C433.863 198.588 432.387 197.148 429.849 197.148C427.329 197.148 425.817 198.714 425.655 200.658L427.509 200.964C427.635 199.65 428.481 198.714 429.849 198.714C431.055 198.714 432.045 199.506 432.045 200.766C432.045 202.062 431.037 202.836 429.813 202.836H428.913V204.366H429.813C431.217 204.366 432.243 205.176 432.243 206.544C432.243 207.876 431.199 208.686 429.849 208.686C428.319 208.686 427.311 207.642 427.239 206.004L425.349 206.4C425.529 208.74 427.221 210.252 429.849 210.252ZM441.223 210.252C444.211 210.252 446.245 207.966 446.245 203.664C446.245 199.344 443.977 197.148 441.223 197.148C438.451 197.148 436.165 199.344 436.165 203.664C436.165 207.966 438.217 210.252 441.223 210.252ZM441.223 208.65C439.261 208.65 438.055 206.904 438.055 203.664C438.055 200.64 439.297 198.75 441.223 198.75C443.113 198.75 444.355 200.64 444.355 203.664C444.355 206.922 443.149 208.65 441.223 208.65ZM453.331 210H455.023V205.788C455.023 204.564 455.113 202.314 457.201 202.314C458.335 202.314 459.091 202.908 459.091 204.546V210H460.747V205.788C460.747 204.564 460.801 202.314 462.943 202.314C464.077 202.314 464.815 202.908 464.815 204.546V210H466.525V204.078C466.525 201.954 465.409 200.82 463.429 200.82C461.647 200.82 460.819 201.864 460.441 202.674C459.973 201.522 458.965 200.82 457.669 200.82C456.139 200.82 455.347 201.756 454.969 202.422V201.072H453.331V210ZM469.256 199.416H471.056V197.4H469.256V199.416ZM469.31 210H471.02V201.072H469.31V210ZM473.951 210H475.643V206.148C475.643 204.888 475.679 202.296 478.019 202.296C479.171 202.296 479.909 202.944 479.909 204.546V210H481.601V204.15C481.601 202.17 480.701 200.82 478.505 200.82C476.633 200.82 475.769 202.134 475.589 202.566V201.072H473.951V210ZM487.235 210.252C489.071 210.252 489.917 208.992 490.205 208.47V210H491.861V201.072H490.169V204.96C490.169 206.346 490.061 208.776 487.829 208.776C486.713 208.776 485.993 208.128 485.993 206.526V201.072H484.301V206.922C484.301 208.902 485.201 210.252 487.235 210.252ZM497.93 210H500.126V208.542H498.254C497.642 208.542 497.372 208.272 497.372 207.66V202.476H499.784V201.072H497.372V198.282H495.68V201.072H493.646V202.476H495.68V207.804C495.68 209.28 496.454 210 497.93 210ZM505.409 210.252C507.263 210.252 508.685 209.388 509.333 207.678L507.785 207.12C507.533 207.75 506.903 208.83 505.463 208.83C504.239 208.83 503.051 208.11 502.979 205.968H509.261C509.585 203.052 508.001 200.82 505.337 200.82C503.015 200.82 501.287 202.656 501.287 205.572C501.287 208.578 502.925 210.252 505.409 210.252ZM503.015 204.618C503.159 203.07 504.185 202.17 505.337 202.17C506.525 202.17 507.533 203.016 507.551 204.618H503.015ZM514.716 210.252C517.02 210.252 518.352 209.172 518.352 207.48C518.352 205.5 516.372 204.924 515.346 204.708L514.284 204.51C513.042 204.276 512.772 203.934 512.772 203.358C512.772 202.728 513.312 202.17 514.5 202.17C515.904 202.17 516.444 203.052 516.66 203.664L518.154 203.088C517.794 201.954 516.732 200.82 514.518 200.82C512.664 200.82 511.152 201.918 511.152 203.52C511.152 205.23 512.43 205.806 513.96 206.112L515.04 206.31C516.264 206.544 516.642 206.994 516.642 207.624C516.642 208.416 515.976 208.866 514.734 208.866C513.276 208.866 512.628 208.092 512.394 207.174L510.792 207.696C511.17 209.388 512.844 210.252 514.716 210.252ZM520.298 210H522.602V207.66H520.298V210Z" fill="#1D1D21"/>
<path d="M494 55C494 54.4477 494.448 54 495 54C495.552 54 496 54.4477 496 55L494 55ZM495.707 125.207C495.317 125.598 494.683 125.598 494.293 125.207L487.929 118.843C487.538 118.453 487.538 117.819 487.929 117.429C488.319 117.038 488.953 117.038 489.343 117.429L495 123.086L500.657 117.429C501.047 117.038 501.681 117.038 502.071 117.429C502.462 117.819 502.462 118.453 502.071 118.843L495.707 125.207ZM496 55L496 124.5L494 124.5L494 55L496 55Z" fill="#DA372C"/>
<path d="M405.975 67.68H407.175V66.208C409.447 66.032 410.695 64.72 410.695 62.896C410.695 61.2 409.431 60.24 407.655 59.792L407.175 59.664V55.952C408.471 56.208 408.983 57.2 409.191 57.792L410.519 57.136C410.231 56.192 409.191 54.832 407.175 54.608V53.12H405.975V54.608C404.071 54.832 402.807 56.064 402.807 57.712C402.807 59.568 403.959 60.384 405.607 60.736L405.975 60.816V64.848C404.727 64.576 403.975 63.664 403.607 62.544L402.247 63.2C402.743 64.768 404.007 65.952 405.975 66.192V67.68ZM405.975 59.392C404.727 59.072 404.183 58.592 404.183 57.632C404.183 56.72 404.855 56.032 405.975 55.904V57.968V59.392ZM407.175 64.912V62.848V61.088C408.567 61.408 409.239 62.032 409.239 63.024C409.239 64.064 408.487 64.784 407.175 64.912ZM415.391 66.224C417.391 66.224 418.543 65.28 418.543 63.792C418.543 61.984 416.671 61.504 415.871 61.344L414.959 61.168C413.823 60.944 413.567 60.624 413.567 60.096C413.567 59.52 414.079 58.976 415.183 58.976C416.527 58.976 416.975 59.824 417.167 60.352L418.399 59.904C418.079 58.864 417.151 57.856 415.183 57.856C413.631 57.856 412.287 58.816 412.287 60.24C412.287 61.744 413.439 62.24 414.751 62.496L415.663 62.672C416.815 62.896 417.183 63.312 417.183 63.904C417.183 64.656 416.543 65.056 415.391 65.056C414.143 65.056 413.503 64.464 413.263 63.52L411.951 63.952C412.303 65.472 413.775 66.224 415.391 66.224ZM420.578 69.12H421.938V66.32V64.768C422.322 65.44 423.058 66.224 424.45 66.224C426.274 66.224 427.666 64.64 427.666 62.032C427.666 59.424 426.274 57.856 424.45 57.856C423.058 57.856 422.29 58.624 421.906 59.296V58.08H420.578V69.12ZM424.098 65.024C422.802 65.024 421.858 64.016 421.858 62.016C421.858 60.016 422.802 59.056 424.098 59.056C425.362 59.056 426.274 59.808 426.274 62.016C426.274 64.224 425.362 65.024 424.098 65.024ZM432.39 66.224C433.782 66.224 434.55 65.456 434.934 64.784V66H436.262V58.08H434.902V59.312C434.518 58.64 433.782 57.856 432.39 57.856C430.566 57.856 429.174 59.44 429.174 62.048C429.174 64.656 430.566 66.224 432.39 66.224ZM432.742 65.024C431.478 65.024 430.566 64.272 430.566 62.064C430.566 59.856 431.478 59.056 432.742 59.056C434.038 59.056 434.982 60.064 434.982 62.064C434.982 64.064 434.038 65.024 432.742 65.024ZM442.105 66.224C443.881 66.224 445.033 65.184 445.545 63.712L444.265 63.264C444.009 64.128 443.417 65.024 442.105 65.024C440.793 65.024 439.769 64.064 439.769 62.032C439.769 60.048 440.825 59.056 442.089 59.056C443.241 59.056 443.817 59.808 444.073 60.56L445.337 60.144C444.969 58.912 443.881 57.856 442.089 57.856C439.897 57.856 438.345 59.584 438.345 62.032C438.345 64.592 439.817 66.224 442.105 66.224ZM447.312 56.528H448.752V54.8H447.312V56.528ZM447.36 66H448.72V58.08H447.36V66ZM451.407 66H452.767V62.64C452.767 61.472 452.815 59.056 454.991 59.056C456.047 59.056 456.735 59.664 456.735 61.152V66H458.095V60.832C458.095 59.072 457.295 57.856 455.327 57.856C453.615 57.856 452.847 59.072 452.735 59.424V58.08H451.407V66ZM461.952 69.12H465.648C466.992 69.12 468.128 68.416 468.128 66.944C468.128 65.616 467.136 64.752 465.616 64.752H462.16C461.6 64.752 461.488 64.464 461.488 64.208C461.488 63.92 461.776 63.616 462.208 63.424C462.64 63.68 463.136 63.728 463.68 63.728C465.44 63.728 466.64 62.56 466.768 60.768L466.8 60.336C466.864 59.408 467.136 59.232 467.856 59.232H468.464V58.08H467.616C466.848 58.08 466.48 58.608 466.32 59.216C465.984 58.656 465.152 57.856 463.68 57.856C461.856 57.856 460.528 59.152 460.528 60.8C460.528 61.792 460.96 62.512 461.408 62.912C460.896 63.28 460.24 63.808 460.24 64.592C460.24 65.216 460.496 65.584 460.944 65.856C460.464 66.128 459.888 66.72 459.888 67.52C459.888 68.448 460.432 69.12 461.952 69.12ZM463.68 62.608C462.608 62.608 461.904 61.888 461.904 60.8C461.904 59.712 462.608 58.976 463.68 58.976C464.752 58.976 465.456 59.712 465.456 60.8C465.456 61.888 464.752 62.608 463.68 62.608ZM462.416 67.904C461.584 67.904 461.136 67.728 461.136 67.072C461.136 66.528 461.488 66.176 461.76 66H465.504C466.128 66 466.752 66.128 466.752 66.944C466.752 67.76 466.128 67.904 465.504 67.904H462.416ZM469.62 61.776H474.036V60.336H469.62V61.776ZM479.157 66.224C481.157 66.224 482.309 65.28 482.309 63.792C482.309 61.984 480.437 61.504 479.637 61.344L478.725 61.168C477.589 60.944 477.333 60.624 477.333 60.096C477.333 59.52 477.845 58.976 478.949 58.976C480.293 58.976 480.741 59.824 480.933 60.352L482.165 59.904C481.845 58.864 480.917 57.856 478.949 57.856C477.397 57.856 476.053 58.816 476.053 60.24C476.053 61.744 477.205 62.24 478.517 62.496L479.429 62.672C480.581 62.896 480.949 63.312 480.949 63.904C480.949 64.656 480.309 65.056 479.157 65.056C477.909 65.056 477.269 64.464 477.029 63.52L475.717 63.952C476.069 65.472 477.541 66.224 479.157 66.224Z" fill="#6E6E78"/>
<path d="M360 55C360 54.4477 360.448 54 361 54C361.552 54 362 54.4477 362 55L360 55ZM361.707 125.207C361.317 125.598 360.683 125.598 360.293 125.207L353.929 118.843C353.538 118.453 353.538 117.819 353.929 117.429C354.319 117.038 354.953 117.038 355.343 117.429L361 123.086L366.657 117.429C367.047 117.038 367.681 117.038 368.071 117.429C368.462 117.819 368.462 118.453 368.071 118.843L361.707 125.207ZM362 55L362 124.5L360 124.5L360 55L362 55Z" fill="#DA372C"/>
<path d="M320.347 66H321.787V56.16H325.931V54.8H316.363V56.16H320.347V66ZM327.39 56.528H328.83V54.8H327.39V56.528ZM327.438 66H328.798V58.08H327.438V66ZM334.237 66H336.061V64.8H334.413C333.853 64.8 333.613 64.56 333.613 64V59.232H335.773V58.08H333.613V55.6H332.253V58.08H330.413V59.232H332.253V64.08C332.253 65.392 332.925 66 334.237 66ZM337.782 66H339.142V54.8H337.782V66ZM344.82 66.224C346.308 66.224 347.636 65.552 348.228 63.936L346.98 63.504C346.772 64.016 346.212 65.04 344.868 65.04C343.764 65.04 342.66 64.4 342.58 62.4H348.164C348.468 59.808 347.044 57.856 344.74 57.856C342.724 57.856 341.236 59.472 341.236 62.08C341.236 64.768 342.66 66.224 344.82 66.224ZM342.612 61.264C342.724 59.824 343.7 58.976 344.74 58.976C345.828 58.976 346.772 59.76 346.772 61.264H342.612Z" fill="#6E6E78"/>
<path d="M131.57 198H133.01V186.8H131.57V198ZM139.027 198.224C140.803 198.224 141.955 197.184 142.467 195.712L141.187 195.264C140.931 196.128 140.339 197.024 139.027 197.024C137.715 197.024 136.691 196.064 136.691 194.032C136.691 192.048 137.747 191.056 139.011 191.056C140.163 191.056 140.739 191.808 140.995 192.56L142.259 192.144C141.891 190.912 140.803 189.856 139.011 189.856C136.819 189.856 135.267 191.584 135.267 194.032C135.267 196.592 136.739 198.224 139.027 198.224ZM147.338 198.224C149.418 198.224 151.017 196.432 151.017 194.048C151.017 191.664 149.482 189.856 147.338 189.856C145.194 189.856 143.658 191.664 143.658 194.048C143.658 196.432 145.258 198.224 147.338 198.224ZM147.338 197.024C145.994 197.024 145.066 196.064 145.066 194.064C145.066 192.064 145.994 191.056 147.338 191.056C148.682 191.056 149.61 192.064 149.61 194.064C149.61 196.064 148.682 197.024 147.338 197.024ZM153.078 198H154.438V194.64C154.438 193.472 154.486 191.056 156.662 191.056C157.718 191.056 158.406 191.664 158.406 193.152V198H159.766V192.832C159.766 191.072 158.966 189.856 156.998 189.856C155.286 189.856 154.518 191.072 154.406 191.424V190.08H153.078V198Z" fill="#6E6E78"/>
<path d="M129 172C128.448 172 128 172.448 128 173C128 173.552 128.448 174 129 174L129 172ZM225.707 173.707C226.098 173.317 226.098 172.683 225.707 172.293L219.343 165.929C218.953 165.538 218.319 165.538 217.929 165.929C217.538 166.319 217.538 166.953 217.929 167.343L223.586 173L217.929 178.657C217.538 179.047 217.538 179.681 217.929 180.071C218.319 180.462 218.953 180.462 219.343 180.071L225.707 173.707ZM129 174L225 174L225 172L129 172L129 174Z" fill="#DA372C"/>
<path d="M360 289C360 289.552 360.448 290 361 290C361.552 290 362 289.552 362 289L360 289ZM361.707 218.793C361.317 218.402 360.683 218.402 360.293 218.793L353.929 225.157C353.538 225.547 353.538 226.181 353.929 226.571C354.319 226.962 354.953 226.962 355.343 226.571L361 220.914L366.657 226.571C367.047 226.962 367.681 226.962 368.071 226.571C368.462 226.181 368.462 225.547 368.071 225.157L361.707 218.793ZM362 289L362 219.5L360 219.5L360 289L362 289Z" fill="#DA372C"/>
<path d="M378.024 289.224C380.616 289.224 382.04 287.832 382.04 285.88C382.04 284.184 380.76 283.144 378.968 282.728L377.4 282.36C376.136 282.056 375.56 281.608 375.56 280.648C375.56 279.64 376.392 278.92 377.768 278.92C379.592 278.92 380.248 280.136 380.488 280.824L381.864 280.152C381.544 279.112 380.328 277.576 377.944 277.576C375.672 277.576 374.136 278.904 374.136 280.728C374.136 282.6 375.288 283.416 376.952 283.8L378.456 284.152C379.848 284.472 380.536 285.032 380.536 286.008C380.536 287.128 379.656 287.88 378.12 287.88C376.36 287.88 375.432 286.808 374.984 285.496L373.576 286.184C374.12 287.928 375.64 289.224 378.024 289.224ZM386.716 289.224C388.364 289.224 389.116 288.056 389.356 287.624V289H390.684V281.08H389.324V284.44C389.324 285.656 389.292 288.024 387.148 288.024C386.108 288.024 385.436 287.416 385.436 285.928V281.08H384.076V286.248C384.076 288.008 384.86 289.224 386.716 289.224ZM393.375 292.12H394.735V289.32V287.768C395.119 288.44 395.855 289.224 397.247 289.224C399.071 289.224 400.463 287.64 400.463 285.032C400.463 282.424 399.071 280.856 397.247 280.856C395.855 280.856 395.087 281.624 394.703 282.296V281.08H393.375V292.12ZM396.895 288.024C395.599 288.024 394.655 287.016 394.655 285.016C394.655 283.016 395.599 282.056 396.895 282.056C398.159 282.056 399.071 282.808 399.071 285.016C399.071 287.224 398.159 288.024 396.895 288.024ZM402.563 292.12H403.923V289.32V287.768C404.307 288.44 405.043 289.224 406.435 289.224C408.259 289.224 409.651 287.64 409.651 285.032C409.651 282.424 408.259 280.856 406.435 280.856C405.043 280.856 404.275 281.624 403.891 282.296V281.08H402.563V292.12ZM406.083 288.024C404.787 288.024 403.843 287.016 403.843 285.016C403.843 283.016 404.787 282.056 406.083 282.056C407.347 282.056 408.259 282.808 408.259 285.016C408.259 287.224 407.347 288.024 406.083 288.024ZM414.806 289.224C416.886 289.224 418.486 287.432 418.486 285.048C418.486 282.664 416.95 280.856 414.806 280.856C412.662 280.856 411.126 282.664 411.126 285.048C411.126 287.432 412.726 289.224 414.806 289.224ZM414.806 288.024C413.462 288.024 412.534 287.064 412.534 285.064C412.534 283.064 413.462 282.056 414.806 282.056C416.15 282.056 417.078 283.064 417.078 285.064C417.078 287.064 416.15 288.024 414.806 288.024ZM420.547 289H421.907V285.368C421.907 283.512 422.643 282.376 424.435 282.376C424.755 282.376 425.027 282.408 425.283 282.456V281.064C425.091 281.016 424.851 280.968 424.467 280.968C422.963 280.968 422.147 282.136 421.891 282.728V281.08H420.547V289ZM429.643 289H431.467V287.8H429.819C429.259 287.8 429.019 287.56 429.019 287V282.232H431.179V281.08H429.019V278.6H427.659V281.08H425.819V282.232H427.659V287.08C427.659 288.392 428.331 289 429.643 289ZM433.14 279.528H434.58V277.8H433.14V279.528ZM433.188 289H434.548V281.08H433.188V289ZM437.235 289H438.595V285.64C438.595 284.472 438.643 282.056 440.819 282.056C441.875 282.056 442.563 282.664 442.563 284.152V289H443.923V283.832C443.923 282.072 443.123 280.856 441.155 280.856C439.443 280.856 438.675 282.072 438.563 282.424V281.08H437.235V289ZM447.78 292.12H451.476C452.82 292.12 453.956 291.416 453.956 289.944C453.956 288.616 452.964 287.752 451.444 287.752H447.988C447.428 287.752 447.316 287.464 447.316 287.208C447.316 286.92 447.604 286.616 448.036 286.424C448.468 286.68 448.964 286.728 449.508 286.728C451.268 286.728 452.468 285.56 452.596 283.768L452.628 283.336C452.692 282.408 452.964 282.232 453.684 282.232H454.292V281.08H453.444C452.676 281.08 452.308 281.608 452.148 282.216C451.812 281.656 450.98 280.856 449.508 280.856C447.684 280.856 446.356 282.152 446.356 283.8C446.356 284.792 446.788 285.512 447.236 285.912C446.724 286.28 446.068 286.808 446.068 287.592C446.068 288.216 446.324 288.584 446.772 288.856C446.292 289.128 445.716 289.72 445.716 290.52C445.716 291.448 446.26 292.12 447.78 292.12ZM449.508 285.608C448.436 285.608 447.732 284.888 447.732 283.8C447.732 282.712 448.436 281.976 449.508 281.976C450.58 281.976 451.284 282.712 451.284 283.8C451.284 284.888 450.58 285.608 449.508 285.608ZM448.244 290.904C447.412 290.904 446.964 290.728 446.964 290.072C446.964 289.528 447.316 289.176 447.588 289H451.332C451.956 289 452.58 289.128 452.58 289.944C452.58 290.76 451.956 290.904 451.332 290.904H448.244ZM462.502 289H464.326V287.8H462.678C462.118 287.8 461.878 287.56 461.878 287V282.232H464.038V281.08H461.878V278.6H460.518V281.08H458.678V282.232H460.518V287.08C460.518 288.392 461.19 289 462.502 289ZM468.961 289.224C470.449 289.224 471.777 288.552 472.369 286.936L471.121 286.504C470.913 287.016 470.353 288.04 469.009 288.04C467.905 288.04 466.801 287.4 466.721 285.4H472.305C472.609 282.808 471.185 280.856 468.881 280.856C466.865 280.856 465.377 282.472 465.377 285.08C465.377 287.768 466.801 289.224 468.961 289.224ZM466.753 284.264C466.865 282.824 467.841 281.976 468.881 281.976C469.969 281.976 470.913 282.76 470.913 284.264H466.753ZM473.367 289H474.855L475.863 287.496L476.871 285.976C477.095 286.328 477.271 286.6 477.863 287.496L478.855 289H480.487L477.735 284.968L480.327 281.08H478.823L477.959 282.44C477.351 283.384 477.159 283.672 476.935 283.992C476.743 283.672 476.567 283.384 475.975 282.44L475.111 281.08H473.527L476.087 284.952L473.367 289ZM484.893 289H486.717V287.8H485.069C484.509 287.8 484.269 287.56 484.269 287V282.232H486.429V281.08H484.269V278.6H482.909V281.08H481.069V282.232H482.909V287.08C482.909 288.392 483.581 289 484.893 289Z" fill="#6E6E78"/>
</svg>
