<svg viewBox="0 0 958 346" fill="none" xmlns="http://www.w3.org/2000/svg"><circle cx="388" cy="173" r="14" fill="#1662DD" stroke="#1662DD" stroke-width="4"/><circle cx="388" cy="173" r="4" fill="#fff" stroke="#fff" stroke-width="4"/><path d="M443.708 182H446.536L439.368 162.4H435.812L428.476 182H431.192L433.096 176.708H441.832L443.708 182ZM433.964 174.328L435.952 168.784L437.492 164.5C437.8 165.34 438.248 166.572 439.032 168.784L440.992 174.328H433.964ZM453.698 182.392C456.582 182.392 457.898 180.348 458.318 179.592V182H460.642V168.14H458.262V174.02C458.262 176.148 458.206 180.292 454.454 180.292C452.634 180.292 451.458 179.228 451.458 176.624V168.14H449.078V177.184C449.078 180.264 450.45 182.392 453.698 182.392ZM470.168 182H473.36V179.9H470.476C469.496 179.9 469.076 179.48 469.076 178.5V170.156H472.856V168.14H469.076V163.8H466.696V168.14H463.476V170.156H466.696V178.64C466.696 180.936 467.872 182 470.168 182ZM481.583 182.392C485.223 182.392 488.023 179.256 488.023 175.084C488.023 170.912 485.335 167.748 481.583 167.748C477.831 167.748 475.143 170.912 475.143 175.084C475.143 179.256 477.943 182.392 481.583 182.392ZM481.583 180.292C479.231 180.292 477.607 178.612 477.607 175.112C477.607 171.612 479.231 169.848 481.583 169.848C483.935 169.848 485.559 171.612 485.559 175.112C485.559 178.612 483.935 180.292 481.583 180.292ZM491.209 174.608H498.937V172.088H491.209V174.608ZM507.815 182.392C510.251 182.392 511.595 181.048 512.267 179.872V182H514.591V162.4H512.211V167.58V170.296C511.539 169.12 510.251 167.748 507.815 167.748C504.623 167.748 502.187 170.52 502.187 175.084C502.187 179.648 504.623 182.392 507.815 182.392ZM508.431 180.292C506.219 180.292 504.623 178.976 504.623 175.112C504.623 171.248 506.219 169.848 508.431 169.848C510.699 169.848 512.351 171.612 512.351 175.112C512.351 178.612 510.699 180.292 508.431 180.292ZM524.537 182.392C527.141 182.392 529.465 181.216 530.501 178.388L528.317 177.632C527.953 178.528 526.973 180.32 524.621 180.32C522.689 180.32 520.757 179.2 520.617 175.7H530.389C530.921 171.164 528.429 167.748 524.397 167.748C520.869 167.748 518.265 170.576 518.265 175.14C518.265 179.844 520.757 182.392 524.537 182.392ZM520.673 173.712C520.869 171.192 522.577 169.708 524.397 169.708C526.301 169.708 527.953 171.08 527.953 173.712H520.673ZM534.204 187.46H536.584V182.56V179.844C537.256 181.02 538.544 182.392 540.98 182.392C544.172 182.392 546.608 179.62 546.608 175.056C546.608 170.492 544.172 167.748 540.98 167.748C538.544 167.748 537.2 169.092 536.528 170.268V168.14H534.204V187.46ZM540.364 180.292C538.096 180.292 536.444 178.528 536.444 175.028C536.444 171.528 538.096 169.848 540.364 169.848C542.576 169.848 544.172 171.164 544.172 175.028C544.172 178.892 542.576 180.292 540.364 180.292ZM550.282 182H552.662V162.4H550.282V182ZM562.712 182.392C566.352 182.392 569.152 179.256 569.152 175.084C569.152 170.912 566.464 167.748 562.712 167.748C558.96 167.748 556.272 170.912 556.272 175.084C556.272 179.256 559.072 182.392 562.712 182.392ZM562.712 180.292C560.36 180.292 558.736 178.612 558.736 175.112C558.736 171.612 560.36 169.848 562.712 169.848C565.064 169.848 566.688 171.612 566.688 175.112C566.688 178.612 565.064 180.292 562.712 180.292ZM581.13 168.14L578.61 175.728C578.05 177.408 577.882 177.912 577.63 178.724C577.35 177.996 577.126 177.436 576.258 175.336L573.29 168.14H570.602L576.594 181.832L575.81 184.044C575.446 185.08 574.83 185.276 573.906 185.276H571.274V187.46H573.906C576.342 187.46 577.35 186.648 578.274 183.904L583.65 168.14H581.13Z" fill="#1D1D21"/><path d="M185 172C184.448 172 184 172.448 184 173C184 173.552 184.448 174 185 174L185 172ZM354.707 173.707C355.098 173.317 355.098 172.683 354.707 172.293L348.343 165.929C347.953 165.538 347.319 165.538 346.929 165.929C346.538 166.319 346.538 166.953 346.929 167.343L352.586 173L346.929 178.657C346.538 179.047 346.538 179.681 346.929 180.071C347.319 180.462 347.953 180.462 348.343 180.071L354.707 173.707ZM185 174L354 174L354 172L185 172L185 174Z" fill="#DA372C"/><path d="M190.728 156.224C193.544 156.224 194.968 154.576 194.968 151.68V144.8H193.528V151.472C193.528 153.52 192.664 154.848 190.728 154.848C188.792 154.848 187.928 153.536 187.928 151.472V144.8H186.488V151.68C186.488 154.816 188.136 156.224 190.728 156.224ZM198.101 156H199.541V144.8H198.101V156ZM206.624 146.528H208.064V144.8H206.624V146.528ZM206.672 156H208.032V148.08H206.672V156ZM210.719 156H212.079V152.64C212.079 151.472 212.127 149.056 214.303 149.056C215.359 149.056 216.047 149.664 216.047 151.152V156H217.407V150.832C217.407 149.072 216.607 147.856 214.639 147.856C212.927 147.856 212.159 149.072 212.047 149.424V148.08H210.719V156ZM222.609 156.224C224.001 156.224 224.769 155.456 225.153 154.784V156H226.481V144.8H225.121V147.76V149.312C224.737 148.64 224.001 147.856 222.609 147.856C220.785 147.856 219.393 149.44 219.393 152.048C219.393 154.656 220.785 156.224 222.609 156.224ZM222.961 155.024C221.697 155.024 220.785 154.272 220.785 152.064C220.785 149.856 221.697 149.056 222.961 149.056C224.257 149.056 225.201 150.064 225.201 152.064C225.201 154.064 224.257 155.024 222.961 155.024ZM229.124 146.528H230.564V144.8H229.124V146.528ZM229.172 156H230.532V148.08H229.172V156ZM236.371 156.224C238.147 156.224 239.299 155.184 239.811 153.712L238.531 153.264C238.275 154.128 237.683 155.024 236.371 155.024C235.059 155.024 234.035 154.064 234.035 152.032C234.035 150.048 235.091 149.056 236.355 149.056C237.507 149.056 238.083 149.808 238.339 150.56L239.603 150.144C239.235 148.912 238.147 147.856 236.355 147.856C234.163 147.856 232.611 149.584 232.611 152.032C232.611 154.592 234.083 156.224 236.371 156.224ZM244.249 156.224C245.641 156.224 246.409 155.456 246.793 154.784V156H248.121V148.08H246.761V149.312C246.377 148.64 245.641 147.856 244.249 147.856C242.425 147.856 241.033 149.44 241.033 152.048C241.033 154.656 242.425 156.224 244.249 156.224ZM244.601 155.024C243.337 155.024 242.425 154.272 242.425 152.064C242.425 149.856 243.337 149.056 244.601 149.056C245.897 149.056 246.841 150.064 246.841 152.064C246.841 154.064 245.897 155.024 244.601 155.024ZM253.565 156H255.389V154.8H253.741C253.181 154.8 252.941 154.56 252.941 154V149.232H255.101V148.08H252.941V145.6H251.581V148.08H249.741V149.232H251.581V154.08C251.581 155.392 252.253 156 253.565 156ZM260.088 156.224C262.168 156.224 263.767 154.432 263.767 152.048C263.767 149.664 262.232 147.856 260.088 147.856C257.944 147.856 256.408 149.664 256.408 152.048C256.408 154.432 258.008 156.224 260.088 156.224ZM260.088 155.024C258.744 155.024 257.816 154.064 257.816 152.064C257.816 150.064 258.744 149.056 260.088 149.056C261.432 149.056 262.36 150.064 262.36 152.064C262.36 154.064 261.432 155.024 260.088 155.024ZM265.828 156H267.188V152.368C267.188 150.512 267.924 149.376 269.716 149.376C270.036 149.376 270.308 149.408 270.564 149.456V148.064C270.372 148.016 270.132 147.968 269.748 147.968C268.244 147.968 267.428 149.136 267.172 149.728V148.08H265.828V156Z" fill="#6E6E78"/><path d="M517 53C517 52.4477 516.552 52 516 52C515.448 52 515 52.4477 515 53L517 53ZM515.293 149.707C515.683 150.098 516.317 150.098 516.707 149.707L523.071 143.343C523.462 142.953 523.462 142.319 523.071 141.929C522.681 141.538 522.047 141.538 521.657 141.929L516 147.586L510.343 141.929C509.953 141.538 509.319 141.538 508.929 141.929C508.538 142.319 508.538 142.953 508.929 143.343L515.293 149.707ZM515 53L515 149L517 149L517 53L515 53Z" fill="#DA372C"/><path d="M465.429 65H472.901V63.608H466.869V53.8H465.429V65ZM477.031 65.224C478.423 65.224 479.191 64.456 479.575 63.784V65H480.903V57.08H479.543V58.312C479.159 57.64 478.423 56.856 477.031 56.856C475.207 56.856 473.815 58.44 473.815 61.048C473.815 63.656 475.207 65.224 477.031 65.224ZM477.383 64.024C476.119 64.024 475.207 63.272 475.207 61.064C475.207 58.856 476.119 58.056 477.383 58.056C478.679 58.056 479.623 59.064 479.623 61.064C479.623 63.064 478.679 64.024 477.383 64.024ZM487.466 65.224C489.29 65.224 490.682 63.64 490.682 61.032C490.682 58.424 489.29 56.856 487.466 56.856C486.074 56.856 485.338 57.624 484.954 58.296V56.76V53.8H483.594V65H484.922V63.768C485.306 64.44 486.074 65.224 487.466 65.224ZM487.114 64.024C485.818 64.024 484.874 63.016 484.874 61.016C484.874 59.016 485.818 58.056 487.114 58.056C488.378 58.056 489.29 58.808 489.29 61.016C489.29 63.224 488.378 64.024 487.114 64.024ZM495.774 65.224C497.262 65.224 498.59 64.552 499.182 62.936L497.934 62.504C497.726 63.016 497.166 64.04 495.822 64.04C494.718 64.04 493.614 63.4 493.534 61.4H499.118C499.422 58.808 497.998 56.856 495.694 56.856C493.678 56.856 492.19 58.472 492.19 61.08C492.19 63.768 493.614 65.224 495.774 65.224ZM493.566 60.264C493.678 58.824 494.654 57.976 495.694 57.976C496.782 57.976 497.726 58.76 497.726 60.264H493.566ZM501.297 65H502.657V53.8H501.297V65Z" fill="#6E6E78"/><path d="M415 295C415 295.552 415.448 296 416 296C416.552 296 417 295.552 417 295L415 295ZM416.707 208.293C416.317 207.902 415.683 207.902 415.293 208.293L408.929 214.657C408.538 215.047 408.538 215.681 408.929 216.071C409.319 216.462 409.953 216.462 410.343 216.071L416 210.414L421.657 216.071C422.047 216.462 422.681 216.462 423.071 216.071C423.462 215.681 423.462 215.047 423.071 214.657L416.707 208.293ZM417 295L417 209L415 209L415 295L417 295Z" fill="#DA372C"/><path d="M326.975 296.68H328.175V295.208C330.447 295.032 331.695 293.72 331.695 291.896C331.695 290.2 330.431 289.24 328.655 288.792L328.175 288.664V284.952C329.471 285.208 329.983 286.2 330.191 286.792L331.519 286.136C331.231 285.192 330.191 283.832 328.175 283.608V282.12H326.975V283.608C325.071 283.832 323.807 285.064 323.807 286.712C323.807 288.568 324.959 289.384 326.607 289.736L326.975 289.816V293.848C325.727 293.576 324.975 292.664 324.607 291.544L323.247 292.2C323.743 293.768 325.007 294.952 326.975 295.192V296.68ZM326.975 288.392C325.727 288.072 325.183 287.592 325.183 286.632C325.183 285.72 325.855 285.032 326.975 284.904V286.968V288.392ZM328.175 293.912V291.848V290.088C329.567 290.408 330.239 291.032 330.239 292.024C330.239 293.064 329.487 293.784 328.175 293.912ZM336.391 295.224C338.391 295.224 339.543 294.28 339.543 292.792C339.543 290.984 337.671 290.504 336.871 290.344L335.959 290.168C334.823 289.944 334.567 289.624 334.567 289.096C334.567 288.52 335.079 287.976 336.183 287.976C337.527 287.976 337.975 288.824 338.167 289.352L339.399 288.904C339.079 287.864 338.151 286.856 336.183 286.856C334.631 286.856 333.287 287.816 333.287 289.24C333.287 290.744 334.439 291.24 335.751 291.496L336.663 291.672C337.815 291.896 338.183 292.312 338.183 292.904C338.183 293.656 337.543 294.056 336.391 294.056C335.143 294.056 334.503 293.464 334.263 292.52L332.951 292.952C333.303 294.472 334.775 295.224 336.391 295.224ZM341.578 298.12H342.938V295.32V293.768C343.322 294.44 344.058 295.224 345.45 295.224C347.274 295.224 348.666 293.64 348.666 291.032C348.666 288.424 347.274 286.856 345.45 286.856C344.058 286.856 343.29 287.624 342.906 288.296V287.08H341.578V298.12ZM345.098 294.024C343.802 294.024 342.858 293.016 342.858 291.016C342.858 289.016 343.802 288.056 345.098 288.056C346.362 288.056 347.274 288.808 347.274 291.016C347.274 293.224 346.362 294.024 345.098 294.024ZM353.39 295.224C354.782 295.224 355.55 294.456 355.934 293.784V295H357.262V287.08H355.902V288.312C355.518 287.64 354.782 286.856 353.39 286.856C351.566 286.856 350.174 288.44 350.174 291.048C350.174 293.656 351.566 295.224 353.39 295.224ZM353.742 294.024C352.478 294.024 351.566 293.272 351.566 291.064C351.566 288.856 352.478 288.056 353.742 288.056C355.038 288.056 355.982 289.064 355.982 291.064C355.982 293.064 355.038 294.024 353.742 294.024ZM363.105 295.224C364.881 295.224 366.033 294.184 366.545 292.712L365.265 292.264C365.009 293.128 364.417 294.024 363.105 294.024C361.793 294.024 360.769 293.064 360.769 291.032C360.769 289.048 361.825 288.056 363.089 288.056C364.241 288.056 364.817 288.808 365.073 289.56L366.337 289.144C365.969 287.912 364.881 286.856 363.089 286.856C360.897 286.856 359.345 288.584 359.345 291.032C359.345 293.592 360.817 295.224 363.105 295.224ZM368.312 285.528H369.752V283.8H368.312V285.528ZM368.36 295H369.72V287.08H368.36V295ZM372.407 295H373.767V291.64C373.767 290.472 373.815 288.056 375.991 288.056C377.047 288.056 377.735 288.664 377.735 290.152V295H379.095V289.832C379.095 288.072 378.295 286.856 376.327 286.856C374.615 286.856 373.847 288.072 373.735 288.424V287.08H372.407V295ZM382.952 298.12H386.648C387.992 298.12 389.128 297.416 389.128 295.944C389.128 294.616 388.136 293.752 386.616 293.752H383.16C382.6 293.752 382.488 293.464 382.488 293.208C382.488 292.92 382.776 292.616 383.208 292.424C383.64 292.68 384.136 292.728 384.68 292.728C386.44 292.728 387.64 291.56 387.768 289.768L387.8 289.336C387.864 288.408 388.136 288.232 388.856 288.232H389.464V287.08H388.616C387.848 287.08 387.48 287.608 387.32 288.216C386.984 287.656 386.152 286.856 384.68 286.856C382.856 286.856 381.528 288.152 381.528 289.8C381.528 290.792 381.96 291.512 382.408 291.912C381.896 292.28 381.24 292.808 381.24 293.592C381.24 294.216 381.496 294.584 381.944 294.856C381.464 295.128 380.888 295.72 380.888 296.52C380.888 297.448 381.432 298.12 382.952 298.12ZM384.68 291.608C383.608 291.608 382.904 290.888 382.904 289.8C382.904 288.712 383.608 287.976 384.68 287.976C385.752 287.976 386.456 288.712 386.456 289.8C386.456 290.888 385.752 291.608 384.68 291.608ZM383.416 296.904C382.584 296.904 382.136 296.728 382.136 296.072C382.136 295.528 382.488 295.176 382.76 295H386.504C387.128 295 387.752 295.128 387.752 295.944C387.752 296.76 387.128 296.904 386.504 296.904H383.416ZM390.62 290.776H395.036V289.336H390.62V290.776ZM400.157 295.224C402.157 295.224 403.309 294.28 403.309 292.792C403.309 290.984 401.437 290.504 400.637 290.344L399.725 290.168C398.589 289.944 398.333 289.624 398.333 289.096C398.333 288.52 398.845 287.976 399.949 287.976C401.293 287.976 401.741 288.824 401.933 289.352L403.165 288.904C402.845 287.864 401.917 286.856 399.949 286.856C398.397 286.856 397.053 287.816 397.053 289.24C397.053 290.744 398.205 291.24 399.517 291.496L400.429 291.672C401.581 291.896 401.949 292.312 401.949 292.904C401.949 293.656 401.309 294.056 400.157 294.056C398.909 294.056 398.269 293.464 398.029 292.52L396.717 292.952C397.069 294.472 398.541 295.224 400.157 295.224Z" fill="#6E6E78"/><path opacity="0.2" fill="#DA372C" d="M404 149H428V197H404z"/></svg>