<svg viewBox="0 0 958 346" fill="none" xmlns="http://www.w3.org/2000/svg"><path d="M271.912 126H276.072V117.104H286.12V113.52H276.072V107.152H288.712V103.6H271.912V126ZM291.677 107.536H295.837V103.568H291.677V107.536ZM291.837 126H295.709V110.064H291.837V126ZM300.399 126H304.303V119.28C304.303 115.376 305.743 113.744 309.135 113.744C309.711 113.744 310.287 113.776 310.863 113.872V109.872C310.575 109.808 310.255 109.776 309.807 109.776C306.255 109.776 304.751 112.304 304.239 113.584V110.064H300.399V126ZM319.537 126.448C323.985 126.448 326.577 124.432 326.577 121.328C326.577 118.064 323.633 116.848 321.105 116.368L319.057 115.952C317.137 115.6 316.625 115.088 316.625 114.192C316.625 113.232 317.489 112.4 319.249 112.4C321.233 112.4 322.289 113.616 322.737 114.832L326.033 113.424C325.361 111.632 323.377 109.584 319.377 109.584C315.537 109.584 312.913 111.568 312.913 114.544C312.913 117.648 314.961 118.704 318.065 119.312L320.177 119.728C322.065 120.112 322.545 120.816 322.545 121.712C322.545 122.832 321.553 123.568 319.697 123.568C316.817 123.568 316.049 121.616 315.857 120.72L312.241 121.872C312.945 124.784 315.953 126.448 319.537 126.448ZM335.438 126H340.174V122.8H336.782C335.758 122.8 335.31 122.352 335.31 121.328V113.104H339.534V110.064H335.31V105.04H331.406V110.064H327.95V113.104H331.406V121.936C331.406 124.464 332.846 126 335.438 126ZM351.087 126H354.991V118.736C354.991 116.784 355.055 112.848 358.639 112.848C360.399 112.848 361.519 113.872 361.519 116.272V126H365.423V115.408C365.423 111.92 363.855 109.584 360.047 109.584C356.943 109.584 355.407 111.664 354.895 112.592V110.064H351.087V126ZM374.121 126.48C376.809 126.48 378.505 125.136 379.465 123.632C379.657 125.04 380.361 126 382.377 126H385.385V122.928H383.881C383.049 122.928 382.921 122.736 382.921 121.968V115.536C382.921 111.632 380.521 109.584 376.137 109.584C371.657 109.584 369.161 111.92 368.777 114.288L372.393 115.216C372.777 113.808 373.769 112.56 376.137 112.56C378.185 112.56 379.081 113.488 379.081 115.056V115.6C373.801 116.08 369.033 117.456 369.033 121.904C369.033 124.72 371.145 126.48 374.121 126.48ZM375.401 123.536C373.801 123.536 373.001 122.736 373.001 121.52C373.001 119.248 375.785 118.544 379.081 118.16V119.44C379.081 122.288 377.289 123.536 375.401 123.536ZM387.931 126H391.835V118.128C391.835 116.272 391.963 112.88 395.195 112.88C396.891 112.88 398.043 113.808 398.043 116.272V126H401.883V118.128C401.883 116.272 401.947 112.88 405.211 112.88C406.939 112.88 408.059 113.808 408.059 116.272V126H411.963V115.376C411.963 111.376 409.787 109.584 406.587 109.584C404.059 109.584 402.395 110.768 401.243 112.592C400.347 110.768 398.747 109.584 396.507 109.584C394.235 109.584 392.603 110.8 391.739 112.4V110.064H387.931V126ZM423.212 126.48C427.404 126.48 429.644 124.304 430.668 121.84L427.148 120.528C426.572 121.872 425.516 123.408 423.244 123.408C421.196 123.408 419.468 122.224 419.308 118.992H430.572C431.084 113.712 428.236 109.584 423.148 109.584C418.732 109.584 415.436 112.944 415.436 118.032C415.436 123.344 418.508 126.48 423.212 126.48ZM419.436 116.112C419.724 113.808 421.228 112.496 423.148 112.496C425.164 112.496 426.572 113.776 426.7 116.112H419.436Z" fill="#1D1D21"/><rect x="270" y="152" width="418" height="74" rx="7" fill="#fff"/><path d="M295.884 198H298.404V189.04H309.044V198H311.564V178.4H309.044V186.66H298.404V178.4H295.884V198ZM321.919 198.392C325.559 198.392 328.359 195.256 328.359 191.084C328.359 186.912 325.671 183.748 321.919 183.748C318.167 183.748 315.479 186.912 315.479 191.084C315.479 195.256 318.279 198.392 321.919 198.392ZM321.919 196.292C319.567 196.292 317.943 194.612 317.943 191.112C317.943 187.612 319.567 185.848 321.919 185.848C324.271 185.848 325.895 187.612 325.895 191.112C325.895 194.612 324.271 196.292 321.919 196.292ZM331.965 198H334.345V191.56C334.345 189.572 334.513 185.876 337.901 185.876C339.749 185.876 340.981 186.828 340.981 189.516V198H343.305V191.56C343.305 189.572 343.389 185.876 346.889 185.876C348.737 185.876 349.941 186.828 349.941 189.516V198H352.321V188.816C352.321 185.596 350.641 183.748 347.477 183.748C344.537 183.748 343.305 185.568 342.829 186.716C342.129 184.84 340.505 183.748 338.461 183.748C335.969 183.748 334.793 185.344 334.289 186.24V184.14H331.965V198ZM362.057 198.392C364.661 198.392 366.985 197.216 368.021 194.388L365.837 193.632C365.473 194.528 364.493 196.32 362.141 196.32C360.209 196.32 358.277 195.2 358.137 191.7H367.909C368.441 187.164 365.949 183.748 361.917 183.748C358.389 183.748 355.785 186.576 355.785 191.14C355.785 195.844 358.277 198.392 362.057 198.392ZM358.193 189.712C358.389 187.192 360.097 185.708 361.917 185.708C363.821 185.708 365.473 187.08 365.473 189.712H358.193ZM371.723 198H374.103V191.644C374.103 188.396 375.391 186.408 378.527 186.408C379.087 186.408 379.563 186.464 380.011 186.548V184.112C379.675 184.028 379.255 183.944 378.583 183.944C375.951 183.944 374.523 185.988 374.075 187.024V184.14H371.723V198Z" fill="#1D1D21"/><rect x="270" y="152" width="418" height="74" rx="7" stroke="#8C8C96" stroke-width="2"/><path opacity="0.2" fill="#DA372C" d="M269 139H689V151H269z"/><path d="M788 190C788.552 190 789 189.552 789 189C789 188.448 788.552 188 788 188L788 190ZM579.293 188.293C578.902 188.683 578.902 189.317 579.293 189.707L585.657 196.071C586.047 196.462 586.681 196.462 587.071 196.071C587.462 195.681 587.462 195.047 587.071 194.657L581.414 189L587.071 183.343C587.462 182.953 587.462 182.319 587.071 181.929C586.681 181.538 586.047 181.538 585.657 181.929L579.293 188.293ZM788 188L580 188L580 190L788 190L788 188Z" fill="#DA372C"/><path d="M797.648 194H799.088V182.8H797.648V194ZM802.078 194H803.438V190.64C803.438 189.472 803.486 187.056 805.662 187.056C806.718 187.056 807.406 187.664 807.406 189.152V194H808.766V188.832C808.766 187.072 807.966 185.856 805.998 185.856C804.286 185.856 803.518 187.072 803.406 187.424V186.08H802.078V194ZM811.344 197.12H812.704V194.32V192.768C813.088 193.44 813.824 194.224 815.216 194.224C817.04 194.224 818.432 192.64 818.432 190.032C818.432 187.424 817.04 185.856 815.216 185.856C813.824 185.856 813.056 186.624 812.672 187.296V186.08H811.344V197.12ZM814.864 193.024C813.568 193.024 812.624 192.016 812.624 190.016C812.624 188.016 813.568 187.056 814.864 187.056C816.128 187.056 817.04 187.808 817.04 190.016C817.04 192.224 816.128 193.024 814.864 193.024ZM823.06 194.224C824.708 194.224 825.46 193.056 825.7 192.624V194H827.028V186.08H825.668V189.44C825.668 190.656 825.636 193.024 823.492 193.024C822.452 193.024 821.78 192.416 821.78 190.928V186.08H820.42V191.248C820.42 193.008 821.204 194.224 823.06 194.224ZM832.471 194H834.295V192.8H832.647C832.087 192.8 831.847 192.56 831.847 192V187.232H834.007V186.08H831.847V183.6H830.487V186.08H828.647V187.232H830.487V192.08C830.487 193.392 831.159 194 832.471 194ZM847.107 186.08H841.987V184.8C841.987 184.24 842.227 184 842.786 184H844.355V182.8H842.627C841.315 182.8 840.627 183.424 840.627 184.896V186.08H838.867V187.232H840.627V194H841.987V187.232H845.747V194H847.107V186.08ZM845.699 182.8V184.528H847.139V182.8H845.699ZM852.789 194.224C854.277 194.224 855.605 193.552 856.197 191.936L854.949 191.504C854.741 192.016 854.181 193.04 852.837 193.04C851.733 193.04 850.629 192.4 850.549 190.4H856.133C856.437 187.808 855.013 185.856 852.709 185.856C850.693 185.856 849.205 187.472 849.205 190.08C849.205 192.768 850.629 194.224 852.789 194.224ZM850.581 189.264C850.693 187.824 851.669 186.976 852.709 186.976C853.797 186.976 854.741 187.76 854.741 189.264H850.581ZM858.313 194H859.673V182.8H858.313V194ZM864.984 194.224C866.376 194.224 867.144 193.456 867.528 192.784V194H868.856V182.8H867.496V185.76V187.312C867.112 186.64 866.376 185.856 864.984 185.856C863.16 185.856 861.768 187.44 861.768 190.048C861.768 192.656 863.16 194.224 864.984 194.224ZM865.336 193.024C864.072 193.024 863.16 192.272 863.16 190.064C863.16 187.856 864.072 187.056 865.336 187.056C866.632 187.056 867.576 188.064 867.576 190.064C867.576 192.064 866.632 193.024 865.336 193.024Z" fill="#6E6E78"/><path d="M792 144C792.552 144 793 143.552 793 143C793 142.448 792.552 142 792 142V144ZM704.293 142.293C703.902 142.683 703.902 143.317 704.293 143.707L710.657 150.071C711.047 150.462 711.681 150.462 712.071 150.071C712.462 149.681 712.462 149.047 712.071 148.657L706.414 143L712.071 137.343C712.462 136.953 712.462 136.319 712.071 135.929C711.681 135.538 711.047 135.538 710.657 135.929L704.293 142.293ZM792 142H705V144H792V142Z" fill="#DA372C"/><path d="M802.256 149.68H803.456V148.208C805.728 148.032 806.976 146.72 806.976 144.896C806.976 143.2 805.712 142.24 803.936 141.792L803.456 141.664V137.952C804.752 138.208 805.264 139.2 805.472 139.792L806.8 139.136C806.512 138.192 805.472 136.832 803.456 136.608V135.12H802.256V136.608C800.352 136.832 799.088 138.064 799.088 139.712C799.088 141.568 800.24 142.384 801.888 142.736L802.256 142.816V146.848C801.008 146.576 800.256 145.664 799.888 144.544L798.528 145.2C799.024 146.768 800.288 147.952 802.256 148.192V149.68ZM802.256 141.392C801.008 141.072 800.464 140.592 800.464 139.632C800.464 138.72 801.136 138.032 802.256 137.904V139.968V141.392ZM803.456 146.912V144.848V143.088C804.848 143.408 805.52 144.032 805.52 145.024C805.52 146.064 804.768 146.784 803.456 146.912ZM811.672 148.224C813.672 148.224 814.824 147.28 814.824 145.792C814.824 143.984 812.952 143.504 812.152 143.344L811.24 143.168C810.104 142.944 809.848 142.624 809.848 142.096C809.848 141.52 810.36 140.976 811.464 140.976C812.808 140.976 813.256 141.824 813.448 142.352L814.68 141.904C814.36 140.864 813.432 139.856 811.464 139.856C809.912 139.856 808.568 140.816 808.568 142.24C808.568 143.744 809.72 144.24 811.032 144.496L811.944 144.672C813.096 144.896 813.464 145.312 813.464 145.904C813.464 146.656 812.824 147.056 811.672 147.056C810.424 147.056 809.784 146.464 809.544 145.52L808.232 145.952C808.584 147.472 810.056 148.224 811.672 148.224ZM816.86 151.12H818.22V148.32V146.768C818.604 147.44 819.34 148.224 820.732 148.224C822.556 148.224 823.948 146.64 823.948 144.032C823.948 141.424 822.556 139.856 820.732 139.856C819.34 139.856 818.572 140.624 818.188 141.296V140.08H816.86V151.12ZM820.38 147.024C819.084 147.024 818.14 146.016 818.14 144.016C818.14 142.016 819.084 141.056 820.38 141.056C821.644 141.056 822.556 141.808 822.556 144.016C822.556 146.224 821.644 147.024 820.38 147.024ZM828.671 148.224C830.063 148.224 830.831 147.456 831.215 146.784V148H832.543V140.08H831.183V141.312C830.799 140.64 830.063 139.856 828.671 139.856C826.847 139.856 825.455 141.44 825.455 144.048C825.455 146.656 826.847 148.224 828.671 148.224ZM829.023 147.024C827.759 147.024 826.847 146.272 826.847 144.064C826.847 141.856 827.759 141.056 829.023 141.056C830.319 141.056 831.263 142.064 831.263 144.064C831.263 146.064 830.319 147.024 829.023 147.024ZM838.387 148.224C840.163 148.224 841.315 147.184 841.827 145.712L840.547 145.264C840.291 146.128 839.699 147.024 838.387 147.024C837.075 147.024 836.051 146.064 836.051 144.032C836.051 142.048 837.107 141.056 838.371 141.056C839.523 141.056 840.099 141.808 840.355 142.56L841.619 142.144C841.251 140.912 840.163 139.856 838.371 139.856C836.179 139.856 834.627 141.584 834.627 144.032C834.627 146.592 836.099 148.224 838.387 148.224ZM843.593 138.528H845.033V136.8H843.593V138.528ZM843.641 148H845.001V140.08H843.641V148ZM847.688 148H849.048V144.64C849.048 143.472 849.096 141.056 851.272 141.056C852.328 141.056 853.016 141.664 853.016 143.152V148H854.376V142.832C854.376 141.072 853.576 139.856 851.608 139.856C849.896 139.856 849.128 141.072 849.016 141.424V140.08H847.688V148ZM858.233 151.12H861.929C863.273 151.12 864.409 150.416 864.409 148.944C864.409 147.616 863.417 146.752 861.897 146.752H858.441C857.881 146.752 857.769 146.464 857.769 146.208C857.769 145.92 858.057 145.616 858.489 145.424C858.921 145.68 859.417 145.728 859.961 145.728C861.721 145.728 862.921 144.56 863.049 142.768L863.081 142.336C863.145 141.408 863.417 141.232 864.137 141.232H864.745V140.08H863.897C863.129 140.08 862.761 140.608 862.601 141.216C862.265 140.656 861.433 139.856 859.961 139.856C858.137 139.856 856.809 141.152 856.809 142.8C856.809 143.792 857.241 144.512 857.689 144.912C857.177 145.28 856.521 145.808 856.521 146.592C856.521 147.216 856.777 147.584 857.225 147.856C856.745 148.128 856.169 148.72 856.169 149.52C856.169 150.448 856.713 151.12 858.233 151.12ZM859.961 144.608C858.889 144.608 858.185 143.888 858.185 142.8C858.185 141.712 858.889 140.976 859.961 140.976C861.033 140.976 861.737 141.712 861.737 142.8C861.737 143.888 861.033 144.608 859.961 144.608ZM858.697 149.904C857.865 149.904 857.417 149.728 857.417 149.072C857.417 148.528 857.769 148.176 858.041 148H861.785C862.409 148 863.033 148.128 863.033 148.944C863.033 149.76 862.409 149.904 861.785 149.904H858.697ZM865.901 143.776H870.317V142.336H865.901V143.776ZM871.367 148H872.855L873.863 146.496L874.871 144.976C875.095 145.328 875.271 145.6 875.863 146.496L876.855 148H878.487L875.735 143.968L878.327 140.08H876.823L875.959 141.44C875.351 142.384 875.159 142.672 874.935 142.992C874.743 142.672 874.567 142.384 873.975 141.44L873.111 140.08H871.527L874.087 143.952L871.367 148ZM882.813 148.224C884.813 148.224 885.965 147.28 885.965 145.792C885.965 143.984 884.093 143.504 883.293 143.344L882.381 143.168C881.245 142.944 880.989 142.624 880.989 142.096C880.989 141.52 881.501 140.976 882.605 140.976C883.949 140.976 884.397 141.824 884.589 142.352L885.821 141.904C885.501 140.864 884.573 139.856 882.605 139.856C881.053 139.856 879.709 140.816 879.709 142.24C879.709 143.744 880.861 144.24 882.173 144.496L883.085 144.672C884.237 144.896 884.605 145.312 884.605 145.904C884.605 146.656 883.965 147.056 882.813 147.056C881.565 147.056 880.925 146.464 880.685 145.52L879.373 145.952C879.725 147.472 881.197 148.224 882.813 148.224Z" fill="#6E6E78"/><path d="M182 114C181.448 114 181 114.448 181 115C181 115.552 181.448 116 182 116V114ZM257.707 115.707C258.098 115.317 258.098 114.683 257.707 114.293L251.343 107.929C250.953 107.538 250.319 107.538 249.929 107.929C249.538 108.319 249.538 108.953 249.929 109.343L255.586 115L249.929 120.657C249.538 121.047 249.538 121.681 249.929 122.071C250.319 122.462 250.953 122.462 251.343 122.071L257.707 115.707ZM182 116H257V114H182V116Z" fill="#DA372C"/><path d="M131.429 120H138.901V118.608H132.869V108.8H131.429V120ZM143.031 120.224C144.423 120.224 145.191 119.456 145.575 118.784V120H146.903V112.08H145.543V113.312C145.159 112.64 144.423 111.856 143.031 111.856C141.207 111.856 139.815 113.44 139.815 116.048C139.815 118.656 141.207 120.224 143.031 120.224ZM143.383 119.024C142.119 119.024 141.207 118.272 141.207 116.064C141.207 113.856 142.119 113.056 143.383 113.056C144.679 113.056 145.623 114.064 145.623 116.064C145.623 118.064 144.679 119.024 143.383 119.024ZM153.466 120.224C155.29 120.224 156.682 118.64 156.682 116.032C156.682 113.424 155.29 111.856 153.466 111.856C152.074 111.856 151.338 112.624 150.954 113.296V111.76V108.8H149.594V120H150.922V118.768C151.306 119.44 152.074 120.224 153.466 120.224ZM153.114 119.024C151.818 119.024 150.874 118.016 150.874 116.016C150.874 114.016 151.818 113.056 153.114 113.056C154.378 113.056 155.29 113.808 155.29 116.016C155.29 118.224 154.378 119.024 153.114 119.024ZM161.774 120.224C163.262 120.224 164.59 119.552 165.182 117.936L163.934 117.504C163.726 118.016 163.166 119.04 161.822 119.04C160.718 119.04 159.614 118.4 159.534 116.4H165.118C165.422 113.808 163.998 111.856 161.694 111.856C159.678 111.856 158.19 113.472 158.19 116.08C158.19 118.768 159.614 120.224 161.774 120.224ZM159.566 115.264C159.678 113.824 160.654 112.976 161.694 112.976C162.782 112.976 163.726 113.76 163.726 115.264H159.566ZM167.297 120H168.657V108.8H167.297V120Z" fill="#6E6E78"/><path d="M182 188C181.448 188 181 188.448 181 189C181 189.552 181.448 190 182 190L182 188ZM283.707 189.707C284.098 189.317 284.098 188.683 283.707 188.293L277.343 181.929C276.953 181.538 276.319 181.538 275.929 181.929C275.538 182.319 275.538 182.953 275.929 183.343L281.586 189L275.929 194.657C275.538 195.047 275.538 195.681 275.929 196.071C276.319 196.462 276.953 196.462 277.343 196.071L283.707 189.707ZM182 190L283 190L283 188L182 188L182 190Z" fill="#DA372C"/><path d="M133.408 194H135.568L139.184 182.8H137.6L135.2 190.464L134.496 192.688L133.808 190.448L131.44 182.8H129.84L133.408 194ZM143.031 194.224C144.423 194.224 145.191 193.456 145.575 192.784V194H146.903V186.08H145.543V187.312C145.159 186.64 144.423 185.856 143.031 185.856C141.207 185.856 139.815 187.44 139.815 190.048C139.815 192.656 141.207 194.224 143.031 194.224ZM143.383 193.024C142.119 193.024 141.207 192.272 141.207 190.064C141.207 187.856 142.119 187.056 143.383 187.056C144.679 187.056 145.623 188.064 145.623 190.064C145.623 192.064 144.679 193.024 143.383 193.024ZM149.594 194H150.954V182.8H149.594V194ZM156.169 194.224C157.817 194.224 158.569 193.056 158.809 192.624V194H160.137V186.08H158.777V189.44C158.777 190.656 158.745 193.024 156.601 193.024C155.561 193.024 154.889 192.416 154.889 190.928V186.08H153.529V191.248C153.529 193.008 154.313 194.224 156.169 194.224ZM165.82 194.224C167.308 194.224 168.636 193.552 169.228 191.936L167.98 191.504C167.772 192.016 167.212 193.04 165.868 193.04C164.764 193.04 163.66 192.4 163.58 190.4H169.164C169.468 187.808 168.044 185.856 165.74 185.856C163.724 185.856 162.236 187.472 162.236 190.08C162.236 192.768 163.66 194.224 165.82 194.224ZM163.612 189.264C163.724 187.824 164.7 186.976 165.74 186.976C166.828 186.976 167.772 187.76 167.772 189.264H163.612Z" fill="#6E6E78"/></svg>