<svg viewBox="0 0 958 346" fill="none" xmlns="http://www.w3.org/2000/svg"><path d="M255.24 189H261.72L272.568 155.4H267.816L260.616 178.392L258.504 185.064L256.44 178.344L249.336 155.4H244.536L255.24 189ZM277.497 160.584H281.817V155.4H277.497V160.584ZM277.641 189H281.721V165.24H277.641V189ZM298.758 189.672C303.222 189.672 307.206 187.656 308.982 182.808L305.238 181.512C304.614 183.048 302.934 186.12 298.902 186.12C295.59 186.12 292.278 184.2 292.038 178.2H308.79C309.702 170.424 305.43 164.568 298.518 164.568C292.47 164.568 288.006 169.416 288.006 177.24C288.006 185.304 292.278 189.672 298.758 189.672ZM292.134 174.792C292.47 170.472 295.398 167.928 298.518 167.928C301.782 167.928 304.614 170.28 304.614 174.792H292.134ZM320.321 189H324.929L328.673 177.288C330.113 172.776 330.593 171.288 331.073 169.848L333.425 177.288L337.073 189H341.825L349.889 165.24H345.569L341.825 177.096C340.433 181.464 339.809 183.384 339.425 184.488L337.553 178.392L333.473 165.24H328.769L325.073 177.096L322.769 184.488C322.385 183.192 321.905 181.656 320.465 177.096L316.769 165.24H312.497L320.321 189ZM366.657 189H370.737V155.4H366.657V189ZM384.942 189.672C388.638 189.672 390.894 188.088 392.67 185.4C392.958 187.368 393.486 189 397.086 189H400.206V185.4H397.71C396.606 185.4 396.318 185.112 396.318 184.008V172.728C396.318 167.832 393.39 164.568 387.054 164.568C380.862 164.568 377.598 167.928 376.734 171.096L380.718 172.536C381.342 170.76 382.638 168.168 387.006 168.168C390.654 168.168 392.238 169.896 392.238 172.776V173.448C384.51 174.072 377.262 176.328 377.262 182.856C377.262 187.08 380.238 189.672 384.942 189.672ZM385.902 186.216C382.926 186.216 381.486 184.776 381.486 182.52C381.486 178.632 386.43 177.144 392.238 176.52V179.16C392.238 184.104 389.022 186.216 385.902 186.216ZM412.163 189.672C417.107 189.672 419.363 186.168 420.083 184.872V189H424.067V165.24H419.987V175.32C419.987 178.968 419.891 186.072 413.459 186.072C410.339 186.072 408.323 184.248 408.323 179.784V165.24H404.243V180.744C404.243 186.024 406.595 189.672 412.163 189.672ZM432.141 189H436.221V178.92C436.221 175.416 436.365 168.168 442.893 168.168C446.061 168.168 448.125 169.992 448.125 174.456V189H452.205V173.496C452.205 168.216 449.805 164.568 443.901 164.568C438.765 164.568 436.461 168.216 436.125 169.272V165.24H432.141V189ZM469.394 189.672C474.722 189.672 478.178 186.552 479.714 182.136L475.874 180.792C475.106 183.384 473.33 186.072 469.394 186.072C465.458 186.072 462.386 183.192 462.386 177.096C462.386 171.144 465.554 168.168 469.346 168.168C472.802 168.168 474.53 170.424 475.298 172.68L479.09 171.432C477.986 167.736 474.722 164.568 469.346 164.568C462.77 164.568 458.114 169.752 458.114 177.096C458.114 184.776 462.53 189.672 469.394 189.672ZM485.157 189H489.237V178.92C489.237 175.416 489.381 168.168 495.909 168.168C499.077 168.168 501.141 169.992 501.141 174.456V189H505.221V173.496C505.221 168.216 502.629 164.568 497.205 164.568C491.589 164.568 489.573 168.216 489.237 169.272V164.28V155.4H485.157V189ZM533.248 189.672C537.424 189.672 539.728 187.368 540.88 185.352V189H544.864V155.4H540.784V164.28V168.936C539.632 166.92 537.424 164.568 533.248 164.568C527.776 164.568 523.6 169.32 523.6 177.144C523.6 184.968 527.776 189.672 533.248 189.672ZM534.304 186.072C530.512 186.072 527.776 183.816 527.776 177.192C527.776 170.568 530.512 168.168 534.304 168.168C538.192 168.168 541.024 171.192 541.024 177.192C541.024 183.192 538.192 186.072 534.304 186.072ZM559.082 189.672C562.778 189.672 565.034 188.088 566.81 185.4C567.098 187.368 567.626 189 571.226 189H574.346V185.4H571.85C570.746 185.4 570.458 185.112 570.458 184.008V172.728C570.458 167.832 567.53 164.568 561.194 164.568C555.002 164.568 551.738 167.928 550.874 171.096L554.858 172.536C555.482 170.76 556.778 168.168 561.146 168.168C564.794 168.168 566.378 169.896 566.378 172.776V173.448C558.65 174.072 551.402 176.328 551.402 182.856C551.402 187.08 554.378 189.672 559.082 189.672ZM560.042 186.216C557.066 186.216 555.626 184.776 555.626 182.52C555.626 178.632 560.57 177.144 566.378 176.52V179.16C566.378 184.104 563.162 186.216 560.042 186.216ZM586.647 189H592.119V185.4H587.175C585.495 185.4 584.775 184.68 584.775 183V168.696H591.255V165.24H584.775V157.8H580.695V165.24H575.175V168.696H580.695V183.24C580.695 187.176 582.711 189 586.647 189ZM603.426 189.672C607.122 189.672 609.378 188.088 611.154 185.4C611.442 187.368 611.97 189 615.57 189H618.69V185.4H616.194C615.09 185.4 614.802 185.112 614.802 184.008V172.728C614.802 167.832 611.874 164.568 605.538 164.568C599.346 164.568 596.082 167.928 595.218 171.096L599.202 172.536C599.826 170.76 601.122 168.168 605.49 168.168C609.138 168.168 610.722 169.896 610.722 172.776V173.448C602.994 174.072 595.746 176.328 595.746 182.856C595.746 187.08 598.722 189.672 603.426 189.672ZM604.386 186.216C601.41 186.216 599.97 184.776 599.97 182.52C599.97 178.632 604.914 177.144 610.722 176.52V179.16C610.722 184.104 607.506 186.216 604.386 186.216Z" fill="#1662DD"/><path d="M688.484 160H675C673.895 160 673 160.895 673 162V188C673 189.105 673.895 190 675 190H701C702.105 190 703 189.105 703 188V174.516M696 152H711M711 152V166M711 152L685 177" stroke="#1662DD" stroke-width="6" stroke-linecap="round" stroke-linejoin="round"/><path opacity="0.2" fill="#DA372C" d="M620 142H668V204H620z"/><path d="M643 61C643 60.4477 643.448 60 644 60C644.552 60 645 60.4477 645 61L643 61ZM644.707 131.207C644.317 131.598 643.683 131.598 643.293 131.207L636.929 124.843C636.538 124.453 636.538 123.819 636.929 123.429C637.319 123.038 637.953 123.038 638.343 123.429L644 129.086L649.657 123.429C650.047 123.038 650.681 123.038 651.071 123.429C651.462 123.819 651.462 124.453 651.071 124.843L644.707 131.207ZM645 61L645 130.5L643 130.5L643 61L645 61Z" fill="#DA372C"/><path d="M547.256 73.68H548.456V72.208C550.728 72.032 551.976 70.72 551.976 68.896C551.976 67.2 550.712 66.24 548.936 65.792L548.456 65.664V61.952C549.752 62.208 550.264 63.2 550.472 63.792L551.8 63.136C551.512 62.192 550.472 60.832 548.456 60.608V59.12H547.256V60.608C545.352 60.832 544.088 62.064 544.088 63.712C544.088 65.568 545.24 66.384 546.888 66.736L547.256 66.816V70.848C546.008 70.576 545.256 69.664 544.888 68.544L543.528 69.2C544.024 70.768 545.288 71.952 547.256 72.192V73.68ZM547.256 65.392C546.008 65.072 545.464 64.592 545.464 63.632C545.464 62.72 546.136 62.032 547.256 61.904V63.968V65.392ZM548.456 70.912V68.848V67.088C549.848 67.408 550.52 68.032 550.52 69.024C550.52 70.064 549.768 70.784 548.456 70.912ZM556.672 72.224C558.672 72.224 559.824 71.28 559.824 69.792C559.824 67.984 557.952 67.504 557.152 67.344L556.24 67.168C555.104 66.944 554.848 66.624 554.848 66.096C554.848 65.52 555.36 64.976 556.464 64.976C557.808 64.976 558.256 65.824 558.448 66.352L559.68 65.904C559.36 64.864 558.432 63.856 556.464 63.856C554.912 63.856 553.568 64.816 553.568 66.24C553.568 67.744 554.72 68.24 556.032 68.496L556.944 68.672C558.096 68.896 558.464 69.312 558.464 69.904C558.464 70.656 557.824 71.056 556.672 71.056C555.424 71.056 554.784 70.464 554.544 69.52L553.232 69.952C553.584 71.472 555.056 72.224 556.672 72.224ZM561.86 75.12H563.22V72.32V70.768C563.604 71.44 564.34 72.224 565.732 72.224C567.556 72.224 568.948 70.64 568.948 68.032C568.948 65.424 567.556 63.856 565.732 63.856C564.34 63.856 563.572 64.624 563.188 65.296V64.08H561.86V75.12ZM565.38 71.024C564.084 71.024 563.14 70.016 563.14 68.016C563.14 66.016 564.084 65.056 565.38 65.056C566.644 65.056 567.556 65.808 567.556 68.016C567.556 70.224 566.644 71.024 565.38 71.024ZM573.671 72.224C575.063 72.224 575.831 71.456 576.215 70.784V72H577.543V64.08H576.183V65.312C575.799 64.64 575.063 63.856 573.671 63.856C571.847 63.856 570.455 65.44 570.455 68.048C570.455 70.656 571.847 72.224 573.671 72.224ZM574.023 71.024C572.759 71.024 571.847 70.272 571.847 68.064C571.847 65.856 572.759 65.056 574.023 65.056C575.319 65.056 576.263 66.064 576.263 68.064C576.263 70.064 575.319 71.024 574.023 71.024ZM583.387 72.224C585.163 72.224 586.315 71.184 586.827 69.712L585.547 69.264C585.291 70.128 584.699 71.024 583.387 71.024C582.075 71.024 581.051 70.064 581.051 68.032C581.051 66.048 582.107 65.056 583.371 65.056C584.523 65.056 585.099 65.808 585.355 66.56L586.619 66.144C586.251 64.912 585.163 63.856 583.371 63.856C581.179 63.856 579.627 65.584 579.627 68.032C579.627 70.592 581.099 72.224 583.387 72.224ZM588.593 62.528H590.033V60.8H588.593V62.528ZM588.641 72H590.001V64.08H588.641V72ZM592.688 72H594.048V68.64C594.048 67.472 594.096 65.056 596.272 65.056C597.328 65.056 598.016 65.664 598.016 67.152V72H599.376V66.832C599.376 65.072 598.576 63.856 596.608 63.856C594.896 63.856 594.128 65.072 594.016 65.424V64.08H592.688V72ZM603.233 75.12H606.929C608.273 75.12 609.409 74.416 609.409 72.944C609.409 71.616 608.417 70.752 606.897 70.752H603.441C602.881 70.752 602.769 70.464 602.769 70.208C602.769 69.92 603.057 69.616 603.489 69.424C603.921 69.68 604.417 69.728 604.961 69.728C606.721 69.728 607.921 68.56 608.049 66.768L608.081 66.336C608.145 65.408 608.417 65.232 609.137 65.232H609.745V64.08H608.897C608.129 64.08 607.761 64.608 607.601 65.216C607.265 64.656 606.433 63.856 604.961 63.856C603.137 63.856 601.809 65.152 601.809 66.8C601.809 67.792 602.241 68.512 602.689 68.912C602.177 69.28 601.521 69.808 601.521 70.592C601.521 71.216 601.777 71.584 602.225 71.856C601.745 72.128 601.169 72.72 601.169 73.52C601.169 74.448 601.713 75.12 603.233 75.12ZM604.961 68.608C603.889 68.608 603.185 67.888 603.185 66.8C603.185 65.712 603.889 64.976 604.961 64.976C606.033 64.976 606.737 65.712 606.737 66.8C606.737 67.888 606.033 68.608 604.961 68.608ZM603.697 73.904C602.865 73.904 602.417 73.728 602.417 73.072C602.417 72.528 602.769 72.176 603.041 72H606.785C607.409 72 608.033 72.128 608.033 72.944C608.033 73.76 607.409 73.904 606.785 73.904H603.697ZM610.901 67.776H615.317V66.336H610.901V67.776ZM616.367 72H617.855L618.863 70.496L619.871 68.976C620.095 69.328 620.271 69.6 620.863 70.496L621.855 72H623.487L620.735 67.968L623.327 64.08H621.823L620.959 65.44C620.351 66.384 620.159 66.672 619.935 66.992C619.743 66.672 619.567 66.384 618.975 65.44L618.111 64.08H616.527L619.087 67.952L616.367 72ZM627.813 72.224C629.813 72.224 630.965 71.28 630.965 69.792C630.965 67.984 629.093 67.504 628.293 67.344L627.381 67.168C626.245 66.944 625.989 66.624 625.989 66.096C625.989 65.52 626.501 64.976 627.605 64.976C628.949 64.976 629.397 65.824 629.589 66.352L630.821 65.904C630.501 64.864 629.573 63.856 627.605 63.856C626.053 63.856 624.709 64.816 624.709 66.24C624.709 67.744 625.861 68.24 627.173 68.496L628.085 68.672C629.237 68.896 629.605 69.312 629.605 69.904C629.605 70.656 628.965 71.056 627.813 71.056C626.565 71.056 625.925 70.464 625.685 69.52L624.373 69.952C624.725 71.472 626.197 72.224 627.813 72.224Z" fill="#6E6E78"/><path d="M688 61C688 60.4477 688.448 60 689 60C689.552 60 690 60.4477 690 61L688 61ZM689.707 131.207C689.317 131.598 688.683 131.598 688.293 131.207L681.929 124.843C681.538 124.453 681.538 123.819 681.929 123.429C682.319 123.038 682.953 123.038 683.343 123.429L689 129.086L694.657 123.429C695.047 123.038 695.681 123.038 696.071 123.429C696.462 123.819 696.462 124.453 696.071 124.843L689.707 131.207ZM690 61L690 130.5L688 130.5L688 61L690 61Z" fill="#DA372C"/><path d="M702.648 66H710.456V64.64H704.088V60.864H708.792V59.52H704.088V56.16H710.456V54.8H702.648V66ZM711.554 66H713.042L714.05 64.496L715.058 62.976C715.282 63.328 715.458 63.6 716.05 64.496L717.042 66H718.674L715.922 61.968L718.514 58.08H717.01L716.146 59.44C715.538 60.384 715.346 60.672 715.122 60.992C714.93 60.672 714.754 60.384 714.162 59.44L713.298 58.08H711.714L714.274 61.952L711.554 66ZM723.08 66H724.904V64.8H723.256C722.696 64.8 722.456 64.56 722.456 64V59.232H724.616V58.08H722.456V55.6H721.096V58.08H719.256V59.232H721.096V64.08C721.096 65.392 721.768 66 723.08 66ZM729.539 66.224C731.027 66.224 732.355 65.552 732.947 63.936L731.699 63.504C731.491 64.016 730.931 65.04 729.587 65.04C728.483 65.04 727.379 64.4 727.299 62.4H732.883C733.187 59.808 731.763 57.856 729.459 57.856C727.443 57.856 725.955 59.472 725.955 62.08C725.955 64.768 727.379 66.224 729.539 66.224ZM727.331 61.264C727.443 59.824 728.419 58.976 729.459 58.976C730.547 58.976 731.491 59.76 731.491 61.264H727.331ZM735.063 66H736.423V62.368C736.423 60.512 737.159 59.376 738.951 59.376C739.271 59.376 739.543 59.408 739.799 59.456V58.064C739.607 58.016 739.367 57.968 738.983 57.968C737.479 57.968 736.663 59.136 736.407 59.728V58.08H735.063V66ZM741.407 66H742.767V62.64C742.767 61.472 742.815 59.056 744.991 59.056C746.047 59.056 746.735 59.664 746.735 61.152V66H748.095V60.832C748.095 59.072 747.295 57.856 745.327 57.856C743.615 57.856 742.847 59.072 742.735 59.424V58.08H741.407V66ZM753.296 66.224C754.688 66.224 755.456 65.456 755.84 64.784V66H757.168V58.08H755.808V59.312C755.424 58.64 754.688 57.856 753.296 57.856C751.472 57.856 750.08 59.44 750.08 62.048C750.08 64.656 751.472 66.224 753.296 66.224ZM753.648 65.024C752.384 65.024 751.472 64.272 751.472 62.064C751.472 59.856 752.384 59.056 753.648 59.056C754.944 59.056 755.888 60.064 755.888 62.064C755.888 64.064 754.944 65.024 753.648 65.024ZM759.86 66H761.22V54.8H759.86V66ZM702.344 94H703.704V82.8H702.344V94ZM706.343 84.528H707.783V82.8H706.343V84.528ZM706.391 94H707.751V86.08H706.391V94ZM710.438 94H711.798V90.64C711.798 89.472 711.846 87.056 714.022 87.056C715.078 87.056 715.766 87.664 715.766 89.152V94H717.126V88.832C717.126 87.072 716.326 85.856 714.358 85.856C712.646 85.856 711.878 87.072 711.766 87.424V86.08H710.438V94ZM725.575 94H727.319L723.511 89.392L727.079 86.08H725.271L721.063 90.16V87.568V82.8H719.703V94H721.063V91.664L722.567 90.288L725.575 94ZM732.562 84.528H734.002V82.8H732.562V84.528ZM732.61 94H733.97V86.08H732.61V94ZM739.809 94.224C741.585 94.224 742.737 93.184 743.249 91.712L741.969 91.264C741.713 92.128 741.121 93.024 739.809 93.024C738.497 93.024 737.473 92.064 737.473 90.032C737.473 88.048 738.529 87.056 739.793 87.056C740.945 87.056 741.521 87.808 741.777 88.56L743.041 88.144C742.673 86.912 741.585 85.856 739.793 85.856C737.601 85.856 736.049 87.584 736.049 90.032C736.049 92.592 737.521 94.224 739.809 94.224ZM748.119 94.224C750.199 94.224 751.799 92.432 751.799 90.048C751.799 87.664 750.263 85.856 748.119 85.856C745.975 85.856 744.439 87.664 744.439 90.048C744.439 92.432 746.039 94.224 748.119 94.224ZM748.119 93.024C746.775 93.024 745.847 92.064 745.847 90.064C745.847 88.064 746.775 87.056 748.119 87.056C749.463 87.056 750.391 88.064 750.391 90.064C750.391 92.064 749.463 93.024 748.119 93.024ZM753.86 94H755.22V90.64C755.22 89.472 755.268 87.056 757.444 87.056C758.5 87.056 759.188 87.664 759.188 89.152V94H760.548V88.832C760.548 87.072 759.748 85.856 757.78 85.856C756.068 85.856 755.3 87.072 755.188 87.424V86.08H753.86V94Z" fill="#6E6E78"/><path d="M455 286C455 286.552 455.448 287 456 287C456.552 287 457 286.552 457 286L455 286ZM456.707 215.793C456.317 215.402 455.683 215.402 455.293 215.793L448.929 222.157C448.538 222.547 448.538 223.181 448.929 223.571C449.319 223.962 449.953 223.962 450.343 223.571L456 217.914L461.657 223.571C462.047 223.962 462.681 223.962 463.071 223.571C463.462 223.181 463.462 222.547 463.071 222.157L456.707 215.793ZM457 286L457 216.5L455 216.5L455 286L457 286Z" fill="#DA372C"/><path d="M469.648 286H477.12V284.608H471.088V274.8H469.648V286ZM478.577 276.528H480.017V274.8H478.577V276.528ZM478.625 286H479.985V278.08H478.625V286ZM482.672 286H484.032V282.64C484.032 281.472 484.08 279.056 486.256 279.056C487.312 279.056 488 279.664 488 281.152V286H489.36V280.832C489.36 279.072 488.56 277.856 486.592 277.856C484.88 277.856 484.112 279.072 484 279.424V278.08H482.672V286ZM497.81 286H499.554L495.746 281.392L499.314 278.08H497.506L493.298 282.16V279.568V274.8H491.938V286H493.298V283.664L494.802 282.288L497.81 286ZM507.315 286H509.139V284.8H507.491C506.931 284.8 506.691 284.56 506.691 284V279.232H508.851V278.08H506.691V275.6H505.331V278.08H503.491V279.232H505.331V284.08C505.331 285.392 506.003 286 507.315 286ZM513.774 286.224C515.262 286.224 516.59 285.552 517.182 283.936L515.934 283.504C515.726 284.016 515.166 285.04 513.822 285.04C512.718 285.04 511.614 284.4 511.534 282.4H517.118C517.422 279.808 515.998 277.856 513.694 277.856C511.678 277.856 510.19 279.472 510.19 282.08C510.19 284.768 511.614 286.224 513.774 286.224ZM511.566 281.264C511.678 279.824 512.654 278.976 513.694 278.976C514.782 278.976 515.726 279.76 515.726 281.264H511.566ZM518.179 286H519.667L520.675 284.496L521.683 282.976C521.907 283.328 522.083 283.6 522.675 284.496L523.667 286H525.299L522.547 281.968L525.139 278.08H523.635L522.771 279.44C522.163 280.384 521.971 280.672 521.747 280.992C521.555 280.672 521.379 280.384 520.787 279.44L519.923 278.08H518.339L520.899 281.952L518.179 286ZM529.705 286H531.529V284.8H529.881C529.321 284.8 529.081 284.56 529.081 284V279.232H531.241V278.08H529.081V275.6H527.721V278.08H525.881V279.232H527.721V284.08C527.721 285.392 528.393 286 529.705 286Z" fill="#6E6E78"/></svg>