<svg width="958" height="346" viewBox="0 0 958 346" fill="none" xmlns="http://www.w3.org/2000/svg">
<rect width="958" height="346" rx="4" fill="white"/>
<rect width="958" height="72" transform="translate(0 137)" fill="#A7B5EC"/>
<path fill-rule="evenodd" clip-rule="evenodd" d="M142.5 188C134.216 188 127.5 181.285 127.5 173C127.5 164.716 134.216 158 142.5 158C150.785 158 157.5 164.716 157.5 173C157.5 181.285 150.785 188 142.5 188ZM144 167C144 167.828 143.328 168.5 142.5 168.5C141.672 168.5 141 167.828 141 167C141 166.172 141.672 165.5 142.5 165.5C143.328 165.5 144 166.172 144 167ZM142.5 170C143.328 170 144 170.672 144 171.5V179C144 179.828 143.328 180.5 142.5 180.5C141.672 180.5 141 179.828 141 179V171.5C141 170.672 141.672 170 142.5 170Z" fill="#1D1D21"/>
<path d="M174.155 179.5H176.495V173.74V169.024L180.311 179.5H182.255L186.089 169.024V173.74V179.5H188.429V166.9H184.721L182.309 173.488C181.697 175.162 181.499 175.684 181.355 176.044C181.211 175.72 180.995 175.162 180.401 173.488L177.989 166.9H174.155V179.5ZM191.196 169.114H193.536V166.882H191.196V169.114ZM191.286 179.5H193.464V170.536H191.286V179.5ZM199.415 179.752C201.917 179.752 203.375 178.618 203.375 176.872C203.375 175.036 201.719 174.352 200.297 174.082L199.145 173.848C198.065 173.65 197.777 173.362 197.777 172.858C197.777 172.318 198.263 171.85 199.253 171.85C200.369 171.85 200.963 172.534 201.215 173.218L203.069 172.426C202.691 171.418 201.575 170.266 199.325 170.266C197.165 170.266 195.689 171.382 195.689 173.056C195.689 174.802 196.841 175.396 198.587 175.738L199.775 175.972C200.837 176.188 201.107 176.584 201.107 177.088C201.107 177.718 200.549 178.132 199.505 178.132C197.885 178.132 197.453 177.034 197.345 176.53L195.311 177.178C195.707 178.816 197.399 179.752 199.415 179.752ZM208.643 179.752C211.145 179.752 212.603 178.618 212.603 176.872C212.603 175.036 210.947 174.352 209.525 174.082L208.373 173.848C207.293 173.65 207.005 173.362 207.005 172.858C207.005 172.318 207.491 171.85 208.481 171.85C209.597 171.85 210.191 172.534 210.443 173.218L212.297 172.426C211.919 171.418 210.803 170.266 208.553 170.266C206.393 170.266 204.917 171.382 204.917 173.056C204.917 174.802 206.069 175.396 207.815 175.738L209.003 175.972C210.065 176.188 210.335 176.584 210.335 177.088C210.335 177.718 209.777 178.132 208.733 178.132C207.113 178.132 206.681 177.034 206.573 176.53L204.539 177.178C204.935 178.816 206.627 179.752 208.643 179.752ZM214.47 169.114H216.81V166.882H214.47V169.114ZM214.56 179.5H216.738V170.536H214.56V179.5ZM223.264 179.77C225.874 179.77 227.782 177.862 227.782 175.018C227.782 172.21 225.892 170.266 223.264 170.266C220.636 170.266 218.746 172.21 218.746 175.018C218.746 177.754 220.654 179.77 223.264 179.77ZM223.264 177.988C221.932 177.988 221.014 177.052 221.014 175.054C221.014 173.056 221.932 172.048 223.264 172.048C224.596 172.048 225.496 173.056 225.496 175.054C225.496 177.052 224.596 177.988 223.264 177.988ZM229.817 179.5H232.013V175.414C232.013 174.316 232.049 172.102 234.065 172.102C235.055 172.102 235.685 172.678 235.685 174.028V179.5H237.881V173.542C237.881 171.58 236.999 170.266 234.857 170.266C233.111 170.266 232.247 171.436 231.959 171.958V170.536H229.817V179.5ZM247.583 179.77C249.347 179.77 250.175 178.618 250.535 178.024V179.5H252.713V170.536H250.517V174.748C250.517 176.188 250.193 177.934 248.483 177.934C247.529 177.934 246.935 177.376 246.935 175.99V170.536H244.739V176.512C244.739 178.474 245.729 179.77 247.583 179.77ZM255.376 183.01H257.572V179.86V178.222C257.986 178.924 258.922 179.77 260.452 179.77C262.738 179.77 264.268 177.88 264.268 175.018C264.268 172.138 262.738 170.248 260.452 170.248C258.904 170.248 257.932 171.148 257.518 171.796V170.536H255.376V183.01ZM259.732 178.042C258.4 178.042 257.464 177.034 257.464 175C257.464 172.984 258.4 171.976 259.732 171.976C261.01 171.976 261.982 172.768 261.982 175C261.982 177.25 261.01 178.042 259.732 178.042ZM269.531 179.77C271.079 179.77 272.051 178.906 272.465 178.24V179.5H274.607V166.9H272.411V170.176V171.796C271.997 171.13 271.061 170.266 269.531 170.266C267.263 170.266 265.733 172.138 265.733 175.018C265.733 177.898 267.263 179.77 269.531 179.77ZM270.251 178.042C268.973 178.042 268.019 177.268 268.019 175.018C268.019 172.786 268.973 171.994 270.251 171.994C271.583 171.994 272.519 173.002 272.519 175.018C272.519 177.052 271.583 178.042 270.251 178.042ZM279.6 179.77C281.112 179.77 282.066 179.014 282.606 178.168C282.714 178.96 283.11 179.5 284.244 179.5H285.936V177.772H285.09C284.622 177.772 284.55 177.664 284.55 177.232V173.614C284.55 171.418 283.2 170.266 280.734 170.266C278.214 170.266 276.81 171.58 276.594 172.912L278.628 173.434C278.844 172.642 279.402 171.94 280.734 171.94C281.886 171.94 282.39 172.462 282.39 173.344V173.65C279.42 173.92 276.738 174.694 276.738 177.196C276.738 178.78 277.926 179.77 279.6 179.77ZM280.32 178.114C279.42 178.114 278.97 177.664 278.97 176.98C278.97 175.702 280.536 175.306 282.39 175.09V175.81C282.39 177.412 281.382 178.114 280.32 178.114ZM290.396 179.5H293.06V177.7H291.152C290.576 177.7 290.324 177.448 290.324 176.872V172.246H292.7V170.536H290.324V167.71H288.128V170.536H286.184V172.246H288.128V177.214C288.128 178.636 288.938 179.5 290.396 179.5ZM298.46 179.77C300.818 179.77 302.078 178.546 302.654 177.16L300.674 176.422C300.35 177.178 299.756 178.042 298.478 178.042C297.326 178.042 296.354 177.376 296.264 175.558H302.6C302.888 172.588 301.286 170.266 298.424 170.266C295.94 170.266 294.086 172.156 294.086 175.018C294.086 178.006 295.814 179.77 298.46 179.77ZM296.336 173.938C296.498 172.642 297.344 171.904 298.424 171.904C299.558 171.904 300.35 172.624 300.422 173.938H296.336ZM305.42 175.198H306.428L307.13 170.158V166.9H304.736V170.14L305.42 175.198ZM304.592 179.5H307.274V176.872H304.592V179.5Z" fill="#1D1D21"/>
<path d="M325.242 179.5H326.862V168.43H331.524V166.9H320.76V168.43H325.242V179.5ZM333.219 179.5H334.749V175.72C334.749 174.406 334.803 171.688 337.251 171.688C338.439 171.688 339.213 172.372 339.213 174.046V179.5H340.743V173.686C340.743 171.706 339.771 170.338 337.737 170.338C335.631 170.338 334.875 171.706 334.749 172.102V170.23V166.9H333.219V179.5ZM347.009 179.752C348.683 179.752 350.177 178.996 350.843 177.178L349.439 176.692C349.205 177.268 348.575 178.42 347.063 178.42C345.821 178.42 344.579 177.7 344.489 175.45H350.771C351.113 172.534 349.511 170.338 346.919 170.338C344.651 170.338 342.977 172.156 342.977 175.09C342.977 178.114 344.579 179.752 347.009 179.752ZM344.525 174.172C344.651 172.552 345.749 171.598 346.919 171.598C348.143 171.598 349.205 172.48 349.205 174.172H344.525ZM357.881 179.5H359.411V175.36C359.411 174.082 359.519 171.706 361.697 171.706C362.885 171.706 363.677 172.318 363.677 174.046V179.5H365.171V175.36C365.171 174.082 365.225 171.706 367.475 171.706C368.663 171.706 369.437 172.318 369.437 174.046V179.5H370.967V173.596C370.967 171.526 369.887 170.338 367.853 170.338C365.963 170.338 365.171 171.508 364.865 172.246C364.415 171.04 363.371 170.338 362.057 170.338C360.455 170.338 359.699 171.364 359.375 171.94V170.59H357.881V179.5ZM373.806 168.844H375.426V166.9H373.806V168.844ZM373.86 179.5H375.39V170.59H373.86V179.5ZM381.418 179.752C383.668 179.752 384.964 178.69 384.964 177.016C384.964 174.982 382.858 174.442 381.958 174.262L380.932 174.064C379.654 173.812 379.366 173.452 379.366 172.858C379.366 172.21 379.942 171.598 381.184 171.598C382.696 171.598 383.2 172.552 383.416 173.146L384.802 172.642C384.442 171.472 383.398 170.338 381.184 170.338C379.438 170.338 377.926 171.418 377.926 173.02C377.926 174.712 379.222 175.27 380.698 175.558L381.724 175.756C383.02 176.008 383.434 176.476 383.434 177.142C383.434 177.988 382.714 178.438 381.418 178.438C380.014 178.438 379.294 177.772 379.024 176.71L377.548 177.196C377.944 178.906 379.6 179.752 381.418 179.752ZM390.26 179.752C392.51 179.752 393.806 178.69 393.806 177.016C393.806 174.982 391.7 174.442 390.8 174.262L389.774 174.064C388.496 173.812 388.208 173.452 388.208 172.858C388.208 172.21 388.784 171.598 390.026 171.598C391.538 171.598 392.042 172.552 392.258 173.146L393.644 172.642C393.284 171.472 392.24 170.338 390.026 170.338C388.28 170.338 386.768 171.418 386.768 173.02C386.768 174.712 388.064 175.27 389.54 175.558L390.566 175.756C391.862 176.008 392.276 176.476 392.276 177.142C392.276 177.988 391.556 178.438 390.26 178.438C388.856 178.438 388.136 177.772 387.866 176.71L386.39 177.196C386.786 178.906 388.442 179.752 390.26 179.752ZM396.042 168.844H397.662V166.9H396.042V168.844ZM396.096 179.5H397.626V170.59H396.096V179.5ZM404.087 179.752C406.427 179.752 408.227 177.736 408.227 175.054C408.227 172.372 406.499 170.338 404.087 170.338C401.675 170.338 399.947 172.372 399.947 175.054C399.947 177.736 401.747 179.752 404.087 179.752ZM404.087 178.402C402.575 178.402 401.531 177.322 401.531 175.072C401.531 172.822 402.575 171.688 404.087 171.688C405.599 171.688 406.643 172.822 406.643 175.072C406.643 177.322 405.599 178.402 404.087 178.402ZM410.545 179.5H412.075V175.72C412.075 174.406 412.129 171.688 414.577 171.688C415.765 171.688 416.539 172.372 416.539 174.046V179.5H418.069V173.686C418.069 171.706 417.169 170.338 414.955 170.338C413.029 170.338 412.165 171.706 412.039 172.102V170.59H410.545V179.5ZM428.407 179.5H430.459V178.15H428.605C427.975 178.15 427.705 177.88 427.705 177.25V171.886H430.135V170.59H427.705V167.8H426.175V170.59H424.105V171.886H426.175V177.34C426.175 178.816 426.931 179.5 428.407 179.5ZM435.745 179.752C438.085 179.752 439.885 177.736 439.885 175.054C439.885 172.372 438.157 170.338 435.745 170.338C433.333 170.338 431.605 172.372 431.605 175.054C431.605 177.736 433.405 179.752 435.745 179.752ZM435.745 178.402C434.233 178.402 433.189 177.322 433.189 175.072C433.189 172.822 434.233 171.688 435.745 171.688C437.257 171.688 438.301 172.822 438.301 175.072C438.301 177.322 437.257 178.402 435.745 178.402ZM451.002 179.752C453.918 179.752 455.52 178.186 455.52 175.99C455.52 174.082 454.08 172.912 452.064 172.444L450.3 172.03C448.878 171.688 448.23 171.184 448.23 170.104C448.23 168.97 449.166 168.16 450.714 168.16C452.766 168.16 453.504 169.528 453.774 170.302L455.322 169.546C454.962 168.376 453.594 166.648 450.912 166.648C448.356 166.648 446.628 168.142 446.628 170.194C446.628 172.3 447.924 173.218 449.796 173.65L451.488 174.046C453.054 174.406 453.828 175.036 453.828 176.134C453.828 177.394 452.838 178.24 451.11 178.24C449.13 178.24 448.086 177.034 447.582 175.558L445.998 176.332C446.61 178.294 448.32 179.752 451.002 179.752ZM460.888 179.752C462.454 179.752 463.318 178.888 463.75 178.132V179.5H465.244V170.59H463.714V171.976C463.282 171.22 462.454 170.338 460.888 170.338C458.836 170.338 457.27 172.12 457.27 175.054C457.27 177.988 458.836 179.752 460.888 179.752ZM461.284 178.402C459.862 178.402 458.836 177.556 458.836 175.072C458.836 172.588 459.862 171.688 461.284 171.688C462.742 171.688 463.804 172.822 463.804 175.072C463.804 177.322 462.742 178.402 461.284 178.402ZM469.712 183.01H473.87C475.382 183.01 476.66 182.218 476.66 180.562C476.66 179.068 475.544 178.096 473.834 178.096H469.946C469.316 178.096 469.19 177.772 469.19 177.484C469.19 177.16 469.514 176.818 470 176.602C470.486 176.89 471.044 176.944 471.656 176.944C473.636 176.944 474.986 175.63 475.13 173.614L475.166 173.128C475.238 172.084 475.544 171.886 476.354 171.886H477.038V170.59H476.084C475.22 170.59 474.806 171.184 474.626 171.868C474.248 171.238 473.312 170.338 471.656 170.338C469.604 170.338 468.11 171.796 468.11 173.65C468.11 174.766 468.596 175.576 469.1 176.026C468.524 176.44 467.786 177.034 467.786 177.916C467.786 178.618 468.074 179.032 468.578 179.338C468.038 179.644 467.39 180.31 467.39 181.21C467.39 182.254 468.002 183.01 469.712 183.01ZM471.656 175.684C470.45 175.684 469.658 174.874 469.658 173.65C469.658 172.426 470.45 171.598 471.656 171.598C472.862 171.598 473.654 172.426 473.654 173.65C473.654 174.874 472.862 175.684 471.656 175.684ZM470.234 181.642C469.298 181.642 468.794 181.444 468.794 180.706C468.794 180.094 469.19 179.698 469.496 179.5H473.708C474.41 179.5 475.112 179.644 475.112 180.562C475.112 181.48 474.41 181.642 473.708 181.642H470.234ZM478.782 168.844H480.402V166.9H478.782V168.844ZM478.836 179.5H480.366V170.59H478.836V179.5ZM486.485 179.5H488.537V178.15H486.683C486.053 178.15 485.783 177.88 485.783 177.25V171.886H488.213V170.59H485.783V167.8H484.253V170.59H482.183V171.886H484.253V177.34C484.253 178.816 485.009 179.5 486.485 179.5ZM493.337 179.752C494.903 179.752 495.767 178.888 496.199 178.132V179.5H497.693V170.59H496.163V171.976C495.731 171.22 494.903 170.338 493.337 170.338C491.285 170.338 489.719 172.12 489.719 175.054C489.719 177.988 491.285 179.752 493.337 179.752ZM493.733 178.402C492.311 178.402 491.285 177.556 491.285 175.072C491.285 172.588 492.311 171.688 493.733 171.688C495.191 171.688 496.253 172.822 496.253 175.072C496.253 177.322 495.191 178.402 493.733 178.402ZM500.721 179.5H502.251V175.414C502.251 173.326 503.079 172.048 505.095 172.048C505.455 172.048 505.761 172.084 506.049 172.138V170.572C505.833 170.518 505.563 170.464 505.131 170.464C503.439 170.464 502.521 171.778 502.233 172.444V170.59H500.721V179.5ZM507.804 168.844H509.424V166.9H507.804V168.844ZM507.858 179.5H509.388V170.59H507.858V179.5ZM515.254 179.752C517.108 179.752 517.954 178.438 518.224 177.952V179.5H519.718V170.59H518.188V174.37C518.188 175.738 518.152 178.402 515.74 178.402C514.57 178.402 513.814 177.718 513.814 176.044V170.59H512.284V176.404C512.284 178.384 513.166 179.752 515.254 179.752ZM525.752 179.752C528.002 179.752 529.298 178.69 529.298 177.016C529.298 174.982 527.192 174.442 526.292 174.262L525.266 174.064C523.988 173.812 523.7 173.452 523.7 172.858C523.7 172.21 524.276 171.598 525.518 171.598C527.03 171.598 527.534 172.552 527.75 173.146L529.136 172.642C528.776 171.472 527.732 170.338 525.518 170.338C523.772 170.338 522.26 171.418 522.26 173.02C522.26 174.712 523.556 175.27 525.032 175.558L526.058 175.756C527.354 176.008 527.768 176.476 527.768 177.142C527.768 177.988 527.048 178.438 525.752 178.438C524.348 178.438 523.628 177.772 523.358 176.71L521.882 177.196C522.278 178.906 523.934 179.752 525.752 179.752ZM544.393 179.5H546.211L541.603 166.9H539.317L534.601 179.5H536.347L537.571 176.098H543.187L544.393 179.5ZM538.129 174.568L539.407 171.004L540.397 168.25C540.595 168.79 540.883 169.582 541.387 171.004L542.647 174.568H538.129ZM552.295 179.5H553.825V175.72C553.825 174.406 553.879 171.688 556.327 171.688C557.515 171.688 558.289 172.372 558.289 174.046V179.5H559.819V173.686C559.819 171.706 558.847 170.338 556.813 170.338C554.707 170.338 553.951 171.706 553.825 172.102V170.23V166.9H552.295V179.5ZM565.671 179.752C567.237 179.752 568.101 178.888 568.533 178.132V179.5H570.027V170.59H568.497V171.976C568.065 171.22 567.237 170.338 565.671 170.338C563.619 170.338 562.053 172.12 562.053 175.054C562.053 177.988 563.619 179.752 565.671 179.752ZM566.067 178.402C564.645 178.402 563.619 177.556 563.619 175.072C563.619 172.588 564.645 171.688 566.067 171.688C567.525 171.688 568.587 172.822 568.587 175.072C568.587 177.322 567.525 178.402 566.067 178.402ZM576.061 179.752C578.311 179.752 579.607 178.69 579.607 177.016C579.607 174.982 577.501 174.442 576.601 174.262L575.575 174.064C574.297 173.812 574.009 173.452 574.009 172.858C574.009 172.21 574.585 171.598 575.827 171.598C577.339 171.598 577.843 172.552 578.059 173.146L579.445 172.642C579.085 171.472 578.041 170.338 575.827 170.338C574.081 170.338 572.569 171.418 572.569 173.02C572.569 174.712 573.865 175.27 575.341 175.558L576.367 175.756C577.663 176.008 578.077 176.476 578.077 177.142C578.077 177.988 577.357 178.438 576.061 178.438C574.657 178.438 573.937 177.772 573.667 176.71L572.191 177.196C572.587 178.906 574.243 179.752 576.061 179.752ZM590.911 179.752C592.963 179.752 594.529 177.97 594.529 175.036C594.529 172.102 592.963 170.338 590.911 170.338C589.345 170.338 588.517 171.202 588.085 171.958V170.23V166.9H586.555V179.5H588.049V178.114C588.481 178.87 589.345 179.752 590.911 179.752ZM590.515 178.402C589.057 178.402 587.995 177.268 587.995 175.018C587.995 172.768 589.057 171.688 590.515 171.688C591.937 171.688 592.963 172.534 592.963 175.018C592.963 177.502 591.937 178.402 590.515 178.402ZM600.257 179.752C601.931 179.752 603.425 178.996 604.091 177.178L602.687 176.692C602.453 177.268 601.823 178.42 600.311 178.42C599.069 178.42 597.827 177.7 597.737 175.45H604.019C604.361 172.534 602.759 170.338 600.167 170.338C597.899 170.338 596.225 172.156 596.225 175.09C596.225 178.114 597.827 179.752 600.257 179.752ZM597.773 174.172C597.899 172.552 598.997 171.598 600.167 171.598C601.391 171.598 602.453 172.48 602.453 174.172H597.773ZM609.837 179.752C611.511 179.752 613.005 178.996 613.671 177.178L612.267 176.692C612.033 177.268 611.403 178.42 609.891 178.42C608.649 178.42 607.407 177.7 607.317 175.45H613.599C613.941 172.534 612.339 170.338 609.747 170.338C607.479 170.338 605.805 172.156 605.805 175.09C605.805 178.114 607.407 179.752 609.837 179.752ZM607.353 174.172C607.479 172.552 608.577 171.598 609.747 171.598C610.971 171.598 612.033 172.48 612.033 174.172H607.353ZM616.051 179.5H617.581V175.72C617.581 174.406 617.635 171.688 620.083 171.688C621.271 171.688 622.045 172.372 622.045 174.046V179.5H623.575V173.686C623.575 171.706 622.675 170.338 620.461 170.338C618.535 170.338 617.671 171.706 617.545 172.102V170.59H616.051V179.5ZM634.139 179.752C636.389 179.752 637.685 178.69 637.685 177.016C637.685 174.982 635.579 174.442 634.679 174.262L633.653 174.064C632.375 173.812 632.087 173.452 632.087 172.858C632.087 172.21 632.663 171.598 633.905 171.598C635.417 171.598 635.921 172.552 636.137 173.146L637.523 172.642C637.163 171.472 636.119 170.338 633.905 170.338C632.159 170.338 630.647 171.418 630.647 173.02C630.647 174.712 631.943 175.27 633.419 175.558L634.445 175.756C635.741 176.008 636.155 176.476 636.155 177.142C636.155 177.988 635.435 178.438 634.139 178.438C632.735 178.438 632.015 177.772 631.745 176.71L630.269 177.196C630.665 178.906 632.321 179.752 634.139 179.752ZM643.341 179.752C645.015 179.752 646.509 178.996 647.175 177.178L645.771 176.692C645.537 177.268 644.907 178.42 643.395 178.42C642.153 178.42 640.911 177.7 640.821 175.45H647.103C647.445 172.534 645.843 170.338 643.251 170.338C640.983 170.338 639.309 172.156 639.309 175.09C639.309 178.114 640.911 179.752 643.341 179.752ZM640.857 174.172C640.983 172.552 642.081 171.598 643.251 171.598C644.475 171.598 645.537 172.48 645.537 174.172H640.857ZM652.563 179.5H654.615V178.15H652.761C652.131 178.15 651.861 177.88 651.861 177.25V171.886H654.291V170.59H651.861V167.8H650.331V170.59H648.261V171.886H650.331V177.34C650.331 178.816 651.087 179.5 652.563 179.5ZM661.738 179.5H663.268V171.886H665.608V170.59H663.268V169.15C663.268 168.52 663.538 168.25 664.168 168.25H665.932V166.9H663.988C662.512 166.9 661.738 167.602 661.738 169.258V170.59H659.758V171.886H661.738V179.5ZM670.747 179.752C673.087 179.752 674.887 177.736 674.887 175.054C674.887 172.372 673.159 170.338 670.747 170.338C668.335 170.338 666.607 172.372 666.607 175.054C666.607 177.736 668.407 179.752 670.747 179.752ZM670.747 178.402C669.235 178.402 668.191 177.322 668.191 175.072C668.191 172.822 669.235 171.688 670.747 171.688C672.259 171.688 673.303 172.822 673.303 175.072C673.303 177.322 672.259 178.402 670.747 178.402ZM677.205 179.5H678.735V175.414C678.735 173.326 679.563 172.048 681.579 172.048C681.939 172.048 682.245 172.084 682.533 172.138V170.572C682.317 170.518 682.047 170.464 681.615 170.464C679.923 170.464 679.005 171.778 678.717 172.444V170.59H677.205V179.5ZM690.196 179.752C692.518 179.752 693.634 178.402 693.634 175.558V166.9H692.014V175.432C692.014 177.34 691.456 178.276 690.196 178.276C688.936 178.276 688.414 177.322 688.414 175.378L686.74 175.792C686.776 178.276 688 179.752 690.196 179.752ZM699.687 179.752C701.253 179.752 702.117 178.888 702.549 178.132V179.5H704.043V170.59H702.513V171.976C702.081 171.22 701.253 170.338 699.687 170.338C697.635 170.338 696.069 172.12 696.069 175.054C696.069 177.988 697.635 179.752 699.687 179.752ZM700.083 178.402C698.661 178.402 697.635 177.556 697.635 175.072C697.635 172.588 698.661 171.688 700.083 171.688C701.541 171.688 702.603 172.822 702.603 175.072C702.603 177.322 701.541 178.402 700.083 178.402ZM707.071 179.5H708.601V175.72C708.601 174.406 708.655 171.688 711.103 171.688C712.291 171.688 713.065 172.372 713.065 174.046V179.5H714.595V173.686C714.595 171.706 713.695 170.338 711.481 170.338C709.555 170.338 708.691 171.706 708.565 172.102V170.59H707.071V179.5ZM720.338 179.752C722.192 179.752 723.038 178.438 723.308 177.952V179.5H724.802V170.59H723.272V174.37C723.272 175.738 723.236 178.402 720.824 178.402C719.654 178.402 718.898 177.718 718.898 176.044V170.59H717.368V176.404C717.368 178.384 718.25 179.752 720.338 179.752ZM730.782 179.752C732.348 179.752 733.212 178.888 733.644 178.132V179.5H735.138V170.59H733.608V171.976C733.176 171.22 732.348 170.338 730.782 170.338C728.73 170.338 727.164 172.12 727.164 175.054C727.164 177.988 728.73 179.752 730.782 179.752ZM731.178 178.402C729.756 178.402 728.73 177.556 728.73 175.072C728.73 172.588 729.756 171.688 731.178 171.688C732.636 171.688 733.698 172.822 733.698 175.072C733.698 177.322 732.636 178.402 731.178 178.402ZM738.166 179.5H739.696V175.414C739.696 173.326 740.524 172.048 742.54 172.048C742.9 172.048 743.206 172.084 743.494 172.138V170.572C743.278 170.518 743.008 170.464 742.576 170.464C740.884 170.464 739.966 171.778 739.678 172.444V170.59H738.166V179.5ZM750.685 170.59L749.065 175.468C748.705 176.548 748.597 176.872 748.435 177.394C748.255 176.926 748.111 176.566 747.553 175.216L745.645 170.59H743.917L747.769 179.392L747.265 180.814C747.031 181.48 746.635 181.606 746.041 181.606H744.349V183.01H746.041C747.607 183.01 748.255 182.488 748.849 180.724L752.305 170.59H750.685ZM759.491 179.5H761.345C761.345 175.288 762.101 172.048 766.061 168.682V166.9H757.601V168.43H761.885H764.585C761.291 171.148 759.491 174.874 759.491 179.5ZM766.021 179.5H768.181V177.25H766.021V179.5Z" fill="#1D1D21"/>
<path d="M798.09 179.5H800.52L804.588 166.9H802.806L800.106 175.522L799.314 178.024L798.54 175.504L795.876 166.9H794.076L798.09 179.5ZM806.437 168.844H808.057V166.9H806.437V168.844ZM806.491 179.5H808.021V170.59H806.491V179.5ZM814.409 179.752C816.083 179.752 817.577 178.996 818.243 177.178L816.839 176.692C816.605 177.268 815.975 178.42 814.463 178.42C813.221 178.42 811.979 177.7 811.889 175.45H818.171C818.513 172.534 816.911 170.338 814.319 170.338C812.051 170.338 810.377 172.156 810.377 175.09C810.377 178.114 811.979 179.752 814.409 179.752ZM811.925 174.172C812.051 172.552 813.149 171.598 814.319 171.598C815.543 171.598 816.605 172.48 816.605 174.172H811.925ZM822.495 179.5H824.223L825.627 175.108C826.167 173.416 826.347 172.858 826.527 172.318L827.409 175.108L828.777 179.5H830.559L833.583 170.59H831.963L830.559 175.036C830.037 176.674 829.803 177.394 829.659 177.808L828.957 175.522L827.427 170.59H825.663L824.277 175.036L823.413 177.808C823.269 177.322 823.089 176.746 822.549 175.036L821.163 170.59H819.561L822.495 179.5Z" fill="#1D1D21"/>
<path d="M793.5 181.3H833.979V182.2H793.5V181.3Z" fill="#1D1D21"/>
<path d="M922.655 176.564C922.163 177.056 922.163 177.853 922.655 178.345C923.147 178.837 923.944 178.837 924.436 178.345L928 174.782L931.564 178.345C932.056 178.837 932.853 178.837 933.345 178.345C933.837 177.853 933.837 177.056 933.345 176.564L929.782 173L933.345 169.436C933.837 168.944 933.837 168.147 933.345 167.655C932.853 167.163 932.056 167.163 931.564 167.655L928 171.218L924.436 167.655C923.944 167.163 923.147 167.163 922.655 167.655C922.163 168.147 922.163 168.944 922.655 169.436L926.218 173L922.655 176.564Z" fill="#1D1D21"/>
<path d="M925 82C925 81.4477 925.448 81 926 81C926.552 81 927 81.4477 927 82L925 82ZM926.707 152.207C926.317 152.598 925.683 152.598 925.293 152.207L918.929 145.843C918.538 145.453 918.538 144.819 918.929 144.429C919.319 144.038 919.953 144.038 920.343 144.429L926 150.086L931.657 144.429C932.047 144.038 932.681 144.038 933.071 144.429C933.462 144.819 933.462 145.453 933.071 145.843L926.707 152.207ZM927 82L927 151.5L925 151.5L925 82L927 82Z" fill="#DA372C"/>
<path d="M858.086 93H861.846C865.222 93 867.254 90.888 867.254 87.368C867.254 84.04 865.158 81.8 861.958 81.8H858.086V93ZM859.526 91.64V83.16H861.702C864.422 83.16 865.734 84.84 865.734 87.368C865.734 90.168 864.39 91.64 861.59 91.64H859.526ZM869.421 83.528H870.861V81.8H869.421V83.528ZM869.469 93H870.829V85.08H869.469V93ZM876.188 93.224C878.188 93.224 879.34 92.28 879.34 90.792C879.34 88.984 877.468 88.504 876.668 88.344L875.756 88.168C874.62 87.944 874.364 87.624 874.364 87.096C874.364 86.52 874.876 85.976 875.98 85.976C877.324 85.976 877.772 86.824 877.964 87.352L879.196 86.904C878.876 85.864 877.948 84.856 875.98 84.856C874.428 84.856 873.084 85.816 873.084 87.24C873.084 88.744 874.236 89.24 875.548 89.496L876.46 89.672C877.612 89.896 877.98 90.312 877.98 90.904C877.98 91.656 877.34 92.056 876.188 92.056C874.94 92.056 874.3 91.464 874.06 90.52L872.748 90.952C873.1 92.472 874.572 93.224 876.188 93.224ZM881.375 93H882.735V89.32C882.735 88.184 882.831 86.072 884.767 86.072C885.823 86.072 886.527 86.616 886.527 88.152V93H887.855V89.32C887.855 88.184 887.903 86.072 889.903 86.072C890.959 86.072 891.647 86.616 891.647 88.152V93H893.007V87.752C893.007 85.912 892.047 84.856 890.239 84.856C888.559 84.856 887.855 85.896 887.583 86.552C887.183 85.48 886.255 84.856 885.087 84.856C883.663 84.856 882.991 85.768 882.703 86.28V85.08H881.375V93ZM895.53 83.528H896.97V81.8H895.53V83.528ZM895.578 93H896.938V85.08H895.578V93ZM902.297 93.224C904.297 93.224 905.449 92.28 905.449 90.792C905.449 88.984 903.577 88.504 902.777 88.344L901.865 88.168C900.729 87.944 900.473 87.624 900.473 87.096C900.473 86.52 900.985 85.976 902.089 85.976C903.433 85.976 903.881 86.824 904.073 87.352L905.305 86.904C904.985 85.864 904.057 84.856 902.089 84.856C900.537 84.856 899.193 85.816 899.193 87.24C899.193 88.744 900.345 89.24 901.657 89.496L902.569 89.672C903.721 89.896 904.089 90.312 904.089 90.904C904.089 91.656 903.449 92.056 902.297 92.056C901.049 92.056 900.409 91.464 900.169 90.52L898.857 90.952C899.209 92.472 900.681 93.224 902.297 93.224ZM910.157 93.224C912.157 93.224 913.309 92.28 913.309 90.792C913.309 88.984 911.437 88.504 910.637 88.344L909.725 88.168C908.589 87.944 908.333 87.624 908.333 87.096C908.333 86.52 908.845 85.976 909.949 85.976C911.293 85.976 911.741 86.824 911.933 87.352L913.165 86.904C912.845 85.864 911.917 84.856 909.949 84.856C908.397 84.856 907.053 85.816 907.053 87.24C907.053 88.744 908.205 89.24 909.517 89.496L910.429 89.672C911.581 89.896 911.949 90.312 911.949 90.904C911.949 91.656 911.309 92.056 910.157 92.056C908.909 92.056 908.269 91.464 908.029 90.52L906.717 90.952C907.069 92.472 908.541 93.224 910.157 93.224Z" fill="#6E6E78"/>
<path d="M808 82C808 81.4477 808.448 81 809 81C809.552 81 810 81.4477 810 82L808 82ZM809.707 152.207C809.317 152.598 808.683 152.598 808.293 152.207L801.929 145.843C801.538 145.453 801.538 144.819 801.929 144.429C802.319 144.038 802.953 144.038 803.343 144.429L809 150.086L814.657 144.429C815.047 144.038 815.681 144.038 816.071 144.429C816.462 144.819 816.462 145.453 816.071 145.843L809.707 152.207ZM810 82L810 151.5L808 151.5L808 82L810 82Z" fill="#DA372C"/>
<path d="M727.82 93H729.436L725.34 81.8H723.308L719.116 93H720.668L721.756 89.976H726.748L727.82 93ZM722.252 88.616L723.388 85.448L724.268 83C724.444 83.48 724.7 84.184 725.148 85.448L726.268 88.616H722.252ZM734.168 93.224C735.944 93.224 737.096 92.184 737.608 90.712L736.328 90.264C736.072 91.128 735.48 92.024 734.168 92.024C732.856 92.024 731.832 91.064 731.832 89.032C731.832 87.048 732.888 86.056 734.152 86.056C735.304 86.056 735.88 86.808 736.136 87.56L737.4 87.144C737.032 85.912 735.944 84.856 734.152 84.856C731.96 84.856 730.408 86.584 730.408 89.032C730.408 91.592 731.88 93.224 734.168 93.224ZM742.174 93H743.998V91.8H742.35C741.79 91.8 741.55 91.56 741.55 91V86.232H743.71V85.08H741.55V82.6H740.19V85.08H738.35V86.232H740.19V91.08C740.19 92.392 740.862 93 742.174 93ZM745.671 83.528H747.111V81.8H745.671V83.528ZM745.719 93H747.079V85.08H745.719V93ZM752.822 93.224C754.902 93.224 756.502 91.432 756.502 89.048C756.502 86.664 754.966 84.856 752.822 84.856C750.678 84.856 749.142 86.664 749.142 89.048C749.142 91.432 750.742 93.224 752.822 93.224ZM752.822 92.024C751.478 92.024 750.55 91.064 750.55 89.064C750.55 87.064 751.478 86.056 752.822 86.056C754.166 86.056 755.094 87.064 755.094 89.064C755.094 91.064 754.166 92.024 752.822 92.024ZM758.563 93H759.923V89.64C759.923 88.472 759.971 86.056 762.147 86.056C763.203 86.056 763.891 86.664 763.891 88.152V93H765.251V87.832C765.251 86.072 764.451 84.856 762.483 84.856C760.771 84.856 760.003 86.072 759.891 86.424V85.08H758.563V93ZM771.969 93H773.329V81.8H771.969V93ZM775.968 83.528H777.408V81.8H775.968V83.528ZM776.016 93H777.376V85.08H776.016V93ZM780.063 93H781.423V89.64C781.423 88.472 781.471 86.056 783.647 86.056C784.703 86.056 785.391 86.664 785.391 88.152V93H786.751V87.832C786.751 86.072 785.951 84.856 783.983 84.856C782.271 84.856 781.503 86.072 781.391 86.424V85.08H780.063V93ZM795.2 93H796.944L793.136 88.392L796.704 85.08H794.896L790.688 89.16V86.568V81.8H789.328V93H790.688V90.664L792.192 89.288L795.2 93Z" fill="#6E6E78"/>
<path d="M778 255.5C778 256.052 778.448 256.5 779 256.5C779.552 256.5 780 256.052 780 255.5L778 255.5ZM779.707 185.293C779.317 184.902 778.683 184.902 778.293 185.293L771.929 191.657C771.538 192.047 771.538 192.681 771.929 193.071C772.319 193.462 772.953 193.462 773.343 193.071L779 187.414L784.657 193.071C785.047 193.462 785.681 193.462 786.071 193.071C786.462 192.681 786.462 192.047 786.071 191.657L779.707 185.293ZM780 255.5L780 186L778 186L778 255.5L780 255.5Z" fill="#DA372C"/>
<path d="M683.631 248.68H684.831V247.208C687.103 247.032 688.351 245.72 688.351 243.896C688.351 242.2 687.087 241.24 685.311 240.792L684.831 240.664V236.952C686.127 237.208 686.639 238.2 686.847 238.792L688.175 238.136C687.887 237.192 686.847 235.832 684.831 235.608V234.12H683.631V235.608C681.727 235.832 680.463 237.064 680.463 238.712C680.463 240.568 681.615 241.384 683.263 241.736L683.631 241.816V245.848C682.383 245.576 681.631 244.664 681.263 243.544L679.903 244.2C680.399 245.768 681.663 246.952 683.631 247.192V248.68ZM683.631 240.392C682.383 240.072 681.839 239.592 681.839 238.632C681.839 237.72 682.511 237.032 683.631 236.904V238.968V240.392ZM684.831 245.912V243.848V242.088C686.223 242.408 686.895 243.032 686.895 244.024C686.895 245.064 686.143 245.784 684.831 245.912ZM693.047 247.224C695.047 247.224 696.199 246.28 696.199 244.792C696.199 242.984 694.327 242.504 693.527 242.344L692.615 242.168C691.479 241.944 691.223 241.624 691.223 241.096C691.223 240.52 691.735 239.976 692.839 239.976C694.183 239.976 694.631 240.824 694.823 241.352L696.055 240.904C695.735 239.864 694.807 238.856 692.839 238.856C691.287 238.856 689.943 239.816 689.943 241.24C689.943 242.744 691.095 243.24 692.407 243.496L693.319 243.672C694.471 243.896 694.839 244.312 694.839 244.904C694.839 245.656 694.199 246.056 693.047 246.056C691.799 246.056 691.159 245.464 690.919 244.52L689.607 244.952C689.959 246.472 691.431 247.224 693.047 247.224ZM698.235 250.12H699.595V247.32V245.768C699.979 246.44 700.715 247.224 702.107 247.224C703.931 247.224 705.323 245.64 705.323 243.032C705.323 240.424 703.931 238.856 702.107 238.856C700.715 238.856 699.947 239.624 699.563 240.296V239.08H698.235V250.12ZM701.755 246.024C700.459 246.024 699.515 245.016 699.515 243.016C699.515 241.016 700.459 240.056 701.755 240.056C703.019 240.056 703.931 240.808 703.931 243.016C703.931 245.224 703.019 246.024 701.755 246.024ZM710.046 247.224C711.438 247.224 712.206 246.456 712.59 245.784V247H713.918V239.08H712.558V240.312C712.174 239.64 711.438 238.856 710.046 238.856C708.222 238.856 706.83 240.44 706.83 243.048C706.83 245.656 708.222 247.224 710.046 247.224ZM710.398 246.024C709.134 246.024 708.222 245.272 708.222 243.064C708.222 240.856 709.134 240.056 710.398 240.056C711.694 240.056 712.638 241.064 712.638 243.064C712.638 245.064 711.694 246.024 710.398 246.024ZM719.762 247.224C721.538 247.224 722.69 246.184 723.202 244.712L721.922 244.264C721.666 245.128 721.074 246.024 719.762 246.024C718.45 246.024 717.426 245.064 717.426 243.032C717.426 241.048 718.482 240.056 719.746 240.056C720.898 240.056 721.474 240.808 721.73 241.56L722.994 241.144C722.626 239.912 721.538 238.856 719.746 238.856C717.554 238.856 716.002 240.584 716.002 243.032C716.002 245.592 717.474 247.224 719.762 247.224ZM724.968 237.528H726.408V235.8H724.968V237.528ZM725.016 247H726.376V239.08H725.016V247ZM729.063 247H730.423V243.64C730.423 242.472 730.471 240.056 732.647 240.056C733.703 240.056 734.391 240.664 734.391 242.152V247H735.751V241.832C735.751 240.072 734.951 238.856 732.983 238.856C731.271 238.856 730.503 240.072 730.391 240.424V239.08H729.063V247ZM739.608 250.12H743.304C744.648 250.12 745.784 249.416 745.784 247.944C745.784 246.616 744.792 245.752 743.272 245.752H739.816C739.256 245.752 739.144 245.464 739.144 245.208C739.144 244.92 739.432 244.616 739.864 244.424C740.296 244.68 740.792 244.728 741.336 244.728C743.096 244.728 744.296 243.56 744.424 241.768L744.456 241.336C744.52 240.408 744.792 240.232 745.512 240.232H746.12V239.08H745.272C744.504 239.08 744.136 239.608 743.976 240.216C743.64 239.656 742.808 238.856 741.336 238.856C739.512 238.856 738.184 240.152 738.184 241.8C738.184 242.792 738.616 243.512 739.064 243.912C738.552 244.28 737.896 244.808 737.896 245.592C737.896 246.216 738.152 246.584 738.6 246.856C738.12 247.128 737.544 247.72 737.544 248.52C737.544 249.448 738.088 250.12 739.608 250.12ZM741.336 243.608C740.264 243.608 739.56 242.888 739.56 241.8C739.56 240.712 740.264 239.976 741.336 239.976C742.408 239.976 743.112 240.712 743.112 241.8C743.112 242.888 742.408 243.608 741.336 243.608ZM740.072 248.904C739.24 248.904 738.792 248.728 738.792 248.072C738.792 247.528 739.144 247.176 739.416 247H743.16C743.784 247 744.408 247.128 744.408 247.944C744.408 248.76 743.784 248.904 743.16 248.904H740.072ZM747.276 242.776H751.692V241.336H747.276V242.776ZM754.141 247H755.501V243.32C755.501 242.184 755.597 240.072 757.533 240.072C758.589 240.072 759.293 240.616 759.293 242.152V247H760.621V243.32C760.621 242.184 760.669 240.072 762.669 240.072C763.725 240.072 764.413 240.616 764.413 242.152V247H765.773V241.752C765.773 239.912 764.813 238.856 763.005 238.856C761.325 238.856 760.621 239.896 760.349 240.552C759.949 239.48 759.021 238.856 757.853 238.856C756.429 238.856 755.757 239.768 755.469 240.28V239.08H754.141V247Z" fill="#6E6E78"/>
<path d="M624 82C624 81.4477 624.448 81 625 81C625.552 81 626 81.4477 626 82L624 82ZM625.707 152.207C625.317 152.598 624.683 152.598 624.293 152.207L617.929 145.843C617.538 145.453 617.538 144.819 617.929 144.429C618.319 144.038 618.953 144.038 619.343 144.429L625 150.086L630.657 144.429C631.047 144.038 631.681 144.038 632.071 144.429C632.462 144.819 632.462 145.453 632.071 145.843L625.707 152.207ZM626 82L626 151.5L624 151.5L624 82L626 82Z" fill="#DA372C"/>
<path d="M516.367 93H517.807V86.936V83.352L521.775 93H522.719L526.623 83.352V86.936V93H528.063V81.8H525.759L523.119 88.392C522.575 89.752 522.383 90.2 522.271 90.456C522.159 90.2 521.983 89.768 521.423 88.392L518.719 81.8H516.367V93ZM533.562 93.224C534.954 93.224 535.722 92.456 536.106 91.784V93H537.434V85.08H536.074V86.312C535.69 85.64 534.954 84.856 533.562 84.856C531.738 84.856 530.346 86.44 530.346 89.048C530.346 91.656 531.738 93.224 533.562 93.224ZM533.914 92.024C532.65 92.024 531.738 91.272 531.738 89.064C531.738 86.856 532.65 86.056 533.914 86.056C535.21 86.056 536.154 87.064 536.154 89.064C536.154 91.064 535.21 92.024 533.914 92.024ZM540.077 83.528H541.517V81.8H540.077V83.528ZM540.125 93H541.485V85.08H540.125V93ZM544.172 93H545.532V89.64C545.532 88.472 545.58 86.056 547.756 86.056C548.812 86.056 549.5 86.664 549.5 88.152V93H550.86V87.832C550.86 86.072 550.06 84.856 548.092 84.856C546.38 84.856 545.612 86.072 545.5 86.424V85.08H544.172V93ZM560.73 93.224C562.506 93.224 563.658 92.184 564.17 90.712L562.89 90.264C562.634 91.128 562.042 92.024 560.73 92.024C559.418 92.024 558.394 91.064 558.394 89.032C558.394 87.048 559.45 86.056 560.714 86.056C561.866 86.056 562.442 86.808 562.698 87.56L563.962 87.144C563.594 85.912 562.506 84.856 560.714 84.856C558.522 84.856 556.97 86.584 556.97 89.032C556.97 91.592 558.442 93.224 560.73 93.224ZM569.041 93.224C571.121 93.224 572.721 91.432 572.721 89.048C572.721 86.664 571.185 84.856 569.041 84.856C566.897 84.856 565.361 86.664 565.361 89.048C565.361 91.432 566.961 93.224 569.041 93.224ZM569.041 92.024C567.697 92.024 566.769 91.064 566.769 89.064C566.769 87.064 567.697 86.056 569.041 86.056C570.385 86.056 571.313 87.064 571.313 89.064C571.313 91.064 570.385 92.024 569.041 92.024ZM574.782 93H576.142V89.64C576.142 88.472 576.19 86.056 578.366 86.056C579.422 86.056 580.11 86.664 580.11 88.152V93H581.47V87.832C581.47 86.072 580.67 84.856 578.702 84.856C576.99 84.856 576.222 86.072 576.11 86.424V85.08H574.782V93ZM586.799 93H588.623V91.8H586.975C586.415 91.8 586.175 91.56 586.175 91V86.232H588.335V85.08H586.175V82.6H584.815V85.08H582.975V86.232H584.815V91.08C584.815 92.392 585.487 93 586.799 93ZM593.258 93.224C594.746 93.224 596.074 92.552 596.666 90.936L595.418 90.504C595.21 91.016 594.65 92.04 593.306 92.04C592.202 92.04 591.098 91.4 591.018 89.4H596.602C596.906 86.808 595.482 84.856 593.178 84.856C591.162 84.856 589.674 86.472 589.674 89.08C589.674 91.768 591.098 93.224 593.258 93.224ZM591.05 88.264C591.162 86.824 592.138 85.976 593.178 85.976C594.266 85.976 595.21 86.76 595.21 88.264H591.05ZM598.782 93H600.142V89.64C600.142 88.472 600.19 86.056 602.366 86.056C603.422 86.056 604.11 86.664 604.11 88.152V93H605.47V87.832C605.47 86.072 604.67 84.856 602.702 84.856C600.99 84.856 600.222 86.072 600.11 86.424V85.08H598.782V93ZM610.799 93H612.623V91.8H610.975C610.415 91.8 610.175 91.56 610.175 91V86.232H612.335V85.08H610.175V82.6H608.815V85.08H606.975V86.232H608.815V91.08C608.815 92.392 609.487 93 610.799 93Z" fill="#6E6E78"/>
<path d="M245 82C245 81.4477 245.448 81 246 81C246.552 81 247 81.4477 247 82L245 82ZM246.707 152.207C246.317 152.598 245.683 152.598 245.293 152.207L238.929 145.843C238.538 145.453 238.538 144.819 238.929 144.429C239.319 144.038 239.953 144.038 240.343 144.429L246 150.086L251.657 144.429C252.047 144.038 252.681 144.038 253.071 144.429C253.462 144.819 253.462 145.453 253.071 145.843L246.707 152.207ZM247 82L247 151.5L245 151.5L245 82L247 82Z" fill="#DA372C"/>
<path d="M262.144 93H263.584V83.16H267.728V81.8H258.16V83.16H262.144V93ZM269.187 83.528H270.627V81.8H269.187V83.528ZM269.235 93H270.595V85.08H269.235V93ZM276.034 93H277.858V91.8H276.21C275.65 91.8 275.41 91.56 275.41 91V86.232H277.57V85.08H275.41V82.6H274.049V85.08H272.21V86.232H274.049V91.08C274.049 92.392 274.722 93 276.034 93ZM279.578 93H280.938V81.8H279.578V93ZM286.617 93.224C288.105 93.224 289.433 92.552 290.025 90.936L288.777 90.504C288.569 91.016 288.009 92.04 286.665 92.04C285.561 92.04 284.457 91.4 284.377 89.4H289.961C290.265 86.808 288.841 84.856 286.537 84.856C284.521 84.856 283.033 86.472 283.033 89.08C283.033 91.768 284.457 93.224 286.617 93.224ZM284.409 88.264C284.521 86.824 285.497 85.976 286.537 85.976C287.625 85.976 288.569 86.76 288.569 88.264H284.409Z" fill="#6E6E78"/>
<path d="M143 82C143 81.4477 143.448 81 144 81C144.552 81 145 81.4477 145 82L143 82ZM144.707 152.207C144.317 152.598 143.683 152.598 143.293 152.207L136.929 145.843C136.538 145.453 136.538 144.819 136.929 144.429C137.319 144.038 137.953 144.038 138.343 144.429L144 150.086L149.657 144.429C150.047 144.038 150.681 144.038 151.071 144.429C151.462 144.819 151.462 145.453 151.071 145.843L144.707 152.207ZM145 82L145 151.5L143 151.5L143 82L145 82Z" fill="#DA372C"/>
<path d="M158.57 93H160.01V81.8H158.57V93ZM166.027 93.224C167.803 93.224 168.955 92.184 169.467 90.712L168.187 90.264C167.931 91.128 167.339 92.024 166.027 92.024C164.715 92.024 163.691 91.064 163.691 89.032C163.691 87.048 164.747 86.056 166.011 86.056C167.163 86.056 167.739 86.808 167.995 87.56L169.259 87.144C168.891 85.912 167.803 84.856 166.011 84.856C163.819 84.856 162.267 86.584 162.267 89.032C162.267 91.592 163.739 93.224 166.027 93.224ZM174.338 93.224C176.418 93.224 178.017 91.432 178.017 89.048C178.017 86.664 176.482 84.856 174.338 84.856C172.194 84.856 170.658 86.664 170.658 89.048C170.658 91.432 172.258 93.224 174.338 93.224ZM174.338 92.024C172.994 92.024 172.066 91.064 172.066 89.064C172.066 87.064 172.994 86.056 174.338 86.056C175.682 86.056 176.61 87.064 176.61 89.064C176.61 91.064 175.682 92.024 174.338 92.024ZM180.078 93H181.438V89.64C181.438 88.472 181.486 86.056 183.662 86.056C184.718 86.056 185.406 86.664 185.406 88.152V93H186.766V87.832C186.766 86.072 185.966 84.856 183.998 84.856C182.286 84.856 181.518 86.072 181.406 86.424V85.08H180.078V93Z" fill="#6E6E78"/>
<path d="M206.975 227.68H208.175V226.208C210.447 226.032 211.695 224.72 211.695 222.896C211.695 221.2 210.431 220.24 208.655 219.792L208.175 219.664V215.952C209.471 216.208 209.983 217.2 210.191 217.792L211.519 217.136C211.231 216.192 210.191 214.832 208.175 214.608V213.12H206.975V214.608C205.071 214.832 203.807 216.064 203.807 217.712C203.807 219.568 204.959 220.384 206.607 220.736L206.975 220.816V224.848C205.727 224.576 204.975 223.664 204.607 222.544L203.247 223.2C203.743 224.768 205.007 225.952 206.975 226.192V227.68ZM206.975 219.392C205.727 219.072 205.183 218.592 205.183 217.632C205.183 216.72 205.855 216.032 206.975 215.904V217.968V219.392ZM208.175 224.912V222.848V221.088C209.567 221.408 210.239 222.032 210.239 223.024C210.239 224.064 209.487 224.784 208.175 224.912ZM216.391 226.224C218.391 226.224 219.543 225.28 219.543 223.792C219.543 221.984 217.671 221.504 216.871 221.344L215.959 221.168C214.823 220.944 214.567 220.624 214.567 220.096C214.567 219.52 215.079 218.976 216.183 218.976C217.527 218.976 217.975 219.824 218.167 220.352L219.399 219.904C219.079 218.864 218.151 217.856 216.183 217.856C214.631 217.856 213.287 218.816 213.287 220.24C213.287 221.744 214.439 222.24 215.751 222.496L216.663 222.672C217.815 222.896 218.183 223.312 218.183 223.904C218.183 224.656 217.543 225.056 216.391 225.056C215.143 225.056 214.503 224.464 214.263 223.52L212.951 223.952C213.303 225.472 214.775 226.224 216.391 226.224ZM221.578 229.12H222.938V226.32V224.768C223.322 225.44 224.058 226.224 225.45 226.224C227.274 226.224 228.666 224.64 228.666 222.032C228.666 219.424 227.274 217.856 225.45 217.856C224.058 217.856 223.29 218.624 222.906 219.296V218.08H221.578V229.12ZM225.098 225.024C223.802 225.024 222.858 224.016 222.858 222.016C222.858 220.016 223.802 219.056 225.098 219.056C226.362 219.056 227.274 219.808 227.274 222.016C227.274 224.224 226.362 225.024 225.098 225.024ZM233.39 226.224C234.782 226.224 235.55 225.456 235.934 224.784V226H237.262V218.08H235.902V219.312C235.518 218.64 234.782 217.856 233.39 217.856C231.566 217.856 230.174 219.44 230.174 222.048C230.174 224.656 231.566 226.224 233.39 226.224ZM233.742 225.024C232.478 225.024 231.566 224.272 231.566 222.064C231.566 219.856 232.478 219.056 233.742 219.056C235.038 219.056 235.982 220.064 235.982 222.064C235.982 224.064 235.038 225.024 233.742 225.024ZM243.105 226.224C244.881 226.224 246.033 225.184 246.545 223.712L245.265 223.264C245.009 224.128 244.417 225.024 243.105 225.024C241.793 225.024 240.769 224.064 240.769 222.032C240.769 220.048 241.825 219.056 243.089 219.056C244.241 219.056 244.817 219.808 245.073 220.56L246.337 220.144C245.969 218.912 244.881 217.856 243.089 217.856C240.897 217.856 239.345 219.584 239.345 222.032C239.345 224.592 240.817 226.224 243.105 226.224ZM248.312 216.528H249.752V214.8H248.312V216.528ZM248.36 226H249.72V218.08H248.36V226ZM252.407 226H253.767V222.64C253.767 221.472 253.815 219.056 255.991 219.056C257.047 219.056 257.735 219.664 257.735 221.152V226H259.095V220.832C259.095 219.072 258.295 217.856 256.327 217.856C254.615 217.856 253.847 219.072 253.735 219.424V218.08H252.407V226ZM262.952 229.12H266.648C267.992 229.12 269.128 228.416 269.128 226.944C269.128 225.616 268.136 224.752 266.616 224.752H263.16C262.6 224.752 262.488 224.464 262.488 224.208C262.488 223.92 262.776 223.616 263.208 223.424C263.64 223.68 264.136 223.728 264.68 223.728C266.44 223.728 267.64 222.56 267.768 220.768L267.8 220.336C267.864 219.408 268.136 219.232 268.856 219.232H269.464V218.08H268.616C267.848 218.08 267.48 218.608 267.32 219.216C266.984 218.656 266.152 217.856 264.68 217.856C262.856 217.856 261.528 219.152 261.528 220.8C261.528 221.792 261.96 222.512 262.408 222.912C261.896 223.28 261.24 223.808 261.24 224.592C261.24 225.216 261.496 225.584 261.944 225.856C261.464 226.128 260.888 226.72 260.888 227.52C260.888 228.448 261.432 229.12 262.952 229.12ZM264.68 222.608C263.608 222.608 262.904 221.888 262.904 220.8C262.904 219.712 263.608 218.976 264.68 218.976C265.752 218.976 266.456 219.712 266.456 220.8C266.456 221.888 265.752 222.608 264.68 222.608ZM263.416 227.904C262.584 227.904 262.136 227.728 262.136 227.072C262.136 226.528 262.488 226.176 262.76 226H266.504C267.128 226 267.752 226.128 267.752 226.944C267.752 227.76 267.128 227.904 266.504 227.904H263.416ZM270.62 221.776H275.036V220.336H270.62V221.776ZM280.157 226.224C282.157 226.224 283.309 225.28 283.309 223.792C283.309 221.984 281.437 221.504 280.637 221.344L279.725 221.168C278.589 220.944 278.333 220.624 278.333 220.096C278.333 219.52 278.845 218.976 279.949 218.976C281.293 218.976 281.741 219.824 281.933 220.352L283.165 219.904C282.845 218.864 281.917 217.856 279.949 217.856C278.397 217.856 277.053 218.816 277.053 220.24C277.053 221.744 278.205 222.24 279.517 222.496L280.429 222.672C281.581 222.896 281.949 223.312 281.949 223.904C281.949 224.656 281.309 225.056 280.157 225.056C278.909 225.056 278.269 224.464 278.029 223.52L276.717 223.952C277.069 225.472 278.541 226.224 280.157 226.224Z" fill="#6E6E78"/>
<path d="M202 200C201.448 200 201 200.448 201 201C201 201.552 201.448 202 202 202L202 200ZM262.707 201.707C263.098 201.317 263.098 200.683 262.707 200.293L256.343 193.929C255.953 193.538 255.319 193.538 254.929 193.929C254.538 194.319 254.538 194.953 254.929 195.343L260.586 201L254.929 206.657C254.538 207.047 254.538 207.681 254.929 208.071C255.319 208.462 255.953 208.462 256.343 208.071L262.707 201.707ZM202 202L262 202L262 200L202 200L202 202Z" fill="#DA372C"/>
</svg>
