<svg viewBox="0 0 48 48" fill="none" xmlns="http://www.w3.org/2000/svg"><circle cx="24" cy="24" r="24" fill="#FFC61C"/><path d="M34.5 10C33.8469 10 33.2913 10.4174 33.0854 11H14.9146C14.7087 10.4174 14.1531 10 13.5 10H12.5C11.6716 10 11 10.6716 11 11.5V13.5C11 14.3284 11.6716 15 12.5 15H13.5C14.1531 15 14.7087 14.5826 14.9146 14H33.0854C33.2913 14.5826 33.8469 15 34.5 15H35.5C36.3284 15 37 14.3284 37 13.5V11.5C37 10.6716 36.3284 10 35.5 10H34.5zM28.3455 36.3232L28.5767 37H29.2918 33 34.4408L33.9368 35.6502 27.2158 17.6502 26.973 17H26.279 21.824 21.1337L20.889 17.6455 14.0649 35.6455 13.5514 37H15 18.6052 19.3126L19.5481 36.333 20.8834 32.5514H27.0573L28.3455 36.3232zM25.3592 27.6971H22.6207L22.9369 26.8496 22.941 26.8386 22.9448 26.8275C23.2441 25.9644 23.6211 25.1318 23.9731 24.4017L25.0696 26.8687 25.3592 27.6971z" fill="#fff" stroke="#1D1D21" stroke-width="2"/></svg>