<svg viewBox="0 0 48 48" fill="none" xmlns="http://www.w3.org/2000/svg"><path d="M48 24C48 37.2548 37.2548 48 24 48C10.7452 48 0 37.2548 0 24C0 10.7452 10.7452 0 24 0C37.2548 0 48 10.7452 48 24Z" fill="#FFC61C"/><path d="M21.9717 6.97413C21.9717 6.37834 21.4532 5.91248 20.8661 6.01406 18.1593 6.48241 15.6568 7.54689 13.4987 9.06739 13.0114 9.41067 12.9741 10.1069 13.3955 10.5283L15.6157 12.7485C15.9645 13.0973 16.5133 13.136 16.9294 12.8712 18.1983 12.0633 19.6147 11.4665 21.1291 11.1301 21.6107 11.0231 21.9717 10.6076 21.9717 10.1143V6.97413zM26.8707 11.13C26.3891 11.0231 26.0281 10.6075 26.0281 10.1141V6.97404C26.0281 6.37826 26.5466 5.9124 27.1337 6.01396 29.8406 6.48226 32.3432 7.54675 34.5015 9.06729 34.9887 9.41056 35.0261 10.1068 34.6046 10.5283L32.3844 12.7484C32.0356 13.0972 31.4868 13.136 31.0708 12.8711 29.8018 12.0632 28.3853 11.4663 26.8707 11.13zM37.8863 21.973C37.3929 21.973 36.9773 21.612 36.8704 21.1304 36.5342 19.6159 35.9376 18.1995 35.1299 16.9305 34.865 16.5145 34.9038 15.9657 35.2525 15.617L37.4728 13.3967C37.8943 12.9753 38.5905 13.0127 38.9338 13.4999 40.4541 15.6582 41.5183 18.1607 41.9865 20.8675 42.088 21.4546 41.6221 21.973 41.0264 21.973H37.8863zM35.2517 32.3844C34.9029 32.0356 34.8642 31.4868 35.1291 31.0707 35.9368 29.8021 36.5335 28.386 36.8699 26.8719 36.9769 26.3904 37.3924 26.0295 37.8857 26.0295H41.0259C41.6218 26.0295 42.0876 26.548 41.986 27.1351 41.5176 29.8415 40.4531 32.3436 38.9328 34.5014 38.5896 34.9887 37.8933 35.026 37.4719 34.6046L35.2517 32.3844zM26.0281 37.8859C26.0281 37.3925 26.3891 36.977 26.8707 36.87 28.3848 36.5338 29.8009 35.9372 31.0695 35.1297 31.4856 34.8649 32.0343 34.9037 32.3831 35.2524L34.6033 37.4727C35.0248 37.8941 34.9874 38.5904 34.5001 38.9337 32.3422 40.4537 29.84 41.5178 27.1337 41.986 26.5466 42.0876 26.0281 41.6217 26.0281 41.026V37.8859zM15.6171 35.2523C15.9658 34.9036 16.5146 34.8648 16.9306 35.1296 18.1992 35.9371 19.6152 36.5337 21.1291 36.8699 21.6107 36.9769 21.9717 37.3924 21.9717 37.8857V41.0259C21.9717 41.6217 21.4532 42.0875 20.8661 41.9859 18.1599 41.5177 15.6579 40.4536 13.5 38.9336 13.0127 38.5903 12.9754 37.894 13.3968 37.4726L15.6171 35.2523zM10.1146 26.0295C10.6079 26.0295 11.0234 26.3904 11.1304 26.8719 11.4668 28.386 12.0635 29.802 12.8712 31.0706 13.136 31.4866 13.0973 32.0355 12.7485 32.3842L10.5283 34.6044C10.1069 35.0259 9.41063 34.9885 9.06736 34.5013 7.5471 32.3435 6.48273 29.8414 6.01429 27.1351 5.91267 26.548 6.37854 26.0295 6.97435 26.0295H10.1146zM12.7477 15.6171C13.0964 15.9659 13.1352 16.5146 12.8704 16.9307 12.0627 18.1996 11.466 19.616 11.1299 21.1304 11.023 21.612 10.6074 21.973 10.114 21.973H6.97392C6.37816 21.973 5.91231 21.4546 6.01383 20.8675 6.48194 18.1608 7.54616 15.6583 9.06639 13.5001 9.40964 13.0128 10.1059 12.9754 10.5274 13.3969L12.7477 15.6171z" fill="#fff"/><path d="M10.5274 13.3969L9.82029 14.104L10.5274 13.3969ZM12.7477 15.6171L12.0406 16.3242L12.7477 15.6171ZM6.01429 27.1351L5.02894 27.3056L6.01429 27.1351ZM10.5283 34.6044L9.82121 33.8973L9.82121 33.8973L10.5283 34.6044ZM9.06736 34.5013L8.24987 35.0772L9.06736 34.5013ZM12.8712 31.0706L12.0276 31.6076L12.8712 31.0706ZM12.7485 32.3842L12.0414 31.6771L12.7485 32.3842ZM13.5 38.9336L12.9242 39.7511L13.5 38.9336ZM13.3968 37.4726L12.6897 36.7655L13.3968 37.4726ZM21.1291 36.8699L20.9123 37.8461L20.9123 37.8461L21.1291 36.8699ZM16.9306 35.1296L16.3937 35.9732L16.9306 35.1296ZM15.6171 35.2523L16.3242 35.9594L15.6171 35.2523ZM27.1337 41.986L27.3041 42.9714L27.1337 41.986ZM34.6033 37.4727L35.3104 36.7656L34.6033 37.4727ZM34.5001 38.9337L35.076 39.7512L34.5001 38.9337ZM31.0695 35.1297L30.5326 34.2861L31.0695 35.1297ZM32.3831 35.2524L31.6759 35.9595L32.3831 35.2524ZM26.8707 36.87L27.0875 37.8462L26.8707 36.87ZM38.9328 34.5014L38.1153 33.9255L38.9328 34.5014ZM37.4719 34.6046L38.179 33.8974L37.4719 34.6046ZM41.986 27.1351L42.9714 27.3056L41.986 27.1351ZM36.8699 26.8719L37.8461 27.0888L36.8699 26.8719ZM35.1291 31.0707L35.9726 31.6078L35.1291 31.0707ZM35.2517 32.3844L34.5446 33.0915L35.2517 32.3844ZM41.9865 20.8675L42.9718 20.6971L41.9865 20.8675ZM37.4728 13.3967L38.1799 14.1039L37.4728 13.3967ZM35.1299 16.9305L35.9735 16.3936L35.1299 16.9305ZM35.2525 15.617L35.9596 16.3241L35.2525 15.617ZM36.8704 21.1304L37.8467 20.9137L36.8704 21.1304ZM32.3844 12.7484L31.6773 12.0413L32.3844 12.7484ZM31.0708 12.8711L31.6078 12.0275L31.0708 12.8711ZM34.5015 9.06729L35.0774 8.2498L34.5015 9.06729ZM34.6046 10.5283L33.8975 9.82114L34.6046 10.5283ZM27.1337 6.01396L26.9632 6.99933L27.1337 6.01396ZM26.8707 11.13L26.6539 12.1062L26.8707 11.13ZM21.1291 11.1301L20.9123 10.1539L21.1291 11.1301ZM16.9294 12.8712L17.4664 13.7147L16.9294 12.8712ZM13.4987 9.06739L14.0746 9.88487L13.4987 9.06739ZM20.6956 5.0287C17.8393 5.52292 15.1989 6.64626 12.9227 8.24991L14.0746 9.88487C16.1147 8.44753 18.4793 7.44189 21.0366 6.99942L20.6956 5.0287ZM16.3228 12.0414L14.1026 9.82124L12.6884 11.2355L14.9086 13.4556L16.3228 12.0414ZM20.9123 10.1539C19.2819 10.516 17.7575 11.1585 16.3923 12.0276L17.4664 13.7147C18.6391 12.9681 19.9474 12.4169 21.3459 12.1063L20.9123 10.1539ZM20.9717 6.97413V10.1143H22.9717V6.97413H20.9717ZM27.0281 10.1141V6.97404H25.0281V10.1141H27.0281ZM35.0774 8.2498C32.8012 6.64611 30.1606 5.52276 27.3041 5.0286L26.9632 6.99933C29.5206 7.44175 31.8853 8.44739 33.9255 9.88478L35.0774 8.2498ZM33.8975 9.82114L31.6773 12.0413L33.0915 13.4556L35.3117 11.2354L33.8975 9.82114ZM31.6078 12.0275C30.2426 11.1583 28.718 10.5158 27.0875 10.1538L26.6539 12.1062C28.0526 12.4168 29.361 12.968 30.5337 13.7146L31.6078 12.0275ZM37.8467 20.9137C37.4847 19.2833 36.8424 17.7588 35.9735 16.3936L34.2863 17.4675C35.0327 18.6402 35.5837 19.9485 35.8942 21.3471L37.8467 20.9137ZM35.9596 16.3241L38.1799 14.1039L36.7657 12.6896L34.5454 14.9099L35.9596 16.3241ZM42.9718 20.6971C42.4779 17.8408 41.3548 15.2003 39.7513 12.9241L38.1163 14.0758C39.5534 16.116 40.5588 18.4807 41.0011 21.0379L42.9718 20.6971ZM41.0264 20.973H37.8863V22.973H41.0264V20.973ZM35.9726 31.6078C36.8416 30.2429 37.484 28.7188 37.8461 27.0888L35.8937 26.6551C35.5831 28.0533 35.032 29.3612 34.2855 30.5337L35.9726 31.6078ZM37.8857 27.0295H41.0259V25.0295H37.8857V27.0295ZM39.7503 35.0774C41.3538 32.8015 42.477 30.1615 42.9714 27.3056L41.0007 26.9645C40.5581 29.5214 39.5525 31.8856 38.1153 33.9255L39.7503 35.0774ZM38.179 33.8974L35.9588 31.6773L34.5446 33.0915L36.7648 35.3117L38.179 33.8974ZM27.0875 37.8462C28.7174 37.4843 30.2416 36.8421 31.6065 35.9733L30.5326 34.2861C29.3601 35.0324 28.0521 35.5833 26.6539 35.8938L27.0875 37.8462ZM31.6759 35.9595L33.8962 38.1798L35.3104 36.7656L33.0902 34.5453L31.6759 35.9595ZM27.3041 42.9714C30.16 42.4773 32.8 41.3544 35.076 39.7512L33.9242 38.1161C31.8843 39.553 29.52 40.5583 26.9632 41.0007L27.3041 42.9714ZM27.0281 41.026V37.8859H25.0281V41.026H27.0281ZM16.3937 35.9732C17.7585 36.842 19.2825 37.4841 20.9123 37.8461L21.3459 35.8937C19.9478 35.5832 18.64 35.0323 17.4676 34.286L16.3937 35.9732ZM20.9717 37.8857V41.0259H22.9717V37.8857H20.9717ZM12.9242 39.7511C15.2 41.3542 17.8399 42.4772 20.6956 42.9713L21.0366 41.0006C18.4799 40.5582 16.1157 39.5529 14.0759 38.116L12.9242 39.7511ZM14.1039 38.1797L16.3242 35.9594L14.91 34.5452L12.6897 36.7655L14.1039 38.1797ZM10.1542 27.0888C10.5163 28.7187 11.1587 30.2428 12.0276 31.6076L13.7147 30.5335C12.9683 29.3612 12.4172 28.0532 12.1066 26.6551L10.1542 27.0888ZM12.0414 31.6771L9.82121 33.8973L11.2354 35.3115L13.4556 33.0913L12.0414 31.6771ZM5.02894 27.3056C5.52326 30.1615 6.64648 32.8014 8.24987 35.0772L9.88484 33.9253C8.44772 31.8855 7.4422 29.5213 6.99964 26.9645L5.02894 27.3056ZM6.97435 27.0295H10.1146V25.0295H6.97435V27.0295ZM12.0267 16.3937C11.1578 17.7589 10.5155 19.2833 10.1536 20.9137L12.1061 21.3471C12.4165 19.9486 12.9675 18.6403 13.714 17.4676L12.0267 16.3937ZM10.114 20.973H6.97392V22.973H10.114V20.973ZM8.24886 12.9242C6.64549 15.2004 5.52242 17.8409 5.02846 20.6971L6.99921 21.038C7.44145 18.4807 8.44683 16.1161 9.88393 14.076L8.24886 12.9242ZM9.82029 14.104L12.0406 16.3242L13.4548 14.91L11.2345 12.6898L9.82029 14.104ZM9.88393 14.076C9.88016 14.0813 9.87134 14.0903 9.8586 14.0973C9.84715 14.1035 9.83785 14.1052 9.83259 14.1056C9.82268 14.1062 9.81846 14.1022 9.82029 14.104L11.2345 12.6898C10.4049 11.8602 8.97407 11.8947 8.24886 12.9242L9.88393 14.076ZM6.97392 20.973C6.9714 20.973 6.97728 20.9732 6.98383 20.9806C6.9873 20.9846 6.99265 20.9924 6.99635 21.0049C7.00045 21.0188 7.00033 21.0314 6.99921 21.038L5.02846 20.6971C4.81394 21.9376 5.80117 22.973 6.97392 22.973V20.973ZM10.1536 20.9137C10.148 20.9389 10.135 20.9571 10.1233 20.967C10.1179 20.9714 10.1145 20.9729 10.1139 20.9731C10.1138 20.9731 10.1144 20.973 10.114 20.973V22.973C11.1149 22.973 11.9062 22.2475 12.1061 21.3471L10.1536 20.9137ZM13.714 17.4676C14.2093 16.6895 14.1621 15.6174 13.4548 14.91L12.0406 16.3242C12.0409 16.3245 12.0405 16.3241 12.0405 16.3241C12.0408 16.3247 12.0422 16.3282 12.0428 16.335C12.0441 16.3501 12.0405 16.3721 12.0267 16.3937L13.714 17.4676ZM6.99964 26.9645C7.00076 26.971 7.00089 26.9837 6.99678 26.9976C6.99309 27.0101 6.98774 27.0179 6.98426 27.0219C6.97771 27.0293 6.97183 27.0295 6.97435 27.0295V25.0295C5.80149 25.0295 4.81422 26.0651 5.02894 27.3056L6.99964 26.9645ZM9.82121 33.8973C9.81937 33.8991 9.82359 33.8951 9.83351 33.8957C9.83877 33.8961 9.84807 33.8978 9.85951 33.904C9.87225 33.911 9.88107 33.92 9.88484 33.9253L8.24987 35.0772C8.97513 36.1066 10.4059 36.1411 11.2354 35.3115L9.82121 33.8973ZM12.0276 31.6076C12.0414 31.6293 12.045 31.6512 12.0437 31.6663C12.0431 31.6732 12.0417 31.6766 12.0414 31.6772C12.0414 31.6773 12.0417 31.6768 12.0414 31.6771L13.4556 33.0913C14.163 32.3839 14.2101 31.3117 13.7147 30.5335L12.0276 31.6076ZM12.1066 26.6551C11.9066 25.7548 11.1153 25.0295 10.1146 25.0295V27.0295C10.115 27.0295 10.1143 27.0294 10.1144 27.0294C10.115 27.0296 10.1185 27.0311 10.1238 27.0355C10.1355 27.0454 10.1486 27.0636 10.1542 27.0888L12.1066 26.6551ZM14.0759 38.116C14.0813 38.1198 14.0903 38.1286 14.0972 38.1414C14.1035 38.1528 14.1052 38.1621 14.1055 38.1674C14.1062 38.1773 14.1021 38.1815 14.1039 38.1797L12.6897 36.7655C11.8601 37.5951 11.8946 39.0259 12.9242 39.7511L14.0759 38.116ZM20.9717 41.0259C20.9717 41.0284 20.9718 41.0225 20.9792 41.016C20.9832 41.0125 20.991 41.0071 21.0035 41.0034C21.0174 40.9993 21.0301 40.9995 21.0366 41.0006L20.6956 42.9713C21.9361 43.1859 22.9717 42.1987 22.9717 41.0259H20.9717ZM20.9123 37.8461C20.9375 37.8517 20.9557 37.8648 20.9656 37.8765C20.9701 37.8818 20.9715 37.8853 20.9717 37.8859C20.9717 37.886 20.9717 37.8853 20.9717 37.8857H22.9717C22.9717 36.8849 22.2462 36.0936 21.3459 35.8937L20.9123 37.8461ZM17.4676 34.286C16.6895 33.7907 15.6173 33.8379 14.91 34.5452L16.3242 35.9594C16.3245 35.9591 16.324 35.9595 16.3241 35.9595C16.3247 35.9592 16.3281 35.9578 16.335 35.9572C16.3501 35.9559 16.372 35.9595 16.3937 35.9732L17.4676 34.286ZM26.9632 41.0007C26.9697 40.9996 26.9823 40.9994 26.9963 41.0035C27.0088 41.0072 27.0166 41.0126 27.0205 41.0161C27.028 41.0226 27.0281 41.0285 27.0281 41.026H25.0281C25.0281 42.1988 26.0637 43.186 27.3041 42.9714L26.9632 41.0007ZM33.8962 38.1798C33.898 38.1816 33.894 38.1774 33.8946 38.1675C33.895 38.1622 33.8967 38.1529 33.9029 38.1415C33.9099 38.1287 33.9189 38.1199 33.9242 38.1161L35.076 39.7512C36.1055 39.026 36.14 37.5952 35.3104 36.7656L33.8962 38.1798ZM31.6065 35.9733C31.6281 35.9596 31.65 35.956 31.6651 35.9573C31.672 35.9579 31.6755 35.9593 31.6761 35.9596C31.6761 35.9596 31.6756 35.9592 31.6759 35.9595L33.0902 34.5453C32.3828 33.838 31.3107 33.7908 30.5326 34.2861L31.6065 35.9733ZM26.6539 35.8938C25.7536 36.0937 25.0281 36.885 25.0281 37.8859H27.0281C27.0281 37.8855 27.028 37.8861 27.0281 37.886C27.0283 37.8854 27.0297 37.8819 27.0342 37.8766C27.044 37.8649 27.0623 37.8518 27.0875 37.8462L26.6539 35.8938ZM38.1153 33.9255C38.1191 33.9201 38.1279 33.9111 38.1407 33.9042C38.1521 33.8979 38.1614 33.8962 38.1667 33.8959C38.1766 33.8952 38.1808 33.8993 38.179 33.8974L36.7648 35.3117C37.5943 36.1412 39.025 36.1068 39.7503 35.0774L38.1153 33.9255ZM41.0259 27.0295C41.0285 27.0295 41.0226 27.0293 41.016 27.0219C41.0126 27.0179 41.0072 27.0101 41.0035 26.9976C40.9994 26.9837 40.9995 26.971 41.0007 26.9645L42.9714 27.3056C43.1861 26.0651 42.1988 25.0295 41.0259 25.0295V27.0295ZM37.8461 27.0888C37.8517 27.0636 37.8648 27.0454 37.8765 27.0355C37.8818 27.0311 37.8853 27.0296 37.8859 27.0294C37.8859 27.0294 37.8853 27.0295 37.8857 27.0295V25.0295C36.885 25.0295 36.0937 25.7548 35.8937 26.6551L37.8461 27.0888ZM34.2855 30.5337C33.7901 31.3118 33.8372 32.3841 34.5446 33.0915L35.9588 31.6773C35.9585 31.677 35.9588 31.6774 35.9588 31.6774C35.9585 31.6768 35.9571 31.6733 35.9565 31.6665C35.9552 31.6514 35.9588 31.6294 35.9726 31.6078L34.2855 30.5337ZM41.0011 21.0379C41 21.0314 40.9998 21.0188 41.0039 21.0049C41.0076 20.9924 41.013 20.9846 41.0165 20.9806C41.023 20.9732 41.0289 20.973 41.0264 20.973V22.973C42.1991 22.973 43.1863 21.9376 42.9718 20.6971L41.0011 21.0379ZM38.1799 14.1039C38.1817 14.102 38.1775 14.1061 38.1676 14.1054C38.1623 14.1051 38.153 14.1034 38.1416 14.0971C38.1289 14.0902 38.12 14.0812 38.1163 14.0758L39.7513 12.9241C39.0261 11.8945 37.5953 11.8601 36.7657 12.6896L38.1799 14.1039ZM35.9735 16.3936C35.9597 16.3719 35.9561 16.35 35.9574 16.3349C35.958 16.328 35.9594 16.3246 35.9597 16.324C35.9597 16.3239 35.9593 16.3244 35.9596 16.3241L34.5454 14.9099C33.8381 15.6172 33.7909 16.6894 34.2863 17.4675L35.9735 16.3936ZM35.8942 21.3471C36.094 22.2474 36.8854 22.973 37.8863 22.973V20.973C37.8859 20.973 37.8865 20.9731 37.8864 20.9731C37.8858 20.9729 37.8823 20.9714 37.877 20.967C37.8653 20.9571 37.8523 20.9389 37.8467 20.9137L35.8942 21.3471ZM31.6773 12.0413C31.677 12.0416 31.6775 12.0413 31.6774 12.0413C31.6768 12.0416 31.6734 12.043 31.6665 12.0436C31.6514 12.0449 31.6295 12.0413 31.6078 12.0275L30.5337 13.7146C31.3119 14.21 32.3841 14.1629 33.0915 13.4556L31.6773 12.0413ZM33.9255 9.88478C33.9202 9.88101 33.9112 9.87219 33.9042 9.85945C33.898 9.848 33.8963 9.8387 33.8959 9.83344C33.8953 9.82353 33.8993 9.81931 33.8975 9.82114L35.3117 11.2354C36.1413 10.4058 36.1068 8.97506 35.0774 8.2498L33.9255 9.88478ZM27.0281 6.97404C27.0281 6.97153 27.028 6.9774 27.0205 6.98395C27.0166 6.98743 27.0088 6.99278 26.9963 6.99647C26.9823 7.00058 26.9697 7.00045 26.9632 6.99933L27.3041 5.0286C26.0637 4.814 25.0281 5.80125 25.0281 6.97404H27.0281ZM25.0281 10.1141C25.0281 11.115 25.7536 11.9063 26.6539 12.1062L27.0875 10.1538C27.0623 10.1482 27.044 10.1351 27.0342 10.1234C27.0297 10.1181 27.0283 10.1146 27.0281 10.114C27.028 10.1139 27.0281 10.1145 27.0281 10.1141H25.0281ZM21.3459 12.1063C22.2462 11.9064 22.9717 11.1151 22.9717 10.1143H20.9717C20.9717 10.1147 20.9717 10.1141 20.9717 10.1141C20.9715 10.1147 20.9701 10.1182 20.9656 10.1235C20.9557 10.1352 20.9375 10.1483 20.9123 10.1539L21.3459 12.1063ZM14.9086 13.4556C15.616 14.163 16.6883 14.2101 17.4664 13.7147L16.3923 12.0276C16.3707 12.0414 16.3488 12.045 16.3336 12.0437C16.3268 12.0431 16.3233 12.0417 16.3227 12.0414C16.3227 12.0414 16.3231 12.0417 16.3228 12.0414L14.9086 13.4556ZM12.9227 8.24991C11.8933 8.97518 11.8589 10.4059 12.6884 11.2355L14.1026 9.82124C14.1008 9.8194 14.1049 9.82362 14.1042 9.83354C14.1039 9.8388 14.1022 9.8481 14.0959 9.85955C14.089 9.87228 14.08 9.8811 14.0746 9.88487L12.9227 8.24991ZM21.0366 6.99942C21.0301 7.00054 21.0174 7.00066 21.0035 6.99656C20.991 6.99287 20.9832 6.98751 20.9792 6.98404C20.9718 6.97749 20.9717 6.97161 20.9717 6.97413H22.9717C22.9717 5.80132 21.9361 4.81406 20.6956 5.0287L21.0366 6.99942Z" fill="#1D1D21"/><path d="M33 24C33 28.9706 28.9706 33 24 33C19.0294 33 15 28.9706 15 24C15 19.0294 19.0294 15 24 15C28.9706 15 33 19.0294 33 24Z" fill="#fff"/><path fill-rule="evenodd" clip-rule="evenodd" d="M24 31C27.866 31 31 27.866 31 24C31 20.134 27.866 17 24 17C20.134 17 17 20.134 17 24C17 27.866 20.134 31 24 31ZM24 33C28.9706 33 33 28.9706 33 24C33 19.0294 28.9706 15 24 15C19.0294 15 15 19.0294 15 24C15 28.9706 19.0294 33 24 33Z" fill="#1D1D21"/></svg>