<svg viewBox="0 0 48 48" fill="none" xmlns="http://www.w3.org/2000/svg"><circle cx="24" cy="24" r="24" fill="#65ADB7"/><path fill="#fff" d="M23 15H25V17H23zM18 19H30V32H18z"/><path fill-rule="evenodd" clip-rule="evenodd" d="M22.2445 14.041C22.5841 13.4207 23.243 13 24 13C24.7571 13 25.416 13.4207 25.7556 14.041C26.0208 14.5255 26.4601 14.9837 26.9819 15.1644C27.8429 15.4624 27.9887 16.1416 28.0052 17H29C30.6569 17 32 18.3431 32 20V31C32 32.6569 30.6569 34 29 34H19C17.3431 34 16 32.6569 16 31V20C16 18.3431 17.3431 17 19 17H19.9953C20.0116 16.1416 20.1572 15.4624 21.0182 15.1644C21.54 14.9837 21.9793 14.5255 22.2445 14.041ZM18 20C18 19.4477 18.4477 19 19 19H29C29.5523 19 30 19.4477 30 20V31C30 31.5523 29.5523 32 29 32H19C18.4477 32 18 31.5523 18 31V20ZM24 17C24.5523 17 25 16.5523 25 16C25 15.4477 24.5523 15 24 15C23.4477 15 23 15.4477 23 16C23 16.5523 23.4477 17 24 17Z" fill="#1D1D21"/><path d="M21.5547 26.1679C21.0952 25.8616 20.4743 25.9858 20.1679 26.4453 19.8616 26.9048 19.9858 27.5257 20.4453 27.8321L21.5547 26.1679zM27.9191 22.3939C28.1367 21.8863 27.9015 21.2984 27.3939 21.0809 26.8863 20.8633 26.2984 21.0985 26.0809 21.6061L27.9191 22.3939zM23.9 28.9333L24.4547 28.1013 23.9 28.9333zM24.0474 28.8895L24.9665 29.2834 24.0474 28.8895zM20.4453 27.8321L23.3453 29.7654 24.4547 28.1013 21.5547 26.1679 20.4453 27.8321zM24.9665 29.2834L27.9191 22.3939 26.0809 21.6061 23.1282 28.4956 24.9665 29.2834zM23.3453 29.7654C23.9175 30.1469 24.6956 29.9156 24.9665 29.2834L23.1282 28.4956C23.3499 27.9784 23.9865 27.7891 24.4547 28.1013L23.3453 29.7654zM20 19H28V20H20z" fill="#1D1D21"/></svg>