<svg viewBox="0 0 983 365" fill="none" xmlns="http://www.w3.org/2000/svg"><g clip-path="url(#clip0)"><g clip-path="url(#clip1)"><path d="M-246.311 257.526L401.487 255.081L725.384 253.858L765.872 253.706L775.994 253.668L781.055 253.649L783.585 253.64L786.249 253.579C793.353 253.41 800.412 252.386 807.291 250.737C821.028 247.337 834.021 241.09 845.055 232.377C850.608 228.07 855.615 223.094 860.1 217.722C864.522 212.294 868.43 206.448 871.556 200.206C877.907 187.77 881.372 173.979 881.822 160.15C882.283 146.312 879.57 132.446 874.063 119.877C871.327 113.586 867.893 107.62 863.879 102.09C859.86 96.5697 855.302 91.4397 850.179 86.957C839.974 77.9379 827.854 71.2644 814.992 67.1903C827.691 71.7576 839.441 78.8594 849.122 88.1059C853.986 92.703 858.249 97.8986 861.958 103.427C865.66 108.964 868.771 114.889 871.18 121.073C876.03 133.427 878.088 146.792 877.141 159.914C876.208 173.028 872.414 185.908 866.038 197.276C862.899 202.99 859.049 208.282 854.761 213.152C850.411 217.967 845.615 222.383 840.35 226.146C829.889 233.773 817.786 238.998 805.225 241.599C798.933 242.849 792.53 243.53 786.137 243.43L783.74 243.394L781.212 243.305L776.154 243.129L766.038 242.777L725.575 241.367L401.87 230.089L-245.535 207.532L-246.311 257.526Z" fill="#8D6E97"/><path d="M-232.606 307.316L409.113 274.537L729.945 258.149L770.048 256.101L780.074 255.588L785.087 255.333L787.593 255.204L788.851 255.138L790.177 255.036C797.231 254.534 804.164 253.271 810.915 251.339C824.403 247.462 837.022 240.761 847.683 231.78C858.356 222.819 867.053 211.573 872.937 199.043C875.899 192.787 878.116 186.214 879.698 179.515C881.215 172.797 882.038 165.935 882.134 159.072C882.176 152.21 881.492 145.358 880.101 138.668C879.745 136.998 879.327 135.341 878.915 133.686C878.422 132.052 878.011 130.396 877.45 128.786C876.398 125.543 875.183 122.36 873.794 119.255C868.265 106.829 860.093 95.6233 849.939 86.7206C844.865 82.2678 839.318 78.3849 833.446 75.1169C827.575 71.8458 821.362 69.2384 814.993 67.1898C821.278 69.4843 827.361 72.3224 833.054 75.7931C838.748 79.2587 844.071 83.3059 848.886 87.8741C858.524 97.0103 866.041 108.247 870.921 120.473C872.149 123.527 873.202 126.649 874.093 129.81C874.575 131.38 874.905 132.992 875.319 134.578C875.651 136.183 875.992 137.788 876.27 139.401C877.355 145.863 877.749 152.423 877.456 158.94C877.111 165.455 876.078 171.916 874.402 178.194C872.663 184.454 870.337 190.55 867.345 196.281C861.395 207.766 852.919 217.855 842.776 225.72C832.643 233.604 820.859 239.264 808.49 242.302C802.311 243.814 795.965 244.712 789.653 244.913L788.473 244.959L787.223 244.977L784.713 245.007L779.693 245.068L769.653 245.19L729.497 245.676L408.251 249.565L-234.184 257.342L-232.606 307.316Z" fill="#E97107"/><path d="M-221.997 356.446L414.547 293.462L732.765 261.975L772.54 258.039L792.427 256.071L793.674 255.946L794.992 255.77L797.622 255.408C799.346 255.102 801.077 254.842 802.783 254.455C806.212 253.765 809.589 252.842 812.919 251.795C826.236 247.582 838.603 240.583 849.013 231.422C859.433 222.275 867.88 210.947 873.57 198.402C879.267 185.855 882.167 172.152 882.194 158.497C882.233 144.83 879.195 131.256 873.652 118.913C868.099 106.563 859.923 95.4428 849.804 86.5961C844.743 82.1749 839.214 78.3199 833.366 75.074C827.519 71.8179 821.332 69.2303 814.992 67.1901C821.248 69.4762 827.305 72.2955 832.974 75.7492C838.645 79.1936 843.949 83.2139 848.752 87.7514C858.355 96.8337 865.875 107.988 870.78 120.142C875.676 132.299 878.054 145.42 877.508 158.406C876.976 171.38 873.709 184.209 867.928 195.715C862.152 207.227 853.896 217.41 843.967 225.459C834.049 233.521 822.475 239.465 810.241 242.813C807.182 243.642 804.092 244.361 800.967 244.861C799.412 245.154 797.837 245.322 796.272 245.54L793.941 245.768L792.778 245.88L791.534 245.956L771.58 247.145L731.673 249.525L412.43 268.554L-225.948 306.602L-221.997 356.446Z" fill="#65ADB7"/><path d="M-200.44 404.095L425.516 310.725L738.495 264.039L777.617 258.204L797.178 255.286L806.959 253.828C810.325 253.353 813.844 252.651 817.203 251.726C823.96 249.887 830.51 247.08 836.454 243.422C839.398 241.626 842.248 239.67 844.978 237.555C846.362 236.516 847.647 235.368 848.936 234.235L850.873 232.536C851.522 231.974 852.169 231.409 852.758 230.782L856.378 227.12C857.564 225.883 858.634 224.535 859.765 223.247C860.317 222.591 860.892 221.956 861.422 221.284L862.956 219.221L864.486 217.158L865.249 216.127L865.944 215.048L868.705 210.725C869.554 209.243 870.354 207.732 871.178 206.237C872.04 204.761 872.698 203.183 873.424 201.641L874.493 199.32C874.861 198.552 875.121 197.736 875.44 196.947C885.524 171.599 884.572 142.492 873.32 118.143C870.48 112.069 867.021 106.313 863.06 100.943L859.974 97.0046C858.889 95.739 857.751 94.5196 856.643 93.2772C855.564 92.0067 854.331 90.8834 853.137 89.7236C851.931 88.5776 850.777 87.3785 849.467 86.3488L845.643 83.1543L841.608 80.2385C840.294 79.2245 838.846 78.4054 837.445 77.5227C836.024 76.6719 834.664 75.7214 833.17 75L828.777 72.6965C827.293 71.9708 825.755 71.354 824.25 70.6795L821.981 69.6889C821.211 69.3917 820.428 69.1295 819.652 68.8492L814.992 67.1894L819.581 69.0289C820.343 69.3392 821.112 69.6314 821.868 69.9577L824.089 71.0352C825.563 71.7672 827.064 72.4382 828.51 73.2183L832.779 75.6771C834.23 76.4484 835.543 77.4464 836.914 78.3431C838.266 79.2705 839.66 80.1339 840.919 81.1882L844.782 84.2183L848.42 87.5095C849.666 88.5687 850.753 89.7947 851.891 90.9648C853.016 92.1475 854.179 93.2921 855.186 94.58C856.222 95.8399 857.287 97.0738 858.297 98.3502L861.155 102.312C864.807 107.699 867.941 113.418 870.456 119.398C880.414 143.384 880.052 171.217 869.674 194.531C869.347 195.257 869.079 196.009 868.704 196.714L867.617 198.84C866.882 200.252 866.218 201.699 865.356 203.039C864.532 204.399 863.737 205.774 862.896 207.118L860.175 211.023L859.495 211.998L858.748 212.923L857.258 214.773L855.77 216.622C855.256 217.223 854.698 217.787 854.165 218.372C853.072 219.516 852.046 220.721 850.907 221.817L847.443 225.051C846.882 225.607 846.266 226.102 845.647 226.594L843.805 228.083C842.579 229.079 841.367 230.085 840.076 230.975C837.52 232.798 834.858 234.473 832.113 236.003C826.701 239.044 820.913 241.249 814.891 242.639C811.862 243.339 808.884 243.82 805.707 244.141L795.876 245.213L776.215 247.356L736.893 251.641L422.314 285.929L-206.842 354.505L-200.44 404.095Z" fill="#FFC61C"/></g><path d="M755.005 31.4159C755.005 31.4159 756.401 28.1417 764.46 31.2341C769.783 33.2765 781.837 38.0926 789.409 41.1277C793.72 42.8559 798.436 43.301 802.994 42.4052L812.944 40.4496C814.846 40.0757 816.818 40.3261 818.567 41.1636L823.624 43.5854C824.604 44.0548 825.03 45.2209 824.583 46.2115L818.715 59.2221L821.353 60.8119C821.826 61.097 821.979 61.7115 821.694 62.1846L821.167 63.0593C820.882 63.5324 821.034 64.1469 821.507 64.4319L822.364 64.948C822.837 65.2331 822.989 65.8476 822.704 66.3207L822.16 67.2237C822.444 67.3861 822.732 67.5548 823.022 67.7294C826.806 70.0097 829.527 72.4334 829.1 73.143C828.672 73.8526 825.258 72.5793 821.473 70.299C821.184 70.1244 820.9 69.9489 820.624 69.7735L820.101 70.6399L755.005 31.4159Z" class="docs-hero-rocket--rocket"/></g><defs><clipPath id="clip0"><path fill="#fff" d="M0 0H983V367H0z"/></clipPath><clipPath id="clip1"><path fill="#fff" transform="matrix(-0.991647 0.128981 0.128981 0.991647 870.267 60)" d="M0 0H1132.73V203.12H0z"/></clipPath></defs></svg>