<svg width="37" height="37" viewBox="0 0 37 37" fill="none" xmlns="http://www.w3.org/2000/svg">
<path d="M22.2689 15.2812L27.2828 15.2812C27.8314 15.2812 28.2812 14.8321 28.2812 14.2844L28.2812 9.27812C28.2812 8.73039 27.8314 8.28125 27.2828 8.28125L22.2799 8.28125C21.7313 8.28125 21.2814 8.73039 21.2814 9.27812L21.2814 14.2734C21.2705 14.8321 21.7203 15.2812 22.2689 15.2812Z" fill="#6E6E6E"/>
<path d="M12.2896 14.6422C12.2896 13.2426 13.5323 12.1229 15.008 12.2628C16.284 12.392 17.2161 13.5333 17.2161 14.7822L17.2161 21.6836C17.2161 23.9769 18.9359 26.0333 21.2993 26.2594C23.9955 26.5178 26.2812 24.4506 26.2812 21.8774L26.2812 17.7538C26.2812 17.2155 25.8263 16.774 25.2715 16.774C24.7168 16.774 24.2618 17.2155 24.2618 17.7538L24.2618 21.7374C24.2618 23.0079 23.3187 24.1707 22.0205 24.2999C20.5226 24.4506 19.2577 23.3093 19.2577 21.8774L19.2577 14.836C19.2577 12.5643 17.5489 10.5294 15.2188 10.3033C12.5448 10.0449 10.2812 12.0906 10.2812 14.6422L10.2812 18.8089C10.2812 19.3472 10.7362 19.7887 11.291 19.7887C11.8457 19.7887 12.3007 19.3472 12.3007 18.8089L12.3007 14.6422L12.2896 14.6422Z" fill="#CBCBCB"/>
<path d="M9.26589 28.3217L14.1983 28.3217C14.7391 28.3217 15.1826 27.87 15.1826 27.3191L15.1826 22.2839C15.1826 21.733 14.7391 21.2812 14.1983 21.2812L9.26589 21.2812C8.72505 21.2812 8.28157 21.733 8.28157 22.2839L8.28157 27.3081C8.28157 27.87 8.72505 28.3217 9.26589 28.3217Z" fill="#6E6E6E"/>
</svg>
