<svg width="32" height="32" viewBox="0 0 32 32" fill="none" xmlns="http://www.w3.org/2000/svg">
<path d="M12.051 15.1607C11.5238 15.1607 10.9966 15.1607 10.4704 15.1607C10.0816 15.1607 9.70388 15.2671 9.31148 15.2561C8.4359 15.2331 7.56216 14.4602 7.44389 13.5948C7.3137 12.6431 7.67585 11.9307 8.48633 11.4411C8.75679 11.2779 9.05843 11.2073 9.38115 11.2092C9.97251 11.211 10.474 11.0029 10.8077 10.4931C11.1616 9.95219 11.1736 9.37917 10.8435 8.82999C10.1064 7.60602 10.9132 5.95756 12.3352 5.80353C13.2208 5.70818 13.8947 6.04099 14.3559 6.79737C14.6749 7.32088 15.1168 7.66103 15.7375 7.6757C16.3683 7.69128 16.8442 7.37773 17.165 6.84047C17.6638 6.00523 18.422 5.70268 19.2921 5.81912C20.0879 5.92547 20.7535 6.57367 20.9305 7.40615C21.0286 7.86915 20.9864 8.3294 20.7517 8.76031C20.5912 9.05461 20.4656 9.35442 20.4482 9.70648C20.407 10.5619 21.1065 11.299 22.027 11.3082C23.0328 11.3183 23.7671 11.8803 24.0486 12.8475C24.3053 13.7332 23.8038 14.8132 22.9704 15.1855C22.6825 15.3138 22.3974 15.2295 22.1159 15.191C21.3174 15.0837 20.5307 14.9122 19.7505 14.706C19.2884 14.5831 18.8768 14.3493 18.4422 14.1678C18.3441 14.1265 18.2506 14.0724 18.1525 14.0303C17.8087 13.8826 17.8059 13.8836 17.8499 13.5122C17.9884 12.3424 17.1091 11.3146 15.986 11.2046C14.6704 11.0753 13.5692 12.1746 13.6811 13.4765C13.7214 13.945 13.9112 14.3603 14.2257 14.7105C14.3192 14.8151 14.2963 14.8508 14.2019 14.9361C14.002 15.1158 13.7865 15.1772 13.5179 15.1653C13.0301 15.1442 12.5406 15.1598 12.0519 15.1598L12.051 15.1607Z" fill="#CBCBCB"/>
<path d="M12.6052 16.4811L12.6072 16.4821C12.3698 16.735 12.1733 16.9469 11.9744 17.1559C11.2191 17.9508 11.1968 19.2324 11.9265 20.0309C12.7049 20.8835 13.9584 21.0037 14.8376 20.3014C15.2134 20.0017 15.5835 19.6933 15.9382 19.3698C16.0904 19.2314 16.1635 19.254 16.2927 19.3951C17.9136 21.171 19.5497 22.9325 21.1248 24.7487C21.2119 24.8495 21.2393 24.9389 21.1843 25.0553C21.1018 25.2295 21.0245 25.4023 20.7908 25.4215C20.2895 25.4628 19.7882 25.5114 19.2869 25.5563C19.2411 25.5599 19.195 25.5631 19.1492 25.5631C18.7201 25.5604 18.4076 25.745 18.1472 26.0944C17.215 27.3428 17.351 27.0609 16.0212 27.2946C15.7005 27.3514 15.3802 27.4304 15.0466 27.4039C14.6423 27.3709 14.2909 27.2139 13.9929 26.9508C12.4619 25.5948 10.9364 24.2332 9.40991 22.8727C9.10931 22.6051 8.93914 22.2683 8.93628 21.8678C8.92619 20.4789 8.89239 19.0878 8.95288 17.6998C8.9813 17.0608 9.53323 16.5082 10.1511 16.4879C10.9496 16.4622 11.75 16.4811 12.6052 16.4811ZM16.4734 15.525C17.4717 15.4243 18.4291 15.5802 19.3513 15.9908C20.0617 16.307 20.8256 16.4298 21.5974 16.4821C22.3059 16.5307 22.6619 16.8958 22.6619 17.609V19.5123C22.6619 20.108 22.6465 20.7037 22.6658 21.2985C22.6814 21.7715 22.5377 22.1828 22.281 22.566C22.1233 22.8007 21.939 23.0146 21.7556 23.2291C21.6732 23.3261 21.6148 23.355 21.5095 23.2369C20.6202 22.2394 19.7274 21.2458 18.8289 20.2574C18.0688 19.4213 17.3013 18.5921 16.5339 17.7633C16.3086 17.5208 16.141 17.5199 15.8835 17.7369C15.2885 18.2394 14.6944 18.7423 14.0994 19.2438C13.7391 19.5471 13.2581 19.5367 12.9373 19.2213C12.6056 18.8958 12.5838 18.4067 12.9138 18.0465C13.527 17.3774 14.1471 16.7123 14.8162 16.0973C15.2782 15.6728 15.8793 15.5855 16.4734 15.525Z" fill="#6E6E6E"/>
</svg>
