<svg width="32" height="32" viewBox="2 2 32 32" fill="none" xmlns="http://www.w3.org/2000/svg">
<path d="M22.2684 15.2808L27.2824 15.2808C27.8309 15.2808 28.2808 14.8316 28.2808 14.2839L28.2808 9.27763C28.2808 8.7299 27.8309 8.28076 27.2824 8.28076L22.2794 8.28076C21.7308 8.28076 21.281 8.7299 21.281 9.27763L21.281 14.2729C21.27 14.8316 21.7198 15.2808 22.2684 15.2808Z" fill="#6E6E6E"/>
<path d="M12.2891 14.6418C12.2891 13.2421 13.5318 12.1224 15.0075 12.2623C16.2835 12.3915 17.2156 13.5328 17.2156 14.7817L17.2156 21.6831C17.2156 23.9764 18.9354 26.0328 21.2988 26.2589C23.995 26.5173 26.2808 24.4501 26.2808 21.8769L26.2808 17.7533C26.2808 17.215 25.8258 16.7735 25.2711 16.7735C24.7163 16.7735 24.2613 17.215 24.2613 17.7533L24.2613 21.7369C24.2613 23.0074 23.3182 24.1702 22.02 24.2994C20.5221 24.4501 19.2572 23.3089 19.2572 21.8769L19.2572 14.8356C19.2572 12.5638 17.5484 10.5289 15.2183 10.3028C12.5443 10.0444 10.2808 12.0901 10.2808 14.6418L10.2808 18.8084C10.2808 19.3468 10.7357 19.7882 11.2905 19.7882C11.8453 19.7882 12.3002 19.3468 12.3002 18.8084L12.3002 14.6418L12.2891 14.6418Z" fill="#CBCBCB"/>
<path d="M9.26508 28.3212L14.1975 28.3212C14.7383 28.3212 15.1818 27.8695 15.1818 27.3186L15.1818 22.2834C15.1818 21.7325 14.7383 21.2808 14.1975 21.2808L9.26508 21.2808C8.72425 21.2808 8.28076 21.7325 8.28076 22.2834L8.28076 27.3076C8.28076 27.8695 8.72425 28.3212 9.26508 28.3212Z" fill="#6E6E6E"/>
</svg>
