<svg width="16" height="16" viewBox="0 0 16 16" fill="none" xmlns="http://www.w3.org/2000/svg">
<path fill-rule="evenodd" clip-rule="evenodd" d="M7.5 1V1.03201V1.06396V1.09586V1.1277V1.15949V1.19123V1.22291V1.25454V1.28612V1.31764V1.34911V1.38053V1.41189V1.4432V1.47446V1.50567V1.53683V1.56794V1.59899V1.62999V1.66095V1.69185V1.7227V1.75351V1.78426V1.81496V1.84562V1.87622V1.90678V1.93728V1.96774V1.99815V2.02851V2.05883V2.08909V2.11931V2.14948V2.17961V2.20969V2.23972V2.2697V2.29964V2.32953V2.35938V2.38918V2.41894V2.44865V2.47831V2.50793V2.53751V2.56704V2.59653V2.62598V2.65538V2.68474V2.71405V2.74332V2.77255V2.80174V2.83088V2.85998V2.88905V2.91806V2.94704V2.97598V3.00487V3.03373V3.06254V3.09131V3.12004V3.14874V3.17739V3.206V3.23458V3.26311V3.29161V3.32007V3.34849V3.37687V3.40521V3.43352V3.46179V3.49002V3.51821V3.54637V3.57448V3.60257V3.63061V3.65863V3.6866V3.71454V3.74244V3.77031V3.79815V3.82594V3.85371V3.88144V3.90913V3.93679V3.96442V3.99202V4.01958V4.04711V4.0746V4.10206V4.12949V4.15689V4.18426V4.21159V4.2389V4.26617V4.29341V4.32062V4.34779V4.37494V4.40206V4.42915V4.45621V4.48323V4.51023V4.5372V4.56414V4.59105V4.61794V4.64479V4.67162V4.69842V4.72519V4.75193V4.77865V4.80534V4.832V4.85864V4.88525V4.91183V4.93839V4.96492V4.99142V5.0179V5.04436V5.07079V5.0972V5.12358V5.14993V5.17627V5.20258V5.22886V5.25512V5.28136V5.30758V5.33377V5.35994V5.38609V5.41222V5.43832V5.4644V5.49047V5.51651V5.54252V5.56852V5.5945V5.62046V5.64639V5.67231V5.69821V5.72408V5.74994V5.77578V5.8016V5.8274V5.85319V5.87895V5.9047V5.93043V5.95614V5.98183V6.00751V6.03317V6.05881V6.08444V6.11005V6.13564V6.16122V6.18678V6.21233V6.23786V6.26338V6.28888V6.31437V6.33984V6.3653V6.39074V6.41617V6.44159V6.467V6.49239V6.51777V6.54313V6.56848V6.59382V6.61915V6.64447V6.66978V6.69507V6.72035V6.74562V6.77089V6.79614V6.82138V6.84661V6.87183V6.89704V6.92224V6.94743V6.97261V6.99779V7.02295V7.04811V7.07326V7.0984V7.12353V7.14866V7.17378V7.19889V7.22399V7.24909V7.27418V7.29927V7.32435V7.34942V7.37449V7.39955V7.42461V7.44966V7.47471V7.49975V7.5H7.49975H7.47471H7.44966H7.42461H7.39955H7.37449H7.34942H7.32435H7.29927H7.27418H7.24909H7.22399H7.19889H7.17378H7.14866H7.12353H7.0984H7.07326H7.04811H7.02295H6.99779H6.97261H6.94743H6.92224H6.89704H6.87183H6.84661H6.82138H6.79614H6.77089H6.74562H6.72035H6.69507H6.66978H6.64447H6.61915H6.59382H6.56848H6.54313H6.51777H6.49239H6.467H6.44159H6.41617H6.39074H6.3653H6.33984H6.31437H6.28888H6.26338H6.23786H6.21233H6.18678H6.16122H6.13564H6.11005H6.08444H6.05881H6.03317H6.00751H5.98183H5.95614H5.93043H5.9047H5.87895H5.85319H5.8274H5.8016H5.77578H5.74994H5.72408H5.69821H5.67231H5.64639H5.62046H5.5945H5.56852H5.54252H5.51651H5.49047H5.4644H5.43832H5.41222H5.38609H5.35994H5.33377H5.30758H5.28136H5.25512H5.22886H5.20258H5.17627H5.14993H5.12358H5.0972H5.07079H5.04436H5.0179H4.99142H4.96492H4.93839H4.91183H4.88525H4.85864H4.832H4.80534H4.77865H4.75193H4.72519H4.69842H4.67162H4.64479H4.61794H4.59105H4.56414H4.5372H4.51023H4.48323H4.45621H4.42915H4.40206H4.37494H4.34779H4.32062H4.29341H4.26617H4.2389H4.21159H4.18426H4.15689H4.12949H4.10207H4.0746H4.04711H4.01958H3.99202H3.96442H3.9368H3.90913H3.88144H3.85371H3.82594H3.79815H3.77031H3.74244H3.71454H3.6866H3.65863H3.63061H3.60257H3.57448H3.54637H3.51821H3.49002H3.46179H3.43352H3.40521H3.37687H3.34849H3.32007H3.29161H3.26311H3.23458H3.20601H3.17739H3.14874H3.12004H3.09131H3.06254H3.03373H3.00487H2.97598H2.94704H2.91806H2.88904H2.85999H2.83088H2.80174H2.77255H2.74332H2.71405H2.68474H2.65538H2.62598H2.59653H2.56704H2.53751H2.50793H2.47831H2.44865H2.41894H2.38918H2.35938H2.32953H2.29964H2.2697H2.23972H2.20969H2.17961H2.14948H2.11931H2.08909H2.05883H2.02851H1.99815H1.96774H1.93728H1.90678H1.87622H1.84562H1.81496H1.78426H1.75351H1.7227H1.69185H1.66095H1.62999H1.59899H1.56794H1.53683H1.50567H1.47446H1.4432H1.41189H1.38053H1.34911H1.31764H1.28612H1.25454H1.22291H1.19123H1.15949H1.1277H1.09586H1.06396H1.03201H1V8.5H1.03201H1.06396H1.09586H1.1277H1.15949H1.19123H1.22291H1.25454H1.28612H1.31764H1.34911H1.38053H1.41189H1.4432H1.47446H1.50567H1.53683H1.56794H1.59899H1.62999H1.66095H1.69185H1.7227H1.75351H1.78426H1.81496H1.84562H1.87622H1.90678H1.93728H1.96774H1.99815H2.02851H2.05883H2.08909H2.11931H2.14948H2.17961H2.20969H2.23972H2.2697H2.29964H2.32953H2.35938H2.38918H2.41894H2.44865H2.47831H2.50793H2.53751H2.56704H2.59653H2.62598H2.65538H2.68474H2.71405H2.74332H2.77255H2.80174H2.83088H2.85999H2.88904H2.91806H2.94704H2.97598H3.00487H3.03373H3.06254H3.09131H3.12004H3.14874H3.17739H3.20601H3.23458H3.26311H3.29161H3.32007H3.34849H3.37687H3.40521H3.43352H3.46179H3.49002H3.51821H3.54637H3.57448H3.60257H3.63061H3.65863H3.6866H3.71454H3.74244H3.77031H3.79815H3.82594H3.85371H3.88144H3.90913H3.9368H3.96442H3.99202H4.01958H4.04711H4.0746H4.10207H4.12949H4.15689H4.18426H4.21159H4.2389H4.26617H4.29341H4.32062H4.34779H4.37494H4.40206H4.42915H4.45621H4.48323H4.51023H4.5372H4.56414H4.59105H4.61794H4.64479H4.67162H4.69842H4.72519H4.75193H4.77865H4.80534H4.832H4.85864H4.88525H4.91183H4.93839H4.96492H4.99142H5.0179H5.04436H5.07079H5.0972H5.12358H5.14993H5.17627H5.20258H5.22886H5.25512H5.28136H5.30758H5.33377H5.35994H5.38609H5.41222H5.43832H5.4644H5.49047H5.51651H5.54252H5.56852H5.5945H5.62046H5.64639H5.67231H5.69821H5.72408H5.74994H5.77578H5.8016H5.8274H5.85319H5.87895H5.9047H5.93043H5.95614H5.98183H6.00751H6.03317H6.05881H6.08444H6.11005H6.13564H6.16122H6.18678H6.21233H6.23786H6.26338H6.28888H6.31437H6.33984H6.3653H6.39074H6.41617H6.44159H6.467H6.49239H6.51777H6.54313H6.56848H6.59382H6.61915H6.64447H6.66978H6.69507H6.72035H6.74562H6.77089H6.79614H6.82138H6.84661H6.87183H6.89704H6.92224H6.94743H6.97261H6.99779H7.02295H7.04811H7.07326H7.0984H7.12353H7.14866H7.17378H7.19889H7.22399H7.24909H7.27418H7.29927H7.32435H7.34942H7.37449H7.39955H7.42461H7.44966H7.47471H7.49975H7.5V8.50025V8.52529V8.55034V8.57539V8.60045V8.62551V8.65058V8.67565V8.70073V8.72582V8.75091V8.77601V8.80111V8.82622V8.85134V8.87647V8.9016V8.92674V8.95189V8.97705V9.00221V9.02739V9.05257V9.07776V9.10296V9.12817V9.15339V9.17862V9.20386V9.22911V9.25438V9.27965V9.30493V9.33022V9.35553V9.38085V9.40618V9.43152V9.45687V9.48223V9.50761V9.533V9.55841V9.58383V9.60926V9.6347V9.66016V9.68563V9.71112V9.73662V9.76214V9.78767V9.81322V9.83878V9.86436V9.88995V9.91556V9.94119V9.96683V9.99249V10.0182V10.0439V10.0696V10.0953V10.121V10.1468V10.1726V10.1984V10.2242V10.2501V10.2759V10.3018V10.3277V10.3536V10.3795V10.4055V10.4315V10.4575V10.4835V10.5095V10.5356V10.5617V10.5878V10.6139V10.6401V10.6662V10.6924V10.7186V10.7449V10.7711V10.7974V10.8237V10.8501V10.8764V10.9028V10.9292V10.9556V10.9821V11.0086V11.0351V11.0616V11.0882V11.1148V11.1414V11.168V11.1947V11.2214V11.2481V11.2748V11.3016V11.3284V11.3552V11.3821V11.4089V11.4359V11.4628V11.4898V11.5168V11.5438V11.5709V11.5979V11.6251V11.6522V11.6794V11.7066V11.7338V11.7611V11.7884V11.8157V11.8431V11.8705V11.8979V11.9254V11.9529V11.9804V12.008V12.0356V12.0632V12.0909V12.1186V12.1463V12.1741V12.2019V12.2297V12.2576V12.2855V12.3134V12.3414V12.3694V12.3974V12.4255V12.4536V12.4818V12.51V12.5382V12.5665V12.5948V12.6231V12.6515V12.6799V12.7084V12.7369V12.7654V12.794V12.8226V12.8513V12.88V12.9087V12.9375V12.9663V12.9951V13.024V13.053V13.0819V13.111V13.14V13.1691V13.1983V13.2274V13.2567V13.2859V13.3153V13.3446V13.374V13.4035V13.433V13.4625V13.4921V13.5217V13.5514V13.5811V13.6108V13.6406V13.6705V13.7004V13.7303V13.7603V13.7903V13.8204V13.8505V13.8807V13.9109V13.9412V13.9715V14.0018V14.0323V14.0627V14.0932V14.1238V14.1544V14.185V14.2157V14.2465V14.2773V14.3081V14.3391V14.37V14.401V14.4321V14.4632V14.4943V14.5255V14.5568V14.5881V14.6195V14.6509V14.6824V14.7139V14.7455V14.7771V14.8088V14.8405V14.8723V14.9041V14.936V14.968V15H8.5V14.968V14.936V14.9041V14.8723V14.8405V14.8088V14.7771V14.7455V14.7139V14.6824V14.6509V14.6195V14.5881V14.5568V14.5255V14.4943V14.4632V14.4321V14.401V14.37V14.3391V14.3081V14.2773V14.2465V14.2157V14.185V14.1544V14.1238V14.0932V14.0627V14.0323V14.0018V13.9715V13.9412V13.9109V13.8807V13.8505V13.8204V13.7903V13.7603V13.7303V13.7004V13.6705V13.6406V13.6108V13.5811V13.5514V13.5217V13.4921V13.4625V13.433V13.4035V13.374V13.3446V13.3153V13.2859V13.2567V13.2274V13.1983V13.1691V13.14V13.111V13.0819V13.053V13.024V12.9951V12.9663V12.9375V12.9087V12.88V12.8513V12.8226V12.794V12.7654V12.7369V12.7084V12.6799V12.6515V12.6231V12.5948V12.5665V12.5382V12.51V12.4818V12.4536V12.4255V12.3974V12.3694V12.3414V12.3134V12.2855V12.2576V12.2297V12.2019V12.1741V12.1463V12.1186V12.0909V12.0632V12.0356V12.008V11.9804V11.9529V11.9254V11.8979V11.8705V11.8431V11.8157V11.7884V11.7611V11.7338V11.7066V11.6794V11.6522V11.6251V11.5979V11.5709V11.5438V11.5168V11.4898V11.4628V11.4359V11.4089V11.3821V11.3552V11.3284V11.3016V11.2748V11.2481V11.2214V11.1947V11.168V11.1414V11.1148V11.0882V11.0616V11.0351V11.0086V10.9821V10.9556V10.9292V10.9028V10.8764V10.8501V10.8237V10.7974V10.7711V10.7449V10.7186V10.6924V10.6662V10.6401V10.6139V10.5878V10.5617V10.5356V10.5095V10.4835V10.4575V10.4315V10.4055V10.3795V10.3536V10.3277V10.3018V10.2759V10.2501V10.2242V10.1984V10.1726V10.1468V10.121V10.0953V10.0696V10.0439V10.0182V9.99249V9.96683V9.94119V9.91556V9.88995V9.86436V9.83878V9.81322V9.78767V9.76214V9.73662V9.71112V9.68563V9.66016V9.6347V9.60926V9.58383V9.55841V9.533V9.50761V9.48223V9.45687V9.43152V9.40618V9.38085V9.35553V9.33022V9.30493V9.27965V9.25438V9.22911V9.20386V9.17862V9.15339V9.12817V9.10296V9.07776V9.05257V9.02739V9.00221V8.97705V8.95189V8.92674V8.9016V8.87647V8.85134V8.82622V8.80111V8.77601V8.75091V8.72582V8.70073V8.67565V8.65058V8.62551V8.60045V8.57539V8.55034V8.52529V8.50025V8.5H8.50025H8.52529H8.55034H8.57539H8.60045H8.62551H8.65058H8.67565H8.70073H8.72582H8.75091H8.77601H8.80111H8.82622H8.85134H8.87647H8.9016H8.92674H8.95189H8.97705H9.00221H9.02739H9.05257H9.07776H9.10296H9.12817H9.15339H9.17862H9.20386H9.22911H9.25438H9.27965H9.30493H9.33022H9.35553H9.38085H9.40617H9.43152H9.45687H9.48223H9.50761H9.533L9.55841 8.5H9.58383H9.60926H9.6347H9.66016H9.68563H9.71112H9.73662H9.76214H9.78767H9.81322H9.83878H9.86436H9.88995H9.91556H9.94119H9.96683H9.99249H10.0182H10.0439H10.0696H10.0953H10.121H10.1468H10.1726H10.1984H10.2242H10.2501H10.2759H10.3018H10.3277H10.3536H10.3795H10.4055H10.4315H10.4575H10.4835H10.5095H10.5356H10.5617H10.5878H10.6139H10.6401H10.6662H10.6924H10.7186H10.7449H10.7711H10.7974H10.8237H10.8501H10.8764H10.9028H10.9292H10.9556H10.9821H11.0086H11.0351H11.0616H11.0882H11.1148H11.1414H11.168H11.1947H11.2214H11.2481H11.2748H11.3016H11.3284H11.3552H11.3821H11.4089H11.4359H11.4628H11.4898H11.5168H11.5438H11.5709H11.5979H11.6251H11.6522H11.6794H11.7066H11.7338H11.7611H11.7884H11.8157H11.8431H11.8705H11.8979H11.9254H11.9529H11.9804H12.008H12.0356H12.0632H12.0909H12.1186H12.1463H12.1741H12.2019H12.2297H12.2576H12.2855H12.3134H12.3414H12.3694H12.3974H12.4255H12.4536H12.4818H12.51H12.5382H12.5665H12.5948H12.6231H12.6515H12.6799H12.7084H12.7369H12.7654H12.794H12.8226H12.8513H12.88H12.9087H12.9375H12.9663H12.9951H13.024H13.053H13.0819H13.111H13.14H13.1691H13.1983H13.2274H13.2567H13.2859H13.3153H13.3446H13.374H13.4035H13.433H13.4625H13.4921H13.5217H13.5514H13.5811H13.6108H13.6406H13.6705H13.7004H13.7303H13.7603H13.7903H13.8204H13.8505H13.8807H13.9109H13.9412H13.9715H14.0018H14.0323H14.0627H14.0932H14.1238H14.1544H14.185H14.2157H14.2465H14.2773H14.3081H14.3391H14.37H14.401H14.4321H14.4632H14.4943H14.5255H14.5568H14.5881H14.6195H14.6509H14.6824H14.7139H14.7455H14.7771H14.8088H14.8405H14.8723H14.9041H14.936H14.968H15V7.5H14.968H14.936H14.9041H14.8723H14.8405H14.8088H14.7771H14.7455H14.7139H14.6824H14.6509H14.6195H14.5881H14.5568H14.5255H14.4943H14.4632H14.4321H14.401H14.37H14.3391H14.3081H14.2773H14.2465H14.2157H14.185H14.1544H14.1238H14.0932H14.0627H14.0323H14.0018H13.9715H13.9412H13.9109H13.8807H13.8505H13.8204H13.7903H13.7603H13.7303H13.7004H13.6705H13.6406H13.6108H13.5811H13.5514H13.5217H13.4921H13.4625H13.433H13.4035H13.374H13.3446H13.3153H13.2859H13.2567H13.2274H13.1983H13.1691H13.14H13.111H13.0819H13.053H13.024H12.9951H12.9663H12.9375H12.9087H12.88H12.8513H12.8226H12.794H12.7654H12.7369H12.7084H12.6799H12.6515H12.6231H12.5948H12.5665H12.5382H12.51H12.4818H12.4536H12.4255H12.3974H12.3694H12.3414H12.3134H12.2855H12.2576H12.2297H12.2019H12.1741H12.1463H12.1186H12.0909H12.0632H12.0356H12.008H11.9804H11.9529H11.9254H11.8979H11.8705H11.8431H11.8157H11.7884H11.7611H11.7338H11.7066H11.6794H11.6522H11.6251H11.5979H11.5709H11.5438H11.5168H11.4898H11.4628H11.4359H11.4089H11.3821H11.3552H11.3284H11.3016H11.2748H11.2481H11.2214H11.1947H11.168H11.1414H11.1148H11.0882H11.0616H11.0351H11.0086H10.9821H10.9556H10.9292H10.9028H10.8764H10.8501H10.8237H10.7974H10.7711H10.7449H10.7186H10.6924H10.6662H10.6401H10.6139H10.5878H10.5617H10.5356H10.5095H10.4835H10.4575H10.4315H10.4055H10.3795H10.3536H10.3277H10.3018H10.2759H10.2501H10.2242H10.1984H10.1726H10.1468H10.121H10.0953H10.0696H10.0439H10.0182H9.99249H9.96683H9.94119H9.91556H9.88995H9.86436H9.83878H9.81322H9.78767H9.76214H9.73662H9.71112H9.68563H9.66016H9.6347H9.60926H9.58383H9.55841L9.533 7.5H9.50761H9.48223H9.45687H9.43152H9.40618H9.38085H9.35553H9.33022H9.30493H9.27965H9.25438H9.22911H9.20386H9.17862H9.15339H9.12817H9.10296H9.07776H9.05257H9.02739H9.00221H8.97705H8.95189H8.92674H8.9016H8.87647H8.85134H8.82622H8.80111H8.77601H8.75091H8.72582H8.70073H8.67565H8.65058H8.62551H8.60045H8.57539H8.55034H8.52529H8.50025H8.5V7.49975V7.47471V7.44966V7.42461V7.39955V7.37449V7.34942V7.32435V7.29927V7.27418V7.24909V7.22399V7.19889V7.17378V7.14866V7.12353V7.0984V7.07326V7.04811V7.02295V6.99779V6.97261V6.94743V6.92224V6.89704V6.87183V6.84661V6.82138V6.79614V6.77089V6.74562V6.72035V6.69507V6.66978V6.64447V6.61915V6.59382V6.56848V6.54313V6.51777V6.49239V6.467V6.44159V6.41617V6.39074V6.3653V6.33984V6.31437V6.28888V6.26338V6.23786V6.21233V6.18678V6.16122V6.13564V6.11005V6.08444V6.05881V6.03317V6.00751V5.98183V5.95614V5.93043V5.9047V5.87895V5.85319V5.8274V5.8016V5.77578V5.74994V5.72408V5.69821V5.67231V5.64639V5.62046V5.5945V5.56852V5.54252V5.51651V5.49047V5.4644V5.43832V5.41222V5.38609V5.35994V5.33377V5.30758V5.28136V5.25512V5.22886V5.20258V5.17627V5.14993V5.12358V5.0972V5.07079V5.04436V5.0179V4.99142V4.96492V4.93839V4.91183V4.88525V4.85864V4.832V4.80534V4.77865V4.75193V4.72519V4.69842V4.67162V4.64479V4.61794V4.59105V4.56414V4.5372V4.51023V4.48323V4.45621V4.42915V4.40206V4.37494V4.34779V4.32062V4.29341V4.26617V4.2389V4.21159V4.18426V4.15689V4.12949V4.10206V4.0746V4.04711V4.01958V3.99202V3.96442V3.93679V3.90913V3.88144V3.85371V3.82594V3.79815V3.77031V3.74244V3.71454V3.6866V3.65863V3.63061V3.60257V3.57448V3.54637V3.51821V3.49002V3.46179V3.43352V3.40521V3.37687V3.34849V3.32007V3.29161V3.26311V3.23458V3.206V3.17739V3.14874V3.12004V3.09131V3.06254V3.03373V3.00487V2.97598V2.94704V2.91806V2.88905V2.85998V2.83088V2.80174V2.77255V2.74332V2.71405V2.68474V2.65538V2.62598V2.59653V2.56704V2.53751V2.50793V2.47831V2.44865V2.41894V2.38918V2.35938V2.32953V2.29964V2.2697V2.23972V2.20969V2.17961V2.14948V2.11931V2.08909V2.05883V2.02851V1.99815V1.96774V1.93728V1.90678V1.87622V1.84562V1.81496V1.78426V1.75351V1.7227V1.69185V1.66095V1.62999V1.59899V1.56794V1.53683V1.50567V1.47446V1.4432V1.41189V1.38053V1.34911V1.31764V1.28612V1.25454V1.22291V1.19123V1.15949V1.1277V1.09586V1.06396V1.03201V1H7.5Z" fill="#1D1D21"/>
</svg>
