<svg width="24" height="24" viewBox="0 0 24 24" fill="none" xmlns="http://www.w3.org/2000/svg">
<path fill-rule="evenodd" clip-rule="evenodd" d="M21 12C21 7.02944 16.9706 3 12 3V1C18.0751 1 23 5.92487 23 12H21ZM6.83089 6.35799C6.48158 5.88412 5.80053 5.81304 5.36089 6.20457C5.3442 6.21943 5.31711 6.24599 5.19858 6.36514C5.07861 6.48573 5.03143 6.53327 4.98806 6.57924C4.14402 7.47391 3.65936 8.6483 3.62676 9.87784C3.62508 9.94102 3.625 10.008 3.625 10.1781V10.2655C3.625 10.5216 3.62519 10.6224 3.62899 10.7175C3.67571 11.887 4.13124 13.0031 4.91621 13.8713C4.98006 13.9419 5.05046 14.014 5.22964 14.1969L9.6041 18.663C9.81293 18.8761 9.89533 18.9599 9.9764 19.0353C10.843 19.8415 11.9675 20.3142 13.1499 20.3691C13.2605 20.3743 13.378 20.3745 13.6764 20.3745H13.8064C13.9627 20.3745 14.0243 20.3745 14.0824 20.373C15.2981 20.3434 16.4612 19.8717 17.3542 19.0464C17.3969 19.0069 17.4411 18.9641 17.5533 18.8552C17.6652 18.7466 17.6902 18.7218 17.7043 18.7065C18.1029 18.2735 18.0432 17.5915 17.5753 17.2343C17.5588 17.2217 17.5299 17.2016 17.4009 17.1141L14.7005 15.2834L13.0284 16.8879L13.0117 16.9038C12.9261 16.986 12.8238 17.0843 12.7266 17.1634C12.6138 17.2552 12.4432 17.3769 12.2099 17.4478C11.9075 17.5395 11.584 17.5335 11.2852 17.4305C11.0547 17.351 10.8888 17.223 10.7795 17.1271C10.6854 17.0444 10.5869 16.9425 10.5044 16.8572L10.5043 16.8571L10.5043 16.857L10.4882 16.8404L7.08408 13.3207L7.06821 13.3043L7.0682 13.3043C6.98684 13.2202 6.88937 13.1195 6.81062 13.0237C6.71913 12.9123 6.59814 12.7443 6.52616 12.5143C6.43275 12.2158 6.43501 11.8955 6.53262 11.5983C6.60783 11.3693 6.73118 11.203 6.82422 11.093C6.90433 10.9982 7.00322 10.8989 7.08576 10.816L7.10184 10.7998L8.68168 9.21176L6.95655 6.54862C6.86518 6.40756 6.84416 6.37599 6.83089 6.35799ZM4.03077 4.71099C5.34968 3.53642 7.39282 3.74966 8.44076 5.17126C8.49515 5.24504 8.55239 5.33345 8.61983 5.43762L8.63514 5.46126L10.448 8.25982L10.4586 8.27621C10.5116 8.3579 10.5769 8.45865 10.6286 8.55301C10.6899 8.66485 10.7652 8.82482 10.7996 9.02833C10.8452 9.29771 10.8163 9.57441 10.7161 9.82858C10.6404 10.0206 10.5337 10.1616 10.4506 10.2583C10.3805 10.34 10.2958 10.4251 10.2271 10.4941L10.2271 10.4941L10.2271 10.4941L10.2134 10.5079L8.65809 12.0713L11.7874 15.3068L13.4325 13.7282L13.4466 13.7147C13.5171 13.6471 13.6039 13.5637 13.687 13.495C13.7854 13.4135 13.9287 13.3091 14.1226 13.2369C14.3791 13.1413 14.657 13.1178 14.926 13.1688C15.1292 13.2074 15.288 13.2863 15.3988 13.35C15.4922 13.4038 15.5918 13.4713 15.6726 13.5261L15.6888 13.5372L18.5232 15.4587L18.5448 15.4733L18.5448 15.4734L18.545 15.4734C18.6402 15.538 18.7211 15.5928 18.7889 15.6446C20.1925 16.716 20.3717 18.762 19.1756 20.0612C19.1179 20.1239 19.0477 20.192 18.965 20.2722L18.9463 20.2904L18.9366 20.2998C18.837 20.3964 18.7745 20.4571 18.7117 20.5151C17.4615 21.6706 15.8331 22.3309 14.1312 22.3724C14.0458 22.3745 13.9586 22.3745 13.8198 22.3745H13.8197H13.8196H13.8064H13.6764H13.651H13.6509H13.6508C13.3859 22.3745 13.2197 22.3745 13.057 22.367C11.4017 22.29 9.8274 21.6284 8.61414 20.4997C8.4949 20.3887 8.37853 20.2699 8.1931 20.0806L8.17532 20.0624L3.80085 15.5964L3.7856 15.5809C3.62647 15.4184 3.52659 15.3164 3.43269 15.2126C2.33374 13.9971 1.696 12.4347 1.63058 10.7974C1.62499 10.6575 1.625 10.5148 1.625 10.2873V10.2873V10.2655V10.1781V10.1636V10.1631C1.625 10.0123 1.625 9.91762 1.62746 9.82482C1.67311 8.10346 2.35163 6.45932 3.53329 5.20679C3.59705 5.13921 3.66389 5.07202 3.77038 4.96498L3.77043 4.96493L3.77051 4.96485L3.7807 4.9546L3.80055 4.93464C3.88805 4.84664 3.96232 4.77195 4.03077 4.71099ZM12 7C14.7614 7 17 9.23858 17 12H19C19 8.13401 15.866 5 12 5V7Z" fill="#272727"/>
</svg>
