<svg width="16" height="16" viewBox="0 0 16 16" fill="none" xmlns="http://www.w3.org/2000/svg">
<path fill-rule="evenodd" clip-rule="evenodd" d="M1 8C1 4.13401 4.13401 1 8 1C11.866 1 15 4.13401 15 8C15 11.866 11.866 15 8 15C4.13401 15 1 11.866 1 8ZM8 0C3.58172 0 0 3.58172 0 8C0 12.4183 3.58172 16 8 16C12.4183 16 16 12.4183 16 8C16 3.58172 12.4183 0 8 0ZM7.5 4V6.1V6.12065C7.49999 6.52314 7.49999 6.85532 7.5221 7.12591C7.54506 7.40696 7.59434 7.66531 7.71799 7.90798C7.90973 8.28431 8.21569 8.59027 8.59202 8.78201C8.83469 8.90566 9.09304 8.95494 9.37409 8.9779C9.64469 9.00001 9.97687 9.00001 10.3794 9H10.4H12V8H10.4C9.97171 8 9.68056 7.99961 9.45552 7.98122C9.23631 7.96331 9.12421 7.93085 9.04601 7.89101C8.85785 7.79513 8.70487 7.64215 8.60899 7.45399C8.56915 7.37579 8.53669 7.26369 8.51878 7.04448C8.50039 6.81944 8.5 6.52829 8.5 6.1V4H7.5Z" fill="#1D1D21"/>
</svg>
