<svg width="24" height="24" viewBox="0 0 24 24" fill="none" xmlns="http://www.w3.org/2000/svg">
<path fill-rule="evenodd" clip-rule="evenodd" d="M22 22H20V2H22V22ZM14.5858 13H1V11H14.5858L9.29289 5.70711L10.7071 4.29289L17.1414 10.7272L17.1578 10.7436C17.242 10.8278 17.3427 10.9283 17.424 11.0242C17.5183 11.1352 17.6439 11.3038 17.7195 11.5365C17.8174 11.8377 17.8174 12.1623 17.7195 12.4635C17.6439 12.6962 17.5183 12.8648 17.424 12.9758C17.3427 13.0717 17.2421 13.1722 17.1578 13.2564L17.1578 13.2565L17.1414 13.2728L10.7071 19.7071L9.29289 18.2929L14.5858 13Z" fill="#1D1D21"/>
</svg>
