<svg width="16" height="16" viewBox="0 0 16 16" fill="none" xmlns="http://www.w3.org/2000/svg">
<path fill-rule="evenodd" clip-rule="evenodd" d="M2 2H9.8C10.3766 2 10.7488 2.00078 11.0322 2.02393C11.3038 2.04612 11.4045 2.0838 11.454 2.10899C11.6422 2.20487 11.7951 2.35785 11.891 2.54601C11.9162 2.59545 11.9539 2.69617 11.9761 2.96784C11.9992 3.25117 12 3.62345 12 4.2V12H4.2C3.62345 12 3.25117 11.9992 2.96784 11.9761C2.69617 11.9539 2.59545 11.9162 2.54601 11.891C2.35785 11.7951 2.20487 11.6422 2.10899 11.454C2.0838 11.4045 2.04612 11.3038 2.02393 11.0322C2.00078 10.7488 2 10.3766 2 9.8V2ZM1 1H2H9.8C10.9201 1 11.4802 1 11.908 1.21799C12.2843 1.40973 12.5903 1.71569 12.782 2.09202C13 2.51984 13 3.0799 13 4.2V12V13H12H4.2C3.0799 13 2.51984 13 2.09202 12.782C1.71569 12.5903 1.40973 12.2843 1.21799 11.908C1 11.4802 1 10.9201 1 9.8V2V1ZM14 4V14H4V15H14.5H15V14.5V4H14Z" fill="#1D1D21"/>
</svg>
