<svg width="16" height="16" viewBox="0 0 16 16" fill="none" xmlns="http://www.w3.org/2000/svg">
<path fill-rule="evenodd" clip-rule="evenodd" d="M0.585856 6.5858C-0.195286 7.36686 -0.195285 8.6333 0.585856 9.41436L6.5866 15.4145C7.36768 16.1955 8.634 16.1954 9.415 15.4143L15.4145 9.4142C16.1954 8.63318 16.1954 7.36698 15.4145 6.58596L9.415 0.585856C8.634 -0.195227 7.36768 -0.195294 6.5866 0.585705L0.585856 6.5858ZM1.29292 8.70722C0.902348 8.31669 0.902348 7.68347 1.29292 7.29294L7.29366 1.29284C7.6842 0.902344 8.31736 0.902377 8.70786 1.29292L14.7073 7.29302C15.0978 7.68353 15.0978 8.31663 14.7073 8.70714L8.70786 14.7072C8.31736 15.0978 7.6842 15.0978 7.29366 14.7073L1.29292 8.70722ZM7.51448 8.47867V4.17141H8.51449V8.47867C8.51449 8.75481 8.29063 8.97867 8.01449 8.97867C7.73834 8.97867 7.51448 8.75481 7.51448 8.47867ZM8.73141 11.3478C8.73141 11.744 8.41022 12.0652 8.01401 12.0652C7.6178 12.0652 7.2966 11.744 7.2966 11.3478C7.2966 10.9516 7.6178 10.6304 8.01401 10.6304C8.41022 10.6304 8.73141 10.9516 8.73141 11.3478Z" fill="black"/>
</svg>
