<svg width="16" height="16" viewBox="0 0 16 16" fill="none" xmlns="http://www.w3.org/2000/svg">
<path d="M6.00024 2.00003C6.00024 1.44775 6.44796 1.00003 7.00024 1.00003H9.00024C9.55253 1.00003 10.0002 1.44775 10.0002 2.00003V3.00003H9.00024V2.50003C9.00024 2.22389 8.77639 2.00003 8.50024 2.00003H7.50024C7.2241 2.00003 7.00024 2.22389 7.00024 2.50003V3.00003H6.00024V2.00003Z" fill="#212126"/>
<path d="M3.77611 4.29313C3.85724 4.11463 4.03522 4.00003 4.23129 4.00003H11.7692C11.9653 4.00003 12.1432 4.11463 12.2244 4.29313L12.8396 5.64658C12.9148 5.8121 12.7938 6.00003 12.612 6.00003H3.3885C3.20667 6.00003 3.08567 5.8121 3.1609 5.64658L3.77611 4.29313Z" fill="#212126"/>
<path d="M4.44469 14.1111C4.44469 14.5556 4.60743 15 4.88913 15H11.1114C11.3931 15 11.5558 14.5556 11.5558 14.1111L12.0002 7.00003H4.00024L4.44469 14.1111Z" fill="#212126"/>
</svg>
