<svg width="24" height="24" viewBox="0 0 24 24" fill="none" xmlns="http://www.w3.org/2000/svg">
<path fill-rule="evenodd" clip-rule="evenodd" d="M7.99999 2.5C7.99999 2.22386 8.22385 2 8.49999 2H15.5C15.7761 2 16 2.22386 16 2.5V5H14V4C14 3.72386 13.7761 3.5 13.5 3.5H10.5C10.2238 3.5 9.99999 3.72386 9.99999 4V5H7.99999V2.5ZM5.86179 6.27639C5.94649 6.107 6.11962 6 6.30901 6H17.691C17.8804 6 18.0535 6.107 18.1382 6.27639L18.8191 7.6382C18.9022 7.80442 18.7813 8 18.5955 8H5.4045C5.21865 8 5.09778 7.80442 5.18089 7.6382L5.86179 6.27639ZM5.99999 9H18L17.071 21.0767C17.0309 21.5977 16.5965 22 16.074 22H7.92602C7.40348 22 6.96904 21.5977 6.92897 21.0767L5.99999 9Z" fill="#212126"/>
</svg>
