<svg width="16" height="16" viewBox="0 0 16 16" fill="none" xmlns="http://www.w3.org/2000/svg">
<path fill-rule="evenodd" clip-rule="evenodd" d="M1 8C1 4.13401 4.13401 1 8 1C9.72785 1 11.3095 1.62602 12.5305 2.66362L2.66361 12.5304C1.62602 11.3095 1 9.72785 1 8ZM3.36369 13.2446C4.59843 14.3369 6.22178 15 8 15C11.866 15 15 11.866 15 8C15 6.22178 14.3369 4.59843 13.2446 3.36369L3.36369 13.2446ZM8 0C3.58172 0 0 3.58172 0 8C0 12.4183 3.58172 16 8 16C12.4183 16 16 12.4183 16 8C16 3.58172 12.4183 0 8 0Z" fill="#1D1D21"/>
</svg>
