<svg width="24" height="24" viewBox="0 0 24 24" fill="none" xmlns="http://www.w3.org/2000/svg">
<path fill-rule="evenodd" clip-rule="evenodd" d="M2 2.99994H1V3.99994V19.9999V20.9999H2H8.66667C9.75977 20.9999 10.6697 21.1988 11.3372 21.7494L11.3374 21.7495L11.3374 21.7495L11.3406 21.7521L11.3556 21.7642C11.3643 21.7712 11.3875 21.7896 11.418 21.8105L11.4211 21.8126C11.4591 21.839 11.6696 21.9849 11.9784 21.9885C12.025 21.989 12.0713 21.9863 12.117 21.9805C12.4169 21.9483 12.6106 21.7894 12.6395 21.7656L12.6422 21.7634C12.6707 21.7406 12.6922 21.7208 12.7003 21.7133C12.7086 21.7057 12.7163 21.6983 12.7175 21.6971L12.7177 21.697C13.2289 21.2093 14.081 20.9999 15.2 20.9999H22H23V19.9999V3.99994V2.99994H22H14.0681C13.3353 2.99994 12.6317 3.28737 12.1086 3.80048C12.0582 3.84992 12.0093 3.90064 11.9621 3.95258C11.8881 3.87432 11.8105 3.79892 11.7295 3.72664C11.2045 3.25859 10.5257 2.99994 9.82243 2.99994H2ZM11 6.56171C11 6.04899 10.7811 5.56066 10.3985 5.21944C10.2399 5.07807 10.0349 4.99994 9.82243 4.99994H3V18.9999H8.66667C9.41264 18.9999 10.2204 19.0755 11 19.3313V6.56171ZM11 20.962L10.9999 20.9683L10.9999 20.9715C10.9999 20.9722 10.9999 20.9725 10.9999 20.9723L11 20.9656V20.965V20.962ZM13 20.9618C13 20.9692 13.0001 20.9705 13.0001 20.9673L13 20.9586V20.9618ZM13 19.296C13.7364 19.0643 14.5088 18.9999 15.2 18.9999H21V4.99994H14.0681C13.859 4.99994 13.6582 5.08195 13.509 5.22836C13.1834 5.54765 13 5.98446 13 6.44045V6.56171V19.296ZM9 10.9999H5V8.99993H9V10.9999ZM15 10.9999H19V8.99993H15V10.9999ZM19 14.9999H15V12.9999H19V14.9999ZM5 14.9999H9V12.9999H5V14.9999Z" fill="#1D1D21"/>
</svg>
