<svg width="16" height="16" viewBox="0 0 16 16" fill="none" xmlns="http://www.w3.org/2000/svg">
<path fill-rule="evenodd" clip-rule="evenodd" d="M13.1464 6.14645L8.5 10.7929V0H7.5V10.7929L2.85355 6.14645L2.14645 6.85355L7.64645 12.3536C7.74022 12.4473 7.86739 12.5 8 12.5C8.13261 12.5 8.25979 12.4473 8.35355 12.3536L13.8536 6.85355L13.1464 6.14645ZM2 12.3V11H1V12.3L1 12.3214C0.999995 12.8633 0.999991 13.3004 1.02891 13.6543C1.05868 14.0187 1.12159 14.3388 1.27248 14.635C1.51217 15.1054 1.89462 15.4878 2.36502 15.7275C2.66117 15.8784 2.98126 15.9413 3.34569 15.9711C3.69963 16 4.13671 16 4.67861 16H4.7H11.3H11.3214C11.8633 16 12.3004 16 12.6543 15.9711C13.0187 15.9413 13.3388 15.8784 13.635 15.7275C14.1054 15.4878 14.4878 15.1054 14.7275 14.635C14.8784 14.3388 14.9413 14.0187 14.9711 13.6543C15 13.3004 15 12.8633 15 12.3215V12.3214V12.3V11H14V12.3C14 12.8683 13.9996 13.2645 13.9744 13.5729C13.9497 13.8755 13.9036 14.0493 13.8365 14.181C13.6927 14.4632 13.4632 14.6927 13.181 14.8365C13.0493 14.9036 12.8755 14.9497 12.5729 14.9744C12.2645 14.9996 11.8683 15 11.3 15H4.7C4.1317 15 3.73554 14.9996 3.42712 14.9744C3.12454 14.9497 2.95069 14.9036 2.81901 14.8365C2.53677 14.6927 2.3073 14.4632 2.16349 14.181C2.0964 14.0493 2.05031 13.8755 2.02559 13.5729C2.00039 13.2645 2 12.8683 2 12.3Z" fill="#1D1D21"/>
</svg>
