<svg width="16" height="16" viewBox="0 0 16 16" fill="none" xmlns="http://www.w3.org/2000/svg">
<path d="M9.00024 1.99994C9.00024 1.44765 8.55253 0.999939 8.00024 0.999939C7.44796 0.999939 7.00024 1.44765 7.00024 1.99994V7.58573L4.70735 5.29283C4.31683 4.90231 3.68366 4.90231 3.29314 5.29283C2.90261 5.68336 2.90261 6.31652 3.29314 6.70705L7.29314 10.707C7.68366 11.0976 8.31683 11.0976 8.70735 10.707L12.7074 6.70705C13.0979 6.31652 13.0979 5.68336 12.7074 5.29283C12.3168 4.90231 11.6837 4.90231 11.2931 5.29283L9.00024 7.58573V1.99994Z" fill="#212126"/>
<path d="M3.00024 10.9999C3.00024 10.4477 2.55253 9.99994 2.00024 9.99994C1.44796 9.99994 1.00024 10.4477 1.00024 10.9999V13.9999C1.00024 14.5522 1.44796 14.9999 2.00024 14.9999H14.0002C14.5525 14.9999 15.0002 14.5522 15.0002 13.9999V10.9999C15.0002 10.4477 14.5525 9.99994 14.0002 9.99994C13.448 9.99994 13.0002 10.4477 13.0002 10.9999V12.9999H3.00024V10.9999Z" fill="#212126"/>
</svg>
