<svg width="16" height="16" viewBox="0 0 16 16" fill="none" xmlns="http://www.w3.org/2000/svg">
<path fill-rule="evenodd" clip-rule="evenodd" d="M4.44443 2.16853C4.60888 2.05865 4.80222 2 5 2C5.26522 2 5.51957 2.10536 5.70711 2.29289C5.89464 2.48043 6 2.73478 6 3C6 3.19778 5.94135 3.39112 5.83147 3.55557C5.72159 3.72002 5.56541 3.84819 5.38268 3.92388C5.19996 3.99957 4.99889 4.01937 4.80491 3.98079C4.61093 3.9422 4.43274 3.84696 4.29289 3.70711C4.15304 3.56725 4.0578 3.38907 4.01922 3.19509C3.98063 3.00111 4.00043 2.80004 4.07612 2.61732C4.15181 2.43459 4.27998 2.27841 4.44443 2.16853ZM4.44443 7.16853C4.60888 7.05865 4.80222 7 5 7C5.26522 7 5.51957 7.10536 5.70711 7.29289C5.89464 7.48043 6 7.73478 6 8C6 8.19778 5.94135 8.39112 5.83147 8.55557C5.72159 8.72002 5.56541 8.84819 5.38268 8.92388C5.19996 8.99957 4.99889 9.01937 4.80491 8.98079C4.61093 8.9422 4.43274 8.84696 4.29289 8.70711C4.15304 8.56725 4.0578 8.38907 4.01922 8.19509C3.98063 8.00111 4.00043 7.80004 4.07612 7.61732C4.15181 7.43459 4.27998 7.27841 4.44443 7.16853ZM5 12C4.80222 12 4.60888 12.0586 4.44443 12.1685C4.27998 12.2784 4.15181 12.4346 4.07612 12.6173C4.00043 12.8 3.98063 13.0011 4.01922 13.1951C4.0578 13.3891 4.15304 13.5673 4.29289 13.7071C4.43274 13.847 4.61093 13.9422 4.80491 13.9808C4.99889 14.0194 5.19996 13.9996 5.38268 13.9239C5.56541 13.8482 5.72159 13.72 5.83147 13.5556C5.94135 13.3911 6 13.1978 6 13C6 12.7348 5.89464 12.4804 5.70711 12.2929C5.51957 12.1054 5.26522 12 5 12ZM10.4444 2.16853C10.6089 2.05865 10.8022 2 11 2C11.2652 2 11.5196 2.10536 11.7071 2.29289C11.8946 2.48043 12 2.73478 12 3C12 3.19778 11.9414 3.39112 11.8315 3.55557C11.7216 3.72002 11.5654 3.84819 11.3827 3.92388C11.2 3.99957 10.9989 4.01937 10.8049 3.98079C10.6109 3.9422 10.4327 3.84696 10.2929 3.70711C10.153 3.56725 10.0578 3.38907 10.0192 3.19509C9.98063 3.00111 10.0004 2.80004 10.0761 2.61732C10.1518 2.43459 10.28 2.27841 10.4444 2.16853ZM11 7C10.8022 7 10.6089 7.05865 10.4444 7.16853C10.28 7.27841 10.1518 7.43459 10.0761 7.61732C10.0004 7.80004 9.98063 8.00111 10.0192 8.19509C10.0578 8.38907 10.153 8.56725 10.2929 8.70711C10.4327 8.84696 10.6109 8.9422 10.8049 8.98079C10.9989 9.01937 11.2 8.99957 11.3827 8.92388C11.5654 8.84819 11.7216 8.72002 11.8315 8.55557C11.9414 8.39112 12 8.19778 12 8C12 7.73478 11.8946 7.48043 11.7071 7.29289C11.5196 7.10536 11.2652 7 11 7ZM10.4444 12.1685C10.6089 12.0586 10.8022 12 11 12C11.2652 12 11.5196 12.1054 11.7071 12.2929C11.8946 12.4804 12 12.7348 12 13C12 13.1978 11.9414 13.3911 11.8315 13.5556C11.7216 13.72 11.5654 13.8482 11.3827 13.9239C11.2 13.9996 10.9989 14.0194 10.8049 13.9808C10.6109 13.9422 10.4327 13.847 10.2929 13.7071C10.153 13.5673 10.0578 13.3891 10.0192 13.1951C9.98063 13.0011 10.0004 12.8 10.0761 12.6173C10.1518 12.4346 10.28 12.2784 10.4444 12.1685Z" fill="#1D1D21"/>
</svg>
