<svg width="16" height="16" viewBox="0 0 16 16" fill="none" xmlns="http://www.w3.org/2000/svg">
<path fill-rule="evenodd" clip-rule="evenodd" d="M10.9906 0.0851017C11.3379 -0.0278534 11.7121 -0.0280044 12.0595 0.0846703C12.2876 0.158668 12.4764 0.28795 12.6569 0.441023C12.8295 0.58733 13.0244 0.781958 13.2559 1.01317L13.2559 1.01319L13.2701 1.02732L13.97 1.72629L13.9842 1.74047C14.2159 1.97189 14.411 2.16669 14.5577 2.33922C14.7111 2.51971 14.8408 2.70846 14.9151 2.9367C15.0282 3.28421 15.0283 3.65862 14.9155 4.00623C14.8414 4.23453 14.712 4.42339 14.5587 4.60402C14.4122 4.77667 14.2173 4.97164 13.9857 5.20326L13.9857 5.20327L13.9715 5.21746L5.33859 13.8535L5.19213 14L4.98497 14L1.5 14L1 14V13.5V10.0187V9.81159L1.1464 9.66515L9.78078 1.02873L9.79492 1.01459L9.79493 1.01458L9.79494 1.01457C10.0263 0.783169 10.221 0.588383 10.3935 0.441936C10.5739 0.288718 10.7625 0.159284 10.9906 0.0851017ZM11.7509 1.03589C11.6043 0.988342 11.4465 0.988406 11.2999 1.03607C11.2473 1.05319 11.1739 1.09113 11.0407 1.20419C10.9031 1.32104 10.7372 1.48647 10.488 1.73576L9.72348 2.50043L12.4995 5.27556L13.2643 4.51048C13.5137 4.26094 13.6793 4.09477 13.7962 3.95699C13.9093 3.82368 13.9473 3.75019 13.9644 3.69753C14.012 3.55085 14.0119 3.39286 13.9642 3.24622C13.947 3.19358 13.909 3.12012 13.7958 2.98691C13.6787 2.84923 13.513 2.68321 13.2634 2.43388L12.5634 1.73492C12.314 1.48583 12.1479 1.32054 12.0102 1.2038C11.877 1.09084 11.8036 1.05296 11.7509 1.03589ZM2 10.2257L9.01646 3.20762L11.7925 5.98279L4.77782 13L2 13V10.2257ZM1 16H15V15H1V16Z" fill="#1D1D21"/>
</svg>
