<svg width="14" height="14" viewBox="0 0 14 14" fill="none" xmlns="http://www.w3.org/2000/svg">
<path fill-rule="evenodd" clip-rule="evenodd" d="M6.63381 1.15168L1.15168 6.63381C0.949439 6.83605 0.949439 7.16395 1.15168 7.36619L6.63381 12.8483C6.83605 13.0506 7.16395 13.0506 7.36619 12.8483L12.8483 7.36619C13.0506 7.16395 13.0506 6.83605 12.8483 6.63381L7.36619 1.15168C7.16395 0.949439 6.83605 0.949439 6.63381 1.15168ZM6 3.00001H8V8H6V3.00001ZM8 10C8 10.5523 7.55228 11 7 11C6.44772 11 6 10.5523 6 10C6 9.44771 6.44772 9 7 9C7.55228 9 8 9.44771 8 10Z" fill="#212126"/>
</svg>
