<svg width="16" height="16" viewBox="0 0 16 16" fill="none" xmlns="http://www.w3.org/2000/svg">
<path fill-rule="evenodd" clip-rule="evenodd" d="M15 15V1H14V15H15ZM1.84546 8.35725L1.84434 8.35827C1.84253 8.35992 1.84184 8.36057 1.84204 8.3604C1.84225 8.36023 1.84349 8.3591 1.84546 8.35725ZM1.84546 7.64275L1.84434 7.64173C1.84057 7.6383 1.84166 7.63918 1.84546 7.64275ZM7.3361 3.37011L2.78927 7.5H12.9999V8.5H2.78926L7.3361 12.6299L6.66375 13.3701L1.17199 8.38196L1.16306 8.37373C1.15867 8.36961 1.14858 8.36006 1.13676 8.34734C1.11415 8.32302 1.06106 8.26214 1.02808 8.16688C0.990641 8.05878 0.990641 7.94122 1.02808 7.83311C1.06106 7.73785 1.11415 7.67698 1.13676 7.65266C1.14858 7.63994 1.15867 7.63038 1.16306 7.62627L1.17199 7.61804L6.66375 2.62988L7.3361 3.37011Z" fill="#1D1D21"/>
</svg>
