<svg width="16" height="16" viewBox="0 0 16 16" fill="none" xmlns="http://www.w3.org/2000/svg">
<path fill-rule="evenodd" clip-rule="evenodd" d="M7 2H13.2929L5.14645 10.1464L5.85355 10.8536L14 2.70711V8H15V1.516L14.9999 1.50443C14.9998 1.49863 14.9996 1.48531 14.9982 1.46872C14.9955 1.43613 14.9869 1.36177 14.9444 1.27846C14.8955 1.1825 14.8175 1.10448 14.7215 1.05559C14.6382 1.01314 14.5639 1.00446 14.5313 1.0018C14.5147 1.00044 14.5014 1.00017 14.4956 1.00008L14.484 1H7V2ZM11 14V7.13165L12 6.11602V14.5V15H11.5H1.5H1V14.5V4.5V4H1.5H9.88477L8.86914 5H2V14H11Z" fill="#1D1D21"/>
</svg>
