<svg width="16" height="16" viewBox="0 0 16 16" fill="none" xmlns="http://www.w3.org/2000/svg">
<path fill-rule="evenodd" clip-rule="evenodd" d="M11.2002 2.67473C10.2857 2.23976 9.23874 2 8 2C4 2 2 4.5 0 8C0.761481 9.33259 1.52296 10.5202 2.39483 11.4801L3.10273 10.7722C2.42492 10.0187 1.79873 9.08876 1.15617 8C2.04176 6.49944 2.89626 5.30062 3.89765 4.44944C4.96916 3.53865 6.24031 3 8 3C8.9379 3 9.73701 3.15302 10.4411 3.43384L11.2002 2.67473ZM12.0986 3.19056L11.3765 3.91261C11.3773 3.9131 11.3781 3.91358 11.3788 3.91407L10.4528 4.84007C10.4521 4.83952 10.4514 4.83898 10.4507 4.83843L9.73607 5.55306C9.7368 5.55358 9.73754 5.5541 9.73827 5.55463L5.55463 9.73827C5.55411 9.73754 5.55359 9.7368 5.55307 9.73607L4.83843 10.4507C4.83898 10.4514 4.83952 10.4521 4.84007 10.4528L3.81429 11.4786C3.81362 11.478 3.81295 11.4774 3.81229 11.4769L3.10385 12.1853C3.10451 12.1859 3.10517 12.1865 3.10584 12.1871L1.14645 14.1464L1.85355 14.8536L3.89919 12.8079C5.01562 13.5665 6.33443 14 8 14C12 14 14 11.5 16 8C15.0387 6.31779 14.0775 4.8666 12.8942 3.81294L14.8536 1.85355L14.1464 1.14645L12.1008 3.19208C12.1001 3.19158 12.0993 3.19107 12.0986 3.19056ZM4.31541 9.55951L5.10082 8.7741C5.03505 8.52715 5 8.26767 5 8C5 6.34315 6.34315 5 8 5C8.26767 5 8.52715 5.03505 8.7741 5.10082L9.55951 4.31541C9.08028 4.11232 8.55326 4 8 4C5.79086 4 4 5.79086 4 8C4 8.55326 4.11232 9.08028 4.31541 9.55951ZM12.1857 4.52139L11.1599 5.54718C11.6865 6.22452 12 7.07564 12 8C12 10.2091 10.2091 12 8 12C7.07564 12 6.22452 11.6865 5.54718 11.1599L4.62118 12.0859C5.53979 12.6685 6.61957 13 8 13C9.75969 13 11.0308 12.4613 12.1024 11.5506C13.1037 10.6994 13.9582 9.50056 14.8438 8C13.9829 6.54125 13.1514 5.36765 12.1857 4.52139ZM10.4454 6.26173L6.26173 10.4454C6.75214 10.7946 7.35209 11 8 11C9.65685 11 11 9.65685 11 8C11 7.35208 10.7946 6.75214 10.4454 6.26173Z" fill="#1D1D21"/>
</svg>
