<svg width="16" height="16" viewBox="0 0 16 16" fill="none" xmlns="http://www.w3.org/2000/svg">
<path fill-rule="evenodd" clip-rule="evenodd" d="M3.89765 11.5506C2.89626 10.6994 2.04176 9.50056 1.15617 8C2.04176 6.49944 2.89626 5.30062 3.89765 4.44944C4.96916 3.53865 6.24031 3 8 3C9.75969 3 11.0308 3.53865 12.1024 4.44944C13.1037 5.30062 13.9582 6.49944 14.8438 8C13.9582 9.50056 13.1037 10.6994 12.1024 11.5506C11.0308 12.4613 9.75969 13 8 13C6.24031 13 4.96916 12.4613 3.89765 11.5506ZM8 14C12 14 14 11.5 16 8C14 4.5 12 2 8 2C4 2 2 4.5 0 8C2 11.5 4 14 8 14ZM11 8C11 9.65685 9.65685 11 8 11C6.34315 11 5 9.65685 5 8C5 6.34315 6.34315 5 8 5C9.65685 5 11 6.34315 11 8ZM12 8C12 10.2091 10.2091 12 8 12C5.79086 12 4 10.2091 4 8C4 5.79086 5.79086 4 8 4C10.2091 4 12 5.79086 12 8Z" fill="#1D1D21"/>
</svg>
