<svg width="24" height="24" viewBox="0 0 24 24" fill="none" xmlns="http://www.w3.org/2000/svg">
<path fill-rule="evenodd" clip-rule="evenodd" d="M3.4306 12.8128C3.26768 12.4776 3.14799 12.1978 3.06844 12C3.14799 11.8022 3.26768 11.5224 3.4306 11.1872C3.7726 10.4837 4.29863 9.54963 5.03403 8.6207C6.50619 6.76114 8.74625 5 12 5C15.2537 5 17.4938 6.76114 18.9659 8.6207C19.7013 9.54963 20.2274 10.4837 20.5694 11.1872C20.7323 11.5224 20.852 11.8022 20.9315 12C20.852 12.1978 20.7323 12.4776 20.5694 12.8128C20.2274 13.5163 19.7013 14.4504 18.9659 15.3793C17.4938 17.2389 15.2537 19 12 19C8.74625 19 6.50619 17.2389 5.03403 15.3793C4.29863 14.4504 3.7726 13.5163 3.4306 12.8128ZM22.9484 11.6829C22.9485 11.6834 22.9487 11.6838 22 12C22.9487 12.3162 22.9485 12.3166 22.9484 12.3171L22.948 12.3181L22.9471 12.3208L22.9446 12.3282L22.9365 12.3517C22.9298 12.3711 22.9203 12.398 22.908 12.4318C22.8834 12.4994 22.8475 12.5948 22.7999 12.7142C22.7048 12.9527 22.5623 13.2877 22.3681 13.6872C21.9809 14.4837 21.382 15.5496 20.534 16.6207C18.8395 18.7611 16.0796 21 12 21C7.92039 21 5.16045 18.7611 3.46594 16.6207C2.61801 15.5496 2.01904 14.4837 1.63187 13.6872C1.43768 13.2877 1.29516 12.9527 1.20003 12.7142C1.15244 12.5948 1.1166 12.4994 1.09201 12.4318C1.07971 12.398 1.07021 12.3711 1.06345 12.3517L1.05535 12.3282L1.05282 12.3208L1.05194 12.3181L1.05159 12.3171C1.05144 12.3166 1.0513 12.3162 1.99998 12C1.0513 11.6838 1.05144 11.6834 1.05159 11.6829L1.05194 11.6819L1.05282 11.6792L1.05535 11.6718L1.06345 11.6483C1.07021 11.6289 1.07971 11.602 1.09201 11.5682C1.1166 11.5006 1.15244 11.4052 1.20003 11.2858C1.29516 11.0473 1.43768 10.7123 1.63187 10.3128C2.01904 9.51634 2.61801 8.45037 3.46594 7.3793C5.16045 5.23886 7.92039 3 12 3C16.0796 3 18.8395 5.23886 20.534 7.3793C21.382 8.45037 21.9809 9.51634 22.3681 10.3128C22.5623 10.7123 22.7048 11.0473 22.7999 11.2858C22.8475 11.4052 22.8834 11.5006 22.908 11.5682C22.9203 11.602 22.9298 11.6289 22.9365 11.6483L22.9446 11.6718L22.9471 11.6792L22.948 11.6819L22.9484 11.6829ZM1.99998 12L1.0513 12.3162L0.945892 12L1.0513 11.6838L1.99998 12ZM22 12L22.9487 11.6838L23.0541 12L22.9487 12.3162L22 12ZM8.99998 12C8.99998 10.3431 10.3431 9 12 9C13.6568 9 15 10.3431 15 12C15 13.6569 13.6568 15 12 15C10.3431 15 8.99998 13.6569 8.99998 12ZM12 7C9.23856 7 6.99998 9.23858 6.99998 12C6.99998 14.7614 9.23856 17 12 17C14.7614 17 17 14.7614 17 12C17 9.23858 14.7614 7 12 7Z" fill="#1D1D21"/>
</svg>
