<svg width="14" height="14" viewBox="0 0 14 14" fill="none" xmlns="http://www.w3.org/2000/svg">
<path d="M1 4C1 3.44772 1.44772 3 2 3H12C12.5523 3 13 3.44772 13 4C13 4.55228 12.5523 5 12 5H2C1.44772 5 1 4.55228 1 4Z" fill="#212126"/>
<path d="M3 7C3 6.44772 3.44772 6 4 6H10C10.5523 6 11 6.44772 11 7C11 7.55228 10.5523 8 10 8H4C3.44772 8 3 7.55228 3 7Z" fill="#212126"/>
<path d="M5 10C5 9.44772 5.44772 9 6 9H8C8.55228 9 9 9.44772 9 10C9 10.5523 8.55228 11 8 11H6C5.44772 11 5 10.5523 5 10Z" fill="#212126"/>
</svg>