<svg width="24" height="24" viewBox="0 0 24 24" fill="none" xmlns="http://www.w3.org/2000/svg">
<path fill-rule="evenodd" clip-rule="evenodd" d="M11.1696 3.47296C11.5303 3.0915 11.8113 3 12 3C12.1887 3 12.4697 3.0915 12.8304 3.47296C13.1932 3.85653 13.5659 4.46523 13.9 5.30032C14.4813 6.75372 14.8861 8.74349 14.9794 11H9.02056C9.11393 8.74349 9.51869 6.75372 10.1 5.30032C10.4341 4.46523 10.8068 3.85653 11.1696 3.47296ZM7.019 11C7.11321 8.53283 7.55341 6.28175 8.2431 4.55754C8.371 4.23779 8.50959 3.93083 8.65909 3.64049C5.6385 4.84877 3.42561 7.64677 3.05493 11H7.019ZM3.05493 13C3.42561 16.3532 5.6385 19.1512 8.65909 20.3595C8.50959 20.0692 8.371 19.7622 8.2431 19.4425C7.55341 17.7182 7.11321 15.4672 7.019 13H3.05493ZM9.02056 13H14.9794C14.8861 15.2565 14.4813 17.2463 13.9 18.6997C13.5659 19.5348 13.1932 20.1435 12.8304 20.527C12.4697 20.9085 12.1887 21 12 21C11.8113 21 11.5303 20.9085 11.1696 20.527C10.8068 20.1435 10.4341 19.5348 10.1 18.6997C9.51869 17.2463 9.11393 15.2565 9.02056 13ZM16.981 13C16.8868 15.4672 16.4466 17.7182 15.7569 19.4425C15.629 19.7622 15.4904 20.0692 15.3409 20.3595C18.3615 19.1512 20.5744 16.3532 20.9451 13H16.981ZM20.9451 11C20.5744 7.64677 18.3615 4.84877 15.3409 3.64049C15.4904 3.93083 15.629 4.23779 15.7569 4.55754C16.4466 6.28175 16.8868 8.53283 16.981 11H20.9451ZM23 12C23 18.0751 18.0751 23 12 23C5.92487 23 1 18.0751 1 12C1 5.92487 5.92487 1 12 1C18.0751 1 23 5.92487 23 12Z" fill="#272727"/>
</svg>
