<svg width="24" height="24" viewBox="0 0 24 24" fill="none" xmlns="http://www.w3.org/2000/svg">
<path fill-rule="evenodd" clip-rule="evenodd" d="M19 6.5C19 7.88071 17.8807 9 16.5 9C15.1193 9 14 7.88071 14 6.5C14 5.11929 15.1193 4 16.5 4C17.8807 4 19 5.11929 19 6.5ZM21 6.5C21 8.98528 18.9853 11 16.5 11C14.0147 11 12 8.98528 12 6.5C12 4.01472 14.0147 2 16.5 2C18.9853 2 21 4.01472 21 6.5ZM9.99999 11.5C9.99999 12.8807 8.8807 14 7.49999 14C6.11927 14 4.99998 12.8807 4.99998 11.5C4.99998 10.1193 6.11927 9 7.49999 9C8.8807 9 9.99999 10.1193 9.99999 11.5ZM12 11.5C12 13.9853 9.98527 16 7.49999 16C5.0147 16 2.99999 13.9853 2.99999 11.5C2.99999 9.01472 5.0147 7 7.49999 7C9.98527 7 12 9.01472 12 11.5ZM7.49999 19C5.69287 19 4.02107 20.7445 3.99994 23.0093L2.00003 22.9907C2.02912 19.8712 4.36781 17 7.49999 17C10.635 17 12.9817 19.8595 13 22.9942L11 23.0058C10.9868 20.7385 9.316 19 7.49999 19ZM13.083 17.1922C13.4503 15.3169 14.9207 14 16.5 14C18.3109 14 19.9868 15.7394 20 18.0058L22 17.9942C21.9817 14.8586 19.6283 12 16.5 12C13.7652 12 11.6302 14.2042 11.1203 16.8078C11.0451 17.1918 11.0038 17.5877 11 17.9907L12.9999 18.0093C13.0025 17.7307 13.0311 17.4573 13.083 17.1922Z" fill="#272727"/>
</svg>
