<svg width="24" height="24" viewBox="0 0 24 24" fill="none" xmlns="http://www.w3.org/2000/svg">
<path fill-rule="evenodd" clip-rule="evenodd" d="M12 3C14.3533 3 16.2675 3.74498 17.7913 4.78631L16.1406 6.1069C14.992 5.43762 13.622 5 12 5C8.74628 5 6.50622 6.76114 5.03406 8.6207C4.29866 9.54963 3.77263 10.4837 3.43063 11.1872C3.26771 11.5224 3.14802 11.8022 3.06847 12C3.14802 12.1978 3.26771 12.4776 3.43063 12.8128C3.74326 13.4559 4.20967 14.2916 4.84922 15.14L3.28692 16.3899C2.533 15.3977 1.99123 14.4264 1.6319 13.6872C1.43771 13.2877 1.29519 12.9527 1.20006 12.7142C1.15247 12.5948 1.11663 12.4994 1.09204 12.4318C1.07974 12.398 1.07024 12.3711 1.06348 12.3517L1.05538 12.3282L1.05285 12.3208L1.05197 12.3181L1.05162 12.3171C1.05147 12.3166 1.05133 12.3162 2.00002 12C1.05133 11.6838 1.05147 11.6834 1.05162 11.6829L1.05197 11.6819L1.05285 11.6792L1.05538 11.6718L1.06348 11.6483C1.07024 11.6289 1.07974 11.602 1.09204 11.5682C1.11663 11.5006 1.15247 11.4052 1.20006 11.2858C1.29519 11.0473 1.43771 10.7123 1.6319 10.3128C2.01907 9.51634 2.61804 8.45037 3.46597 7.3793C5.16048 5.23886 7.92042 3 12 3ZM2.00002 12L1.05133 12.3162L0.945923 12L1.05133 11.6838L2.00002 12ZM12 7C12.8355 7 13.623 7.2049 14.3153 7.56718L12.4771 9.03772C12.3217 9.0129 12.1624 9 12 9C10.4053 9 9.10125 10.2442 9.00563 11.8149L7.16691 13.2859C7.05803 12.8756 7.00002 12.4446 7.00002 12C7.00002 9.23858 9.23859 7 12 7ZM14.9925 11.7866L11.1343 14.8732C11.4084 14.9557 11.699 15 12 15C13.6569 15 15 13.6569 15 12C15 11.9282 14.9975 11.8571 14.9925 11.7866ZM9.39217 16.2669L7.57551 17.7202C8.78034 18.486 10.2423 19 12 19C15.2538 19 17.4938 17.2389 18.966 15.3793C19.7014 14.4504 20.2274 13.5163 20.5694 12.8128C20.7323 12.4776 20.852 12.1978 20.9316 12C20.852 11.8022 20.7323 11.5224 20.5694 11.1872C20.2274 10.4837 19.7014 9.54963 18.966 8.6207C18.9639 8.61808 18.9618 8.61546 18.9597 8.61284L16.7358 10.392C16.9071 10.8966 17 11.4375 17 12C17 14.7614 14.7614 17 12 17C11.0444 17 10.1514 16.7319 9.39217 16.2669ZM20.5215 7.36344L23.1247 5.28087L21.8753 3.71913L1.8753 19.7191L3.1247 21.2809L5.94292 19.0263C7.50811 20.1645 9.50782 21 12 21C16.0796 21 18.8396 18.7611 20.5341 16.6207C21.382 15.5496 21.981 14.4837 22.3681 13.6872C22.5623 13.2877 22.7048 12.9527 22.8 12.7142C22.8476 12.5948 22.8834 12.4994 22.908 12.4318C22.9203 12.398 22.9298 12.3711 22.9366 12.3517L22.9447 12.3282L22.9472 12.3208L22.9481 12.3181L22.9484 12.3171C22.9486 12.3166 22.9487 12.3162 22 12L22.9487 12.3162L23.0541 12L22.9487 11.6838L22 12C22.9487 11.6838 22.9486 11.6834 22.9484 11.6829L22.9481 11.6819L22.9472 11.6792L22.9447 11.6718L22.9366 11.6483C22.9298 11.6289 22.9203 11.602 22.908 11.5682C22.8834 11.5006 22.8476 11.4052 22.8 11.2858C22.7048 11.0473 22.5623 10.7123 22.3681 10.3128C21.981 9.51634 21.382 8.45037 20.5341 7.3793C20.5299 7.37401 20.5257 7.36872 20.5215 7.36344Z" fill="#272727"/>
</svg>
