<svg width="24" height="24" viewBox="0 0 24 24" fill="none" xmlns="http://www.w3.org/2000/svg">
<path fill-rule="evenodd" clip-rule="evenodd" d="M12 3C7.02944 3 3 7.02944 3 12C3 16.9706 7.02944 21 12 21C16.9706 21 21 16.9706 21 12C21 7.02944 16.9706 3 12 3ZM1 12C1 5.92487 5.92487 1 12 1C18.0751 1 23 5.92487 23 12C23 18.0751 18.0751 23 12 23C5.92487 23 1 18.0751 1 12ZM12 8.75C12.6904 8.75 13.25 8.19037 13.25 7.5C13.25 6.80963 12.6904 6.25 12 6.25C11.3096 6.25 10.75 6.80963 10.75 7.5C10.75 8.19037 11.3096 8.75 12 8.75ZM13 11.5C13 10.9477 12.5523 10.5 12 10.5C11.4477 10.5 11 10.9477 11 11.5V17.5H13V11.5Z" fill="#272727"/>
</svg>
