<svg width="24" height="24" viewBox="0 0 24 24" fill="none" xmlns="http://www.w3.org/2000/svg">
<path fill-rule="evenodd" clip-rule="evenodd" d="M20.9274 2.93409L20.9958 3.00247L21.0642 3.07082L21.0642 3.07084C21.4595 3.46587 21.7526 3.75875 21.9627 4.06489C22.8983 5.42854 22.8983 7.22739 21.9627 8.59104C21.7526 8.89717 21.4595 9.19006 21.0642 9.58509L21.0642 9.5851L20.9958 9.65346L16.9728 13.6764L16.9436 13.7056C16.3744 14.2748 15.9047 14.7446 15.4907 15.096C15.0608 15.461 14.6257 15.7567 14.1077 15.925C13.3043 16.186 12.4389 16.186 11.6356 15.925C11.1175 15.7567 10.6825 15.461 10.2525 15.096C9.90148 14.798 9.51029 14.4149 9.05236 13.9581L10.4666 12.5439C10.9233 12.9991 11.2589 13.3268 11.5469 13.5713C11.8822 13.856 12.0867 13.9686 12.2536 14.0229C12.6553 14.1534 13.088 14.1534 13.4897 14.0229C13.6566 13.9686 13.861 13.856 14.1964 13.5713C14.5406 13.2791 14.9529 12.8679 15.5586 12.2622L19.5816 8.23924C20.0752 7.74564 20.2223 7.5925 20.3136 7.4595C20.7814 6.77768 20.7814 5.87825 20.3136 5.19643C20.2223 5.06343 20.0752 4.91029 19.5816 4.41668C19.088 3.92308 18.9348 3.77596 18.8018 3.6847C18.12 3.21688 17.2206 3.21688 16.5388 3.6847C16.4058 3.77596 16.2526 3.92308 15.759 4.41668L14.5776 5.59813C14.3541 5.48595 14.1145 5.38503 13.8569 5.30135C13.3596 5.13977 12.8465 5.04487 12.3306 5.01665L14.3448 3.00247L14.4132 2.93409C14.8082 2.53874 15.1011 2.24563 15.4072 2.03557C16.7709 1.09992 18.5697 1.09992 19.9334 2.03557C20.2395 2.24563 20.5324 2.53874 20.9274 2.93409ZM14.622 8.03246C14.973 8.33047 15.3642 8.7136 15.8221 9.1703L14.4078 10.5846C13.9512 10.1294 13.6156 9.80163 13.3276 9.55714C12.9923 9.27246 12.7878 9.15984 12.6209 9.10559C12.2192 8.97508 11.7865 8.97508 11.3848 9.10559C11.2179 9.15984 11.0134 9.27246 10.6781 9.55714C10.3338 9.8494 9.92155 10.2606 9.31586 10.8663L4.41671 15.7654C3.92311 16.259 3.77599 16.4122 3.68473 16.5452C3.2169 17.227 3.2169 18.1264 3.68473 18.8082C3.77599 18.9412 3.92311 19.0944 4.41671 19.588C4.91032 20.0816 5.06346 20.2287 5.19645 20.32C5.87828 20.7878 6.7777 20.7878 7.45953 20.32C7.59252 20.2287 7.74566 20.0816 8.23927 19.588L10.2969 17.5304C10.5203 17.6425 10.76 17.7434 11.0175 17.8271C11.5148 17.9887 12.028 18.0836 12.5439 18.1118L9.65348 21.0022L9.58512 21.0706L9.58511 21.0706C9.19008 21.4659 8.89719 21.759 8.59106 21.9691C7.22741 22.9048 5.42857 22.9048 4.06492 21.9691C3.75878 21.759 3.46589 21.4659 3.07086 21.0706L3.0025 21.0022L2.93411 20.9338C2.53877 20.5388 2.24566 20.2459 2.0356 19.9398C1.09995 18.5761 1.09995 16.7773 2.0356 15.4136C2.24566 15.1075 2.53877 14.8146 2.93411 14.4196L3.0025 14.3512L7.90164 9.45207L7.93085 9.42287L7.93085 9.42286C8.50004 8.85365 8.9698 8.38387 9.38375 8.03246C9.81369 7.66747 10.2487 7.3718 10.7668 7.20348C11.5702 6.94245 12.4356 6.94245 13.2389 7.20348C13.757 7.3718 14.192 7.66747 14.622 8.03246Z" fill="#1D1D21"/>
</svg>
