<svg width="24" height="24" viewBox="0 0 24 24" fill="none" xmlns="http://www.w3.org/2000/svg">
<path fill-rule="evenodd" clip-rule="evenodd" d="M20.9274 2.93412L20.9958 3.0025L21.0642 3.07085L21.0642 3.07087C21.4595 3.4659 21.7526 3.75879 21.9627 4.06492C22.8983 5.42857 22.8983 7.22742 21.9627 8.59107C21.7526 8.8972 21.4595 9.19009 21.0642 9.58512L21.0642 9.58513L20.9958 9.65349L16.9728 13.6764L16.9436 13.7057C16.3744 14.2749 15.9047 14.7446 15.4907 15.096C15.0608 15.461 14.6257 15.7567 14.1077 15.925C13.3043 16.1861 12.4389 16.1861 11.6356 15.925C11.1175 15.7567 10.6825 15.461 10.2525 15.096C9.90148 14.798 9.51029 14.4149 9.05236 13.9582L10.4666 12.5439C10.9233 12.9991 11.2589 13.3269 11.5469 13.5714C11.8822 13.856 12.0867 13.9687 12.2536 14.0229C12.6553 14.1534 13.088 14.1534 13.4897 14.0229C13.6566 13.9687 13.8611 13.856 14.1964 13.5714C14.5406 13.2791 14.9529 12.8679 15.5586 12.2622L19.5816 8.23927C20.0752 7.74567 20.2223 7.59253 20.3136 7.45953C20.7814 6.77771 20.7814 5.87828 20.3136 5.19646C20.2223 5.06346 20.0752 4.91032 19.5816 4.41671C19.088 3.92311 18.9348 3.77599 18.8018 3.68473C18.12 3.21691 17.2206 3.21691 16.5388 3.68473C16.4058 3.77599 16.2526 3.92311 15.759 4.41671L14.5776 5.59816C14.3541 5.48598 14.1145 5.38506 13.8569 5.30138C13.3596 5.1398 12.8465 5.0449 12.3306 5.01668L14.3448 3.0025L14.4132 2.93412C14.8082 2.53878 15.1011 2.24566 15.4072 2.03561C16.7709 1.09995 18.5697 1.09995 19.9334 2.03561C20.2395 2.24566 20.5324 2.53878 20.9274 2.93412ZM14.622 8.03249C14.973 8.3305 15.3642 8.71363 15.8221 9.17033L14.4078 10.5846C13.9512 10.1294 13.6156 9.80166 13.3276 9.55717C12.9923 9.27249 12.7878 9.15987 12.6209 9.10562C12.2192 8.97511 11.7865 8.97511 11.3848 9.10562C11.2179 9.15987 11.0134 9.27249 10.6781 9.55717C10.3338 9.84943 9.92155 10.2606 9.31586 10.8663L4.41671 15.7655C3.92311 16.2591 3.77599 16.4122 3.68473 16.5452C3.2169 17.227 3.2169 18.1265 3.68473 18.8083C3.77599 18.9413 3.92311 19.0944 4.41671 19.588C4.91032 20.0816 5.06346 20.2287 5.19645 20.32C5.87828 20.7878 6.7777 20.7878 7.45953 20.32C7.59252 20.2287 7.74566 20.0816 8.23927 19.588L10.2969 17.5304C10.5203 17.6426 10.76 17.7435 11.0175 17.8272C11.5148 17.9887 12.028 18.0836 12.5439 18.1119L9.65348 21.0022L9.58512 21.0706L9.58511 21.0706C9.19008 21.466 8.89719 21.7591 8.59106 21.9691C7.22741 22.9048 5.42857 22.9048 4.06492 21.9691C3.75878 21.7591 3.46589 21.466 3.07086 21.0706L3.0025 21.0022L2.93411 20.9339C2.53877 20.5388 2.24566 20.246 2.0356 19.9398C1.09995 18.5762 1.09995 16.7773 2.0356 15.4137C2.24566 15.1075 2.53877 14.8146 2.93411 14.4196L3.0025 14.3512L7.90164 9.4521L7.93085 9.4229L7.93085 9.42289C8.50004 8.85368 8.9698 8.3839 9.38375 8.03249C9.81369 7.6675 10.2487 7.37183 10.7668 7.20351C11.5702 6.94248 12.4356 6.94248 13.2389 7.20351C13.757 7.37183 14.192 7.6675 14.622 8.03249Z" fill="#1D1D21"/>
</svg>
