<svg width="24" height="24" viewBox="0 0 24 24" fill="none" xmlns="http://www.w3.org/2000/svg">
<path fill-rule="evenodd" clip-rule="evenodd" d="M5 11L16 11H17L19 11V18C19 19.6569 17.6569 21 16 21H8C6.34315 21 5 19.6569 5 18V11ZM7 6L7 9H4H3V10V18C3 20.7614 5.23858 23 8 23H16C18.7614 23 21 20.7614 21 18V10V9H20H17V6C17 3.23858 14.7614 1 12 1C9.23858 1 7 3.23858 7 6ZM15 9V6C15 4.34315 13.6569 3 12 3C10.3431 3 9 4.34315 9 6L9 9L15 9ZM12 17.5C12.8284 17.5 13.5 16.8284 13.5 16C13.5 15.1716 12.8284 14.5 12 14.5C11.1716 14.5 10.5 15.1716 10.5 16C10.5 16.8284 11.1716 17.5 12 17.5Z" fill="#272727"/>
</svg>
