<svg width="16" height="16" viewBox="0 0 16 16" fill="none" xmlns="http://www.w3.org/2000/svg">
<path d="M13.9577 12.5674L13.0002 11C12.5244 10.2452 12.0002 9.87999 12.0002 9V6C12.0002 4.19143 10.7331 3.49315 9.00024 3V2C9.00024 1.36971 8.66188 1 8.00004 1C7.33821 1 7.00024 1.36971 7.00024 2V3C5.2674 3.49315 4.00024 4.19143 4.00024 6V9C4.00024 9.87999 3.47546 10.2451 3.00024 11L2.04302 12.5668C1.98722 12.6554 1.98601 12.7651 2.03942 12.8548C2.09283 12.9446 2.19183 13 2.29984 13H13.7003C13.8083 13 13.9079 12.9446 13.9613 12.8554C14.0147 12.7663 14.0129 12.6554 13.9577 12.5674Z" fill="#212126"/>
<path d="M6.00025 14C6.00025 14.5 6.99985 15 8.00005 15C9.00025 15 10.0003 14.5 10.0003 14H6.00025Z" fill="#212126"/>
</svg>
