<svg width="16" height="16" viewBox="0 0 16 16" fill="none" xmlns="http://www.w3.org/2000/svg">
<path fill-rule="evenodd" clip-rule="evenodd" d="M16 8C16 12.4183 12.4183 16 8 16C3.58172 16 0 12.4183 0 8C0 3.58172 3.58172 0 8 0C12.4183 0 16 3.58172 16 8ZM8 5C7.45845 5 6.82015 5.38695 6.35355 5.85355L5.64645 5.14645C6.17985 4.61305 7.06099 4 8 4C9.38071 4 10.5 5.11929 10.5 6.5C10.5 7.24185 10.1477 7.7383 9.72223 8.14898C9.54413 8.32087 9.34081 8.48945 9.14188 8.65439L9.14187 8.65439L9.05412 8.72723C8.82172 8.92054 8.58648 9.12063 8.35355 9.35355C8.15829 9.54882 7.84171 9.54882 7.64645 9.35355C7.45118 9.15829 7.45118 8.84171 7.64645 8.64645C7.91352 8.37937 8.17828 8.15503 8.41463 7.95843L8.50539 7.88306L8.50539 7.88305C8.70779 7.71511 8.87892 7.57311 9.02777 7.42945C9.35225 7.11627 9.5 6.86272 9.5 6.5C9.5 5.67157 8.82843 5 8 5ZM8 12C8.14834 12 8.29334 11.956 8.41668 11.8736C8.54001 11.7912 8.63614 11.6741 8.69291 11.537C8.74968 11.4 8.76453 11.2492 8.73559 11.1037C8.70665 10.9582 8.63522 10.8246 8.53033 10.7197C8.42544 10.6148 8.2918 10.5434 8.14632 10.5144C8.00083 10.4855 7.85003 10.5003 7.71299 10.5571C7.57594 10.6139 7.45881 10.71 7.3764 10.8333C7.29399 10.9567 7.25 11.1017 7.25 11.25C7.25 11.4489 7.32902 11.6397 7.46967 11.7803C7.61032 11.921 7.80109 12 8 12Z" fill="#1D1D21"/>
</svg>
