<svg width="16" height="16" viewBox="0 0 16 16" fill="none" xmlns="http://www.w3.org/2000/svg">
<path fill-rule="evenodd" clip-rule="evenodd" d="M8.00595 2.00637C4.69248 2.00637 2.00638 4.69248 2.00638 8.00595H1.00638C1.00638 4.14019 4.14019 1.00637 8.00595 1.00637C10.5528 1.00637 12.781 2.36641 14.0056 4.39877V2H15.0056V5.5C15.0056 5.77614 14.7817 6 14.5056 6H11V5H13.1995C12.161 3.20965 10.2235 2.00637 8.00595 2.00637ZM8.00595 14.0055C11.3194 14.0055 14.0055 11.3194 14.0055 8.00595H15.0055C15.0055 11.8717 11.8717 15.0055 8.00595 15.0055C5.45475 15.0055 3.22319 13.6408 2 11.6026V14H1V10.5C1 10.2239 1.22386 10 1.5 10H5V11H2.80555C3.84233 12.7968 5.78345 14.0055 8.00595 14.0055Z" fill="#1D1D21"/>
</svg>
