<svg width="16" height="16" viewBox="0 0 16 16" fill="none" xmlns="http://www.w3.org/2000/svg">
<path fill-rule="evenodd" clip-rule="evenodd" d="M1.99524 8.12057C1.99524 4.79472 4.69349 2 7.99555 2C10.1581 2 12.0687 3.23437 13.1263 5H11.0291V6H14.4959C14.772 6 14.9959 5.77614 14.9959 5.5V2H13.9959V4.50661C12.7759 2.45682 10.5536 1 7.99555 1C4.11757 1 0.995239 4.26638 0.995239 8.12057C0.995239 11.9989 4.14174 15 7.99555 15C11.8617 15 14.9959 11.8662 14.9959 8H13.9959C13.9959 11.3139 11.3095 14 7.99555 14C4.66932 14 1.99524 11.4223 1.99524 8.12057Z" fill="#1D1D21"/>
</svg>
