<svg width="16" height="16" viewBox="0 0 16 16" fill="none" xmlns="http://www.w3.org/2000/svg">
<path fill-rule="evenodd" clip-rule="evenodd" d="M1 8C1 4.13401 4.13401 1 8 1C11.866 1 15 4.13401 15 8C15 11.866 11.866 15 8 15C4.13401 15 1 11.866 1 8ZM8 0C3.58172 0 0 3.58172 0 8C0 12.4183 3.58172 16 8 16C12.4183 16 16 12.4183 16 8C16 3.58172 12.4183 0 8 0ZM5.73705 4.05976L5 3.66289V4.5V11.5V12.3371L5.73705 11.9402L12.2371 8.44024L13.0546 8L12.2371 7.55976L5.73705 4.05976ZM10.9454 8L6 10.6629V5.33711L10.9454 8Z" fill="#1D1D21"/>
</svg>
