<svg width="16" height="16" viewBox="0 0 16 16" fill="none" xmlns="http://www.w3.org/2000/svg">
<path fill-rule="evenodd" clip-rule="evenodd" d="M4.9 2.03705e-07H4.87935H4.87934C4.47686 -5.93566e-06 4.14468 -1.1002e-05 3.87409 0.0220975C3.59304 0.0450601 3.33469 0.0943423 3.09202 0.217988C2.7157 0.409734 2.40973 0.715695 2.21799 1.09202C2.09434 1.33469 2.04506 1.59304 2.0221 1.87409C1.99999 2.14468 1.99999 2.47686 2 2.87934V2.87935V2.9V13.1V13.1206V13.1207C1.99999 13.5231 1.99999 13.8553 2.0221 14.1259C2.04506 14.407 2.09434 14.6653 2.21799 14.908C2.40973 15.2843 2.7157 15.5903 3.09202 15.782C3.33469 15.9057 3.59304 15.9549 3.87409 15.9779C4.14468 16 4.47686 16 4.87934 16H4.9H11.1H11.1207C11.5231 16 11.8553 16 12.1259 15.9779C12.407 15.9549 12.6653 15.9057 12.908 15.782C13.2843 15.5903 13.5903 15.2843 13.782 14.908C13.9057 14.6653 13.9549 14.407 13.9779 14.1259C14 13.8553 14 13.5231 14 13.1207V13.1V2.9V2.87934C14 2.47686 14 2.14468 13.9779 1.87409C13.9549 1.59304 13.9057 1.33469 13.782 1.09202C13.5903 0.715695 13.2843 0.409734 12.908 0.217988C12.6653 0.0943423 12.407 0.0450601 12.1259 0.0220975C11.8553 -1.10025e-05 11.5231 -5.93566e-06 11.1207 2.03705e-07H11.1207H11.1H4.9ZM3.54601 1.10899C3.62421 1.06915 3.73631 1.03669 3.95552 1.01878C4.18056 1.00039 4.47171 1 4.9 1H11.1C11.5283 1 11.8194 1.00039 12.0445 1.01878C12.2637 1.03669 12.3758 1.06915 12.454 1.10899C12.6422 1.20487 12.7951 1.35785 12.891 1.54601C12.9309 1.62421 12.9633 1.73631 12.9812 1.95552C12.9996 2.18056 13 2.47171 13 2.9V5H3V2.9C3 2.47171 3.00039 2.18056 3.01878 1.95552C3.03669 1.73631 3.06915 1.62421 3.10899 1.54601C3.20487 1.35785 3.35785 1.20487 3.54601 1.10899ZM3 6H13V10H3V6ZM3 11V13.1C3 13.5283 3.00039 13.8194 3.01878 14.0445C3.03669 14.2637 3.06915 14.3758 3.10899 14.454C3.20487 14.6422 3.35785 14.7951 3.54601 14.891C3.62421 14.9309 3.73631 14.9633 3.95552 14.9812C4.18056 14.9996 4.47171 15 4.9 15H11.1C11.5283 15 11.8194 14.9996 12.0445 14.9812C12.2637 14.9633 12.3758 14.9309 12.454 14.891C12.6422 14.7951 12.7951 14.6422 12.891 14.454C12.9309 14.3758 12.9633 14.2637 12.9812 14.0445C12.9996 13.8194 13 13.5283 13 13.1V11H3ZM5.79923 2.99922C5.79923 3.44105 5.44105 3.79922 4.99922 3.79922C4.55739 3.79922 4.19922 3.44105 4.19922 2.99922C4.19922 2.55739 4.55739 2.19922 4.99922 2.19922C5.44105 2.19922 5.79923 2.55739 5.79923 2.99922ZM5.79923 7.99922C5.79923 8.44105 5.44105 8.79922 4.99922 8.79922C4.55739 8.79922 4.19922 8.44105 4.19922 7.99922C4.19922 7.55739 4.55739 7.19922 4.99922 7.19922C5.44105 7.19922 5.79923 7.55739 5.79923 7.99922ZM4.99922 13.7992C5.44105 13.7992 5.79923 13.441 5.79923 12.9992C5.79923 12.5574 5.44105 12.1992 4.99922 12.1992C4.55739 12.1992 4.19922 12.5574 4.19922 12.9992C4.19922 13.441 4.55739 13.7992 4.99922 13.7992Z" fill="#1D1D21"/>
</svg>
