<svg width="24" height="24" viewBox="0 0 24 24" fill="none" xmlns="http://www.w3.org/2000/svg">
<path fill-rule="evenodd" clip-rule="evenodd" d="M6 1C4.34315 1 3 2.34315 3 4V20C3 21.6569 4.34315 23 6 23H18C19.6569 23 21 21.6569 21 20V4C21 2.34315 19.6569 1 18 1H6ZM5 4C5 3.44772 5.44772 3 6 3H18C18.5523 3 19 3.44772 19 4V7.66667H5V4ZM5 9.66667H19V14.3333H5V9.66667ZM5 16.3333V20C5 20.5523 5.44772 21 6 21H18C18.5523 21 19 20.5523 19 20V16.3333H5ZM8 6.33334C8.55228 6.33334 9 5.88563 9 5.33334C9 4.78106 8.55228 4.33334 8 4.33334C7.44772 4.33334 7 4.78106 7 5.33334C7 5.88563 7.44772 6.33334 8 6.33334ZM8 13C8.55228 13 9 12.5523 9 12C9 11.4477 8.55228 11 8 11C7.44772 11 7 11.4477 7 12C7 12.5523 7.44772 13 8 13ZM9 18.6667C9 19.219 8.55228 19.6667 8 19.6667C7.44772 19.6667 7 19.219 7 18.6667C7 18.1144 7.44772 17.6667 8 17.6667C8.55228 17.6667 9 18.1144 9 18.6667Z" fill="#272727"/>
</svg>
