<svg width="16" height="16" viewBox="0 0 16 16" fill="none" xmlns="http://www.w3.org/2000/svg">
<path d="M14.7571 9.53414L13.4357 8.5279C13.4766 8.1767 13.4766 7.8221 13.4357 7.4709L14.7583 6.46408C15.0061 6.26969 15.0724 5.92883 14.9146 5.65966L13.5399 3.34559C13.3816 3.07472 13.0443 2.95643 12.745 3.06676L11.1876 3.67694C10.8949 3.47017 10.5814 3.2929 10.2519 3.14787L10.0129 1.5367C9.96978 1.22738 9.69727 0.997478 9.37672 1.00002H6.62125C6.30337 0.998162 6.03306 1.2255 5.98869 1.53202L5.74909 3.14784C5.4206 3.29426 5.1076 3.47167 4.81463 3.67751L3.25296 3.06616C2.95673 2.95244 2.61981 3.06931 2.46406 3.33974L1.08811 5.65791C0.926122 5.92752 0.992809 6.27213 1.24445 6.46583L2.56587 7.47208C2.52451 7.82325 2.52451 8.1779 2.56587 8.52907L1.24325 9.53532C0.994971 9.72943 0.928424 10.0705 1.08631 10.3397L2.46047 12.6544C2.61861 12.9255 2.95603 13.0438 3.25535 12.9332L4.8128 12.3231C5.10572 12.5299 5.41942 12.7074 5.74907 12.8527L5.98866 14.4627C6.03084 14.7712 6.30166 15.0012 6.62123 15H9.37669C9.69516 15.0025 9.96635 14.7751 10.0111 14.468L10.2506 12.8522C10.5791 12.7057 10.8921 12.5283 11.1851 12.3225L12.7485 12.9344C13.0448 13.0479 13.3815 12.9311 13.5375 12.6608L14.9176 10.3333C15.0721 10.0646 15.0042 9.72643 14.7571 9.53414ZM7.99897 10.9166C6.34484 10.9166 5.00388 9.61082 5.00388 7.99997C5.00388 6.38913 6.34482 5.08331 7.99897 5.08331C9.65313 5.08331 10.9941 6.38913 10.9941 7.99997C10.9921 9.61002 9.65229 10.9147 7.99897 10.9166Z" fill="#212126"/>
</svg>
