<svg width="24" height="24" viewBox="0 0 24 24" fill="none" xmlns="http://www.w3.org/2000/svg">
<path fill-rule="evenodd" clip-rule="evenodd" d="M3.43063 12.8128C3.26771 12.4776 3.14802 12.1978 3.06847 12C3.14802 11.8022 3.26771 11.5224 3.43063 11.1872C3.77263 10.4837 4.29866 9.54963 5.03406 8.6207C6.50622 6.76114 8.74628 5 12 5C15.2538 5 17.4938 6.76114 18.966 8.6207C19.7014 9.54963 20.2274 10.4837 20.5694 11.1872C20.7323 11.5224 20.852 11.8022 20.9316 12C20.852 12.1978 20.7323 12.4776 20.5694 12.8128C20.2274 13.5163 19.7014 14.4504 18.966 15.3793C17.4938 17.2389 15.2538 19 12 19C8.74628 19 6.50622 17.2389 5.03406 15.3793C4.29866 14.4504 3.77263 13.5163 3.43063 12.8128ZM22.9484 11.6829C22.9486 11.6834 22.9487 11.6838 22 12C22.9487 12.3162 22.9486 12.3166 22.9484 12.3171L22.9481 12.3181L22.9472 12.3208L22.9447 12.3282L22.9366 12.3517C22.9298 12.3711 22.9203 12.398 22.908 12.4318C22.8834 12.4994 22.8476 12.5948 22.8 12.7142C22.7048 12.9527 22.5623 13.2877 22.3681 13.6872C21.981 14.4837 21.382 15.5496 20.5341 16.6207C18.8396 18.7611 16.0796 21 12 21C7.92042 21 5.16048 18.7611 3.46597 16.6207C2.61804 15.5496 2.01907 14.4837 1.6319 13.6872C1.43771 13.2877 1.29519 12.9527 1.20006 12.7142C1.15247 12.5948 1.11663 12.4994 1.09204 12.4318C1.07974 12.398 1.07024 12.3711 1.06348 12.3517L1.05538 12.3282L1.05285 12.3208L1.05197 12.3181L1.05162 12.3171C1.05147 12.3166 1.05133 12.3162 2.00002 12C1.05133 11.6838 1.05147 11.6834 1.05162 11.6829L1.05197 11.6819L1.05285 11.6792L1.05538 11.6718L1.06348 11.6483C1.07024 11.6289 1.07974 11.602 1.09204 11.5682C1.11663 11.5006 1.15247 11.4052 1.20006 11.2858C1.29519 11.0473 1.43771 10.7123 1.6319 10.3128C2.01907 9.51634 2.61804 8.45037 3.46597 7.3793C5.16048 5.23886 7.92042 3 12 3C16.0796 3 18.8396 5.23886 20.5341 7.3793C21.382 8.45037 21.981 9.51634 22.3681 10.3128C22.5623 10.7123 22.7048 11.0473 22.8 11.2858C22.8476 11.4052 22.8834 11.5006 22.908 11.5682C22.9203 11.602 22.9298 11.6289 22.9366 11.6483L22.9447 11.6718L22.9472 11.6792L22.9481 11.6819L22.9484 11.6829ZM2.00002 12L1.05133 12.3162L0.945923 12L1.05133 11.6838L2.00002 12ZM22 12L22.9487 11.6838L23.0541 12L22.9487 12.3162L22 12ZM9.00002 12C9.00002 10.3431 10.3432 9 12 9C13.6569 9 15 10.3431 15 12C15 13.6569 13.6569 15 12 15C10.3432 15 9.00002 13.6569 9.00002 12ZM12 7C9.23859 7 7.00002 9.23858 7.00002 12C7.00002 14.7614 9.23859 17 12 17C14.7614 17 17 14.7614 17 12C17 9.23858 14.7614 7 12 7Z" fill="#1D1D21"/>
</svg>
