<svg width="16" height="16" viewBox="0 0 16 16" fill="none" xmlns="http://www.w3.org/2000/svg">
<path fill-rule="evenodd" clip-rule="evenodd" d="M14.968 7.5L15 7.5V8.5H14.968H14.936H14.9041H14.8723H14.8405H14.8088H14.7771H14.7455H14.7139H14.6824H14.6509H14.6195H14.5881H14.5568H14.5255H14.4943H14.4632H14.4321H14.401H14.37H14.3391H14.3081H14.2773H14.2465H14.2157H14.185H14.1544H14.1238H14.0932H14.0627H14.0323H14.0018H13.9715H13.9412H13.9109H13.8807H13.8505H13.8204H13.7903H13.7603H13.7303H13.7004H13.6705H13.6406L13.6108 8.5H13.5811H13.5514H13.5217H13.4921H13.4625H13.433H13.4035H13.374H13.3446H13.3153H13.2859H13.2567H13.2274H13.1983H13.1691H13.14H13.111H13.0819H13.053H13.024H12.9951H12.9663H12.9375H12.9087H12.88H12.8513H12.8226H12.794H12.7654H12.7369H12.7084H12.6799H12.6515H12.6231H12.5948H12.5665H12.5382H12.51H12.4818H12.4536H12.4255H12.3974H12.3694H12.3414H12.3134H12.2855H12.2576H12.2297H12.2019H12.1741H12.1463H12.1186H12.0909H12.0632H12.0356H12.008H11.9804H11.9529H11.9254H11.8979H11.8705H11.8431H11.8157H11.7884H11.7611H11.7338H11.7066H11.6794H11.6522H11.6251H11.5979H11.5709H11.5438H11.5168H11.4898H11.4628H11.4359H11.4089H11.3821H11.3552H11.3284H11.3016H11.2748H11.2481H11.2214H11.1947H11.168H11.1414H11.1148H11.0882H11.0616H11.0351H11.0086H10.9821H10.9556H10.9292L10.9028 8.5H10.8764H10.8501H10.8237H10.7974H10.7711H10.7449H10.7186H10.6924H10.6662H10.6401H10.6139H10.5878H10.5617H10.5356H10.5095H10.4835H10.4575H10.4315H10.4055H10.3795H10.3536H10.3277H10.3018H10.2759H10.2501H10.2242H10.1984H10.1726H10.1468H10.121H10.0953H10.0696H10.0439H10.0182H9.99249H9.96683H9.94119H9.91556H9.88995H9.86436H9.83878H9.81322H9.78767H9.76214H9.73662H9.71112H9.68563H9.66016H9.6347H9.60926H9.58383H9.55841H9.533H9.50761H9.48223H9.45687H9.43152H9.40617H9.38085H9.35553H9.33022H9.30493H9.27965H9.25438H9.22911H9.20386H9.17862H9.15339H9.12817H9.10296H9.07776H9.05257H9.02739H9.00221H8.97705H8.95189H8.92674H8.9016H8.87647H8.85134H8.82622H8.80111H8.77601H8.75091H8.72582H8.70073H8.67565H8.65058H8.62551H8.60045H8.57539H8.55034H8.52529H8.50025H8.47521H8.45017H8.42514H8.40012H8.37509H8.35007H8.32505H8.30004H8.27503H8.25002H8.22501H8.2L8.175 8.5H8.15H8.12499H8.09999H8.075H8.05H8.025H8H7.975H7.95H7.925H7.90001H7.87501H7.85H7.825H7.8H7.77499H7.74998H7.72497H7.69996H7.67495H7.64993H7.62491H7.59988H7.57486H7.54983H7.52479H7.49975H7.47471H7.44966H7.42461H7.39955H7.37449H7.34942H7.32435H7.29927H7.27418H7.24909H7.22399H7.19889H7.17378H7.14866H7.12353H7.0984H7.07326H7.04811H7.02295H6.99779H6.97261H6.94743H6.92224H6.89704H6.87183H6.84661H6.82138H6.79614H6.77089H6.74562H6.72035H6.69507H6.66978H6.64447H6.61915H6.59382H6.56848H6.54313H6.51777H6.49239H6.467H6.44159H6.41617H6.39074H6.3653H6.33984H6.31437H6.28888H6.26338H6.23786H6.21233H6.18678H6.16122H6.13564H6.11005H6.08444H6.05881H6.03317H6.00751H5.98183H5.95614H5.93043H5.9047H5.87895H5.85319H5.8274H5.8016H5.77578H5.74994H5.72408H5.69821H5.67231H5.64639H5.62046H5.5945H5.56852H5.54252H5.51651H5.49047H5.4644L5.43832 8.5H5.41222H5.38609H5.35994H5.33377H5.30758H5.28136H5.25512H5.22886H5.20258H5.17627H5.14993H5.12358H5.0972H5.07079H5.04436H5.0179H4.99142H4.96492H4.93839H4.91183H4.88525H4.85864H4.832H4.80534H4.77865H4.75193H4.72519H4.69842H4.67162H4.64479H4.61794H4.59105H4.56414H4.5372H4.51023H4.48323H4.45621H4.42915H4.40206H4.37494H4.34779H4.32062H4.29341H4.26617H4.2389H4.21159H4.18426H4.15689H4.12949H4.10207H4.0746H4.04711H4.01958H3.99202H3.96442H3.9368H3.90913H3.88144H3.85371H3.82594H3.79815H3.77031H3.74244H3.71454H3.6866H3.65863H3.63061H3.60257H3.57448H3.54637H3.51821H3.49002H3.46179H3.43352H3.40521H3.37687H3.34849H3.32007H3.29161H3.26311H3.23458H3.20601H3.17739H3.14874H3.12004H3.09131H3.06254H3.03373H3.00487H2.97598H2.94704H2.91806H2.88904H2.85999H2.83088H2.80174H2.77255H2.74332L2.71405 8.5H2.68474H2.65538H2.62598H2.59653H2.56704H2.53751H2.50793H2.47831H2.44865H2.41894H2.38918H2.35938H2.32953H2.29964H2.2697H2.23972H2.20969H2.17961H2.14948H2.11931H2.08909H2.05883H2.02851H1.99815H1.96774H1.93728H1.90678H1.87622H1.84562H1.81496H1.78426H1.75351H1.7227H1.69185H1.66095H1.62999H1.59899H1.56794H1.53683H1.50567H1.47446H1.4432H1.41189H1.38053H1.34911H1.31764H1.28612H1.25454H1.22291H1.19123H1.15949H1.1277H1.09586H1.06396H1.03201H1L1 7.5L1.03201 7.5L1.06396 7.5L1.09586 7.5L1.1277 7.5L1.15949 7.5L1.19123 7.5L1.22291 7.5L1.25454 7.5L1.28612 7.5L1.31764 7.5L1.34911 7.5L1.38053 7.5L1.41189 7.5L1.4432 7.5L1.47446 7.5L1.50567 7.5L1.53683 7.5L1.56794 7.5L1.59899 7.5L1.62999 7.5L1.66095 7.5L1.69185 7.5L1.7227 7.5L1.75351 7.5L1.78426 7.5L1.81496 7.5L1.84562 7.5L1.87622 7.5L1.90678 7.5L1.93728 7.5L1.96774 7.5L1.99815 7.5L2.02851 7.5L2.05883 7.5L2.08909 7.5L2.11931 7.5L2.14948 7.5L2.17961 7.5L2.20969 7.5L2.23972 7.5L2.2697 7.5L2.29964 7.5L2.32953 7.5L2.35938 7.5L2.38918 7.5L2.41894 7.5L2.44865 7.5L2.47831 7.5L2.50793 7.5L2.53751 7.5L2.56704 7.5L2.59653 7.5L2.62598 7.5L2.65538 7.5L2.68474 7.5L2.71405 7.5L2.74332 7.5L2.77255 7.5L2.80174 7.5L2.83088 7.5L2.85999 7.5L2.88904 7.5L2.91806 7.5L2.94704 7.5L2.97598 7.5L3.00487 7.5L3.03373 7.5L3.06254 7.5L3.09131 7.5L3.12004 7.5L3.14874 7.5L3.17739 7.5L3.20601 7.5L3.23458 7.5L3.26311 7.5L3.29161 7.5L3.32007 7.5L3.34849 7.5L3.37687 7.5L3.40521 7.5L3.43352 7.5L3.46179 7.5L3.49002 7.5L3.51821 7.5L3.54637 7.5L3.57448 7.5L3.60257 7.5L3.63061 7.5L3.65863 7.5L3.6866 7.5L3.71454 7.5L3.74244 7.5L3.77031 7.5L3.79815 7.5L3.82594 7.5L3.85371 7.5L3.88144 7.5L3.90913 7.5L3.9368 7.5L3.96442 7.5L3.99202 7.5L4.01958 7.5L4.04711 7.5L4.0746 7.5L4.10207 7.5L4.12949 7.5L4.15689 7.5L4.18426 7.5L4.21159 7.5L4.2389 7.5L4.26617 7.5L4.29341 7.5L4.32062 7.5L4.34779 7.5L4.37494 7.5L4.40206 7.5L4.42915 7.5L4.45621 7.5L4.48323 7.5L4.51023 7.5L4.5372 7.5L4.56414 7.5L4.59105 7.5L4.61794 7.5L4.64479 7.5L4.67162 7.5L4.69842 7.5L4.72519 7.5L4.75193 7.5L4.77865 7.5L4.80534 7.5L4.832 7.5L4.85864 7.5L4.88525 7.5L4.91183 7.5L4.93839 7.5L4.96492 7.5L4.99142 7.5L5.0179 7.5L5.04436 7.5L5.07079 7.5L5.0972 7.5L5.12358 7.5L5.14993 7.5L5.17627 7.5L5.20258 7.5L5.22886 7.5L5.25512 7.5L5.28136 7.5L5.30758 7.5L5.33377 7.5L5.35994 7.5L5.38609 7.5L5.41222 7.5L5.43832 7.5L5.4644 7.5L5.49047 7.5L5.51651 7.5L5.54252 7.5L5.56852 7.5L5.5945 7.5L5.62046 7.5L5.64639 7.5L5.67231 7.5L5.69821 7.5L5.72408 7.5L5.74994 7.5L5.77578 7.5L5.8016 7.5L5.8274 7.5L5.85319 7.5L5.87895 7.5L5.9047 7.5L5.93043 7.5L5.95614 7.5L5.98183 7.5L6.00751 7.5L6.03317 7.5L6.05881 7.5L6.08444 7.5L6.11005 7.5L6.13564 7.5L6.16122 7.5L6.18678 7.5L6.21233 7.5L6.23786 7.5L6.26338 7.5L6.28888 7.5L6.31437 7.5L6.33984 7.5L6.3653 7.5L6.39074 7.5L6.41617 7.5L6.44159 7.5L6.467 7.5L6.49239 7.5L6.51777 7.5L6.54313 7.5L6.56848 7.5L6.59382 7.5L6.61915 7.5L6.64447 7.5L6.66978 7.5L6.69507 7.5L6.72035 7.5L6.74562 7.5L6.77089 7.5L6.79614 7.5L6.82138 7.5L6.84661 7.5L6.87183 7.5L6.89704 7.5L6.92224 7.5L6.94743 7.5L6.97261 7.5L6.99779 7.5L7.02295 7.5L7.04811 7.5L7.07326 7.5L7.0984 7.5L7.12353 7.5L7.14866 7.5L7.17378 7.5L7.19889 7.5L7.22399 7.5L7.24909 7.5L7.27418 7.5L7.29927 7.5L7.32435 7.5L7.34942 7.5L7.37449 7.5L7.39955 7.5L7.42461 7.5L7.44966 7.5L7.47471 7.5L7.49975 7.5L7.52479 7.5L7.54983 7.5L7.57486 7.5L7.59988 7.5L7.62491 7.5L7.64993 7.5L7.67495 7.5L7.69996 7.5L7.72497 7.5L7.74998 7.5L7.77499 7.5L7.8 7.5L7.825 7.5L7.85 7.5L7.87501 7.5L7.90001 7.5L7.925 7.5L7.95 7.5L7.975 7.5L8 7.5L8.025 7.5L8.05 7.5L8.075 7.5L8.09999 7.5L8.12499 7.5L8.15 7.5L8.175 7.5L8.2 7.5L8.22501 7.5L8.25002 7.5L8.27503 7.5L8.30004 7.5L8.32505 7.5L8.35007 7.5L8.37509 7.5L8.40012 7.5L8.42514 7.5L8.45017 7.5L8.47521 7.5L8.50025 7.5L8.52529 7.5L8.55034 7.5L8.57539 7.5L8.60045 7.5L8.62551 7.5L8.65058 7.5L8.67565 7.5L8.70073 7.5L8.72582 7.5L8.75091 7.5L8.77601 7.5L8.80111 7.5L8.82622 7.5L8.85134 7.5L8.87647 7.5L8.9016 7.5L8.92674 7.5L8.95189 7.5L8.97705 7.5L9.00221 7.5L9.02739 7.5L9.05257 7.5L9.07776 7.5L9.10296 7.5L9.12817 7.5L9.15339 7.5L9.17862 7.5L9.20386 7.5L9.22911 7.5L9.25438 7.5L9.27965 7.5L9.30493 7.5L9.33022 7.5L9.35553 7.5L9.38085 7.5L9.40618 7.5L9.43152 7.5L9.45687 7.5L9.48223 7.5L9.50761 7.5L9.533 7.5L9.55841 7.5L9.58383 7.5L9.60926 7.5L9.6347 7.5L9.66016 7.5L9.68563 7.5L9.71112 7.5L9.73662 7.5L9.76214 7.5L9.78767 7.5L9.81322 7.5L9.83878 7.5L9.86436 7.5L9.88995 7.5L9.91556 7.5L9.94119 7.5L9.96683 7.5L9.99249 7.5L10.0182 7.5L10.0439 7.5L10.0696 7.5L10.0953 7.5L10.121 7.5L10.1468 7.5L10.1726 7.5L10.1984 7.5L10.2242 7.5L10.2501 7.5L10.2759 7.5L10.3018 7.5L10.3277 7.5L10.3536 7.5L10.3795 7.5L10.4055 7.5L10.4315 7.5L10.4575 7.5L10.4835 7.5L10.5095 7.5L10.5356 7.5L10.5617 7.5L10.5878 7.5L10.6139 7.5L10.6401 7.5L10.6662 7.5L10.6924 7.5L10.7186 7.5L10.7449 7.5L10.7711 7.5L10.7974 7.5L10.8237 7.5L10.8501 7.5L10.8764 7.5L10.9028 7.5L10.9292 7.5L10.9556 7.5L10.9821 7.5L11.0086 7.5L11.0351 7.5L11.0616 7.5L11.0882 7.5L11.1148 7.5L11.1414 7.5L11.168 7.5L11.1947 7.5L11.2214 7.5L11.2481 7.5L11.2748 7.5L11.3016 7.5L11.3284 7.5L11.3552 7.5L11.3821 7.5L11.4089 7.5L11.4359 7.5L11.4628 7.5L11.4898 7.5L11.5168 7.5L11.5438 7.5L11.5709 7.5L11.5979 7.5L11.6251 7.5L11.6522 7.5L11.6794 7.5L11.7066 7.5L11.7338 7.5L11.7611 7.5L11.7884 7.5L11.8157 7.5L11.8431 7.5L11.8705 7.5L11.8979 7.5L11.9254 7.5L11.9529 7.5L11.9804 7.5L12.008 7.5L12.0356 7.5L12.0632 7.5L12.0909 7.5L12.1186 7.5L12.1463 7.5L12.1741 7.5L12.2019 7.5L12.2297 7.5L12.2576 7.5L12.2855 7.5L12.3134 7.5L12.3414 7.5L12.3694 7.5L12.3974 7.5L12.4255 7.5L12.4536 7.5L12.4818 7.5L12.51 7.5L12.5382 7.5L12.5665 7.5L12.5948 7.5L12.6231 7.5L12.6515 7.5L12.6799 7.5L12.7084 7.5L12.7369 7.5L12.7654 7.5L12.794 7.5L12.8226 7.5L12.8513 7.5L12.88 7.5L12.9087 7.5L12.9375 7.5L12.9663 7.5L12.9951 7.5L13.024 7.5L13.053 7.5L13.0819 7.5L13.111 7.5L13.14 7.5L13.1691 7.5L13.1983 7.5L13.2274 7.5L13.2567 7.5L13.2859 7.5L13.3153 7.5L13.3446 7.5L13.374 7.5L13.4035 7.5L13.433 7.5L13.4625 7.5L13.4921 7.5L13.5217 7.5L13.5514 7.5L13.5811 7.5L13.6108 7.5L13.6406 7.5L13.6705 7.5L13.7004 7.5L13.7303 7.5L13.7603 7.5L13.7903 7.5L13.8204 7.5L13.8505 7.5L13.8807 7.5L13.9109 7.5L13.9412 7.5L13.9715 7.5L14.0018 7.5L14.0323 7.5L14.0627 7.5L14.0932 7.5L14.1238 7.5L14.1544 7.5L14.185 7.5L14.2157 7.5L14.2465 7.5L14.2773 7.5L14.3081 7.5L14.3391 7.5L14.37 7.5L14.401 7.5L14.4321 7.5L14.4632 7.5L14.4943 7.5L14.5255 7.5L14.5568 7.5L14.5881 7.5L14.6195 7.5L14.6509 7.5L14.6824 7.5L14.7139 7.5L14.7455 7.5L14.7771 7.5L14.8088 7.5L14.8405 7.5L14.8723 7.5L14.9041 7.5L14.936 7.5L14.968 7.5Z" fill="#1D1D21"/>
</svg>
