<svg width="24" height="24" viewBox="0 0 24 24" fill="none" xmlns="http://www.w3.org/2000/svg">
<path fill-rule="evenodd" clip-rule="evenodd" d="M17.2929 2.70711L19.5858 5H4.99999C3.34313 5 1.99999 6.34315 1.99999 8V13.7574L3.99999 11.7574V8C3.99999 7.44771 4.4477 7 4.99999 7H19.5858L17.2929 9.29289L18.7071 10.7071L22.1414 7.27279L22.1578 7.25643C22.242 7.17224 22.3427 7.07169 22.424 6.97583C22.5183 6.86476 22.6439 6.69616 22.7195 6.46352C22.8174 6.16226 22.8174 5.83774 22.7195 5.53647C22.6439 5.30384 22.5183 5.13524 22.424 5.02417C22.3427 4.92831 22.242 4.82777 22.1578 4.74357L22.1414 4.72721L18.7071 1.29289L17.2929 2.70711ZM20 16V12.2426L22 10.2426V16C22 17.6569 20.6568 19 19 19H4.41421L6.70709 21.2929L5.29288 22.7071L1.85856 19.2728L1.84219 19.2564C1.75793 19.1722 1.65731 19.0717 1.57594 18.9758C1.48164 18.8648 1.3561 18.6962 1.28051 18.4635C1.18262 18.1623 1.18262 17.8377 1.28051 17.5365C1.3561 17.3038 1.48164 17.1352 1.57594 17.0242C1.65731 16.9283 1.75794 16.8278 1.8422 16.7436L1.85856 16.7272L5.29288 13.2929L6.70709 14.7071L4.41418 17H19C19.5523 17 20 16.5523 20 16Z" fill="#272727"/>
</svg>
