<svg width="16" height="16" viewBox="0 0 16 16" fill="none" xmlns="http://www.w3.org/2000/svg">
<path fill-rule="evenodd" clip-rule="evenodd" d="M10.8465 0C9.60391 0 8.59655 1.00736 8.59655 2.25V3.75C8.59655 4.99264 9.60391 6 10.8465 6C12.0892 6 13.0965 4.99264 13.0965 3.75V2.25C13.0965 1.00736 12.0892 0 10.8465 0ZM9.59655 2.25C9.59655 1.55964 10.1562 1 10.8465 1C11.5369 1 12.0965 1.55964 12.0965 2.25V3.75C12.0965 4.44036 11.5369 5 10.8465 5C10.1562 5 9.59655 4.44036 9.59655 3.75V2.25ZM11.6792 8C12.3399 8 12.5337 8.00832 12.6881 8.06873C12.8433 8.12943 12.9808 8.22793 13.0882 8.35528C13.1951 8.48204 13.2653 8.6628 13.478 9.28839L14.4 12H8.43622L8.42482 11.9665L8.39638 11.8827C8.22568 11.3794 8.0972 11.0006 7.85262 10.7106C7.83923 10.6947 7.82561 10.679 7.81176 10.6636L8.30446 9.26764C8.52186 8.65168 8.59328 8.47383 8.7002 8.34912C8.80762 8.22383 8.94438 8.12707 9.09828 8.06747C9.25146 8.00816 9.44295 8 10.0961 8H11.6792ZM6.94971 10.1015L7.36147 8.93482L7.39051 8.8524C7.56505 8.35668 7.69645 7.9835 7.94102 7.69824C8.15586 7.44766 8.42937 7.25414 8.73717 7.13495C9.08757 6.99926 9.48321 6.99956 10.0088 6.99996L10.0961 7H11.6792L11.7677 6.99996C12.2991 6.99955 12.6992 6.99925 13.0524 7.13746C13.3627 7.25886 13.6378 7.45586 13.8526 7.71056C14.0972 8.00056 14.2257 8.37939 14.3964 8.8827L14.4248 8.96648L15.5715 12.339L15.7962 13H15.0981H8.77621L9.57149 15.339L9.79621 16H9.0981H0.698109H0L0.224723 15.339L1.37139 11.9665L1.39983 11.8827C1.57053 11.3794 1.69901 11.0006 1.9436 10.7106C2.15842 10.4559 2.43347 10.2589 2.74377 10.1375C3.09706 9.99925 3.49709 9.99955 4.02856 9.99996L4.11703 10H5.67918L5.76765 9.99996C6.24828 9.99959 6.62142 9.99931 6.94971 10.1015ZM2.59655 5.25C2.59655 4.00736 3.60391 3 4.84655 3C6.08919 3 7.09655 4.00736 7.09655 5.25V6.75C7.09655 7.99264 6.08919 9 4.84655 9C3.60391 9 2.59655 7.99264 2.59655 6.75V5.25ZM4.84655 4C4.15619 4 3.59655 4.55964 3.59655 5.25V6.75C3.59655 7.44036 4.15619 8 4.84655 8C5.5369 8 6.09655 7.44036 6.09655 6.75V5.25C6.09655 4.55964 5.5369 4 4.84655 4ZM3.1081 11.0687C3.26252 11.0083 3.45628 11 4.11703 11H5.67918C6.33994 11 6.53369 11.0083 6.68811 11.0687C6.84326 11.1294 6.98079 11.2279 7.0882 11.3553C7.1951 11.482 7.26535 11.6628 7.47805 12.2884L8.39999 15H1.39622L2.31817 12.2884C2.53087 11.6628 2.60111 11.482 2.70802 11.3553C2.81543 11.2279 2.95295 11.1294 3.1081 11.0687Z" fill="#1D1D21"/>
</svg>
