<svg width="16" height="16" viewBox="0 0 16 16" fill="none" xmlns="http://www.w3.org/2000/svg">
<path fill-rule="evenodd" clip-rule="evenodd" d="M12 4V3C12 2.44772 11.5523 2 11 2C10.4477 2 10 2.44772 10 3V4C10 4.55228 10.4477 5 11 5C11.5523 5 12 4.55228 12 4ZM11 1C9.89543 1 9 1.89543 9 3V4C9 5.10457 9.89543 6 11 6C12.1046 6 13 5.10457 13 4V3C13 1.89543 12.1046 1 11 1ZM13.4507 9.70979C13.3461 9.25176 13.2788 8.96046 13.2112 8.74017C13.1473 8.53193 13.1019 8.45367 13.0716 8.41204L13.8805 7.82408C14.1212 8.15524 14.2227 8.59915 14.4256 9.48696L14.7714 11L15 12H13.9742H8.31292C8.34765 12.146 8.38455 12.3074 8.42559 12.487L8.77143 14L9 15H7.97421H2.02579H1L1.22857 14L1.57441 12.487C1.77734 11.5991 1.8788 11.1552 2.11952 10.8241C2.33185 10.532 2.61932 10.3028 2.95142 10.1609C3.32789 10 3.78325 10 4.69396 10H5.30604C6.21675 10 6.67211 10 7.04858 10.1609C7.16471 10.2105 7.27538 10.2708 7.37928 10.3407L7.57443 9.48696C7.77735 8.59915 7.87882 8.15524 8.11953 7.82408C8.33187 7.53195 8.61934 7.30278 8.95143 7.16087C9.32791 7 9.78326 7 10.694 7H11.3061C12.2168 7 12.6721 7 13.0486 7.16087C13.3807 7.30278 13.6682 7.53195 13.8805 7.82408L13.0716 8.41204C12.9654 8.26598 12.8217 8.15139 12.6557 8.08044C12.6083 8.06021 12.5219 8.03334 12.3047 8.01744C12.0748 8.00062 11.7759 8 11.3061 8H10.694C10.2241 8 9.92519 8.00062 9.69536 8.01744C9.47812 8.03334 9.3917 8.06021 9.34437 8.08044C9.17833 8.15139 9.03459 8.26598 8.92842 8.41204C8.89816 8.45367 8.85271 8.53193 8.7888 8.74017C8.72119 8.96047 8.65397 9.25177 8.54928 9.70979L8.25438 11H13.7457L13.4681 9.78588L13.4507 9.70979ZM6 7V6C6 5.44772 5.55228 5 5 5C4.44772 5 4 5.44772 4 6V7C4 7.55228 4.44772 8 5 8C5.55228 8 6 7.55228 6 7ZM5 4C3.89543 4 3 4.89543 3 6V7C3 8.10457 3.89543 9 5 9C6.10457 9 7 8.10457 7 7V6C7 4.89543 6.10457 4 5 4ZM5.30604 11H4.69396C4.22413 11 3.92517 11.0006 3.69534 11.0174C3.4781 11.0333 3.39168 11.0602 3.34436 11.0804C3.17831 11.1514 3.03457 11.266 2.92841 11.412C2.89815 11.4537 2.85269 11.5319 2.78879 11.7402C2.72118 11.9605 2.65396 12.2518 2.54927 12.7098L2.25436 14H7.74564L7.45073 12.7098C7.34604 12.2518 7.27882 11.9605 7.21122 11.7402C7.14731 11.5319 7.10185 11.4537 7.0716 11.412C6.96543 11.266 6.82169 11.1514 6.65565 11.0804C6.60832 11.0602 6.5219 11.0333 6.30466 11.0174C6.07483 11.0006 5.77587 11 5.30604 11Z" fill="#1D1D21"/>
</svg>
