<svg width="16" height="16" viewBox="0 0 16 16" fill="none" xmlns="http://www.w3.org/2000/svg">
<path fill-rule="evenodd" clip-rule="evenodd" d="M14.9102 15.6389C14.3939 16 13.5367 16 11.8223 16H4.1777C2.46327 16 1.60605 16 1.08978 15.6389C0.638974 15.3236 0.337947 14.8365 0.25754 14.2923C0.165457 13.6691 0.548817 12.9024 1.31553 11.3689L5.68479 2.63041C6.42996 1.14007 6.80254 0.394903 7.30673 0.155779C7.74548 -0.052313 8.25451 -0.052313 8.69326 0.155779C9.19745 0.394903 9.57003 1.14007 10.3152 2.63041L14.6845 11.3689C15.4512 12.9024 15.8345 13.6691 15.7424 14.2923C15.662 14.8365 15.361 15.3236 14.9102 15.6389ZM8.49909 5.0012V5.5012V9.50121C8.49909 9.77735 8.27524 10.0012 7.99909 10.0012C7.72295 10.0012 7.49909 9.77735 7.49909 9.50121V5.5012V5.0012H8.49909ZM7.99909 13.2512C8.41331 13.2512 8.74909 12.9154 8.74909 12.5012C8.74909 12.087 8.41331 11.7512 7.99909 11.7512C7.58488 11.7512 7.24909 12.087 7.24909 12.5012C7.24909 12.9154 7.58488 13.2512 7.99909 13.2512Z" fill="#1D1D21"/>
</svg>
