<svg width="24" height="24" viewBox="0 0 24 24" fill="none" xmlns="http://www.w3.org/2000/svg">
<path fill-rule="evenodd" clip-rule="evenodd" d="M9.34246 2.91828C10.4655 0.77431 13.5344 0.774309 14.6574 2.91828L22.3521 17.608C23.3984 19.6055 21.9495 22 19.6946 22H4.30534C2.0504 22 0.601534 19.6055 1.64784 17.608L9.34246 2.91828ZM12 14C11.4477 14 11 13.5523 11 13L11 8H13L13 13C13 13.5523 12.5523 14 12 14ZM12 15.75C11.3096 15.75 10.75 16.3096 10.75 17C10.75 17.6904 11.3096 18.25 12 18.25C12.6904 18.25 13.25 17.6904 13.25 17C13.25 16.3096 12.6904 15.75 12 15.75Z" fill="#272727"/>
</svg>
