<svg role="presentation" width="48" height="48" viewBox="0 0 48 48" fill="none" xmlns="http://www.w3.org/2000/svg">
<g clip-path="url(#clip0)">
<path d="M17.6859 25.302C14.9019 25.302 12.6439 27.56 12.6439 30.344V42.956C12.6439 45.74 14.9019 47.998 17.6859 47.998C20.4699 47.998 22.7279 45.74 22.7279 42.956V30.344C22.7259 27.56 20.4679 25.302 17.6859 25.302Z" fill="#E91E63"/>
<path d="M0.0380249 30.3438C0.0380249 33.1298 2.29802 35.3898 5.08402 35.3898C7.87002 35.3898 10.13 33.1298 10.13 30.3438V25.2979H5.08802C5.08602 25.2979 5.08602 25.2979 5.08402 25.2979C2.29802 25.2979 0.0380249 27.5578 0.0380249 30.3438V30.3438Z" fill="#E91E63"/>
<path d="M17.692 -0.00195312C17.69 -0.00195312 17.688 -0.00195312 17.686 -0.00195312C14.9 -0.00195312 12.64 2.25805 12.64 5.04405C12.64 7.83005 14.9 10.09 17.686 10.09H22.728V5.04405C22.728 5.04205 22.728 5.03805 22.728 5.03405C22.726 2.25205 20.472 -0.00195312 17.692 -0.00195312V-0.00195312Z" fill="#00BCD4"/>
<path d="M5.05003 22.7399H17.686C20.472 22.7399 22.732 20.4799 22.732 17.6939C22.732 14.9079 20.472 12.6479 17.686 12.6479H5.05003C2.26403 12.6479 0.00402832 14.9079 0.00402832 17.6939C0.00402832 20.4799 2.26403 22.7399 5.05003 22.7399V22.7399Z" fill="#00BCD4"/>
<path d="M42.9139 12.646C40.1319 12.646 37.8779 14.9 37.8779 17.682V17.692V22.738H42.9199C45.7059 22.738 47.9659 20.478 47.9659 17.692C47.9659 14.906 45.7059 12.646 42.9199 12.646C42.9179 12.646 42.9159 12.646 42.9139 12.646V12.646Z" fill="#4CAF50"/>
<path d="M25.282 5.04395V17.694C25.282 20.478 27.54 22.736 30.324 22.736C33.108 22.736 35.366 20.478 35.366 17.694V5.04395C35.366 2.25995 33.108 0.00195312 30.324 0.00195312C27.54 0.00195312 25.282 2.25995 25.282 5.04395V5.04395Z" fill="#4CAF50"/>
<path d="M35.364 42.9519C35.364 40.1679 33.106 37.9099 30.322 37.9099H25.28V42.9559C25.282 45.7379 27.538 47.9939 30.322 47.9939C33.106 47.9939 35.364 45.7359 35.364 42.9519Z" fill="#FF9800"/>
<path d="M42.958 25.2979H30.322C27.536 25.2979 25.276 27.5578 25.276 30.3438C25.276 33.1298 27.536 35.3898 30.322 35.3898H42.958C45.744 35.3898 48.004 33.1298 48.004 30.3438C48.004 27.5578 45.744 25.2979 42.958 25.2979V25.2979Z" fill="#FF9800"/>
</g>
<defs>
<clipPath id="clip0">
<rect width="48" height="48" fill="white"/>
</clipPath>
</defs>
</svg>
