<svg width="24" height="24" viewBox="0 0 24 24" fill="none" xmlns="http://www.w3.org/2000/svg">
<path fill-rule="evenodd" clip-rule="evenodd" d="M8.60722 5C9.18231 5 9.24496 5.01173 9.28465 5.02468C9.35155 5.04652 9.41308 5.08223 9.46523 5.12948C9.49618 5.15751 9.53744 5.20609 9.82276 5.70541L13.1318 11.4961L13.4197 12H14H21V16.8C21 17.3766 20.9992 17.7488 20.9761 18.0322C20.9539 18.3038 20.9162 18.4046 20.891 18.454C20.7951 18.6422 20.6421 18.7951 20.454 18.891C20.4045 18.9162 20.3038 18.9539 20.0322 18.9761C19.7488 18.9992 19.3765 19 18.8 19H5.2C4.62344 19 4.25117 18.9992 3.96783 18.9761C3.69617 18.9539 3.59545 18.9162 3.546 18.891C3.35784 18.7951 3.20486 18.6422 3.10899 18.454C3.0838 18.4046 3.04612 18.3038 3.02392 18.0322C3.00077 17.7488 3 17.3766 3 16.8V5H8.60722ZM9.90523 3.1234C9.52186 2.99827 9.1122 2.99907 8.70471 2.99988L8.60722 3H2H0.999995V4V16.8L0.999992 16.8385V16.8386C0.999976 17.3657 0.999962 17.8205 1.03056 18.195C1.06287 18.5904 1.13418 18.9836 1.32698 19.362C1.6146 19.9265 2.07354 20.3854 2.63802 20.673C3.0164 20.8658 3.40962 20.9371 3.80497 20.9694C4.17953 21 4.63429 21 5.16143 21H5.2H18.8H18.8386C19.3657 21 19.8205 21 20.195 20.9694C20.5904 20.9371 20.9836 20.8658 21.362 20.673C21.9265 20.3854 22.3854 19.9265 22.673 19.362C22.8658 18.9836 22.9371 18.5904 22.9694 18.195C23 17.8205 23 17.3657 23 16.8386V16.8V11V10.5601V10V6V5H22H11.7232L11.5592 4.71313L11.511 4.62843C11.3095 4.27423 11.107 3.91814 10.8081 3.64736C10.5474 3.41112 10.2397 3.23257 9.90523 3.1234ZM12.866 7L14.5803 10H21V7H12.866Z" fill="#1D1D21"/>
</svg>
