<svg width="958" height="455" viewBox="0 0 958 455" fill="none" xmlns="http://www.w3.org/2000/svg">
<rect width="958" height="455" fill="#EBEBED"/>
<rect x="234" y="48" width="490" height="363" rx="4" fill="white"/>
<path fill-rule="evenodd" clip-rule="evenodd" d="M697.704 74.2954C697.311 73.9015 696.672 73.9015 696.278 74.2954L692 78.5737L687.722 74.2955C687.328 73.9016 686.689 73.9016 686.296 74.2955C685.902 74.6893 685.902 75.3278 686.296 75.7216L690.574 79.9999L686.295 84.2784C685.902 84.6722 685.902 85.3107 686.295 85.7045C686.689 86.0984 687.328 86.0984 687.721 85.7045L692 81.426L696.279 85.7046C696.672 86.0985 697.311 86.0985 697.705 85.7046C698.098 85.3108 698.098 84.6723 697.705 84.2785L693.426 79.9999L697.704 75.7215C698.098 75.3277 698.098 74.6892 697.704 74.2954Z" fill="#1D1D21"/>
<path d="M260.184 112H266.256C271.152 112 274.872 108.856 274.872 103.504C274.872 98.344 271.128 95.2 266.328 95.2H260.184V112ZM263.304 109.336V97.864H266.184C269.856 97.864 271.632 100.144 271.632 103.552C271.632 107.344 269.808 109.336 266.016 109.336H263.304ZM282.937 112.36C286.417 112.36 288.961 109.816 288.961 106.024C288.961 102.28 286.441 99.688 282.937 99.688C279.433 99.688 276.913 102.28 276.913 106.024C276.913 109.672 279.457 112.36 282.937 112.36ZM282.937 109.984C281.161 109.984 279.937 108.736 279.937 106.072C279.937 103.408 281.161 102.064 282.937 102.064C284.713 102.064 285.913 103.408 285.913 106.072C285.913 108.736 284.713 109.984 282.937 109.984ZM291.674 112H294.602V106.552C294.602 105.088 294.65 102.136 297.338 102.136C298.658 102.136 299.498 102.904 299.498 104.704V112H302.426V104.056C302.426 101.44 301.25 99.688 298.394 99.688C296.066 99.688 294.914 101.248 294.53 101.944V100.048H291.674V112ZM309.502 112.36C311.854 112.36 312.958 110.824 313.438 110.032V112H316.342V100.048H313.414V105.664C313.414 107.584 312.982 109.912 310.702 109.912C309.43 109.912 308.638 109.168 308.638 107.32V100.048H305.71V108.016C305.71 110.632 307.03 112.36 309.502 112.36ZM324.117 112H327.669V109.6H325.125C324.357 109.6 324.021 109.264 324.021 108.496V102.328H327.189V100.048H324.021V96.28H321.093V100.048H318.501V102.328H321.093V108.952C321.093 110.848 322.173 112 324.117 112ZM343.966 116.68H346.894V100.048H344.038V101.728C343.462 100.84 342.19 99.664 340.126 99.664C337.102 99.664 335.062 102.184 335.062 106.024C335.062 109.864 337.102 112.36 340.126 112.36C342.166 112.36 343.414 111.208 343.966 110.32V112.48V116.68ZM341.086 110.056C339.382 110.056 338.11 109.024 338.11 106.024C338.11 103.048 339.382 101.968 341.086 101.968C342.862 101.968 344.182 103.336 344.182 106.024C344.182 108.736 342.862 110.056 341.086 110.056ZM354.104 112.36C356.456 112.36 357.56 110.824 358.04 110.032V112H360.944V100.048H358.016V105.664C358.016 107.584 357.584 109.912 355.304 109.912C354.032 109.912 353.24 109.168 353.24 107.32V100.048H350.312V108.016C350.312 110.632 351.632 112.36 354.104 112.36ZM364.375 98.152H367.495V95.176H364.375V98.152ZM364.495 112H367.399V100.048H364.495V112ZM376.221 112.36C379.005 112.36 381.021 110.824 381.885 108.544L379.125 107.56C378.645 109.024 377.781 109.984 376.173 109.984C374.469 109.984 373.053 108.688 373.053 106C373.053 103.36 374.445 102.064 376.149 102.064C377.565 102.064 378.501 102.928 378.957 104.2L381.645 103.24C380.949 101.248 379.053 99.688 376.221 99.688C372.717 99.688 370.077 102.208 370.077 106C370.077 109.864 372.621 112.36 376.221 112.36ZM393.086 112H396.782L391.094 104.872L396.134 100.048H392.486L387.134 105.352V101.2V95.2H384.206V112H387.134V108.64L389.078 106.816L393.086 112ZM408.118 112.36C410.182 112.36 411.478 111.208 412.03 110.32V112H414.886V95.2H411.958V99.568V101.728C411.406 100.84 410.158 99.688 408.118 99.688C405.094 99.688 403.054 102.184 403.054 106.024C403.054 109.864 405.094 112.36 408.118 112.36ZM409.078 110.056C407.374 110.056 406.102 109.024 406.102 106.024C406.102 103.048 407.374 101.992 409.078 101.992C410.854 101.992 412.102 103.336 412.102 106.024C412.102 108.736 410.854 110.056 409.078 110.056ZM423.464 112.36C426.608 112.36 428.288 110.728 429.056 108.88L426.416 107.896C425.984 108.904 425.192 110.056 423.488 110.056C421.952 110.056 420.656 109.168 420.536 106.744H428.984C429.368 102.784 427.232 99.688 423.416 99.688C420.104 99.688 417.632 102.208 417.632 106.024C417.632 110.008 419.936 112.36 423.464 112.36ZM420.632 104.584C420.848 102.856 421.976 101.872 423.416 101.872C424.928 101.872 425.984 102.832 426.08 104.584H420.632ZM431.807 112H434.735V95.2H431.807V112ZM438.156 98.152H441.276V95.176H438.156V98.152ZM438.276 112H441.18V100.048H438.276V112ZM447.65 112H451.178L455.354 100.048H452.378L450.626 105.64C449.978 107.728 449.594 108.88 449.426 109.456C449.234 108.904 448.874 107.776 448.154 105.64L446.33 100.048H443.258L447.65 112ZM462.417 112.36C465.561 112.36 467.241 110.728 468.009 108.88L465.369 107.896C464.937 108.904 464.145 110.056 462.441 110.056C460.905 110.056 459.609 109.168 459.489 106.744H467.937C468.321 102.784 466.185 99.688 462.369 99.688C459.057 99.688 456.585 102.208 456.585 106.024C456.585 110.008 458.889 112.36 462.417 112.36ZM459.585 104.584C459.801 102.856 460.929 101.872 462.369 101.872C463.881 101.872 464.937 102.832 465.033 104.584H459.585ZM470.76 112H473.688V106.96C473.688 104.032 474.768 102.808 477.312 102.808C477.744 102.808 478.176 102.832 478.608 102.904V99.904C478.392 99.856 478.152 99.832 477.816 99.832C475.152 99.832 474.024 101.728 473.64 102.688V100.048H470.76V112ZM488.448 100.048L486.792 105.16L485.736 108.376C485.52 107.872 485.232 107.272 484.368 105.184L482.16 100.048H478.992L484.56 111.904L484.2 112.984C483.84 113.968 483.432 114.256 482.616 114.256H479.784V116.68H482.904C484.992 116.68 485.952 115.84 486.648 113.8L491.52 100.048H488.448Z" fill="#1D1D21"/>
<path d="M261.248 143H263.2L265.2 136.024C265.632 134.536 265.76 134.072 265.856 133.704L266.48 136.024L268.352 143H270.272L273.136 131.8H271.632L270.032 138.392C269.504 140.552 269.408 140.92 269.296 141.336C269.168 140.92 269.072 140.568 268.72 139.24L266.736 131.8H265.024L263.104 138.52L262.304 141.336C262.208 140.936 262.096 140.456 261.648 138.472L260.144 131.8H258.64L261.248 143ZM275 143H276.36V139.64C276.36 138.472 276.408 136.056 278.584 136.056C279.64 136.056 280.328 136.664 280.328 138.152V143H281.688V137.832C281.688 136.072 280.824 134.856 279.016 134.856C277.144 134.856 276.472 136.072 276.36 136.424V134.76V131.8H275V143ZM284.218 133.528H285.658V131.8H284.218V133.528ZM284.266 143H285.626V135.08H284.266V143ZM291.465 143.224C293.241 143.224 294.393 142.184 294.905 140.712L293.625 140.264C293.369 141.128 292.777 142.024 291.465 142.024C290.153 142.024 289.129 141.064 289.129 139.032C289.129 137.048 290.185 136.056 291.449 136.056C292.601 136.056 293.177 136.808 293.433 137.56L294.697 137.144C294.329 135.912 293.241 134.856 291.449 134.856C289.257 134.856 287.705 136.584 287.705 139.032C287.705 141.592 289.177 143.224 291.465 143.224ZM296.719 143H298.079V139.64C298.079 138.472 298.127 136.056 300.303 136.056C301.359 136.056 302.047 136.664 302.047 138.152V143H303.407V137.832C303.407 136.072 302.543 134.856 300.735 134.856C298.863 134.856 298.191 136.072 298.079 136.424V134.76V131.8H296.719V143ZM310.125 143H311.485V131.8H310.125V143ZM317.228 143.224C319.308 143.224 320.908 141.432 320.908 139.048C320.908 136.664 319.372 134.856 317.228 134.856C315.084 134.856 313.548 136.664 313.548 139.048C313.548 141.432 315.148 143.224 317.228 143.224ZM317.228 142.024C315.884 142.024 314.956 141.064 314.956 139.064C314.956 137.064 315.884 136.056 317.228 136.056C318.572 136.056 319.5 137.064 319.5 139.064C319.5 141.064 318.572 142.024 317.228 142.024ZM326.121 143.224C327.897 143.224 329.049 142.184 329.561 140.712L328.281 140.264C328.025 141.128 327.433 142.024 326.121 142.024C324.809 142.024 323.785 141.064 323.785 139.032C323.785 137.048 324.841 136.056 326.105 136.056C327.257 136.056 327.833 136.808 328.089 137.56L329.353 137.144C328.985 135.912 327.897 134.856 326.105 134.856C323.913 134.856 322.361 136.584 322.361 139.032C322.361 141.592 323.833 143.224 326.121 143.224ZM333.999 143.224C335.391 143.224 336.159 142.456 336.543 141.784V143H337.871V135.08H336.511V136.312C336.127 135.64 335.391 134.856 333.999 134.856C332.175 134.856 330.783 136.44 330.783 139.048C330.783 141.656 332.175 143.224 333.999 143.224ZM334.351 142.024C333.087 142.024 332.175 141.272 332.175 139.064C332.175 136.856 333.087 136.056 334.351 136.056C335.647 136.056 336.591 137.064 336.591 139.064C336.591 141.064 335.647 142.024 334.351 142.024ZM343.315 143H345.139V141.8H343.491C342.931 141.8 342.691 141.56 342.691 141V136.232H344.851V135.08H342.691V132.6H341.331V135.08H339.491V136.232H341.331V141.08C341.331 142.392 342.003 143 343.315 143ZM346.812 133.528H348.252V131.8H346.812V133.528ZM346.86 143H348.22V135.08H346.86V143ZM353.963 143.224C356.043 143.224 357.642 141.432 357.642 139.048C357.642 136.664 356.107 134.856 353.963 134.856C351.819 134.856 350.283 136.664 350.283 139.048C350.283 141.432 351.883 143.224 353.963 143.224ZM353.963 142.024C352.619 142.024 351.691 141.064 351.691 139.064C351.691 137.064 352.619 136.056 353.963 136.056C355.307 136.056 356.235 137.064 356.235 139.064C356.235 141.064 355.307 142.024 353.963 142.024ZM359.703 143H361.063V139.64C361.063 138.472 361.111 136.056 363.287 136.056C364.343 136.056 365.031 136.664 365.031 138.152V143H366.391V137.832C366.391 136.072 365.591 134.856 363.623 134.856C361.911 134.856 361.143 136.072 361.031 136.424V135.08H359.703V143ZM375.734 143.224C377.126 143.224 377.894 142.456 378.278 141.784V143H379.606V131.8H378.246V134.76V136.312C377.862 135.64 377.126 134.856 375.734 134.856C373.91 134.856 372.518 136.44 372.518 139.048C372.518 141.656 373.91 143.224 375.734 143.224ZM376.086 142.024C374.822 142.024 373.91 141.272 373.91 139.064C373.91 136.856 374.822 136.056 376.086 136.056C377.382 136.056 378.326 137.064 378.326 139.064C378.326 141.064 377.382 142.024 376.086 142.024ZM385.353 143.224C387.433 143.224 389.033 141.432 389.033 139.048C389.033 136.664 387.497 134.856 385.353 134.856C383.209 134.856 381.673 136.664 381.673 139.048C381.673 141.432 383.273 143.224 385.353 143.224ZM385.353 142.024C384.009 142.024 383.081 141.064 383.081 139.064C383.081 137.064 384.009 136.056 385.353 136.056C386.697 136.056 387.625 137.064 387.625 139.064C387.625 141.064 386.697 142.024 385.353 142.024ZM399.737 135.08L398.297 139.416C397.977 140.376 397.881 140.664 397.737 141.128C397.577 140.712 397.449 140.392 396.953 139.192L395.257 135.08H393.721L397.145 142.904L396.697 144.168C396.489 144.76 396.137 144.872 395.609 144.872H394.105V146.12H395.609C397.001 146.12 397.577 145.656 398.105 144.088L401.177 135.08H399.737ZM405.884 143.224C407.964 143.224 409.564 141.432 409.564 139.048C409.564 136.664 408.028 134.856 405.884 134.856C403.74 134.856 402.204 136.664 402.204 139.048C402.204 141.432 403.804 143.224 405.884 143.224ZM405.884 142.024C404.54 142.024 403.612 141.064 403.612 139.064C403.612 137.064 404.54 136.056 405.884 136.056C407.228 136.056 408.156 137.064 408.156 139.064C408.156 141.064 407.228 142.024 405.884 142.024ZM414.153 143.224C415.801 143.224 416.553 142.056 416.793 141.624V143H418.121V135.08H416.761V138.44C416.761 139.656 416.729 142.024 414.585 142.024C413.545 142.024 412.873 141.416 412.873 139.928V135.08H411.513V140.248C411.513 142.008 412.297 143.224 414.153 143.224ZM426.367 143H427.903L429.151 139.096C429.631 137.592 429.791 137.096 429.951 136.616L430.735 139.096L431.951 143H433.535L436.223 135.08H434.783L433.535 139.032C433.071 140.488 432.863 141.128 432.735 141.496L432.111 139.464L430.751 135.08H429.183L427.951 139.032L427.183 141.496C427.055 141.064 426.895 140.552 426.415 139.032L425.183 135.08H423.759L426.367 143ZM440.546 143.224C441.938 143.224 442.706 142.456 443.09 141.784V143H444.418V135.08H443.058V136.312C442.674 135.64 441.938 134.856 440.546 134.856C438.722 134.856 437.33 136.44 437.33 139.048C437.33 141.656 438.722 143.224 440.546 143.224ZM440.898 142.024C439.634 142.024 438.722 141.272 438.722 139.064C438.722 136.856 439.634 136.056 440.898 136.056C442.194 136.056 443.138 137.064 443.138 139.064C443.138 141.064 442.194 142.024 440.898 142.024ZM447.11 143H448.47V139.64C448.47 138.472 448.518 136.056 450.694 136.056C451.75 136.056 452.438 136.664 452.438 138.152V143H453.798V137.832C453.798 136.072 452.998 134.856 451.03 134.856C449.318 134.856 448.55 136.072 448.438 136.424V135.08H447.11V143ZM459.127 143H460.951V141.8H459.303C458.743 141.8 458.503 141.56 458.503 141V136.232H460.663V135.08H458.503V132.6H457.143V135.08H455.303V136.232H457.143V141.08C457.143 142.392 457.815 143 459.127 143ZM471.316 135.08L469.876 139.416C469.556 140.376 469.46 140.664 469.316 141.128C469.156 140.712 469.028 140.392 468.532 139.192L466.836 135.08H465.3L468.724 142.904L468.276 144.168C468.068 144.76 467.716 144.872 467.188 144.872H465.684V146.12H467.188C468.58 146.12 469.156 145.656 469.684 144.088L472.756 135.08H471.316ZM477.463 143.224C479.543 143.224 481.142 141.432 481.142 139.048C481.142 136.664 479.607 134.856 477.463 134.856C475.319 134.856 473.783 136.664 473.783 139.048C473.783 141.432 475.383 143.224 477.463 143.224ZM477.463 142.024C476.119 142.024 475.191 141.064 475.191 139.064C475.191 137.064 476.119 136.056 477.463 136.056C478.807 136.056 479.735 137.064 479.735 139.064C479.735 141.064 478.807 142.024 477.463 142.024ZM485.731 143.224C487.379 143.224 488.131 142.056 488.371 141.624V143H489.699V135.08H488.339V138.44C488.339 139.656 488.307 142.024 486.163 142.024C485.123 142.024 484.451 141.416 484.451 139.928V135.08H483.091V140.248C483.091 142.008 483.875 143.224 485.731 143.224ZM492.391 143H493.751V139.368C493.751 137.512 494.487 136.376 496.279 136.376C496.599 136.376 496.871 136.408 497.127 136.456V135.064C496.935 135.016 496.695 134.968 496.311 134.968C494.807 134.968 493.991 136.136 493.735 136.728V135.08H492.391V143ZM505.062 143.224C506.454 143.224 507.222 142.456 507.606 141.784V143H508.934V131.8H507.574V134.76V136.312C507.19 135.64 506.454 134.856 505.062 134.856C503.238 134.856 501.846 136.44 501.846 139.048C501.846 141.656 503.238 143.224 505.062 143.224ZM505.414 142.024C504.15 142.024 503.238 141.272 503.238 139.064C503.238 136.856 504.15 136.056 505.414 136.056C506.71 136.056 507.654 137.064 507.654 139.064C507.654 141.064 506.71 142.024 505.414 142.024ZM514.681 143.224C516.761 143.224 518.361 141.432 518.361 139.048C518.361 136.664 516.825 134.856 514.681 134.856C512.537 134.856 511.001 136.664 511.001 139.048C511.001 141.432 512.601 143.224 514.681 143.224ZM514.681 142.024C513.337 142.024 512.409 141.064 512.409 139.064C512.409 137.064 513.337 136.056 514.681 136.056C516.025 136.056 516.953 137.064 516.953 139.064C516.953 141.064 516.025 142.024 514.681 142.024ZM520.422 143H521.782V139.64C521.782 138.472 521.83 136.056 524.006 136.056C525.062 136.056 525.75 136.664 525.75 138.152V143H527.11V137.832C527.11 136.072 526.31 134.856 524.342 134.856C522.63 134.856 521.862 136.072 521.75 136.424V135.08H520.422V143ZM532.216 143.224C533.864 143.224 534.616 142.056 534.856 141.624V143H536.184V135.08H534.824V138.44C534.824 139.656 534.792 142.024 532.648 142.024C531.608 142.024 530.936 141.416 530.936 139.928V135.08H529.576V140.248C529.576 142.008 530.36 143.224 532.216 143.224ZM541.627 143H543.451V141.8H541.803C541.243 141.8 541.003 141.56 541.003 141V136.232H543.163V135.08H541.003V132.6H539.643V135.08H537.803V136.232H539.643V141.08C539.643 142.392 540.315 143 541.627 143ZM547.844 143.224C549.844 143.224 550.996 142.28 550.996 140.792C550.996 138.984 549.124 138.504 548.324 138.344L547.412 138.168C546.276 137.944 546.02 137.624 546.02 137.096C546.02 136.52 546.532 135.976 547.636 135.976C548.98 135.976 549.428 136.824 549.62 137.352L550.852 136.904C550.532 135.864 549.604 134.856 547.636 134.856C546.084 134.856 544.74 135.816 544.74 137.24C544.74 138.744 545.892 139.24 547.204 139.496L548.116 139.672C549.268 139.896 549.636 140.312 549.636 140.904C549.636 141.656 548.996 142.056 547.844 142.056C546.596 142.056 545.956 141.464 545.716 140.52L544.404 140.952C544.756 142.472 546.228 143.224 547.844 143.224ZM559.844 143.224C561.844 143.224 562.996 142.28 562.996 140.792C562.996 138.984 561.124 138.504 560.324 138.344L559.412 138.168C558.276 137.944 558.02 137.624 558.02 137.096C558.02 136.52 558.532 135.976 559.636 135.976C560.98 135.976 561.428 136.824 561.62 137.352L562.852 136.904C562.532 135.864 561.604 134.856 559.636 134.856C558.084 134.856 556.74 135.816 556.74 137.24C556.74 138.744 557.892 139.24 559.204 139.496L560.116 139.672C561.268 139.896 561.636 140.312 561.636 140.904C561.636 141.656 560.996 142.056 559.844 142.056C558.596 142.056 557.956 141.464 557.716 140.52L556.404 140.952C556.756 142.472 558.228 143.224 559.844 143.224ZM568.024 143.224C569.512 143.224 570.84 142.552 571.432 140.936L570.184 140.504C569.976 141.016 569.416 142.04 568.072 142.04C566.968 142.04 565.864 141.4 565.784 139.4H571.368C571.672 136.808 570.248 134.856 567.944 134.856C565.928 134.856 564.44 136.472 564.44 139.08C564.44 141.768 565.864 143.224 568.024 143.224ZM565.816 138.264C565.928 136.824 566.904 135.976 567.944 135.976C569.032 135.976 569.976 136.76 569.976 138.264H565.816ZM573.547 143H574.907V139.64C574.907 138.472 574.955 136.056 577.131 136.056C578.187 136.056 578.875 136.664 578.875 138.152V143H580.235V137.832C580.235 136.072 579.435 134.856 577.467 134.856C575.755 134.856 574.987 136.072 574.875 136.424V135.08H573.547V143ZM585.437 143.224C586.829 143.224 587.597 142.456 587.981 141.784V143H589.309V131.8H587.949V134.76V136.312C587.565 135.64 586.829 134.856 585.437 134.856C583.613 134.856 582.221 136.44 582.221 139.048C582.221 141.656 583.613 143.224 585.437 143.224ZM585.789 142.024C584.525 142.024 583.613 141.272 583.613 139.064C583.613 136.856 584.525 136.056 585.789 136.056C587.085 136.056 588.029 137.064 588.029 139.064C588.029 141.064 587.085 142.024 585.789 142.024ZM598.612 143H600.436V141.8H598.788C598.228 141.8 597.988 141.56 597.988 141V136.232H600.148V135.08H597.988V132.6H596.628V135.08H594.788V136.232H596.628V141.08C596.628 142.392 597.3 143 598.612 143ZM605.134 143.224C607.214 143.224 608.814 141.432 608.814 139.048C608.814 136.664 607.278 134.856 605.134 134.856C602.99 134.856 601.454 136.664 601.454 139.048C601.454 141.432 603.054 143.224 605.134 143.224ZM605.134 142.024C603.79 142.024 602.862 141.064 602.862 139.064C602.862 137.064 603.79 136.056 605.134 136.056C606.478 136.056 607.406 137.064 607.406 139.064C607.406 141.064 606.478 142.024 605.134 142.024ZM612.319 139.528H613.679C613.679 138.776 613.839 138.392 614.655 137.704C615.951 136.616 616.559 135.752 616.559 134.584C616.559 132.664 615.007 131.592 613.279 131.592C611.247 131.592 609.919 132.808 609.919 135.048L611.311 135.272C611.311 133.688 612.047 132.872 613.279 132.872C614.351 132.872 615.087 133.528 615.087 134.6C615.087 135.544 614.447 136.12 613.695 136.76C612.879 137.464 612.319 138.088 612.319 139.528ZM612.047 143H613.967V141H612.047V143Z" fill="#1D1D21"/>
<path d="M259.456 194H267.568V192.176H261.536V182.8H259.456V194ZM272.374 194.24C274.694 194.24 276.39 192.544 276.39 190.016C276.39 187.52 274.71 185.792 272.374 185.792C270.038 185.792 268.358 187.52 268.358 190.016C268.358 192.448 270.054 194.24 272.374 194.24ZM272.374 192.656C271.19 192.656 270.374 191.824 270.374 190.048C270.374 188.272 271.19 187.376 272.374 187.376C273.558 187.376 274.358 188.272 274.358 190.048C274.358 191.824 273.558 192.656 272.374 192.656ZM281.736 194.24C283.592 194.24 284.936 193.216 285.512 191.696L283.672 191.04C283.352 192.016 282.776 192.656 281.704 192.656C280.568 192.656 279.624 191.792 279.624 190C279.624 188.24 280.552 187.376 281.688 187.376C282.632 187.376 283.256 187.952 283.56 188.8L285.352 188.16C284.888 186.832 283.624 185.792 281.736 185.792C279.4 185.792 277.64 187.472 277.64 190C277.64 192.576 279.336 194.24 281.736 194.24ZM289.123 194.24C290.467 194.24 291.315 193.568 291.795 192.816C291.891 193.52 292.243 194 293.251 194H294.755V192.464H294.003C293.587 192.464 293.523 192.368 293.523 191.984V188.768C293.523 186.816 292.323 185.792 290.131 185.792C287.891 185.792 286.643 186.96 286.451 188.144L288.259 188.608C288.451 187.904 288.947 187.28 290.131 187.28C291.155 187.28 291.603 187.744 291.603 188.528V188.8C288.963 189.04 286.579 189.728 286.579 191.952C286.579 193.36 287.635 194.24 289.123 194.24ZM289.763 192.768C288.963 192.768 288.563 192.368 288.563 191.76C288.563 190.624 289.955 190.272 291.603 190.08V190.72C291.603 192.144 290.707 192.768 289.763 192.768ZM298.719 194H301.087V192.4H299.391C298.879 192.4 298.655 192.176 298.655 191.664V187.552H300.767V186.032H298.655V183.52H296.703V186.032H294.975V187.552H296.703V191.968C296.703 193.232 297.423 194 298.719 194ZM302.557 184.768H304.637V182.784H302.557V184.768ZM302.637 194H304.573V186.032H302.637V194ZM310.374 194.24C312.694 194.24 314.39 192.544 314.39 190.016C314.39 187.52 312.71 185.792 310.374 185.792C308.038 185.792 306.358 187.52 306.358 190.016C306.358 192.448 308.054 194.24 310.374 194.24ZM310.374 192.656C309.19 192.656 308.374 191.824 308.374 190.048C308.374 188.272 309.19 187.376 310.374 187.376C311.558 187.376 312.358 188.272 312.358 190.048C312.358 191.824 311.558 192.656 310.374 192.656ZM316.2 194H318.152V190.368C318.152 189.392 318.184 187.424 319.976 187.424C320.856 187.424 321.416 187.936 321.416 189.136V194H323.368V188.704C323.368 186.96 322.584 185.792 320.68 185.792C319.128 185.792 318.36 186.832 318.104 187.296V186.032H316.2V194ZM328.597 194.224C330.821 194.224 332.117 193.216 332.117 191.664C332.117 190.032 330.645 189.424 329.381 189.184L328.357 188.976C327.397 188.8 327.141 188.544 327.141 188.096C327.141 187.616 327.573 187.2 328.453 187.2C329.445 187.2 329.973 187.808 330.197 188.416L331.845 187.712C331.509 186.816 330.517 185.792 328.517 185.792C326.597 185.792 325.285 186.784 325.285 188.272C325.285 189.824 326.309 190.352 327.861 190.656L328.917 190.864C329.861 191.056 330.101 191.408 330.101 191.856C330.101 192.416 329.605 192.784 328.677 192.784C327.237 192.784 326.853 191.808 326.757 191.36L324.949 191.936C325.301 193.392 326.805 194.224 328.597 194.224Z" fill="#1D1D21"/>
<circle cx="266" cy="227" r="7" fill="#1662DD" stroke="#1662DD" stroke-width="2"/>
<circle cx="266" cy="227" r="2" fill="white" stroke="white" stroke-width="2"/>
<path d="M287.442 232H288.702V227.52H294.022V232H295.282V222.2H294.022V226.33H288.702V222.2H287.442V232ZM300.459 232.196C302.279 232.196 303.679 230.628 303.679 228.542C303.679 226.456 302.335 224.874 300.459 224.874C298.583 224.874 297.239 226.456 297.239 228.542C297.239 230.628 298.639 232.196 300.459 232.196ZM300.459 231.146C299.283 231.146 298.471 230.306 298.471 228.556C298.471 226.806 299.283 225.924 300.459 225.924C301.635 225.924 302.447 226.806 302.447 228.556C302.447 230.306 301.635 231.146 300.459 231.146ZM305.483 232H306.673V228.78C306.673 227.786 306.757 225.938 308.451 225.938C309.375 225.938 309.991 226.414 309.991 227.758V232H311.153V228.78C311.153 227.786 311.195 225.938 312.945 225.938C313.869 225.938 314.471 226.414 314.471 227.758V232H315.661V227.408C315.661 225.798 314.821 224.874 313.239 224.874C311.769 224.874 311.153 225.784 310.915 226.358C310.565 225.42 309.753 224.874 308.731 224.874C307.485 224.874 306.897 225.672 306.645 226.12V225.07H305.483V232ZM320.528 232.196C321.83 232.196 322.992 231.608 323.51 230.194L322.418 229.816C322.236 230.264 321.746 231.16 320.57 231.16C319.604 231.16 318.638 230.6 318.568 228.85H323.454C323.72 226.582 322.474 224.874 320.458 224.874C318.694 224.874 317.392 226.288 317.392 228.57C317.392 230.922 318.638 232.196 320.528 232.196ZM318.596 227.856C318.694 226.596 319.548 225.854 320.458 225.854C321.41 225.854 322.236 226.54 322.236 227.856H318.596ZM325.152 226.82H326.832V225.07H325.152V226.82ZM325.152 232H326.832V230.25H325.152V232ZM333.252 232H334.694C334.694 228.724 335.282 226.204 338.362 223.586V222.2H331.782V223.39H335.114H337.214C334.652 225.504 333.252 228.402 333.252 232ZM342.883 232H344.129V229.284H345.557V228.192H344.129V222.2H342.183L338.305 228.066V229.284H342.883V232ZM342.883 228.192H341.441H339.579L342.883 223.194V225.336V228.192ZM346.929 232H353.383V230.81H350.555H348.385C350.079 229.732 351.339 228.808 352.179 227.842C352.865 227.044 353.257 226.12 353.257 225.042C353.257 223.306 352.067 222.004 350.065 222.004C348.119 222.004 346.845 223.278 346.845 225.182L348.133 225.35C348.133 223.88 349.043 223.166 350.065 223.166C351.073 223.166 351.913 223.852 351.913 225.182C351.913 227.282 349.365 229.046 346.929 230.586V232ZM359.233 232H366.065V230.81H360.493V227.506H364.609V226.33H360.493V223.39H366.065V222.2H359.233V232ZM368.996 232H370.48L372.72 225.07H371.502L370.312 229.06L369.752 230.908C369.654 230.586 369.402 229.76 369.178 229.06L367.932 225.07H366.686L368.996 232ZM376.857 232.196C378.159 232.196 379.321 231.608 379.839 230.194L378.747 229.816C378.565 230.264 378.075 231.16 376.899 231.16C375.933 231.16 374.967 230.6 374.897 228.85H379.783C380.049 226.582 378.803 224.874 376.787 224.874C375.023 224.874 373.721 226.288 373.721 228.57C373.721 230.922 374.967 232.196 376.857 232.196ZM374.925 227.856C375.023 226.596 375.877 225.854 376.787 225.854C377.739 225.854 378.565 226.54 378.565 227.856H374.925ZM381.69 232H382.88V228.822C382.88 227.198 383.524 226.204 385.092 226.204C385.372 226.204 385.61 226.232 385.834 226.274V225.056C385.666 225.014 385.456 224.972 385.12 224.972C383.804 224.972 383.09 225.994 382.866 226.512V225.07H381.69V232ZM388.278 234.73H391.512C392.688 234.73 393.682 234.114 393.682 232.826C393.682 231.664 392.814 230.908 391.484 230.908H388.46C387.97 230.908 387.872 230.656 387.872 230.432C387.872 230.18 388.124 229.914 388.502 229.746C388.88 229.97 389.314 230.012 389.79 230.012C391.33 230.012 392.38 228.99 392.492 227.422L392.52 227.044C392.576 226.232 392.814 226.078 393.444 226.078H393.976V225.07H393.234C392.562 225.07 392.24 225.532 392.1 226.064C391.806 225.574 391.078 224.874 389.79 224.874C388.194 224.874 387.032 226.008 387.032 227.45C387.032 228.318 387.41 228.948 387.802 229.298C387.354 229.62 386.78 230.082 386.78 230.768C386.78 231.314 387.004 231.636 387.396 231.874C386.976 232.112 386.472 232.63 386.472 233.33C386.472 234.142 386.948 234.73 388.278 234.73ZM389.79 229.032C388.852 229.032 388.236 228.402 388.236 227.45C388.236 226.498 388.852 225.854 389.79 225.854C390.728 225.854 391.344 226.498 391.344 227.45C391.344 228.402 390.728 229.032 389.79 229.032ZM388.684 233.666C387.956 233.666 387.564 233.512 387.564 232.938C387.564 232.462 387.872 232.154 388.11 232H391.386C391.932 232 392.478 232.112 392.478 232.826C392.478 233.54 391.932 233.666 391.386 233.666H388.684ZM395.375 232H396.565V228.822C396.565 227.198 397.209 226.204 398.777 226.204C399.057 226.204 399.295 226.232 399.519 226.274V225.056C399.351 225.014 399.141 224.972 398.805 224.972C397.489 224.972 396.775 225.994 396.551 226.512V225.07H395.375V232ZM403.435 232.196C404.737 232.196 405.899 231.608 406.417 230.194L405.325 229.816C405.143 230.264 404.653 231.16 403.477 231.16C402.511 231.16 401.545 230.6 401.475 228.85H406.361C406.627 226.582 405.381 224.874 403.365 224.874C401.601 224.874 400.299 226.288 400.299 228.57C400.299 230.922 401.545 232.196 403.435 232.196ZM401.503 227.856C401.601 226.596 402.455 225.854 403.365 225.854C404.317 225.854 405.143 226.54 405.143 227.856H401.503ZM410.886 232.196C412.188 232.196 413.35 231.608 413.868 230.194L412.776 229.816C412.594 230.264 412.104 231.16 410.928 231.16C409.962 231.16 408.996 230.6 408.926 228.85H413.812C414.078 226.582 412.832 224.874 410.816 224.874C409.052 224.874 407.75 226.288 407.75 228.57C407.75 230.922 408.996 232.196 410.886 232.196ZM408.954 227.856C409.052 226.596 409.906 225.854 410.816 225.854C411.768 225.854 412.594 226.54 412.594 227.856H408.954ZM415.719 232H416.909V229.06C416.909 228.038 416.951 225.924 418.855 225.924C419.779 225.924 420.381 226.456 420.381 227.758V232H421.571V227.478C421.571 225.938 420.871 224.874 419.149 224.874C417.651 224.874 416.979 225.938 416.881 226.246V225.07H415.719V232ZM429.394 232H430.654V223.39H434.28V222.2H425.908V223.39H429.394V232ZM436.685 232.196C437.987 232.196 439.149 231.608 439.667 230.194L438.575 229.816C438.393 230.264 437.903 231.16 436.727 231.16C435.761 231.16 434.795 230.6 434.725 228.85H439.611C439.877 226.582 438.631 224.874 436.615 224.874C434.851 224.874 433.549 226.288 433.549 228.57C433.549 230.922 434.795 232.196 436.685 232.196ZM434.753 227.856C434.851 226.596 435.705 225.854 436.615 225.854C437.567 225.854 438.393 226.54 438.393 227.856H434.753ZM441.518 232H442.708V228.822C442.708 227.198 443.352 226.204 444.92 226.204C445.2 226.204 445.438 226.232 445.662 226.274V225.056C445.494 225.014 445.284 224.972 444.948 224.972C443.632 224.972 442.918 225.994 442.694 226.512V225.07H441.518V232ZM447.069 232H448.259V228.822C448.259 227.198 448.903 226.204 450.471 226.204C450.751 226.204 450.989 226.232 451.213 226.274V225.056C451.045 225.014 450.835 224.972 450.499 224.972C449.183 224.972 448.469 225.994 448.245 226.512V225.07H447.069V232ZM454.357 232.196C455.435 232.196 456.093 231.734 456.611 230.95C456.695 231.524 456.849 232 457.899 232H458.809V230.95H458.081C457.759 230.95 457.675 230.866 457.675 230.544V227.254C457.675 225.826 456.821 224.874 454.973 224.874C453.167 224.874 452.215 225.854 451.963 226.778L453.125 227.198C453.307 226.68 453.685 225.924 454.959 225.924C456.023 225.924 456.485 226.428 456.485 227.268V227.464C454.231 227.646 452.117 228.304 452.117 230.208C452.117 231.44 452.985 232.196 454.357 232.196ZM454.637 231.188C453.769 231.188 453.349 230.768 453.349 230.11C453.349 228.976 454.791 228.542 456.485 228.36V229.13C456.485 230.572 455.547 231.188 454.637 231.188ZM462.842 232.196C464.396 232.196 465.404 231.286 465.852 229.998L464.732 229.606C464.508 230.362 463.99 231.146 462.842 231.146C461.694 231.146 460.798 230.306 460.798 228.528C460.798 226.792 461.722 225.924 462.828 225.924C463.836 225.924 464.34 226.582 464.564 227.24L465.67 226.876C465.348 225.798 464.396 224.874 462.828 224.874C460.91 224.874 459.552 226.386 459.552 228.528C459.552 230.768 460.84 232.196 462.842 232.196ZM470.058 232.196C471.36 232.196 472.522 231.608 473.04 230.194L471.948 229.816C471.766 230.264 471.276 231.16 470.1 231.16C469.134 231.16 468.168 230.6 468.098 228.85H472.984C473.25 226.582 472.004 224.874 469.988 224.874C468.224 224.874 466.922 226.288 466.922 228.57C466.922 230.922 468.168 232.196 470.058 232.196ZM468.126 227.856C468.224 226.596 469.078 225.854 469.988 225.854C470.94 225.854 471.766 226.54 471.766 227.856H468.126Z" fill="#1D1D21"/>
<circle cx="266" cy="257" r="7" fill="white" stroke="#8C8C96" stroke-width="2"/>
<path d="M288.842 262H290.55L292.3 255.896C292.678 254.594 292.79 254.188 292.874 253.866L293.42 255.896L295.058 262H296.738L299.244 252.2H297.928L296.528 257.968C296.066 259.858 295.982 260.18 295.884 260.544C295.772 260.18 295.688 259.872 295.38 258.71L293.644 252.2H292.146L290.466 258.08L289.766 260.544C289.682 260.194 289.584 259.774 289.192 258.038L287.876 252.2H286.56L288.842 262ZM303.207 262.196C305.027 262.196 306.427 260.628 306.427 258.542C306.427 256.456 305.083 254.874 303.207 254.874C301.331 254.874 299.987 256.456 299.987 258.542C299.987 260.628 301.387 262.196 303.207 262.196ZM303.207 261.146C302.031 261.146 301.219 260.306 301.219 258.556C301.219 256.806 302.031 255.924 303.207 255.924C304.383 255.924 305.195 256.806 305.195 258.556C305.195 260.306 304.383 261.146 303.207 261.146ZM308.231 262H309.421V258.822C309.421 257.198 310.065 256.204 311.633 256.204C311.913 256.204 312.151 256.232 312.375 256.274V255.056C312.207 255.014 311.997 254.972 311.661 254.972C310.345 254.972 309.631 255.994 309.407 256.512V255.07H308.231V262ZM318.919 262H320.445L317.113 257.968L320.235 255.07H318.653L314.971 258.64V256.372V252.2H313.781V262H314.971V259.956L316.287 258.752L318.919 262ZM321.46 256.82H323.14V255.07H321.46V256.82ZM321.46 262H323.14V260.25H321.46V262ZM332.123 262.196C334.391 262.196 335.637 260.978 335.637 259.27C335.637 257.786 334.517 256.876 332.949 256.512L331.577 256.19C330.471 255.924 329.967 255.532 329.967 254.692C329.967 253.81 330.695 253.18 331.899 253.18C333.495 253.18 334.069 254.244 334.279 254.846L335.483 254.258C335.203 253.348 334.139 252.004 332.053 252.004C330.065 252.004 328.721 253.166 328.721 254.762C328.721 256.4 329.729 257.114 331.185 257.45L332.501 257.758C333.719 258.038 334.321 258.528 334.321 259.382C334.321 260.362 333.551 261.02 332.207 261.02C330.667 261.02 329.855 260.082 329.463 258.934L328.231 259.536C328.707 261.062 330.037 262.196 332.123 262.196ZM337.447 264.73H338.637V262.28V260.922C338.973 261.51 339.617 262.196 340.835 262.196C342.431 262.196 343.649 260.81 343.649 258.528C343.649 256.246 342.431 254.874 340.835 254.874C339.617 254.874 338.945 255.546 338.609 256.134V255.07H337.447V264.73ZM340.527 261.146C339.393 261.146 338.567 260.264 338.567 258.514C338.567 256.764 339.393 255.924 340.527 255.924C341.633 255.924 342.431 256.582 342.431 258.514C342.431 260.446 341.633 261.146 340.527 261.146ZM345.487 262H346.677V258.822C346.677 257.198 347.321 256.204 348.889 256.204C349.169 256.204 349.407 256.232 349.631 256.274V255.056C349.463 255.014 349.253 254.972 348.917 254.972C347.601 254.972 346.887 255.994 346.663 256.512V255.07H345.487V262ZM350.995 253.712H352.255V252.2H350.995V253.712ZM351.037 262H352.227V255.07H351.037V262ZM354.578 262H355.768V259.06C355.768 258.038 355.81 255.924 357.714 255.924C358.638 255.924 359.24 256.456 359.24 257.758V262H360.43V257.478C360.43 255.938 359.73 254.874 358.008 254.874C356.51 254.874 355.838 255.938 355.74 256.246V255.07H354.578V262ZM363.806 264.73H367.04C368.216 264.73 369.21 264.114 369.21 262.826C369.21 261.664 368.342 260.908 367.012 260.908H363.988C363.498 260.908 363.4 260.656 363.4 260.432C363.4 260.18 363.652 259.914 364.03 259.746C364.408 259.97 364.842 260.012 365.318 260.012C366.858 260.012 367.908 258.99 368.02 257.422L368.048 257.044C368.104 256.232 368.342 256.078 368.972 256.078H369.504V255.07H368.762C368.09 255.07 367.768 255.532 367.628 256.064C367.334 255.574 366.606 254.874 365.318 254.874C363.722 254.874 362.56 256.008 362.56 257.45C362.56 258.318 362.938 258.948 363.33 259.298C362.882 259.62 362.308 260.082 362.308 260.768C362.308 261.314 362.532 261.636 362.924 261.874C362.504 262.112 362 262.63 362 263.33C362 264.142 362.476 264.73 363.806 264.73ZM365.318 259.032C364.38 259.032 363.764 258.402 363.764 257.45C363.764 256.498 364.38 255.854 365.318 255.854C366.256 255.854 366.872 256.498 366.872 257.45C366.872 258.402 366.256 259.032 365.318 259.032ZM364.212 263.666C363.484 263.666 363.092 263.512 363.092 262.938C363.092 262.462 363.4 262.154 363.638 262H366.914C367.46 262 368.006 262.112 368.006 262.826C368.006 263.54 367.46 263.666 366.914 263.666H364.212ZM377.203 255.07H372.723V253.95C372.723 253.46 372.933 253.25 373.423 253.25H374.795V252.2H373.283C372.135 252.2 371.533 252.746 371.533 254.034V255.07H369.993V256.078H371.533V262H372.723V256.078H376.013V262H377.203V255.07ZM375.971 252.2V253.712H377.231V252.2H375.971ZM382.175 262.196C383.477 262.196 384.639 261.608 385.157 260.194L384.065 259.816C383.883 260.264 383.393 261.16 382.217 261.16C381.251 261.16 380.285 260.6 380.215 258.85H385.101C385.367 256.582 384.121 254.874 382.105 254.874C380.341 254.874 379.039 256.288 379.039 258.57C379.039 260.922 380.285 262.196 382.175 262.196ZM380.243 257.856C380.341 256.596 381.195 255.854 382.105 255.854C383.057 255.854 383.883 256.54 383.883 257.856H380.243ZM387.008 262H388.198V252.2H387.008V262ZM392.845 262.196C394.063 262.196 394.735 261.524 395.071 260.936V262H396.233V252.2H395.043V254.79V256.148C394.707 255.56 394.063 254.874 392.845 254.874C391.249 254.874 390.031 256.26 390.031 258.542C390.031 260.824 391.249 262.196 392.845 262.196ZM393.153 261.146C392.047 261.146 391.249 260.488 391.249 258.556C391.249 256.624 392.047 255.924 393.153 255.924C394.287 255.924 395.113 256.806 395.113 258.556C395.113 260.306 394.287 261.146 393.153 261.146ZM402.477 262H403.737V256.246V253.768L409.547 262H410.821V252.2H409.561V257.674V259.858L404.157 252.2H402.477V262ZM415.579 262.196C417.021 262.196 417.679 261.174 417.889 260.796V262H419.051V255.07H417.861V258.01C417.861 259.074 417.833 261.146 415.957 261.146C415.047 261.146 414.459 260.614 414.459 259.312V255.07H413.269V259.592C413.269 261.132 413.955 262.196 415.579 262.196ZM424.164 262.196C425.718 262.196 426.726 261.286 427.174 259.998L426.054 259.606C425.83 260.362 425.312 261.146 424.164 261.146C423.016 261.146 422.12 260.306 422.12 258.528C422.12 256.792 423.044 255.924 424.15 255.924C425.158 255.924 425.662 256.582 425.886 257.24L426.992 256.876C426.67 255.798 425.718 254.874 424.15 254.874C422.232 254.874 420.874 256.386 420.874 258.528C420.874 260.768 422.162 262.196 424.164 262.196ZM428.762 262H429.952V252.2H428.762V262ZM434.921 262.196C436.223 262.196 437.385 261.608 437.903 260.194L436.811 259.816C436.629 260.264 436.139 261.16 434.963 261.16C433.997 261.16 433.031 260.6 432.961 258.85H437.847C438.113 256.582 436.867 254.874 434.851 254.874C433.087 254.874 431.785 256.288 431.785 258.57C431.785 260.922 433.031 262.196 434.921 262.196ZM432.989 257.856C433.087 256.596 433.941 255.854 434.851 255.854C435.803 255.854 436.629 256.54 436.629 257.856H432.989ZM441.546 262.196C442.624 262.196 443.282 261.734 443.8 260.95C443.884 261.524 444.038 262 445.088 262H445.998V260.95H445.27C444.948 260.95 444.864 260.866 444.864 260.544V257.254C444.864 255.826 444.01 254.874 442.162 254.874C440.356 254.874 439.404 255.854 439.152 256.778L440.314 257.198C440.496 256.68 440.874 255.924 442.148 255.924C443.212 255.924 443.674 256.428 443.674 257.268V257.464C441.42 257.646 439.306 258.304 439.306 260.208C439.306 261.44 440.174 262.196 441.546 262.196ZM441.826 261.188C440.958 261.188 440.538 260.768 440.538 260.11C440.538 258.976 441.98 258.542 443.674 258.36V259.13C443.674 260.572 442.736 261.188 441.826 261.188ZM447.274 262H448.464V258.822C448.464 257.198 449.108 256.204 450.676 256.204C450.956 256.204 451.194 256.232 451.418 256.274V255.056C451.25 255.014 451.04 254.972 450.704 254.972C449.388 254.972 448.674 255.994 448.45 256.512V255.07H447.274V262ZM456.331 262H457.591V258.108H460.209C462.281 258.108 463.443 256.89 463.443 255.154C463.443 253.418 462.295 252.2 460.223 252.2H456.331V262ZM457.591 256.988V253.39H459.985C461.455 253.39 462.113 254.118 462.113 255.154C462.113 256.19 461.427 256.988 459.985 256.988H457.591ZM467.598 262.196C469.418 262.196 470.818 260.628 470.818 258.542C470.818 256.456 469.474 254.874 467.598 254.874C465.722 254.874 464.378 256.456 464.378 258.542C464.378 260.628 465.778 262.196 467.598 262.196ZM467.598 261.146C466.422 261.146 465.61 260.306 465.61 258.556C465.61 256.806 466.422 255.924 467.598 255.924C468.774 255.924 469.586 256.806 469.586 258.556C469.586 260.306 468.774 261.146 467.598 261.146ZM474.077 262H475.421L476.513 258.584C476.933 257.268 477.073 256.834 477.213 256.414L477.899 258.584L478.963 262H480.349L482.701 255.07H481.441L480.349 258.528C479.943 259.802 479.761 260.362 479.649 260.684L479.103 258.906L477.913 255.07H476.541L475.463 258.528L474.791 260.684C474.679 260.306 474.539 259.858 474.119 258.528L473.041 255.07H471.795L474.077 262ZM486.806 262.196C488.108 262.196 489.27 261.608 489.788 260.194L488.696 259.816C488.514 260.264 488.024 261.16 486.848 261.16C485.882 261.16 484.916 260.6 484.846 258.85H489.732C489.998 256.582 488.752 254.874 486.736 254.874C484.972 254.874 483.67 256.288 483.67 258.57C483.67 260.922 484.916 262.196 486.806 262.196ZM484.874 257.856C484.972 256.596 485.826 255.854 486.736 255.854C487.688 255.854 488.514 256.54 488.514 257.856H484.874ZM491.639 262H492.829V258.822C492.829 257.198 493.473 256.204 495.041 256.204C495.321 256.204 495.559 256.232 495.783 256.274V255.056C495.615 255.014 495.405 254.972 495.069 254.972C493.753 254.972 493.039 255.994 492.815 256.512V255.07H491.639V262ZM500.696 262H501.956V258.108H504.574C506.646 258.108 507.808 256.89 507.808 255.154C507.808 253.418 506.66 252.2 504.588 252.2H500.696V262ZM501.956 256.988V253.39H504.35C505.82 253.39 506.478 254.118 506.478 255.154C506.478 256.19 505.792 256.988 504.35 256.988H501.956ZM509.426 262H510.616V252.2H509.426V262ZM514.759 262.196C515.837 262.196 516.495 261.734 517.013 260.95C517.097 261.524 517.251 262 518.301 262H519.211V260.95H518.483C518.161 260.95 518.077 260.866 518.077 260.544V257.254C518.077 255.826 517.223 254.874 515.375 254.874C513.569 254.874 512.617 255.854 512.365 256.778L513.527 257.198C513.709 256.68 514.087 255.924 515.361 255.924C516.425 255.924 516.887 256.428 516.887 257.268V257.464C514.633 257.646 512.519 258.304 512.519 260.208C512.519 261.44 513.387 262.196 514.759 262.196ZM515.039 261.188C514.171 261.188 513.751 260.768 513.751 260.11C513.751 258.976 515.193 258.542 516.887 258.36V259.13C516.887 260.572 515.949 261.188 515.039 261.188ZM520.487 262H521.677V259.06C521.677 258.038 521.719 255.924 523.623 255.924C524.547 255.924 525.149 256.456 525.149 257.758V262H526.339V257.478C526.339 255.938 525.639 254.874 523.917 254.874C522.419 254.874 521.747 255.938 521.649 256.246V255.07H520.487V262ZM531.002 262H532.598V260.95H531.156C530.666 260.95 530.456 260.74 530.456 260.25V256.078H532.346V255.07H530.456V252.9H529.266V255.07H527.656V256.078H529.266V260.32C529.266 261.468 529.854 262 531.002 262Z" fill="#1D1D21"/>
<rect width="16" height="24" transform="translate(258 293)" fill="white"/>
<rect x="259" y="298" width="14" height="14" rx="3" fill="#1662DD" stroke="#1662DD" stroke-width="2"/>
<path d="M259.911 305.295L259.824 305.383L259.912 305.471L264.021 309.588L264.109 309.677L264.198 309.588L272.088 301.706L272.177 301.617L272.088 301.528L270.955 300.411L270.867 300.324L270.779 300.412L264.109 307.073L261.206 304.169L261.117 304.081L261.028 304.17L259.911 305.295Z" fill="white" stroke="white" stroke-width="0.25"/>
<path d="M287.442 310H288.702V305.898H290.774C292.118 305.898 292.79 306.36 293.014 307.634L293.434 310H294.82L294.316 307.522C294.078 306.374 293.658 305.702 292.328 305.478C293.616 305.212 294.638 304.344 294.638 302.874C294.638 301.39 293.518 300.2 291.502 300.2H287.442V310ZM288.702 304.722V301.39H291.334C292.468 301.39 293.308 301.908 293.308 303.056C293.308 304.204 292.468 304.722 291.334 304.722H288.702ZM299.269 310.196C300.571 310.196 301.733 309.608 302.251 308.194L301.159 307.816C300.977 308.264 300.487 309.16 299.311 309.16C298.345 309.16 297.379 308.6 297.309 306.85H302.195C302.461 304.582 301.215 302.874 299.199 302.874C297.435 302.874 296.133 304.288 296.133 306.57C296.133 308.922 297.379 310.196 299.269 310.196ZM297.337 305.856C297.435 304.596 298.289 303.854 299.199 303.854C300.151 303.854 300.977 304.54 300.977 305.856H297.337ZM304.102 310H305.292V306.78C305.292 305.786 305.376 303.938 307.07 303.938C307.994 303.938 308.61 304.414 308.61 305.758V310H309.772V306.78C309.772 305.786 309.814 303.938 311.564 303.938C312.488 303.938 313.09 304.414 313.09 305.758V310H314.28V305.408C314.28 303.798 313.44 302.874 311.858 302.874C310.388 302.874 309.772 303.784 309.534 304.358C309.184 303.42 308.372 302.874 307.35 302.874C306.104 302.874 305.516 303.672 305.264 304.12V303.07H304.102V310ZM319.148 310.196C320.45 310.196 321.612 309.608 322.13 308.194L321.038 307.816C320.856 308.264 320.366 309.16 319.19 309.16C318.224 309.16 317.258 308.6 317.188 306.85H322.074C322.34 304.582 321.094 302.874 319.078 302.874C317.314 302.874 316.012 304.288 316.012 306.57C316.012 308.922 317.258 310.196 319.148 310.196ZM317.216 305.856C317.314 304.596 318.168 303.854 319.078 303.854C320.03 303.854 320.856 304.54 320.856 305.856H317.216ZM323.981 310H325.171V306.78C325.171 305.786 325.255 303.938 326.949 303.938C327.873 303.938 328.489 304.414 328.489 305.758V310H329.651V306.78C329.651 305.786 329.693 303.938 331.443 303.938C332.367 303.938 332.969 304.414 332.969 305.758V310H334.159V305.408C334.159 303.798 333.319 302.874 331.737 302.874C330.267 302.874 329.651 303.784 329.413 304.358C329.063 303.42 328.251 302.874 327.229 302.874C325.983 302.874 325.395 303.672 325.143 304.12V303.07H323.981V310ZM339.796 310.196C341.392 310.196 342.61 308.81 342.61 306.528C342.61 304.246 341.392 302.874 339.796 302.874C338.578 302.874 337.934 303.546 337.598 304.134V302.79V300.2H336.408V310H337.57V308.922C337.906 309.51 338.578 310.196 339.796 310.196ZM339.488 309.146C338.354 309.146 337.528 308.264 337.528 306.514C337.528 304.764 338.354 303.924 339.488 303.924C340.594 303.924 341.392 304.582 341.392 306.514C341.392 308.446 340.594 309.146 339.488 309.146ZM347.065 310.196C348.367 310.196 349.529 309.608 350.047 308.194L348.955 307.816C348.773 308.264 348.283 309.16 347.107 309.16C346.141 309.16 345.175 308.6 345.105 306.85H349.991C350.257 304.582 349.011 302.874 346.995 302.874C345.231 302.874 343.929 304.288 343.929 306.57C343.929 308.922 345.175 310.196 347.065 310.196ZM345.133 305.856C345.231 304.596 346.085 303.854 346.995 303.854C347.947 303.854 348.773 304.54 348.773 305.856H345.133ZM351.899 310H353.089V306.822C353.089 305.198 353.733 304.204 355.301 304.204C355.581 304.204 355.819 304.232 356.043 304.274V303.056C355.875 303.014 355.665 302.972 355.329 302.972C354.013 302.972 353.299 303.994 353.075 304.512V303.07H351.899V310ZM360.69 310H361.88V306.78C361.88 305.786 361.964 303.938 363.658 303.938C364.582 303.938 365.198 304.414 365.198 305.758V310H366.36V306.78C366.36 305.786 366.402 303.938 368.152 303.938C369.076 303.938 369.678 304.414 369.678 305.758V310H370.868V305.408C370.868 303.798 370.028 302.874 368.446 302.874C366.976 302.874 366.36 303.784 366.122 304.358C365.772 303.42 364.96 302.874 363.938 302.874C362.692 302.874 362.104 303.672 361.852 304.12V303.07H360.69V310ZM377.303 303.07L376.043 306.864C375.763 307.704 375.679 307.956 375.553 308.362C375.413 307.998 375.301 307.718 374.867 306.668L373.383 303.07H372.039L375.035 309.916L374.643 311.022C374.461 311.54 374.153 311.638 373.691 311.638H372.375V312.73H373.691C374.909 312.73 375.413 312.324 375.875 310.952L378.563 303.07H377.303ZM386.252 310.196C387.806 310.196 388.814 309.286 389.262 307.998L388.142 307.606C387.918 308.362 387.4 309.146 386.252 309.146C385.104 309.146 384.208 308.306 384.208 306.528C384.208 304.792 385.132 303.924 386.238 303.924C387.246 303.924 387.75 304.582 387.974 305.24L389.08 304.876C388.758 303.798 387.806 302.874 386.238 302.874C384.32 302.874 382.962 304.386 382.962 306.528C382.962 308.768 384.25 310.196 386.252 310.196ZM390.85 310H392.04V307.06C392.04 306.038 392.082 303.924 393.986 303.924C394.91 303.924 395.512 304.456 395.512 305.758V310H396.702V305.478C396.702 303.938 395.946 302.874 394.364 302.874C392.726 302.874 392.138 303.938 392.04 304.246V302.79V300.2H390.85V310ZM401.631 310.196C403.451 310.196 404.851 308.628 404.851 306.542C404.851 304.456 403.507 302.874 401.631 302.874C399.755 302.874 398.411 304.456 398.411 306.542C398.411 308.628 399.811 310.196 401.631 310.196ZM401.631 309.146C400.455 309.146 399.643 308.306 399.643 306.556C399.643 304.806 400.455 303.924 401.631 303.924C402.807 303.924 403.619 304.806 403.619 306.556C403.619 308.306 402.807 309.146 401.631 309.146ZM406.613 301.712H407.873V300.2H406.613V301.712ZM406.655 310H407.845V303.07H406.655V310ZM412.954 310.196C414.508 310.196 415.516 309.286 415.964 307.998L414.844 307.606C414.62 308.362 414.102 309.146 412.954 309.146C411.806 309.146 410.91 308.306 410.91 306.528C410.91 304.792 411.834 303.924 412.94 303.924C413.948 303.924 414.452 304.582 414.676 305.24L415.782 304.876C415.46 303.798 414.508 302.874 412.94 302.874C411.022 302.874 409.664 304.386 409.664 306.528C409.664 308.768 410.952 310.196 412.954 310.196ZM420.169 310.196C421.471 310.196 422.633 309.608 423.151 308.194L422.059 307.816C421.877 308.264 421.387 309.16 420.211 309.16C419.245 309.16 418.279 308.6 418.209 306.85H423.095C423.361 304.582 422.115 302.874 420.099 302.874C418.335 302.874 417.033 304.288 417.033 306.57C417.033 308.922 418.279 310.196 420.169 310.196ZM418.237 305.856C418.335 304.596 419.189 303.854 420.099 303.854C421.051 303.854 421.877 304.54 421.877 305.856H418.237ZM429.036 310H430.226V304.078H432.046V303.07H430.226V301.95C430.226 301.46 430.436 301.25 430.926 301.25H432.298V300.2H430.786C429.638 300.2 429.036 300.746 429.036 302.034V303.07H427.496V304.078H429.036V310ZM436.043 310.196C437.863 310.196 439.263 308.628 439.263 306.542C439.263 304.456 437.919 302.874 436.043 302.874C434.167 302.874 432.823 304.456 432.823 306.542C432.823 308.628 434.223 310.196 436.043 310.196ZM436.043 309.146C434.867 309.146 434.055 308.306 434.055 306.556C434.055 304.806 434.867 303.924 436.043 303.924C437.219 303.924 438.031 304.806 438.031 306.556C438.031 308.306 437.219 309.146 436.043 309.146ZM441.067 310H442.257V306.822C442.257 305.198 442.901 304.204 444.469 304.204C444.749 304.204 444.987 304.232 445.211 304.274V303.056C445.043 303.014 444.833 302.972 444.497 302.972C443.181 302.972 442.467 303.994 442.243 304.512V303.07H441.067V310ZM449.858 310H451.048V307.06C451.048 306.038 451.09 303.924 452.994 303.924C453.918 303.924 454.52 304.456 454.52 305.758V310H455.71V305.478C455.71 303.938 455.01 302.874 453.288 302.874C451.79 302.874 451.118 303.938 451.02 304.246V303.07H449.858V310ZM460.583 310.196C461.885 310.196 463.047 309.608 463.565 308.194L462.473 307.816C462.291 308.264 461.801 309.16 460.625 309.16C459.659 309.16 458.693 308.6 458.623 306.85H463.509C463.775 304.582 462.529 302.874 460.513 302.874C458.749 302.874 457.447 304.288 457.447 306.57C457.447 308.922 458.693 310.196 460.583 310.196ZM458.651 305.856C458.749 304.596 459.603 303.854 460.513 303.854C461.465 303.854 462.291 304.54 462.291 305.856H458.651ZM464.438 310H465.74L466.622 308.684L467.504 307.354C467.7 307.662 467.854 307.9 468.372 308.684L469.24 310H470.668L468.26 306.472L470.528 303.07H469.212L468.456 304.26C467.924 305.086 467.756 305.338 467.56 305.618C467.392 305.338 467.238 305.086 466.72 304.26L465.964 303.07H464.578L466.818 306.458L464.438 310ZM474.523 310H476.119V308.95H474.677C474.187 308.95 473.977 308.74 473.977 308.25V304.078H475.867V303.07H473.977V300.9H472.787V303.07H471.177V304.078H472.787V308.32C472.787 309.468 473.375 310 474.523 310ZM483.41 310H485.006V308.95H483.564C483.074 308.95 482.864 308.74 482.864 308.25V304.078H484.754V303.07H482.864V300.9H481.674V303.07H480.064V304.078H481.674V308.32C481.674 309.468 482.262 310 483.41 310ZM486.47 301.712H487.73V300.2H486.47V301.712ZM486.512 310H487.702V303.07H486.512V310ZM490.053 310H491.243V306.78C491.243 305.786 491.327 303.938 493.021 303.938C493.945 303.938 494.561 304.414 494.561 305.758V310H495.723V306.78C495.723 305.786 495.765 303.938 497.515 303.938C498.439 303.938 499.041 304.414 499.041 305.758V310H500.231V305.408C500.231 303.798 499.391 302.874 497.809 302.874C496.339 302.874 495.723 303.784 495.485 304.358C495.135 303.42 494.323 302.874 493.301 302.874C492.055 302.874 491.467 303.672 491.215 304.12V303.07H490.053V310ZM505.099 310.196C506.401 310.196 507.563 309.608 508.081 308.194L506.989 307.816C506.807 308.264 506.317 309.16 505.141 309.16C504.175 309.16 503.209 308.6 503.139 306.85H508.025C508.291 304.582 507.045 302.874 505.029 302.874C503.265 302.874 501.963 304.288 501.963 306.57C501.963 308.922 503.209 310.196 505.099 310.196ZM503.167 305.856C503.265 304.596 504.119 303.854 505.029 303.854C505.981 303.854 506.807 304.54 506.807 305.856H503.167Z" fill="#1D1D21"/>
<path d="M556 353C556 350.791 557.791 349 560 349H622C624.209 349 626 350.791 626 353V383C626 385.209 624.209 387 622 387H560C557.791 387 556 385.209 556 383V353Z" fill="white"/>
<path d="M573.638 373.21C576.018 373.21 577.474 371.978 578.09 370.2L576.438 369.542C576.032 370.718 575.22 371.642 573.638 371.642C571.762 371.642 570.6 370.27 570.6 368.058C570.6 365.832 571.776 364.544 573.638 364.544C575.234 364.544 576.018 365.552 576.382 366.602L578.076 365.958C577.6 364.376 576.074 362.99 573.652 362.99C570.698 362.99 568.682 365.188 568.682 368.058C568.682 370.984 570.572 373.21 573.638 373.21ZM581.353 373.21C582.529 373.21 583.271 372.622 583.691 371.964C583.775 372.58 584.083 373 584.965 373H586.281V371.656H585.623C585.259 371.656 585.203 371.572 585.203 371.236V368.422C585.203 366.714 584.153 365.818 582.235 365.818C580.275 365.818 579.183 366.84 579.015 367.876L580.597 368.282C580.765 367.666 581.199 367.12 582.235 367.12C583.131 367.12 583.523 367.526 583.523 368.212V368.45C581.213 368.66 579.127 369.262 579.127 371.208C579.127 372.44 580.051 373.21 581.353 373.21ZM581.913 371.922C581.213 371.922 580.863 371.572 580.863 371.04C580.863 370.046 582.081 369.738 583.523 369.57V370.13C583.523 371.376 582.739 371.922 581.913 371.922ZM587.394 373H589.102V369.822C589.102 368.968 589.13 367.246 590.698 367.246C591.468 367.246 591.958 367.694 591.958 368.744V373H593.666V368.366C593.666 366.84 592.98 365.818 591.314 365.818C589.956 365.818 589.284 366.728 589.06 367.134V366.028H587.394V373ZM598.76 373.21C600.384 373.21 601.56 372.314 602.064 370.984L600.454 370.41C600.174 371.264 599.67 371.824 598.732 371.824C597.738 371.824 596.912 371.068 596.912 369.5C596.912 367.96 597.724 367.204 598.718 367.204C599.544 367.204 600.09 367.708 600.356 368.45L601.924 367.89C601.518 366.728 600.412 365.818 598.76 365.818C596.716 365.818 595.176 367.288 595.176 369.5C595.176 371.754 596.66 373.21 598.76 373.21ZM606.344 373.21C608.178 373.21 609.158 372.258 609.606 371.18L608.066 370.606C607.814 371.194 607.352 371.866 606.358 371.866C605.462 371.866 604.706 371.348 604.636 369.934H609.564C609.788 367.624 608.542 365.818 606.316 365.818C604.384 365.818 602.942 367.288 602.942 369.514C602.942 371.838 604.286 373.21 606.344 373.21ZM604.692 368.674C604.818 367.666 605.476 367.092 606.316 367.092C607.198 367.092 607.814 367.652 607.87 368.674H604.692ZM611.211 373H612.919V363.2H611.211V373Z" fill="#1662DD"/>
<path d="M642 353C642 350.791 643.791 349 646 349H696C698.209 349 700 350.791 700 353V383C700 385.209 698.209 387 696 387H646C643.791 387 642 385.209 642 383V353Z" fill="#1662DD"/>
<path d="M658.792 373.21C661.452 373.21 662.698 371.866 662.698 370.186C662.698 368.492 661.396 367.554 659.534 367.246L658.26 367.022C657.35 366.854 656.874 366.476 656.874 365.804C656.874 365.104 657.406 364.502 658.638 364.502C660.01 364.502 660.626 365.328 660.892 366.126L662.586 365.468C662.208 364.278 661.046 362.99 658.694 362.99C656.342 362.99 655.012 364.306 655.012 365.888C655.012 367.638 656.146 368.45 657.882 368.744L659.128 368.954C660.318 369.164 660.808 369.612 660.808 370.312C660.808 371.11 660.192 371.698 658.82 371.698C657.28 371.698 656.51 370.704 656.244 369.668L654.522 370.326C654.928 371.894 656.286 373.21 658.792 373.21ZM667.292 373.21C669.126 373.21 670.106 372.258 670.554 371.18L669.014 370.606C668.762 371.194 668.3 371.866 667.306 371.866C666.41 371.866 665.654 371.348 665.584 369.934H670.512C670.736 367.624 669.49 365.818 667.264 365.818C665.332 365.818 663.89 367.288 663.89 369.514C663.89 371.838 665.234 373.21 667.292 373.21ZM665.64 368.674C665.766 367.666 666.424 367.092 667.264 367.092C668.146 367.092 668.762 367.652 668.818 368.674H665.64ZM672.159 373H673.867V369.822C673.867 368.968 673.895 367.246 675.463 367.246C676.233 367.246 676.723 367.694 676.723 368.744V373H678.431V368.366C678.431 366.84 677.745 365.818 676.079 365.818C674.721 365.818 674.049 366.728 673.825 367.134V366.028H672.159V373ZM682.923 373.21C684.127 373.21 684.883 372.538 685.205 372.02V373H686.871V363.2H685.163V365.748V367.008C684.841 366.49 684.113 365.818 682.923 365.818C681.159 365.818 679.969 367.274 679.969 369.514C679.969 371.754 681.159 373.21 682.923 373.21ZM683.483 371.866C682.489 371.866 681.747 371.264 681.747 369.514C681.747 367.778 682.489 367.162 683.483 367.162C684.519 367.162 685.247 367.946 685.247 369.514C685.247 371.096 684.519 371.866 683.483 371.866Z" fill="white"/>
<path d="M149 294C148.448 294 148 294.448 148 295C148 295.552 148.448 296 149 296L149 294ZM173.707 295.707C174.098 295.317 174.098 294.683 173.707 294.293L167.343 287.929C166.953 287.538 166.319 287.538 165.929 287.929C165.538 288.319 165.538 288.953 165.929 289.343L171.586 295L165.929 300.657C165.538 301.047 165.538 301.681 165.929 302.071C166.319 302.462 166.953 302.462 167.343 302.071L173.707 295.707ZM149 296L173 296L173 294L149 294L149 296Z" fill="#DA372C"/>
<path d="M81 296C81.5523 296 82 295.552 82 295C82 294.448 81.5523 294 81 294L81 296ZM56.2929 294.293C55.9024 294.683 55.9024 295.317 56.2929 295.707L62.6569 302.071C63.0474 302.462 63.6805 302.462 64.0711 302.071C64.4616 301.681 64.4616 301.047 64.0711 300.657L58.4142 295L64.0711 289.343C64.4616 288.953 64.4616 288.319 64.0711 287.929C63.6805 287.538 63.0474 287.538 62.6569 287.929L56.2929 294.293ZM81 294L57 294L57 296L81 296L81 294Z" fill="#DA372C"/>
<path d="M114 275C114 275.552 114.448 276 115 276C115.552 276 116 275.552 116 275L114 275ZM115.707 250.293C115.317 249.902 114.683 249.902 114.293 250.293L107.929 256.657C107.538 257.047 107.538 257.681 107.929 258.071C108.319 258.462 108.953 258.462 109.343 258.071L115 252.414L120.657 258.071C121.047 258.462 121.681 258.462 122.071 258.071C122.462 257.681 122.462 257.047 122.071 256.657L115.707 250.293ZM116 275L116 251L114 251L114 275L116 275Z" fill="#DA372C"/>
<path d="M114 314C114 313.448 114.448 313 115 313C115.552 313 116 313.448 116 314L114 314ZM115.707 338.707C115.317 339.098 114.683 339.098 114.293 338.707L107.929 332.343C107.538 331.953 107.538 331.319 107.929 330.929C108.319 330.538 108.953 330.538 109.343 330.929L115 336.586L120.657 330.929C121.047 330.538 121.681 330.538 122.071 330.929C122.462 331.319 122.462 331.953 122.071 332.343L115.707 338.707ZM116 314L116 338L114 338L114 314L116 314Z" fill="#DA372C"/>
<path d="M93.2716 300.224C96.0396 300.224 97.6556 298.608 98.1516 296.816L96.6956 296.272C96.2796 297.616 95.4796 298.864 93.2716 298.864C90.9516 298.864 89.3996 296.976 89.3996 294.272C89.3996 291.568 90.9676 289.936 93.2716 289.936C95.5276 289.936 96.3596 291.472 96.6476 292.384L98.1356 291.872C97.6876 290.384 96.1676 288.576 93.2716 288.576C90.0396 288.576 87.8476 291.04 87.8476 294.288C87.8476 297.536 89.7676 300.224 93.2716 300.224ZM102.622 300.224C104.27 300.224 105.022 299.056 105.262 298.624V300H106.59V292.08H105.23V295.44C105.23 296.656 105.198 299.024 103.054 299.024C102.014 299.024 101.342 298.416 101.342 296.928V292.08H99.982V297.248C99.982 299.008 100.766 300.224 102.622 300.224ZM109.282 300H110.642V296.368C110.642 294.512 111.378 293.376 113.17 293.376C113.49 293.376 113.762 293.408 114.018 293.456V292.064C113.826 292.016 113.586 291.968 113.202 291.968C111.698 291.968 110.882 293.136 110.626 293.728V292.08H109.282V300ZM118.377 300H120.201V298.8H118.553C117.993 298.8 117.753 298.56 117.753 298V293.232H119.913V292.08H117.753V289.6H116.393V292.08H114.553V293.232H116.393V298.08C116.393 299.392 117.065 300 118.377 300ZM124.468 300.224C125.86 300.224 126.628 299.456 127.012 298.784V300H128.34V292.08H126.98V293.312C126.596 292.64 125.86 291.856 124.468 291.856C122.644 291.856 121.252 293.44 121.252 296.048C121.252 298.656 122.644 300.224 124.468 300.224ZM124.82 299.024C123.556 299.024 122.644 298.272 122.644 296.064C122.644 293.856 123.556 293.056 124.82 293.056C126.116 293.056 127.06 294.064 127.06 296.064C127.06 298.064 126.116 299.024 124.82 299.024ZM130.984 290.528H132.424V288.8H130.984V290.528ZM131.032 300H132.392V292.08H131.032V300ZM135.078 300H136.438V296.64C136.438 295.472 136.486 293.056 138.662 293.056C139.718 293.056 140.406 293.664 140.406 295.152V300H141.766V294.832C141.766 293.072 140.966 291.856 138.998 291.856C137.286 291.856 136.518 293.072 136.406 293.424V292.08H135.078V300Z" fill="#1D1D21"/>
<path d="M802 229C802.552 229 803 228.552 803 228C803 227.448 802.552 227 802 227V229ZM508.293 227.293C507.902 227.683 507.902 228.317 508.293 228.707L514.657 235.071C515.047 235.462 515.681 235.462 516.071 235.071C516.462 234.681 516.462 234.047 516.071 233.657L510.414 228L516.071 222.343C516.462 221.953 516.462 221.319 516.071 220.929C515.681 220.538 515.047 220.538 514.657 220.929L508.293 227.293ZM802 227L509 227V229L802 229V227Z" fill="#DA372C"/>
<path d="M802 282C802.552 282 803 281.552 803 281C803 280.448 802.552 280 802 280V282ZM697.293 280.293C696.902 280.683 696.902 281.317 697.293 281.707L703.657 288.071C704.047 288.462 704.681 288.462 705.071 288.071C705.462 287.681 705.462 287.047 705.071 286.657L699.414 281L705.071 275.343C705.462 274.953 705.462 274.319 705.071 273.929C704.681 273.538 704.047 273.538 703.657 273.929L697.293 280.293ZM802 280L698 280V282L802 282V280Z" fill="#DA372C"/>
<path d="M802 370C802.552 370 803 369.552 803 369C803 368.448 802.552 368 802 368V370ZM708.293 368.293C707.902 368.683 707.902 369.317 708.293 369.707L714.657 376.071C715.047 376.462 715.681 376.462 716.071 376.071C716.462 375.681 716.462 375.047 716.071 374.657L710.414 369L716.071 363.343C716.462 362.953 716.462 362.319 716.071 361.929C715.681 361.538 715.047 361.538 714.657 361.929L708.293 368.293ZM802 368L709 368V370L802 370V368Z" fill="#DA372C"/>
<path d="M186 103C185.448 103 185 103.448 185 104C185 104.552 185.448 105 186 105L186 103ZM249.707 104.707C250.098 104.317 250.098 103.683 249.707 103.293L243.343 96.9289C242.953 96.5384 242.319 96.5384 241.929 96.9289C241.538 97.3195 241.538 97.9526 241.929 98.3431L247.586 104L241.929 109.657C241.538 110.047 241.538 110.681 241.929 111.071C242.319 111.462 242.953 111.462 243.343 111.071L249.707 104.707ZM186 105L249 105L249 103L186 103L186 105Z" fill="#DA372C"/>
<path d="M44.7221 109H46.1621V99.16H50.3061V97.8H40.7381V99.16H44.7221V109ZM51.7648 99.528H53.2048V97.8H51.7648V99.528ZM51.8128 109H53.1728V101.08H51.8128V109ZM58.6116 109H60.4356V107.8H58.7876C58.2276 107.8 57.9876 107.56 57.9876 107V102.232H60.1476V101.08H57.9876V98.6H56.6276V101.08H54.7876V102.232H56.6276V107.08C56.6276 108.392 57.2996 109 58.6116 109ZM62.1565 109H63.5165V97.8H62.1565V109ZM69.1954 109.224C70.6834 109.224 72.0114 108.552 72.6034 106.936L71.3554 106.504C71.1474 107.016 70.5874 108.04 69.2434 108.04C68.1394 108.04 67.0354 107.4 66.9554 105.4H72.5394C72.8434 102.808 71.4194 100.856 69.1154 100.856C67.0994 100.856 65.6114 102.472 65.6114 105.08C65.6114 107.768 67.0354 109.224 69.1954 109.224ZM66.9874 104.264C67.0994 102.824 68.0754 101.976 69.1154 101.976C70.2034 101.976 71.1474 102.76 71.1474 104.264H66.9874ZM81.8036 109.224C83.1476 109.224 84.1876 108.744 84.9716 107.992C85.7396 108.488 86.5236 108.904 87.2916 109.208L87.7876 108.056C87.0836 107.768 86.4116 107.416 85.7716 107.016C86.3156 106.168 86.6836 105.176 86.9236 104.152L85.5956 103.768C85.4196 104.648 85.1156 105.544 84.6836 106.264C83.9956 105.736 83.3716 105.176 82.8276 104.568C82.4916 104.184 82.1716 103.784 81.9156 103.384C83.9316 102.28 84.7476 101.432 84.7476 99.96C84.7476 98.648 83.7876 97.576 82.1876 97.576C80.6516 97.576 79.5316 98.6 79.5316 100.392C79.5316 101.24 79.7876 102.136 80.2356 103.016C78.9396 103.816 78.2516 104.824 78.2516 106.152C78.2516 107.848 79.5636 109.224 81.8036 109.224ZM81.3396 102.376C81.0036 101.688 80.8276 101 80.8276 100.36C80.8276 99.336 81.2916 98.696 82.1556 98.696C83.0676 98.696 83.4356 99.352 83.4356 99.928C83.4356 100.568 83.1636 101.304 81.8836 102.056L81.3396 102.376ZM81.8996 108.024C80.5396 108.024 79.6596 107.144 79.6596 106.008C79.6596 105.208 80.1876 104.504 80.8596 104.04C81.1796 104.472 81.5156 104.92 81.8356 105.288C82.5396 106.104 83.1476 106.648 83.8996 107.224C83.3556 107.736 82.6836 108.024 81.8996 108.024ZM96.0774 109.224C97.4694 109.224 98.2374 108.456 98.6214 107.784V109H99.9494V97.8H98.5894V100.76V102.312C98.2054 101.64 97.4694 100.856 96.0774 100.856C94.2534 100.856 92.8614 102.44 92.8614 105.048C92.8614 107.656 94.2534 109.224 96.0774 109.224ZM96.4294 108.024C95.1654 108.024 94.2534 107.272 94.2534 105.064C94.2534 102.856 95.1654 102.056 96.4294 102.056C97.7254 102.056 98.6694 103.064 98.6694 105.064C98.6694 107.064 97.7254 108.024 96.4294 108.024ZM105.633 109.224C107.121 109.224 108.449 108.552 109.041 106.936L107.793 106.504C107.585 107.016 107.025 108.04 105.681 108.04C104.577 108.04 103.473 107.4 103.393 105.4H108.977C109.281 102.808 107.857 100.856 105.553 100.856C103.537 100.856 102.049 102.472 102.049 105.08C102.049 107.768 103.473 109.224 105.633 109.224ZM103.425 104.264C103.537 102.824 104.513 101.976 105.553 101.976C106.641 101.976 107.585 102.76 107.585 104.264H103.425ZM113.829 109.224C115.829 109.224 116.981 108.28 116.981 106.792C116.981 104.984 115.109 104.504 114.309 104.344L113.397 104.168C112.261 103.944 112.005 103.624 112.005 103.096C112.005 102.52 112.517 101.976 113.621 101.976C114.965 101.976 115.413 102.824 115.605 103.352L116.837 102.904C116.517 101.864 115.589 100.856 113.621 100.856C112.069 100.856 110.725 101.816 110.725 103.24C110.725 104.744 111.877 105.24 113.189 105.496L114.101 105.672C115.253 105.896 115.621 106.312 115.621 106.904C115.621 107.656 114.981 108.056 113.829 108.056C112.581 108.056 111.941 107.464 111.701 106.52L110.389 106.952C110.741 108.472 112.213 109.224 113.829 109.224ZM122.168 109.224C123.944 109.224 125.096 108.184 125.608 106.712L124.328 106.264C124.072 107.128 123.48 108.024 122.168 108.024C120.856 108.024 119.832 107.064 119.832 105.032C119.832 103.048 120.888 102.056 122.152 102.056C123.304 102.056 123.88 102.808 124.136 103.56L125.4 103.144C125.032 101.912 123.944 100.856 122.152 100.856C119.96 100.856 118.408 102.584 118.408 105.032C118.408 107.592 119.88 109.224 122.168 109.224ZM127.422 109H128.782V105.368C128.782 103.512 129.518 102.376 131.31 102.376C131.63 102.376 131.902 102.408 132.158 102.456V101.064C131.966 101.016 131.726 100.968 131.342 100.968C129.838 100.968 129.022 102.136 128.766 102.728V101.08H127.422V109ZM133.718 99.528H135.158V97.8H133.718V99.528ZM133.766 109H135.126V101.08H133.766V109ZM137.813 112.12H139.173V109.32V107.768C139.557 108.44 140.293 109.224 141.685 109.224C143.509 109.224 144.901 107.64 144.901 105.032C144.901 102.424 143.509 100.856 141.685 100.856C140.293 100.856 139.525 101.624 139.141 102.296V101.08H137.813V112.12ZM141.333 108.024C140.037 108.024 139.093 107.016 139.093 105.016C139.093 103.016 140.037 102.056 141.333 102.056C142.597 102.056 143.509 102.808 143.509 105.016C143.509 107.224 142.597 108.024 141.333 108.024ZM149.69 109H151.514V107.8H149.866C149.306 107.8 149.066 107.56 149.066 107V102.232H151.226V101.08H149.066V98.6H147.706V101.08H145.866V102.232H147.706V107.08C147.706 108.392 148.378 109 149.69 109ZM153.187 99.528H154.627V97.8H153.187V99.528ZM153.235 109H154.595V101.08H153.235V109ZM160.338 109.224C162.418 109.224 164.017 107.432 164.017 105.048C164.017 102.664 162.482 100.856 160.338 100.856C158.194 100.856 156.658 102.664 156.658 105.048C156.658 107.432 158.258 109.224 160.338 109.224ZM160.338 108.024C158.994 108.024 158.066 107.064 158.066 105.064C158.066 103.064 158.994 102.056 160.338 102.056C161.682 102.056 162.61 103.064 162.61 105.064C162.61 107.064 161.682 108.024 160.338 108.024ZM166.078 109H167.438V105.64C167.438 104.472 167.486 102.056 169.662 102.056C170.718 102.056 171.406 102.664 171.406 104.152V109H172.766V103.832C172.766 102.072 171.966 100.856 169.998 100.856C168.286 100.856 167.518 102.072 167.406 102.424V101.08H166.078V109Z" fill="#1D1D21"/>
</svg>
