<svg width="958" height="346" viewBox="0 0 958 346" fill="none" xmlns="http://www.w3.org/2000/svg">
<rect width="958" height="346" rx="8" fill="white"/>
<rect x="220" y="114" width="518" height="117" rx="4" fill="#FFDFE2"/>
<path fill-rule="evenodd" clip-rule="evenodd" d="M249.058 157.461L234.961 171.558C234.441 172.078 234.441 172.922 234.961 173.442L249.058 187.539C249.578 188.059 250.421 188.059 250.941 187.539L265.038 173.442C265.558 172.922 265.558 172.078 265.038 171.558L250.941 157.461C250.421 156.941 249.578 156.941 249.058 157.461ZM247.428 162.214H252.571V175.071H247.428V162.214ZM252.571 180.214C252.571 181.634 251.42 182.786 250 182.786C248.58 182.786 247.428 181.634 247.428 180.214C247.428 178.794 248.58 177.643 250 177.643C251.42 177.643 252.571 178.794 252.571 180.214Z" fill="#1D1D21"/>
<path d="M284.554 148H286.894V137.398H291.34V135.4H280.18V137.398H284.554V148ZM294.783 148.27C297.393 148.27 299.301 146.362 299.301 143.518C299.301 140.71 297.411 138.766 294.783 138.766C292.155 138.766 290.265 140.71 290.265 143.518C290.265 146.254 292.173 148.27 294.783 148.27ZM294.783 146.488C293.451 146.488 292.533 145.552 292.533 143.554C292.533 141.556 293.451 140.548 294.783 140.548C296.115 140.548 297.015 141.556 297.015 143.554C297.015 145.552 296.115 146.488 294.783 146.488ZM305.224 148.27C307.834 148.27 309.742 146.362 309.742 143.518C309.742 140.71 307.852 138.766 305.224 138.766C302.596 138.766 300.706 140.71 300.706 143.518C300.706 146.254 302.614 148.27 305.224 148.27ZM305.224 146.488C303.892 146.488 302.974 145.552 302.974 143.554C302.974 141.556 303.892 140.548 305.224 140.548C306.556 140.548 307.456 141.556 307.456 143.554C307.456 145.552 306.556 146.488 305.224 146.488ZM316.172 148H318.368V143.572C318.368 142.528 318.44 140.62 320.258 140.62C321.212 140.62 321.86 141.142 321.86 142.528V148H324.02V143.572C324.02 142.528 324.056 140.62 325.892 140.62C326.864 140.62 327.494 141.142 327.494 142.528V148H329.69V142.024C329.69 139.774 328.466 138.766 326.666 138.766C325.244 138.766 324.308 139.432 323.66 140.458C323.156 139.432 322.256 138.766 320.996 138.766C319.718 138.766 318.8 139.45 318.314 140.35V139.036H316.172V148ZM334.578 148.27C336.09 148.27 337.044 147.514 337.584 146.668C337.692 147.46 338.088 148 339.222 148H340.914V146.272H340.068C339.6 146.272 339.528 146.164 339.528 145.732V142.114C339.528 139.918 338.178 138.766 335.712 138.766C333.192 138.766 331.788 140.08 331.572 141.412L333.606 141.934C333.822 141.142 334.38 140.44 335.712 140.44C336.864 140.44 337.368 140.962 337.368 141.844V142.15C334.398 142.42 331.716 143.194 331.716 145.696C331.716 147.28 332.904 148.27 334.578 148.27ZM335.298 146.614C334.398 146.614 333.948 146.164 333.948 145.48C333.948 144.202 335.514 143.806 337.368 143.59V144.31C337.368 145.912 336.36 146.614 335.298 146.614ZM342.346 148H344.542V143.914C344.542 142.816 344.578 140.602 346.594 140.602C347.584 140.602 348.214 141.178 348.214 142.528V148H350.41V142.042C350.41 140.08 349.528 138.766 347.386 138.766C345.64 138.766 344.776 139.936 344.488 140.458V139.036H342.346V148ZM358.67 139.036L357.428 142.87L356.636 145.282C356.474 144.904 356.258 144.454 355.61 142.888L353.954 139.036H351.578L355.754 147.928L355.484 148.738C355.214 149.476 354.908 149.692 354.296 149.692H352.172V151.51H354.512C356.078 151.51 356.798 150.88 357.32 149.35L360.974 139.036H358.67ZM370.003 148.252C372.505 148.252 373.963 147.118 373.963 145.372C373.963 143.536 372.307 142.852 370.885 142.582L369.733 142.348C368.653 142.15 368.365 141.862 368.365 141.358C368.365 140.818 368.851 140.35 369.841 140.35C370.957 140.35 371.551 141.034 371.803 141.718L373.657 140.926C373.279 139.918 372.163 138.766 369.913 138.766C367.753 138.766 366.277 139.882 366.277 141.556C366.277 143.302 367.429 143.896 369.175 144.238L370.363 144.472C371.425 144.688 371.695 145.084 371.695 145.588C371.695 146.218 371.137 146.632 370.093 146.632C368.473 146.632 368.041 145.534 367.933 145.03L365.899 145.678C366.295 147.316 367.987 148.252 370.003 148.252ZM375.83 137.614H378.17V135.382H375.83V137.614ZM375.92 148H378.098V139.036H375.92V148ZM382.5 151.51H386.658C388.332 151.51 389.682 150.61 389.682 148.846C389.682 147.37 388.494 146.218 386.658 146.218H382.77C382.212 146.218 381.924 146.092 381.924 145.732C381.924 145.444 382.158 145.192 382.662 145.012C383.184 145.282 383.796 145.336 384.444 145.336C386.514 145.336 388.008 144.112 388.188 142.132L388.224 141.862C388.314 140.89 388.512 140.746 389.16 140.746H390.042V139.036H389.268C388.17 139.036 387.81 139.468 387.72 140.476C387.198 139.558 386.028 138.766 384.39 138.766C382.194 138.766 380.61 140.152 380.61 142.114C380.61 143.068 381.024 143.878 381.6 144.346C380.916 144.76 380.214 145.39 380.214 146.29C380.214 147.064 380.52 147.514 381.042 147.856C380.502 148.198 379.926 148.846 379.926 149.674C379.926 150.79 380.664 151.51 382.5 151.51ZM384.444 143.806C383.4 143.806 382.716 143.122 382.716 142.096C382.716 141.07 383.4 140.332 384.444 140.332C385.488 140.332 386.172 141.07 386.172 142.096C386.172 143.122 385.488 143.806 384.444 143.806ZM382.788 149.836C382.14 149.836 381.69 149.584 381.69 148.954C381.69 148.504 381.996 148.144 382.248 148H386.28C387.072 148 387.504 148.306 387.504 148.9C387.504 149.548 387.072 149.836 386.28 149.836H382.788ZM391.635 148H393.831V143.914C393.831 142.816 393.867 140.602 395.883 140.602C396.873 140.602 397.503 141.178 397.503 142.528V148H399.699V142.042C399.699 140.08 398.817 138.766 396.675 138.766C394.929 138.766 394.065 139.936 393.777 140.458V139.036H391.635V148ZM406.574 137.614H408.914V135.382H406.574V137.614ZM406.664 148H408.842V139.036H406.664V148ZM411.48 148H413.676V143.914C413.676 142.816 413.712 140.602 415.728 140.602C416.718 140.602 417.348 141.178 417.348 142.528V148H419.544V142.042C419.544 140.08 418.662 138.766 416.52 138.766C414.774 138.766 413.91 139.936 413.622 140.458V139.036H411.48V148ZM428.832 148.27C430.344 148.27 431.298 147.514 431.838 146.668C431.946 147.46 432.342 148 433.476 148H435.168V146.272H434.322C433.854 146.272 433.782 146.164 433.782 145.732V142.114C433.782 139.918 432.432 138.766 429.966 138.766C427.446 138.766 426.042 140.08 425.826 141.412L427.86 141.934C428.076 141.142 428.634 140.44 429.966 140.44C431.118 140.44 431.622 140.962 431.622 141.844V142.15C428.652 142.42 425.97 143.194 425.97 145.696C425.97 147.28 427.158 148.27 428.832 148.27ZM429.552 146.614C428.652 146.614 428.202 146.164 428.202 145.48C428.202 144.202 429.768 143.806 431.622 143.59V144.31C431.622 145.912 430.614 146.614 429.552 146.614ZM439.627 148H442.291V146.2H440.383C439.807 146.2 439.555 145.948 439.555 145.372V140.746H441.931V139.036H439.555V136.21H437.359V139.036H435.415V140.746H437.359V145.714C437.359 147.136 438.169 148 439.627 148ZM447.203 148H449.867V146.2H447.959C447.383 146.2 447.131 145.948 447.131 145.372V140.746H449.507V139.036H447.131V136.21H444.935V139.036H442.991V140.746H444.935V145.714C444.935 147.136 445.745 148 447.203 148ZM455.268 148.27C457.626 148.27 458.886 147.046 459.462 145.66L457.482 144.922C457.158 145.678 456.564 146.542 455.286 146.542C454.134 146.542 453.162 145.876 453.072 144.058H459.408C459.696 141.088 458.094 138.766 455.232 138.766C452.748 138.766 450.894 140.656 450.894 143.518C450.894 146.506 452.622 148.27 455.268 148.27ZM453.144 142.438C453.306 141.142 454.152 140.404 455.232 140.404C456.366 140.404 457.158 141.124 457.23 142.438H453.144ZM461.525 148H463.721V143.572C463.721 142.528 463.793 140.62 465.611 140.62C466.565 140.62 467.213 141.142 467.213 142.528V148H469.373V143.572C469.373 142.528 469.409 140.62 471.245 140.62C472.217 140.62 472.847 141.142 472.847 142.528V148H475.043V142.024C475.043 139.774 473.819 138.766 472.019 138.766C470.597 138.766 469.661 139.432 469.013 140.458C468.509 139.432 467.609 138.766 466.349 138.766C465.071 138.766 464.153 139.45 463.667 140.35V139.036H461.525V148ZM477.609 151.51H479.805V148.36V146.722C480.219 147.424 481.155 148.27 482.685 148.27C484.971 148.27 486.501 146.38 486.501 143.518C486.501 140.638 484.971 138.748 482.685 138.748C481.137 138.748 480.165 139.648 479.751 140.296V139.036H477.609V151.51ZM481.965 146.542C480.633 146.542 479.697 145.534 479.697 143.5C479.697 141.484 480.633 140.476 481.965 140.476C483.243 140.476 484.215 141.268 484.215 143.5C484.215 145.75 483.243 146.542 481.965 146.542ZM491.623 148H494.287V146.2H492.379C491.803 146.2 491.551 145.948 491.551 145.372V140.746H493.927V139.036H491.551V136.21H489.355V139.036H487.411V140.746H489.355V145.714C489.355 147.136 490.165 148 491.623 148ZM499.343 148.252C501.845 148.252 503.303 147.118 503.303 145.372C503.303 143.536 501.647 142.852 500.225 142.582L499.073 142.348C497.993 142.15 497.705 141.862 497.705 141.358C497.705 140.818 498.191 140.35 499.181 140.35C500.297 140.35 500.891 141.034 501.143 141.718L502.997 140.926C502.619 139.918 501.503 138.766 499.253 138.766C497.093 138.766 495.617 139.882 495.617 141.556C495.617 143.302 496.769 143.896 498.515 144.238L499.703 144.472C500.765 144.688 501.035 145.084 501.035 145.588C501.035 146.218 500.477 146.632 499.433 146.632C497.813 146.632 497.381 145.534 497.273 145.03L495.239 145.678C495.635 147.316 497.327 148.252 499.343 148.252Z" fill="#1D1D21"/>
<path d="M284.95 179H286.75V173.654L291.178 166.4H289.036L286.912 170.162C286.48 170.9 286.066 171.638 285.868 171.962C285.688 171.638 285.256 170.918 284.806 170.162L282.538 166.4H280.378L284.95 173.726V179ZM295.042 179.252C297.436 179.252 299.272 177.272 299.272 174.554C299.272 171.836 297.508 169.82 295.042 169.82C292.576 169.82 290.794 171.836 290.794 174.554C290.794 177.236 292.63 179.252 295.042 179.252ZM295.042 177.794C293.566 177.794 292.558 176.75 292.558 174.572C292.558 172.376 293.566 171.278 295.042 171.278C296.5 171.278 297.508 172.376 297.508 174.572C297.508 176.75 296.5 177.794 295.042 177.794ZM304.323 179.252C306.159 179.252 307.005 177.992 307.293 177.47V179H308.949V170.072H307.257V173.96C307.257 175.346 307.149 177.776 304.917 177.776C303.801 177.776 303.081 177.128 303.081 175.526V170.072H301.389V175.922C301.389 177.902 302.289 179.252 304.323 179.252ZM311.58 171.008H312.606L313.938 168.614V166.382H311.76V168.614H312.912L311.58 171.008ZM318.296 179H320.402L323.336 170.072H321.608L320.132 174.968C319.808 176.03 319.502 177.038 319.358 177.47C319.232 177.056 318.926 176.048 318.584 174.968L317.036 170.072H315.254L318.296 179ZM328.649 179.252C330.503 179.252 331.925 178.388 332.573 176.678L331.025 176.12C330.773 176.75 330.143 177.83 328.703 177.83C327.479 177.83 326.291 177.11 326.219 174.968H332.501C332.825 172.052 331.241 169.82 328.577 169.82C326.255 169.82 324.527 171.656 324.527 174.572C324.527 177.578 326.165 179.252 328.649 179.252ZM326.255 173.618C326.399 172.07 327.425 171.17 328.577 171.17C329.765 171.17 330.773 172.016 330.791 173.618H326.255ZM342.472 179.252C344.038 179.252 344.92 178.388 345.352 177.65V179H347.008V170.072H345.316V171.44C344.884 170.702 344.02 169.82 342.472 169.82C340.366 169.82 338.8 171.62 338.8 174.554C338.8 177.47 340.366 179.252 342.472 179.252ZM342.94 177.812C341.572 177.812 340.546 176.984 340.546 174.554C340.546 172.142 341.572 171.26 342.94 171.26C344.38 171.26 345.406 172.358 345.406 174.554C345.406 176.75 344.38 177.812 342.94 177.812ZM353.074 179H355.27V177.542H353.398C352.786 177.542 352.516 177.272 352.516 176.66V171.476H354.928V170.072H352.516V167.282H350.824V170.072H348.79V171.476H350.824V176.804C350.824 178.28 351.598 179 353.074 179ZM360.299 179H362.495V177.542H360.623C360.011 177.542 359.741 177.272 359.741 176.66V171.476H362.153V170.072H359.741V167.282H358.049V170.072H356.015V171.476H358.049V176.804C358.049 178.28 358.823 179 360.299 179ZM367.778 179.252C369.632 179.252 371.054 178.388 371.702 176.678L370.154 176.12C369.902 176.75 369.272 177.83 367.832 177.83C366.608 177.83 365.42 177.11 365.348 174.968H371.63C371.954 172.052 370.37 169.82 367.706 169.82C365.384 169.82 363.656 171.656 363.656 174.572C363.656 177.578 365.294 179.252 367.778 179.252ZM365.384 173.618C365.528 172.07 366.554 171.17 367.706 171.17C368.894 171.17 369.902 172.016 369.92 173.618H365.384ZM374.007 179H375.699V174.788C375.699 173.564 375.789 171.314 377.877 171.314C379.011 171.314 379.767 171.908 379.767 173.546V179H381.423V174.788C381.423 173.564 381.477 171.314 383.619 171.314C384.753 171.314 385.491 171.908 385.491 173.546V179H387.201V173.078C387.201 170.954 386.085 169.82 384.105 169.82C382.323 169.82 381.495 170.864 381.117 171.674C380.649 170.522 379.641 169.82 378.345 169.82C376.815 169.82 376.023 170.756 375.645 171.422V170.072H374.007V179ZM390.003 182.51H391.695V179.36V177.65C392.127 178.388 392.973 179.252 394.539 179.252C396.645 179.252 398.193 177.452 398.193 174.536C398.193 171.602 396.645 169.82 394.539 169.82C392.973 169.82 392.073 170.684 391.641 171.422V170.072H390.003V182.51ZM394.053 177.812C392.631 177.812 391.605 176.714 391.605 174.518C391.605 172.322 392.631 171.26 394.053 171.26C395.439 171.26 396.447 172.088 396.447 174.518C396.447 176.93 395.439 177.812 394.053 177.812ZM403.541 179H405.737V177.542H403.865C403.253 177.542 402.983 177.272 402.983 176.66V171.476H405.395V170.072H402.983V167.282H401.291V170.072H399.257V171.476H401.291V176.804C401.291 178.28 402.065 179 403.541 179ZM411.02 179.252C412.874 179.252 414.296 178.388 414.944 176.678L413.396 176.12C413.144 176.75 412.514 177.83 411.074 177.83C409.85 177.83 408.662 177.11 408.59 174.968H414.872C415.196 172.052 413.612 169.82 410.948 169.82C408.626 169.82 406.898 171.656 406.898 174.572C406.898 177.578 408.536 179.252 411.02 179.252ZM408.626 173.618C408.77 172.07 409.796 171.17 410.948 171.17C412.136 171.17 413.144 172.016 413.162 173.618H408.626ZM420.255 179.252C421.821 179.252 422.703 178.388 423.135 177.65V179H424.791V166.4H423.099V169.712V171.44C422.667 170.702 421.803 169.82 420.255 169.82C418.149 169.82 416.583 171.62 416.583 174.554C416.583 177.47 418.149 179.252 420.255 179.252ZM420.723 177.812C419.355 177.812 418.329 176.984 418.329 174.554C418.329 172.142 419.355 171.26 420.723 171.26C422.163 171.26 423.189 172.358 423.189 174.554C423.189 176.75 422.163 177.812 420.723 177.812ZM435.182 179H437.378V177.542H435.506C434.894 177.542 434.624 177.272 434.624 176.66V171.476H437.036V170.072H434.624V167.282H432.932V170.072H430.898V171.476H432.932V176.804C432.932 178.28 433.706 179 435.182 179ZM442.751 179.252C445.145 179.252 446.981 177.272 446.981 174.554C446.981 171.836 445.217 169.82 442.751 169.82C440.285 169.82 438.503 171.836 438.503 174.554C438.503 177.236 440.339 179.252 442.751 179.252ZM442.751 177.794C441.275 177.794 440.267 176.75 440.267 174.572C440.267 172.376 441.275 171.278 442.751 171.278C444.209 171.278 445.217 172.376 445.217 174.572C445.217 176.75 444.209 177.794 442.751 177.794ZM456.89 179.252C459.194 179.252 460.526 178.172 460.526 176.48C460.526 174.5 458.546 173.924 457.52 173.708L456.458 173.51C455.216 173.276 454.946 172.934 454.946 172.358C454.946 171.728 455.486 171.17 456.674 171.17C458.078 171.17 458.618 172.052 458.834 172.664L460.328 172.088C459.968 170.954 458.906 169.82 456.692 169.82C454.838 169.82 453.326 170.918 453.326 172.52C453.326 174.23 454.604 174.806 456.134 175.112L457.214 175.31C458.438 175.544 458.816 175.994 458.816 176.624C458.816 177.416 458.15 177.866 456.908 177.866C455.45 177.866 454.802 177.092 454.568 176.174L452.966 176.696C453.344 178.388 455.018 179.252 456.89 179.252ZM462.67 168.416H464.47V166.4H462.67V168.416ZM462.724 179H464.434V170.072H462.724V179ZM468.877 182.51H473.035C474.583 182.51 475.879 181.682 475.879 180.008C475.879 178.514 474.745 177.506 472.999 177.506H469.129C468.517 177.506 468.337 177.218 468.337 176.93C468.337 176.606 468.643 176.282 469.129 176.084C469.633 176.354 470.209 176.426 470.821 176.426C472.819 176.426 474.205 175.13 474.367 173.114L474.403 172.682C474.475 171.656 474.763 171.476 475.519 171.476H476.257V170.072H475.339C474.421 170.072 474.025 170.63 473.863 171.404C473.449 170.702 472.459 169.82 470.803 169.82C468.715 169.82 467.203 171.26 467.203 173.15C467.203 174.212 467.671 175.022 468.193 175.49C467.581 175.886 466.861 176.498 466.861 177.38C466.861 178.1 467.149 178.532 467.653 178.838C467.131 179.162 466.501 179.81 466.501 180.71C466.501 181.754 467.131 182.51 468.877 182.51ZM470.821 175.094C469.651 175.094 468.895 174.32 468.895 173.132C468.895 171.962 469.651 171.152 470.821 171.152C471.991 171.152 472.747 171.962 472.747 173.132C472.747 174.32 471.991 175.094 470.821 175.094ZM469.345 181.07C468.481 181.07 467.995 180.854 467.995 180.134C467.995 179.576 468.355 179.18 468.643 179H472.819C473.539 179 474.169 179.18 474.169 180.026C474.169 180.872 473.539 181.07 472.819 181.07H469.345ZM478.017 179H479.709V175.148C479.709 173.888 479.745 171.296 482.085 171.296C483.237 171.296 483.975 171.944 483.975 173.546V179H485.667V173.15C485.667 171.17 484.767 169.82 482.571 169.82C480.699 169.82 479.835 171.134 479.655 171.566V170.072H478.017V179ZM493.009 168.416H494.809V166.4H493.009V168.416ZM493.063 179H494.773V170.072H493.063V179ZM497.705 179H499.397V175.148C499.397 173.888 499.433 171.296 501.773 171.296C502.925 171.296 503.663 171.944 503.663 173.546V179H505.355V173.15C505.355 171.17 504.455 169.82 502.259 169.82C500.387 169.82 499.523 171.134 499.343 171.566V170.072H497.705V179ZM515.619 179H517.815V177.542H515.943C515.331 177.542 515.061 177.272 515.061 176.66V171.476H517.473V170.072H515.061V167.282H513.369V170.072H511.335V171.476H513.369V176.804C513.369 178.28 514.143 179 515.619 179ZM523.188 179.252C525.582 179.252 527.418 177.272 527.418 174.554C527.418 171.836 525.654 169.82 523.188 169.82C520.722 169.82 518.94 171.836 518.94 174.554C518.94 177.236 520.776 179.252 523.188 179.252ZM523.188 177.794C521.712 177.794 520.704 176.75 520.704 174.572C520.704 172.376 521.712 171.278 523.188 171.278C524.646 171.278 525.654 172.376 525.654 174.572C525.654 176.75 524.646 177.794 523.188 177.794ZM533.208 179.252C535.602 179.252 537.438 177.272 537.438 174.554C537.438 171.836 535.674 169.82 533.208 169.82C530.742 169.82 528.96 171.836 528.96 174.554C528.96 177.236 530.796 179.252 533.208 179.252ZM533.208 177.794C531.732 177.794 530.724 176.75 530.724 174.572C530.724 172.376 531.732 171.278 533.208 171.278C534.666 171.278 535.674 172.376 535.674 174.572C535.674 176.75 534.666 177.794 533.208 177.794ZM544.269 179H545.961V174.788C545.961 173.564 546.051 171.314 548.139 171.314C549.273 171.314 550.029 171.908 550.029 173.546V179H551.685V174.788C551.685 173.564 551.739 171.314 553.881 171.314C555.015 171.314 555.753 171.908 555.753 173.546V179H557.463V173.078C557.463 170.954 556.347 169.82 554.367 169.82C552.585 169.82 551.757 170.864 551.379 171.674C550.911 170.522 549.903 169.82 548.607 169.82C547.077 169.82 546.285 170.756 545.907 171.422V170.072H544.269V179ZM563.271 179.252C564.837 179.252 565.719 178.388 566.151 177.65V179H567.807V170.072H566.115V171.44C565.683 170.702 564.819 169.82 563.271 169.82C561.165 169.82 559.599 171.62 559.599 174.554C559.599 177.47 561.165 179.252 563.271 179.252ZM563.739 177.812C562.371 177.812 561.345 176.984 561.345 174.554C561.345 172.142 562.371 171.26 563.739 171.26C565.179 171.26 566.205 172.358 566.205 174.554C566.205 176.75 565.179 177.812 563.739 177.812ZM570.759 179H572.451V175.148C572.451 173.888 572.487 171.296 574.827 171.296C575.979 171.296 576.717 171.944 576.717 173.546V179H578.409V173.15C578.409 171.17 577.509 169.82 575.313 169.82C573.441 169.82 572.577 171.134 572.397 171.566V170.072H570.759V179ZM586.69 170.072L585.16 174.698C584.746 175.904 584.638 176.246 584.476 176.732C584.314 176.3 584.152 175.904 583.558 174.518L581.722 170.072H579.832L583.774 178.892L583.324 180.17C583.072 180.854 582.712 180.998 582.1 180.998H580.3V182.51H582.154C583.72 182.51 584.386 181.952 584.962 180.26L588.472 170.072H586.69ZM597.516 179H599.712V177.542H597.84C597.228 177.542 596.958 177.272 596.958 176.66V171.476H599.37V170.072H596.958V167.282H595.266V170.072H593.232V171.476H595.266V176.804C595.266 178.28 596.04 179 597.516 179ZM601.554 168.416H603.354V166.4H601.554V168.416ZM601.608 179H603.318V170.072H601.608V179ZM606.249 179H607.941V174.788C607.941 173.564 608.031 171.314 610.119 171.314C611.253 171.314 612.009 171.908 612.009 173.546V179H613.665V174.788C613.665 173.564 613.719 171.314 615.861 171.314C616.995 171.314 617.733 171.908 617.733 173.546V179H619.443V173.078C619.443 170.954 618.327 169.82 616.347 169.82C614.565 169.82 613.737 170.864 613.359 171.674C612.891 170.522 611.883 169.82 610.587 169.82C609.057 169.82 608.265 170.756 607.887 171.422V170.072H606.249V179ZM625.702 179.252C627.556 179.252 628.978 178.388 629.626 176.678L628.078 176.12C627.826 176.75 627.196 177.83 625.756 177.83C624.532 177.83 623.344 177.11 623.272 174.968H629.554C629.878 172.052 628.294 169.82 625.63 169.82C623.308 169.82 621.58 171.656 621.58 174.572C621.58 177.578 623.218 179.252 625.702 179.252ZM623.308 173.618C623.452 172.07 624.478 171.17 625.63 171.17C626.818 171.17 627.826 172.016 627.844 173.618H623.308ZM635.009 179.252C637.313 179.252 638.645 178.172 638.645 176.48C638.645 174.5 636.665 173.924 635.639 173.708L634.577 173.51C633.335 173.276 633.065 172.934 633.065 172.358C633.065 171.728 633.605 171.17 634.793 171.17C636.197 171.17 636.737 172.052 636.953 172.664L638.447 172.088C638.087 170.954 637.025 169.82 634.811 169.82C632.957 169.82 631.445 170.918 631.445 172.52C631.445 174.23 632.723 174.806 634.253 175.112L635.333 175.31C636.557 175.544 636.935 175.994 636.935 176.624C636.935 177.416 636.269 177.866 635.027 177.866C633.569 177.866 632.921 177.092 632.687 176.174L631.085 176.696C631.463 178.388 633.137 179.252 635.009 179.252ZM648.455 179.252C650.021 179.252 650.903 178.388 651.335 177.65V179H652.991V170.072H651.299V171.44C650.867 170.702 650.003 169.82 648.455 169.82C646.349 169.82 644.783 171.62 644.783 174.554C644.783 177.47 646.349 179.252 648.455 179.252ZM648.923 177.812C647.555 177.812 646.529 176.984 646.529 174.554C646.529 172.142 647.555 171.26 648.923 171.26C650.363 171.26 651.389 172.358 651.389 174.554C651.389 176.75 650.363 177.812 648.923 177.812ZM655.943 179H657.635V175.148C657.635 173.888 657.671 171.296 660.011 171.296C661.163 171.296 661.901 171.944 661.901 173.546V179H663.593V173.15C663.593 171.17 662.693 169.82 660.497 169.82C658.625 169.82 657.761 171.134 657.581 171.566V170.072H655.943V179ZM669.425 179.252C670.991 179.252 671.873 178.388 672.305 177.65V179H673.961V166.4H672.269V169.712V171.44C671.837 170.702 670.973 169.82 669.425 169.82C667.319 169.82 665.753 171.62 665.753 174.554C665.753 177.47 667.319 179.252 669.425 179.252ZM669.893 177.812C668.525 177.812 667.499 176.984 667.499 174.554C667.499 172.142 668.525 171.26 669.893 171.26C671.333 171.26 672.359 172.358 672.359 174.554C672.359 176.75 671.333 177.812 669.893 177.812ZM681.501 179H683.193V175.148C683.193 173.888 683.229 171.296 685.569 171.296C686.721 171.296 687.459 171.944 687.459 173.546V179H689.151V173.15C689.151 171.17 688.251 169.82 686.055 169.82C684.183 169.82 683.319 171.134 683.139 171.566V170.072H681.501V179ZM695.524 179.252C697.918 179.252 699.754 177.272 699.754 174.554C699.754 171.836 697.99 169.82 695.524 169.82C693.058 169.82 691.276 171.836 691.276 174.554C691.276 177.236 693.112 179.252 695.524 179.252ZM695.524 177.794C694.048 177.794 693.04 176.75 693.04 174.572C693.04 172.376 694.048 171.278 695.524 171.278C696.982 171.278 697.99 172.376 697.99 174.572C697.99 176.75 696.982 177.794 695.524 177.794ZM703.851 179H705.759L707.109 174.68C707.631 173.024 707.793 172.466 707.973 171.926L708.819 174.698L710.133 179H712.131L715.137 170.072H713.355L712.077 174.176C711.519 176.03 711.285 176.768 711.141 177.182L710.403 174.716L708.999 170.072H707.019L705.723 174.32C705.183 176.084 704.985 176.732 704.859 177.2L703.959 174.23L702.699 170.072H700.935L703.851 179ZM284.482 210.252C286.048 210.252 286.93 209.388 287.362 208.65V210H289.018V201.072H287.326V202.44C286.894 201.702 286.03 200.82 284.482 200.82C282.376 200.82 280.81 202.62 280.81 205.554C280.81 208.47 282.376 210.252 284.482 210.252ZM284.95 208.812C283.582 208.812 282.556 207.984 282.556 205.554C282.556 203.142 283.582 202.26 284.95 202.26C286.39 202.26 287.416 203.358 287.416 205.554C287.416 207.75 286.39 208.812 284.95 208.812ZM291.97 210H293.662V205.986C293.662 203.88 294.49 202.692 296.47 202.692C296.83 202.692 297.136 202.728 297.424 202.764V201.036C297.226 200.982 296.974 200.946 296.596 200.946C294.814 200.946 293.932 202.278 293.626 202.962V201.072H291.97V210ZM302.51 210.252C304.364 210.252 305.786 209.388 306.434 207.678L304.886 207.12C304.634 207.75 304.004 208.83 302.564 208.83C301.34 208.83 300.152 208.11 300.08 205.968H306.362C306.686 203.052 305.102 200.82 302.438 200.82C300.116 200.82 298.388 202.656 298.388 205.572C298.388 208.578 300.026 210.252 302.51 210.252ZM300.116 204.618C300.26 203.07 301.286 202.17 302.438 202.17C303.626 202.17 304.634 203.016 304.652 204.618H300.116ZM313.328 210H315.02V197.4H313.328V210ZM321.497 210.252C323.891 210.252 325.727 208.272 325.727 205.554C325.727 202.836 323.963 200.82 321.497 200.82C319.031 200.82 317.249 202.836 317.249 205.554C317.249 208.236 319.085 210.252 321.497 210.252ZM321.497 208.794C320.021 208.794 319.013 207.75 319.013 205.572C319.013 203.376 320.021 202.278 321.497 202.278C322.955 202.278 323.963 203.376 323.963 205.572C323.963 207.75 322.955 208.794 321.497 208.794ZM331.624 210.252C333.64 210.252 334.99 209.082 335.584 207.426L333.982 206.868C333.676 207.858 333.01 208.794 331.606 208.794C330.184 208.794 329.05 207.75 329.05 205.536C329.05 203.358 330.202 202.278 331.588 202.278C332.83 202.278 333.478 203.07 333.784 203.952L335.368 203.412C334.918 202.008 333.64 200.82 331.606 200.82C329.104 200.82 327.286 202.746 327.286 205.536C327.286 208.416 329.014 210.252 331.624 210.252ZM344.156 210H346.334L342.05 204.78L346.01 201.072H343.796L339.242 205.518V202.548V197.4H337.55V210H339.242V207.408L340.862 205.896L344.156 210ZM350.92 210.252C352.774 210.252 354.196 209.388 354.844 207.678L353.296 207.12C353.044 207.75 352.414 208.83 350.974 208.83C349.75 208.83 348.562 208.11 348.49 205.968H354.772C355.096 203.052 353.512 200.82 350.848 200.82C348.526 200.82 346.798 202.656 346.798 205.572C346.798 208.578 348.436 210.252 350.92 210.252ZM348.526 204.618C348.67 203.07 349.696 202.17 350.848 202.17C352.036 202.17 353.044 203.016 353.062 204.618H348.526ZM360.156 210.252C361.722 210.252 362.604 209.388 363.036 208.65V210H364.692V197.4H363V200.712V202.44C362.568 201.702 361.704 200.82 360.156 200.82C358.05 200.82 356.484 202.62 356.484 205.554C356.484 208.47 358.05 210.252 360.156 210.252ZM360.624 208.812C359.256 208.812 358.23 207.984 358.23 205.554C358.23 203.142 359.256 202.26 360.624 202.26C362.064 202.26 363.09 203.358 363.09 205.554C363.09 207.75 362.064 208.812 360.624 208.812ZM375.778 210.252C378.172 210.252 380.008 208.272 380.008 205.554C380.008 202.836 378.244 200.82 375.778 200.82C373.312 200.82 371.53 202.836 371.53 205.554C371.53 208.236 373.366 210.252 375.778 210.252ZM375.778 208.794C374.302 208.794 373.294 207.75 373.294 205.572C373.294 203.376 374.302 202.278 375.778 202.278C377.236 202.278 378.244 203.376 378.244 205.572C378.244 207.75 377.236 208.794 375.778 208.794ZM385.059 210.252C386.895 210.252 387.741 208.992 388.029 208.47V210H389.685V201.072H387.993V204.96C387.993 206.346 387.885 208.776 385.653 208.776C384.537 208.776 383.817 208.128 383.817 206.526V201.072H382.125V206.922C382.125 208.902 383.025 210.252 385.059 210.252ZM395.754 210H397.95V208.542H396.078C395.466 208.542 395.196 208.272 395.196 207.66V202.476H397.608V201.072H395.196V198.282H393.504V201.072H391.47V202.476H393.504V207.804C393.504 209.28 394.278 210 395.754 210ZM405.034 210H406.726V202.476H409.03V201.072H406.726V199.74C406.726 199.128 406.978 198.858 407.608 198.858H409.354V197.4H407.284C405.808 197.4 405.034 198.138 405.034 199.758V201.072H403.09V202.476H405.034V210ZM414.221 210.252C416.615 210.252 418.451 208.272 418.451 205.554C418.451 202.836 416.687 200.82 414.221 200.82C411.755 200.82 409.973 202.836 409.973 205.554C409.973 208.236 411.809 210.252 414.221 210.252ZM414.221 208.794C412.745 208.794 411.737 207.75 411.737 205.572C411.737 203.376 412.745 202.278 414.221 202.278C415.679 202.278 416.687 203.376 416.687 205.572C416.687 207.75 415.679 208.794 414.221 208.794ZM420.695 210H422.387V205.986C422.387 203.88 423.215 202.692 425.195 202.692C425.555 202.692 425.861 202.728 426.149 202.764V201.036C425.951 200.982 425.699 200.946 425.321 200.946C423.539 200.946 422.657 202.278 422.351 202.962V201.072H420.695V210ZM435.849 210.252C438.513 210.252 440.097 208.686 440.097 206.778C440.097 205.068 439.053 203.862 437.559 203.52C438.891 203.088 439.863 202.026 439.863 200.478C439.863 198.588 438.387 197.148 435.849 197.148C433.329 197.148 431.817 198.714 431.655 200.658L433.509 200.964C433.635 199.65 434.481 198.714 435.849 198.714C437.055 198.714 438.045 199.506 438.045 200.766C438.045 202.062 437.037 202.836 435.813 202.836H434.913V204.366H435.813C437.217 204.366 438.243 205.176 438.243 206.544C438.243 207.876 437.199 208.686 435.849 208.686C434.319 208.686 433.311 207.642 433.239 206.004L431.349 206.4C431.529 208.74 433.221 210.252 435.849 210.252ZM447.223 210.252C450.211 210.252 452.245 207.966 452.245 203.664C452.245 199.344 449.977 197.148 447.223 197.148C444.451 197.148 442.165 199.344 442.165 203.664C442.165 207.966 444.217 210.252 447.223 210.252ZM447.223 208.65C445.261 208.65 444.055 206.904 444.055 203.664C444.055 200.64 445.297 198.75 447.223 198.75C449.113 198.75 450.355 200.64 450.355 203.664C450.355 206.922 449.149 208.65 447.223 208.65ZM459.331 210H461.023V205.788C461.023 204.564 461.113 202.314 463.201 202.314C464.335 202.314 465.091 202.908 465.091 204.546V210H466.747V205.788C466.747 204.564 466.801 202.314 468.943 202.314C470.077 202.314 470.815 202.908 470.815 204.546V210H472.525V204.078C472.525 201.954 471.409 200.82 469.429 200.82C467.647 200.82 466.819 201.864 466.441 202.674C465.973 201.522 464.965 200.82 463.669 200.82C462.139 200.82 461.347 201.756 460.969 202.422V201.072H459.331V210ZM475.256 199.416H477.056V197.4H475.256V199.416ZM475.31 210H477.02V201.072H475.31V210ZM479.951 210H481.643V206.148C481.643 204.888 481.679 202.296 484.019 202.296C485.171 202.296 485.909 202.944 485.909 204.546V210H487.601V204.15C487.601 202.17 486.701 200.82 484.505 200.82C482.633 200.82 481.769 202.134 481.589 202.566V201.072H479.951V210ZM493.235 210.252C495.071 210.252 495.917 208.992 496.205 208.47V210H497.861V201.072H496.169V204.96C496.169 206.346 496.061 208.776 493.829 208.776C492.713 208.776 491.993 208.128 491.993 206.526V201.072H490.301V206.922C490.301 208.902 491.201 210.252 493.235 210.252ZM503.93 210H506.126V208.542H504.254C503.642 208.542 503.372 208.272 503.372 207.66V202.476H505.784V201.072H503.372V198.282H501.68V201.072H499.646V202.476H501.68V207.804C501.68 209.28 502.454 210 503.93 210ZM511.409 210.252C513.263 210.252 514.685 209.388 515.333 207.678L513.785 207.12C513.533 207.75 512.903 208.83 511.463 208.83C510.239 208.83 509.051 208.11 508.979 205.968H515.261C515.585 203.052 514.001 200.82 511.337 200.82C509.015 200.82 507.287 202.656 507.287 205.572C507.287 208.578 508.925 210.252 511.409 210.252ZM509.015 204.618C509.159 203.07 510.185 202.17 511.337 202.17C512.525 202.17 513.533 203.016 513.551 204.618H509.015ZM520.716 210.252C523.02 210.252 524.352 209.172 524.352 207.48C524.352 205.5 522.372 204.924 521.346 204.708L520.284 204.51C519.042 204.276 518.772 203.934 518.772 203.358C518.772 202.728 519.312 202.17 520.5 202.17C521.904 202.17 522.444 203.052 522.66 203.664L524.154 203.088C523.794 201.954 522.732 200.82 520.518 200.82C518.664 200.82 517.152 201.918 517.152 203.52C517.152 205.23 518.43 205.806 519.96 206.112L521.04 206.31C522.264 206.544 522.642 206.994 522.642 207.624C522.642 208.416 521.976 208.866 520.734 208.866C519.276 208.866 518.628 208.092 518.394 207.174L516.792 207.696C517.17 209.388 518.844 210.252 520.716 210.252ZM526.298 210H528.602V207.66H526.298V210Z" fill="#1D1D21"/>
<path d="M494 55C494 54.4477 494.448 54 495 54C495.552 54 496 54.4477 496 55L494 55ZM495.707 125.207C495.317 125.598 494.683 125.598 494.293 125.207L487.929 118.843C487.538 118.453 487.538 117.819 487.929 117.429C488.319 117.038 488.953 117.038 489.343 117.429L495 123.086L500.657 117.429C501.047 117.038 501.681 117.038 502.071 117.429C502.462 117.819 502.462 118.453 502.071 118.843L495.707 125.207ZM496 55L496 124.5L494 124.5L494 55L496 55Z" fill="#DA372C"/>
<path d="M405.975 67.68H407.175V66.208C409.447 66.032 410.695 64.72 410.695 62.896C410.695 61.2 409.431 60.24 407.655 59.792L407.175 59.664V55.952C408.471 56.208 408.983 57.2 409.191 57.792L410.519 57.136C410.231 56.192 409.191 54.832 407.175 54.608V53.12H405.975V54.608C404.071 54.832 402.807 56.064 402.807 57.712C402.807 59.568 403.959 60.384 405.607 60.736L405.975 60.816V64.848C404.727 64.576 403.975 63.664 403.607 62.544L402.247 63.2C402.743 64.768 404.007 65.952 405.975 66.192V67.68ZM405.975 59.392C404.727 59.072 404.183 58.592 404.183 57.632C404.183 56.72 404.855 56.032 405.975 55.904V57.968V59.392ZM407.175 64.912V62.848V61.088C408.567 61.408 409.239 62.032 409.239 63.024C409.239 64.064 408.487 64.784 407.175 64.912ZM415.391 66.224C417.391 66.224 418.543 65.28 418.543 63.792C418.543 61.984 416.671 61.504 415.871 61.344L414.959 61.168C413.823 60.944 413.567 60.624 413.567 60.096C413.567 59.52 414.079 58.976 415.183 58.976C416.527 58.976 416.975 59.824 417.167 60.352L418.399 59.904C418.079 58.864 417.151 57.856 415.183 57.856C413.631 57.856 412.287 58.816 412.287 60.24C412.287 61.744 413.439 62.24 414.751 62.496L415.663 62.672C416.815 62.896 417.183 63.312 417.183 63.904C417.183 64.656 416.543 65.056 415.391 65.056C414.143 65.056 413.503 64.464 413.263 63.52L411.951 63.952C412.303 65.472 413.775 66.224 415.391 66.224ZM420.578 69.12H421.938V66.32V64.768C422.322 65.44 423.058 66.224 424.45 66.224C426.274 66.224 427.666 64.64 427.666 62.032C427.666 59.424 426.274 57.856 424.45 57.856C423.058 57.856 422.29 58.624 421.906 59.296V58.08H420.578V69.12ZM424.098 65.024C422.802 65.024 421.858 64.016 421.858 62.016C421.858 60.016 422.802 59.056 424.098 59.056C425.362 59.056 426.274 59.808 426.274 62.016C426.274 64.224 425.362 65.024 424.098 65.024ZM432.39 66.224C433.782 66.224 434.55 65.456 434.934 64.784V66H436.262V58.08H434.902V59.312C434.518 58.64 433.782 57.856 432.39 57.856C430.566 57.856 429.174 59.44 429.174 62.048C429.174 64.656 430.566 66.224 432.39 66.224ZM432.742 65.024C431.478 65.024 430.566 64.272 430.566 62.064C430.566 59.856 431.478 59.056 432.742 59.056C434.038 59.056 434.982 60.064 434.982 62.064C434.982 64.064 434.038 65.024 432.742 65.024ZM442.105 66.224C443.881 66.224 445.033 65.184 445.545 63.712L444.265 63.264C444.009 64.128 443.417 65.024 442.105 65.024C440.793 65.024 439.769 64.064 439.769 62.032C439.769 60.048 440.825 59.056 442.089 59.056C443.241 59.056 443.817 59.808 444.073 60.56L445.337 60.144C444.969 58.912 443.881 57.856 442.089 57.856C439.897 57.856 438.345 59.584 438.345 62.032C438.345 64.592 439.817 66.224 442.105 66.224ZM447.312 56.528H448.752V54.8H447.312V56.528ZM447.36 66H448.72V58.08H447.36V66ZM451.407 66H452.767V62.64C452.767 61.472 452.815 59.056 454.991 59.056C456.047 59.056 456.735 59.664 456.735 61.152V66H458.095V60.832C458.095 59.072 457.295 57.856 455.327 57.856C453.615 57.856 452.847 59.072 452.735 59.424V58.08H451.407V66ZM461.952 69.12H465.648C466.992 69.12 468.128 68.416 468.128 66.944C468.128 65.616 467.136 64.752 465.616 64.752H462.16C461.6 64.752 461.488 64.464 461.488 64.208C461.488 63.92 461.776 63.616 462.208 63.424C462.64 63.68 463.136 63.728 463.68 63.728C465.44 63.728 466.64 62.56 466.768 60.768L466.8 60.336C466.864 59.408 467.136 59.232 467.856 59.232H468.464V58.08H467.616C466.848 58.08 466.48 58.608 466.32 59.216C465.984 58.656 465.152 57.856 463.68 57.856C461.856 57.856 460.528 59.152 460.528 60.8C460.528 61.792 460.96 62.512 461.408 62.912C460.896 63.28 460.24 63.808 460.24 64.592C460.24 65.216 460.496 65.584 460.944 65.856C460.464 66.128 459.888 66.72 459.888 67.52C459.888 68.448 460.432 69.12 461.952 69.12ZM463.68 62.608C462.608 62.608 461.904 61.888 461.904 60.8C461.904 59.712 462.608 58.976 463.68 58.976C464.752 58.976 465.456 59.712 465.456 60.8C465.456 61.888 464.752 62.608 463.68 62.608ZM462.416 67.904C461.584 67.904 461.136 67.728 461.136 67.072C461.136 66.528 461.488 66.176 461.76 66H465.504C466.128 66 466.752 66.128 466.752 66.944C466.752 67.76 466.128 67.904 465.504 67.904H462.416ZM469.62 61.776H474.036V60.336H469.62V61.776ZM479.157 66.224C481.157 66.224 482.309 65.28 482.309 63.792C482.309 61.984 480.437 61.504 479.637 61.344L478.725 61.168C477.589 60.944 477.333 60.624 477.333 60.096C477.333 59.52 477.845 58.976 478.949 58.976C480.293 58.976 480.741 59.824 480.933 60.352L482.165 59.904C481.845 58.864 480.917 57.856 478.949 57.856C477.397 57.856 476.053 58.816 476.053 60.24C476.053 61.744 477.205 62.24 478.517 62.496L479.429 62.672C480.581 62.896 480.949 63.312 480.949 63.904C480.949 64.656 480.309 65.056 479.157 65.056C477.909 65.056 477.269 64.464 477.029 63.52L475.717 63.952C476.069 65.472 477.541 66.224 479.157 66.224Z" fill="#6E6E78"/>
<path d="M360 55C360 54.4477 360.448 54 361 54C361.552 54 362 54.4477 362 55L360 55ZM361.707 125.207C361.317 125.598 360.683 125.598 360.293 125.207L353.929 118.843C353.538 118.453 353.538 117.819 353.929 117.429C354.319 117.038 354.953 117.038 355.343 117.429L361 123.086L366.657 117.429C367.047 117.038 367.681 117.038 368.071 117.429C368.462 117.819 368.462 118.453 368.071 118.843L361.707 125.207ZM362 55L362 124.5L360 124.5L360 55L362 55Z" fill="#DA372C"/>
<path d="M320.347 66H321.787V56.16H325.931V54.8H316.363V56.16H320.347V66ZM327.39 56.528H328.83V54.8H327.39V56.528ZM327.438 66H328.798V58.08H327.438V66ZM334.237 66H336.061V64.8H334.413C333.853 64.8 333.613 64.56 333.613 64V59.232H335.773V58.08H333.613V55.6H332.253V58.08H330.413V59.232H332.253V64.08C332.253 65.392 332.925 66 334.237 66ZM337.782 66H339.142V54.8H337.782V66ZM344.82 66.224C346.308 66.224 347.636 65.552 348.228 63.936L346.98 63.504C346.772 64.016 346.212 65.04 344.868 65.04C343.764 65.04 342.66 64.4 342.58 62.4H348.164C348.468 59.808 347.044 57.856 344.74 57.856C342.724 57.856 341.236 59.472 341.236 62.08C341.236 64.768 342.66 66.224 344.82 66.224ZM342.612 61.264C342.724 59.824 343.7 58.976 344.74 58.976C345.828 58.976 346.772 59.76 346.772 61.264H342.612Z" fill="#6E6E78"/>
<path d="M131.57 198H133.01V186.8H131.57V198ZM139.027 198.224C140.803 198.224 141.955 197.184 142.467 195.712L141.187 195.264C140.931 196.128 140.339 197.024 139.027 197.024C137.715 197.024 136.691 196.064 136.691 194.032C136.691 192.048 137.747 191.056 139.011 191.056C140.163 191.056 140.739 191.808 140.995 192.56L142.259 192.144C141.891 190.912 140.803 189.856 139.011 189.856C136.819 189.856 135.267 191.584 135.267 194.032C135.267 196.592 136.739 198.224 139.027 198.224ZM147.338 198.224C149.418 198.224 151.017 196.432 151.017 194.048C151.017 191.664 149.482 189.856 147.338 189.856C145.194 189.856 143.658 191.664 143.658 194.048C143.658 196.432 145.258 198.224 147.338 198.224ZM147.338 197.024C145.994 197.024 145.066 196.064 145.066 194.064C145.066 192.064 145.994 191.056 147.338 191.056C148.682 191.056 149.61 192.064 149.61 194.064C149.61 196.064 148.682 197.024 147.338 197.024ZM153.078 198H154.438V194.64C154.438 193.472 154.486 191.056 156.662 191.056C157.718 191.056 158.406 191.664 158.406 193.152V198H159.766V192.832C159.766 191.072 158.966 189.856 156.998 189.856C155.286 189.856 154.518 191.072 154.406 191.424V190.08H153.078V198Z" fill="#6E6E78"/>
<path d="M129 172C128.448 172 128 172.448 128 173C128 173.552 128.448 174 129 174L129 172ZM225.707 173.707C226.098 173.317 226.098 172.683 225.707 172.293L219.343 165.929C218.953 165.538 218.319 165.538 217.929 165.929C217.538 166.319 217.538 166.953 217.929 167.343L223.586 173L217.929 178.657C217.538 179.047 217.538 179.681 217.929 180.071C218.319 180.462 218.953 180.462 219.343 180.071L225.707 173.707ZM129 174L225 174L225 172L129 172L129 174Z" fill="#DA372C"/>
<path d="M360 289C360 289.552 360.448 290 361 290C361.552 290 362 289.552 362 289L360 289ZM361.707 218.793C361.317 218.402 360.683 218.402 360.293 218.793L353.929 225.157C353.538 225.547 353.538 226.181 353.929 226.571C354.319 226.962 354.953 226.962 355.343 226.571L361 220.914L366.657 226.571C367.047 226.962 367.681 226.962 368.071 226.571C368.462 226.181 368.462 225.547 368.071 225.157L361.707 218.793ZM362 289L362 219.5L360 219.5L360 289L362 289Z" fill="#DA372C"/>
<path d="M378.024 289.224C380.616 289.224 382.04 287.832 382.04 285.88C382.04 284.184 380.76 283.144 378.968 282.728L377.4 282.36C376.136 282.056 375.56 281.608 375.56 280.648C375.56 279.64 376.392 278.92 377.768 278.92C379.592 278.92 380.248 280.136 380.488 280.824L381.864 280.152C381.544 279.112 380.328 277.576 377.944 277.576C375.672 277.576 374.136 278.904 374.136 280.728C374.136 282.6 375.288 283.416 376.952 283.8L378.456 284.152C379.848 284.472 380.536 285.032 380.536 286.008C380.536 287.128 379.656 287.88 378.12 287.88C376.36 287.88 375.432 286.808 374.984 285.496L373.576 286.184C374.12 287.928 375.64 289.224 378.024 289.224ZM386.716 289.224C388.364 289.224 389.116 288.056 389.356 287.624V289H390.684V281.08H389.324V284.44C389.324 285.656 389.292 288.024 387.148 288.024C386.108 288.024 385.436 287.416 385.436 285.928V281.08H384.076V286.248C384.076 288.008 384.86 289.224 386.716 289.224ZM393.375 292.12H394.735V289.32V287.768C395.119 288.44 395.855 289.224 397.247 289.224C399.071 289.224 400.463 287.64 400.463 285.032C400.463 282.424 399.071 280.856 397.247 280.856C395.855 280.856 395.087 281.624 394.703 282.296V281.08H393.375V292.12ZM396.895 288.024C395.599 288.024 394.655 287.016 394.655 285.016C394.655 283.016 395.599 282.056 396.895 282.056C398.159 282.056 399.071 282.808 399.071 285.016C399.071 287.224 398.159 288.024 396.895 288.024ZM402.563 292.12H403.923V289.32V287.768C404.307 288.44 405.043 289.224 406.435 289.224C408.259 289.224 409.651 287.64 409.651 285.032C409.651 282.424 408.259 280.856 406.435 280.856C405.043 280.856 404.275 281.624 403.891 282.296V281.08H402.563V292.12ZM406.083 288.024C404.787 288.024 403.843 287.016 403.843 285.016C403.843 283.016 404.787 282.056 406.083 282.056C407.347 282.056 408.259 282.808 408.259 285.016C408.259 287.224 407.347 288.024 406.083 288.024ZM414.806 289.224C416.886 289.224 418.486 287.432 418.486 285.048C418.486 282.664 416.95 280.856 414.806 280.856C412.662 280.856 411.126 282.664 411.126 285.048C411.126 287.432 412.726 289.224 414.806 289.224ZM414.806 288.024C413.462 288.024 412.534 287.064 412.534 285.064C412.534 283.064 413.462 282.056 414.806 282.056C416.15 282.056 417.078 283.064 417.078 285.064C417.078 287.064 416.15 288.024 414.806 288.024ZM420.547 289H421.907V285.368C421.907 283.512 422.643 282.376 424.435 282.376C424.755 282.376 425.027 282.408 425.283 282.456V281.064C425.091 281.016 424.851 280.968 424.467 280.968C422.963 280.968 422.147 282.136 421.891 282.728V281.08H420.547V289ZM429.643 289H431.467V287.8H429.819C429.259 287.8 429.019 287.56 429.019 287V282.232H431.179V281.08H429.019V278.6H427.659V281.08H425.819V282.232H427.659V287.08C427.659 288.392 428.331 289 429.643 289ZM433.14 279.528H434.58V277.8H433.14V279.528ZM433.188 289H434.548V281.08H433.188V289ZM437.235 289H438.595V285.64C438.595 284.472 438.643 282.056 440.819 282.056C441.875 282.056 442.563 282.664 442.563 284.152V289H443.923V283.832C443.923 282.072 443.123 280.856 441.155 280.856C439.443 280.856 438.675 282.072 438.563 282.424V281.08H437.235V289ZM447.78 292.12H451.476C452.82 292.12 453.956 291.416 453.956 289.944C453.956 288.616 452.964 287.752 451.444 287.752H447.988C447.428 287.752 447.316 287.464 447.316 287.208C447.316 286.92 447.604 286.616 448.036 286.424C448.468 286.68 448.964 286.728 449.508 286.728C451.268 286.728 452.468 285.56 452.596 283.768L452.628 283.336C452.692 282.408 452.964 282.232 453.684 282.232H454.292V281.08H453.444C452.676 281.08 452.308 281.608 452.148 282.216C451.812 281.656 450.98 280.856 449.508 280.856C447.684 280.856 446.356 282.152 446.356 283.8C446.356 284.792 446.788 285.512 447.236 285.912C446.724 286.28 446.068 286.808 446.068 287.592C446.068 288.216 446.324 288.584 446.772 288.856C446.292 289.128 445.716 289.72 445.716 290.52C445.716 291.448 446.26 292.12 447.78 292.12ZM449.508 285.608C448.436 285.608 447.732 284.888 447.732 283.8C447.732 282.712 448.436 281.976 449.508 281.976C450.58 281.976 451.284 282.712 451.284 283.8C451.284 284.888 450.58 285.608 449.508 285.608ZM448.244 290.904C447.412 290.904 446.964 290.728 446.964 290.072C446.964 289.528 447.316 289.176 447.588 289H451.332C451.956 289 452.58 289.128 452.58 289.944C452.58 290.76 451.956 290.904 451.332 290.904H448.244ZM462.502 289H464.326V287.8H462.678C462.118 287.8 461.878 287.56 461.878 287V282.232H464.038V281.08H461.878V278.6H460.518V281.08H458.678V282.232H460.518V287.08C460.518 288.392 461.19 289 462.502 289ZM468.961 289.224C470.449 289.224 471.777 288.552 472.369 286.936L471.121 286.504C470.913 287.016 470.353 288.04 469.009 288.04C467.905 288.04 466.801 287.4 466.721 285.4H472.305C472.609 282.808 471.185 280.856 468.881 280.856C466.865 280.856 465.377 282.472 465.377 285.08C465.377 287.768 466.801 289.224 468.961 289.224ZM466.753 284.264C466.865 282.824 467.841 281.976 468.881 281.976C469.969 281.976 470.913 282.76 470.913 284.264H466.753ZM473.367 289H474.855L475.863 287.496L476.871 285.976C477.095 286.328 477.271 286.6 477.863 287.496L478.855 289H480.487L477.735 284.968L480.327 281.08H478.823L477.959 282.44C477.351 283.384 477.159 283.672 476.935 283.992C476.743 283.672 476.567 283.384 475.975 282.44L475.111 281.08H473.527L476.087 284.952L473.367 289ZM484.893 289H486.717V287.8H485.069C484.509 287.8 484.269 287.56 484.269 287V282.232H486.429V281.08H484.269V278.6H482.909V281.08H481.069V282.232H482.909V287.08C482.909 288.392 483.581 289 484.893 289Z" fill="#6E6E78"/>
</svg>
