<svg width="958" height="346" viewBox="0 0 958 346" fill="none" xmlns="http://www.w3.org/2000/svg">
<path d="M271.912 140H276.072V130.24H286.568V140H290.728V117.6H286.568V126.656H276.072V117.6H271.912V140ZM302.686 140.48C307.326 140.48 310.718 137.088 310.718 132.032C310.718 127.04 307.358 123.584 302.686 123.584C298.014 123.584 294.654 127.04 294.654 132.032C294.654 136.896 298.046 140.48 302.686 140.48ZM302.686 137.312C300.318 137.312 298.686 135.648 298.686 132.096C298.686 128.544 300.318 126.752 302.686 126.752C305.054 126.752 306.654 128.544 306.654 132.096C306.654 135.648 305.054 137.312 302.686 137.312ZM317.633 140H322.017L324.065 132.736C324.865 129.984 325.153 128.992 325.409 127.968C325.665 128.928 325.985 129.984 326.753 132.768L328.801 140H333.441L338.657 124.064H334.657L333.057 129.568C331.841 133.984 331.457 135.36 331.265 136.16C331.009 135.36 330.625 133.952 329.761 130.752L327.841 124.064H323.233L321.409 130.464C320.449 133.888 320.065 135.36 319.841 136.192C319.585 135.328 319.201 133.824 318.145 129.92L316.513 124.064H312.481L317.633 140ZM348.806 140H352.71V132.128C352.71 130.272 352.838 126.88 356.07 126.88C357.766 126.88 358.918 127.808 358.918 130.272V140H362.758V132.128C362.758 130.272 362.822 126.88 366.086 126.88C367.814 126.88 368.934 127.808 368.934 130.272V140H372.838V129.376C372.838 125.376 370.662 123.584 367.462 123.584C364.934 123.584 363.27 124.768 362.118 126.592C361.222 124.768 359.622 123.584 357.382 123.584C355.11 123.584 353.478 124.8 352.614 126.4V124.064H348.806V140ZM381.527 140.48C384.215 140.48 385.911 139.136 386.871 137.632C387.063 139.04 387.767 140 389.783 140H392.791V136.928H391.287C390.455 136.928 390.327 136.736 390.327 135.968V129.536C390.327 125.632 387.927 123.584 383.543 123.584C379.063 123.584 376.567 125.92 376.183 128.288L379.799 129.216C380.183 127.808 381.175 126.56 383.543 126.56C385.591 126.56 386.487 127.488 386.487 129.056V129.6C381.207 130.08 376.439 131.456 376.439 135.904C376.439 138.72 378.551 140.48 381.527 140.48ZM382.807 137.536C381.207 137.536 380.407 136.736 380.407 135.52C380.407 133.248 383.191 132.544 386.487 132.16V133.44C386.487 136.288 384.695 137.536 382.807 137.536ZM395.337 140H399.241V132.736C399.241 130.784 399.305 126.848 402.889 126.848C404.649 126.848 405.769 127.872 405.769 130.272V140H409.673V129.408C409.673 125.92 408.105 123.584 404.297 123.584C401.193 123.584 399.657 125.664 399.145 126.592V124.064H395.337V140ZM424.357 124.064L422.149 130.88L420.741 135.168C420.453 134.496 420.069 133.696 418.917 130.912L415.973 124.064H411.749L419.173 139.872L418.693 141.312C418.213 142.624 417.669 143.008 416.581 143.008H412.805V146.24H416.965C419.749 146.24 421.029 145.12 421.957 142.4L428.453 124.064H424.357ZM444.314 140.48C447.066 140.48 448.794 138.944 449.53 137.76V140H453.338V117.6H449.434V123.424V126.304C448.698 125.12 447.034 123.584 444.314 123.584C440.282 123.584 437.562 126.912 437.562 132.032C437.562 137.152 440.282 140.48 444.314 140.48ZM445.594 137.408C443.322 137.408 441.626 136.032 441.626 132.032C441.626 128.064 443.322 126.656 445.594 126.656C447.962 126.656 449.626 128.448 449.626 132.032C449.626 135.648 447.962 137.408 445.594 137.408ZM464.999 140.48C469.639 140.48 473.031 137.088 473.031 132.032C473.031 127.04 469.671 123.584 464.999 123.584C460.327 123.584 456.967 127.04 456.967 132.032C456.967 136.896 460.359 140.48 464.999 140.48ZM464.999 137.312C462.631 137.312 460.999 135.648 460.999 132.096C460.999 128.544 462.631 126.752 464.999 126.752C467.367 126.752 468.967 128.544 468.967 132.096C468.967 135.648 467.367 137.312 464.999 137.312ZM476.649 140H480.553V132.736C480.553 130.784 480.617 126.848 484.201 126.848C485.961 126.848 487.081 127.872 487.081 130.272V140H490.985V129.408C490.985 125.92 489.417 123.584 485.609 123.584C482.505 123.584 480.969 125.664 480.457 126.592V124.064H476.649V140ZM500.42 140.48C503.556 140.48 505.028 138.432 505.668 137.376V140H509.54V124.064H505.636V131.552C505.636 134.112 505.06 137.216 502.02 137.216C500.324 137.216 499.268 136.224 499.268 133.76V124.064H495.364V134.688C495.364 138.176 497.124 140.48 500.42 140.48ZM519.906 140H524.642V136.8H521.25C520.226 136.8 519.778 136.352 519.778 135.328V127.104H524.002V124.064H519.778V119.04H515.874V124.064H512.418V127.104H515.874V135.936C515.874 138.464 517.314 140 519.906 140ZM533.631 140.448C538.079 140.448 540.671 138.432 540.671 135.328C540.671 132.064 537.727 130.848 535.199 130.368L533.151 129.952C531.231 129.6 530.719 129.088 530.719 128.192C530.719 127.232 531.583 126.4 533.343 126.4C535.327 126.4 536.383 127.616 536.831 128.832L540.127 127.424C539.455 125.632 537.471 123.584 533.471 123.584C529.631 123.584 527.007 125.568 527.007 128.544C527.007 131.648 529.055 132.704 532.159 133.312L534.271 133.728C536.159 134.112 536.639 134.816 536.639 135.712C536.639 136.832 535.647 137.568 533.791 137.568C530.911 137.568 530.143 135.616 529.951 134.72L526.335 135.872C527.039 138.784 530.047 140.448 533.631 140.448ZM547.706 132.352H551.386C551.386 130.944 552.026 130.048 553.306 129.024C555.45 127.392 557.082 125.824 557.082 123.072C557.082 119.808 554.522 117.152 549.978 117.152C545.402 117.152 542.746 119.808 542.618 124.192L546.49 124.8C546.586 121.92 547.77 120.512 549.882 120.512C551.738 120.512 552.954 121.6 552.954 123.36C552.954 124.928 551.834 125.92 550.65 126.848C548.858 128.256 547.706 129.344 547.706 132.352ZM547.194 140H551.962V135.328H547.194V140Z" fill="#1D1D21"/>
<rect x="269.5" y="165.5" width="419" height="75" rx="7.5" fill="white"/>
<path d="M294.736 212H307.644V209.62H301.988H297.648C301.036 207.464 303.556 205.616 305.236 203.684C306.608 202.088 307.392 200.24 307.392 198.084C307.392 194.612 305.012 192.008 301.008 192.008C297.116 192.008 294.568 194.556 294.568 198.364L297.144 198.7C297.144 195.76 298.964 194.332 301.008 194.332C303.024 194.332 304.704 195.704 304.704 198.364C304.704 202.564 299.608 206.092 294.736 209.172V212ZM311.007 215.78H312.631L314.703 212V208.5H311.343V212H313.107L311.007 215.78ZM325.515 212.392C330.163 212.392 333.271 208.836 333.271 202.116C333.271 195.368 329.715 192.008 325.515 192.008C321.287 192.008 317.703 195.368 317.703 202.116C317.703 208.836 320.839 212.392 325.515 212.392ZM325.515 210.096C322.295 210.096 320.363 207.184 320.363 202.116C320.363 197.496 322.351 194.304 325.515 194.304C328.651 194.304 330.611 197.496 330.611 202.116C330.611 207.184 328.707 210.096 325.515 210.096ZM344.382 212.392C349.03 212.392 352.138 208.836 352.138 202.116C352.138 195.368 348.582 192.008 344.382 192.008C340.154 192.008 336.57 195.368 336.57 202.116C336.57 208.836 339.706 212.392 344.382 212.392ZM344.382 210.096C341.162 210.096 339.23 207.184 339.23 202.116C339.23 197.496 341.218 194.304 344.382 194.304C347.518 194.304 349.478 197.496 349.478 202.116C349.478 207.184 347.574 210.096 344.382 210.096ZM363.249 212.392C367.897 212.392 371.005 208.836 371.005 202.116C371.005 195.368 367.449 192.008 363.249 192.008C359.021 192.008 355.437 195.368 355.437 202.116C355.437 208.836 358.573 212.392 363.249 212.392ZM363.249 210.096C360.029 210.096 358.097 207.184 358.097 202.116C358.097 197.496 360.085 194.304 363.249 194.304C366.385 194.304 368.345 197.496 368.345 202.116C368.345 207.184 366.441 210.096 363.249 210.096Z" fill="#1D1D21"/>
<path fill-rule="evenodd" clip-rule="evenodd" d="M649 205.667L638.49 195.657C638.103 195.289 637.497 195.289 637.11 195.657L635.76 196.943C635.347 197.337 635.347 197.997 635.76 198.391L649 211L662.222 198.232C662.642 197.827 662.627 197.15 662.191 196.764L660.888 195.609C660.499 195.265 659.911 195.275 659.535 195.634L649 205.667Z" fill="#1D1D21"/>
<rect x="269.5" y="165.5" width="419" height="75" rx="7.5" stroke="#C1C1C8"/>
<rect opacity="0.2" x="269" y="153" width="420" height="12" fill="#DA372C"/>
<path d="M792 204.018C792.562 204.018 793.018 203.562 793.018 203C793.018 202.438 792.562 201.982 792 201.982L792 204.018ZM676.28 202.28C675.883 202.678 675.883 203.322 676.28 203.72L682.758 210.197C683.155 210.595 683.8 210.595 684.197 210.197C684.595 209.8 684.595 209.155 684.197 208.758L678.439 203L684.197 197.242C684.595 196.845 684.595 196.2 684.197 195.803C683.8 195.405 683.155 195.405 682.758 195.803L676.28 202.28ZM792 201.982L677 201.982L677 204.018L792 204.018L792 201.982Z" fill="#DA372C"/>
<path d="M809.728 208.224C812.544 208.224 813.968 206.576 813.968 203.68V196.8H812.528V203.472C812.528 205.52 811.664 206.848 809.728 206.848C807.792 206.848 806.928 205.536 806.928 203.472V196.8H805.488V203.68C805.488 206.816 807.136 208.224 809.728 208.224ZM817.101 208H818.541V196.8H817.101V208ZM825.624 198.528H827.064V196.8H825.624V198.528ZM825.672 208H827.032V200.08H825.672V208ZM829.719 208H831.079V204.64C831.079 203.472 831.127 201.056 833.303 201.056C834.359 201.056 835.047 201.664 835.047 203.152V208H836.407V202.832C836.407 201.072 835.607 199.856 833.639 199.856C831.927 199.856 831.159 201.072 831.047 201.424V200.08H829.719V208ZM841.609 208.224C843.001 208.224 843.769 207.456 844.153 206.784V208H845.481V196.8H844.121V199.76V201.312C843.737 200.64 843.001 199.856 841.609 199.856C839.785 199.856 838.393 201.44 838.393 204.048C838.393 206.656 839.785 208.224 841.609 208.224ZM841.961 207.024C840.697 207.024 839.785 206.272 839.785 204.064C839.785 201.856 840.697 201.056 841.961 201.056C843.257 201.056 844.201 202.064 844.201 204.064C844.201 206.064 843.257 207.024 841.961 207.024ZM848.124 198.528H849.564V196.8H848.124V198.528ZM848.172 208H849.532V200.08H848.172V208ZM855.371 208.224C857.147 208.224 858.299 207.184 858.811 205.712L857.531 205.264C857.275 206.128 856.683 207.024 855.371 207.024C854.059 207.024 853.035 206.064 853.035 204.032C853.035 202.048 854.091 201.056 855.355 201.056C856.507 201.056 857.083 201.808 857.339 202.56L858.603 202.144C858.235 200.912 857.147 199.856 855.355 199.856C853.163 199.856 851.611 201.584 851.611 204.032C851.611 206.592 853.083 208.224 855.371 208.224ZM863.249 208.224C864.641 208.224 865.409 207.456 865.793 206.784V208H867.121V200.08H865.761V201.312C865.377 200.64 864.641 199.856 863.249 199.856C861.425 199.856 860.033 201.44 860.033 204.048C860.033 206.656 861.425 208.224 863.249 208.224ZM863.601 207.024C862.337 207.024 861.425 206.272 861.425 204.064C861.425 201.856 862.337 201.056 863.601 201.056C864.897 201.056 865.841 202.064 865.841 204.064C865.841 206.064 864.897 207.024 863.601 207.024ZM872.565 208H874.389V206.8H872.741C872.181 206.8 871.941 206.56 871.941 206V201.232H874.101V200.08H871.941V197.6H870.581V200.08H868.741V201.232H870.581V206.08C870.581 207.392 871.253 208 872.565 208ZM879.088 208.224C881.168 208.224 882.767 206.432 882.767 204.048C882.767 201.664 881.232 199.856 879.088 199.856C876.944 199.856 875.408 201.664 875.408 204.048C875.408 206.432 877.008 208.224 879.088 208.224ZM879.088 207.024C877.744 207.024 876.816 206.064 876.816 204.064C876.816 202.064 877.744 201.056 879.088 201.056C880.432 201.056 881.36 202.064 881.36 204.064C881.36 206.064 880.432 207.024 879.088 207.024ZM884.828 208H886.188V204.368C886.188 202.512 886.924 201.376 888.716 201.376C889.036 201.376 889.308 201.408 889.564 201.456V200.064C889.372 200.016 889.132 199.968 888.748 199.968C887.244 199.968 886.428 201.136 886.172 201.728V200.08H884.828V208Z" fill="#6E6E78"/>
<path d="M792 160C792.552 160 793 159.552 793 159C793 158.448 792.552 158 792 158V160ZM704.293 158.293C703.902 158.683 703.902 159.317 704.293 159.707L710.657 166.071C711.047 166.462 711.681 166.462 712.071 166.071C712.462 165.681 712.462 165.047 712.071 164.657L706.414 159L712.071 153.343C712.462 152.953 712.462 152.319 712.071 151.929C711.681 151.538 711.047 151.538 710.657 151.929L704.293 158.293ZM792 158H705V160H792V158Z" fill="#DA372C"/>
<path d="M808.256 165.68H809.456V164.208C811.728 164.032 812.976 162.72 812.976 160.896C812.976 159.2 811.712 158.24 809.936 157.792L809.456 157.664V153.952C810.752 154.208 811.264 155.2 811.472 155.792L812.8 155.136C812.512 154.192 811.472 152.832 809.456 152.608V151.12H808.256V152.608C806.352 152.832 805.088 154.064 805.088 155.712C805.088 157.568 806.24 158.384 807.888 158.736L808.256 158.816V162.848C807.008 162.576 806.256 161.664 805.888 160.544L804.528 161.2C805.024 162.768 806.288 163.952 808.256 164.192V165.68ZM808.256 157.392C807.008 157.072 806.464 156.592 806.464 155.632C806.464 154.72 807.136 154.032 808.256 153.904V155.968V157.392ZM809.456 162.912V160.848V159.088C810.848 159.408 811.52 160.032 811.52 161.024C811.52 162.064 810.768 162.784 809.456 162.912ZM817.672 164.224C819.672 164.224 820.824 163.28 820.824 161.792C820.824 159.984 818.952 159.504 818.152 159.344L817.24 159.168C816.104 158.944 815.848 158.624 815.848 158.096C815.848 157.52 816.36 156.976 817.464 156.976C818.808 156.976 819.256 157.824 819.448 158.352L820.68 157.904C820.36 156.864 819.432 155.856 817.464 155.856C815.912 155.856 814.568 156.816 814.568 158.24C814.568 159.744 815.72 160.24 817.032 160.496L817.944 160.672C819.096 160.896 819.464 161.312 819.464 161.904C819.464 162.656 818.824 163.056 817.672 163.056C816.424 163.056 815.784 162.464 815.544 161.52L814.232 161.952C814.584 163.472 816.056 164.224 817.672 164.224ZM822.86 167.12H824.22V164.32V162.768C824.604 163.44 825.34 164.224 826.732 164.224C828.556 164.224 829.948 162.64 829.948 160.032C829.948 157.424 828.556 155.856 826.732 155.856C825.34 155.856 824.572 156.624 824.188 157.296V156.08H822.86V167.12ZM826.38 163.024C825.084 163.024 824.14 162.016 824.14 160.016C824.14 158.016 825.084 157.056 826.38 157.056C827.644 157.056 828.556 157.808 828.556 160.016C828.556 162.224 827.644 163.024 826.38 163.024ZM834.671 164.224C836.063 164.224 836.831 163.456 837.215 162.784V164H838.543V156.08H837.183V157.312C836.799 156.64 836.063 155.856 834.671 155.856C832.847 155.856 831.455 157.44 831.455 160.048C831.455 162.656 832.847 164.224 834.671 164.224ZM835.023 163.024C833.759 163.024 832.847 162.272 832.847 160.064C832.847 157.856 833.759 157.056 835.023 157.056C836.319 157.056 837.263 158.064 837.263 160.064C837.263 162.064 836.319 163.024 835.023 163.024ZM844.387 164.224C846.163 164.224 847.315 163.184 847.827 161.712L846.547 161.264C846.291 162.128 845.699 163.024 844.387 163.024C843.075 163.024 842.051 162.064 842.051 160.032C842.051 158.048 843.107 157.056 844.371 157.056C845.523 157.056 846.099 157.808 846.355 158.56L847.619 158.144C847.251 156.912 846.163 155.856 844.371 155.856C842.179 155.856 840.627 157.584 840.627 160.032C840.627 162.592 842.099 164.224 844.387 164.224ZM849.593 154.528H851.033V152.8H849.593V154.528ZM849.641 164H851.001V156.08H849.641V164ZM853.688 164H855.048V160.64C855.048 159.472 855.096 157.056 857.272 157.056C858.328 157.056 859.016 157.664 859.016 159.152V164H860.376V158.832C860.376 157.072 859.576 155.856 857.608 155.856C855.896 155.856 855.128 157.072 855.016 157.424V156.08H853.688V164ZM864.233 167.12H867.929C869.273 167.12 870.409 166.416 870.409 164.944C870.409 163.616 869.417 162.752 867.897 162.752H864.441C863.881 162.752 863.769 162.464 863.769 162.208C863.769 161.92 864.057 161.616 864.489 161.424C864.921 161.68 865.417 161.728 865.961 161.728C867.721 161.728 868.921 160.56 869.049 158.768L869.081 158.336C869.145 157.408 869.417 157.232 870.137 157.232H870.745V156.08H869.897C869.129 156.08 868.761 156.608 868.601 157.216C868.265 156.656 867.433 155.856 865.961 155.856C864.137 155.856 862.809 157.152 862.809 158.8C862.809 159.792 863.241 160.512 863.689 160.912C863.177 161.28 862.521 161.808 862.521 162.592C862.521 163.216 862.777 163.584 863.225 163.856C862.745 164.128 862.169 164.72 862.169 165.52C862.169 166.448 862.713 167.12 864.233 167.12ZM865.961 160.608C864.889 160.608 864.185 159.888 864.185 158.8C864.185 157.712 864.889 156.976 865.961 156.976C867.033 156.976 867.737 157.712 867.737 158.8C867.737 159.888 867.033 160.608 865.961 160.608ZM864.697 165.904C863.865 165.904 863.417 165.728 863.417 165.072C863.417 164.528 863.769 164.176 864.041 164H867.785C868.409 164 869.033 164.128 869.033 164.944C869.033 165.76 868.409 165.904 867.785 165.904H864.697ZM871.901 159.776H876.317V158.336H871.901V159.776ZM877.367 164H878.855L879.863 162.496L880.871 160.976C881.095 161.328 881.271 161.6 881.863 162.496L882.855 164H884.487L881.735 159.968L884.327 156.08H882.823L881.959 157.44C881.351 158.384 881.159 158.672 880.935 158.992C880.743 158.672 880.567 158.384 879.975 157.44L879.111 156.08H877.527L880.087 159.952L877.367 164ZM888.813 164.224C890.813 164.224 891.965 163.28 891.965 161.792C891.965 159.984 890.093 159.504 889.293 159.344L888.381 159.168C887.245 158.944 886.989 158.624 886.989 158.096C886.989 157.52 887.501 156.976 888.605 156.976C889.949 156.976 890.397 157.824 890.589 158.352L891.821 157.904C891.501 156.864 890.573 155.856 888.605 155.856C887.053 155.856 885.709 156.816 885.709 158.24C885.709 159.744 886.861 160.24 888.173 160.496L889.085 160.672C890.237 160.896 890.605 161.312 890.605 161.904C890.605 162.656 889.965 163.056 888.813 163.056C887.565 163.056 886.925 162.464 886.685 161.52L885.373 161.952C885.725 163.472 887.197 164.224 888.813 164.224Z" fill="#6E6E78"/>
<path d="M182 128C181.448 128 181 128.448 181 129C181 129.552 181.448 130 182 130V128ZM257.707 129.707C258.098 129.317 258.098 128.683 257.707 128.293L251.343 121.929C250.953 121.538 250.319 121.538 249.929 121.929C249.538 122.319 249.538 122.953 249.929 123.343L255.586 129L249.929 134.657C249.538 135.047 249.538 135.681 249.929 136.071C250.319 136.462 250.953 136.462 251.343 136.071L257.707 129.707ZM182 130H257V128H182V130Z" fill="#DA372C"/>
<path d="M131.429 134H138.901V132.608H132.869V122.8H131.429V134ZM143.031 134.224C144.423 134.224 145.191 133.456 145.575 132.784V134H146.903V126.08H145.543V127.312C145.159 126.64 144.423 125.856 143.031 125.856C141.207 125.856 139.815 127.44 139.815 130.048C139.815 132.656 141.207 134.224 143.031 134.224ZM143.383 133.024C142.119 133.024 141.207 132.272 141.207 130.064C141.207 127.856 142.119 127.056 143.383 127.056C144.679 127.056 145.623 128.064 145.623 130.064C145.623 132.064 144.679 133.024 143.383 133.024ZM153.466 134.224C155.29 134.224 156.682 132.64 156.682 130.032C156.682 127.424 155.29 125.856 153.466 125.856C152.074 125.856 151.338 126.624 150.954 127.296V125.76V122.8H149.594V134H150.922V132.768C151.306 133.44 152.074 134.224 153.466 134.224ZM153.114 133.024C151.818 133.024 150.874 132.016 150.874 130.016C150.874 128.016 151.818 127.056 153.114 127.056C154.378 127.056 155.29 127.808 155.29 130.016C155.29 132.224 154.378 133.024 153.114 133.024ZM161.774 134.224C163.262 134.224 164.59 133.552 165.182 131.936L163.934 131.504C163.726 132.016 163.166 133.04 161.822 133.04C160.718 133.04 159.614 132.4 159.534 130.4H165.118C165.422 127.808 163.998 125.856 161.694 125.856C159.678 125.856 158.19 127.472 158.19 130.08C158.19 132.768 159.614 134.224 161.774 134.224ZM159.566 129.264C159.678 127.824 160.654 126.976 161.694 126.976C162.782 126.976 163.726 127.76 163.726 129.264H159.566ZM167.297 134H168.657V122.8H167.297V134Z" fill="#6E6E78"/>
<path d="M182 202C181.448 202 181 202.448 181 203C181 203.552 181.448 204 182 204L182 202ZM283.707 203.707C284.098 203.317 284.098 202.683 283.707 202.293L277.343 195.929C276.953 195.538 276.319 195.538 275.929 195.929C275.538 196.319 275.538 196.953 275.929 197.343L281.586 203L275.929 208.657C275.538 209.047 275.538 209.681 275.929 210.071C276.319 210.462 276.953 210.462 277.343 210.071L283.707 203.707ZM182 204L283 204L283 202L182 202L182 204Z" fill="#DA372C"/>
<path d="M133.408 208H135.568L139.184 196.8H137.6L135.2 204.464L134.496 206.688L133.808 204.448L131.44 196.8H129.84L133.408 208ZM143.031 208.224C144.423 208.224 145.191 207.456 145.575 206.784V208H146.903V200.08H145.543V201.312C145.159 200.64 144.423 199.856 143.031 199.856C141.207 199.856 139.815 201.44 139.815 204.048C139.815 206.656 141.207 208.224 143.031 208.224ZM143.383 207.024C142.119 207.024 141.207 206.272 141.207 204.064C141.207 201.856 142.119 201.056 143.383 201.056C144.679 201.056 145.623 202.064 145.623 204.064C145.623 206.064 144.679 207.024 143.383 207.024ZM149.594 208H150.954V196.8H149.594V208ZM156.169 208.224C157.817 208.224 158.569 207.056 158.809 206.624V208H160.137V200.08H158.777V203.44C158.777 204.656 158.745 207.024 156.601 207.024C155.561 207.024 154.889 206.416 154.889 204.928V200.08H153.529V205.248C153.529 207.008 154.313 208.224 156.169 208.224ZM165.82 208.224C167.308 208.224 168.636 207.552 169.228 205.936L167.98 205.504C167.772 206.016 167.212 207.04 165.868 207.04C164.764 207.04 163.66 206.4 163.58 204.4H169.164C169.468 201.808 168.044 199.856 165.74 199.856C163.724 199.856 162.236 201.472 162.236 204.08C162.236 206.768 163.66 208.224 165.82 208.224ZM163.612 203.264C163.724 201.824 164.7 200.976 165.74 200.976C166.828 200.976 167.772 201.76 167.772 203.264H163.612Z" fill="#6E6E78"/>
</svg>
