<svg width="958" height="346" viewBox="0 0 958 346" fill="none" xmlns="http://www.w3.org/2000/svg">
<rect x="375" y="135" width="207" height="76" rx="8" fill="#1662DD"/>
<path d="M405.548 182H414.732C418.596 182 421.62 180.096 421.62 176.568C421.62 174.02 419.716 172.2 417.196 171.752C419.38 171.164 420.976 169.568 420.976 167.16C420.976 164.332 418.82 162.4 414.564 162.4H405.548V182ZM409.188 170.324V165.508H414.088C416.048 165.508 417.28 166.208 417.28 167.86C417.28 169.512 416.048 170.324 414.088 170.324H409.188ZM409.188 178.892V173.376H414.2C416.384 173.376 417.812 174.272 417.812 176.12C417.812 177.996 416.384 178.892 414.2 178.892H409.188ZM429.262 182.42C432.006 182.42 433.294 180.628 433.854 179.704V182H437.242V168.056H433.826V174.608C433.826 176.848 433.322 179.564 430.662 179.564C429.178 179.564 428.254 178.696 428.254 176.54V168.056H424.838V177.352C424.838 180.404 426.378 182.42 429.262 182.42ZM450.317 168.056L448.385 174.02L447.153 177.772C446.901 177.184 446.565 176.484 445.557 174.048L442.981 168.056H439.284L445.781 181.888L445.361 183.148C444.941 184.296 444.465 184.632 443.513 184.632H440.209V187.46H443.849C446.285 187.46 447.405 186.48 448.217 184.1L453.901 168.056H450.317ZM467.779 182.42C470.187 182.42 471.699 181.076 472.343 180.04V182H475.675V162.4H472.259V167.496V170.016C471.615 168.98 470.159 167.636 467.779 167.636C464.251 167.636 461.871 170.548 461.871 175.028C461.871 179.508 464.251 182.42 467.779 182.42ZM468.899 179.732C466.911 179.732 465.427 178.528 465.427 175.028C465.427 171.556 466.911 170.324 468.899 170.324C470.971 170.324 472.427 171.892 472.427 175.028C472.427 178.192 470.971 179.732 468.899 179.732ZM485.878 182.42C489.938 182.42 492.906 179.452 492.906 175.028C492.906 170.66 489.966 167.636 485.878 167.636C481.79 167.636 478.85 170.66 478.85 175.028C478.85 179.284 481.818 182.42 485.878 182.42ZM485.878 179.648C483.806 179.648 482.378 178.192 482.378 175.084C482.378 171.976 483.806 170.408 485.878 170.408C487.95 170.408 489.35 171.976 489.35 175.084C489.35 178.192 487.95 179.648 485.878 179.648ZM496.072 182H499.488V175.644C499.488 173.936 499.544 170.492 502.68 170.492C504.22 170.492 505.2 171.388 505.2 173.488V182H508.616V172.732C508.616 169.68 507.244 167.636 503.912 167.636C501.196 167.636 499.852 169.456 499.404 170.268V168.056H496.072V182ZM516.871 182.42C519.615 182.42 520.903 180.628 521.463 179.704V182H524.851V168.056H521.435V174.608C521.435 176.848 520.931 179.564 518.271 179.564C516.787 179.564 515.863 178.696 515.863 176.54V168.056H512.447V177.352C512.447 180.404 513.987 182.42 516.871 182.42ZM533.922 182H538.066V179.2H535.098C534.202 179.2 533.81 178.808 533.81 177.912V170.716H537.506V168.056H533.81V163.66H530.394V168.056H527.37V170.716H530.394V178.444C530.394 180.656 531.654 182 533.922 182ZM545.931 182.392C549.823 182.392 552.091 180.628 552.091 177.912C552.091 175.056 549.515 173.992 547.303 173.572L545.511 173.208C543.831 172.9 543.383 172.452 543.383 171.668C543.383 170.828 544.139 170.1 545.679 170.1C547.415 170.1 548.339 171.164 548.731 172.228L551.615 170.996C551.027 169.428 549.291 167.636 545.791 167.636C542.431 167.636 540.135 169.372 540.135 171.976C540.135 174.692 541.927 175.616 544.643 176.148L546.491 176.512C548.143 176.848 548.563 177.464 548.563 178.248C548.563 179.228 547.695 179.872 546.071 179.872C543.551 179.872 542.879 178.164 542.711 177.38L539.547 178.388C540.163 180.936 542.795 182.392 545.931 182.392Z" fill="white"/>
<path d="M255 175C254.448 175 254 175.448 254 176C254 176.552 254.448 177 255 177L255 175ZM390.707 176.707C391.098 176.317 391.098 175.683 390.707 175.293L384.343 168.929C383.953 168.538 383.319 168.538 382.929 168.929C382.538 169.319 382.538 169.953 382.929 170.343L388.586 176L382.929 181.657C382.538 182.047 382.538 182.681 382.929 183.071C383.319 183.462 383.953 183.462 384.343 183.071L390.707 176.707ZM255 177L390 177L390 175L255 175L255 177Z" fill="#DA372C"/>
<path d="M256.648 135H261.672C263.608 135 265.288 134.072 265.288 131.912C265.288 130.248 263.976 129.384 262.84 129.16C263.8 128.968 264.92 128.12 264.92 126.568C264.92 124.936 263.8 123.8 261.448 123.8H256.648V135ZM258.088 128.52V125.16H261.32C262.584 125.16 263.4 125.704 263.4 126.76C263.4 127.816 262.584 128.52 261.32 128.52H258.088ZM258.088 133.64V129.864H261.464C262.888 129.864 263.736 130.568 263.736 131.72C263.736 132.872 262.888 133.64 261.464 133.64H258.088ZM270.06 135.224C271.708 135.224 272.46 134.056 272.7 133.624V135H274.028V127.08H272.668V130.44C272.668 131.656 272.636 134.024 270.492 134.024C269.452 134.024 268.78 133.416 268.78 131.928V127.08H267.42V132.248C267.42 134.008 268.204 135.224 270.06 135.224ZM279.471 135H281.295V133.8H279.647C279.087 133.8 278.847 133.56 278.847 133V128.232H281.007V127.08H278.847V124.6H277.487V127.08H275.647V128.232H277.487V133.08C277.487 134.392 278.159 135 279.471 135ZM285.768 135H287.592V133.8H285.944C285.384 133.8 285.144 133.56 285.144 133V128.232H287.304V127.08H285.144V124.6H283.784V127.08H281.944V128.232H283.784V133.08C283.784 134.392 284.456 135 285.768 135ZM292.291 135.224C294.371 135.224 295.971 133.432 295.971 131.048C295.971 128.664 294.435 126.856 292.291 126.856C290.147 126.856 288.611 128.664 288.611 131.048C288.611 133.432 290.211 135.224 292.291 135.224ZM292.291 134.024C290.947 134.024 290.019 133.064 290.019 131.064C290.019 129.064 290.947 128.056 292.291 128.056C293.635 128.056 294.563 129.064 294.563 131.064C294.563 133.064 293.635 134.024 292.291 134.024ZM298.032 135H299.392V131.64C299.392 130.472 299.44 128.056 301.616 128.056C302.672 128.056 303.36 128.664 303.36 130.152V135H304.72V129.832C304.72 128.072 303.92 126.856 301.952 126.856C300.24 126.856 299.472 128.072 299.36 128.424V127.08H298.032V135ZM260.216 162.224C262.04 162.224 263.432 160.64 263.432 158.032C263.432 155.424 262.04 153.856 260.216 153.856C258.824 153.856 258.088 154.624 257.704 155.296V153.76V150.8H256.344V162H257.672V160.768C258.056 161.44 258.824 162.224 260.216 162.224ZM259.864 161.024C258.568 161.024 257.624 160.016 257.624 158.016C257.624 156.016 258.568 155.056 259.864 155.056C261.128 155.056 262.04 155.808 262.04 158.016C262.04 160.224 261.128 161.024 259.864 161.024ZM268.156 162.224C269.548 162.224 270.316 161.456 270.7 160.784V162H272.028V154.08H270.668V155.312C270.284 154.64 269.548 153.856 268.156 153.856C266.332 153.856 264.94 155.44 264.94 158.048C264.94 160.656 266.332 162.224 268.156 162.224ZM268.508 161.024C267.244 161.024 266.332 160.272 266.332 158.064C266.332 155.856 267.244 155.056 268.508 155.056C269.804 155.056 270.748 156.064 270.748 158.064C270.748 160.064 269.804 161.024 268.508 161.024ZM277.871 162.224C279.647 162.224 280.799 161.184 281.311 159.712L280.031 159.264C279.775 160.128 279.183 161.024 277.871 161.024C276.559 161.024 275.535 160.064 275.535 158.032C275.535 156.048 276.591 155.056 277.855 155.056C279.007 155.056 279.583 155.808 279.839 156.56L281.103 156.144C280.735 154.912 279.647 153.856 277.855 153.856C275.663 153.856 274.111 155.584 274.111 158.032C274.111 160.592 275.583 162.224 277.871 162.224ZM288.997 162H290.741L286.933 157.392L290.501 154.08H288.693L284.485 158.16V155.568V150.8H283.125V162H284.485V159.664L285.989 158.288L288.997 162ZM293.327 165.12H297.023C298.367 165.12 299.503 164.416 299.503 162.944C299.503 161.616 298.511 160.752 296.991 160.752H293.535C292.975 160.752 292.863 160.464 292.863 160.208C292.863 159.92 293.151 159.616 293.583 159.424C294.015 159.68 294.511 159.728 295.055 159.728C296.815 159.728 298.015 158.56 298.143 156.768L298.175 156.336C298.239 155.408 298.511 155.232 299.231 155.232H299.839V154.08H298.991C298.223 154.08 297.855 154.608 297.695 155.216C297.359 154.656 296.527 153.856 295.055 153.856C293.231 153.856 291.903 155.152 291.903 156.8C291.903 157.792 292.335 158.512 292.783 158.912C292.271 159.28 291.615 159.808 291.615 160.592C291.615 161.216 291.871 161.584 292.319 161.856C291.839 162.128 291.263 162.72 291.263 163.52C291.263 164.448 291.807 165.12 293.327 165.12ZM295.055 158.608C293.983 158.608 293.279 157.888 293.279 156.8C293.279 155.712 293.983 154.976 295.055 154.976C296.127 154.976 296.831 155.712 296.831 156.8C296.831 157.888 296.127 158.608 295.055 158.608ZM293.791 163.904C292.959 163.904 292.511 163.728 292.511 163.072C292.511 162.528 292.863 162.176 293.135 162H296.879C297.503 162 298.127 162.128 298.127 162.944C298.127 163.76 297.503 163.904 296.879 163.904H293.791ZM301.438 162H302.798V158.368C302.798 156.512 303.534 155.376 305.326 155.376C305.646 155.376 305.918 155.408 306.174 155.456V154.064C305.982 154.016 305.742 153.968 305.358 153.968C303.854 153.968 303.038 155.136 302.782 155.728V154.08H301.438V162ZM310.713 162.224C312.793 162.224 314.392 160.432 314.392 158.048C314.392 155.664 312.857 153.856 310.713 153.856C308.569 153.856 307.033 155.664 307.033 158.048C307.033 160.432 308.633 162.224 310.713 162.224ZM310.713 161.024C309.369 161.024 308.441 160.064 308.441 158.064C308.441 156.064 309.369 155.056 310.713 155.056C312.057 155.056 312.985 156.064 312.985 158.064C312.985 160.064 312.057 161.024 310.713 161.024ZM318.981 162.224C320.629 162.224 321.381 161.056 321.621 160.624V162H322.949V154.08H321.589V157.44C321.589 158.656 321.557 161.024 319.413 161.024C318.373 161.024 317.701 160.416 317.701 158.928V154.08H316.341V159.248C316.341 161.008 317.125 162.224 318.981 162.224ZM325.641 162H327.001V158.64C327.001 157.472 327.049 155.056 329.225 155.056C330.281 155.056 330.969 155.664 330.969 157.152V162H332.329V156.832C332.329 155.072 331.529 153.856 329.561 153.856C327.849 153.856 327.081 155.072 326.969 155.424V154.08H325.641V162ZM337.531 162.224C338.923 162.224 339.691 161.456 340.075 160.784V162H341.403V150.8H340.043V153.76V155.312C339.659 154.64 338.923 153.856 337.531 153.856C335.707 153.856 334.315 155.44 334.315 158.048C334.315 160.656 335.707 162.224 337.531 162.224ZM337.883 161.024C336.619 161.024 335.707 160.272 335.707 158.064C335.707 155.856 336.619 155.056 337.883 155.056C339.179 155.056 340.123 156.064 340.123 158.064C340.123 160.064 339.179 161.024 337.883 161.024Z" fill="#6E6E78"/>
<path d="M442 58C442 57.4477 441.552 57 441 57C440.448 57 440 57.4477 440 58L442 58ZM440.293 148.707C440.683 149.098 441.317 149.098 441.707 148.707L448.071 142.343C448.462 141.953 448.462 141.319 448.071 140.929C447.681 140.538 447.047 140.538 446.657 140.929L441 146.586L435.343 140.929C434.953 140.538 434.319 140.538 433.929 140.929C433.538 141.319 433.538 141.953 433.929 142.343L440.293 148.707ZM440 58L440 148L442 148L442 58L440 58Z" fill="#DA372C"/>
<path d="M335.148 77H340.172C342.108 77 343.788 76.072 343.788 73.912C343.788 72.248 342.476 71.384 341.34 71.16C342.3 70.968 343.42 70.12 343.42 68.568C343.42 66.936 342.3 65.8 339.948 65.8H335.148V77ZM336.588 70.52V67.16H339.82C341.084 67.16 341.9 67.704 341.9 68.76C341.9 69.816 341.084 70.52 339.82 70.52H336.588ZM336.588 75.64V71.864H339.964C341.388 71.864 342.236 72.568 342.236 73.72C342.236 74.872 341.388 75.64 339.964 75.64H336.588ZM348.56 77.224C350.208 77.224 350.96 76.056 351.2 75.624V77H352.528V69.08H351.168V72.44C351.168 73.656 351.136 76.024 348.992 76.024C347.952 76.024 347.28 75.416 347.28 73.928V69.08H345.92V74.248C345.92 76.008 346.704 77.224 348.56 77.224ZM357.971 77H359.795V75.8H358.147C357.587 75.8 357.347 75.56 357.347 75V70.232H359.507V69.08H357.347V66.6H355.987V69.08H354.147V70.232H355.987V75.08C355.987 76.392 356.659 77 357.971 77ZM364.268 77H366.092V75.8H364.444C363.884 75.8 363.644 75.56 363.644 75V70.232H365.804V69.08H363.644V66.6H362.284V69.08H360.444V70.232H362.284V75.08C362.284 76.392 362.956 77 364.268 77ZM370.791 77.224C372.871 77.224 374.471 75.432 374.471 73.048C374.471 70.664 372.935 68.856 370.791 68.856C368.647 68.856 367.111 70.664 367.111 73.048C367.111 75.432 368.711 77.224 370.791 77.224ZM370.791 76.024C369.447 76.024 368.519 75.064 368.519 73.064C368.519 71.064 369.447 70.056 370.791 70.056C372.135 70.056 373.063 71.064 373.063 73.064C373.063 75.064 372.135 76.024 370.791 76.024ZM376.532 77H377.892V73.64C377.892 72.472 377.94 70.056 380.116 70.056C381.172 70.056 381.86 70.664 381.86 72.152V77H383.22V71.832C383.22 70.072 382.42 68.856 380.452 68.856C378.74 68.856 377.972 70.072 377.86 70.424V69.08H376.532V77ZM392.409 77H394.233V75.8H392.585C392.025 75.8 391.785 75.56 391.785 75V70.232H393.945V69.08H391.785V66.6H390.424V69.08H388.585V70.232H390.424V75.08C390.424 76.392 391.097 77 392.409 77ZM398.867 77.224C400.355 77.224 401.683 76.552 402.275 74.936L401.027 74.504C400.819 75.016 400.259 76.04 398.915 76.04C397.811 76.04 396.707 75.4 396.627 73.4H402.211C402.515 70.808 401.091 68.856 398.787 68.856C396.771 68.856 395.283 70.472 395.283 73.08C395.283 75.768 396.707 77.224 398.867 77.224ZM396.659 72.264C396.771 70.824 397.747 69.976 398.787 69.976C399.875 69.976 400.819 70.76 400.819 72.264H396.659ZM403.273 77H404.761L405.769 75.496L406.777 73.976C407.001 74.328 407.177 74.6 407.769 75.496L408.761 77H410.393L407.641 72.968L410.233 69.08H408.729L407.865 70.44C407.257 71.384 407.065 71.672 406.841 71.992C406.649 71.672 406.473 71.384 405.881 70.44L405.017 69.08H403.433L405.993 72.952L403.273 77ZM414.799 77H416.623V75.8H414.975C414.415 75.8 414.175 75.56 414.175 75V70.232H416.335V69.08H414.175V66.6H412.815V69.08H410.975V70.232H412.815V75.08C412.815 76.392 413.487 77 414.799 77Z" fill="#6E6E78"/>
<path d="M549.293 116.293C548.902 116.683 548.902 117.317 549.293 117.707L555.657 124.071C556.047 124.462 556.681 124.462 557.071 124.071C557.462 123.681 557.462 123.047 557.071 122.657L551.414 117L557.071 111.343C557.462 110.953 557.462 110.319 557.071 109.929C556.681 109.538 556.047 109.538 555.657 109.929L549.293 116.293ZM598 133L599 133L599 133L598 133ZM597.293 165.707C597.683 166.098 598.317 166.098 598.707 165.707L605.071 159.343C605.462 158.953 605.462 158.319 605.071 157.929C604.681 157.538 604.047 157.538 603.657 157.929L598 163.586L592.343 157.929C591.953 157.538 591.319 157.538 590.929 157.929C590.538 158.319 590.538 158.953 590.929 159.343L597.293 165.707ZM582 116H550V118H582V116ZM597 133L597 165L599 165L599 133L597 133ZM582 118C590.284 118 597 124.716 597 133L599 133C599 123.611 591.389 116 582 116V118Z" fill="#DA372C"/>
<path d="M627.712 136H629.136V132.896H630.768V131.648H629.136V124.8H626.912L622.48 131.504V132.896H627.712V136ZM627.712 131.648H626.064H623.936L627.712 125.936V128.384V131.648ZM632.688 139.12H634.048V136.32V134.768C634.432 135.44 635.168 136.224 636.56 136.224C638.384 136.224 639.776 134.64 639.776 132.032C639.776 129.424 638.384 127.856 636.56 127.856C635.168 127.856 634.4 128.624 634.016 129.296V128.08H632.688V139.12ZM636.208 135.024C634.912 135.024 633.968 134.016 633.968 132.016C633.968 130.016 634.912 129.056 636.208 129.056C637.472 129.056 638.384 129.808 638.384 132.016C638.384 134.224 637.472 135.024 636.208 135.024ZM640.726 136H642.214L643.222 134.496L644.23 132.976C644.454 133.328 644.63 133.6 645.222 134.496L646.214 136H647.846L645.094 131.968L647.686 128.08H646.182L645.318 129.44C644.71 130.384 644.518 130.672 644.294 130.992C644.102 130.672 643.926 130.384 643.334 129.44L642.47 128.08H640.886L643.446 131.952L640.726 136ZM656.793 136.224C658.569 136.224 659.721 135.184 660.233 133.712L658.953 133.264C658.697 134.128 658.105 135.024 656.793 135.024C655.481 135.024 654.457 134.064 654.457 132.032C654.457 130.048 655.513 129.056 656.777 129.056C657.929 129.056 658.505 129.808 658.761 130.56L660.025 130.144C659.657 128.912 658.569 127.856 656.777 127.856C654.585 127.856 653.033 129.584 653.033 132.032C653.033 134.592 654.505 136.224 656.793 136.224ZM665.103 136.224C667.183 136.224 668.783 134.432 668.783 132.048C668.783 129.664 667.247 127.856 665.103 127.856C662.959 127.856 661.423 129.664 661.423 132.048C661.423 134.432 663.023 136.224 665.103 136.224ZM665.103 135.024C663.759 135.024 662.831 134.064 662.831 132.064C662.831 130.064 663.759 129.056 665.103 129.056C666.447 129.056 667.375 130.064 667.375 132.064C667.375 134.064 666.447 135.024 665.103 135.024ZM670.844 136H672.204V132.368C672.204 130.512 672.94 129.376 674.732 129.376C675.052 129.376 675.324 129.408 675.58 129.456V128.064C675.388 128.016 675.148 127.968 674.764 127.968C673.26 127.968 672.444 129.136 672.188 129.728V128.08H670.844V136ZM677.188 136H678.548V132.64C678.548 131.472 678.596 129.056 680.772 129.056C681.828 129.056 682.516 129.664 682.516 131.152V136H683.876V130.832C683.876 129.072 683.076 127.856 681.108 127.856C679.396 127.856 678.628 129.072 678.516 129.424V128.08H677.188V136ZM689.445 136.224C690.933 136.224 692.261 135.552 692.853 133.936L691.605 133.504C691.397 134.016 690.837 135.04 689.493 135.04C688.389 135.04 687.285 134.4 687.205 132.4H692.789C693.093 129.808 691.669 127.856 689.365 127.856C687.349 127.856 685.861 129.472 685.861 132.08C685.861 134.768 687.285 136.224 689.445 136.224ZM687.237 131.264C687.349 129.824 688.325 128.976 689.365 128.976C690.453 128.976 691.397 129.76 691.397 131.264H687.237ZM694.969 136H696.329V132.368C696.329 130.512 697.065 129.376 698.857 129.376C699.177 129.376 699.449 129.408 699.705 129.456V128.064C699.513 128.016 699.273 127.968 698.889 127.968C697.385 127.968 696.569 129.136 696.313 129.728V128.08H694.969V136ZM623.344 163H624.704V159.368C624.704 157.512 625.44 156.376 627.232 156.376C627.552 156.376 627.824 156.408 628.08 156.456V155.064C627.888 155.016 627.648 154.968 627.264 154.968C625.76 154.968 624.944 156.136 624.688 156.728V155.08H623.344V163ZM632.187 163.224C633.579 163.224 634.347 162.456 634.731 161.784V163H636.059V155.08H634.699V156.312C634.315 155.64 633.579 154.856 632.187 154.856C630.363 154.856 628.971 156.44 628.971 159.048C628.971 161.656 630.363 163.224 632.187 163.224ZM632.539 162.024C631.275 162.024 630.363 161.272 630.363 159.064C630.363 156.856 631.275 156.056 632.539 156.056C633.835 156.056 634.779 157.064 634.779 159.064C634.779 161.064 633.835 162.024 632.539 162.024ZM641.374 163.224C642.766 163.224 643.534 162.456 643.918 161.784V163H645.246V151.8H643.886V154.76V156.312C643.502 155.64 642.766 154.856 641.374 154.856C639.55 154.856 638.158 156.44 638.158 159.048C638.158 161.656 639.55 163.224 641.374 163.224ZM641.726 162.024C640.462 162.024 639.55 161.272 639.55 159.064C639.55 156.856 640.462 156.056 641.726 156.056C643.022 156.056 643.966 157.064 643.966 159.064C643.966 161.064 643.022 162.024 641.726 162.024ZM647.89 153.528H649.33V151.8H647.89V153.528ZM647.938 163H649.298V155.08H647.938V163ZM654.513 163.224C656.161 163.224 656.913 162.056 657.153 161.624V163H658.481V155.08H657.121V158.44C657.121 159.656 657.089 162.024 654.945 162.024C653.905 162.024 653.233 161.416 653.233 159.928V155.08H651.873V160.248C651.873 162.008 652.657 163.224 654.513 163.224ZM663.844 163.224C665.844 163.224 666.996 162.28 666.996 160.792C666.996 158.984 665.124 158.504 664.324 158.344L663.412 158.168C662.276 157.944 662.02 157.624 662.02 157.096C662.02 156.52 662.532 155.976 663.636 155.976C664.98 155.976 665.428 156.824 665.62 157.352L666.852 156.904C666.532 155.864 665.604 154.856 663.636 154.856C662.084 154.856 660.74 155.816 660.74 157.24C660.74 158.744 661.892 159.24 663.204 159.496L664.116 159.672C665.268 159.896 665.636 160.312 665.636 160.904C665.636 161.656 664.996 162.056 663.844 162.056C662.596 162.056 661.956 161.464 661.716 160.52L660.404 160.952C660.756 162.472 662.228 163.224 663.844 163.224Z" fill="#6E6E78"/>
<path d="M507 269C507 269.552 507.448 270 508 270C508.552 270 509 269.552 509 269L507 269ZM508.707 196.293C508.317 195.902 507.683 195.902 507.293 196.293L500.929 202.657C500.538 203.047 500.538 203.681 500.929 204.071C501.319 204.462 501.953 204.462 502.343 204.071L508 198.414L513.657 204.071C514.047 204.462 514.681 204.462 515.071 204.071C515.462 203.681 515.462 203.047 515.071 202.657L508.707 196.293ZM509 269L509 197L507 197L507 269L509 269Z" fill="#DA372C"/>
<path d="M406.975 265.68H408.175V264.208C410.447 264.032 411.695 262.72 411.695 260.896C411.695 259.2 410.431 258.24 408.655 257.792L408.175 257.664V253.952C409.471 254.208 409.983 255.2 410.191 255.792L411.519 255.136C411.231 254.192 410.191 252.832 408.175 252.608V251.12H406.975V252.608C405.071 252.832 403.807 254.064 403.807 255.712C403.807 257.568 404.959 258.384 406.607 258.736L406.975 258.816V262.848C405.727 262.576 404.975 261.664 404.607 260.544L403.247 261.2C403.743 262.768 405.007 263.952 406.975 264.192V265.68ZM406.975 257.392C405.727 257.072 405.183 256.592 405.183 255.632C405.183 254.72 405.855 254.032 406.975 253.904V255.968V257.392ZM408.175 262.912V260.848V259.088C409.567 259.408 410.239 260.032 410.239 261.024C410.239 262.064 409.487 262.784 408.175 262.912ZM416.391 264.224C418.391 264.224 419.543 263.28 419.543 261.792C419.543 259.984 417.671 259.504 416.871 259.344L415.959 259.168C414.823 258.944 414.567 258.624 414.567 258.096C414.567 257.52 415.079 256.976 416.183 256.976C417.527 256.976 417.975 257.824 418.167 258.352L419.399 257.904C419.079 256.864 418.151 255.856 416.183 255.856C414.631 255.856 413.287 256.816 413.287 258.24C413.287 259.744 414.439 260.24 415.751 260.496L416.663 260.672C417.815 260.896 418.183 261.312 418.183 261.904C418.183 262.656 417.543 263.056 416.391 263.056C415.143 263.056 414.503 262.464 414.263 261.52L412.951 261.952C413.303 263.472 414.775 264.224 416.391 264.224ZM421.578 267.12H422.938V264.32V262.768C423.322 263.44 424.058 264.224 425.45 264.224C427.274 264.224 428.666 262.64 428.666 260.032C428.666 257.424 427.274 255.856 425.45 255.856C424.058 255.856 423.29 256.624 422.906 257.296V256.08H421.578V267.12ZM425.098 263.024C423.802 263.024 422.858 262.016 422.858 260.016C422.858 258.016 423.802 257.056 425.098 257.056C426.362 257.056 427.274 257.808 427.274 260.016C427.274 262.224 426.362 263.024 425.098 263.024ZM433.39 264.224C434.782 264.224 435.55 263.456 435.934 262.784V264H437.262V256.08H435.902V257.312C435.518 256.64 434.782 255.856 433.39 255.856C431.566 255.856 430.174 257.44 430.174 260.048C430.174 262.656 431.566 264.224 433.39 264.224ZM433.742 263.024C432.478 263.024 431.566 262.272 431.566 260.064C431.566 257.856 432.478 257.056 433.742 257.056C435.038 257.056 435.982 258.064 435.982 260.064C435.982 262.064 435.038 263.024 433.742 263.024ZM443.105 264.224C444.881 264.224 446.033 263.184 446.545 261.712L445.265 261.264C445.009 262.128 444.417 263.024 443.105 263.024C441.793 263.024 440.769 262.064 440.769 260.032C440.769 258.048 441.825 257.056 443.089 257.056C444.241 257.056 444.817 257.808 445.073 258.56L446.337 258.144C445.969 256.912 444.881 255.856 443.089 255.856C440.897 255.856 439.345 257.584 439.345 260.032C439.345 262.592 440.817 264.224 443.105 264.224ZM448.312 254.528H449.752V252.8H448.312V254.528ZM448.36 264H449.72V256.08H448.36V264ZM452.407 264H453.767V260.64C453.767 259.472 453.815 257.056 455.991 257.056C457.047 257.056 457.735 257.664 457.735 259.152V264H459.095V258.832C459.095 257.072 458.295 255.856 456.327 255.856C454.615 255.856 453.847 257.072 453.735 257.424V256.08H452.407V264ZM462.952 267.12H466.648C467.992 267.12 469.128 266.416 469.128 264.944C469.128 263.616 468.136 262.752 466.616 262.752H463.16C462.6 262.752 462.488 262.464 462.488 262.208C462.488 261.92 462.776 261.616 463.208 261.424C463.64 261.68 464.136 261.728 464.68 261.728C466.44 261.728 467.64 260.56 467.768 258.768L467.8 258.336C467.864 257.408 468.136 257.232 468.856 257.232H469.464V256.08H468.616C467.848 256.08 467.48 256.608 467.32 257.216C466.984 256.656 466.152 255.856 464.68 255.856C462.856 255.856 461.528 257.152 461.528 258.8C461.528 259.792 461.96 260.512 462.408 260.912C461.896 261.28 461.24 261.808 461.24 262.592C461.24 263.216 461.496 263.584 461.944 263.856C461.464 264.128 460.888 264.72 460.888 265.52C460.888 266.448 461.432 267.12 462.952 267.12ZM464.68 260.608C463.608 260.608 462.904 259.888 462.904 258.8C462.904 257.712 463.608 256.976 464.68 256.976C465.752 256.976 466.456 257.712 466.456 258.8C466.456 259.888 465.752 260.608 464.68 260.608ZM463.416 265.904C462.584 265.904 462.136 265.728 462.136 265.072C462.136 264.528 462.488 264.176 462.76 264H466.504C467.128 264 467.752 264.128 467.752 264.944C467.752 265.76 467.128 265.904 466.504 265.904H463.416ZM470.62 259.776H475.036V258.336H470.62V259.776ZM480.157 264.224C482.157 264.224 483.309 263.28 483.309 261.792C483.309 259.984 481.437 259.504 480.637 259.344L479.725 259.168C478.589 258.944 478.333 258.624 478.333 258.096C478.333 257.52 478.845 256.976 479.949 256.976C481.293 256.976 481.741 257.824 481.933 258.352L483.165 257.904C482.845 256.864 481.917 255.856 479.949 255.856C478.397 255.856 477.053 256.816 477.053 258.24C477.053 259.744 478.205 260.24 479.517 260.496L480.429 260.672C481.581 260.896 481.949 261.312 481.949 261.904C481.949 262.656 481.309 263.056 480.157 263.056C478.909 263.056 478.269 262.464 478.029 261.52L476.717 261.952C477.069 263.472 478.541 264.224 480.157 264.224Z" fill="#6E6E78"/>
</svg>
