<svg width="958" height="346" viewBox="0 0 958 346" fill="none" xmlns="http://www.w3.org/2000/svg">
<path d="M351.592 194H366.632C380.136 194 388.264 185.552 388.264 171.472C388.264 158.16 379.88 149.2 367.08 149.2H351.592V194ZM357.352 188.56V154.64H366.056C376.936 154.64 382.184 161.36 382.184 171.472C382.184 182.672 376.808 188.56 365.608 188.56H357.352ZM409.35 194.896C417.67 194.896 424.07 187.728 424.07 178.192C424.07 168.656 417.926 161.424 409.35 161.424C400.774 161.424 394.63 168.656 394.63 178.192C394.63 187.728 401.03 194.896 409.35 194.896ZM409.35 190.096C403.974 190.096 400.262 186.256 400.262 178.256C400.262 170.256 403.974 166.224 409.35 166.224C414.726 166.224 418.438 170.256 418.438 178.256C418.438 186.256 414.726 190.096 409.35 190.096ZM432.314 194H437.754V180.56C437.754 175.888 437.946 166.224 446.65 166.224C450.874 166.224 453.626 168.656 453.626 174.608V194H459.066V173.328C459.066 166.288 455.866 161.424 447.994 161.424C441.146 161.424 438.074 166.288 437.626 167.696V162.32H432.314V194ZM479.488 194.896C486.08 194.896 489.088 190.224 490.048 188.496V194H495.36V162.32H489.92V175.76C489.92 180.624 489.792 190.096 481.216 190.096C477.056 190.096 474.368 187.664 474.368 181.712V162.32H468.928V182.992C468.928 190.032 472.064 194.896 479.488 194.896ZM517.134 194H524.43V189.2H517.838C515.598 189.2 514.638 188.24 514.638 186V166.928H523.278V162.32H514.638V152.4H509.198V162.32H501.838V166.928H509.198V186.32C509.198 191.568 511.886 194 517.134 194ZM547.876 194H553.316V180.56C553.316 175.888 553.508 166.224 562.212 166.224C566.436 166.224 569.188 168.656 569.188 174.608V194H574.628V173.328C574.628 166.288 571.172 161.424 563.94 161.424C556.452 161.424 553.764 166.288 553.316 167.696V161.04V149.2H547.876V194ZM584.747 156.112H590.507V149.2H584.747V156.112ZM584.939 194H590.379V162.32H584.939V194ZM611.814 194.896C619.814 194.896 624.422 191.12 624.422 185.168C624.422 177.936 616.934 176.016 613.734 175.376L610.086 174.672C605.542 173.776 604.518 172.496 604.518 170.384C604.518 168.08 606.566 165.904 610.982 165.904C616.358 165.904 618.15 169.296 618.918 171.408L623.846 169.616C622.566 165.456 618.854 161.424 610.982 161.424C604.774 161.424 599.398 165.264 599.398 170.96C599.398 176.976 604.006 178.96 609.254 179.984L612.902 180.688C617.51 181.584 618.982 183.248 618.982 185.616C618.982 188.624 616.422 190.224 611.814 190.224C606.822 190.224 604.262 187.856 603.302 184.08L598.054 185.808C599.462 191.888 605.35 194.896 611.814 194.896ZM643.259 194H650.555V189.2H643.963C641.723 189.2 640.763 188.24 640.763 186V166.928H649.403V162.32H640.763V152.4H635.323V162.32H627.963V166.928H635.323V186.32C635.323 191.568 638.011 194 643.259 194ZM669.35 194.896C677.67 194.896 684.07 187.728 684.07 178.192C684.07 168.656 677.926 161.424 669.35 161.424C660.774 161.424 654.63 168.656 654.63 178.192C654.63 187.728 661.03 194.896 669.35 194.896ZM669.35 190.096C663.974 190.096 660.262 186.256 660.262 178.256C660.262 170.256 663.974 166.224 669.35 166.224C674.726 166.224 678.438 170.256 678.438 178.256C678.438 186.256 674.726 190.096 669.35 190.096ZM692.314 194H697.754V179.472C697.754 172.048 700.698 167.504 707.866 167.504C709.146 167.504 710.234 167.632 711.258 167.824V162.256C710.49 162.064 709.53 161.872 707.994 161.872C701.978 161.872 698.714 166.544 697.69 168.912V162.32H692.314V194ZM736.825 162.32L731.065 179.664C729.785 183.504 729.401 184.656 728.825 186.512C728.185 184.848 727.673 183.568 725.689 178.768L718.905 162.32H712.761L726.457 193.616L724.665 198.672C723.833 201.04 722.425 201.488 720.312 201.488H714.297V206.48H720.312C725.881 206.48 728.185 204.624 730.297 198.352L742.585 162.32H736.825Z" fill="#1662DD"/>
<path d="M249 155C249 151.686 246.314 149 243 149H225C221.686 149 219 151.686 219 155V203C219 206.314 221.686 209 225 209H273C276.314 209 279 206.314 279 203V185C279 181.686 276.314 179 273 179C269.686 179 267 181.686 267 185V197H231V161H243C246.314 161 249 158.314 249 155Z" fill="#1662DD"/>
<path d="M270.273 149L261 149C257.686 149 255 146.314 255 143C255 139.686 257.686 137 261 137H285C288.314 137 291 139.686 291 143V167C291 170.314 288.314 173 285 173C281.686 173 279 170.314 279 167V157.727L248.485 188C246.142 190.343 242.343 190.343 240 188L239.758 187.758C237.415 185.415 237.415 181.616 239.758 179.273L270.273 149Z" fill="#1662DD"/>
<rect opacity="0.2" x="297" y="118" width="48" height="109" fill="#DA372C"/>
<path d="M146 172C145.448 172 145 172.448 145 173C145 173.552 145.448 174 146 174L146 172ZM207.707 173.707C208.098 173.317 208.098 172.683 207.707 172.293L201.343 165.929C200.953 165.538 200.319 165.538 199.929 165.929C199.538 166.319 199.538 166.953 199.929 167.343L205.586 173L199.929 178.657C199.538 179.047 199.538 179.681 199.929 180.071C200.319 180.462 200.953 180.462 201.343 180.071L207.707 173.707ZM146 174L207 174L207 172L146 172L146 174Z" fill="#DA372C"/>
<path d="M74.0855 165H81.8935V163.64H75.5255V159.864H80.2295V158.52H75.5255V155.16H81.8935V153.8H74.0855V165ZM82.9915 165H84.4795L85.4875 163.496L86.4955 161.976C86.7195 162.328 86.8955 162.6 87.4875 163.496L88.4795 165H90.1115L87.3595 160.968L89.9515 157.08H88.4475L87.5835 158.44C86.9755 159.384 86.7835 159.672 86.5595 159.992C86.3675 159.672 86.1915 159.384 85.5995 158.44L84.7355 157.08H83.1515L85.7115 160.952L82.9915 165ZM94.5179 165H96.3419V163.8H94.6939C94.1339 163.8 93.8939 163.56 93.8939 163V158.232H96.0539V157.08H93.8939V154.6H92.5339V157.08H90.6939V158.232H92.5339V163.08C92.5339 164.392 93.2059 165 94.5179 165ZM100.977 165.224C102.465 165.224 103.793 164.552 104.385 162.936L103.137 162.504C102.929 163.016 102.369 164.04 101.025 164.04C99.9206 164.04 98.8166 163.4 98.7366 161.4H104.321C104.625 158.808 103.201 156.856 100.897 156.856C98.8806 156.856 97.3926 158.472 97.3926 161.08C97.3926 163.768 98.8166 165.224 100.977 165.224ZM98.7686 160.264C98.8806 158.824 99.8566 157.976 100.897 157.976C101.985 157.976 102.929 158.76 102.929 160.264H98.7686ZM106.5 165H107.86V161.368C107.86 159.512 108.596 158.376 110.388 158.376C110.708 158.376 110.98 158.408 111.236 158.456V157.064C111.044 157.016 110.804 156.968 110.42 156.968C108.916 156.968 108.1 158.136 107.844 158.728V157.08H106.5V165ZM112.844 165H114.204V161.64C114.204 160.472 114.252 158.056 116.428 158.056C117.484 158.056 118.172 158.664 118.172 160.152V165H119.532V159.832C119.532 158.072 118.732 156.856 116.764 156.856C115.052 156.856 114.284 158.072 114.172 158.424V157.08H112.844V165ZM124.734 165.224C126.126 165.224 126.894 164.456 127.278 163.784V165H128.606V157.08H127.246V158.312C126.862 157.64 126.126 156.856 124.734 156.856C122.91 156.856 121.518 158.44 121.518 161.048C121.518 163.656 122.91 165.224 124.734 165.224ZM125.086 164.024C123.822 164.024 122.91 163.272 122.91 161.064C122.91 158.856 123.822 158.056 125.086 158.056C126.382 158.056 127.326 159.064 127.326 161.064C127.326 163.064 126.382 164.024 125.086 164.024ZM131.297 165H132.657V153.8H131.297V165ZM74.5628 191H75.9228V179.8H74.5628V191ZM78.5616 181.528H80.0016V179.8H78.5616V181.528ZM78.6096 191H79.9696V183.08H78.6096V191ZM82.6565 191H84.0165V187.64C84.0165 186.472 84.0645 184.056 86.2405 184.056C87.2965 184.056 87.9845 184.664 87.9845 186.152V191H89.3445V185.832C89.3445 184.072 88.5445 182.856 86.5765 182.856C84.8645 182.856 84.0965 184.072 83.9845 184.424V183.08H82.6565V191ZM97.7941 191H99.5381L95.7301 186.392L99.2981 183.08H97.4901L93.2821 187.16V184.568V179.8H91.9221V191H93.2821V188.664L94.7861 187.288L97.7941 191ZM104.78 181.528H106.22V179.8H104.78V181.528ZM104.828 191H106.188V183.08H104.828V191ZM112.027 191.224C113.803 191.224 114.955 190.184 115.467 188.712L114.187 188.264C113.931 189.128 113.339 190.024 112.027 190.024C110.715 190.024 109.691 189.064 109.691 187.032C109.691 185.048 110.747 184.056 112.011 184.056C113.163 184.056 113.739 184.808 113.995 185.56L115.259 185.144C114.891 183.912 113.803 182.856 112.011 182.856C109.819 182.856 108.267 184.584 108.267 187.032C108.267 189.592 109.739 191.224 112.027 191.224ZM120.338 191.224C122.418 191.224 124.017 189.432 124.017 187.048C124.017 184.664 122.482 182.856 120.338 182.856C118.194 182.856 116.658 184.664 116.658 187.048C116.658 189.432 118.258 191.224 120.338 191.224ZM120.338 190.024C118.994 190.024 118.066 189.064 118.066 187.064C118.066 185.064 118.994 184.056 120.338 184.056C121.682 184.056 122.61 185.064 122.61 187.064C122.61 189.064 121.682 190.024 120.338 190.024ZM126.078 191H127.438V187.64C127.438 186.472 127.486 184.056 129.662 184.056C130.718 184.056 131.406 184.664 131.406 186.152V191H132.766V185.832C132.766 184.072 131.966 182.856 129.998 182.856C128.286 182.856 127.518 184.072 127.406 184.424V183.08H126.078V191Z" fill="#6E6E78"/>
<path d="M320 61C320 60.4477 320.448 60 321 60C321.552 60 322 60.4477 322 61L320 61ZM321.707 131.207C321.317 131.598 320.683 131.598 320.293 131.207L313.929 124.843C313.538 124.453 313.538 123.819 313.929 123.429C314.319 123.038 314.953 123.038 315.343 123.429L321 129.086L326.657 123.429C327.047 123.038 327.681 123.038 328.071 123.429C328.462 123.819 328.462 124.453 328.071 124.843L321.707 131.207ZM322 61L322 130.5L320 130.5L320 61L322 61Z" fill="#DA372C"/>
<path d="M337.256 73.68H338.456V72.208C340.728 72.032 341.976 70.72 341.976 68.896C341.976 67.2 340.712 66.24 338.936 65.792L338.456 65.664V61.952C339.752 62.208 340.264 63.2 340.472 63.792L341.8 63.136C341.512 62.192 340.472 60.832 338.456 60.608V59.12H337.256V60.608C335.352 60.832 334.088 62.064 334.088 63.712C334.088 65.568 335.24 66.384 336.888 66.736L337.256 66.816V70.848C336.008 70.576 335.256 69.664 334.888 68.544L333.528 69.2C334.024 70.768 335.288 71.952 337.256 72.192V73.68ZM337.256 65.392C336.008 65.072 335.464 64.592 335.464 63.632C335.464 62.72 336.136 62.032 337.256 61.904V63.968V65.392ZM338.456 70.912V68.848V67.088C339.848 67.408 340.52 68.032 340.52 69.024C340.52 70.064 339.768 70.784 338.456 70.912ZM346.672 72.224C348.672 72.224 349.824 71.28 349.824 69.792C349.824 67.984 347.952 67.504 347.152 67.344L346.24 67.168C345.104 66.944 344.848 66.624 344.848 66.096C344.848 65.52 345.36 64.976 346.464 64.976C347.808 64.976 348.256 65.824 348.448 66.352L349.68 65.904C349.36 64.864 348.432 63.856 346.464 63.856C344.912 63.856 343.568 64.816 343.568 66.24C343.568 67.744 344.72 68.24 346.032 68.496L346.944 68.672C348.096 68.896 348.464 69.312 348.464 69.904C348.464 70.656 347.824 71.056 346.672 71.056C345.424 71.056 344.784 70.464 344.544 69.52L343.232 69.952C343.584 71.472 345.056 72.224 346.672 72.224ZM351.86 75.12H353.22V72.32V70.768C353.604 71.44 354.34 72.224 355.732 72.224C357.556 72.224 358.948 70.64 358.948 68.032C358.948 65.424 357.556 63.856 355.732 63.856C354.34 63.856 353.572 64.624 353.188 65.296V64.08H351.86V75.12ZM355.38 71.024C354.084 71.024 353.14 70.016 353.14 68.016C353.14 66.016 354.084 65.056 355.38 65.056C356.644 65.056 357.556 65.808 357.556 68.016C357.556 70.224 356.644 71.024 355.38 71.024ZM363.671 72.224C365.063 72.224 365.831 71.456 366.215 70.784V72H367.543V64.08H366.183V65.312C365.799 64.64 365.063 63.856 363.671 63.856C361.847 63.856 360.455 65.44 360.455 68.048C360.455 70.656 361.847 72.224 363.671 72.224ZM364.023 71.024C362.759 71.024 361.847 70.272 361.847 68.064C361.847 65.856 362.759 65.056 364.023 65.056C365.319 65.056 366.263 66.064 366.263 68.064C366.263 70.064 365.319 71.024 364.023 71.024ZM373.387 72.224C375.163 72.224 376.315 71.184 376.827 69.712L375.547 69.264C375.291 70.128 374.699 71.024 373.387 71.024C372.075 71.024 371.051 70.064 371.051 68.032C371.051 66.048 372.107 65.056 373.371 65.056C374.523 65.056 375.099 65.808 375.355 66.56L376.619 66.144C376.251 64.912 375.163 63.856 373.371 63.856C371.179 63.856 369.627 65.584 369.627 68.032C369.627 70.592 371.099 72.224 373.387 72.224ZM378.593 62.528H380.033V60.8H378.593V62.528ZM378.641 72H380.001V64.08H378.641V72ZM382.688 72H384.048V68.64C384.048 67.472 384.096 65.056 386.272 65.056C387.328 65.056 388.016 65.664 388.016 67.152V72H389.376V66.832C389.376 65.072 388.576 63.856 386.608 63.856C384.896 63.856 384.128 65.072 384.016 65.424V64.08H382.688V72ZM393.233 75.12H396.929C398.273 75.12 399.409 74.416 399.409 72.944C399.409 71.616 398.417 70.752 396.897 70.752H393.441C392.881 70.752 392.769 70.464 392.769 70.208C392.769 69.92 393.057 69.616 393.489 69.424C393.921 69.68 394.417 69.728 394.961 69.728C396.721 69.728 397.921 68.56 398.049 66.768L398.081 66.336C398.145 65.408 398.417 65.232 399.137 65.232H399.745V64.08H398.897C398.129 64.08 397.761 64.608 397.601 65.216C397.265 64.656 396.433 63.856 394.961 63.856C393.137 63.856 391.809 65.152 391.809 66.8C391.809 67.792 392.241 68.512 392.689 68.912C392.177 69.28 391.521 69.808 391.521 70.592C391.521 71.216 391.777 71.584 392.225 71.856C391.745 72.128 391.169 72.72 391.169 73.52C391.169 74.448 391.713 75.12 393.233 75.12ZM394.961 68.608C393.889 68.608 393.185 67.888 393.185 66.8C393.185 65.712 393.889 64.976 394.961 64.976C396.033 64.976 396.737 65.712 396.737 66.8C396.737 67.888 396.033 68.608 394.961 68.608ZM393.697 73.904C392.865 73.904 392.417 73.728 392.417 73.072C392.417 72.528 392.769 72.176 393.041 72H396.785C397.409 72 398.033 72.128 398.033 72.944C398.033 73.76 397.409 73.904 396.785 73.904H393.697ZM400.901 67.776H405.317V66.336H400.901V67.776ZM406.367 72H407.855L408.863 70.496L409.871 68.976C410.095 69.328 410.271 69.6 410.863 70.496L411.855 72H413.487L410.735 67.968L413.327 64.08H411.823L410.959 65.44C410.351 66.384 410.159 66.672 409.935 66.992C409.743 66.672 409.567 66.384 408.975 65.44L408.111 64.08H406.527L409.087 67.952L406.367 72ZM417.813 72.224C419.813 72.224 420.965 71.28 420.965 69.792C420.965 67.984 419.093 67.504 418.293 67.344L417.381 67.168C416.245 66.944 415.989 66.624 415.989 66.096C415.989 65.52 416.501 64.976 417.605 64.976C418.949 64.976 419.397 65.824 419.589 66.352L420.821 65.904C420.501 64.864 419.573 63.856 417.605 63.856C416.053 63.856 414.709 64.816 414.709 66.24C414.709 67.744 415.861 68.24 417.173 68.496L418.085 68.672C419.237 68.896 419.605 69.312 419.605 69.904C419.605 70.656 418.965 71.056 417.813 71.056C416.565 71.056 415.925 70.464 415.685 69.52L414.373 69.952C414.725 71.472 416.197 72.224 417.813 72.224Z" fill="#6E6E78"/>
<path d="M455 298C455 298.552 455.448 299 456 299C456.552 299 457 298.552 457 298L455 298ZM456.707 227.793C456.317 227.402 455.683 227.402 455.293 227.793L448.929 234.157C448.538 234.547 448.538 235.181 448.929 235.571C449.319 235.962 449.953 235.962 450.343 235.571L456 229.914L461.657 235.571C462.047 235.962 462.681 235.962 463.071 235.571C463.462 235.181 463.462 234.547 463.071 234.157L456.707 227.793ZM457 298L457 228.5L455 228.5L455 298L457 298Z" fill="#DA372C"/>
<path d="M469.648 298H477.12V296.608H471.088V286.8H469.648V298ZM478.577 288.528H480.017V286.8H478.577V288.528ZM478.625 298H479.985V290.08H478.625V298ZM482.672 298H484.032V294.64C484.032 293.472 484.08 291.056 486.256 291.056C487.312 291.056 488 291.664 488 293.152V298H489.36V292.832C489.36 291.072 488.56 289.856 486.592 289.856C484.88 289.856 484.112 291.072 484 291.424V290.08H482.672V298ZM497.81 298H499.554L495.746 293.392L499.314 290.08H497.506L493.298 294.16V291.568V286.8H491.938V298H493.298V295.664L494.802 294.288L497.81 298ZM507.315 298H509.139V296.8H507.491C506.931 296.8 506.691 296.56 506.691 296V291.232H508.851V290.08H506.691V287.6H505.331V290.08H503.491V291.232H505.331V296.08C505.331 297.392 506.003 298 507.315 298ZM513.774 298.224C515.262 298.224 516.59 297.552 517.182 295.936L515.934 295.504C515.726 296.016 515.166 297.04 513.822 297.04C512.718 297.04 511.614 296.4 511.534 294.4H517.118C517.422 291.808 515.998 289.856 513.694 289.856C511.678 289.856 510.19 291.472 510.19 294.08C510.19 296.768 511.614 298.224 513.774 298.224ZM511.566 293.264C511.678 291.824 512.654 290.976 513.694 290.976C514.782 290.976 515.726 291.76 515.726 293.264H511.566ZM518.179 298H519.667L520.675 296.496L521.683 294.976C521.907 295.328 522.083 295.6 522.675 296.496L523.667 298H525.299L522.547 293.968L525.139 290.08H523.635L522.771 291.44C522.163 292.384 521.971 292.672 521.747 292.992C521.555 292.672 521.379 292.384 520.787 291.44L519.923 290.08H518.339L520.899 293.952L518.179 298ZM529.705 298H531.529V296.8H529.881C529.321 296.8 529.081 296.56 529.081 296V291.232H531.241V290.08H529.081V287.6H527.721V290.08H525.881V291.232H527.721V296.08C527.721 297.392 528.393 298 529.705 298Z" fill="#6E6E78"/>
</svg>
