<svg viewBox="0 0 958 346" fill="none" xmlns="http://www.w3.org/2000/svg"><path d="M764 177C764.552 177 765 176.552 765 176C765 175.448 764.552 175 764 175V177ZM630.293 175.293C629.902 175.683 629.902 176.317 630.293 176.707L636.657 183.071C637.047 183.462 637.681 183.462 638.071 183.071C638.462 182.681 638.462 182.047 638.071 181.657L632.414 176L638.071 170.343C638.462 169.953 638.462 169.319 638.071 168.929C637.681 168.538 637.047 168.538 636.657 168.929L630.293 175.293ZM764 175L631 175V177L764 177V175Z" fill="#DA372C"/><path d="M777.648 181H781.408C784.784 181 786.816 178.888 786.816 175.368C786.816 172.04 784.72 169.8 781.52 169.8H777.648V181ZM779.088 179.64V171.16H781.264C783.984 171.16 785.296 172.84 785.296 175.368C785.296 178.168 783.952 179.64 781.152 179.64H779.088ZM792.024 181.224C793.512 181.224 794.84 180.552 795.432 178.936L794.184 178.504C793.976 179.016 793.416 180.04 792.072 180.04C790.968 180.04 789.864 179.4 789.784 177.4H795.368C795.672 174.808 794.248 172.856 791.944 172.856C789.928 172.856 788.44 174.472 788.44 177.08C788.44 179.768 789.864 181.224 792.024 181.224ZM789.816 176.264C789.928 174.824 790.904 173.976 791.944 173.976C793.032 173.976 793.976 174.76 793.976 176.264H789.816ZM800.219 181.224C802.219 181.224 803.371 180.28 803.371 178.792C803.371 176.984 801.499 176.504 800.699 176.344L799.787 176.168C798.651 175.944 798.395 175.624 798.395 175.096C798.395 174.52 798.907 173.976 800.011 173.976C801.355 173.976 801.803 174.824 801.995 175.352L803.227 174.904C802.907 173.864 801.979 172.856 800.011 172.856C798.459 172.856 797.115 173.816 797.115 175.24C797.115 176.744 798.267 177.24 799.579 177.496L800.491 177.672C801.643 177.896 802.011 178.312 802.011 178.904C802.011 179.656 801.371 180.056 800.219 180.056C798.971 180.056 798.331 179.464 798.091 178.52L796.779 178.952C797.131 180.472 798.603 181.224 800.219 181.224ZM808.559 181.224C810.335 181.224 811.487 180.184 811.999 178.712L810.719 178.264C810.463 179.128 809.871 180.024 808.559 180.024C807.247 180.024 806.223 179.064 806.223 177.032C806.223 175.048 807.279 174.056 808.543 174.056C809.695 174.056 810.271 174.808 810.527 175.56L811.791 175.144C811.423 173.912 810.335 172.856 808.543 172.856C806.351 172.856 804.799 174.584 804.799 177.032C804.799 179.592 806.271 181.224 808.559 181.224ZM813.813 181H815.173V177.368C815.173 175.512 815.909 174.376 817.701 174.376C818.021 174.376 818.293 174.408 818.549 174.456V173.064C818.357 173.016 818.117 172.968 817.733 172.968C816.229 172.968 815.413 174.136 815.157 174.728V173.08H813.813V181ZM820.109 171.528H821.549V169.8H820.109V171.528ZM820.157 181H821.517V173.08H820.157V181ZM824.203 184.12H825.563V181.32V179.768C825.947 180.44 826.683 181.224 828.075 181.224C829.899 181.224 831.291 179.64 831.291 177.032C831.291 174.424 829.899 172.856 828.075 172.856C826.683 172.856 825.915 173.624 825.531 174.296V173.08H824.203V184.12ZM827.723 180.024C826.427 180.024 825.483 179.016 825.483 177.016C825.483 175.016 826.427 174.056 827.723 174.056C828.987 174.056 829.899 174.808 829.899 177.016C829.899 179.224 828.987 180.024 827.723 180.024ZM836.08 181H837.904V179.8H836.256C835.696 179.8 835.456 179.56 835.456 179V174.232H837.616V173.08H835.456V170.6H834.096V173.08H832.256V174.232H834.096V179.08C834.096 180.392 834.768 181 836.08 181ZM842.603 181.224C844.683 181.224 846.283 179.432 846.283 177.048C846.283 174.664 844.747 172.856 842.603 172.856C840.459 172.856 838.923 174.664 838.923 177.048C838.923 179.432 840.523 181.224 842.603 181.224ZM842.603 180.024C841.259 180.024 840.331 179.064 840.331 177.064C840.331 175.064 841.259 174.056 842.603 174.056C843.947 174.056 844.875 175.064 844.875 177.064C844.875 179.064 843.947 180.024 842.603 180.024ZM848.344 181H849.704V177.368C849.704 175.512 850.44 174.376 852.232 174.376C852.552 174.376 852.824 174.408 853.08 174.456V173.064C852.888 173.016 852.648 172.968 852.264 172.968C850.76 172.968 849.944 174.136 849.688 174.728V173.08H848.344V181Z" fill="#6E6E78"/><path d="M764 147C764.552 147 765 146.552 765 146C765 145.448 764.552 145 764 145V147ZM676.293 145.293C675.902 145.683 675.902 146.317 676.293 146.707L682.657 153.071C683.047 153.462 683.681 153.462 684.071 153.071C684.462 152.681 684.462 152.047 684.071 151.657L678.414 146L684.071 140.343C684.462 139.953 684.462 139.319 684.071 138.929C683.681 138.538 683.047 138.538 682.657 138.929L676.293 145.293ZM764 145H677V147H764V145Z" fill="#DA372C"/><path d="M780.256 152.68H781.456V151.208C783.728 151.032 784.976 149.72 784.976 147.896C784.976 146.2 783.712 145.24 781.936 144.792L781.456 144.664V140.952C782.752 141.208 783.264 142.2 783.472 142.792L784.8 142.136C784.512 141.192 783.472 139.832 781.456 139.608V138.12H780.256V139.608C778.352 139.832 777.088 141.064 777.088 142.712C777.088 144.568 778.24 145.384 779.888 145.736L780.256 145.816V149.848C779.008 149.576 778.256 148.664 777.888 147.544L776.528 148.2C777.024 149.768 778.288 150.952 780.256 151.192V152.68ZM780.256 144.392C779.008 144.072 778.464 143.592 778.464 142.632C778.464 141.72 779.136 141.032 780.256 140.904V142.968V144.392ZM781.456 149.912V147.848V146.088C782.848 146.408 783.52 147.032 783.52 148.024C783.52 149.064 782.768 149.784 781.456 149.912ZM789.672 151.224C791.672 151.224 792.824 150.28 792.824 148.792C792.824 146.984 790.952 146.504 790.152 146.344L789.24 146.168C788.104 145.944 787.848 145.624 787.848 145.096C787.848 144.52 788.36 143.976 789.464 143.976C790.808 143.976 791.256 144.824 791.448 145.352L792.68 144.904C792.36 143.864 791.432 142.856 789.464 142.856C787.912 142.856 786.568 143.816 786.568 145.24C786.568 146.744 787.72 147.24 789.032 147.496L789.944 147.672C791.096 147.896 791.464 148.312 791.464 148.904C791.464 149.656 790.824 150.056 789.672 150.056C788.424 150.056 787.784 149.464 787.544 148.52L786.232 148.952C786.584 150.472 788.056 151.224 789.672 151.224ZM794.86 154.12H796.22V151.32V149.768C796.604 150.44 797.34 151.224 798.732 151.224C800.556 151.224 801.948 149.64 801.948 147.032C801.948 144.424 800.556 142.856 798.732 142.856C797.34 142.856 796.572 143.624 796.188 144.296V143.08H794.86V154.12ZM798.38 150.024C797.084 150.024 796.14 149.016 796.14 147.016C796.14 145.016 797.084 144.056 798.38 144.056C799.644 144.056 800.556 144.808 800.556 147.016C800.556 149.224 799.644 150.024 798.38 150.024ZM806.671 151.224C808.063 151.224 808.831 150.456 809.215 149.784V151H810.543V143.08H809.183V144.312C808.799 143.64 808.063 142.856 806.671 142.856C804.847 142.856 803.455 144.44 803.455 147.048C803.455 149.656 804.847 151.224 806.671 151.224ZM807.023 150.024C805.759 150.024 804.847 149.272 804.847 147.064C804.847 144.856 805.759 144.056 807.023 144.056C808.319 144.056 809.263 145.064 809.263 147.064C809.263 149.064 808.319 150.024 807.023 150.024ZM816.387 151.224C818.163 151.224 819.315 150.184 819.827 148.712L818.547 148.264C818.291 149.128 817.699 150.024 816.387 150.024C815.075 150.024 814.051 149.064 814.051 147.032C814.051 145.048 815.107 144.056 816.371 144.056C817.523 144.056 818.099 144.808 818.355 145.56L819.619 145.144C819.251 143.912 818.163 142.856 816.371 142.856C814.179 142.856 812.627 144.584 812.627 147.032C812.627 149.592 814.099 151.224 816.387 151.224ZM821.593 141.528H823.033V139.8H821.593V141.528ZM821.641 151H823.001V143.08H821.641V151ZM825.688 151H827.048V147.64C827.048 146.472 827.096 144.056 829.272 144.056C830.328 144.056 831.016 144.664 831.016 146.152V151H832.376V145.832C832.376 144.072 831.576 142.856 829.608 142.856C827.896 142.856 827.128 144.072 827.016 144.424V143.08H825.688V151ZM836.233 154.12H839.929C841.273 154.12 842.409 153.416 842.409 151.944C842.409 150.616 841.417 149.752 839.897 149.752H836.441C835.881 149.752 835.769 149.464 835.769 149.208C835.769 148.92 836.057 148.616 836.489 148.424C836.921 148.68 837.417 148.728 837.961 148.728C839.721 148.728 840.921 147.56 841.049 145.768L841.081 145.336C841.145 144.408 841.417 144.232 842.137 144.232H842.745V143.08H841.897C841.129 143.08 840.761 143.608 840.601 144.216C840.265 143.656 839.433 142.856 837.961 142.856C836.137 142.856 834.809 144.152 834.809 145.8C834.809 146.792 835.241 147.512 835.689 147.912C835.177 148.28 834.521 148.808 834.521 149.592C834.521 150.216 834.777 150.584 835.225 150.856C834.745 151.128 834.169 151.72 834.169 152.52C834.169 153.448 834.713 154.12 836.233 154.12ZM837.961 147.608C836.889 147.608 836.185 146.888 836.185 145.8C836.185 144.712 836.889 143.976 837.961 143.976C839.033 143.976 839.737 144.712 839.737 145.8C839.737 146.888 839.033 147.608 837.961 147.608ZM836.697 152.904C835.865 152.904 835.417 152.728 835.417 152.072C835.417 151.528 835.769 151.176 836.041 151H839.785C840.409 151 841.033 151.128 841.033 151.944C841.033 152.76 840.409 152.904 839.785 152.904H836.697ZM843.901 146.776H848.317V145.336H843.901V146.776ZM853.237 151H855.061V149.8H853.413C852.853 149.8 852.613 149.56 852.613 149V144.232H854.773V143.08H852.613V140.6H851.253V143.08H849.413V144.232H851.253V149.08C851.253 150.392 851.925 151 853.237 151ZM856.734 141.528H858.174V139.8H856.734V141.528ZM856.782 151H858.142V143.08H856.782V151ZM860.828 151H862.188V147.64C862.188 146.472 862.236 144.056 864.412 144.056C865.468 144.056 866.156 144.664 866.156 146.152V151H867.516V145.832C867.516 144.072 866.716 142.856 864.748 142.856C863.036 142.856 862.268 144.072 862.156 144.424V143.08H860.828V151ZM874.878 143.08L873.438 147.416C873.118 148.376 873.022 148.664 872.878 149.128C872.718 148.712 872.59 148.392 872.094 147.192L870.398 143.08H868.862L872.286 150.904L871.838 152.168C871.63 152.76 871.278 152.872 870.75 152.872H869.246V154.12H870.75C872.142 154.12 872.718 153.656 873.246 152.088L876.318 143.08H874.878Z" fill="#6E6E78"/><path d="M366 264C366 264.552 366.448 265 367 265C367.552 265 368 264.552 368 264L366 264ZM367.707 215.293C367.317 214.902 366.683 214.902 366.293 215.293L359.929 221.657C359.538 222.047 359.538 222.681 359.929 223.071C360.319 223.462 360.953 223.462 361.343 223.071L367 217.414L372.657 223.071C373.047 223.462 373.681 223.462 374.071 223.071C374.462 222.681 374.462 222.047 374.071 221.657L367.707 215.293ZM368 264L368 216L366 216L366 264L368 264Z" fill="#DA372C"/><path d="M383.256 265.68H384.456V264.208C386.728 264.032 387.976 262.72 387.976 260.896C387.976 259.2 386.712 258.24 384.936 257.792L384.456 257.664V253.952C385.752 254.208 386.264 255.2 386.472 255.792L387.8 255.136C387.512 254.192 386.472 252.832 384.456 252.608V251.12H383.256V252.608C381.352 252.832 380.088 254.064 380.088 255.712C380.088 257.568 381.24 258.384 382.888 258.736L383.256 258.816V262.848C382.008 262.576 381.256 261.664 380.888 260.544L379.528 261.2C380.024 262.768 381.288 263.952 383.256 264.192V265.68ZM383.256 257.392C382.008 257.072 381.464 256.592 381.464 255.632C381.464 254.72 382.136 254.032 383.256 253.904V255.968V257.392ZM384.456 262.912V260.848V259.088C385.848 259.408 386.52 260.032 386.52 261.024C386.52 262.064 385.768 262.784 384.456 262.912ZM392.672 264.224C394.672 264.224 395.824 263.28 395.824 261.792C395.824 259.984 393.952 259.504 393.152 259.344L392.24 259.168C391.104 258.944 390.848 258.624 390.848 258.096C390.848 257.52 391.36 256.976 392.464 256.976C393.808 256.976 394.256 257.824 394.448 258.352L395.68 257.904C395.36 256.864 394.432 255.856 392.464 255.856C390.912 255.856 389.568 256.816 389.568 258.24C389.568 259.744 390.72 260.24 392.032 260.496L392.944 260.672C394.096 260.896 394.464 261.312 394.464 261.904C394.464 262.656 393.824 263.056 392.672 263.056C391.424 263.056 390.784 262.464 390.544 261.52L389.232 261.952C389.584 263.472 391.056 264.224 392.672 264.224ZM397.86 267.12H399.22V264.32V262.768C399.604 263.44 400.34 264.224 401.732 264.224C403.556 264.224 404.948 262.64 404.948 260.032C404.948 257.424 403.556 255.856 401.732 255.856C400.34 255.856 399.572 256.624 399.188 257.296V256.08H397.86V267.12ZM401.38 263.024C400.084 263.024 399.14 262.016 399.14 260.016C399.14 258.016 400.084 257.056 401.38 257.056C402.644 257.056 403.556 257.808 403.556 260.016C403.556 262.224 402.644 263.024 401.38 263.024ZM409.671 264.224C411.063 264.224 411.831 263.456 412.215 262.784V264H413.543V256.08H412.183V257.312C411.799 256.64 411.063 255.856 409.671 255.856C407.847 255.856 406.455 257.44 406.455 260.048C406.455 262.656 407.847 264.224 409.671 264.224ZM410.023 263.024C408.759 263.024 407.847 262.272 407.847 260.064C407.847 257.856 408.759 257.056 410.023 257.056C411.319 257.056 412.263 258.064 412.263 260.064C412.263 262.064 411.319 263.024 410.023 263.024ZM419.387 264.224C421.163 264.224 422.315 263.184 422.827 261.712L421.547 261.264C421.291 262.128 420.699 263.024 419.387 263.024C418.075 263.024 417.051 262.064 417.051 260.032C417.051 258.048 418.107 257.056 419.371 257.056C420.523 257.056 421.099 257.808 421.355 258.56L422.619 258.144C422.251 256.912 421.163 255.856 419.371 255.856C417.179 255.856 415.627 257.584 415.627 260.032C415.627 262.592 417.099 264.224 419.387 264.224ZM424.593 254.528H426.033V252.8H424.593V254.528ZM424.641 264H426.001V256.08H424.641V264ZM428.688 264H430.048V260.64C430.048 259.472 430.096 257.056 432.272 257.056C433.328 257.056 434.016 257.664 434.016 259.152V264H435.376V258.832C435.376 257.072 434.576 255.856 432.608 255.856C430.896 255.856 430.128 257.072 430.016 257.424V256.08H428.688V264ZM439.233 267.12H442.929C444.273 267.12 445.409 266.416 445.409 264.944C445.409 263.616 444.417 262.752 442.897 262.752H439.441C438.881 262.752 438.769 262.464 438.769 262.208C438.769 261.92 439.057 261.616 439.489 261.424C439.921 261.68 440.417 261.728 440.961 261.728C442.721 261.728 443.921 260.56 444.049 258.768L444.081 258.336C444.145 257.408 444.417 257.232 445.137 257.232H445.745V256.08H444.897C444.129 256.08 443.761 256.608 443.601 257.216C443.265 256.656 442.433 255.856 440.961 255.856C439.137 255.856 437.809 257.152 437.809 258.8C437.809 259.792 438.241 260.512 438.689 260.912C438.177 261.28 437.521 261.808 437.521 262.592C437.521 263.216 437.777 263.584 438.225 263.856C437.745 264.128 437.169 264.72 437.169 265.52C437.169 266.448 437.713 267.12 439.233 267.12ZM440.961 260.608C439.889 260.608 439.185 259.888 439.185 258.8C439.185 257.712 439.889 256.976 440.961 256.976C442.033 256.976 442.737 257.712 442.737 258.8C442.737 259.888 442.033 260.608 440.961 260.608ZM439.697 265.904C438.865 265.904 438.417 265.728 438.417 265.072C438.417 264.528 438.769 264.176 439.041 264H442.785C443.409 264 444.033 264.128 444.033 264.944C444.033 265.76 443.409 265.904 442.785 265.904H439.697ZM446.901 259.776H451.317V258.336H446.901V259.776ZM456.438 264.224C458.438 264.224 459.59 263.28 459.59 261.792C459.59 259.984 457.718 259.504 456.918 259.344L456.006 259.168C454.87 258.944 454.614 258.624 454.614 258.096C454.614 257.52 455.126 256.976 456.23 256.976C457.574 256.976 458.022 257.824 458.214 258.352L459.446 257.904C459.126 256.864 458.198 255.856 456.23 255.856C454.678 255.856 453.334 256.816 453.334 258.24C453.334 259.744 454.486 260.24 455.798 260.496L456.71 260.672C457.862 260.896 458.23 261.312 458.23 261.904C458.23 262.656 457.59 263.056 456.438 263.056C455.19 263.056 454.55 262.464 454.31 261.52L452.998 261.952C453.35 263.472 454.822 264.224 456.438 264.224Z" fill="#6E6E78"/><path d="M226 115C225.448 115 225 115.448 225 116C225 116.552 225.448 117 226 117L226 115ZM327.707 116.707C328.098 116.317 328.098 115.683 327.707 115.293L321.343 108.929C320.953 108.538 320.319 108.538 319.929 108.929C319.538 109.319 319.538 109.953 319.929 110.343L325.586 116L319.929 121.657C319.538 122.047 319.538 122.681 319.929 123.071C320.319 123.462 320.953 123.462 321.343 123.071L327.707 116.707ZM226 117L327 117L327 115L226 115L226 117Z" fill="#DA372C"/><path d="M175.429 121H182.901V119.608H176.869V109.8H175.429V121ZM187.031 121.224C188.423 121.224 189.191 120.456 189.575 119.784V121H190.903V113.08H189.543V114.312C189.159 113.64 188.423 112.856 187.031 112.856C185.207 112.856 183.815 114.44 183.815 117.048C183.815 119.656 185.207 121.224 187.031 121.224ZM187.383 120.024C186.119 120.024 185.207 119.272 185.207 117.064C185.207 114.856 186.119 114.056 187.383 114.056C188.679 114.056 189.623 115.064 189.623 117.064C189.623 119.064 188.679 120.024 187.383 120.024ZM197.466 121.224C199.29 121.224 200.682 119.64 200.682 117.032C200.682 114.424 199.29 112.856 197.466 112.856C196.074 112.856 195.338 113.624 194.954 114.296V112.76V109.8H193.594V121H194.922V119.768C195.306 120.44 196.074 121.224 197.466 121.224ZM197.114 120.024C195.818 120.024 194.874 119.016 194.874 117.016C194.874 115.016 195.818 114.056 197.114 114.056C198.378 114.056 199.29 114.808 199.29 117.016C199.29 119.224 198.378 120.024 197.114 120.024ZM205.774 121.224C207.262 121.224 208.59 120.552 209.182 118.936L207.934 118.504C207.726 119.016 207.166 120.04 205.822 120.04C204.718 120.04 203.614 119.4 203.534 117.4H209.118C209.422 114.808 207.998 112.856 205.694 112.856C203.678 112.856 202.19 114.472 202.19 117.08C202.19 119.768 203.614 121.224 205.774 121.224ZM203.566 116.264C203.678 114.824 204.654 113.976 205.694 113.976C206.782 113.976 207.726 114.76 207.726 116.264H203.566ZM211.297 121H212.657V109.8H211.297V121Z" fill="#6E6E78"/><path d="M226 175C225.448 175 225 175.448 225 176C225 176.552 225.448 177 226 177L226 175ZM327.707 176.707C328.098 176.317 328.098 175.683 327.707 175.293L321.343 168.929C320.953 168.538 320.319 168.538 319.929 168.929C319.538 169.319 319.538 169.953 319.929 170.343L325.586 176L319.929 181.657C319.538 182.047 319.538 182.681 319.929 183.071C320.319 183.462 320.953 183.462 321.343 183.071L327.707 176.707ZM226 177L327 177L327 175L226 175L226 177Z" fill="#DA372C"/><path d="M188.945 181H192.705C196.081 181 198.113 178.888 198.113 175.368C198.113 172.04 196.017 169.8 192.817 169.8H188.945V181ZM190.385 179.64V171.16H192.561C195.281 171.16 196.593 172.84 196.593 175.368C196.593 178.168 195.249 179.64 192.449 179.64H190.385ZM203.384 181.224C205.464 181.224 207.064 179.432 207.064 177.048C207.064 174.664 205.528 172.856 203.384 172.856C201.24 172.856 199.704 174.664 199.704 177.048C199.704 179.432 201.304 181.224 203.384 181.224ZM203.384 180.024C202.04 180.024 201.112 179.064 201.112 177.064C201.112 175.064 202.04 174.056 203.384 174.056C204.728 174.056 205.656 175.064 205.656 177.064C205.656 179.064 204.728 180.024 203.384 180.024ZM211.799 181H213.623V179.8H211.975C211.415 179.8 211.175 179.56 211.175 179V174.232H213.335V173.08H211.175V170.6H209.815V173.08H207.975V174.232H209.815V179.08C209.815 180.392 210.487 181 211.799 181Z" fill="#6E6E78"/><circle cx="347" cy="176" r="8" fill="#00B478"/><path d="M382.296 187H385.176V173.848 168.184L398.456 187H401.368V164.6H398.488V177.112 182.104L386.136 164.6H382.296V187zM413.206 187.448C417.366 187.448 420.566 183.864 420.566 179.096 420.566 174.328 417.494 170.712 413.206 170.712 408.918 170.712 405.846 174.328 405.846 179.096 405.846 183.864 409.046 187.448 413.206 187.448zM413.206 185.048C410.518 185.048 408.662 183.128 408.662 179.128 408.662 175.128 410.518 173.112 413.206 173.112 415.894 173.112 417.75 175.128 417.75 179.128 417.75 183.128 415.894 185.048 413.206 185.048zM424.688 187H427.408V179.64C427.408 177.368 427.6 173.144 431.472 173.144 433.584 173.144 434.992 174.232 434.992 177.304V187H437.648V179.64C437.648 177.368 437.744 173.144 441.744 173.144 443.856 173.144 445.232 174.232 445.232 177.304V187H447.952V176.504C447.952 172.824 446.032 170.712 442.416 170.712 439.056 170.712 437.648 172.792 437.104 174.104 436.304 171.96 434.448 170.712 432.112 170.712 429.264 170.712 427.92 172.536 427.344 173.56V171.16H424.688V187zM452.998 168.056H455.878V164.6H452.998V168.056zM453.094 187H455.814V171.16H453.094V187zM461.188 187H463.908V180.28C463.908 177.944 464.004 173.112 468.356 173.112 470.468 173.112 471.844 174.328 471.844 177.304V187H474.564V176.664C474.564 173.144 472.964 170.712 469.028 170.712 465.604 170.712 464.068 173.144 463.844 173.848V171.16H461.188V187zM483.815 187.448C486.279 187.448 487.783 186.392 488.967 184.6 489.159 185.912 489.511 187 491.911 187H493.991V184.6H492.327C491.591 184.6 491.399 184.408 491.399 183.672V176.152C491.399 172.888 489.447 170.712 485.223 170.712 481.095 170.712 478.919 172.952 478.343 175.064L480.999 176.024C481.415 174.84 482.279 173.112 485.191 173.112 487.623 173.112 488.679 174.264 488.679 176.184V176.632C483.527 177.048 478.695 178.552 478.695 182.904 478.695 185.72 480.679 187.448 483.815 187.448zM484.455 185.144C482.471 185.144 481.511 184.184 481.511 182.68 481.511 180.088 484.807 179.096 488.679 178.68V180.44C488.679 183.736 486.535 185.144 484.455 185.144zM496.907 187H499.627V164.6H496.907V187zM341.912 127H358.36V123.448H346.072V117.208H355.288V113.688H346.072V108.152H358.36V104.6H341.912V127zM361.962 127H365.866V119.736C365.866 117.784 365.93 113.848 369.514 113.848 371.274 113.848 372.394 114.872 372.394 117.272V127H376.298V116.408C376.298 112.92 374.73 110.584 370.922 110.584 367.818 110.584 366.282 112.664 365.77 113.592V111.064H361.962V127zM384.004 133.24H391.396C394.372 133.24 396.772 131.64 396.772 128.504 396.772 125.88 394.66 123.832 391.396 123.832H384.484C383.492 123.832 382.98 123.608 382.98 122.968 382.98 122.456 383.396 122.008 384.292 121.688 385.22 122.168 386.308 122.264 387.46 122.264 391.14 122.264 393.796 120.088 394.116 116.568L394.18 116.088C394.34 114.36 394.692 114.104 395.844 114.104H397.412V111.064H396.036C394.084 111.064 393.444 111.832 393.284 113.624 392.356 111.992 390.276 110.584 387.364 110.584 383.46 110.584 380.644 113.048 380.644 116.536 380.644 118.232 381.38 119.672 382.404 120.504 381.188 121.24 379.94 122.36 379.94 123.96 379.94 125.336 380.484 126.136 381.412 126.744 380.452 127.352 379.428 128.504 379.428 129.976 379.428 131.96 380.74 133.24 384.004 133.24zM387.46 119.544C385.604 119.544 384.388 118.328 384.388 116.504 384.388 114.68 385.604 113.368 387.46 113.368 389.316 113.368 390.532 114.68 390.532 116.504 390.532 118.328 389.316 119.544 387.46 119.544zM384.516 130.264C383.364 130.264 382.564 129.816 382.564 128.696 382.564 127.896 383.108 127.256 383.556 127H390.724C392.132 127 392.9 127.544 392.9 128.6 392.9 129.752 392.132 130.264 390.724 130.264H384.516zM400.083 108.536H404.243V104.568H400.083V108.536zM400.243 127H404.115V111.064H400.243V127zM408.806 127H412.71V119.736C412.71 117.784 412.774 113.848 416.358 113.848 418.118 113.848 419.238 114.872 419.238 117.272V127H423.142V116.408C423.142 112.92 421.574 110.584 417.766 110.584 414.661 110.584 413.126 112.664 412.614 113.592V111.064H408.806V127zM434.4 127.48C438.592 127.48 440.832 125.304 441.856 122.84L438.336 121.528C437.76 122.872 436.704 124.408 434.432 124.408 432.384 124.408 430.656 123.224 430.496 119.992H441.76C442.272 114.712 439.424 110.584 434.336 110.584 429.92 110.584 426.624 113.944 426.624 119.032 426.624 124.344 429.696 127.48 434.4 127.48zM430.624 117.112C430.912 114.808 432.416 113.496 434.336 113.496 436.352 113.496 437.76 114.776 437.888 117.112H430.624zM453.337 133.24H457.241V127.64 124.728C457.977 125.976 459.641 127.48 462.361 127.48 466.425 127.48 469.145 124.12 469.145 119.032 469.145 113.912 466.425 110.552 462.361 110.552 459.609 110.552 457.881 112.152 457.145 113.304V111.064H453.337V133.24zM461.081 124.408C458.713 124.408 457.049 122.616 457.049 119 457.049 115.416 458.713 113.624 461.081 113.624 463.353 113.624 465.081 115.032 465.081 119 465.081 123 463.353 124.408 461.081 124.408zM479.494 127.48C483.686 127.48 485.926 125.304 486.95 122.84L483.43 121.528C482.854 122.872 481.798 124.408 479.526 124.408 477.478 124.408 475.75 123.224 475.59 119.992H486.854C487.366 114.712 484.518 110.584 479.43 110.584 475.014 110.584 471.718 113.944 471.718 119.032 471.718 124.344 474.79 127.48 479.494 127.48zM475.718 117.112C476.006 114.808 477.51 113.496 479.43 113.496 481.446 113.496 482.854 114.776 482.982 117.112H475.718zM490.618 127H494.522V120.28C494.522 116.376 495.962 114.744 499.354 114.744 499.93 114.744 500.506 114.776 501.082 114.872V110.872C500.794 110.808 500.474 110.776 500.026 110.776 496.474 110.776 494.97 113.304 494.458 114.584V111.064H490.618V127zM505.433 127H509.337V114.104H513.209V111.064H509.337V109.272C509.337 108.248 509.785 107.8 510.809 107.8H513.849V104.6H509.433C506.841 104.6 505.433 106.136 505.433 108.792V111.064H502.201V114.104H505.433V127zM522.749 127.48C527.389 127.48 530.781 124.088 530.781 119.032 530.781 114.04 527.421 110.584 522.749 110.584 518.077 110.584 514.717 114.04 514.717 119.032 514.717 123.896 518.109 127.48 522.749 127.48zM522.749 124.312C520.381 124.312 518.749 122.648 518.749 119.096 518.749 115.544 520.381 113.752 522.749 113.752 525.117 113.752 526.717 115.544 526.717 119.096 526.717 122.648 525.117 124.312 522.749 124.312zM534.399 127H538.303V120.28C538.303 116.376 539.743 114.744 543.135 114.744 543.711 114.744 544.287 114.776 544.863 114.872V110.872C544.575 110.808 544.255 110.776 543.807 110.776 540.255 110.776 538.751 113.304 538.239 114.584V111.064H534.399V127zM547.774 127H551.678V119.128C551.678 117.272 551.806 113.88 555.038 113.88 556.734 113.88 557.886 114.808 557.886 117.272V127H561.726V119.128C561.726 117.272 561.79 113.88 565.054 113.88 566.782 113.88 567.902 114.808 567.902 117.272V127H571.806V116.376C571.806 112.376 569.63 110.584 566.43 110.584 563.902 110.584 562.238 111.768 561.086 113.592 560.19 111.768 558.59 110.584 556.35 110.584 554.078 110.584 552.446 111.8 551.582 113.4V111.064H547.774V127zM580.496 127.48C583.184 127.48 584.88 126.136 585.84 124.632 586.032 126.04 586.736 127 588.752 127H591.76V123.928H590.256C589.424 123.928 589.296 123.736 589.296 122.968V116.536C589.296 112.632 586.896 110.584 582.512 110.584 578.032 110.584 575.536 112.92 575.152 115.288L578.768 116.216C579.152 114.808 580.144 113.56 582.512 113.56 584.56 113.56 585.456 114.488 585.456 116.056V116.6C580.176 117.08 575.408 118.456 575.408 122.904 575.408 125.72 577.52 127.48 580.496 127.48zM581.776 124.536C580.176 124.536 579.376 123.736 579.376 122.52 579.376 120.248 582.16 119.544 585.456 119.16V120.44C585.456 123.288 583.664 124.536 581.776 124.536zM594.306 127H598.21V119.736C598.21 117.784 598.274 113.848 601.858 113.848 603.618 113.848 604.738 114.872 604.738 117.272V127H608.642V116.408C608.642 112.92 607.074 110.584 603.266 110.584 600.161 110.584 598.626 112.664 598.114 113.592V111.064H594.306V127zM620.284 127.48C623.996 127.48 626.684 125.432 627.836 122.392L624.156 121.08C623.516 123.032 622.364 124.312 620.22 124.312 617.948 124.312 616.06 122.584 616.06 119 616.06 115.48 617.916 113.752 620.188 113.752 622.076 113.752 623.324 114.904 623.932 116.6L627.516 115.32C626.588 112.664 624.06 110.584 620.284 110.584 615.612 110.584 612.092 113.944 612.092 119 612.092 124.152 615.484 127.48 620.284 127.48zM637.619 127.48C641.811 127.48 644.051 125.304 645.075 122.84L641.555 121.528C640.979 122.872 639.923 124.408 637.651 124.408 635.603 124.408 633.875 123.224 633.715 119.992H644.979C645.491 114.712 642.643 110.584 637.555 110.584 633.139 110.584 629.843 113.944 629.843 119.032 629.843 124.344 632.915 127.48 637.619 127.48zM633.843 117.112C634.131 114.808 635.635 113.496 637.555 113.496 639.571 113.496 640.979 114.776 641.107 117.112H633.843z" fill="#1D1D21"/><path opacity="0.2" fill="#DA372C" d="M355 152H379V200H355zM339 140H659V152H339z"/></svg>