<svg width="958" height="347" viewBox="0 0 958 347" fill="none" xmlns="http://www.w3.org/2000/svg">
<path d="M229.556 150.42C233.56 150.42 235.296 148.292 236.052 146.948V150H239.412V140.088H229.248V143.224H235.772C235.576 145.156 233.812 147.312 230.284 147.312C226.812 147.312 224.096 144.764 224.096 140.228C224.096 135.664 226.952 133.116 230.396 133.116C233.56 133.116 235.156 134.936 235.968 137.26L239.496 135.916C238.46 132.808 235.604 129.98 230.424 129.98C224.74 129.98 220.288 134.348 220.288 140.256C220.288 146.668 224.348 150.42 229.556 150.42ZM243.166 150H246.582V130.4H243.166V150ZM254.325 150.42C256.677 150.42 258.161 149.244 259.001 147.928C259.169 149.16 259.785 150 261.549 150H264.181V147.312H262.865C262.137 147.312 262.025 147.144 262.025 146.472V140.844C262.025 137.428 259.925 135.636 256.089 135.636C252.169 135.636 249.985 137.68 249.649 139.752L252.813 140.564C253.149 139.332 254.017 138.24 256.089 138.24C257.881 138.24 258.665 139.052 258.665 140.424V140.9C254.045 141.32 249.873 142.524 249.873 146.416C249.873 148.88 251.721 150.42 254.325 150.42ZM255.445 147.844C254.045 147.844 253.345 147.144 253.345 146.08C253.345 144.092 255.781 143.476 258.665 143.14V144.26C258.665 146.752 257.097 147.844 255.445 147.844ZM265.456 150H277.244V147.2H272.876H269.18L276.88 138.52V136.056H265.764V138.828H269.18H272.708L265.456 147.004V150ZM285.987 150.42C289.655 150.42 291.615 148.516 292.511 146.36L289.431 145.212C288.927 146.388 288.003 147.732 286.015 147.732C284.223 147.732 282.711 146.696 282.571 143.868H292.427C292.875 139.248 290.383 135.636 285.931 135.636C282.067 135.636 279.183 138.576 279.183 143.028C279.183 147.676 281.871 150.42 285.987 150.42ZM282.683 141.348C282.935 139.332 284.251 138.184 285.931 138.184C287.695 138.184 288.927 139.304 289.039 141.348H282.683ZM300.704 150.42C303.112 150.42 304.624 149.076 305.268 148.04V150H308.6V130.4H305.184V135.496V138.016C304.54 136.98 303.084 135.636 300.704 135.636C297.176 135.636 294.796 138.548 294.796 143.028C294.796 147.508 297.176 150.42 300.704 150.42ZM301.824 147.732C299.836 147.732 298.352 146.528 298.352 143.028C298.352 139.556 299.836 138.324 301.824 138.324C303.896 138.324 305.352 139.892 305.352 143.028C305.352 146.192 303.896 147.732 301.824 147.732Z" fill="#1D1D21"/>
<path d="M195 175H335V179H195V175Z" fill="#1662DD"/>
<path d="M393.408 150.42C398.728 150.42 401.22 147.732 401.22 144.372C401.22 140.984 398.616 139.108 394.892 138.492L392.344 138.044C390.524 137.708 389.572 136.952 389.572 135.608C389.572 134.208 390.636 133.004 393.1 133.004C395.844 133.004 397.076 134.656 397.608 136.252L400.996 134.936C400.24 132.556 397.916 129.98 393.212 129.98C388.508 129.98 385.848 132.612 385.848 135.776C385.848 139.276 388.116 140.9 391.588 141.488L394.08 141.908C396.46 142.328 397.44 143.224 397.44 144.624C397.44 146.22 396.208 147.396 393.464 147.396C390.384 147.396 388.844 145.408 388.312 143.336L384.868 144.652C385.68 147.788 388.396 150.42 393.408 150.42ZM404.502 155.46H407.918V150.56V148.012C408.562 149.104 410.018 150.42 412.398 150.42C415.954 150.42 418.334 147.48 418.334 143.028C418.334 138.548 415.954 135.608 412.398 135.608C409.99 135.608 408.478 137.008 407.834 138.016V136.056H404.502V155.46ZM411.278 147.732C409.206 147.732 407.75 146.164 407.75 143C407.75 139.864 409.206 138.296 411.278 138.296C413.266 138.296 414.778 139.528 414.778 143C414.778 146.5 413.266 147.732 411.278 147.732ZM421.537 150H424.953V144.12C424.953 140.704 426.213 139.276 429.181 139.276C429.685 139.276 430.189 139.304 430.693 139.388V135.888C430.441 135.832 430.161 135.804 429.769 135.804C426.661 135.804 425.345 138.016 424.897 139.136V136.056H421.537V150ZM433.1 133.844H436.74V130.372H433.1V133.844ZM433.24 150H436.628V136.056H433.24V150ZM440.732 150H444.148V143.644C444.148 141.936 444.204 138.492 447.34 138.492C448.88 138.492 449.86 139.388 449.86 141.488V150H453.276V140.732C453.276 137.68 451.904 135.636 448.572 135.636C445.856 135.636 444.512 137.456 444.064 138.268V136.056H440.732V150ZM467.635 150H471.947L465.311 141.684L471.191 136.056H466.935L460.691 142.244V137.4V130.4H457.275V150H460.691V146.08L462.959 143.952L467.635 150ZM473.818 150H477.234V130.4H473.818V150ZM487.217 150.42C490.885 150.42 492.845 148.516 493.741 146.36L490.661 145.212C490.157 146.388 489.233 147.732 487.245 147.732C485.453 147.732 483.941 146.696 483.801 143.868H493.657C494.105 139.248 491.613 135.636 487.161 135.636C483.297 135.636 480.413 138.576 480.413 143.028C480.413 147.676 483.101 150.42 487.217 150.42ZM483.913 141.348C484.165 139.332 485.481 138.184 487.161 138.184C488.925 138.184 490.157 139.304 490.269 141.348H483.913Z" fill="#1D1D21"/>
<path d="M360 175H519V179H360V175Z" fill="white"/>
<path d="M570.548 150H574.188V142.216H582.98V139.08H574.188V133.508H585.248V130.4H570.548V150ZM587.842 133.844H591.482V130.372H587.842V133.844ZM587.982 150H591.37V136.056H587.982V150ZM595.474 150H598.89V130.4H595.474V150ZM603.021 150H606.437V130.4H603.021V150ZM616.42 150.42C620.088 150.42 622.048 148.516 622.944 146.36L619.864 145.212C619.36 146.388 618.436 147.732 616.448 147.732C614.656 147.732 613.144 146.696 613.004 143.868H622.86C623.308 139.248 620.816 135.636 616.364 135.636C612.5 135.636 609.616 138.576 609.616 143.028C609.616 147.676 612.304 150.42 616.42 150.42ZM613.116 141.348C613.368 139.332 614.684 138.184 616.364 138.184C618.128 138.184 619.36 139.304 619.472 141.348H613.116ZM631.138 150.42C633.546 150.42 635.058 149.076 635.702 148.04V150H639.034V130.4H635.618V135.496V138.016C634.974 136.98 633.518 135.636 631.138 135.636C627.61 135.636 625.23 138.548 625.23 143.028C625.23 147.508 627.61 150.42 631.138 150.42ZM632.258 147.732C630.27 147.732 628.786 146.528 628.786 143.028C628.786 139.556 630.27 138.324 632.258 138.324C634.33 138.324 635.786 139.892 635.786 143.028C635.786 146.192 634.33 147.732 632.258 147.732Z" fill="#1D1D21"/>
<path d="M544 175H666V179H544V175Z" fill="white"/>
<path d="M721.804 150.42C725.808 150.42 727.796 148.124 727.796 143.112V130.4H724.156V143.392C724.156 145.94 723.54 147.34 721.692 147.34C719.676 147.34 719.088 145.632 719.088 142.748L715.392 143.7C715.476 147.872 717.8 150.42 721.804 150.42ZM737.881 150.42C741.549 150.42 743.509 148.516 744.405 146.36L741.325 145.212C740.821 146.388 739.897 147.732 737.909 147.732C736.117 147.732 734.605 146.696 734.465 143.868H744.321C744.769 139.248 742.277 135.636 737.825 135.636C733.961 135.636 731.077 138.576 731.077 143.028C731.077 147.676 733.765 150.42 737.881 150.42ZM734.577 141.348C734.829 139.332 736.145 138.184 737.825 138.184C739.589 138.184 740.821 139.304 740.933 141.348H734.577ZM747.615 150H751.031V130.4H747.615V150ZM755.162 150H758.578V130.4H755.162V150ZM771.641 136.056L769.709 142.02L768.477 145.772C768.225 145.184 767.889 144.484 766.881 142.048L764.305 136.056H760.609L767.105 149.888L766.685 151.148C766.265 152.296 765.789 152.632 764.837 152.632H761.533V155.46H765.173C767.609 155.46 768.729 154.48 769.541 152.1L775.225 136.056H771.641Z" fill="#1D1D21"/>
<path d="M691 175H800V179H691V175Z" fill="white"/>
<path fill-rule="evenodd" clip-rule="evenodd" d="M958 179H195V181H958V179Z" fill="#C1C1C8"/>
<path d="M195 181H958V340C958 343.866 954.866 347 951 347H195V181Z" fill="#F5F5F6"/>
<path d="M548.615 260.668V259.329H555.388V260.668H552.766V268H551.243V260.668H548.615ZM555.159 266.077C555.159 265.73 555.223 265.423 555.35 265.156C555.481 264.885 555.652 264.672 555.864 264.515C556.08 264.354 556.312 264.234 556.562 264.153C556.816 264.073 557.076 264.033 557.343 264.033C558.231 264.033 558.906 264.301 559.368 264.839V263.906C559.368 263.546 559.232 263.263 558.961 263.055C558.695 262.844 558.341 262.738 557.901 262.738C557.199 262.738 556.579 263 556.042 263.525L555.483 262.579C556.198 261.902 557.078 261.563 558.124 261.563C558.487 261.563 558.82 261.606 559.12 261.69C559.425 261.771 559.7 261.898 559.945 262.071C560.191 262.241 560.383 262.478 560.523 262.782C560.663 263.083 560.732 263.436 560.732 263.842V268H559.368V267.327C559.131 267.594 558.837 267.799 558.485 267.943C558.138 268.087 557.757 268.159 557.343 268.159C557.08 268.159 556.822 268.114 556.568 268.025C556.314 267.937 556.08 267.81 555.864 267.645C555.652 267.475 555.481 267.255 555.35 266.984C555.223 266.714 555.159 266.411 555.159 266.077ZM556.537 266.102C556.537 266.436 556.661 266.707 556.911 266.915C557.165 267.118 557.487 267.219 557.876 267.219C558.185 267.219 558.473 267.164 558.739 267.054C559.006 266.94 559.215 266.779 559.368 266.572V265.62C559.215 265.412 559.006 265.254 558.739 265.144C558.473 265.029 558.185 264.972 557.876 264.972C557.487 264.972 557.165 265.076 556.911 265.283C556.661 265.486 556.537 265.759 556.537 266.102ZM562.503 268V259.329H563.868V262.592C564.114 262.262 564.412 262.008 564.763 261.83C565.114 261.652 565.489 261.563 565.887 261.563C566.703 261.563 567.37 261.864 567.886 262.465C568.407 263.066 568.667 263.866 568.667 264.864C568.667 265.88 568.407 266.684 567.886 267.276C567.37 267.865 566.703 268.159 565.887 268.159C565.485 268.159 565.108 268.07 564.757 267.892C564.41 267.71 564.114 267.46 563.868 267.143V268H562.503ZM563.868 266.115C564.021 266.352 564.249 266.551 564.554 266.711C564.858 266.868 565.167 266.946 565.48 266.946C566.022 266.946 566.454 266.754 566.775 266.369C567.101 265.984 567.264 265.482 567.264 264.864C567.264 264.246 567.101 263.745 566.775 263.36C566.454 262.971 566.022 262.776 565.48 262.776C565.167 262.776 564.858 262.858 564.554 263.023C564.249 263.188 564.021 263.392 563.868 263.633V266.115ZM573.396 270.393V261.722H574.761V262.579C574.998 262.262 575.292 262.014 575.643 261.836C575.999 261.654 576.377 261.563 576.779 261.563C577.609 261.563 578.279 261.858 578.792 262.446C579.304 263.034 579.56 263.836 579.56 264.852C579.56 265.871 579.301 266.678 578.785 267.27C578.273 267.862 577.604 268.159 576.779 268.159C576.382 268.159 576.009 268.072 575.662 267.898C575.315 267.721 575.015 267.465 574.761 267.13V270.393H573.396ZM574.761 266.102C574.913 266.335 575.142 266.534 575.446 266.699C575.755 266.864 576.064 266.946 576.373 266.946C576.906 266.946 577.334 266.752 577.655 266.362C577.981 265.973 578.144 265.469 578.144 264.852C578.144 264.242 577.981 263.745 577.655 263.36C577.334 262.971 576.906 262.776 576.373 262.776C576.06 262.776 575.751 262.858 575.446 263.023C575.142 263.184 574.913 263.383 574.761 263.62V266.102ZM580.537 266.077C580.537 265.73 580.601 265.423 580.728 265.156C580.859 264.885 581.03 264.672 581.242 264.515C581.458 264.354 581.69 264.234 581.94 264.153C582.194 264.073 582.454 264.033 582.721 264.033C583.609 264.033 584.284 264.301 584.746 264.839V263.906C584.746 263.546 584.61 263.263 584.339 263.055C584.073 262.844 583.719 262.738 583.279 262.738C582.577 262.738 581.957 263 581.419 263.525L580.861 262.579C581.576 261.902 582.456 261.563 583.501 261.563C583.865 261.563 584.198 261.606 584.498 261.69C584.803 261.771 585.078 261.898 585.323 262.071C585.569 262.241 585.761 262.478 585.901 262.782C586.041 263.083 586.11 263.436 586.11 263.842V268H584.746V267.327C584.509 267.594 584.215 267.799 583.863 267.943C583.516 268.087 583.135 268.159 582.721 268.159C582.458 268.159 582.2 268.114 581.946 268.025C581.692 267.937 581.458 267.81 581.242 267.645C581.03 267.475 580.859 267.255 580.728 266.984C580.601 266.714 580.537 266.411 580.537 266.077ZM581.915 266.102C581.915 266.436 582.039 266.707 582.289 266.915C582.543 267.118 582.865 267.219 583.254 267.219C583.563 267.219 583.851 267.164 584.117 267.054C584.384 266.94 584.593 266.779 584.746 266.572V265.62C584.593 265.412 584.384 265.254 584.117 265.144C583.851 265.029 583.563 264.972 583.254 264.972C582.865 264.972 582.543 265.076 582.289 265.283C582.039 265.486 581.915 265.759 581.915 266.102ZM587.881 268V261.722H589.246V262.579C589.483 262.3 589.796 262.061 590.186 261.862C590.575 261.663 590.998 261.563 591.455 261.563C592.124 261.563 592.629 261.737 592.972 262.084C593.315 262.431 593.486 262.93 593.486 263.582V268H592.122V264.077C592.122 263.612 592.012 263.279 591.792 263.081C591.576 262.877 591.265 262.776 590.858 262.776C590.528 262.776 590.219 262.858 589.932 263.023C589.644 263.184 589.415 263.383 589.246 263.62V268H587.881ZM594.87 264.852C594.87 264.251 595.003 263.701 595.27 263.201C595.541 262.698 595.922 262.3 596.413 262.008C596.903 261.712 597.451 261.563 598.057 261.563C598.988 261.563 599.735 261.885 600.297 262.528C600.864 263.167 601.148 263.986 601.148 264.985V265.309H596.298C596.353 265.804 596.556 266.216 596.908 266.546C597.263 266.872 597.727 267.035 598.298 267.035C598.615 267.035 598.937 266.976 599.263 266.857C599.593 266.735 599.866 266.565 600.082 266.35L600.704 267.245C600.395 267.541 600.02 267.767 599.58 267.924C599.14 268.08 598.666 268.159 598.158 268.159C597.206 268.159 596.419 267.854 595.797 267.245C595.179 266.631 594.87 265.833 594.87 264.852ZM596.286 264.35H599.821C599.813 264.155 599.773 263.965 599.701 263.779C599.633 263.588 599.531 263.409 599.396 263.239C599.261 263.07 599.076 262.935 598.844 262.833C598.615 262.731 598.353 262.681 598.057 262.681C597.777 262.681 597.523 262.731 597.295 262.833C597.071 262.93 596.889 263.064 596.749 263.233C596.614 263.398 596.506 263.576 596.425 263.766C596.349 263.952 596.303 264.147 596.286 264.35ZM602.494 268V259.329H603.858V268H602.494Z" fill="#2D8C9E"/>
<path d="M524 263.5L524.5 263.5L524.5 264.5L524 264.5L524 263.5ZM337.646 264.354C337.451 264.158 337.451 263.842 337.646 263.646L340.828 260.464C341.024 260.269 341.34 260.269 341.536 260.464C341.731 260.66 341.731 260.976 341.536 261.172L338.707 264L341.536 266.828C341.731 267.024 341.731 267.34 341.536 267.536C341.34 267.731 341.024 267.731 340.828 267.536L337.646 264.354ZM524 264.5L338 264.5L338 263.5L524 263.5L524 264.5Z" fill="#2D8C9E"/>
<path d="M629 263.5L628.5 263.5L628.5 264.5L629 264.5L629 263.5ZM815.354 264.354C815.549 264.158 815.549 263.842 815.354 263.646L812.172 260.464C811.976 260.269 811.66 260.269 811.464 260.464C811.269 260.66 811.269 260.976 811.464 261.172L814.293 264L811.464 266.828C811.269 267.024 811.269 267.34 811.464 267.536C811.66 267.731 811.976 267.731 812.172 267.536L815.354 264.354ZM629 264.5L815 264.5L815 263.5L629 263.5L629 264.5Z" fill="#2D8C9E"/>
<path d="M575.5 248L575.5 248.5L576.5 248.5L576.5 248L575.5 248ZM576.354 207.646C576.158 207.451 575.842 207.451 575.646 207.646L572.464 210.828C572.269 211.024 572.269 211.34 572.464 211.536C572.66 211.731 572.976 211.731 573.172 211.536L576 208.707L578.828 211.536C579.024 211.731 579.34 211.731 579.536 211.536C579.731 211.34 579.731 211.024 579.536 210.828L576.354 207.646ZM576.5 248L576.5 208L575.5 208L575.5 248L576.5 248Z" fill="#2D8C9E"/>
<path d="M575.5 280L575.5 279.5L576.5 279.5L576.5 280L575.5 280ZM576.354 320.354C576.158 320.549 575.842 320.549 575.646 320.354L572.464 317.172C572.269 316.976 572.269 316.66 572.464 316.464C572.66 316.269 572.976 316.269 573.172 316.464L576 319.293L578.828 316.464C579.024 316.269 579.34 316.269 579.536 316.464C579.731 316.66 579.731 316.976 579.536 317.172L576.354 320.354ZM576.5 280L576.5 320L575.5 320L575.5 280L576.5 280Z" fill="#2D8C9E"/>
<path d="M875.5 75L875.5 74.5L874.5 74.5L874.5 75L875.5 75ZM874.646 178.354C874.842 178.549 875.158 178.549 875.354 178.354L878.536 175.172C878.731 174.976 878.731 174.66 878.536 174.464C878.34 174.269 878.024 174.269 877.828 174.464L875 177.293L872.172 174.464C871.976 174.269 871.66 174.269 871.464 174.464C871.269 174.66 871.269 174.976 871.464 175.172L874.646 178.354ZM874.5 75L874.5 178L875.5 178L875.5 75L874.5 75Z" fill="#2D8C9E"/>
<path d="M806.612 90H807.692V82.62H810.8V81.6H803.624V82.62H806.612V90ZM812.271 90.168C813.195 90.168 813.759 89.772 814.203 89.1C814.275 89.592 814.407 90 815.307 90H816.087V89.1H815.463C815.187 89.1 815.115 89.028 815.115 88.752V85.932C815.115 84.708 814.383 83.892 812.799 83.892C811.251 83.892 810.435 84.732 810.219 85.524L811.215 85.884C811.371 85.44 811.695 84.792 812.787 84.792C813.699 84.792 814.095 85.224 814.095 85.944V86.112C812.163 86.268 810.351 86.832 810.351 88.464C810.351 89.52 811.095 90.168 812.271 90.168ZM812.511 89.304C811.767 89.304 811.407 88.944 811.407 88.38C811.407 87.408 812.643 87.036 814.095 86.88V87.54C814.095 88.776 813.291 89.304 812.511 89.304ZM820.084 90.168C821.452 90.168 822.496 88.98 822.496 87.024C822.496 85.068 821.452 83.892 820.084 83.892C819.04 83.892 818.488 84.468 818.2 84.972V83.82V81.6H817.18V90H818.176V89.076C818.464 89.58 819.04 90.168 820.084 90.168ZM819.82 89.268C818.848 89.268 818.14 88.512 818.14 87.012C818.14 85.512 818.848 84.792 819.82 84.792C820.768 84.792 821.452 85.356 821.452 87.012C821.452 88.668 820.768 89.268 819.82 89.268ZM829.144 90.168C830.188 90.168 830.764 89.592 831.052 89.088V90H832.048V81.6H831.028V83.82V84.984C830.74 84.48 830.188 83.892 829.144 83.892C827.776 83.892 826.732 85.08 826.732 87.036C826.732 88.992 827.776 90.168 829.144 90.168ZM829.408 89.268C828.46 89.268 827.776 88.704 827.776 87.048C827.776 85.392 828.46 84.792 829.408 84.792C830.38 84.792 831.088 85.548 831.088 87.048C831.088 88.548 830.38 89.268 829.408 89.268ZM834.031 82.896H835.111V81.6H834.031V82.896ZM834.067 90H835.087V84.06H834.067V90ZM838.386 90H839.658L841.578 84.06H840.534L839.514 87.48L839.034 89.064C838.95 88.788 838.734 88.08 838.542 87.48L837.474 84.06H836.406L838.386 90ZM842.902 82.896H843.982V81.6H842.902V82.896ZM842.938 90H843.958V84.06H842.938V90ZM847.941 90.168C848.985 90.168 849.561 89.592 849.849 89.088V90H850.845V81.6H849.825V83.82V84.984C849.537 84.48 848.985 83.892 847.941 83.892C846.573 83.892 845.529 85.08 845.529 87.036C845.529 88.992 846.573 90.168 847.941 90.168ZM848.205 89.268C847.257 89.268 846.573 88.704 846.573 87.048C846.573 85.392 847.257 84.792 848.205 84.792C849.177 84.792 849.885 85.548 849.885 87.048C849.885 88.548 849.177 89.268 848.205 89.268ZM855.107 90.168C856.223 90.168 857.219 89.664 857.663 88.452L856.727 88.128C856.571 88.512 856.151 89.28 855.143 89.28C854.315 89.28 853.487 88.8 853.427 87.3H857.615C857.843 85.356 856.775 83.892 855.047 83.892C853.535 83.892 852.419 85.104 852.419 87.06C852.419 89.076 853.487 90.168 855.107 90.168ZM853.451 86.448C853.535 85.368 854.267 84.732 855.047 84.732C855.863 84.732 856.571 85.32 856.571 86.448H853.451ZM859.25 90H860.27V87.276C860.27 85.884 860.822 85.032 862.166 85.032C862.406 85.032 862.61 85.056 862.802 85.092V84.048C862.658 84.012 862.478 83.976 862.19 83.976C861.062 83.976 860.45 84.852 860.258 85.296V84.06H859.25V90Z" fill="#2D8C9E"/>
<path d="M268.5 54L268.5 53.5L267.5 53.5L267.5 54L268.5 54ZM267.646 113.354C267.842 113.549 268.158 113.549 268.354 113.354L271.536 110.172C271.731 109.976 271.731 109.66 271.536 109.464C271.34 109.269 271.024 109.269 270.828 109.464L268 112.293L265.172 109.464C264.976 109.269 264.66 109.269 264.464 109.464C264.269 109.66 264.269 109.976 264.464 110.172L267.646 113.354ZM267.5 54L267.5 113L268.5 113L268.5 54L267.5 54Z" fill="#2D8C9E"/>
<path d="M239.549 69H240.629V61.62H243.737V60.6H236.561V61.62H239.549V69ZM245.208 69.168C246.132 69.168 246.696 68.772 247.14 68.1C247.212 68.592 247.344 69 248.244 69H249.024V68.1H248.4C248.124 68.1 248.052 68.028 248.052 67.752V64.932C248.052 63.708 247.32 62.892 245.736 62.892C244.188 62.892 243.372 63.732 243.156 64.524L244.152 64.884C244.308 64.44 244.632 63.792 245.724 63.792C246.636 63.792 247.032 64.224 247.032 64.944V65.112C245.1 65.268 243.288 65.832 243.288 67.464C243.288 68.52 244.032 69.168 245.208 69.168ZM245.448 68.304C244.704 68.304 244.344 67.944 244.344 67.38C244.344 66.408 245.58 66.036 247.032 65.88V66.54C247.032 67.776 246.228 68.304 245.448 68.304ZM253.021 69.168C254.389 69.168 255.433 67.98 255.433 66.024C255.433 64.068 254.389 62.892 253.021 62.892C251.977 62.892 251.425 63.468 251.137 63.972V62.82V60.6H250.117V69H251.113V68.076C251.401 68.58 251.977 69.168 253.021 69.168ZM252.757 68.268C251.785 68.268 251.077 67.512 251.077 66.012C251.077 64.512 251.785 63.792 252.757 63.792C253.705 63.792 254.389 64.356 254.389 66.012C254.389 67.668 253.705 68.268 252.757 68.268Z" fill="#2D8C9E"/>
<path d="M35 176.5L34.5 176.5L34.5 177.5L35 177.5L35 176.5ZM177.354 177.354C177.549 177.158 177.549 176.842 177.354 176.646L174.172 173.464C173.976 173.269 173.66 173.269 173.464 173.464C173.269 173.66 173.269 173.976 173.464 174.172L176.293 177L173.464 179.828C173.269 180.024 173.269 180.34 173.464 180.536C173.66 180.731 173.976 180.731 174.172 180.536L177.354 177.354ZM35 177.5L177 177.5L177 176.5L35 176.5L35 177.5Z" fill="#2D8C9E"/>
<path d="M38.108 159H39.188V151.62H42.296V150.6H35.12V151.62H38.108V159ZM43.7667 159.168C44.6907 159.168 45.2547 158.772 45.6987 158.1C45.7707 158.592 45.9027 159 46.8027 159H47.5827V158.1H46.9587C46.6827 158.1 46.6107 158.028 46.6107 157.752V154.932C46.6107 153.708 45.8787 152.892 44.2947 152.892C42.7467 152.892 41.9307 153.732 41.7147 154.524L42.7107 154.884C42.8667 154.44 43.1907 153.792 44.2827 153.792C45.1947 153.792 45.5907 154.224 45.5907 154.944V155.112C43.6587 155.268 41.8467 155.832 41.8467 157.464C41.8467 158.52 42.5907 159.168 43.7667 159.168ZM44.0067 158.304C43.2627 158.304 42.9027 157.944 42.9027 157.38C42.9027 156.408 44.1387 156.036 45.5907 155.88V156.54C45.5907 157.776 44.7867 158.304 44.0067 158.304ZM51.58 159.168C52.948 159.168 53.992 157.98 53.992 156.024C53.992 154.068 52.948 152.892 51.58 152.892C50.536 152.892 49.984 153.468 49.696 153.972V152.82V150.6H48.676V159H49.672V158.076C49.96 158.58 50.536 159.168 51.58 159.168ZM51.316 158.268C50.344 158.268 49.636 157.512 49.636 156.012C49.636 154.512 50.344 153.792 51.316 153.792C52.264 153.792 52.948 154.356 52.948 156.012C52.948 157.668 52.264 158.268 51.316 158.268ZM58.9001 159H59.9801V150.6H58.9001V159ZM62.2228 159H63.2428V156.48C63.2428 155.604 63.2788 153.792 64.9108 153.792C65.7028 153.792 66.2188 154.248 66.2188 155.364V159H67.2388V155.124C67.2388 153.804 66.6388 152.892 65.1628 152.892C63.8788 152.892 63.3028 153.804 63.2188 154.068V153.06H62.2228V159ZM71.1401 159.168C72.1841 159.168 72.7601 158.592 73.0481 158.088V159H74.0441V150.6H73.0241V152.82V153.984C72.7361 153.48 72.1841 152.892 71.1401 152.892C69.7721 152.892 68.7281 154.08 68.7281 156.036C68.7281 157.992 69.7721 159.168 71.1401 159.168ZM71.4041 158.268C70.4561 158.268 69.7721 157.704 69.7721 156.048C69.7721 154.392 70.4561 153.792 71.4041 153.792C72.3761 153.792 73.0841 154.548 73.0841 156.048C73.0841 157.548 72.3761 158.268 71.4041 158.268ZM76.0267 151.896H77.1067V150.6H76.0267V151.896ZM76.0627 159H77.0827V153.06H76.0627V159ZM81.4618 159.168C82.7938 159.168 83.6578 158.388 84.0418 157.284L83.0818 156.948C82.8898 157.596 82.4458 158.268 81.4618 158.268C80.4778 158.268 79.7098 157.548 79.7098 156.024C79.7098 154.536 80.5018 153.792 81.4498 153.792C82.3138 153.792 82.7458 154.356 82.9378 154.92L83.8858 154.608C83.6098 153.684 82.7938 152.892 81.4498 152.892C79.8058 152.892 78.6418 154.188 78.6418 156.024C78.6418 157.944 79.7458 159.168 81.4618 159.168ZM86.9385 159.168C87.8625 159.168 88.4265 158.772 88.8705 158.1C88.9425 158.592 89.0745 159 89.9745 159H90.7545V158.1H90.1305C89.8545 158.1 89.7825 158.028 89.7825 157.752V154.932C89.7825 153.708 89.0505 152.892 87.4665 152.892C85.9185 152.892 85.1025 153.732 84.8865 154.524L85.8825 154.884C86.0385 154.44 86.3625 153.792 87.4545 153.792C88.3665 153.792 88.7625 154.224 88.7625 154.944V155.112C86.8305 155.268 85.0185 155.832 85.0185 157.464C85.0185 158.52 85.7625 159.168 86.9385 159.168ZM87.1785 158.304C86.4345 158.304 86.0745 157.944 86.0745 157.38C86.0745 156.408 87.3105 156.036 88.7625 155.88V156.54C88.7625 157.776 87.9585 158.304 87.1785 158.304ZM93.8298 159H95.1978V158.1H93.9618C93.5418 158.1 93.3618 157.92 93.3618 157.5V153.924H94.9818V153.06H93.3618V151.2H92.3418V153.06H90.9618V153.924H92.3418V157.56C92.3418 158.544 92.8458 159 93.8298 159ZM98.7219 159.168C100.282 159.168 101.482 157.824 101.482 156.036C101.482 154.248 100.33 152.892 98.7219 152.892C97.1139 152.892 95.9619 154.248 95.9619 156.036C95.9619 157.824 97.1619 159.168 98.7219 159.168ZM98.7219 158.268C97.7139 158.268 97.0179 157.548 97.0179 156.048C97.0179 154.548 97.7139 153.792 98.7219 153.792C99.7299 153.792 100.426 154.548 100.426 156.048C100.426 157.548 99.7299 158.268 98.7219 158.268ZM103.028 159H104.048V156.276C104.048 154.884 104.6 154.032 105.944 154.032C106.184 154.032 106.388 154.056 106.58 154.092V153.048C106.436 153.012 106.256 152.976 105.968 152.976C104.84 152.976 104.228 153.852 104.036 154.296V153.06H103.028V159Z" fill="#2D8C9E"/>
</svg>
