<svg width="596" height="109" viewBox="0 0 596 109" fill="none" xmlns="http://www.w3.org/2000/svg">
<rect x="146" y="61" width="24" height="48" fill="#F3EAFE"/>
<path d="M70 84.5L69.5 84.5L69.5 85.5L70 85.5L70 84.5ZM118.354 85.3536C118.549 85.1583 118.549 84.8417 118.354 84.6465L115.172 81.4645C114.976 81.2692 114.66 81.2692 114.464 81.4645C114.269 81.6597 114.269 81.9763 114.464 82.1716L117.293 85L114.464 87.8284C114.269 88.0237 114.269 88.3403 114.464 88.5355C114.66 88.7308 114.976 88.7308 115.172 88.5355L118.354 85.3536ZM70 85.5L118 85.5L118 84.5L70 84.5L70 85.5Z" fill="#2D8C9E"/>
<path d="M488 85.5L488.5 85.5L488.5 84.5L488 84.5L488 85.5ZM451.646 84.6464C451.451 84.8417 451.451 85.1583 451.646 85.3536L454.828 88.5355C455.024 88.7308 455.34 88.7308 455.536 88.5355C455.731 88.3403 455.731 88.0237 455.536 87.8284L452.707 85L455.536 82.1716C455.731 81.9763 455.731 81.6597 455.536 81.4645C455.34 81.2692 455.024 81.2692 454.828 81.4645L451.646 84.6464ZM488 84.5L452 84.5L452 85.5L488 85.5L488 84.5Z" fill="#2D8C9E"/>
<path d="M158.5 1L158.5 0.5L157.5 0.5L157.5 1L158.5 1ZM157.646 49.3536C157.842 49.5488 158.158 49.5488 158.354 49.3536L161.536 46.1716C161.731 45.9763 161.731 45.6597 161.536 45.4645C161.34 45.2692 161.024 45.2692 160.828 45.4645L158 48.2929L155.172 45.4645C154.976 45.2692 154.66 45.2692 154.464 45.4645C154.269 45.6597 154.269 45.9763 154.464 46.1716L157.646 49.3536ZM157.5 1L157.5 49L158.5 49L158.5 1L157.5 1Z" fill="#2D8C9E"/>
<path d="M4.59222 90.168C6.53622 90.168 7.60422 89.124 7.60422 87.66C7.60422 86.388 6.64422 85.608 5.30022 85.296L4.12422 85.02C3.17622 84.792 2.74422 84.456 2.74422 83.736C2.74422 82.98 3.36822 82.44 4.40022 82.44C5.76822 82.44 6.26022 83.352 6.44022 83.868L7.47222 83.364C7.23222 82.584 6.32022 81.432 4.53222 81.432C2.82822 81.432 1.67622 82.428 1.67622 83.796C1.67622 85.2 2.54022 85.812 3.78822 86.1L4.91622 86.364C5.96022 86.604 6.47622 87.024 6.47622 87.756C6.47622 88.596 5.81622 89.16 4.66422 89.16C3.34422 89.16 2.64822 88.356 2.31222 87.372L1.25622 87.888C1.66422 89.196 2.80422 90.168 4.59222 90.168ZM11.2204 90H12.5884V89.1H11.3524C10.9324 89.1 10.7524 88.92 10.7524 88.5V84.924H12.3724V84.06H10.7524V82.2H9.73244V84.06H8.35244V84.924H9.73244V88.56C9.73244 89.544 10.2364 90 11.2204 90ZM15.4151 90.168C16.3391 90.168 16.9031 89.772 17.3471 89.1C17.4191 89.592 17.5511 90 18.4511 90H19.2311V89.1H18.6071C18.3311 89.1 18.2591 89.028 18.2591 88.752V85.932C18.2591 84.708 17.5271 83.892 15.9431 83.892C14.3951 83.892 13.5791 84.732 13.3631 85.524L14.3591 85.884C14.5151 85.44 14.8391 84.792 15.9311 84.792C16.8431 84.792 17.2391 85.224 17.2391 85.944V86.112C15.3071 86.268 13.4951 86.832 13.4951 88.464C13.4951 89.52 14.2391 90.168 15.4151 90.168ZM15.6551 89.304C14.9111 89.304 14.5511 88.944 14.5511 88.38C14.5511 87.408 15.7871 87.036 17.2391 86.88V87.54C17.2391 88.776 16.4351 89.304 15.6551 89.304ZM22.3064 90H23.6744V89.1H22.4384C22.0184 89.1 21.8384 88.92 21.8384 88.5V84.924H23.4584V84.06H21.8384V82.2H20.8184V84.06H19.4384V84.924H20.8184V88.56C20.8184 89.544 21.3224 90 22.3064 90ZM26.861 90.168C28.097 90.168 28.661 89.292 28.841 88.968V90H29.837V84.06H28.817V86.58C28.817 87.492 28.793 89.268 27.185 89.268C26.405 89.268 25.901 88.812 25.901 87.696V84.06H24.881V87.936C24.881 89.256 25.469 90.168 26.861 90.168ZM33.8597 90.168C35.3597 90.168 36.2237 89.46 36.2237 88.344C36.2237 86.988 34.8197 86.628 34.2197 86.508L33.5357 86.376C32.6837 86.208 32.4917 85.968 32.4917 85.572C32.4917 85.14 32.8757 84.732 33.7037 84.732C34.7117 84.732 35.0477 85.368 35.1917 85.764L36.1157 85.428C35.8757 84.648 35.1797 83.892 33.7037 83.892C32.5397 83.892 31.5317 84.612 31.5317 85.68C31.5317 86.808 32.3957 87.18 33.3797 87.372L34.0637 87.504C34.9277 87.672 35.2037 87.984 35.2037 88.428C35.2037 88.992 34.7237 89.292 33.8597 89.292C32.9237 89.292 32.4437 88.848 32.2637 88.14L31.2797 88.464C31.5437 89.604 32.6477 90.168 33.8597 90.168ZM42.8237 90.168C43.8677 90.168 44.4437 89.592 44.7317 89.088V90H45.7277V81.6H44.7077V83.82V84.984C44.4197 84.48 43.8677 83.892 42.8237 83.892C41.4557 83.892 40.4117 85.08 40.4117 87.036C40.4117 88.992 41.4557 90.168 42.8237 90.168ZM43.0877 89.268C42.1397 89.268 41.4557 88.704 41.4557 87.048C41.4557 85.392 42.1397 84.792 43.0877 84.792C44.0597 84.792 44.7677 85.548 44.7677 87.048C44.7677 88.548 44.0597 89.268 43.0877 89.268ZM50.0383 90.168C51.5983 90.168 52.7983 88.824 52.7983 87.036C52.7983 85.248 51.6463 83.892 50.0383 83.892C48.4303 83.892 47.2783 85.248 47.2783 87.036C47.2783 88.824 48.4783 90.168 50.0383 90.168ZM50.0383 89.268C49.0303 89.268 48.3343 88.548 48.3343 87.048C48.3343 85.548 49.0303 84.792 50.0383 84.792C51.0463 84.792 51.7423 85.548 51.7423 87.048C51.7423 88.548 51.0463 89.268 50.0383 89.268ZM56.3493 90H57.7173V89.1H56.4813C56.0613 89.1 55.8813 88.92 55.8813 88.5V84.924H57.5013V84.06H55.8813V82.2H54.8613V84.06H53.4813V84.924H54.8613V88.56C54.8613 89.544 55.3653 90 56.3493 90Z" fill="#2D8C9E"/>
<path d="M503.768 90.168C505.712 90.168 506.78 89.124 506.78 87.66C506.78 86.388 505.82 85.608 504.476 85.296L503.3 85.02C502.352 84.792 501.92 84.456 501.92 83.736C501.92 82.98 502.544 82.44 503.576 82.44C504.944 82.44 505.436 83.352 505.616 83.868L506.648 83.364C506.408 82.584 505.496 81.432 503.708 81.432C502.004 81.432 500.852 82.428 500.852 83.796C500.852 85.2 501.716 85.812 502.964 86.1L504.092 86.364C505.136 86.604 505.652 87.024 505.652 87.756C505.652 88.596 504.992 89.16 503.84 89.16C502.52 89.16 501.824 88.356 501.488 87.372L500.432 87.888C500.84 89.196 501.98 90.168 503.768 90.168ZM510.396 90H511.764V89.1H510.528C510.108 89.1 509.928 88.92 509.928 88.5V84.924H511.548V84.06H509.928V82.2H508.908V84.06H507.528V84.924H508.908V88.56C508.908 89.544 509.412 90 510.396 90ZM514.591 90.168C515.515 90.168 516.079 89.772 516.523 89.1C516.595 89.592 516.727 90 517.627 90H518.407V89.1H517.783C517.507 89.1 517.435 89.028 517.435 88.752V85.932C517.435 84.708 516.703 83.892 515.119 83.892C513.571 83.892 512.755 84.732 512.539 85.524L513.535 85.884C513.691 85.44 514.015 84.792 515.107 84.792C516.019 84.792 516.415 85.224 516.415 85.944V86.112C514.483 86.268 512.671 86.832 512.671 88.464C512.671 89.52 513.415 90.168 514.591 90.168ZM514.831 89.304C514.087 89.304 513.727 88.944 513.727 88.38C513.727 87.408 514.963 87.036 516.415 86.88V87.54C516.415 88.776 515.611 89.304 514.831 89.304ZM521.482 90H522.85V89.1H521.614C521.194 89.1 521.014 88.92 521.014 88.5V84.924H522.634V84.06H521.014V82.2H519.994V84.06H518.614V84.924H519.994V88.56C519.994 89.544 520.498 90 521.482 90ZM526.037 90.168C527.273 90.168 527.837 89.292 528.017 88.968V90H529.013V84.06H527.993V86.58C527.993 87.492 527.969 89.268 526.361 89.268C525.581 89.268 525.077 88.812 525.077 87.696V84.06H524.057V87.936C524.057 89.256 524.645 90.168 526.037 90.168ZM533.035 90.168C534.535 90.168 535.399 89.46 535.399 88.344C535.399 86.988 533.995 86.628 533.395 86.508L532.711 86.376C531.859 86.208 531.667 85.968 531.667 85.572C531.667 85.14 532.051 84.732 532.879 84.732C533.887 84.732 534.223 85.368 534.367 85.764L535.291 85.428C535.051 84.648 534.355 83.892 532.879 83.892C531.715 83.892 530.707 84.612 530.707 85.68C530.707 86.808 531.571 87.18 532.555 87.372L533.239 87.504C534.103 87.672 534.379 87.984 534.379 88.428C534.379 88.992 533.899 89.292 533.035 89.292C532.099 89.292 531.619 88.848 531.439 88.14L530.455 88.464C530.719 89.604 531.823 90.168 533.035 90.168ZM541.999 90.168C543.043 90.168 543.619 89.592 543.907 89.088V90H544.903V81.6H543.883V83.82V84.984C543.595 84.48 543.043 83.892 541.999 83.892C540.631 83.892 539.587 85.08 539.587 87.036C539.587 88.992 540.631 90.168 541.999 90.168ZM542.263 89.268C541.315 89.268 540.631 88.704 540.631 87.048C540.631 85.392 541.315 84.792 542.263 84.792C543.235 84.792 543.943 85.548 543.943 87.048C543.943 88.548 543.235 89.268 542.263 89.268ZM549.166 90.168C550.282 90.168 551.278 89.664 551.722 88.452L550.786 88.128C550.63 88.512 550.21 89.28 549.202 89.28C548.374 89.28 547.546 88.8 547.486 87.3H551.674C551.902 85.356 550.834 83.892 549.106 83.892C547.594 83.892 546.478 85.104 546.478 87.06C546.478 89.076 547.546 90.168 549.166 90.168ZM547.51 86.448C547.594 85.368 548.326 84.732 549.106 84.732C549.922 84.732 550.63 85.32 550.63 86.448H547.51ZM555.313 90.168C556.813 90.168 557.677 89.46 557.677 88.344C557.677 86.988 556.273 86.628 555.673 86.508L554.989 86.376C554.137 86.208 553.945 85.968 553.945 85.572C553.945 85.14 554.329 84.732 555.157 84.732C556.165 84.732 556.501 85.368 556.645 85.764L557.569 85.428C557.329 84.648 556.633 83.892 555.157 83.892C553.993 83.892 552.985 84.612 552.985 85.68C552.985 86.808 553.849 87.18 554.833 87.372L555.517 87.504C556.381 87.672 556.657 87.984 556.657 88.428C556.657 88.992 556.177 89.292 555.313 89.292C554.377 89.292 553.897 88.848 553.717 88.14L552.733 88.464C552.997 89.604 554.101 90.168 555.313 90.168ZM561.567 90.168C562.899 90.168 563.763 89.388 564.147 88.284L563.187 87.948C562.995 88.596 562.551 89.268 561.567 89.268C560.583 89.268 559.815 88.548 559.815 87.024C559.815 85.536 560.607 84.792 561.555 84.792C562.419 84.792 562.851 85.356 563.043 85.92L563.991 85.608C563.715 84.684 562.899 83.892 561.555 83.892C559.911 83.892 558.747 85.188 558.747 87.024C558.747 88.944 559.851 90.168 561.567 90.168ZM565.508 90H566.528V87.276C566.528 85.884 567.08 85.032 568.424 85.032C568.664 85.032 568.868 85.056 569.06 85.092V84.048C568.916 84.012 568.736 83.976 568.448 83.976C567.32 83.976 566.708 84.852 566.516 85.296V84.06H565.508V90ZM570.23 82.896H571.31V81.6H570.23V82.896ZM570.266 90H571.286V84.06H570.266V90ZM573.301 92.34H574.321V90.24V89.076C574.609 89.58 575.161 90.168 576.205 90.168C577.573 90.168 578.617 88.98 578.617 87.024C578.617 85.068 577.573 83.892 576.205 83.892C575.161 83.892 574.585 84.468 574.297 84.972V84.06H573.301V92.34ZM575.941 89.268C574.969 89.268 574.261 88.512 574.261 87.012C574.261 85.512 574.969 84.792 575.941 84.792C576.889 84.792 577.573 85.356 577.573 87.012C577.573 88.668 576.889 89.268 575.941 89.268ZM582.209 90H583.577V89.1H582.341C581.921 89.1 581.741 88.92 581.741 88.5V84.924H583.361V84.06H581.741V82.2H580.721V84.06H579.341V84.924H580.721V88.56C580.721 89.544 581.225 90 582.209 90ZM587.101 90.168C588.661 90.168 589.861 88.824 589.861 87.036C589.861 85.248 588.709 83.892 587.101 83.892C585.493 83.892 584.341 85.248 584.341 87.036C584.341 88.824 585.541 90.168 587.101 90.168ZM587.101 89.268C586.093 89.268 585.397 88.548 585.397 87.048C585.397 85.548 586.093 84.792 587.101 84.792C588.109 84.792 588.805 85.548 588.805 87.048C588.805 88.548 588.109 89.268 587.101 89.268ZM591.406 90H592.426V87.276C592.426 85.884 592.978 85.032 594.322 85.032C594.562 85.032 594.766 85.056 594.958 85.092V84.048C594.814 84.012 594.634 83.976 594.346 83.976C593.218 83.976 592.606 84.852 592.414 85.296V84.06H591.406V90Z" fill="#2D8C9E"/>
<path d="M73.6078 16.168C75.5518 16.168 76.6198 15.124 76.6198 13.66C76.6198 12.388 75.6598 11.608 74.3158 11.296L73.1398 11.02C72.1918 10.792 71.7598 10.456 71.7598 9.736C71.7598 8.98 72.3838 8.44 73.4158 8.44C74.7838 8.44 75.2758 9.352 75.4558 9.868L76.4878 9.364C76.2478 8.584 75.3358 7.432 73.5478 7.432C71.8438 7.432 70.6918 8.428 70.6918 9.796C70.6918 11.2 71.5558 11.812 72.8038 12.1L73.9318 12.364C74.9758 12.604 75.4918 13.024 75.4918 13.756C75.4918 14.596 74.8318 15.16 73.6798 15.16C72.3598 15.16 71.6638 14.356 71.3278 13.372L70.2718 13.888C70.6798 15.196 71.8198 16.168 73.6078 16.168ZM78.1721 16H79.1921V13.24C79.1921 12.388 79.2641 10.804 80.7161 10.804C81.5081 10.804 82.0361 11.212 82.0361 12.364V16H83.0321V13.24C83.0321 12.388 83.0681 10.804 84.5681 10.804C85.3601 10.804 85.8761 11.212 85.8761 12.364V16H86.8961V12.064C86.8961 10.684 86.1761 9.892 84.8201 9.892C83.5601 9.892 83.0321 10.672 82.8281 11.164C82.5281 10.36 81.8321 9.892 80.9561 9.892C79.8881 9.892 79.3841 10.576 79.1681 10.96V10.06H78.1721V16ZM90.3604 16.168C91.2844 16.168 91.8484 15.772 92.2924 15.1C92.3644 15.592 92.4964 16 93.3964 16H94.1764V15.1H93.5524C93.2764 15.1 93.2044 15.028 93.2044 14.752V11.932C93.2044 10.708 92.4724 9.892 90.8884 9.892C89.3404 9.892 88.5244 10.732 88.3084 11.524L89.3044 11.884C89.4604 11.44 89.7844 10.792 90.8764 10.792C91.7884 10.792 92.1844 11.224 92.1844 11.944V12.112C90.2524 12.268 88.4404 12.832 88.4404 14.464C88.4404 15.52 89.1844 16.168 90.3604 16.168ZM90.6004 15.304C89.8564 15.304 89.4964 14.944 89.4964 14.38C89.4964 13.408 90.7324 13.036 92.1844 12.88V13.54C92.1844 14.776 91.3804 15.304 90.6004 15.304ZM95.2697 16H96.2897V7.6H95.2697V16ZM98.3049 16H99.3249V7.6H98.3049V16ZM106.45 16.168C107.95 16.168 108.814 15.46 108.814 14.344C108.814 12.988 107.41 12.628 106.81 12.508L106.126 12.376C105.274 12.208 105.082 11.968 105.082 11.572C105.082 11.14 105.466 10.732 106.294 10.732C107.302 10.732 107.638 11.368 107.782 11.764L108.706 11.428C108.466 10.648 107.77 9.892 106.294 9.892C105.13 9.892 104.122 10.612 104.122 11.68C104.122 12.808 104.986 13.18 105.97 13.372L106.654 13.504C107.518 13.672 107.794 13.984 107.794 14.428C107.794 14.992 107.314 15.292 106.45 15.292C105.514 15.292 105.034 14.848 104.854 14.14L103.87 14.464C104.134 15.604 105.238 16.168 106.45 16.168ZM110.34 18.34H111.36V16.24V15.076C111.648 15.58 112.2 16.168 113.244 16.168C114.612 16.168 115.656 14.98 115.656 13.024C115.656 11.068 114.612 9.892 113.244 9.892C112.2 9.892 111.624 10.468 111.336 10.972V10.06H110.34V18.34ZM112.98 15.268C112.008 15.268 111.3 14.512 111.3 13.012C111.3 11.512 112.008 10.792 112.98 10.792C113.928 10.792 114.612 11.356 114.612 13.012C114.612 14.668 113.928 15.268 112.98 15.268ZM118.767 16.168C119.691 16.168 120.255 15.772 120.699 15.1C120.771 15.592 120.903 16 121.803 16H122.583V15.1H121.959C121.683 15.1 121.611 15.028 121.611 14.752V11.932C121.611 10.708 120.879 9.892 119.295 9.892C117.747 9.892 116.931 10.732 116.715 11.524L117.711 11.884C117.867 11.44 118.191 10.792 119.283 10.792C120.195 10.792 120.591 11.224 120.591 11.944V12.112C118.659 12.268 116.847 12.832 116.847 14.464C116.847 15.52 117.591 16.168 118.767 16.168ZM119.007 15.304C118.263 15.304 117.903 14.944 117.903 14.38C117.903 13.408 119.139 13.036 120.591 12.88V13.54C120.591 14.776 119.787 15.304 119.007 15.304ZM126.04 16.168C127.372 16.168 128.236 15.388 128.62 14.284L127.66 13.948C127.468 14.596 127.024 15.268 126.04 15.268C125.056 15.268 124.288 14.548 124.288 13.024C124.288 11.536 125.08 10.792 126.028 10.792C126.892 10.792 127.324 11.356 127.516 11.92L128.464 11.608C128.188 10.684 127.372 9.892 126.028 9.892C124.384 9.892 123.22 11.188 123.22 13.024C123.22 14.944 124.324 16.168 126.04 16.168ZM129.945 8.896H131.025V7.6H129.945V8.896ZM129.981 16H131.001V10.06H129.981V16ZM133.016 16H134.036V13.48C134.036 12.604 134.072 10.792 135.704 10.792C136.496 10.792 137.012 11.248 137.012 12.364V16H138.032V12.124C138.032 10.804 137.432 9.892 135.956 9.892C134.672 9.892 134.096 10.804 134.012 11.068V10.06H133.016V16ZM140.925 18.34H143.697C144.705 18.34 145.557 17.812 145.557 16.708C145.557 15.712 144.813 15.064 143.673 15.064H141.081C140.661 15.064 140.577 14.848 140.577 14.656C140.577 14.44 140.793 14.212 141.117 14.068C141.441 14.26 141.813 14.296 142.221 14.296C143.541 14.296 144.441 13.42 144.537 12.076L144.561 11.752C144.609 11.056 144.813 10.924 145.353 10.924H145.809V10.06H145.173C144.597 10.06 144.321 10.456 144.201 10.912C143.949 10.492 143.325 9.892 142.221 9.892C140.853 9.892 139.857 10.864 139.857 12.1C139.857 12.844 140.181 13.384 140.517 13.684C140.133 13.96 139.641 14.356 139.641 14.944C139.641 15.412 139.833 15.688 140.169 15.892C139.809 16.096 139.377 16.54 139.377 17.14C139.377 17.836 139.785 18.34 140.925 18.34ZM142.221 13.456C141.417 13.456 140.889 12.916 140.889 12.1C140.889 11.284 141.417 10.732 142.221 10.732C143.025 10.732 143.553 11.284 143.553 12.1C143.553 12.916 143.025 13.456 142.221 13.456ZM141.273 17.428C140.649 17.428 140.313 17.296 140.313 16.804C140.313 16.396 140.577 16.132 140.781 16H143.589C144.057 16 144.525 16.096 144.525 16.708C144.525 17.32 144.057 17.428 143.589 17.428H141.273Z" fill="#2D8C9E"/>
<circle cx="138" cy="85" r="8" fill="#00B478"/>
<path d="M180.048 96.448C185.232 96.448 188.08 93.664 188.08 89.76C188.08 86.368 185.52 84.288 181.936 83.456L178.8 82.72C176.272 82.112 175.12 81.216 175.12 79.296C175.12 77.28 176.784 75.84 179.536 75.84C183.184 75.84 184.496 78.272 184.976 79.648L187.728 78.304C187.088 76.224 184.656 73.152 179.888 73.152C175.344 73.152 172.272 75.808 172.272 79.456C172.272 83.2 174.576 84.832 177.904 85.6L180.912 86.304C183.696 86.944 185.072 88.064 185.072 90.016C185.072 92.256 183.312 93.76 180.24 93.76C176.72 93.76 174.864 91.616 173.968 88.992L171.152 90.368C172.24 93.856 175.28 96.448 180.048 96.448ZM201.944 80.16L199.064 88.832C198.424 90.752 198.232 91.328 197.944 92.256C197.624 91.424 197.368 90.784 196.376 88.384L192.984 80.16H189.912L196.76 95.808L195.864 98.336C195.448 99.52 194.744 99.744 193.688 99.744H190.68V102.24H193.688C196.472 102.24 197.624 101.312 198.68 98.176L204.824 80.16H201.944ZM213.407 96.448C217.407 96.448 219.711 94.56 219.711 91.584C219.711 87.968 215.967 87.008 214.367 86.688L212.543 86.336C210.271 85.888 209.759 85.248 209.759 84.192C209.759 83.04 210.783 81.952 212.991 81.952C215.679 81.952 216.575 83.648 216.959 84.704L219.423 83.808C218.783 81.728 216.927 79.712 212.991 79.712C209.887 79.712 207.199 81.632 207.199 84.48C207.199 87.488 209.503 88.48 212.127 88.992L213.951 89.344C216.255 89.792 216.991 90.624 216.991 91.808C216.991 93.312 215.711 94.112 213.407 94.112C210.911 94.112 209.631 92.928 209.151 91.04L206.527 91.904C207.231 94.944 210.175 96.448 213.407 96.448ZM229.13 96H232.778V93.6H229.482C228.362 93.6 227.882 93.12 227.882 92V82.464H232.202V80.16H227.882V75.2H225.161V80.16H221.482V82.464H225.161V92.16C225.161 94.784 226.506 96 229.13 96ZM242.047 96.448C245.023 96.448 247.679 95.104 248.863 91.872L246.367 91.008C245.951 92.032 244.831 94.08 242.143 94.08C239.935 94.08 237.727 92.8 237.567 88.8H248.735C249.343 83.616 246.495 79.712 241.887 79.712C237.855 79.712 234.879 82.944 234.879 88.16C234.879 93.536 237.727 96.448 242.047 96.448ZM237.631 86.528C237.855 83.648 239.807 81.952 241.887 81.952C244.063 81.952 245.951 83.52 245.951 86.528H237.631ZM253.094 96H255.814V88.64C255.814 86.368 256.006 82.144 259.878 82.144C261.99 82.144 263.398 83.232 263.398 86.304V96H266.054V88.64C266.054 86.368 266.15 82.144 270.15 82.144C272.262 82.144 273.638 83.232 273.638 86.304V96H276.358V85.504C276.358 81.824 274.438 79.712 270.822 79.712C267.462 79.712 266.054 81.792 265.51 83.104C264.71 80.96 262.854 79.712 260.518 79.712C257.67 79.712 256.326 81.536 255.75 82.56V80.16H253.094V96ZM295.894 96.448C300.054 96.448 303.254 92.864 303.254 88.096C303.254 83.328 300.182 79.712 295.894 79.712C291.606 79.712 288.534 83.328 288.534 88.096C288.534 92.864 291.734 96.448 295.894 96.448ZM295.894 94.048C293.206 94.048 291.35 92.128 291.35 88.128C291.35 84.128 293.206 82.112 295.894 82.112C298.582 82.112 300.438 84.128 300.438 88.128C300.438 92.128 298.582 94.048 295.894 94.048ZM307.376 102.24H310.096V96.64V93.536C310.864 94.88 312.336 96.448 315.12 96.448C318.768 96.448 321.552 93.28 321.552 88.064C321.552 82.848 318.768 79.712 315.12 79.712C312.336 79.712 310.8 81.248 310.032 82.592V80.16H307.376V102.24ZM314.416 94.048C311.824 94.048 309.936 92.032 309.936 88.032C309.936 84.032 311.824 82.112 314.416 82.112C316.944 82.112 318.768 83.616 318.768 88.032C318.768 92.448 316.944 94.048 314.416 94.048ZM331.735 96.448C334.711 96.448 337.367 95.104 338.551 91.872L336.055 91.008C335.639 92.032 334.519 94.08 331.831 94.08C329.623 94.08 327.415 92.8 327.255 88.8H338.423C339.031 83.616 336.183 79.712 331.575 79.712C327.543 79.712 324.567 82.944 324.567 88.16C324.567 93.536 327.415 96.448 331.735 96.448ZM327.319 86.528C327.543 83.648 329.495 81.952 331.575 81.952C333.751 81.952 335.639 83.52 335.639 86.528H327.319ZM342.782 96H345.502V88.736C345.502 85.024 346.974 82.752 350.558 82.752C351.198 82.752 351.742 82.816 352.254 82.912V80.128C351.87 80.032 351.39 79.936 350.622 79.936C347.614 79.936 345.982 82.272 345.47 83.456V80.16H342.782V96ZM359.44 96.448C361.904 96.448 363.408 95.392 364.592 93.6C364.784 94.912 365.136 96 367.536 96H369.616V93.6H367.952C367.216 93.6 367.024 93.408 367.024 92.672V85.152C367.024 81.888 365.072 79.712 360.848 79.712C356.72 79.712 354.544 81.952 353.968 84.064L356.624 85.024C357.04 83.84 357.904 82.112 360.816 82.112C363.248 82.112 364.304 83.264 364.304 85.184V85.632C359.152 86.048 354.32 87.552 354.32 91.904C354.32 94.72 356.304 96.448 359.44 96.448ZM360.08 94.144C358.096 94.144 357.136 93.184 357.136 91.68C357.136 89.088 360.432 88.096 364.304 87.68V89.44C364.304 92.736 362.16 94.144 360.08 94.144ZM377.817 96H381.465V93.6H378.169C377.049 93.6 376.569 93.12 376.569 92V82.464H380.889V80.16H376.569V75.2H373.849V80.16H370.169V82.464H373.849V92.16C373.849 94.784 375.193 96 377.817 96ZM384.811 77.056H387.691V73.6H384.811V77.056ZM384.907 96H387.627V80.16H384.907V96ZM399.113 96.448C403.273 96.448 406.472 92.864 406.472 88.096C406.472 83.328 403.401 79.712 399.113 79.712C394.825 79.712 391.753 83.328 391.753 88.096C391.753 92.864 394.953 96.448 399.113 96.448ZM399.113 94.048C396.425 94.048 394.569 92.128 394.569 88.128C394.569 84.128 396.425 82.112 399.113 82.112C401.801 82.112 403.657 84.128 403.657 88.128C403.657 92.128 401.801 94.048 399.113 94.048ZM410.594 96H413.314V89.28C413.314 86.944 413.41 82.112 417.762 82.112C419.874 82.112 421.25 83.328 421.25 86.304V96H423.97V85.664C423.97 82.144 422.37 79.712 418.434 79.712C415.01 79.712 413.474 82.144 413.25 82.848V80.16H410.594V96ZM433.222 96.448C435.686 96.448 437.19 95.392 438.374 93.6C438.566 94.912 438.918 96 441.318 96H443.398V93.6H441.734C440.998 93.6 440.806 93.408 440.806 92.672V85.152C440.806 81.888 438.854 79.712 434.63 79.712C430.502 79.712 428.326 81.952 427.75 84.064L430.406 85.024C430.822 83.84 431.686 82.112 434.598 82.112C437.03 82.112 438.086 83.264 438.086 85.184V85.632C432.934 86.048 428.102 87.552 428.102 91.904C428.102 94.72 430.086 96.448 433.222 96.448ZM433.862 94.144C431.878 94.144 430.918 93.184 430.918 91.68C430.918 89.088 434.214 88.096 438.086 87.68V89.44C438.086 92.736 435.942 94.144 433.862 94.144ZM446.313 96H449.033V73.6H446.313V96Z" fill="#1D1D21"/>
</svg>
