<svg width="958" height="346" viewBox="0 0 958 346" fill="none" xmlns="http://www.w3.org/2000/svg">
<path d="M271.912 140H276.072V131.104H286.12V127.52H276.072V121.152H288.712V117.6H271.912V140ZM291.677 121.536H295.837V117.568H291.677V121.536ZM291.837 140H295.709V124.064H291.837V140ZM300.399 140H304.303V133.28C304.303 129.376 305.743 127.744 309.135 127.744C309.711 127.744 310.287 127.776 310.863 127.872V123.872C310.575 123.808 310.255 123.776 309.807 123.776C306.255 123.776 304.751 126.304 304.239 127.584V124.064H300.399V140ZM319.537 140.448C323.985 140.448 326.577 138.432 326.577 135.328C326.577 132.064 323.633 130.848 321.105 130.368L319.057 129.952C317.137 129.6 316.625 129.088 316.625 128.192C316.625 127.232 317.489 126.4 319.249 126.4C321.233 126.4 322.289 127.616 322.737 128.832L326.033 127.424C325.361 125.632 323.377 123.584 319.377 123.584C315.537 123.584 312.913 125.568 312.913 128.544C312.913 131.648 314.961 132.704 318.065 133.312L320.177 133.728C322.065 134.112 322.545 134.816 322.545 135.712C322.545 136.832 321.553 137.568 319.697 137.568C316.817 137.568 316.049 135.616 315.857 134.72L312.241 135.872C312.945 138.784 315.953 140.448 319.537 140.448ZM335.438 140H340.174V136.8H336.782C335.758 136.8 335.31 136.352 335.31 135.328V127.104H339.534V124.064H335.31V119.04H331.406V124.064H327.95V127.104H331.406V135.936C331.406 138.464 332.846 140 335.438 140ZM351.087 140H354.991V132.736C354.991 130.784 355.055 126.848 358.639 126.848C360.399 126.848 361.519 127.872 361.519 130.272V140H365.423V129.408C365.423 125.92 363.855 123.584 360.047 123.584C356.943 123.584 355.407 125.664 354.895 126.592V124.064H351.087V140ZM374.121 140.48C376.809 140.48 378.505 139.136 379.465 137.632C379.657 139.04 380.361 140 382.377 140H385.385V136.928H383.881C383.049 136.928 382.921 136.736 382.921 135.968V129.536C382.921 125.632 380.521 123.584 376.137 123.584C371.657 123.584 369.161 125.92 368.777 128.288L372.393 129.216C372.777 127.808 373.769 126.56 376.137 126.56C378.185 126.56 379.081 127.488 379.081 129.056V129.6C373.801 130.08 369.033 131.456 369.033 135.904C369.033 138.72 371.145 140.48 374.121 140.48ZM375.401 137.536C373.801 137.536 373.001 136.736 373.001 135.52C373.001 133.248 375.785 132.544 379.081 132.16V133.44C379.081 136.288 377.289 137.536 375.401 137.536ZM387.931 140H391.835V132.128C391.835 130.272 391.963 126.88 395.195 126.88C396.891 126.88 398.043 127.808 398.043 130.272V140H401.883V132.128C401.883 130.272 401.947 126.88 405.211 126.88C406.939 126.88 408.059 127.808 408.059 130.272V140H411.963V129.376C411.963 125.376 409.787 123.584 406.587 123.584C404.059 123.584 402.395 124.768 401.243 126.592C400.347 124.768 398.747 123.584 396.507 123.584C394.235 123.584 392.603 124.8 391.739 126.4V124.064H387.931V140ZM423.212 140.48C427.404 140.48 429.644 138.304 430.668 135.84L427.148 134.528C426.572 135.872 425.516 137.408 423.244 137.408C421.196 137.408 419.468 136.224 419.308 132.992H430.572C431.084 127.712 428.236 123.584 423.148 123.584C418.732 123.584 415.436 126.944 415.436 132.032C415.436 137.344 418.508 140.48 423.212 140.48ZM419.436 130.112C419.724 127.808 421.228 126.496 423.148 126.496C425.164 126.496 426.572 127.776 426.7 130.112H419.436Z" fill="#1D1D21"/>
<rect x="269.5" y="165.5" width="419" height="75" rx="7.5" fill="white"/>
<path d="M295.884 212H298.404V203.04H309.044V212H311.564V192.4H309.044V200.66H298.404V192.4H295.884V212ZM321.919 212.392C325.559 212.392 328.359 209.256 328.359 205.084C328.359 200.912 325.671 197.748 321.919 197.748C318.167 197.748 315.479 200.912 315.479 205.084C315.479 209.256 318.279 212.392 321.919 212.392ZM321.919 210.292C319.567 210.292 317.943 208.612 317.943 205.112C317.943 201.612 319.567 199.848 321.919 199.848C324.271 199.848 325.895 201.612 325.895 205.112C325.895 208.612 324.271 210.292 321.919 210.292ZM331.965 212H334.345V205.56C334.345 203.572 334.513 199.876 337.901 199.876C339.749 199.876 340.981 200.828 340.981 203.516V212H343.305V205.56C343.305 203.572 343.389 199.876 346.889 199.876C348.737 199.876 349.941 200.828 349.941 203.516V212H352.321V202.816C352.321 199.596 350.641 197.748 347.477 197.748C344.537 197.748 343.305 199.568 342.829 200.716C342.129 198.84 340.505 197.748 338.461 197.748C335.969 197.748 334.793 199.344 334.289 200.24V198.14H331.965V212ZM362.057 212.392C364.661 212.392 366.985 211.216 368.021 208.388L365.837 207.632C365.473 208.528 364.493 210.32 362.141 210.32C360.209 210.32 358.277 209.2 358.137 205.7H367.909C368.441 201.164 365.949 197.748 361.917 197.748C358.389 197.748 355.785 200.576 355.785 205.14C355.785 209.844 358.277 212.392 362.057 212.392ZM358.193 203.712C358.389 201.192 360.097 199.708 361.917 199.708C363.821 199.708 365.473 201.08 365.473 203.712H358.193ZM371.723 212H374.103V205.644C374.103 202.396 375.391 200.408 378.527 200.408C379.087 200.408 379.563 200.464 380.011 200.548V198.112C379.675 198.028 379.255 197.944 378.583 197.944C375.951 197.944 374.523 199.988 374.075 201.024V198.14H371.723V212Z" fill="#1D1D21"/>
<rect x="269.5" y="165.5" width="419" height="75" rx="7.5" stroke="#C1C1C8"/>
<rect opacity="0.2" x="269" y="153" width="420" height="12" fill="#DA372C"/>
<path d="M788 204C788.552 204 789 203.552 789 203C789 202.448 788.552 202 788 202L788 204ZM579.293 202.293C578.902 202.683 578.902 203.317 579.293 203.707L585.657 210.071C586.047 210.462 586.681 210.462 587.071 210.071C587.462 209.681 587.462 209.047 587.071 208.657L581.414 203L587.071 197.343C587.462 196.953 587.462 196.319 587.071 195.929C586.681 195.538 586.047 195.538 585.657 195.929L579.293 202.293ZM788 202L580 202L580 204L788 204L788 202Z" fill="#DA372C"/>
<path d="M797.648 208H799.088V196.8H797.648V208ZM802.078 208H803.438V204.64C803.438 203.472 803.486 201.056 805.662 201.056C806.718 201.056 807.406 201.664 807.406 203.152V208H808.766V202.832C808.766 201.072 807.966 199.856 805.998 199.856C804.286 199.856 803.518 201.072 803.406 201.424V200.08H802.078V208ZM811.344 211.12H812.704V208.32V206.768C813.088 207.44 813.824 208.224 815.216 208.224C817.04 208.224 818.432 206.64 818.432 204.032C818.432 201.424 817.04 199.856 815.216 199.856C813.824 199.856 813.056 200.624 812.672 201.296V200.08H811.344V211.12ZM814.864 207.024C813.568 207.024 812.624 206.016 812.624 204.016C812.624 202.016 813.568 201.056 814.864 201.056C816.128 201.056 817.04 201.808 817.04 204.016C817.04 206.224 816.128 207.024 814.864 207.024ZM823.06 208.224C824.708 208.224 825.46 207.056 825.7 206.624V208H827.028V200.08H825.668V203.44C825.668 204.656 825.636 207.024 823.492 207.024C822.452 207.024 821.78 206.416 821.78 204.928V200.08H820.42V205.248C820.42 207.008 821.204 208.224 823.06 208.224ZM832.471 208H834.295V206.8H832.647C832.087 206.8 831.847 206.56 831.847 206V201.232H834.007V200.08H831.847V197.6H830.487V200.08H828.647V201.232H830.487V206.08C830.487 207.392 831.159 208 832.471 208ZM847.107 200.08H841.987V198.8C841.987 198.24 842.227 198 842.786 198H844.355V196.8H842.627C841.315 196.8 840.627 197.424 840.627 198.896V200.08H838.867V201.232H840.627V208H841.987V201.232H845.747V208H847.107V200.08ZM845.699 196.8V198.528H847.139V196.8H845.699ZM852.789 208.224C854.277 208.224 855.605 207.552 856.197 205.936L854.949 205.504C854.741 206.016 854.181 207.04 852.837 207.04C851.733 207.04 850.629 206.4 850.549 204.4H856.133C856.437 201.808 855.013 199.856 852.709 199.856C850.693 199.856 849.205 201.472 849.205 204.08C849.205 206.768 850.629 208.224 852.789 208.224ZM850.581 203.264C850.693 201.824 851.669 200.976 852.709 200.976C853.797 200.976 854.741 201.76 854.741 203.264H850.581ZM858.313 208H859.673V196.8H858.313V208ZM864.984 208.224C866.376 208.224 867.144 207.456 867.528 206.784V208H868.856V196.8H867.496V199.76V201.312C867.112 200.64 866.376 199.856 864.984 199.856C863.16 199.856 861.768 201.44 861.768 204.048C861.768 206.656 863.16 208.224 864.984 208.224ZM865.336 207.024C864.072 207.024 863.16 206.272 863.16 204.064C863.16 201.856 864.072 201.056 865.336 201.056C866.632 201.056 867.576 202.064 867.576 204.064C867.576 206.064 866.632 207.024 865.336 207.024Z" fill="#6E6E78"/>
<path d="M792 158C792.552 158 793 157.552 793 157C793 156.448 792.552 156 792 156V158ZM704.293 156.293C703.902 156.683 703.902 157.317 704.293 157.707L710.657 164.071C711.047 164.462 711.681 164.462 712.071 164.071C712.462 163.681 712.462 163.047 712.071 162.657L706.414 157L712.071 151.343C712.462 150.953 712.462 150.319 712.071 149.929C711.681 149.538 711.047 149.538 710.657 149.929L704.293 156.293ZM792 156H705V158H792V156Z" fill="#DA372C"/>
<path d="M802.256 163.68H803.456V162.208C805.728 162.032 806.976 160.72 806.976 158.896C806.976 157.2 805.712 156.24 803.936 155.792L803.456 155.664V151.952C804.752 152.208 805.264 153.2 805.472 153.792L806.8 153.136C806.512 152.192 805.472 150.832 803.456 150.608V149.12H802.256V150.608C800.352 150.832 799.088 152.064 799.088 153.712C799.088 155.568 800.24 156.384 801.888 156.736L802.256 156.816V160.848C801.008 160.576 800.256 159.664 799.888 158.544L798.528 159.2C799.024 160.768 800.288 161.952 802.256 162.192V163.68ZM802.256 155.392C801.008 155.072 800.464 154.592 800.464 153.632C800.464 152.72 801.136 152.032 802.256 151.904V153.968V155.392ZM803.456 160.912V158.848V157.088C804.848 157.408 805.52 158.032 805.52 159.024C805.52 160.064 804.768 160.784 803.456 160.912ZM811.672 162.224C813.672 162.224 814.824 161.28 814.824 159.792C814.824 157.984 812.952 157.504 812.152 157.344L811.24 157.168C810.104 156.944 809.848 156.624 809.848 156.096C809.848 155.52 810.36 154.976 811.464 154.976C812.808 154.976 813.256 155.824 813.448 156.352L814.68 155.904C814.36 154.864 813.432 153.856 811.464 153.856C809.912 153.856 808.568 154.816 808.568 156.24C808.568 157.744 809.72 158.24 811.032 158.496L811.944 158.672C813.096 158.896 813.464 159.312 813.464 159.904C813.464 160.656 812.824 161.056 811.672 161.056C810.424 161.056 809.784 160.464 809.544 159.52L808.232 159.952C808.584 161.472 810.056 162.224 811.672 162.224ZM816.86 165.12H818.22V162.32V160.768C818.604 161.44 819.34 162.224 820.732 162.224C822.556 162.224 823.948 160.64 823.948 158.032C823.948 155.424 822.556 153.856 820.732 153.856C819.34 153.856 818.572 154.624 818.188 155.296V154.08H816.86V165.12ZM820.38 161.024C819.084 161.024 818.14 160.016 818.14 158.016C818.14 156.016 819.084 155.056 820.38 155.056C821.644 155.056 822.556 155.808 822.556 158.016C822.556 160.224 821.644 161.024 820.38 161.024ZM828.671 162.224C830.063 162.224 830.831 161.456 831.215 160.784V162H832.543V154.08H831.183V155.312C830.799 154.64 830.063 153.856 828.671 153.856C826.847 153.856 825.455 155.44 825.455 158.048C825.455 160.656 826.847 162.224 828.671 162.224ZM829.023 161.024C827.759 161.024 826.847 160.272 826.847 158.064C826.847 155.856 827.759 155.056 829.023 155.056C830.319 155.056 831.263 156.064 831.263 158.064C831.263 160.064 830.319 161.024 829.023 161.024ZM838.387 162.224C840.163 162.224 841.315 161.184 841.827 159.712L840.547 159.264C840.291 160.128 839.699 161.024 838.387 161.024C837.075 161.024 836.051 160.064 836.051 158.032C836.051 156.048 837.107 155.056 838.371 155.056C839.523 155.056 840.099 155.808 840.355 156.56L841.619 156.144C841.251 154.912 840.163 153.856 838.371 153.856C836.179 153.856 834.627 155.584 834.627 158.032C834.627 160.592 836.099 162.224 838.387 162.224ZM843.593 152.528H845.033V150.8H843.593V152.528ZM843.641 162H845.001V154.08H843.641V162ZM847.688 162H849.048V158.64C849.048 157.472 849.096 155.056 851.272 155.056C852.328 155.056 853.016 155.664 853.016 157.152V162H854.376V156.832C854.376 155.072 853.576 153.856 851.608 153.856C849.896 153.856 849.128 155.072 849.016 155.424V154.08H847.688V162ZM858.233 165.12H861.929C863.273 165.12 864.409 164.416 864.409 162.944C864.409 161.616 863.417 160.752 861.897 160.752H858.441C857.881 160.752 857.769 160.464 857.769 160.208C857.769 159.92 858.057 159.616 858.489 159.424C858.921 159.68 859.417 159.728 859.961 159.728C861.721 159.728 862.921 158.56 863.049 156.768L863.081 156.336C863.145 155.408 863.417 155.232 864.137 155.232H864.745V154.08H863.897C863.129 154.08 862.761 154.608 862.601 155.216C862.265 154.656 861.433 153.856 859.961 153.856C858.137 153.856 856.809 155.152 856.809 156.8C856.809 157.792 857.241 158.512 857.689 158.912C857.177 159.28 856.521 159.808 856.521 160.592C856.521 161.216 856.777 161.584 857.225 161.856C856.745 162.128 856.169 162.72 856.169 163.52C856.169 164.448 856.713 165.12 858.233 165.12ZM859.961 158.608C858.889 158.608 858.185 157.888 858.185 156.8C858.185 155.712 858.889 154.976 859.961 154.976C861.033 154.976 861.737 155.712 861.737 156.8C861.737 157.888 861.033 158.608 859.961 158.608ZM858.697 163.904C857.865 163.904 857.417 163.728 857.417 163.072C857.417 162.528 857.769 162.176 858.041 162H861.785C862.409 162 863.033 162.128 863.033 162.944C863.033 163.76 862.409 163.904 861.785 163.904H858.697ZM865.901 157.776H870.317V156.336H865.901V157.776ZM871.367 162H872.855L873.863 160.496L874.871 158.976C875.095 159.328 875.271 159.6 875.863 160.496L876.855 162H878.487L875.735 157.968L878.327 154.08H876.823L875.959 155.44C875.351 156.384 875.159 156.672 874.935 156.992C874.743 156.672 874.567 156.384 873.975 155.44L873.111 154.08H871.527L874.087 157.952L871.367 162ZM882.813 162.224C884.813 162.224 885.965 161.28 885.965 159.792C885.965 157.984 884.093 157.504 883.293 157.344L882.381 157.168C881.245 156.944 880.989 156.624 880.989 156.096C880.989 155.52 881.501 154.976 882.605 154.976C883.949 154.976 884.397 155.824 884.589 156.352L885.821 155.904C885.501 154.864 884.573 153.856 882.605 153.856C881.053 153.856 879.709 154.816 879.709 156.24C879.709 157.744 880.861 158.24 882.173 158.496L883.085 158.672C884.237 158.896 884.605 159.312 884.605 159.904C884.605 160.656 883.965 161.056 882.813 161.056C881.565 161.056 880.925 160.464 880.685 159.52L879.373 159.952C879.725 161.472 881.197 162.224 882.813 162.224Z" fill="#6E6E78"/>
<path d="M182 128C181.448 128 181 128.448 181 129C181 129.552 181.448 130 182 130V128ZM257.707 129.707C258.098 129.317 258.098 128.683 257.707 128.293L251.343 121.929C250.953 121.538 250.319 121.538 249.929 121.929C249.538 122.319 249.538 122.953 249.929 123.343L255.586 129L249.929 134.657C249.538 135.047 249.538 135.681 249.929 136.071C250.319 136.462 250.953 136.462 251.343 136.071L257.707 129.707ZM182 130H257V128H182V130Z" fill="#DA372C"/>
<path d="M131.429 134H138.901V132.608H132.869V122.8H131.429V134ZM143.031 134.224C144.423 134.224 145.191 133.456 145.575 132.784V134H146.903V126.08H145.543V127.312C145.159 126.64 144.423 125.856 143.031 125.856C141.207 125.856 139.815 127.44 139.815 130.048C139.815 132.656 141.207 134.224 143.031 134.224ZM143.383 133.024C142.119 133.024 141.207 132.272 141.207 130.064C141.207 127.856 142.119 127.056 143.383 127.056C144.679 127.056 145.623 128.064 145.623 130.064C145.623 132.064 144.679 133.024 143.383 133.024ZM153.466 134.224C155.29 134.224 156.682 132.64 156.682 130.032C156.682 127.424 155.29 125.856 153.466 125.856C152.074 125.856 151.338 126.624 150.954 127.296V125.76V122.8H149.594V134H150.922V132.768C151.306 133.44 152.074 134.224 153.466 134.224ZM153.114 133.024C151.818 133.024 150.874 132.016 150.874 130.016C150.874 128.016 151.818 127.056 153.114 127.056C154.378 127.056 155.29 127.808 155.29 130.016C155.29 132.224 154.378 133.024 153.114 133.024ZM161.774 134.224C163.262 134.224 164.59 133.552 165.182 131.936L163.934 131.504C163.726 132.016 163.166 133.04 161.822 133.04C160.718 133.04 159.614 132.4 159.534 130.4H165.118C165.422 127.808 163.998 125.856 161.694 125.856C159.678 125.856 158.19 127.472 158.19 130.08C158.19 132.768 159.614 134.224 161.774 134.224ZM159.566 129.264C159.678 127.824 160.654 126.976 161.694 126.976C162.782 126.976 163.726 127.76 163.726 129.264H159.566ZM167.297 134H168.657V122.8H167.297V134Z" fill="#6E6E78"/>
<path d="M182 202C181.448 202 181 202.448 181 203C181 203.552 181.448 204 182 204L182 202ZM283.707 203.707C284.098 203.317 284.098 202.683 283.707 202.293L277.343 195.929C276.953 195.538 276.319 195.538 275.929 195.929C275.538 196.319 275.538 196.953 275.929 197.343L281.586 203L275.929 208.657C275.538 209.047 275.538 209.681 275.929 210.071C276.319 210.462 276.953 210.462 277.343 210.071L283.707 203.707ZM182 204L283 204L283 202L182 202L182 204Z" fill="#DA372C"/>
<path d="M133.408 208H135.568L139.184 196.8H137.6L135.2 204.464L134.496 206.688L133.808 204.448L131.44 196.8H129.84L133.408 208ZM143.031 208.224C144.423 208.224 145.191 207.456 145.575 206.784V208H146.903V200.08H145.543V201.312C145.159 200.64 144.423 199.856 143.031 199.856C141.207 199.856 139.815 201.44 139.815 204.048C139.815 206.656 141.207 208.224 143.031 208.224ZM143.383 207.024C142.119 207.024 141.207 206.272 141.207 204.064C141.207 201.856 142.119 201.056 143.383 201.056C144.679 201.056 145.623 202.064 145.623 204.064C145.623 206.064 144.679 207.024 143.383 207.024ZM149.594 208H150.954V196.8H149.594V208ZM156.169 208.224C157.817 208.224 158.569 207.056 158.809 206.624V208H160.137V200.08H158.777V203.44C158.777 204.656 158.745 207.024 156.601 207.024C155.561 207.024 154.889 206.416 154.889 204.928V200.08H153.529V205.248C153.529 207.008 154.313 208.224 156.169 208.224ZM165.82 208.224C167.308 208.224 168.636 207.552 169.228 205.936L167.98 205.504C167.772 206.016 167.212 207.04 165.868 207.04C164.764 207.04 163.66 206.4 163.58 204.4H169.164C169.468 201.808 168.044 199.856 165.74 199.856C163.724 199.856 162.236 201.472 162.236 204.08C162.236 206.768 163.66 208.224 165.82 208.224ZM163.612 203.264C163.724 201.824 164.7 200.976 165.74 200.976C166.828 200.976 167.772 201.76 167.772 203.264H163.612Z" fill="#6E6E78"/>
</svg>
