<svg width="958" height="346" viewBox="0 0 958 346" fill="none" xmlns="http://www.w3.org/2000/svg">
<rect x="366" y="157" width="32" height="32" rx="8" fill="#1662DD"/>
<path d="M369.911 173.678L369.824 173.766L369.912 173.854L378.13 182.088L378.219 182.177L378.307 182.089L394.088 166.323L394.177 166.234L394.088 166.145L391.822 163.911L391.734 163.824L391.646 163.912L378.219 177.323L372.323 171.427L372.234 171.339L372.146 171.428L369.911 173.678Z" fill="white" stroke="white" stroke-width="0.25"/>
<path d="M432.948 182.392C437.792 182.392 440.62 179.564 441.488 176.428L438.94 175.476C438.212 177.828 436.812 180.012 432.948 180.012C428.888 180.012 426.172 176.708 426.172 171.976C426.172 167.244 428.916 164.388 432.948 164.388C436.896 164.388 438.352 167.076 438.856 168.672L441.46 167.776C440.676 165.172 438.016 162.008 432.948 162.008C427.292 162.008 423.456 166.32 423.456 172.004C423.456 177.688 426.816 182.392 432.948 182.392ZM444.887 182H447.267V175.644C447.267 172.396 448.555 170.408 451.691 170.408C452.251 170.408 452.727 170.464 453.175 170.548V168.112C452.839 168.028 452.419 167.944 451.747 167.944C449.115 167.944 447.687 169.988 447.239 171.024V168.14H444.887V182ZM460.413 182.392C463.297 182.392 464.613 180.348 465.033 179.592V182H467.357V168.14H464.977V174.02C464.977 176.148 464.921 180.292 461.169 180.292C459.349 180.292 458.173 179.228 458.173 176.624V168.14H455.793V177.184C455.793 180.264 457.165 182.392 460.413 182.392ZM472.067 182H474.447V175.56C474.447 173.572 474.615 169.876 478.003 169.876C479.851 169.876 481.083 170.828 481.083 173.516V182H483.407V175.56C483.407 173.572 483.491 169.876 486.991 169.876C488.839 169.876 490.043 170.828 490.043 173.516V182H492.423V172.816C492.423 169.596 490.743 167.748 487.579 167.748C484.639 167.748 483.407 169.568 482.931 170.716C482.231 168.84 480.607 167.748 478.563 167.748C476.071 167.748 474.895 169.344 474.391 170.24V168.14H472.067V182ZM503.698 182.392C506.89 182.392 509.326 179.62 509.326 175.056C509.326 170.492 506.89 167.748 503.698 167.748C501.262 167.748 499.974 169.092 499.302 170.268V167.58V162.4H496.922V182H499.246V179.844C499.918 181.02 501.262 182.392 503.698 182.392ZM503.082 180.292C500.814 180.292 499.162 178.528 499.162 175.028C499.162 171.528 500.814 169.848 503.082 169.848C505.294 169.848 506.89 171.164 506.89 175.028C506.89 178.892 505.294 180.292 503.082 180.292ZM524.839 182.392C527.275 182.392 528.619 181.048 529.291 179.872V182H531.615V162.4H529.235V167.58V170.296C528.563 169.12 527.275 167.748 524.839 167.748C521.647 167.748 519.211 170.52 519.211 175.084C519.211 179.648 521.647 182.392 524.839 182.392ZM525.455 180.292C523.243 180.292 521.647 178.976 521.647 175.112C521.647 171.248 523.243 169.848 525.455 169.848C527.723 169.848 529.375 171.612 529.375 175.112C529.375 178.612 527.723 180.292 525.455 180.292ZM541.673 182.392C545.313 182.392 548.113 179.256 548.113 175.084C548.113 170.912 545.425 167.748 541.673 167.748C537.921 167.748 535.233 170.912 535.233 175.084C535.233 179.256 538.033 182.392 541.673 182.392ZM541.673 180.292C539.321 180.292 537.697 178.612 537.697 175.112C537.697 171.612 539.321 169.848 541.673 169.848C544.025 169.848 545.649 171.612 545.649 175.112C545.649 178.612 544.025 180.292 541.673 180.292ZM551.719 182H554.099V176.12C554.099 174.076 554.183 169.848 557.991 169.848C559.839 169.848 561.043 170.912 561.043 173.516V182H563.423V172.956C563.423 169.876 562.023 167.748 558.579 167.748C555.583 167.748 554.239 169.876 554.043 170.492V168.14H551.719V182ZM572.358 182.392C575.242 182.392 576.558 180.348 576.978 179.592V182H579.302V168.14H576.922V174.02C576.922 176.148 576.866 180.292 573.114 180.292C571.294 180.292 570.118 179.228 570.118 176.624V168.14H567.738V177.184C567.738 180.264 569.11 182.392 572.358 182.392ZM588.828 182H592.02V179.9H589.136C588.156 179.9 587.736 179.48 587.736 178.5V170.156H591.516V168.14H587.736V163.8H585.356V168.14H582.136V170.156H585.356V178.64C585.356 180.936 586.532 182 588.828 182Z" fill="#1D1D21"/>
<path d="M183 172C182.448 172 182 172.448 182 173C182 173.552 182.448 174 183 174L183 172ZM354.707 173.707C355.098 173.317 355.098 172.683 354.707 172.293L348.343 165.929C347.953 165.538 347.319 165.538 346.929 165.929C346.538 166.319 346.538 166.953 346.929 167.343L352.586 173L346.929 178.657C346.538 179.047 346.538 179.681 346.929 180.071C347.319 180.462 347.953 180.462 348.343 180.071L354.707 173.707ZM183 174L354 174L354 172L183 172L183 174Z" fill="#DA372C"/>
<path d="M188.728 156.224C191.544 156.224 192.968 154.576 192.968 151.68V144.8H191.528V151.472C191.528 153.52 190.664 154.848 188.728 154.848C186.792 154.848 185.928 153.536 185.928 151.472V144.8H184.488V151.68C184.488 154.816 186.136 156.224 188.728 156.224ZM196.101 156H197.541V144.8H196.101V156ZM204.624 146.528H206.064V144.8H204.624V146.528ZM204.672 156H206.032V148.08H204.672V156ZM208.719 156H210.079V152.64C210.079 151.472 210.127 149.056 212.303 149.056C213.359 149.056 214.047 149.664 214.047 151.152V156H215.407V150.832C215.407 149.072 214.607 147.856 212.639 147.856C210.927 147.856 210.159 149.072 210.047 149.424V148.08H208.719V156ZM220.609 156.224C222.001 156.224 222.769 155.456 223.153 154.784V156H224.481V144.8H223.121V147.76V149.312C222.737 148.64 222.001 147.856 220.609 147.856C218.785 147.856 217.393 149.44 217.393 152.048C217.393 154.656 218.785 156.224 220.609 156.224ZM220.961 155.024C219.697 155.024 218.785 154.272 218.785 152.064C218.785 149.856 219.697 149.056 220.961 149.056C222.257 149.056 223.201 150.064 223.201 152.064C223.201 154.064 222.257 155.024 220.961 155.024ZM227.124 146.528H228.564V144.8H227.124V146.528ZM227.172 156H228.532V148.08H227.172V156ZM234.371 156.224C236.147 156.224 237.299 155.184 237.811 153.712L236.531 153.264C236.275 154.128 235.683 155.024 234.371 155.024C233.059 155.024 232.035 154.064 232.035 152.032C232.035 150.048 233.091 149.056 234.355 149.056C235.507 149.056 236.083 149.808 236.339 150.56L237.603 150.144C237.235 148.912 236.147 147.856 234.355 147.856C232.163 147.856 230.611 149.584 230.611 152.032C230.611 154.592 232.083 156.224 234.371 156.224ZM242.249 156.224C243.641 156.224 244.409 155.456 244.793 154.784V156H246.121V148.08H244.761V149.312C244.377 148.64 243.641 147.856 242.249 147.856C240.425 147.856 239.033 149.44 239.033 152.048C239.033 154.656 240.425 156.224 242.249 156.224ZM242.601 155.024C241.337 155.024 240.425 154.272 240.425 152.064C240.425 149.856 241.337 149.056 242.601 149.056C243.897 149.056 244.841 150.064 244.841 152.064C244.841 154.064 243.897 155.024 242.601 155.024ZM251.565 156H253.389V154.8H251.741C251.181 154.8 250.941 154.56 250.941 154V149.232H253.101V148.08H250.941V145.6H249.581V148.08H247.741V149.232H249.581V154.08C249.581 155.392 250.253 156 251.565 156ZM258.088 156.224C260.168 156.224 261.767 154.432 261.767 152.048C261.767 149.664 260.232 147.856 258.088 147.856C255.944 147.856 254.408 149.664 254.408 152.048C254.408 154.432 256.008 156.224 258.088 156.224ZM258.088 155.024C256.744 155.024 255.816 154.064 255.816 152.064C255.816 150.064 256.744 149.056 258.088 149.056C259.432 149.056 260.36 150.064 260.36 152.064C260.36 154.064 259.432 155.024 258.088 155.024ZM263.828 156H265.188V152.368C265.188 150.512 265.924 149.376 267.716 149.376C268.036 149.376 268.308 149.408 268.564 149.456V148.064C268.372 148.016 268.132 147.968 267.748 147.968C266.244 147.968 265.428 149.136 265.172 149.728V148.08H263.828V156Z" fill="#6E6E78"/>
<path d="M531 54C531 53.4477 530.552 53 530 53C529.448 53 529 53.4477 529 54L531 54ZM529.293 149.707C529.683 150.098 530.317 150.098 530.707 149.707L537.071 143.343C537.462 142.953 537.462 142.319 537.071 141.929C536.681 141.538 536.047 141.538 535.657 141.929L530 147.586L524.343 141.929C523.953 141.538 523.319 141.538 522.929 141.929C522.538 142.319 522.538 142.953 522.929 143.343L529.293 149.707ZM529 54L529 149L531 149L531 54L529 54Z" fill="#DA372C"/>
<path d="M479.429 65H486.901V63.608H480.869V53.8H479.429V65ZM491.031 65.224C492.423 65.224 493.191 64.456 493.575 63.784V65H494.903V57.08H493.543V58.312C493.159 57.64 492.423 56.856 491.031 56.856C489.207 56.856 487.815 58.44 487.815 61.048C487.815 63.656 489.207 65.224 491.031 65.224ZM491.383 64.024C490.119 64.024 489.207 63.272 489.207 61.064C489.207 58.856 490.119 58.056 491.383 58.056C492.679 58.056 493.623 59.064 493.623 61.064C493.623 63.064 492.679 64.024 491.383 64.024ZM501.466 65.224C503.29 65.224 504.682 63.64 504.682 61.032C504.682 58.424 503.29 56.856 501.466 56.856C500.074 56.856 499.338 57.624 498.954 58.296V56.76V53.8H497.594V65H498.922V63.768C499.306 64.44 500.074 65.224 501.466 65.224ZM501.114 64.024C499.818 64.024 498.874 63.016 498.874 61.016C498.874 59.016 499.818 58.056 501.114 58.056C502.378 58.056 503.29 58.808 503.29 61.016C503.29 63.224 502.378 64.024 501.114 64.024ZM509.774 65.224C511.262 65.224 512.59 64.552 513.182 62.936L511.934 62.504C511.726 63.016 511.166 64.04 509.822 64.04C508.718 64.04 507.614 63.4 507.534 61.4H513.118C513.422 58.808 511.998 56.856 509.694 56.856C507.678 56.856 506.19 58.472 506.19 61.08C506.19 63.768 507.614 65.224 509.774 65.224ZM507.566 60.264C507.678 58.824 508.654 57.976 509.694 57.976C510.782 57.976 511.726 58.76 511.726 60.264H507.566ZM515.297 65H516.657V53.8H515.297V65Z" fill="#6E6E78"/>
<path d="M410 295C410 295.552 410.448 296 411 296C411.552 296 412 295.552 412 295L410 295ZM411.707 208.293C411.317 207.902 410.683 207.902 410.293 208.293L403.929 214.657C403.538 215.047 403.538 215.681 403.929 216.071C404.319 216.462 404.953 216.462 405.343 216.071L411 210.414L416.657 216.071C417.047 216.462 417.681 216.462 418.071 216.071C418.462 215.681 418.462 215.047 418.071 214.657L411.707 208.293ZM412 295L412 209L410 209L410 295L412 295Z" fill="#DA372C"/>
<path d="M320.975 296.68H322.175V295.208C324.447 295.032 325.695 293.72 325.695 291.896C325.695 290.2 324.431 289.24 322.655 288.792L322.175 288.664V284.952C323.471 285.208 323.983 286.2 324.191 286.792L325.519 286.136C325.231 285.192 324.191 283.832 322.175 283.608V282.12H320.975V283.608C319.071 283.832 317.807 285.064 317.807 286.712C317.807 288.568 318.959 289.384 320.607 289.736L320.975 289.816V293.848C319.727 293.576 318.975 292.664 318.607 291.544L317.247 292.2C317.743 293.768 319.007 294.952 320.975 295.192V296.68ZM320.975 288.392C319.727 288.072 319.183 287.592 319.183 286.632C319.183 285.72 319.855 285.032 320.975 284.904V286.968V288.392ZM322.175 293.912V291.848V290.088C323.567 290.408 324.239 291.032 324.239 292.024C324.239 293.064 323.487 293.784 322.175 293.912ZM330.391 295.224C332.391 295.224 333.543 294.28 333.543 292.792C333.543 290.984 331.671 290.504 330.871 290.344L329.959 290.168C328.823 289.944 328.567 289.624 328.567 289.096C328.567 288.52 329.079 287.976 330.183 287.976C331.527 287.976 331.975 288.824 332.167 289.352L333.399 288.904C333.079 287.864 332.151 286.856 330.183 286.856C328.631 286.856 327.287 287.816 327.287 289.24C327.287 290.744 328.439 291.24 329.751 291.496L330.663 291.672C331.815 291.896 332.183 292.312 332.183 292.904C332.183 293.656 331.543 294.056 330.391 294.056C329.143 294.056 328.503 293.464 328.263 292.52L326.951 292.952C327.303 294.472 328.775 295.224 330.391 295.224ZM335.578 298.12H336.938V295.32V293.768C337.322 294.44 338.058 295.224 339.45 295.224C341.274 295.224 342.666 293.64 342.666 291.032C342.666 288.424 341.274 286.856 339.45 286.856C338.058 286.856 337.29 287.624 336.906 288.296V287.08H335.578V298.12ZM339.098 294.024C337.802 294.024 336.858 293.016 336.858 291.016C336.858 289.016 337.802 288.056 339.098 288.056C340.362 288.056 341.274 288.808 341.274 291.016C341.274 293.224 340.362 294.024 339.098 294.024ZM347.39 295.224C348.782 295.224 349.55 294.456 349.934 293.784V295H351.262V287.08H349.902V288.312C349.518 287.64 348.782 286.856 347.39 286.856C345.566 286.856 344.174 288.44 344.174 291.048C344.174 293.656 345.566 295.224 347.39 295.224ZM347.742 294.024C346.478 294.024 345.566 293.272 345.566 291.064C345.566 288.856 346.478 288.056 347.742 288.056C349.038 288.056 349.982 289.064 349.982 291.064C349.982 293.064 349.038 294.024 347.742 294.024ZM357.105 295.224C358.881 295.224 360.033 294.184 360.545 292.712L359.265 292.264C359.009 293.128 358.417 294.024 357.105 294.024C355.793 294.024 354.769 293.064 354.769 291.032C354.769 289.048 355.825 288.056 357.089 288.056C358.241 288.056 358.817 288.808 359.073 289.56L360.337 289.144C359.969 287.912 358.881 286.856 357.089 286.856C354.897 286.856 353.345 288.584 353.345 291.032C353.345 293.592 354.817 295.224 357.105 295.224ZM362.312 285.528H363.752V283.8H362.312V285.528ZM362.36 295H363.72V287.08H362.36V295ZM366.407 295H367.767V291.64C367.767 290.472 367.815 288.056 369.991 288.056C371.047 288.056 371.735 288.664 371.735 290.152V295H373.095V289.832C373.095 288.072 372.295 286.856 370.327 286.856C368.615 286.856 367.847 288.072 367.735 288.424V287.08H366.407V295ZM376.952 298.12H380.648C381.992 298.12 383.128 297.416 383.128 295.944C383.128 294.616 382.136 293.752 380.616 293.752H377.16C376.6 293.752 376.488 293.464 376.488 293.208C376.488 292.92 376.776 292.616 377.208 292.424C377.64 292.68 378.136 292.728 378.68 292.728C380.44 292.728 381.64 291.56 381.768 289.768L381.8 289.336C381.864 288.408 382.136 288.232 382.856 288.232H383.464V287.08H382.616C381.848 287.08 381.48 287.608 381.32 288.216C380.984 287.656 380.152 286.856 378.68 286.856C376.856 286.856 375.528 288.152 375.528 289.8C375.528 290.792 375.96 291.512 376.408 291.912C375.896 292.28 375.24 292.808 375.24 293.592C375.24 294.216 375.496 294.584 375.944 294.856C375.464 295.128 374.888 295.72 374.888 296.52C374.888 297.448 375.432 298.12 376.952 298.12ZM378.68 291.608C377.608 291.608 376.904 290.888 376.904 289.8C376.904 288.712 377.608 287.976 378.68 287.976C379.752 287.976 380.456 288.712 380.456 289.8C380.456 290.888 379.752 291.608 378.68 291.608ZM377.416 296.904C376.584 296.904 376.136 296.728 376.136 296.072C376.136 295.528 376.488 295.176 376.76 295H380.504C381.128 295 381.752 295.128 381.752 295.944C381.752 296.76 381.128 296.904 380.504 296.904H377.416ZM384.62 290.776H389.036V289.336H384.62V290.776ZM394.157 295.224C396.157 295.224 397.309 294.28 397.309 292.792C397.309 290.984 395.437 290.504 394.637 290.344L393.725 290.168C392.589 289.944 392.333 289.624 392.333 289.096C392.333 288.52 392.845 287.976 393.949 287.976C395.293 287.976 395.741 288.824 395.933 289.352L397.165 288.904C396.845 287.864 395.917 286.856 393.949 286.856C392.397 286.856 391.053 287.816 391.053 289.24C391.053 290.744 392.205 291.24 393.517 291.496L394.429 291.672C395.581 291.896 395.949 292.312 395.949 292.904C395.949 293.656 395.309 294.056 394.157 294.056C392.909 294.056 392.269 293.464 392.029 292.52L390.717 292.952C391.069 294.472 392.541 295.224 394.157 295.224Z" fill="#6E6E78"/>
<rect opacity="0.2" x="399" y="149" width="24" height="48" fill="#DA372C"/>
</svg>
