<svg viewBox="0 0 958 346" fill="none" xmlns="http://www.w3.org/2000/svg"><path fill-rule="evenodd" clip-rule="evenodd" d="M958 184H190V186H958V184Z" fill="#C1C1C8"/><g clip-path="url(#clip0)"><path d="M216.548 159H220.188V150.04V142.704L226.124 159H229.148L235.112 142.704V150.04V159H238.752V139.4H232.984L229.232 149.648C228.28 152.252 227.972 153.064 227.748 153.624C227.524 153.12 227.188 152.252 226.264 149.648L222.512 139.4H216.548V159ZM243.057 142.844H246.697V139.372H243.057V142.844ZM243.197 159H246.585V145.056H243.197V159ZM255.841 159.392C259.733 159.392 262.001 157.628 262.001 154.912C262.001 152.056 259.425 150.992 257.213 150.572L255.421 150.208C253.741 149.9 253.293 149.452 253.293 148.668C253.293 147.828 254.049 147.1 255.589 147.1C257.325 147.1 258.249 148.164 258.641 149.228L261.525 147.996C260.937 146.428 259.201 144.636 255.701 144.636C252.341 144.636 250.045 146.372 250.045 148.976C250.045 151.692 251.837 152.616 254.553 153.148L256.401 153.512C258.053 153.848 258.473 154.464 258.473 155.248C258.473 156.228 257.605 156.872 255.981 156.872C253.461 156.872 252.789 155.164 252.621 154.38L249.457 155.388C250.073 157.936 252.705 159.392 255.841 159.392ZM270.197 159.392C274.089 159.392 276.357 157.628 276.357 154.912C276.357 152.056 273.781 150.992 271.569 150.572L269.777 150.208C268.097 149.9 267.649 149.452 267.649 148.668C267.649 147.828 268.405 147.1 269.945 147.1C271.681 147.1 272.605 148.164 272.997 149.228L275.881 147.996C275.293 146.428 273.557 144.636 270.057 144.636C266.697 144.636 264.401 146.372 264.401 148.976C264.401 151.692 266.193 152.616 268.909 153.148L270.757 153.512C272.409 153.848 272.829 154.464 272.829 155.248C272.829 156.228 271.961 156.872 270.337 156.872C267.817 156.872 267.145 155.164 266.977 154.38L263.813 155.388C264.429 157.936 267.061 159.392 270.197 159.392ZM279.26 142.844H282.9V139.372H279.26V142.844ZM279.4 159H282.788V145.056H279.4V159ZM292.94 159.42C297 159.42 299.968 156.452 299.968 152.028C299.968 147.66 297.028 144.636 292.94 144.636C288.852 144.636 285.912 147.66 285.912 152.028C285.912 156.284 288.88 159.42 292.94 159.42ZM292.94 156.648C290.868 156.648 289.44 155.192 289.44 152.084C289.44 148.976 290.868 147.408 292.94 147.408C295.012 147.408 296.412 148.976 296.412 152.084C296.412 155.192 295.012 156.648 292.94 156.648ZM303.135 159H306.551V152.644C306.551 150.936 306.607 147.492 309.743 147.492C311.283 147.492 312.263 148.388 312.263 150.488V159H315.679V149.732C315.679 146.68 314.307 144.636 310.975 144.636C308.258 144.636 306.915 146.456 306.467 147.268V145.056H303.135V159Z" fill="#1D1D21"/><path d="M190 182H330V186H190V182Z" fill="#1662DD"/></g><path d="M368.548 159H382.744V155.808H372.188V139.4H368.548V159ZM388.719 159.42C391.071 159.42 392.555 158.244 393.395 156.928C393.563 158.16 394.179 159 395.943 159H398.575V156.312H397.259C396.531 156.312 396.419 156.144 396.419 155.472V149.844C396.419 146.428 394.319 144.636 390.483 144.636C386.563 144.636 384.379 146.68 384.043 148.752L387.207 149.564C387.543 148.332 388.411 147.24 390.483 147.24C392.275 147.24 393.059 148.052 393.059 149.424V149.9C388.439 150.32 384.267 151.524 384.267 155.416C384.267 157.88 386.115 159.42 388.719 159.42ZM389.839 156.844C388.439 156.844 387.739 156.144 387.739 155.08C387.739 153.092 390.175 152.476 393.059 152.14V153.26C393.059 155.752 391.491 156.844 389.839 156.844ZM405.058 159.42C407.802 159.42 409.09 157.628 409.65 156.704V159H413.038V145.056H409.622V151.608C409.622 153.848 409.118 156.564 406.458 156.564C404.974 156.564 404.05 155.696 404.05 153.54V145.056H400.634V154.352C400.634 157.404 402.174 159.42 405.058 159.42ZM417.181 159H420.597V152.644C420.597 150.936 420.653 147.492 423.789 147.492C425.329 147.492 426.309 148.388 426.309 150.488V159H429.725V149.732C429.725 146.68 428.353 144.636 425.021 144.636C422.305 144.636 420.961 146.456 420.513 147.268V145.056H417.181V159ZM439.912 159.42C443.16 159.42 445.512 157.628 446.52 154.968L443.3 153.82C442.74 155.528 441.732 156.648 439.856 156.648C437.868 156.648 436.216 155.136 436.216 152C436.216 148.92 437.84 147.408 439.828 147.408C441.48 147.408 442.572 148.416 443.104 149.9L446.24 148.78C445.428 146.456 443.216 144.636 439.912 144.636C435.824 144.636 432.744 147.576 432.744 152C432.744 156.508 435.712 159.42 439.912 159.42ZM449.228 159H452.644V152.644C452.644 150.936 452.7 147.492 455.836 147.492C457.376 147.492 458.356 148.388 458.356 150.488V159H461.772V149.732C461.772 146.68 460.344 144.636 457.236 144.636C454.352 144.636 453.092 146.456 452.644 147.268V144.496V139.4H449.228V159Z" fill="#1D1D21"/><path d="M342 184H488V186H342V184Z" fill="#C1C1C8"/><path d="M526.548 159H540.744V155.808H530.188V139.4H526.548V159ZM546.719 159.42C549.071 159.42 550.555 158.244 551.395 156.928C551.563 158.16 552.179 159 553.943 159H556.575V156.312H555.259C554.531 156.312 554.419 156.144 554.419 155.472V149.844C554.419 146.428 552.319 144.636 548.483 144.636C544.563 144.636 542.379 146.68 542.043 148.752L545.207 149.564C545.543 148.332 546.411 147.24 548.483 147.24C550.275 147.24 551.059 148.052 551.059 149.424V149.9C546.439 150.32 542.267 151.524 542.267 155.416C542.267 157.88 544.115 159.42 546.719 159.42ZM547.839 156.844C546.439 156.844 545.739 156.144 545.739 155.08C545.739 153.092 548.175 152.476 551.059 152.14V153.26C551.059 155.752 549.491 156.844 547.839 156.844ZM558.802 159H562.218V152.644C562.218 150.936 562.274 147.492 565.41 147.492C566.95 147.492 567.93 148.388 567.93 150.488V159H571.346V149.732C571.346 146.68 569.974 144.636 566.642 144.636C563.926 144.636 562.582 146.456 562.134 147.268V145.056H558.802V159ZM580.329 159.42C582.737 159.42 584.249 158.076 584.893 157.04V159H588.225V139.4H584.809V144.496V147.016C584.165 145.98 582.709 144.636 580.329 144.636C576.801 144.636 574.421 147.548 574.421 152.028C574.421 156.508 576.801 159.42 580.329 159.42ZM581.449 156.732C579.461 156.732 577.977 155.528 577.977 152.028C577.977 148.556 579.461 147.324 581.449 147.324C583.521 147.324 584.977 148.892 584.977 152.028C584.977 155.192 583.521 156.732 581.449 156.732ZM592.241 142.844H595.881V139.372H592.241V142.844ZM592.381 159H595.769V145.056H592.381V159ZM599.873 159H603.289V152.644C603.289 150.936 603.345 147.492 606.481 147.492C608.021 147.492 609.001 148.388 609.001 150.488V159H612.417V149.732C612.417 146.68 611.045 144.636 607.713 144.636C604.997 144.636 603.653 146.456 603.205 147.268V145.056H599.873V159ZM619.16 164.46H625.628C628.232 164.46 630.332 163.06 630.332 160.316C630.332 158.02 628.484 156.228 625.628 156.228H619.58C618.712 156.228 618.264 156.032 618.264 155.472C618.264 155.024 618.628 154.632 619.412 154.352C620.224 154.772 621.176 154.856 622.184 154.856C625.404 154.856 627.728 152.952 628.008 149.872L628.064 149.452C628.204 147.94 628.512 147.716 629.52 147.716H630.892V145.056H629.688C627.98 145.056 627.42 145.728 627.28 147.296C626.468 145.868 624.648 144.636 622.1 144.636C618.684 144.636 616.22 146.792 616.22 149.844C616.22 151.328 616.864 152.588 617.76 153.316C616.696 153.96 615.604 154.94 615.604 156.34C615.604 157.544 616.08 158.244 616.892 158.776C616.052 159.308 615.156 160.316 615.156 161.604C615.156 163.34 616.304 164.46 619.16 164.46ZM622.184 152.476C620.56 152.476 619.496 151.412 619.496 149.816C619.496 148.22 620.56 147.072 622.184 147.072C623.808 147.072 624.872 148.22 624.872 149.816C624.872 151.412 623.808 152.476 622.184 152.476ZM619.608 161.856C618.6 161.856 617.9 161.464 617.9 160.484C617.9 159.784 618.376 159.224 618.768 159H625.04C626.272 159 626.944 159.476 626.944 160.4C626.944 161.408 626.272 161.856 625.04 161.856H619.608Z" fill="#1D1D21"/><path d="M500 184H656V186H500V184Z" fill="#C1C1C8"/><path d="M694.548 159H701.632C707.344 159 711.684 155.332 711.684 149.088C711.684 143.068 707.316 139.4 701.716 139.4H694.548V159ZM698.188 155.892V142.508H701.548C705.832 142.508 707.904 145.168 707.904 149.144C707.904 153.568 705.776 155.892 701.352 155.892H698.188ZM720.897 159.42C724.565 159.42 726.525 157.516 727.421 155.36L724.341 154.212C723.837 155.388 722.913 156.732 720.925 156.732C719.133 156.732 717.621 155.696 717.481 152.868H727.337C727.785 148.248 725.293 144.636 720.841 144.636C716.977 144.636 714.093 147.576 714.093 152.028C714.093 156.676 716.781 159.42 720.897 159.42ZM717.593 150.348C717.845 148.332 719.161 147.184 720.841 147.184C722.605 147.184 723.837 148.304 723.949 150.348H717.593ZM730.631 164.46H734.047V159.56V157.012C734.691 158.104 736.147 159.42 738.527 159.42C742.083 159.42 744.463 156.48 744.463 152.028C744.463 147.548 742.083 144.608 738.527 144.608C736.119 144.608 734.607 146.008 733.963 147.016V145.056H730.631V164.46ZM737.407 156.732C735.335 156.732 733.879 155.164 733.879 152C733.879 148.864 735.335 147.296 737.407 147.296C739.395 147.296 740.907 148.528 740.907 152C740.907 155.5 739.395 156.732 737.407 156.732ZM747.666 159H751.082V139.4H747.666V159ZM761.261 159.42C765.321 159.42 768.289 156.452 768.289 152.028C768.289 147.66 765.349 144.636 761.261 144.636C757.173 144.636 754.233 147.66 754.233 152.028C754.233 156.284 757.201 159.42 761.261 159.42ZM761.261 156.648C759.189 156.648 757.761 155.192 757.761 152.084C757.761 148.976 759.189 147.408 761.261 147.408C763.333 147.408 764.733 148.976 764.733 152.084C764.733 155.192 763.333 156.648 761.261 156.648ZM780.223 145.056L778.291 151.02L777.059 154.772C776.807 154.184 776.471 153.484 775.463 151.048L772.887 145.056H769.191L775.687 158.888L775.267 160.148C774.847 161.296 774.371 161.632 773.419 161.632H770.115V164.46H773.755C776.191 164.46 777.311 163.48 778.123 161.1L783.807 145.056H780.223ZM786.357 159H789.773V152.112C789.773 150.488 789.885 147.52 792.713 147.52C794.197 147.52 795.205 148.332 795.205 150.488V159H798.565V152.112C798.565 150.488 798.621 147.52 801.477 147.52C802.989 147.52 803.969 148.332 803.969 150.488V159H807.385V149.704C807.385 146.204 805.481 144.636 802.681 144.636C800.469 144.636 799.013 145.672 798.005 147.268C797.221 145.672 795.821 144.636 793.861 144.636C791.873 144.636 790.445 145.7 789.689 147.1V145.056H786.357V159ZM817.229 159.42C820.897 159.42 822.857 157.516 823.753 155.36L820.673 154.212C820.169 155.388 819.245 156.732 817.257 156.732C815.465 156.732 813.953 155.696 813.813 152.868H823.669C824.117 148.248 821.625 144.636 817.173 144.636C813.309 144.636 810.425 147.576 810.425 152.028C810.425 156.676 813.113 159.42 817.229 159.42ZM813.925 150.348C814.177 148.332 815.493 147.184 817.173 147.184C818.937 147.184 820.169 148.304 820.281 150.348H813.925ZM826.963 159H830.379V152.644C830.379 150.936 830.435 147.492 833.571 147.492C835.111 147.492 836.091 148.388 836.091 150.488V159H839.507V149.732C839.507 146.68 838.135 144.636 834.803 144.636C832.087 144.636 830.743 146.456 830.295 147.268V145.056H826.963V159ZM848.434 159H852.578V156.2H849.61C848.714 156.2 848.322 155.808 848.322 154.912V147.716H852.018V145.056H848.322V140.66H844.906V145.056H841.882V147.716H844.906V155.444C844.906 157.656 846.166 159 848.434 159Z" fill="#1D1D21"/><path d="M668 184H878V186H668V184Z" fill="#C1C1C8"/><path fill="#F6F6F7" d="M190 186H206V202H190z"/><path fill="#fff" d="M206 186H222V202H206z"/><path fill="#F6F6F7" d="M190 218H206V234H190z"/><path fill="#fff" d="M206 218H222V234H206z"/><path fill="#F6F6F7" d="M190 250H206V266H190z"/><path fill="#fff" d="M206 250H222V266H206z"/><path fill="#F6F6F7" d="M190 282H206V298H190z"/><path fill="#fff" d="M206 282H222V298H206z"/><path fill="#F6F6F7" d="M190 314H206V330H190z"/><path fill="#fff" d="M206 314H222V330H206z"/><path fill="#F6F6F7" d="M206 202H222V218H206z"/><path fill="#fff" d="M190 202H206V218H190z"/><path fill="#F6F6F7" d="M206 234H222V250H206z"/><path fill="#fff" d="M190 234H206V250H190z"/><path fill="#F6F6F7" d="M206 266H222V282H206z"/><path fill="#fff" d="M190 266H206V282H190z"/><path fill="#F6F6F7" d="M206 298H222V314H206z"/><path fill="#fff" d="M190 298H206V314H190z"/><path fill="#F6F6F7" d="M206 330H222V346H206z"/><path fill="#fff" d="M190 330H206V346H190z"/><path fill="#F6F6F7" d="M270 202H286V218H270z"/><path fill="#fff" d="M254 202H270V218H254z"/><path fill="#F6F6F7" d="M270 234H286V250H270z"/><path fill="#fff" d="M254 234H270V250H254z"/><path fill="#F6F6F7" d="M270 266H286V282H270z"/><path fill="#fff" d="M254 266H270V282H254z"/><path fill="#F6F6F7" d="M270 298H286V314H270z"/><path fill="#fff" d="M254 298H270V314H254z"/><path fill="#F6F6F7" d="M270 330H286V346H270z"/><path fill="#fff" d="M254 330H270V346H254z"/><path fill="#F6F6F7" d="M334 202H350V218H334z"/><path fill="#fff" d="M318 202H334V218H318z"/><path fill="#F6F6F7" d="M334 234H350V250H334z"/><path fill="#fff" d="M318 234H334V250H318z"/><path fill="#F6F6F7" d="M334 266H350V282H334z"/><path fill="#fff" d="M318 266H334V282H318z"/><path fill="#F6F6F7" d="M334 298H350V314H334z"/><path fill="#fff" d="M318 298H334V314H318z"/><path fill="#F6F6F7" d="M334 330H350V346H334z"/><path fill="#fff" d="M318 330H334V346H318z"/><path fill="#F6F6F7" d="M398 202H414V218H398z"/><path fill="#fff" d="M382 202H398V218H382z"/><path fill="#F6F6F7" d="M398 234H414V250H398z"/><path fill="#fff" d="M382 234H398V250H382z"/><path fill="#F6F6F7" d="M398 266H414V282H398z"/><path fill="#fff" d="M382 266H398V282H382z"/><path fill="#F6F6F7" d="M398 298H414V314H398z"/><path fill="#fff" d="M382 298H398V314H382z"/><path fill="#F6F6F7" d="M398 330H414V346H398z"/><path fill="#fff" d="M382 330H398V346H382z"/><path fill="#F6F6F7" d="M462 202H478V218H462z"/><path fill="#fff" d="M446 202H462V218H446z"/><path fill="#F6F6F7" d="M462 234H478V250H462z"/><path fill="#fff" d="M446 234H462V250H446z"/><path fill="#F6F6F7" d="M462 266H478V282H462z"/><path fill="#fff" d="M446 266H462V282H446z"/><path fill="#F6F6F7" d="M462 298H478V314H462z"/><path fill="#fff" d="M446 298H462V314H446z"/><path fill="#F6F6F7" d="M462 330H478V346H462z"/><path fill="#fff" d="M446 330H462V346H446z"/><path fill="#F6F6F7" d="M526 202H542V218H526z"/><path fill="#fff" d="M510 202H526V218H510z"/><path fill="#F6F6F7" d="M526 234H542V250H526z"/><path fill="#fff" d="M510 234H526V250H510z"/><path fill="#F6F6F7" d="M526 266H542V282H526z"/><path fill="#fff" d="M510 266H526V282H510z"/><path fill="#F6F6F7" d="M526 298H542V314H526z"/><path fill="#fff" d="M510 298H526V314H510z"/><path fill="#F6F6F7" d="M526 330H542V346H526z"/><path fill="#fff" d="M510 330H526V346H510z"/><path fill="#F6F6F7" d="M590 202H606V218H590z"/><path fill="#fff" d="M574 202H590V218H574z"/><path fill="#F6F6F7" d="M590 234H606V250H590z"/><path fill="#fff" d="M574 234H590V250H574z"/><path fill="#F6F6F7" d="M590 266H606V282H590z"/><path fill="#fff" d="M574 266H590V282H574z"/><path fill="#F6F6F7" d="M590 298H606V314H590z"/><path fill="#fff" d="M574 298H590V314H574z"/><path fill="#F6F6F7" d="M590 330H606V346H590z"/><path fill="#fff" d="M574 330H590V346H574z"/><path fill="#F6F6F7" d="M654 202H670V218H654z"/><path fill="#fff" d="M638 202H654V218H638z"/><path fill="#F6F6F7" d="M654 234H670V250H654z"/><path fill="#fff" d="M638 234H654V250H638z"/><path fill="#F6F6F7" d="M654 266H670V282H654z"/><path fill="#fff" d="M638 266H654V282H638z"/><path fill="#F6F6F7" d="M654 298H670V314H654z"/><path fill="#fff" d="M638 298H654V314H638z"/><path fill="#F6F6F7" d="M654 330H670V346H654z"/><path fill="#fff" d="M638 330H654V346H638z"/><path fill="#F6F6F7" d="M718 202H734V218H718z"/><path fill="#fff" d="M702 202H718V218H702z"/><path fill="#F6F6F7" d="M718 234H734V250H718z"/><path fill="#fff" d="M702 234H718V250H702z"/><path fill="#F6F6F7" d="M718 266H734V282H718z"/><path fill="#fff" d="M702 266H718V282H702z"/><path fill="#F6F6F7" d="M718 298H734V314H718z"/><path fill="#fff" d="M702 298H718V314H702z"/><path fill="#F6F6F7" d="M718 330H734V346H718z"/><path fill="#fff" d="M702 330H718V346H702z"/><path fill="#F6F6F7" d="M782 202H798V218H782z"/><path fill="#fff" d="M766 202H782V218H766z"/><path fill="#F6F6F7" d="M782 234H798V250H782z"/><path fill="#fff" d="M766 234H782V250H766z"/><path fill="#F6F6F7" d="M782 266H798V282H782z"/><path fill="#fff" d="M766 266H782V282H766z"/><path fill="#F6F6F7" d="M782 298H798V314H782z"/><path fill="#fff" d="M766 298H782V314H766z"/><path fill="#F6F6F7" d="M782 330H798V346H782z"/><path fill="#fff" d="M766 330H782V346H766z"/><path fill="#F6F6F7" d="M846 202H862V218H846z"/><path fill="#fff" d="M830 202H846V218H830z"/><path fill="#F6F6F7" d="M846 234H862V250H846z"/><path fill="#fff" d="M830 234H846V250H830z"/><path fill="#F6F6F7" d="M846 266H862V282H846z"/><path fill="#fff" d="M830 266H846V282H830z"/><path fill="#F6F6F7" d="M846 298H862V314H846z"/><path fill="#fff" d="M830 298H846V314H830z"/><path fill="#F6F6F7" d="M846 330H862V346H846z"/><path fill="#fff" d="M830 330H846V346H830z"/><path fill="#F6F6F7" d="M910 202H926V218H910z"/><path fill="#fff" d="M894 202H910V218H894z"/><path fill="#F6F6F7" d="M910 234H926V250H910z"/><path fill="#fff" d="M894 234H910V250H894z"/><path fill="#F6F6F7" d="M910 266H926V282H910z"/><path fill="#fff" d="M894 266H910V282H894z"/><path fill="#F6F6F7" d="M910 298H926V314H910z"/><path fill="#fff" d="M894 298H910V314H894z"/><path fill="#F6F6F7" d="M910 330H926V346H910z"/><path fill="#fff" d="M894 330H910V346H894z"/><path fill="#F6F6F7" d="M238 202H254V218H238z"/><path fill="#fff" d="M222 202H238V218H222z"/><path fill="#F6F6F7" d="M238 234H254V250H238z"/><path fill="#fff" d="M222 234H238V250H222z"/><path fill="#F6F6F7" d="M238 266H254V282H238z"/><path fill="#fff" d="M222 266H238V282H222z"/><path fill="#F6F6F7" d="M238 298H254V314H238z"/><path fill="#fff" d="M222 298H238V314H222z"/><path fill="#F6F6F7" d="M238 330H254V346H238z"/><path fill="#fff" d="M222 330H238V346H222z"/><path fill="#F6F6F7" d="M302 202H318V218H302z"/><path fill="#fff" d="M286 202H302V218H286z"/><path fill="#F6F6F7" d="M302 234H318V250H302z"/><path fill="#fff" d="M286 234H302V250H286z"/><path fill="#F6F6F7" d="M302 266H318V282H302z"/><path fill="#fff" d="M286 266H302V282H286z"/><path fill="#F6F6F7" d="M302 298H318V314H302z"/><path fill="#fff" d="M286 298H302V314H286z"/><path fill="#F6F6F7" d="M302 330H318V346H302z"/><path fill="#fff" d="M286 330H302V346H286z"/><path fill="#F6F6F7" d="M366 202H382V218H366z"/><path fill="#fff" d="M350 202H366V218H350z"/><path fill="#F6F6F7" d="M366 234H382V250H366z"/><path fill="#fff" d="M350 234H366V250H350z"/><path fill="#F6F6F7" d="M366 266H382V282H366z"/><path fill="#fff" d="M350 266H366V282H350z"/><path fill="#F6F6F7" d="M366 298H382V314H366z"/><path fill="#fff" d="M350 298H366V314H350z"/><path fill="#F6F6F7" d="M366 330H382V346H366z"/><path fill="#fff" d="M350 330H366V346H350z"/><path fill="#F6F6F7" d="M430 202H446V218H430z"/><path fill="#fff" d="M414 202H430V218H414z"/><path fill="#F6F6F7" d="M430 234H446V250H430z"/><path fill="#fff" d="M414 234H430V250H414z"/><path fill="#F6F6F7" d="M430 266H446V282H430z"/><path fill="#fff" d="M414 266H430V282H414z"/><path fill="#F6F6F7" d="M430 298H446V314H430z"/><path fill="#fff" d="M414 298H430V314H414z"/><path fill="#F6F6F7" d="M430 330H446V346H430z"/><path fill="#fff" d="M414 330H430V346H414z"/><path fill="#F6F6F7" d="M494 202H510V218H494z"/><path fill="#fff" d="M478 202H494V218H478z"/><path fill="#F6F6F7" d="M494 234H510V250H494z"/><path fill="#fff" d="M478 234H494V250H478z"/><path fill="#F6F6F7" d="M494 266H510V282H494z"/><path fill="#fff" d="M478 266H494V282H478z"/><path fill="#F6F6F7" d="M494 298H510V314H494z"/><path fill="#fff" d="M478 298H494V314H478z"/><path fill="#F6F6F7" d="M494 330H510V346H494z"/><path fill="#fff" d="M478 330H494V346H478z"/><path fill="#F6F6F7" d="M558 202H574V218H558z"/><path fill="#fff" d="M542 202H558V218H542z"/><path fill="#F6F6F7" d="M558 234H574V250H558z"/><path fill="#fff" d="M542 234H558V250H542z"/><path fill="#F6F6F7" d="M558 266H574V282H558z"/><path fill="#fff" d="M542 266H558V282H542z"/><path fill="#F6F6F7" d="M558 298H574V314H558z"/><path fill="#fff" d="M542 298H558V314H542z"/><path fill="#F6F6F7" d="M558 330H574V346H558z"/><path fill="#fff" d="M542 330H558V346H542z"/><path fill="#F6F6F7" d="M622 202H638V218H622z"/><path fill="#fff" d="M606 202H622V218H606z"/><path fill="#F6F6F7" d="M622 234H638V250H622z"/><path fill="#fff" d="M606 234H622V250H606z"/><path fill="#F6F6F7" d="M622 266H638V282H622z"/><path fill="#fff" d="M606 266H622V282H606z"/><path fill="#F6F6F7" d="M622 298H638V314H622z"/><path fill="#fff" d="M606 298H622V314H606z"/><path fill="#F6F6F7" d="M622 330H638V346H622z"/><path fill="#fff" d="M606 330H622V346H606z"/><path fill="#F6F6F7" d="M686 202H702V218H686z"/><path fill="#fff" d="M670 202H686V218H670z"/><path fill="#F6F6F7" d="M686 234H702V250H686z"/><path fill="#fff" d="M670 234H686V250H670z"/><path fill="#F6F6F7" d="M686 266H702V282H686z"/><path fill="#fff" d="M670 266H686V282H670z"/><path fill="#F6F6F7" d="M686 298H702V314H686z"/><path fill="#fff" d="M670 298H686V314H670z"/><path fill="#F6F6F7" d="M686 330H702V346H686z"/><path fill="#fff" d="M670 330H686V346H670z"/><path fill="#F6F6F7" d="M750 202H766V218H750z"/><path fill="#fff" d="M734 202H750V218H734z"/><path fill="#F6F6F7" d="M750 234H766V250H750z"/><path fill="#fff" d="M734 234H750V250H734z"/><path fill="#F6F6F7" d="M750 266H766V282H750z"/><path fill="#fff" d="M734 266H750V282H734z"/><path fill="#F6F6F7" d="M750 298H766V314H750z"/><path fill="#fff" d="M734 298H750V314H734z"/><path fill="#F6F6F7" d="M750 330H766V346H750z"/><path fill="#fff" d="M734 330H750V346H734z"/><path fill="#F6F6F7" d="M814 202H830V218H814z"/><path fill="#fff" d="M798 202H814V218H798z"/><path fill="#F6F6F7" d="M814 234H830V250H814z"/><path fill="#fff" d="M798 234H814V250H798z"/><path fill="#F6F6F7" d="M814 266H830V282H814z"/><path fill="#fff" d="M798 266H814V282H798z"/><path fill="#F6F6F7" d="M814 298H830V314H814z"/><path fill="#fff" d="M798 298H814V314H798z"/><path fill="#F6F6F7" d="M814 330H830V346H814z"/><path fill="#fff" d="M798 330H814V346H798z"/><path fill="#F6F6F7" d="M878 202H894V218H878z"/><path fill="#fff" d="M862 202H878V218H862z"/><path fill="#F6F6F7" d="M878 234H894V250H878z"/><path fill="#fff" d="M862 234H878V250H862z"/><path fill="#F6F6F7" d="M878 266H894V282H878z"/><path fill="#fff" d="M862 266H878V282H862z"/><path fill="#F6F6F7" d="M878 298H894V314H878z"/><path fill="#fff" d="M862 298H878V314H862z"/><path fill="#F6F6F7" d="M878 330H894V346H878z"/><path fill="#fff" d="M862 330H878V346H862z"/><path fill="#F6F6F7" d="M942 202H958V218H942z"/><path fill="#fff" d="M926 202H942V218H926z"/><path fill="#F6F6F7" d="M942 234H958V250H942z"/><path fill="#fff" d="M926 234H942V250H926z"/><path fill="#F6F6F7" d="M942 266H958V282H942z"/><path fill="#fff" d="M926 266H942V282H926z"/><path fill="#F6F6F7" d="M942 298H958V314H942z"/><path fill="#fff" d="M926 298H942V314H926z"/><path fill="#F6F6F7" d="M942 330H958V346H942z"/><path fill="#fff" d="M926 330H942V346H926z"/><path fill="#F6F6F7" d="M318 186H334V202H318z"/><path fill="#fff" d="M334 186H350V202H334z"/><path fill="#F6F6F7" d="M318 218H334V234H318z"/><path fill="#fff" d="M334 218H350V234H334z"/><path fill="#F6F6F7" d="M318 250H334V266H318z"/><path fill="#fff" d="M334 250H350V266H334z"/><path fill="#F6F6F7" d="M318 282H334V298H318z"/><path fill="#fff" d="M334 282H350V298H334z"/><path fill="#F6F6F7" d="M318 314H334V330H318z"/><path fill="#fff" d="M334 314H350V330H334z"/><path fill="#F6F6F7" d="M446 186H462V202H446z"/><path fill="#fff" d="M462 186H478V202H462z"/><path fill="#F6F6F7" d="M446 218H462V234H446z"/><path fill="#fff" d="M462 218H478V234H462z"/><path fill="#F6F6F7" d="M446 250H462V266H446z"/><path fill="#fff" d="M462 250H478V266H462z"/><path fill="#F6F6F7" d="M446 282H462V298H446z"/><path fill="#fff" d="M462 282H478V298H462z"/><path fill="#F6F6F7" d="M446 314H462V330H446z"/><path fill="#fff" d="M462 314H478V330H462z"/><path fill="#F6F6F7" d="M574 186H590V202H574z"/><path fill="#fff" d="M590 186H606V202H590z"/><path fill="#F6F6F7" d="M574 218H590V234H574z"/><path fill="#fff" d="M590 218H606V234H590z"/><path fill="#F6F6F7" d="M574 250H590V266H574z"/><path fill="#fff" d="M590 250H606V266H590z"/><path fill="#F6F6F7" d="M574 282H590V298H574z"/><path fill="#fff" d="M590 282H606V298H590z"/><path fill="#F6F6F7" d="M574 314H590V330H574z"/><path fill="#fff" d="M590 314H606V330H590z"/><path fill="#F6F6F7" d="M702 186H718V202H702z"/><path fill="#fff" d="M718 186H734V202H718z"/><path fill="#F6F6F7" d="M702 218H718V234H702z"/><path fill="#fff" d="M718 218H734V234H718z"/><path fill="#F6F6F7" d="M702 250H718V266H702z"/><path fill="#fff" d="M718 250H734V266H718z"/><path fill="#F6F6F7" d="M702 282H718V298H702z"/><path fill="#fff" d="M718 282H734V298H718z"/><path fill="#F6F6F7" d="M702 314H718V330H702z"/><path fill="#fff" d="M718 314H734V330H718z"/><path fill="#F6F6F7" d="M830 186H846V202H830z"/><path fill="#fff" d="M846 186H862V202H846z"/><path fill="#F6F6F7" d="M830 218H846V234H830z"/><path fill="#fff" d="M846 218H862V234H846z"/><path fill="#F6F6F7" d="M830 250H846V266H830z"/><path fill="#fff" d="M846 250H862V266H846z"/><path fill="#F6F6F7" d="M830 282H846V298H830z"/><path fill="#fff" d="M846 282H862V298H846z"/><path fill="#F6F6F7" d="M830 314H846V330H830z"/><path fill="#fff" d="M846 314H862V330H846z"/><path fill="#F6F6F7" d="M254 186H270V202H254z"/><path fill="#fff" d="M270 186H286V202H270z"/><path fill="#F6F6F7" d="M254 218H270V234H254z"/><path fill="#fff" d="M270 218H286V234H270z"/><path fill="#F6F6F7" d="M254 250H270V266H254z"/><path fill="#fff" d="M270 250H286V266H270z"/><path fill="#F6F6F7" d="M254 282H270V298H254z"/><path fill="#fff" d="M270 282H286V298H270z"/><path fill="#F6F6F7" d="M254 314H270V330H254z"/><path fill="#fff" d="M270 314H286V330H270z"/><path fill="#F6F6F7" d="M382 186H398V202H382z"/><path fill="#fff" d="M398 186H414V202H398z"/><path fill="#F6F6F7" d="M382 218H398V234H382z"/><path fill="#fff" d="M398 218H414V234H398z"/><path fill="#F6F6F7" d="M382 250H398V266H382z"/><path fill="#fff" d="M398 250H414V266H398z"/><path fill="#F6F6F7" d="M382 282H398V298H382z"/><path fill="#fff" d="M398 282H414V298H398z"/><path fill="#F6F6F7" d="M382 314H398V330H382z"/><path fill="#fff" d="M398 314H414V330H398z"/><path fill="#F6F6F7" d="M510 186H526V202H510z"/><path fill="#fff" d="M526 186H542V202H526z"/><path fill="#F6F6F7" d="M510 218H526V234H510z"/><path fill="#fff" d="M526 218H542V234H526z"/><path fill="#F6F6F7" d="M510 250H526V266H510z"/><path fill="#fff" d="M526 250H542V266H526z"/><path fill="#F6F6F7" d="M510 282H526V298H510z"/><path fill="#fff" d="M526 282H542V298H526z"/><path fill="#F6F6F7" d="M510 314H526V330H510z"/><path fill="#fff" d="M526 314H542V330H526z"/><path fill="#F6F6F7" d="M638 186H654V202H638z"/><path fill="#fff" d="M654 186H670V202H654z"/><path fill="#F6F6F7" d="M638 218H654V234H638z"/><path fill="#fff" d="M654 218H670V234H654z"/><path fill="#F6F6F7" d="M638 250H654V266H638z"/><path fill="#fff" d="M654 250H670V266H654z"/><path fill="#F6F6F7" d="M638 282H654V298H638z"/><path fill="#fff" d="M654 282H670V298H654z"/><path fill="#F6F6F7" d="M638 314H654V330H638z"/><path fill="#fff" d="M654 314H670V330H654z"/><path fill="#F6F6F7" d="M766 186H782V202H766z"/><path fill="#fff" d="M782 186H798V202H782z"/><path fill="#F6F6F7" d="M766 218H782V234H766z"/><path fill="#fff" d="M782 218H798V234H782z"/><path fill="#F6F6F7" d="M766 250H782V266H766z"/><path fill="#fff" d="M782 250H798V266H782z"/><path fill="#F6F6F7" d="M766 282H782V298H766z"/><path fill="#fff" d="M782 282H798V298H782z"/><path fill="#F6F6F7" d="M766 314H782V330H766z"/><path fill="#fff" d="M782 314H798V330H782z"/><path fill="#F6F6F7" d="M894 186H910V202H894z"/><path fill="#fff" d="M910 186H926V202H910z"/><path fill="#F6F6F7" d="M894 218H910V234H894z"/><path fill="#fff" d="M910 218H926V234H910z"/><path fill="#F6F6F7" d="M894 250H910V266H894z"/><path fill="#fff" d="M910 250H926V266H910z"/><path fill="#F6F6F7" d="M894 282H910V298H894z"/><path fill="#fff" d="M910 282H926V298H910z"/><path fill="#F6F6F7" d="M894 314H910V330H894z"/><path fill="#fff" d="M910 314H926V330H910z"/><path fill="#F6F6F7" d="M222 186H238V202H222z"/><path fill="#fff" d="M238 186H254V202H238z"/><path fill="#F6F6F7" d="M222 218H238V234H222z"/><path fill="#fff" d="M238 218H254V234H238z"/><path fill="#F6F6F7" d="M222 250H238V266H222z"/><path fill="#fff" d="M238 250H254V266H238z"/><path fill="#F6F6F7" d="M222 282H238V298H222z"/><path fill="#fff" d="M238 282H254V298H238z"/><path fill="#F6F6F7" d="M222 314H238V330H222z"/><path fill="#fff" d="M238 314H254V330H238z"/><path fill="#F6F6F7" d="M350 186H366V202H350z"/><path fill="#fff" d="M366 186H382V202H366z"/><path fill="#F6F6F7" d="M350 218H366V234H350z"/><path fill="#fff" d="M366 218H382V234H366z"/><path fill="#F6F6F7" d="M350 250H366V266H350z"/><path fill="#fff" d="M366 250H382V266H366z"/><path fill="#F6F6F7" d="M350 282H366V298H350z"/><path fill="#fff" d="M366 282H382V298H366z"/><path fill="#F6F6F7" d="M350 314H366V330H350z"/><path fill="#fff" d="M366 314H382V330H366z"/><path fill="#F6F6F7" d="M478 186H494V202H478z"/><path fill="#fff" d="M494 186H510V202H494z"/><path fill="#F6F6F7" d="M478 218H494V234H478z"/><path fill="#fff" d="M494 218H510V234H494z"/><path fill="#F6F6F7" d="M478 250H494V266H478z"/><path fill="#fff" d="M494 250H510V266H494z"/><path fill="#F6F6F7" d="M478 282H494V298H478z"/><path fill="#fff" d="M494 282H510V298H494z"/><path fill="#F6F6F7" d="M478 314H494V330H478z"/><path fill="#fff" d="M494 314H510V330H494z"/><path fill="#F6F6F7" d="M606 186H622V202H606z"/><path fill="#fff" d="M622 186H638V202H622z"/><path fill="#F6F6F7" d="M606 218H622V234H606z"/><path fill="#fff" d="M622 218H638V234H622z"/><path fill="#F6F6F7" d="M606 250H622V266H606z"/><path fill="#fff" d="M622 250H638V266H622z"/><path fill="#F6F6F7" d="M606 282H622V298H606z"/><path fill="#fff" d="M622 282H638V298H622z"/><path fill="#F6F6F7" d="M606 314H622V330H606z"/><path fill="#fff" d="M622 314H638V330H622z"/><path fill="#F6F6F7" d="M734 186H750V202H734z"/><path fill="#fff" d="M750 186H766V202H750z"/><path fill="#F6F6F7" d="M734 218H750V234H734z"/><path fill="#fff" d="M750 218H766V234H750z"/><path fill="#F6F6F7" d="M734 250H750V266H734z"/><path fill="#fff" d="M750 250H766V266H750z"/><path fill="#F6F6F7" d="M734 282H750V298H734z"/><path fill="#fff" d="M750 282H766V298H750z"/><path fill="#F6F6F7" d="M734 314H750V330H734z"/><path fill="#fff" d="M750 314H766V330H750z"/><path fill="#F6F6F7" d="M862 186H878V202H862z"/><path fill="#fff" d="M878 186H894V202H878z"/><path fill="#F6F6F7" d="M862 218H878V234H862z"/><path fill="#fff" d="M878 218H894V234H878z"/><path fill="#F6F6F7" d="M862 250H878V266H862z"/><path fill="#fff" d="M878 250H894V266H878z"/><path fill="#F6F6F7" d="M862 282H878V298H862z"/><path fill="#fff" d="M878 282H894V298H878z"/><path fill="#F6F6F7" d="M862 314H878V330H862z"/><path fill="#fff" d="M878 314H894V330H878z"/><path fill="#F6F6F7" d="M286 186H302V202H286z"/><path fill="#fff" d="M302 186H318V202H302z"/><path fill="#F6F6F7" d="M286 218H302V234H286z"/><path fill="#fff" d="M302 218H318V234H302z"/><path fill="#F6F6F7" d="M286 250H302V266H286z"/><path fill="#fff" d="M302 250H318V266H302z"/><path fill="#F6F6F7" d="M286 282H302V298H286z"/><path fill="#fff" d="M302 282H318V298H302z"/><path fill="#F6F6F7" d="M286 314H302V330H286z"/><path fill="#fff" d="M302 314H318V330H302z"/><path fill="#F6F6F7" d="M414 186H430V202H414z"/><path fill="#fff" d="M430 186H446V202H430z"/><path fill="#F6F6F7" d="M414 218H430V234H414z"/><path fill="#fff" d="M430 218H446V234H430z"/><path fill="#F6F6F7" d="M414 250H430V266H414z"/><path fill="#fff" d="M430 250H446V266H430z"/><path fill="#F6F6F7" d="M414 282H430V298H414z"/><path fill="#fff" d="M430 282H446V298H430z"/><path fill="#F6F6F7" d="M414 314H430V330H414z"/><path fill="#fff" d="M430 314H446V330H430z"/><path fill="#F6F6F7" d="M542 186H558V202H542z"/><path fill="#fff" d="M558 186H574V202H558z"/><path fill="#F6F6F7" d="M542 218H558V234H542z"/><path fill="#fff" d="M558 218H574V234H558z"/><path fill="#F6F6F7" d="M542 250H558V266H542z"/><path fill="#fff" d="M558 250H574V266H558z"/><path fill="#F6F6F7" d="M542 282H558V298H542z"/><path fill="#fff" d="M558 282H574V298H558z"/><path fill="#F6F6F7" d="M542 314H558V330H542z"/><path fill="#fff" d="M558 314H574V330H558z"/><path fill="#F6F6F7" d="M670 186H686V202H670z"/><path fill="#fff" d="M686 186H702V202H686z"/><path fill="#F6F6F7" d="M670 218H686V234H670z"/><path fill="#fff" d="M686 218H702V234H686z"/><path fill="#F6F6F7" d="M670 250H686V266H670z"/><path fill="#fff" d="M686 250H702V266H686z"/><path fill="#F6F6F7" d="M670 282H686V298H670z"/><path fill="#fff" d="M686 282H702V298H686z"/><path fill="#F6F6F7" d="M670 314H686V330H670z"/><path fill="#fff" d="M686 314H702V330H686z"/><path fill="#F6F6F7" d="M798 186H814V202H798z"/><path fill="#fff" d="M814 186H830V202H814z"/><path fill="#F6F6F7" d="M798 218H814V234H798z"/><path fill="#fff" d="M814 218H830V234H814z"/><path fill="#F6F6F7" d="M798 250H814V266H798z"/><path fill="#fff" d="M814 250H830V266H814z"/><path fill="#F6F6F7" d="M798 282H814V298H798z"/><path fill="#fff" d="M814 282H830V298H814z"/><path fill="#F6F6F7" d="M798 314H814V330H798z"/><path fill="#fff" d="M814 314H830V330H814z"/><path fill="#F6F6F7" d="M926 186H942V202H926z"/><path fill="#fff" d="M942 186H958V202H942z"/><path fill="#F6F6F7" d="M926 218H942V234H926z"/><path fill="#fff" d="M942 218H958V234H942z"/><path fill="#F6F6F7" d="M926 250H942V266H926z"/><path fill="#fff" d="M942 250H958V266H942z"/><path fill="#F6F6F7" d="M926 282H942V298H926z"/><path fill="#fff" d="M942 282H958V298H942z"/><path fill="#F6F6F7" d="M926 314H942V330H926z"/><path fill="#fff" d="M942 314H958V330H942z"/><path d="M542.199 275H543.639V265.16H547.783V263.8H538.215V265.16H542.199V275ZM550.195 275.224C551.587 275.224 552.355 274.456 552.739 273.784V275H554.067V267.08H552.707V268.312C552.323 267.64 551.587 266.856 550.195 266.856C548.371 266.856 546.979 268.44 546.979 271.048C546.979 273.656 548.371 275.224 550.195 275.224ZM550.547 274.024C549.283 274.024 548.371 273.272 548.371 271.064C548.371 268.856 549.283 268.056 550.547 268.056C551.843 268.056 552.787 269.064 552.787 271.064C552.787 273.064 551.843 274.024 550.547 274.024ZM560.63 275.224C562.454 275.224 563.846 273.64 563.846 271.032C563.846 268.424 562.454 266.856 560.63 266.856C559.238 266.856 558.502 267.624 558.118 268.296V266.76V263.8H556.758V275H558.086V273.768C558.47 274.44 559.238 275.224 560.63 275.224ZM560.278 274.024C558.982 274.024 558.038 273.016 558.038 271.016C558.038 269.016 558.982 268.056 560.278 268.056C561.542 268.056 562.454 268.808 562.454 271.016C562.454 273.224 561.542 274.024 560.278 274.024ZM570.086 278.12H571.446V275.32V273.768C571.83 274.44 572.566 275.224 573.958 275.224C575.782 275.224 577.174 273.64 577.174 271.032C577.174 268.424 575.782 266.856 573.958 266.856C572.566 266.856 571.798 267.624 571.414 268.296V267.08H570.086V278.12ZM573.606 274.024C572.31 274.024 571.366 273.016 571.366 271.016C571.366 269.016 572.31 268.056 573.606 268.056C574.87 268.056 575.782 268.808 575.782 271.016C575.782 273.224 574.87 274.024 573.606 274.024ZM581.898 275.224C583.29 275.224 584.058 274.456 584.442 273.784V275H585.77V267.08H584.41V268.312C584.026 267.64 583.29 266.856 581.898 266.856C580.074 266.856 578.682 268.44 578.682 271.048C578.682 273.656 580.074 275.224 581.898 275.224ZM582.25 274.024C580.986 274.024 580.074 273.272 580.074 271.064C580.074 268.856 580.986 268.056 582.25 268.056C583.546 268.056 584.49 269.064 584.49 271.064C584.49 273.064 583.546 274.024 582.25 274.024ZM588.461 275H589.821V271.64C589.821 270.472 589.869 268.056 592.045 268.056C593.101 268.056 593.789 268.664 593.789 270.152V275H595.149V269.832C595.149 268.072 594.349 266.856 592.381 266.856C590.669 266.856 589.901 268.072 589.789 268.424V267.08H588.461V275ZM600.719 275.224C602.207 275.224 603.535 274.552 604.127 272.936L602.879 272.504C602.671 273.016 602.111 274.04 600.767 274.04C599.663 274.04 598.559 273.4 598.479 271.4H604.063C604.367 268.808 602.943 266.856 600.639 266.856C598.623 266.856 597.135 268.472 597.135 271.08C597.135 273.768 598.559 275.224 600.719 275.224ZM598.511 270.264C598.623 268.824 599.599 267.976 600.639 267.976C601.727 267.976 602.671 268.76 602.671 270.264H598.511ZM606.242 275H607.602V263.8H606.242V275Z" fill="#6E6E78"/><path d="M530 267C530.552 267 531 267.448 531 268 531 268.552 530.552 269 530 269L530 267zM343.293 268.707C342.902 268.317 342.902 267.683 343.293 267.293L349.657 260.929C350.047 260.538 350.681 260.538 351.071 260.929 351.462 261.319 351.462 261.953 351.071 262.343L345.414 268 351.071 273.657C351.462 274.047 351.462 274.681 351.071 275.071 350.681 275.462 350.047 275.462 349.657 275.071L343.293 268.707zM530 269L344 269 344 267 530 267 530 269zM616 267C615.448 267 615 267.448 615 268 615 268.552 615.448 269 616 269L616 267zM802.707 268.707C803.098 268.317 803.098 267.683 802.707 267.293L796.343 260.929C795.953 260.538 795.319 260.538 794.929 260.929 794.538 261.319 794.538 261.953 794.929 262.343L800.586 268 794.929 273.657C794.538 274.047 794.538 274.681 794.929 275.071 795.319 275.462 795.953 275.462 796.343 275.071L802.707 268.707zM616 269L802 269 802 267 616 267 616 269zM572 250C572 250.552 572.448 251 573 251 573.552 251 574 250.552 574 250L572 250zM573.707 209.293C573.317 208.902 572.683 208.902 572.293 209.293L565.929 215.657C565.538 216.047 565.538 216.681 565.929 217.071 566.319 217.462 566.953 217.462 567.343 217.071L573 211.414 578.657 217.071C579.047 217.462 579.681 217.462 580.071 217.071 580.462 216.681 580.462 216.047 580.071 215.657L573.707 209.293zM574 250L574 210 572 210 572 250 574 250zM572 286C572 285.448 572.448 285 573 285 573.552 285 574 285.448 574 286L572 286zM573.707 326.707C573.317 327.098 572.683 327.098 572.293 326.707L565.929 320.343C565.538 319.953 565.538 319.319 565.929 318.929 566.319 318.538 566.953 318.538 567.343 318.929L573 324.586 578.657 318.929C579.047 318.538 579.681 318.538 580.071 318.929 580.462 319.319 580.462 319.953 580.071 320.343L573.707 326.707zM574 286L574 326 572 326 572 286 574 286zM130 183C129.448 183 129 183.448 129 184 129 184.552 129.448 185 130 185L130 183zM178.707 184.707C179.098 184.317 179.098 183.683 178.707 183.293L172.343 176.929C171.953 176.538 171.319 176.538 170.929 176.929 170.538 177.319 170.538 177.953 170.929 178.343L176.586 184 170.929 189.657C170.538 190.047 170.538 190.681 170.929 191.071 171.319 191.462 171.953 191.462 172.343 191.071L178.707 184.707zM130 185L178 185 178 183 130 183 130 185z" fill="#DA372C"/><path d="M53.4605 189H54.9005V177.8H53.4605V189ZM57.8909 189H59.2509V185.64C59.2509 184.472 59.2989 182.056 61.4749 182.056C62.5309 182.056 63.2189 182.664 63.2189 184.152V189H64.5789V183.832C64.5789 182.072 63.7789 180.856 61.8109 180.856C60.0989 180.856 59.3309 182.072 59.2189 182.424V181.08H57.8909V189ZM69.7805 189.224C71.1725 189.224 71.9405 188.456 72.3245 187.784V189H73.6525V177.8H72.2925V180.76V182.312C71.9085 181.64 71.1725 180.856 69.7805 180.856C67.9565 180.856 66.5645 182.44 66.5645 185.048C66.5645 187.656 67.9565 189.224 69.7805 189.224ZM70.1325 188.024C68.8685 188.024 67.9565 187.272 67.9565 185.064C67.9565 182.856 68.8685 182.056 70.1325 182.056C71.4285 182.056 72.3725 183.064 72.3725 185.064C72.3725 187.064 71.4285 188.024 70.1325 188.024ZM76.296 179.528H77.736V177.8H76.296V179.528ZM76.344 189H77.704V181.08H76.344V189ZM83.5429 189.224C85.3189 189.224 86.4709 188.184 86.9829 186.712L85.7029 186.264C85.4469 187.128 84.8549 188.024 83.5429 188.024C82.2309 188.024 81.2069 187.064 81.2069 185.032C81.2069 183.048 82.2629 182.056 83.5269 182.056C84.6789 182.056 85.2549 182.808 85.5109 183.56L86.7749 183.144C86.4069 181.912 85.3189 180.856 83.5269 180.856C81.3349 180.856 79.7829 182.584 79.7829 185.032C79.7829 187.592 81.2549 189.224 83.5429 189.224ZM91.4211 189.224C92.8131 189.224 93.5811 188.456 93.9651 187.784V189H95.2931V181.08H93.9331V182.312C93.5491 181.64 92.8131 180.856 91.4211 180.856C89.5971 180.856 88.2051 182.44 88.2051 185.048C88.2051 187.656 89.5971 189.224 91.4211 189.224ZM91.7731 188.024C90.5091 188.024 89.5971 187.272 89.5971 185.064C89.5971 182.856 90.5091 182.056 91.7731 182.056C93.0691 182.056 94.0131 183.064 94.0131 185.064C94.0131 187.064 93.0691 188.024 91.7731 188.024ZM100.737 189H102.561V187.8H100.913C100.353 187.8 100.113 187.56 100.113 187V182.232H102.273V181.08H100.113V178.6H98.7526V181.08H96.9126V182.232H98.7526V187.08C98.7526 188.392 99.4246 189 100.737 189ZM107.259 189.224C109.339 189.224 110.939 187.432 110.939 185.048C110.939 182.664 109.403 180.856 107.259 180.856C105.115 180.856 103.579 182.664 103.579 185.048C103.579 187.432 105.179 189.224 107.259 189.224ZM107.259 188.024C105.915 188.024 104.987 187.064 104.987 185.064C104.987 183.064 105.915 182.056 107.259 182.056C108.603 182.056 109.531 183.064 109.531 185.064C109.531 187.064 108.603 188.024 107.259 188.024ZM113 189H114.36V185.368C114.36 183.512 115.096 182.376 116.888 182.376C117.208 182.376 117.48 182.408 117.736 182.456V181.064C117.544 181.016 117.304 180.968 116.92 180.968C115.416 180.968 114.6 182.136 114.344 182.728V181.08H113V189Z" fill="#6E6E78"/><path d="M259 75C259 74.4477 259.448 74 260 74C260.552 74 261 74.4477 261 75L259 75ZM260.707 123.707C260.317 124.098 259.683 124.098 259.293 123.707L252.929 117.343C252.538 116.953 252.538 116.319 252.929 115.929C253.319 115.538 253.953 115.538 254.343 115.929L260 121.586L265.657 115.929C266.047 115.538 266.681 115.538 267.071 115.929C267.462 116.319 267.462 116.953 267.071 117.343L260.707 123.707ZM261 75L261 123L259 123L259 75L261 75Z" fill="#DA372C"/><path d="M225.597 86H227.037V76.16H231.181V74.8H221.613V76.16H225.597V86ZM233.593 86.224C234.985 86.224 235.753 85.456 236.137 84.784V86H237.465V78.08H236.105V79.312C235.721 78.64 234.985 77.856 233.593 77.856C231.769 77.856 230.377 79.44 230.377 82.048C230.377 84.656 231.769 86.224 233.593 86.224ZM233.945 85.024C232.681 85.024 231.769 84.272 231.769 82.064C231.769 79.856 232.681 79.056 233.945 79.056C235.241 79.056 236.185 80.064 236.185 82.064C236.185 84.064 235.241 85.024 233.945 85.024ZM244.029 86.224C245.853 86.224 247.245 84.64 247.245 82.032C247.245 79.424 245.853 77.856 244.029 77.856C242.637 77.856 241.901 78.624 241.517 79.296V77.76V74.8H240.157V86H241.485V84.768C241.869 85.44 242.637 86.224 244.029 86.224ZM243.677 85.024C242.381 85.024 241.437 84.016 241.437 82.016C241.437 80.016 242.381 79.056 243.677 79.056C244.941 79.056 245.853 79.808 245.853 82.016C245.853 84.224 244.941 85.024 243.677 85.024Z" fill="#6E6E78"/><path d="M894 75C894 74.4477 894.448 74 895 74C895.552 74 896 74.4477 896 75L894 75ZM895.707 178.707C895.317 179.098 894.683 179.098 894.293 178.707L887.929 172.343C887.538 171.953 887.538 171.319 887.929 170.929C888.319 170.538 888.953 170.538 889.343 170.929L895 176.586L900.657 170.929C901.047 170.538 901.681 170.538 902.071 170.929C902.462 171.319 902.462 171.953 902.071 172.343L895.707 178.707ZM896 75L896 178L894 178L894 75L896 75Z" fill="#DA372C"/><path d="M807.347 86H808.787V76.16H812.931V74.8H803.363V76.16H807.347V86ZM815.343 86.224C816.735 86.224 817.503 85.456 817.887 84.784V86H819.215V78.08H817.855V79.312C817.471 78.64 816.735 77.856 815.343 77.856C813.519 77.856 812.127 79.44 812.127 82.048C812.127 84.656 813.519 86.224 815.343 86.224ZM815.695 85.024C814.431 85.024 813.519 84.272 813.519 82.064C813.519 79.856 814.431 79.056 815.695 79.056C816.991 79.056 817.935 80.064 817.935 82.064C817.935 84.064 816.991 85.024 815.695 85.024ZM825.779 86.224C827.603 86.224 828.995 84.64 828.995 82.032C828.995 79.424 827.603 77.856 825.779 77.856C824.387 77.856 823.651 78.624 823.267 79.296V77.76V74.8H821.907V86H823.235V84.768C823.619 85.44 824.387 86.224 825.779 86.224ZM825.427 85.024C824.131 85.024 823.187 84.016 823.187 82.016C823.187 80.016 824.131 79.056 825.427 79.056C826.691 79.056 827.603 79.808 827.603 82.016C827.603 84.224 826.691 85.024 825.427 85.024ZM837.859 86.224C839.251 86.224 840.019 85.456 840.403 84.784V86H841.731V74.8H840.371V77.76V79.312C839.987 78.64 839.251 77.856 837.859 77.856C836.035 77.856 834.643 79.44 834.643 82.048C834.643 84.656 836.035 86.224 837.859 86.224ZM838.211 85.024C836.947 85.024 836.035 84.272 836.035 82.064C836.035 79.856 836.947 79.056 838.211 79.056C839.507 79.056 840.451 80.064 840.451 82.064C840.451 84.064 839.507 85.024 838.211 85.024ZM844.374 76.528H845.814V74.8H844.374V76.528ZM844.422 86H845.782V78.08H844.422V86ZM850.181 86H851.877L854.437 78.08H853.045L851.685 82.64L851.045 84.752C850.933 84.384 850.645 83.44 850.389 82.64L848.965 78.08H847.541L850.181 86ZM856.202 76.528H857.642V74.8H856.202V76.528ZM856.25 86H857.61V78.08H856.25V86ZM862.921 86.224C864.313 86.224 865.081 85.456 865.465 84.784V86H866.793V74.8H865.433V77.76V79.312C865.049 78.64 864.313 77.856 862.921 77.856C861.097 77.856 859.705 79.44 859.705 82.048C859.705 84.656 861.097 86.224 862.921 86.224ZM863.273 85.024C862.009 85.024 861.097 84.272 861.097 82.064C861.097 79.856 862.009 79.056 863.273 79.056C864.569 79.056 865.513 80.064 865.513 82.064C865.513 84.064 864.569 85.024 863.273 85.024ZM872.477 86.224C873.965 86.224 875.293 85.552 875.885 83.936L874.637 83.504C874.429 84.016 873.869 85.04 872.525 85.04C871.421 85.04 870.317 84.4 870.237 82.4H875.821C876.125 79.808 874.701 77.856 872.397 77.856C870.381 77.856 868.893 79.472 868.893 82.08C868.893 84.768 870.317 86.224 872.477 86.224ZM870.269 81.264C870.381 79.824 871.357 78.976 872.397 78.976C873.485 78.976 874.429 79.76 874.429 81.264H870.269ZM878 86H879.36V82.368C879.36 80.512 880.096 79.376 881.888 79.376C882.208 79.376 882.48 79.408 882.736 79.456V78.064C882.544 78.016 882.304 77.968 881.92 77.968C880.416 77.968 879.6 79.136 879.344 79.728V78.08H878V86Z" fill="#6E6E78"/><defs><clipPath id="clip0"><path fill="#fff" transform="translate(190 132)" d="M0 0H140V56H0z"/></clipPath></defs></svg>