<svg width="958" height="346" viewBox="0 0 958 346" fill="none" xmlns="http://www.w3.org/2000/svg">
<rect x="242" y="113" width="451" height="120" rx="12" fill="#1D1D21"/>
<path d="M313.273 192.84C325.649 192.84 333.657 184.384 333.657 172.456C333.657 160.584 325.537 151.96 313.273 151.96C300.953 151.96 292.889 160.584 292.889 172.456C292.889 184.384 300.897 192.84 313.273 192.84ZM313.273 186.624C305.265 186.624 300.505 180.576 300.505 172.456C300.505 164.224 305.265 158.176 313.273 158.176C321.281 158.176 325.985 164.224 325.985 172.456C325.985 180.576 321.281 186.624 313.273 186.624ZM340.339 192H347.171V180.24C347.171 173.408 349.691 170.552 355.627 170.552C356.635 170.552 357.643 170.608 358.651 170.776V163.776C358.147 163.664 357.587 163.608 356.803 163.608C350.587 163.608 347.955 168.032 347.059 170.272V164.112H340.339V192ZM373.221 192.84C378.037 192.84 381.061 190.152 382.349 188.08V192H389.013V152.8H382.181V162.992V168.032C380.893 165.96 377.981 163.272 373.221 163.272C366.165 163.272 361.405 169.096 361.405 178.056C361.405 187.016 366.165 192.84 373.221 192.84ZM375.461 187.464C371.485 187.464 368.517 185.056 368.517 178.056C368.517 171.112 371.485 168.648 375.461 168.648C379.605 168.648 382.517 171.784 382.517 178.056C382.517 184.384 379.605 187.464 375.461 187.464ZM409.028 192.84C416.364 192.84 420.284 189.032 422.076 184.72L415.916 182.424C414.908 184.776 413.06 187.464 409.084 187.464C405.5 187.464 402.476 185.392 402.196 179.736H421.908C422.804 170.496 417.82 163.272 408.916 163.272C401.188 163.272 395.42 169.152 395.42 178.056C395.42 187.352 400.796 192.84 409.028 192.84ZM402.42 174.696C402.924 170.664 405.556 168.368 408.916 168.368C412.444 168.368 414.908 170.608 415.132 174.696H402.42ZM428.496 192H435.328V180.24C435.328 173.408 437.848 170.552 443.784 170.552C444.792 170.552 445.8 170.608 446.808 170.776V163.776C446.304 163.664 445.744 163.608 444.96 163.608C438.744 163.608 436.112 168.032 435.216 170.272V164.112H428.496V192ZM474.12 192.84C478.936 192.84 481.96 190.152 483.248 188.08V192H489.912V152.8H483.08V162.992V168.032C481.792 165.96 478.88 163.272 474.12 163.272C467.064 163.272 462.304 169.096 462.304 178.056C462.304 187.016 467.064 192.84 474.12 192.84ZM476.36 187.464C472.384 187.464 469.416 185.056 469.416 178.056C469.416 171.112 472.384 168.648 476.36 168.648C480.504 168.648 483.416 171.784 483.416 178.056C483.416 184.384 480.504 187.464 476.36 187.464ZM510.318 192.84C518.438 192.84 524.374 186.904 524.374 178.056C524.374 169.32 518.494 163.272 510.318 163.272C502.142 163.272 496.262 169.32 496.262 178.056C496.262 186.568 502.198 192.84 510.318 192.84ZM510.318 187.296C506.174 187.296 503.318 184.384 503.318 178.168C503.318 171.952 506.174 168.816 510.318 168.816C514.462 168.816 517.262 171.952 517.262 178.168C517.262 184.384 514.462 187.296 510.318 187.296ZM530.707 192H537.539V179.288C537.539 175.872 537.651 168.984 543.923 168.984C547.003 168.984 548.963 170.776 548.963 174.976V192H555.795V173.464C555.795 167.36 553.051 163.272 546.387 163.272C540.954 163.272 538.267 166.912 537.371 168.536V164.112H530.707V192ZM572.304 192.84C577.792 192.84 580.368 189.256 581.488 187.408V192H588.264V164.112H581.432V177.216C581.432 181.696 580.424 187.128 575.104 187.128C572.136 187.128 570.288 185.392 570.288 181.08V164.112H563.456V182.704C563.456 188.808 566.536 192.84 572.304 192.84ZM606.406 192H614.694V186.4H608.758C606.966 186.4 606.182 185.616 606.182 183.824V169.432H613.574V164.112H606.182V155.32H599.35V164.112H593.302V169.432H599.35V184.888C599.35 189.312 601.87 192 606.406 192ZM630.425 192.784C638.209 192.784 642.745 189.256 642.745 183.824C642.745 178.112 637.593 175.984 633.169 175.144L629.585 174.416C626.225 173.8 625.329 172.904 625.329 171.336C625.329 169.656 626.841 168.2 629.921 168.2C633.393 168.2 635.241 170.328 636.025 172.456L641.793 169.992C640.617 166.856 637.145 163.272 630.145 163.272C623.425 163.272 618.833 166.744 618.833 171.952C618.833 177.384 622.417 179.232 627.849 180.296L631.545 181.024C634.849 181.696 635.689 182.928 635.689 184.496C635.689 186.456 633.953 187.744 630.705 187.744C625.665 187.744 624.321 184.328 623.985 182.76L617.657 184.776C618.889 189.872 624.153 192.784 630.425 192.784Z" fill="white"/>
<path d="M712.733 169.8C714.867 171.4 714.867 174.6 712.733 176.2L693 191L693 155L712.733 169.8Z" fill="#1D1D21"/>
<path d="M792 216C792.552 216 793 215.552 793 215C793 214.448 792.552 214 792 214V216ZM704.293 214.293C703.902 214.683 703.902 215.317 704.293 215.707L710.657 222.071C711.047 222.462 711.681 222.462 712.071 222.071C712.462 221.681 712.462 221.047 712.071 220.657L706.414 215L712.071 209.343C712.462 208.953 712.462 208.319 712.071 207.929C711.681 207.538 711.047 207.538 710.657 207.929L704.293 214.293ZM792 214H705V216H792V214Z" fill="#DA372C"/>
<path d="M802.256 221.68H803.456V220.208C805.728 220.032 806.976 218.72 806.976 216.896C806.976 215.2 805.712 214.24 803.936 213.792L803.456 213.664V209.952C804.752 210.208 805.264 211.2 805.472 211.792L806.8 211.136C806.512 210.192 805.472 208.832 803.456 208.608V207.12H802.256V208.608C800.352 208.832 799.088 210.064 799.088 211.712C799.088 213.568 800.24 214.384 801.888 214.736L802.256 214.816V218.848C801.008 218.576 800.256 217.664 799.888 216.544L798.528 217.2C799.024 218.768 800.288 219.952 802.256 220.192V221.68ZM802.256 213.392C801.008 213.072 800.464 212.592 800.464 211.632C800.464 210.72 801.136 210.032 802.256 209.904V211.968V213.392ZM803.456 218.912V216.848V215.088C804.848 215.408 805.52 216.032 805.52 217.024C805.52 218.064 804.768 218.784 803.456 218.912ZM811.672 220.224C813.672 220.224 814.824 219.28 814.824 217.792C814.824 215.984 812.952 215.504 812.152 215.344L811.24 215.168C810.104 214.944 809.848 214.624 809.848 214.096C809.848 213.52 810.36 212.976 811.464 212.976C812.808 212.976 813.256 213.824 813.448 214.352L814.68 213.904C814.36 212.864 813.432 211.856 811.464 211.856C809.912 211.856 808.568 212.816 808.568 214.24C808.568 215.744 809.72 216.24 811.032 216.496L811.944 216.672C813.096 216.896 813.464 217.312 813.464 217.904C813.464 218.656 812.824 219.056 811.672 219.056C810.424 219.056 809.784 218.464 809.544 217.52L808.232 217.952C808.584 219.472 810.056 220.224 811.672 220.224ZM816.86 223.12H818.22V220.32V218.768C818.604 219.44 819.34 220.224 820.732 220.224C822.556 220.224 823.948 218.64 823.948 216.032C823.948 213.424 822.556 211.856 820.732 211.856C819.34 211.856 818.572 212.624 818.188 213.296V212.08H816.86V223.12ZM820.38 219.024C819.084 219.024 818.14 218.016 818.14 216.016C818.14 214.016 819.084 213.056 820.38 213.056C821.644 213.056 822.556 213.808 822.556 216.016C822.556 218.224 821.644 219.024 820.38 219.024ZM828.671 220.224C830.063 220.224 830.831 219.456 831.215 218.784V220H832.543V212.08H831.183V213.312C830.799 212.64 830.063 211.856 828.671 211.856C826.847 211.856 825.455 213.44 825.455 216.048C825.455 218.656 826.847 220.224 828.671 220.224ZM829.023 219.024C827.759 219.024 826.847 218.272 826.847 216.064C826.847 213.856 827.759 213.056 829.023 213.056C830.319 213.056 831.263 214.064 831.263 216.064C831.263 218.064 830.319 219.024 829.023 219.024ZM838.387 220.224C840.163 220.224 841.315 219.184 841.827 217.712L840.547 217.264C840.291 218.128 839.699 219.024 838.387 219.024C837.075 219.024 836.051 218.064 836.051 216.032C836.051 214.048 837.107 213.056 838.371 213.056C839.523 213.056 840.099 213.808 840.355 214.56L841.619 214.144C841.251 212.912 840.163 211.856 838.371 211.856C836.179 211.856 834.627 213.584 834.627 216.032C834.627 218.592 836.099 220.224 838.387 220.224ZM843.593 210.528H845.033V208.8H843.593V210.528ZM843.641 220H845.001V212.08H843.641V220ZM847.688 220H849.048V216.64C849.048 215.472 849.096 213.056 851.272 213.056C852.328 213.056 853.016 213.664 853.016 215.152V220H854.376V214.832C854.376 213.072 853.576 211.856 851.608 211.856C849.896 211.856 849.128 213.072 849.016 213.424V212.08H847.688V220ZM858.233 223.12H861.929C863.273 223.12 864.409 222.416 864.409 220.944C864.409 219.616 863.417 218.752 861.897 218.752H858.441C857.881 218.752 857.769 218.464 857.769 218.208C857.769 217.92 858.057 217.616 858.489 217.424C858.921 217.68 859.417 217.728 859.961 217.728C861.721 217.728 862.921 216.56 863.049 214.768L863.081 214.336C863.145 213.408 863.417 213.232 864.137 213.232H864.745V212.08H863.897C863.129 212.08 862.761 212.608 862.601 213.216C862.265 212.656 861.433 211.856 859.961 211.856C858.137 211.856 856.809 213.152 856.809 214.8C856.809 215.792 857.241 216.512 857.689 216.912C857.177 217.28 856.521 217.808 856.521 218.592C856.521 219.216 856.777 219.584 857.225 219.856C856.745 220.128 856.169 220.72 856.169 221.52C856.169 222.448 856.713 223.12 858.233 223.12ZM859.961 216.608C858.889 216.608 858.185 215.888 858.185 214.8C858.185 213.712 858.889 212.976 859.961 212.976C861.033 212.976 861.737 213.712 861.737 214.8C861.737 215.888 861.033 216.608 859.961 216.608ZM858.697 221.904C857.865 221.904 857.417 221.728 857.417 221.072C857.417 220.528 857.769 220.176 858.041 220H861.785C862.409 220 863.033 220.128 863.033 220.944C863.033 221.76 862.409 221.904 861.785 221.904H858.697ZM865.901 215.776H870.317V214.336H865.901V215.776ZM871.367 220H872.855L873.863 218.496L874.871 216.976C875.095 217.328 875.271 217.6 875.863 218.496L876.855 220H878.487L875.735 215.968L878.327 212.08H876.823L875.959 213.44C875.351 214.384 875.159 214.672 874.935 214.992C874.743 214.672 874.567 214.384 873.975 213.44L873.111 212.08H871.527L874.087 215.952L871.367 220ZM882.813 220.224C884.813 220.224 885.965 219.28 885.965 217.792C885.965 215.984 884.093 215.504 883.293 215.344L882.381 215.168C881.245 214.944 880.989 214.624 880.989 214.096C880.989 213.52 881.501 212.976 882.605 212.976C883.949 212.976 884.397 213.824 884.589 214.352L885.821 213.904C885.501 212.864 884.573 211.856 882.605 211.856C881.053 211.856 879.709 212.816 879.709 214.24C879.709 215.744 880.861 216.24 882.173 216.496L883.085 216.672C884.237 216.896 884.605 217.312 884.605 217.904C884.605 218.656 883.965 219.056 882.813 219.056C881.565 219.056 880.925 218.464 880.685 217.52L879.373 217.952C879.725 219.472 881.197 220.224 882.813 220.224Z" fill="#6E6E78"/>
<path d="M182 128C181.448 128 181 128.448 181 129C181 129.552 181.448 130 182 130V128ZM257.707 129.707C258.098 129.317 258.098 128.683 257.707 128.293L251.343 121.929C250.953 121.538 250.319 121.538 249.929 121.929C249.538 122.319 249.538 122.953 249.929 123.343L255.586 129L249.929 134.657C249.538 135.047 249.538 135.681 249.929 136.071C250.319 136.462 250.953 136.462 251.343 136.071L257.707 129.707ZM182 130H257V128H182V130Z" fill="#DA372C"/>
<path d="M131.429 134H138.901V132.608H132.869V122.8H131.429V134ZM143.031 134.224C144.423 134.224 145.191 133.456 145.575 132.784V134H146.903V126.08H145.543V127.312C145.159 126.64 144.423 125.856 143.031 125.856C141.207 125.856 139.815 127.44 139.815 130.048C139.815 132.656 141.207 134.224 143.031 134.224ZM143.383 133.024C142.119 133.024 141.207 132.272 141.207 130.064C141.207 127.856 142.119 127.056 143.383 127.056C144.679 127.056 145.623 128.064 145.623 130.064C145.623 132.064 144.679 133.024 143.383 133.024ZM153.466 134.224C155.29 134.224 156.682 132.64 156.682 130.032C156.682 127.424 155.29 125.856 153.466 125.856C152.074 125.856 151.338 126.624 150.954 127.296V125.76V122.8H149.594V134H150.922V132.768C151.306 133.44 152.074 134.224 153.466 134.224ZM153.114 133.024C151.818 133.024 150.874 132.016 150.874 130.016C150.874 128.016 151.818 127.056 153.114 127.056C154.378 127.056 155.29 127.808 155.29 130.016C155.29 132.224 154.378 133.024 153.114 133.024ZM161.774 134.224C163.262 134.224 164.59 133.552 165.182 131.936L163.934 131.504C163.726 132.016 163.166 133.04 161.822 133.04C160.718 133.04 159.614 132.4 159.534 130.4H165.118C165.422 127.808 163.998 125.856 161.694 125.856C159.678 125.856 158.19 127.472 158.19 130.08C158.19 132.768 159.614 134.224 161.774 134.224ZM159.566 129.264C159.678 127.824 160.654 126.976 161.694 126.976C162.782 126.976 163.726 127.76 163.726 129.264H159.566ZM167.297 134H168.657V122.8H167.297V134Z" fill="#6E6E78"/>
<path d="M182 202C181.448 202 181 202.448 181 203C181 203.552 181.448 204 182 204L182 202ZM283.707 203.707C284.098 203.317 284.098 202.683 283.707 202.293L277.343 195.929C276.953 195.538 276.319 195.538 275.929 195.929C275.538 196.319 275.538 196.953 275.929 197.343L281.586 203L275.929 208.657C275.538 209.047 275.538 209.681 275.929 210.071C276.319 210.462 276.953 210.462 277.343 210.071L283.707 203.707ZM182 204L283 204L283 202L182 202L182 204Z" fill="#DA372C"/>
<path d="M133.408 208H135.568L139.184 196.8H137.6L135.2 204.464L134.496 206.688L133.808 204.448L131.44 196.8H129.84L133.408 208ZM143.031 208.224C144.423 208.224 145.191 207.456 145.575 206.784V208H146.903V200.08H145.543V201.312C145.159 200.64 144.423 199.856 143.031 199.856C141.207 199.856 139.815 201.44 139.815 204.048C139.815 206.656 141.207 208.224 143.031 208.224ZM143.383 207.024C142.119 207.024 141.207 206.272 141.207 204.064C141.207 201.856 142.119 201.056 143.383 201.056C144.679 201.056 145.623 202.064 145.623 204.064C145.623 206.064 144.679 207.024 143.383 207.024ZM149.594 208H150.954V196.8H149.594V208ZM156.169 208.224C157.817 208.224 158.569 207.056 158.809 206.624V208H160.137V200.08H158.777V203.44C158.777 204.656 158.745 207.024 156.601 207.024C155.561 207.024 154.889 206.416 154.889 204.928V200.08H153.529V205.248C153.529 207.008 154.313 208.224 156.169 208.224ZM165.82 208.224C167.308 208.224 168.636 207.552 169.228 205.936L167.98 205.504C167.772 206.016 167.212 207.04 165.868 207.04C164.764 207.04 163.66 206.4 163.58 204.4H169.164C169.468 201.808 168.044 199.856 165.74 199.856C163.724 199.856 162.236 201.472 162.236 204.08C162.236 206.768 163.66 208.224 165.82 208.224ZM163.612 203.264C163.724 201.824 164.7 200.976 165.74 200.976C166.828 200.976 167.772 201.76 167.772 203.264H163.612Z" fill="#6E6E78"/>
<path d="M518.644 64H520.084V54.16H524.228V52.8H514.66V54.16H518.644V64ZM527.041 64.224C529.121 64.224 530.721 62.432 530.721 60.048C530.721 57.664 529.185 55.856 527.041 55.856C524.897 55.856 523.361 57.664 523.361 60.048C523.361 62.432 524.961 64.224 527.041 64.224ZM527.041 63.024C525.697 63.024 524.769 62.064 524.769 60.064C524.769 58.064 525.697 57.056 527.041 57.056C528.385 57.056 529.313 58.064 529.313 60.064C529.313 62.064 528.385 63.024 527.041 63.024ZM535.838 64.224C537.918 64.224 539.517 62.432 539.517 60.048C539.517 57.664 537.982 55.856 535.838 55.856C533.694 55.856 532.158 57.664 532.158 60.048C532.158 62.432 533.758 64.224 535.838 64.224ZM535.838 63.024C534.494 63.024 533.566 62.064 533.566 60.064C533.566 58.064 534.494 57.056 535.838 57.056C537.182 57.056 538.11 58.064 538.11 60.064C538.11 62.064 537.182 63.024 535.838 63.024ZM541.578 64H542.938V52.8H541.578V64ZM548.377 64H550.201V62.8H548.553C547.993 62.8 547.753 62.56 547.753 62V57.232H549.913V56.08H547.753V53.6H546.393V56.08H544.553V57.232H546.393V62.08C546.393 63.392 547.065 64 548.377 64ZM551.874 54.528H553.314V52.8H551.874V54.528ZM551.922 64H553.282V56.08H551.922V64ZM555.969 67.12H557.329V64.32V62.768C557.713 63.44 558.449 64.224 559.841 64.224C561.665 64.224 563.057 62.64 563.057 60.032C563.057 57.424 561.665 55.856 559.841 55.856C558.449 55.856 557.681 56.624 557.297 57.296V56.08H555.969V67.12ZM559.489 63.024C558.193 63.024 557.249 62.016 557.249 60.016C557.249 58.016 558.193 57.056 559.489 57.056C560.753 57.056 561.665 57.808 561.665 60.016C561.665 62.224 560.753 63.024 559.489 63.024ZM572.449 64.224C574.225 64.224 575.377 63.184 575.889 61.712L574.609 61.264C574.353 62.128 573.761 63.024 572.449 63.024C571.137 63.024 570.113 62.064 570.113 60.032C570.113 58.048 571.169 57.056 572.433 57.056C573.585 57.056 574.161 57.808 574.417 58.56L575.681 58.144C575.313 56.912 574.225 55.856 572.433 55.856C570.241 55.856 568.689 57.584 568.689 60.032C568.689 62.592 570.161 64.224 572.449 64.224ZM580.759 64.224C582.839 64.224 584.439 62.432 584.439 60.048C584.439 57.664 582.903 55.856 580.759 55.856C578.615 55.856 577.079 57.664 577.079 60.048C577.079 62.432 578.679 64.224 580.759 64.224ZM580.759 63.024C579.415 63.024 578.487 62.064 578.487 60.064C578.487 58.064 579.415 57.056 580.759 57.056C582.103 57.056 583.031 58.064 583.031 60.064C583.031 62.064 582.103 63.024 580.759 63.024ZM586.5 64H587.86V60.64C587.86 59.472 587.908 57.056 590.084 57.056C591.14 57.056 591.828 57.664 591.828 59.152V64H593.188V58.832C593.188 57.072 592.388 55.856 590.42 55.856C588.708 55.856 587.94 57.072 587.828 57.424V56.08H586.5V64ZM598.518 64H600.342V62.8H598.694C598.134 62.8 597.894 62.56 597.894 62V57.232H600.054V56.08H597.894V53.6H596.534V56.08H594.694V57.232H596.534V62.08C596.534 63.392 597.206 64 598.518 64ZM604.609 64.224C606.001 64.224 606.769 63.456 607.153 62.784V64H608.481V56.08H607.121V57.312C606.737 56.64 606.001 55.856 604.609 55.856C602.785 55.856 601.393 57.44 601.393 60.048C601.393 62.656 602.785 64.224 604.609 64.224ZM604.961 63.024C603.697 63.024 602.785 62.272 602.785 60.064C602.785 57.856 603.697 57.056 604.961 57.056C606.257 57.056 607.201 58.064 607.201 60.064C607.201 62.064 606.257 63.024 604.961 63.024ZM611.124 54.528H612.564V52.8H611.124V54.528ZM611.172 64H612.532V56.08H611.172V64ZM615.219 64H616.579V60.64C616.579 59.472 616.627 57.056 618.803 57.056C619.859 57.056 620.547 57.664 620.547 59.152V64H621.907V58.832C621.907 57.072 621.107 55.856 619.139 55.856C617.427 55.856 616.659 57.072 616.547 57.424V56.08H615.219V64ZM627.477 64.224C628.965 64.224 630.293 63.552 630.885 61.936L629.637 61.504C629.429 62.016 628.869 63.04 627.525 63.04C626.421 63.04 625.317 62.4 625.237 60.4H630.821C631.125 57.808 629.701 55.856 627.397 55.856C625.381 55.856 623.893 57.472 623.893 60.08C623.893 62.768 625.317 64.224 627.477 64.224ZM625.269 59.264C625.381 57.824 626.357 56.976 627.397 56.976C628.485 56.976 629.429 57.76 629.429 59.264H625.269ZM633 64H634.36V60.368C634.36 58.512 635.096 57.376 636.888 57.376C637.208 57.376 637.48 57.408 637.736 57.456V56.064C637.544 56.016 637.304 55.968 636.92 55.968C635.416 55.968 634.6 57.136 634.344 57.728V56.08H633V64Z" fill="#6E6E78"/>
<path d="M651 53C651 52.4477 650.552 52 650 52C649.448 52 649 52.4477 649 53L651 53ZM649.293 129.707C649.683 130.098 650.317 130.098 650.707 129.707L657.071 123.343C657.462 122.953 657.462 122.319 657.071 121.929C656.681 121.538 656.047 121.538 655.657 121.929L650 127.586L644.343 121.929C643.953 121.538 643.319 121.538 642.929 121.929C642.538 122.319 642.538 122.953 642.929 123.343L649.293 129.707ZM649 53L649 129L651 129L651 53L649 53Z" fill="#DA372C"/>
<path d="M265 53C265 52.4477 264.552 52 264 52C263.448 52 263 52.4477 263 53L265 53ZM263.293 111.707C263.683 112.098 264.317 112.098 264.707 111.707L271.071 105.343C271.462 104.953 271.462 104.319 271.071 103.929C270.681 103.538 270.047 103.538 269.657 103.929L264 109.586L258.343 103.929C257.953 103.538 257.319 103.538 256.929 103.929C256.538 104.319 256.538 104.953 256.929 105.343L263.293 111.707ZM263 53L263 111L265 111L265 53L263 53Z" fill="#DA372C"/>
<path d="M168.631 65.68H169.831V64.208C172.103 64.032 173.351 62.72 173.351 60.896C173.351 59.2 172.087 58.24 170.311 57.792L169.831 57.664V53.952C171.127 54.208 171.639 55.2 171.847 55.792L173.175 55.136C172.887 54.192 171.847 52.832 169.831 52.608V51.12H168.631V52.608C166.727 52.832 165.463 54.064 165.463 55.712C165.463 57.568 166.615 58.384 168.263 58.736L168.631 58.816V62.848C167.383 62.576 166.631 61.664 166.263 60.544L164.903 61.2C165.399 62.768 166.663 63.952 168.631 64.192V65.68ZM168.631 57.392C167.383 57.072 166.839 56.592 166.839 55.632C166.839 54.72 167.511 54.032 168.631 53.904V55.968V57.392ZM169.831 62.912V60.848V59.088C171.223 59.408 171.895 60.032 171.895 61.024C171.895 62.064 171.143 62.784 169.831 62.912ZM178.047 64.224C180.047 64.224 181.199 63.28 181.199 61.792C181.199 59.984 179.327 59.504 178.527 59.344L177.615 59.168C176.479 58.944 176.223 58.624 176.223 58.096C176.223 57.52 176.735 56.976 177.839 56.976C179.183 56.976 179.631 57.824 179.823 58.352L181.055 57.904C180.735 56.864 179.807 55.856 177.839 55.856C176.287 55.856 174.943 56.816 174.943 58.24C174.943 59.744 176.095 60.24 177.407 60.496L178.319 60.672C179.471 60.896 179.839 61.312 179.839 61.904C179.839 62.656 179.199 63.056 178.047 63.056C176.799 63.056 176.159 62.464 175.919 61.52L174.607 61.952C174.959 63.472 176.431 64.224 178.047 64.224ZM183.235 67.12H184.595V64.32V62.768C184.979 63.44 185.715 64.224 187.107 64.224C188.931 64.224 190.323 62.64 190.323 60.032C190.323 57.424 188.931 55.856 187.107 55.856C185.715 55.856 184.947 56.624 184.563 57.296V56.08H183.235V67.12ZM186.755 63.024C185.459 63.024 184.515 62.016 184.515 60.016C184.515 58.016 185.459 57.056 186.755 57.056C188.019 57.056 188.931 57.808 188.931 60.016C188.931 62.224 188.019 63.024 186.755 63.024ZM195.046 64.224C196.438 64.224 197.206 63.456 197.59 62.784V64H198.918V56.08H197.558V57.312C197.174 56.64 196.438 55.856 195.046 55.856C193.222 55.856 191.83 57.44 191.83 60.048C191.83 62.656 193.222 64.224 195.046 64.224ZM195.398 63.024C194.134 63.024 193.222 62.272 193.222 60.064C193.222 57.856 194.134 57.056 195.398 57.056C196.694 57.056 197.638 58.064 197.638 60.064C197.638 62.064 196.694 63.024 195.398 63.024ZM204.762 64.224C206.538 64.224 207.69 63.184 208.202 61.712L206.922 61.264C206.666 62.128 206.074 63.024 204.762 63.024C203.45 63.024 202.426 62.064 202.426 60.032C202.426 58.048 203.482 57.056 204.746 57.056C205.898 57.056 206.474 57.808 206.73 58.56L207.994 58.144C207.626 56.912 206.538 55.856 204.746 55.856C202.554 55.856 201.002 57.584 201.002 60.032C201.002 62.592 202.474 64.224 204.762 64.224ZM209.968 54.528H211.408V52.8H209.968V54.528ZM210.016 64H211.376V56.08H210.016V64ZM214.063 64H215.423V60.64C215.423 59.472 215.471 57.056 217.647 57.056C218.703 57.056 219.391 57.664 219.391 59.152V64H220.751V58.832C220.751 57.072 219.951 55.856 217.983 55.856C216.271 55.856 215.503 57.072 215.391 57.424V56.08H214.063V64ZM224.608 67.12H228.304C229.648 67.12 230.784 66.416 230.784 64.944C230.784 63.616 229.792 62.752 228.272 62.752H224.816C224.256 62.752 224.144 62.464 224.144 62.208C224.144 61.92 224.432 61.616 224.864 61.424C225.296 61.68 225.792 61.728 226.336 61.728C228.096 61.728 229.296 60.56 229.424 58.768L229.456 58.336C229.52 57.408 229.792 57.232 230.512 57.232H231.12V56.08H230.272C229.504 56.08 229.136 56.608 228.976 57.216C228.64 56.656 227.808 55.856 226.336 55.856C224.512 55.856 223.184 57.152 223.184 58.8C223.184 59.792 223.616 60.512 224.064 60.912C223.552 61.28 222.896 61.808 222.896 62.592C222.896 63.216 223.152 63.584 223.6 63.856C223.12 64.128 222.544 64.72 222.544 65.52C222.544 66.448 223.088 67.12 224.608 67.12ZM226.336 60.608C225.264 60.608 224.56 59.888 224.56 58.8C224.56 57.712 225.264 56.976 226.336 56.976C227.408 56.976 228.112 57.712 228.112 58.8C228.112 59.888 227.408 60.608 226.336 60.608ZM225.072 65.904C224.24 65.904 223.792 65.728 223.792 65.072C223.792 64.528 224.144 64.176 224.416 64H228.16C228.784 64 229.408 64.128 229.408 64.944C229.408 65.76 228.784 65.904 228.16 65.904H225.072ZM232.276 59.776H236.692V58.336H232.276V59.776ZM239.141 64H240.501V60.32C240.501 59.184 240.597 57.072 242.533 57.072C243.589 57.072 244.293 57.616 244.293 59.152V64H245.621V60.32C245.621 59.184 245.669 57.072 247.669 57.072C248.725 57.072 249.413 57.616 249.413 59.152V64H250.773V58.752C250.773 56.912 249.813 55.856 248.005 55.856C246.325 55.856 245.621 56.896 245.349 57.552C244.949 56.48 244.021 55.856 242.853 55.856C241.429 55.856 240.757 56.768 240.469 57.28V56.08H239.141V64Z" fill="#6E6E78"/>
<path d="M487 53C487 52.4477 486.552 52 486 52C485.448 52 485 52.4477 485 53H487ZM485.293 141.707C485.683 142.098 486.317 142.098 486.707 141.707L493.071 135.343C493.462 134.953 493.462 134.319 493.071 133.929C492.681 133.538 492.047 133.538 491.657 133.929L486 139.586L480.343 133.929C479.953 133.538 479.319 133.538 478.929 133.929C478.538 134.319 478.538 134.953 478.929 135.343L485.293 141.707ZM485 53V141H487V53H485Z" fill="#DA372C"/>
<path d="M367.925 64H369.365V54.16H373.509V52.8H363.941V54.16H367.925V64ZM376.322 64.224C378.402 64.224 380.002 62.432 380.002 60.048C380.002 57.664 378.466 55.856 376.322 55.856C374.178 55.856 372.642 57.664 372.642 60.048C372.642 62.432 374.242 64.224 376.322 64.224ZM376.322 63.024C374.978 63.024 374.05 62.064 374.05 60.064C374.05 58.064 374.978 57.056 376.322 57.056C377.666 57.056 378.594 58.064 378.594 60.064C378.594 62.064 377.666 63.024 376.322 63.024ZM385.119 64.224C387.199 64.224 388.799 62.432 388.799 60.048C388.799 57.664 387.263 55.856 385.119 55.856C382.975 55.856 381.439 57.664 381.439 60.048C381.439 62.432 383.039 64.224 385.119 64.224ZM385.119 63.024C383.775 63.024 382.847 62.064 382.847 60.064C382.847 58.064 383.775 57.056 385.119 57.056C386.463 57.056 387.391 58.064 387.391 60.064C387.391 62.064 386.463 63.024 385.119 63.024ZM390.86 64H392.22V52.8H390.86V64ZM397.659 64H399.483V62.8H397.835C397.275 62.8 397.035 62.56 397.035 62V57.232H399.195V56.08H397.035V53.6H395.674V56.08H393.835V57.232H395.674V62.08C395.674 63.392 396.347 64 397.659 64ZM401.155 54.528H402.595V52.8H401.155V54.528ZM401.203 64H402.563V56.08H401.203V64ZM405.25 67.12H406.61V64.32V62.768C406.994 63.44 407.73 64.224 409.122 64.224C410.946 64.224 412.338 62.64 412.338 60.032C412.338 57.424 410.946 55.856 409.122 55.856C407.73 55.856 406.962 56.624 406.578 57.296V56.08H405.25V67.12ZM408.77 63.024C407.474 63.024 406.53 62.016 406.53 60.016C406.53 58.016 407.474 57.056 408.77 57.056C410.034 57.056 410.946 57.808 410.946 60.016C410.946 62.224 410.034 63.024 408.77 63.024ZM421.73 64.224C423.506 64.224 424.658 63.184 425.17 61.712L423.89 61.264C423.634 62.128 423.042 63.024 421.73 63.024C420.418 63.024 419.394 62.064 419.394 60.032C419.394 58.048 420.45 57.056 421.714 57.056C422.866 57.056 423.442 57.808 423.698 58.56L424.962 58.144C424.594 56.912 423.506 55.856 421.714 55.856C419.522 55.856 417.97 57.584 417.97 60.032C417.97 62.592 419.442 64.224 421.73 64.224ZM430.041 64.224C432.121 64.224 433.721 62.432 433.721 60.048C433.721 57.664 432.185 55.856 430.041 55.856C427.897 55.856 426.361 57.664 426.361 60.048C426.361 62.432 427.961 64.224 430.041 64.224ZM430.041 63.024C428.697 63.024 427.769 62.064 427.769 60.064C427.769 58.064 428.697 57.056 430.041 57.056C431.385 57.056 432.313 58.064 432.313 60.064C432.313 62.064 431.385 63.024 430.041 63.024ZM435.782 64H437.142V60.64C437.142 59.472 437.19 57.056 439.366 57.056C440.422 57.056 441.11 57.664 441.11 59.152V64H442.47V58.832C442.47 57.072 441.67 55.856 439.702 55.856C437.99 55.856 437.222 57.072 437.11 57.424V56.08H435.782V64ZM447.799 64H449.623V62.8H447.975C447.415 62.8 447.175 62.56 447.175 62V57.232H449.335V56.08H447.175V53.6H445.815V56.08H443.975V57.232H445.815V62.08C445.815 63.392 446.487 64 447.799 64ZM454.258 64.224C455.746 64.224 457.074 63.552 457.666 61.936L456.418 61.504C456.21 62.016 455.65 63.04 454.306 63.04C453.202 63.04 452.098 62.4 452.018 60.4H457.602C457.906 57.808 456.482 55.856 454.178 55.856C452.162 55.856 450.674 57.472 450.674 60.08C450.674 62.768 452.098 64.224 454.258 64.224ZM452.05 59.264C452.162 57.824 453.138 56.976 454.178 56.976C455.266 56.976 456.21 57.76 456.21 59.264H452.05ZM459.782 64H461.142V60.64C461.142 59.472 461.19 57.056 463.366 57.056C464.422 57.056 465.11 57.664 465.11 59.152V64H466.47V58.832C466.47 57.072 465.67 55.856 463.702 55.856C461.99 55.856 461.222 57.072 461.11 57.424V56.08H459.782V64ZM471.799 64H473.623V62.8H471.975C471.415 62.8 471.175 62.56 471.175 62V57.232H473.335V56.08H471.175V53.6H469.815V56.08H467.975V57.232H469.815V62.08C469.815 63.392 470.487 64 471.799 64Z" fill="#6E6E78"/>
</svg>
