<svg width="958" height="346" viewBox="0 0 958 346" fill="none" xmlns="http://www.w3.org/2000/svg">
<path d="M310.32 194H318.96L333.424 149.2H327.088L317.488 179.856L314.672 188.752L311.92 179.792L302.448 149.2H296.048L310.32 194ZM339.997 156.112H345.757V149.2H339.997V156.112ZM340.189 194H345.629V162.32H340.189V194ZM368.344 194.896C374.296 194.896 379.608 192.208 381.976 185.744L376.984 184.016C376.152 186.064 373.912 190.16 368.536 190.16C364.12 190.16 359.704 187.6 359.384 179.6H381.72C382.936 169.232 377.24 161.424 368.024 161.424C359.96 161.424 354.008 167.888 354.008 178.32C354.008 189.072 359.704 194.896 368.344 194.896ZM359.512 175.056C359.96 169.296 363.864 165.904 368.024 165.904C372.376 165.904 376.152 169.04 376.152 175.056H359.512ZM397.095 194H403.239L408.231 178.384C410.151 172.368 410.791 170.384 411.431 168.464L414.567 178.384L419.431 194H425.767L436.519 162.32H430.759L425.767 178.128C423.911 183.952 423.079 186.512 422.567 187.984L420.071 179.856L414.631 162.32H408.359L403.431 178.128L400.359 187.984C399.847 186.256 399.207 184.208 397.287 178.128L392.359 162.32H386.663L397.095 194ZM458.876 194H464.316V149.2H458.876V194ZM483.256 194.896C488.184 194.896 491.192 192.784 493.56 189.2C493.944 191.824 494.648 194 499.448 194H503.608V189.2H500.28C498.808 189.2 498.424 188.816 498.424 187.344V172.304C498.424 165.776 494.52 161.424 486.072 161.424C477.816 161.424 473.464 165.904 472.312 170.128L477.624 172.048C478.456 169.68 480.184 166.224 486.008 166.224C490.872 166.224 492.984 168.528 492.984 172.368V173.264C482.68 174.096 473.016 177.104 473.016 185.808C473.016 191.44 476.984 194.896 483.256 194.896ZM484.536 190.288C480.568 190.288 478.648 188.368 478.648 185.36C478.648 180.176 485.24 178.192 492.984 177.36V180.88C492.984 187.472 488.696 190.288 484.536 190.288ZM519.551 194.896C526.143 194.896 529.151 190.224 530.111 188.496V194H535.423V162.32H529.983V175.76C529.983 180.624 529.855 190.096 521.279 190.096C517.119 190.096 514.431 187.664 514.431 181.712V162.32H508.991V182.992C508.991 190.032 512.127 194.896 519.551 194.896ZM546.189 194H551.629V180.56C551.629 175.888 551.821 166.224 560.525 166.224C564.749 166.224 567.501 168.656 567.501 174.608V194H572.941V173.328C572.941 166.288 569.741 161.424 561.869 161.424C555.021 161.424 551.949 166.288 551.501 167.696V162.32H546.189V194ZM595.859 194.896C602.963 194.896 607.571 190.736 609.619 184.848L604.499 183.056C603.475 186.512 601.107 190.096 595.859 190.096C590.611 190.096 586.515 186.256 586.515 178.128C586.515 170.192 590.739 166.224 595.795 166.224C600.403 166.224 602.707 169.232 603.731 172.24L608.787 170.576C607.315 165.648 602.963 161.424 595.795 161.424C587.027 161.424 580.819 168.336 580.819 178.128C580.819 188.368 586.707 194.896 595.859 194.896ZM616.876 194H622.316V180.56C622.316 175.888 622.508 166.224 631.212 166.224C635.436 166.224 638.188 168.656 638.188 174.608V194H643.628V173.328C643.628 166.288 640.172 161.424 632.94 161.424C625.452 161.424 622.764 166.288 622.316 167.696V161.04V149.2H616.876V194ZM680.997 194.896C686.565 194.896 689.637 191.824 691.173 189.136V194H696.485V149.2H691.045V161.04V167.248C689.509 164.56 686.565 161.424 680.997 161.424C673.701 161.424 668.133 167.76 668.133 178.192C668.133 188.624 673.701 194.896 680.997 194.896ZM682.405 190.096C677.349 190.096 673.701 187.088 673.701 178.256C673.701 169.424 677.349 166.224 682.405 166.224C687.589 166.224 691.365 170.256 691.365 178.256C691.365 186.256 687.589 190.096 682.405 190.096ZM715.443 194.896C720.371 194.896 723.379 192.784 725.747 189.2C726.131 191.824 726.835 194 731.635 194H735.795V189.2H732.467C730.995 189.2 730.611 188.816 730.611 187.344V172.304C730.611 165.776 726.707 161.424 718.259 161.424C710.003 161.424 705.651 165.904 704.499 170.128L709.811 172.048C710.643 169.68 712.371 166.224 718.195 166.224C723.059 166.224 725.171 168.528 725.171 172.368V173.264C714.867 174.096 705.203 177.104 705.203 185.808C705.203 191.44 709.171 194.896 715.443 194.896ZM716.723 190.288C712.755 190.288 710.835 188.368 710.835 185.36C710.835 180.176 717.427 178.192 725.171 177.36V180.88C725.171 187.472 720.883 190.288 716.723 190.288ZM752.197 194H759.493V189.2H752.901C750.661 189.2 749.701 188.24 749.701 186V166.928H758.341V162.32H749.701V152.4H744.26V162.32H736.901V166.928H744.26V186.32C744.26 191.568 746.949 194 752.197 194ZM774.568 194.896C779.496 194.896 782.504 192.784 784.872 189.2C785.256 191.824 785.96 194 790.76 194H794.92V189.2H791.592C790.12 189.2 789.736 188.816 789.736 187.344V172.304C789.736 165.776 785.832 161.424 777.384 161.424C769.128 161.424 764.776 165.904 763.624 170.128L768.936 172.048C769.768 169.68 771.496 166.224 777.32 166.224C782.184 166.224 784.296 168.528 784.296 172.368V173.264C773.992 174.096 764.328 177.104 764.328 185.808C764.328 191.44 768.296 194.896 774.568 194.896ZM775.848 190.288C771.88 190.288 769.96 188.368 769.96 185.36C769.96 180.176 776.552 178.192 784.296 177.36V180.88C784.296 187.472 780.008 190.288 775.848 190.288Z" fill="#1662DD"/>
<path d="M198 155C198 151.686 195.314 149 192 149H174C170.686 149 168 151.686 168 155V203C168 206.314 170.686 209 174 209H222C225.314 209 228 206.314 228 203V185C228 181.686 225.314 179 222 179C218.686 179 216 181.686 216 185V197H180V161H192C195.314 161 198 158.314 198 155Z" fill="#1662DD"/>
<path d="M219.273 149L210 149C206.686 149 204 146.314 204 143C204 139.686 206.686 137 210 137H234C237.314 137 240 139.686 240 143V167C240 170.314 237.314 173 234 173C230.686 173 228 170.314 228 167V157.727L197.485 188C195.142 190.343 191.343 190.343 189 188L188.758 187.758C186.415 185.415 186.415 181.616 188.758 179.273L219.273 149Z" fill="#1662DD"/>
<rect opacity="0.2" x="246" y="118" width="48" height="109" fill="#DA372C"/>
<path d="M269 61C269 60.4477 269.448 60 270 60C270.552 60 271 60.4477 271 61L269 61ZM270.707 131.207C270.317 131.598 269.683 131.598 269.293 131.207L262.929 124.843C262.538 124.453 262.538 123.819 262.929 123.429C263.319 123.038 263.953 123.038 264.343 123.429L270 129.086L275.657 123.429C276.047 123.038 276.681 123.038 277.071 123.429C277.462 123.819 277.462 124.453 277.071 124.843L270.707 131.207ZM271 61L271 130.5L269 130.5L269 61L271 61Z" fill="#DA372C"/>
<path d="M286.256 73.68H287.456V72.208C289.728 72.032 290.976 70.72 290.976 68.896C290.976 67.2 289.712 66.24 287.936 65.792L287.456 65.664V61.952C288.752 62.208 289.264 63.2 289.472 63.792L290.8 63.136C290.512 62.192 289.472 60.832 287.456 60.608V59.12H286.256V60.608C284.352 60.832 283.088 62.064 283.088 63.712C283.088 65.568 284.24 66.384 285.888 66.736L286.256 66.816V70.848C285.008 70.576 284.256 69.664 283.888 68.544L282.528 69.2C283.024 70.768 284.288 71.952 286.256 72.192V73.68ZM286.256 65.392C285.008 65.072 284.464 64.592 284.464 63.632C284.464 62.72 285.136 62.032 286.256 61.904V63.968V65.392ZM287.456 70.912V68.848V67.088C288.848 67.408 289.52 68.032 289.52 69.024C289.52 70.064 288.768 70.784 287.456 70.912ZM295.672 72.224C297.672 72.224 298.824 71.28 298.824 69.792C298.824 67.984 296.952 67.504 296.152 67.344L295.24 67.168C294.104 66.944 293.848 66.624 293.848 66.096C293.848 65.52 294.36 64.976 295.464 64.976C296.808 64.976 297.256 65.824 297.448 66.352L298.68 65.904C298.36 64.864 297.432 63.856 295.464 63.856C293.912 63.856 292.568 64.816 292.568 66.24C292.568 67.744 293.72 68.24 295.032 68.496L295.944 68.672C297.096 68.896 297.464 69.312 297.464 69.904C297.464 70.656 296.824 71.056 295.672 71.056C294.424 71.056 293.784 70.464 293.544 69.52L292.232 69.952C292.584 71.472 294.056 72.224 295.672 72.224ZM300.86 75.12H302.22V72.32V70.768C302.604 71.44 303.34 72.224 304.732 72.224C306.556 72.224 307.948 70.64 307.948 68.032C307.948 65.424 306.556 63.856 304.732 63.856C303.34 63.856 302.572 64.624 302.188 65.296V64.08H300.86V75.12ZM304.38 71.024C303.084 71.024 302.14 70.016 302.14 68.016C302.14 66.016 303.084 65.056 304.38 65.056C305.644 65.056 306.556 65.808 306.556 68.016C306.556 70.224 305.644 71.024 304.38 71.024ZM312.671 72.224C314.063 72.224 314.831 71.456 315.215 70.784V72H316.543V64.08H315.183V65.312C314.799 64.64 314.063 63.856 312.671 63.856C310.847 63.856 309.455 65.44 309.455 68.048C309.455 70.656 310.847 72.224 312.671 72.224ZM313.023 71.024C311.759 71.024 310.847 70.272 310.847 68.064C310.847 65.856 311.759 65.056 313.023 65.056C314.319 65.056 315.263 66.064 315.263 68.064C315.263 70.064 314.319 71.024 313.023 71.024ZM322.387 72.224C324.163 72.224 325.315 71.184 325.827 69.712L324.547 69.264C324.291 70.128 323.699 71.024 322.387 71.024C321.075 71.024 320.051 70.064 320.051 68.032C320.051 66.048 321.107 65.056 322.371 65.056C323.523 65.056 324.099 65.808 324.355 66.56L325.619 66.144C325.251 64.912 324.163 63.856 322.371 63.856C320.179 63.856 318.627 65.584 318.627 68.032C318.627 70.592 320.099 72.224 322.387 72.224ZM327.593 62.528H329.033V60.8H327.593V62.528ZM327.641 72H329.001V64.08H327.641V72ZM331.688 72H333.048V68.64C333.048 67.472 333.096 65.056 335.272 65.056C336.328 65.056 337.016 65.664 337.016 67.152V72H338.376V66.832C338.376 65.072 337.576 63.856 335.608 63.856C333.896 63.856 333.128 65.072 333.016 65.424V64.08H331.688V72ZM342.233 75.12H345.929C347.273 75.12 348.409 74.416 348.409 72.944C348.409 71.616 347.417 70.752 345.897 70.752H342.441C341.881 70.752 341.769 70.464 341.769 70.208C341.769 69.92 342.057 69.616 342.489 69.424C342.921 69.68 343.417 69.728 343.961 69.728C345.721 69.728 346.921 68.56 347.049 66.768L347.081 66.336C347.145 65.408 347.417 65.232 348.137 65.232H348.745V64.08H347.897C347.129 64.08 346.761 64.608 346.601 65.216C346.265 64.656 345.433 63.856 343.961 63.856C342.137 63.856 340.809 65.152 340.809 66.8C340.809 67.792 341.241 68.512 341.689 68.912C341.177 69.28 340.521 69.808 340.521 70.592C340.521 71.216 340.777 71.584 341.225 71.856C340.745 72.128 340.169 72.72 340.169 73.52C340.169 74.448 340.713 75.12 342.233 75.12ZM343.961 68.608C342.889 68.608 342.185 67.888 342.185 66.8C342.185 65.712 342.889 64.976 343.961 64.976C345.033 64.976 345.737 65.712 345.737 66.8C345.737 67.888 345.033 68.608 343.961 68.608ZM342.697 73.904C341.865 73.904 341.417 73.728 341.417 73.072C341.417 72.528 341.769 72.176 342.041 72H345.785C346.409 72 347.033 72.128 347.033 72.944C347.033 73.76 346.409 73.904 345.785 73.904H342.697ZM349.901 67.776H354.317V66.336H349.901V67.776ZM355.367 72H356.855L357.863 70.496L358.871 68.976C359.095 69.328 359.271 69.6 359.863 70.496L360.855 72H362.487L359.735 67.968L362.327 64.08H360.823L359.959 65.44C359.351 66.384 359.159 66.672 358.935 66.992C358.743 66.672 358.567 66.384 357.975 65.44L357.111 64.08H355.527L358.087 67.952L355.367 72ZM366.813 72.224C368.813 72.224 369.965 71.28 369.965 69.792C369.965 67.984 368.093 67.504 367.293 67.344L366.381 67.168C365.245 66.944 364.989 66.624 364.989 66.096C364.989 65.52 365.501 64.976 366.605 64.976C367.949 64.976 368.397 65.824 368.589 66.352L369.821 65.904C369.501 64.864 368.573 63.856 366.605 63.856C365.053 63.856 363.709 64.816 363.709 66.24C363.709 67.744 364.861 68.24 366.173 68.496L367.085 68.672C368.237 68.896 368.605 69.312 368.605 69.904C368.605 70.656 367.965 71.056 366.813 71.056C365.565 71.056 364.925 70.464 364.685 69.52L363.373 69.952C363.725 71.472 365.197 72.224 366.813 72.224Z" fill="#6E6E78"/>
<path d="M198 61C198 60.4477 198.448 60 199 60C199.552 60 200 60.4477 200 61L198 61ZM199.707 131.207C199.317 131.598 198.683 131.598 198.293 131.207L191.929 124.843C191.538 124.453 191.538 123.819 191.929 123.429C192.319 123.038 192.953 123.038 193.343 123.429L199 129.086L204.657 123.429C205.047 123.038 205.681 123.038 206.071 123.429C206.462 123.819 206.462 124.453 206.071 124.843L199.707 131.207ZM200 61L200 130.5L198 130.5L198 61L200 61Z" fill="#DA372C"/>
<path d="M127.086 74H134.894V72.64H128.526V68.864H133.23V67.52H128.526V64.16H134.894V62.8H127.086V74ZM135.992 74H137.48L138.488 72.496L139.496 70.976C139.72 71.328 139.896 71.6 140.488 72.496L141.48 74H143.112L140.36 69.968L142.952 66.08H141.448L140.584 67.44C139.976 68.384 139.784 68.672 139.56 68.992C139.368 68.672 139.192 68.384 138.6 67.44L137.736 66.08H136.152L138.712 69.952L135.992 74ZM147.518 74H149.342V72.8H147.694C147.134 72.8 146.894 72.56 146.894 72V67.232H149.054V66.08H146.894V63.6H145.534V66.08H143.694V67.232H145.534V72.08C145.534 73.392 146.206 74 147.518 74ZM153.977 74.224C155.465 74.224 156.793 73.552 157.385 71.936L156.137 71.504C155.929 72.016 155.369 73.04 154.025 73.04C152.921 73.04 151.817 72.4 151.737 70.4H157.321C157.625 67.808 156.201 65.856 153.897 65.856C151.881 65.856 150.393 67.472 150.393 70.08C150.393 72.768 151.817 74.224 153.977 74.224ZM151.769 69.264C151.881 67.824 152.857 66.976 153.897 66.976C154.985 66.976 155.929 67.76 155.929 69.264H151.769ZM159.5 74H160.86V70.368C160.86 68.512 161.596 67.376 163.388 67.376C163.708 67.376 163.98 67.408 164.236 67.456V66.064C164.044 66.016 163.804 65.968 163.42 65.968C161.916 65.968 161.1 67.136 160.844 67.728V66.08H159.5V74ZM165.844 74H167.204V70.64C167.204 69.472 167.252 67.056 169.428 67.056C170.484 67.056 171.172 67.664 171.172 69.152V74H172.532V68.832C172.532 67.072 171.732 65.856 169.764 65.856C168.052 65.856 167.284 67.072 167.172 67.424V66.08H165.844V74ZM177.734 74.224C179.126 74.224 179.894 73.456 180.278 72.784V74H181.606V66.08H180.246V67.312C179.862 66.64 179.126 65.856 177.734 65.856C175.91 65.856 174.518 67.44 174.518 70.048C174.518 72.656 175.91 74.224 177.734 74.224ZM178.086 73.024C176.822 73.024 175.91 72.272 175.91 70.064C175.91 67.856 176.822 67.056 178.086 67.056C179.382 67.056 180.326 68.064 180.326 70.064C180.326 72.064 179.382 73.024 178.086 73.024ZM184.297 74H185.657V62.8H184.297V74ZM127.563 102H128.923V90.8H127.563V102ZM131.562 92.528H133.002V90.8H131.562V92.528ZM131.61 102H132.97V94.08H131.61V102ZM135.657 102H137.017V98.64C137.017 97.472 137.065 95.056 139.241 95.056C140.297 95.056 140.985 95.664 140.985 97.152V102H142.345V96.832C142.345 95.072 141.545 93.856 139.577 93.856C137.865 93.856 137.097 95.072 136.985 95.424V94.08H135.657V102ZM150.794 102H152.538L148.73 97.392L152.298 94.08H150.49L146.282 98.16V95.568V90.8H144.922V102H146.282V99.664L147.786 98.288L150.794 102ZM157.78 92.528H159.22V90.8H157.78V92.528ZM157.828 102H159.188V94.08H157.828V102ZM165.027 102.224C166.803 102.224 167.955 101.184 168.467 99.712L167.187 99.264C166.931 100.128 166.339 101.024 165.027 101.024C163.715 101.024 162.691 100.064 162.691 98.032C162.691 96.048 163.747 95.056 165.011 95.056C166.163 95.056 166.739 95.808 166.995 96.56L168.259 96.144C167.891 94.912 166.803 93.856 165.011 93.856C162.819 93.856 161.267 95.584 161.267 98.032C161.267 100.592 162.739 102.224 165.027 102.224ZM173.338 102.224C175.418 102.224 177.017 100.432 177.017 98.048C177.017 95.664 175.482 93.856 173.338 93.856C171.194 93.856 169.658 95.664 169.658 98.048C169.658 100.432 171.258 102.224 173.338 102.224ZM173.338 101.024C171.994 101.024 171.066 100.064 171.066 98.064C171.066 96.064 171.994 95.056 173.338 95.056C174.682 95.056 175.61 96.064 175.61 98.064C175.61 100.064 174.682 101.024 173.338 101.024ZM179.078 102H180.438V98.64C180.438 97.472 180.486 95.056 182.662 95.056C183.718 95.056 184.406 95.664 184.406 97.152V102H185.766V96.832C185.766 95.072 184.966 93.856 182.998 93.856C181.286 93.856 180.518 95.072 180.406 95.424V94.08H179.078V102Z" fill="#6E6E78"/>
<path d="M455 298C455 298.552 455.448 299 456 299C456.552 299 457 298.552 457 298L455 298ZM456.707 227.793C456.317 227.402 455.683 227.402 455.293 227.793L448.929 234.157C448.538 234.547 448.538 235.181 448.929 235.571C449.319 235.962 449.953 235.962 450.343 235.571L456 229.914L461.657 235.571C462.047 235.962 462.681 235.962 463.071 235.571C463.462 235.181 463.462 234.547 463.071 234.157L456.707 227.793ZM457 298L457 228.5L455 228.5L455 298L457 298Z" fill="#DA372C"/>
<path d="M469.648 298H477.12V296.608H471.088V286.8H469.648V298ZM478.577 288.528H480.017V286.8H478.577V288.528ZM478.625 298H479.985V290.08H478.625V298ZM482.672 298H484.032V294.64C484.032 293.472 484.08 291.056 486.256 291.056C487.312 291.056 488 291.664 488 293.152V298H489.36V292.832C489.36 291.072 488.56 289.856 486.592 289.856C484.88 289.856 484.112 291.072 484 291.424V290.08H482.672V298ZM497.81 298H499.554L495.746 293.392L499.314 290.08H497.506L493.298 294.16V291.568V286.8H491.938V298H493.298V295.664L494.802 294.288L497.81 298ZM507.315 298H509.139V296.8H507.491C506.931 296.8 506.691 296.56 506.691 296V291.232H508.851V290.08H506.691V287.6H505.331V290.08H503.491V291.232H505.331V296.08C505.331 297.392 506.003 298 507.315 298ZM513.774 298.224C515.262 298.224 516.59 297.552 517.182 295.936L515.934 295.504C515.726 296.016 515.166 297.04 513.822 297.04C512.718 297.04 511.614 296.4 511.534 294.4H517.118C517.422 291.808 515.998 289.856 513.694 289.856C511.678 289.856 510.19 291.472 510.19 294.08C510.19 296.768 511.614 298.224 513.774 298.224ZM511.566 293.264C511.678 291.824 512.654 290.976 513.694 290.976C514.782 290.976 515.726 291.76 515.726 293.264H511.566ZM518.179 298H519.667L520.675 296.496L521.683 294.976C521.907 295.328 522.083 295.6 522.675 296.496L523.667 298H525.299L522.547 293.968L525.139 290.08H523.635L522.771 291.44C522.163 292.384 521.971 292.672 521.747 292.992C521.555 292.672 521.379 292.384 520.787 291.44L519.923 290.08H518.339L520.899 293.952L518.179 298ZM529.705 298H531.529V296.8H529.881C529.321 296.8 529.081 296.56 529.081 296V291.232H531.241V290.08H529.081V287.6H527.721V290.08H525.881V291.232H527.721V296.08C527.721 297.392 528.393 298 529.705 298Z" fill="#6E6E78"/>
</svg>
