<svg width="958" height="346" viewBox="0 0 958 346" fill="none" xmlns="http://www.w3.org/2000/svg">
<rect x="353" y="135" width="251" height="76" rx="8" fill="#1662DD"/>
<path d="M405.111 172.452V178.73H408.313C408.732 178.73 409.101 178.454 409.221 178.052L410.889 172.452H405.111Z" fill="white"/>
<path d="M403.215 164.277H396.831V170.555H403.215V164.277Z" fill="white"/>
<path d="M412.812 164.659C412.633 164.419 412.351 164.277 412.052 164.277H405.111V170.555H411.454L412.96 165.496C413.046 165.209 412.991 164.899 412.812 164.659Z" fill="white"/>
<path d="M403.215 172.452H396.831V178.73H403.215V172.452Z" fill="white"/>
<path d="M387.924 164.278L386.649 159.994C386.529 159.592 386.159 159.316 385.74 159.316H381.948C381.424 159.316 381 159.741 381 160.264C381 160.788 381.424 161.212 381.948 161.212H385.033L386.303 165.476C386.307 165.49 386.311 165.504 386.315 165.517L387.816 170.555H394.936V164.278H387.924Z" fill="white"/>
<path d="M410.156 182.344H408.934C408.523 180.934 407.22 179.9 405.678 179.9C404.137 179.9 402.834 180.934 402.422 182.344H397.392C396.981 180.934 395.677 179.9 394.136 179.9C392.595 179.9 391.291 180.934 390.88 182.344H389.939C388.943 182.344 388.132 181.533 388.132 180.537C388.132 179.541 388.943 178.73 389.939 178.73H390.957H394.935V172.452H388.38L389.688 176.843C387.763 176.973 386.236 178.579 386.236 180.537C386.236 182.579 387.897 184.24 389.939 184.24H390.88C391.291 185.65 392.595 186.684 394.136 186.684C395.677 186.684 396.981 185.65 397.392 184.24H402.422C402.834 185.65 404.137 186.684 405.678 186.684C407.22 186.684 408.523 185.65 408.934 184.24H410.156C410.679 184.24 411.104 183.815 411.104 183.292C411.104 182.768 410.679 182.344 410.156 182.344Z" fill="white"/>
<path d="M427.548 182H436.732C440.596 182 443.62 180.096 443.62 176.568C443.62 174.02 441.716 172.2 439.196 171.752C441.38 171.164 442.976 169.568 442.976 167.16C442.976 164.332 440.82 162.4 436.564 162.4H427.548V182ZM431.188 170.324V165.508H436.088C438.048 165.508 439.28 166.208 439.28 167.86C439.28 169.512 438.048 170.324 436.088 170.324H431.188ZM431.188 178.892V173.376H436.2C438.384 173.376 439.812 174.272 439.812 176.12C439.812 177.996 438.384 178.892 436.2 178.892H431.188ZM451.262 182.42C454.006 182.42 455.294 180.628 455.854 179.704V182H459.242V168.056H455.826V174.608C455.826 176.848 455.322 179.564 452.662 179.564C451.178 179.564 450.254 178.696 450.254 176.54V168.056H446.838V177.352C446.838 180.404 448.378 182.42 451.262 182.42ZM472.317 168.056L470.385 174.02L469.153 177.772C468.901 177.184 468.565 176.484 467.557 174.048L464.981 168.056H461.284L467.781 181.888L467.361 183.148C466.941 184.296 466.465 184.632 465.513 184.632H462.209V187.46H465.849C468.285 187.46 469.405 186.48 470.217 184.1L475.901 168.056H472.317ZM489.779 182.42C492.187 182.42 493.699 181.076 494.343 180.04V182H497.675V162.4H494.259V167.496V170.016C493.615 168.98 492.159 167.636 489.779 167.636C486.251 167.636 483.871 170.548 483.871 175.028C483.871 179.508 486.251 182.42 489.779 182.42ZM490.899 179.732C488.911 179.732 487.427 178.528 487.427 175.028C487.427 171.556 488.911 170.324 490.899 170.324C492.971 170.324 494.427 171.892 494.427 175.028C494.427 178.192 492.971 179.732 490.899 179.732ZM507.878 182.42C511.938 182.42 514.906 179.452 514.906 175.028C514.906 170.66 511.966 167.636 507.878 167.636C503.79 167.636 500.85 170.66 500.85 175.028C500.85 179.284 503.818 182.42 507.878 182.42ZM507.878 179.648C505.806 179.648 504.378 178.192 504.378 175.084C504.378 171.976 505.806 170.408 507.878 170.408C509.95 170.408 511.35 171.976 511.35 175.084C511.35 178.192 509.95 179.648 507.878 179.648ZM518.072 182H521.488V175.644C521.488 173.936 521.544 170.492 524.68 170.492C526.22 170.492 527.2 171.388 527.2 173.488V182H530.616V172.732C530.616 169.68 529.244 167.636 525.912 167.636C523.196 167.636 521.852 169.456 521.404 170.268V168.056H518.072V182ZM538.871 182.42C541.615 182.42 542.903 180.628 543.463 179.704V182H546.851V168.056H543.435V174.608C543.435 176.848 542.931 179.564 540.271 179.564C538.787 179.564 537.863 178.696 537.863 176.54V168.056H534.447V177.352C534.447 180.404 535.987 182.42 538.871 182.42ZM555.922 182H560.066V179.2H557.098C556.202 179.2 555.81 178.808 555.81 177.912V170.716H559.506V168.056H555.81V163.66H552.394V168.056H549.37V170.716H552.394V178.444C552.394 180.656 553.654 182 555.922 182ZM567.931 182.392C571.823 182.392 574.091 180.628 574.091 177.912C574.091 175.056 571.515 173.992 569.303 173.572L567.511 173.208C565.831 172.9 565.383 172.452 565.383 171.668C565.383 170.828 566.139 170.1 567.679 170.1C569.415 170.1 570.339 171.164 570.731 172.228L573.615 170.996C573.027 169.428 571.291 167.636 567.791 167.636C564.431 167.636 562.135 169.372 562.135 171.976C562.135 174.692 563.927 175.616 566.643 176.148L568.491 176.512C570.143 176.848 570.563 177.464 570.563 178.248C570.563 179.228 569.695 179.872 568.071 179.872C565.551 179.872 564.879 178.164 564.711 177.38L561.547 178.388C562.163 180.936 564.795 182.392 567.931 182.392Z" fill="white"/>
<path d="M163 172C162.448 172 162 172.448 162 173C162 173.552 162.448 174 163 174L163 172ZM370.707 173.707C371.098 173.317 371.098 172.683 370.707 172.293L364.343 165.929C363.953 165.538 363.319 165.538 362.929 165.929C362.538 166.319 362.538 166.953 362.929 167.343L368.586 173L362.929 178.657C362.538 179.047 362.538 179.681 362.929 180.071C363.319 180.462 363.953 180.462 364.343 180.071L370.707 173.707ZM163 174L370 174L370 172L163 172L163 174Z" fill="#DA372C"/>
<path d="M164.648 153H169.672C171.608 153 173.288 152.072 173.288 149.912C173.288 148.248 171.976 147.384 170.84 147.16C171.8 146.968 172.92 146.12 172.92 144.568C172.92 142.936 171.8 141.8 169.448 141.8H164.648V153ZM166.088 146.52V143.16H169.32C170.584 143.16 171.4 143.704 171.4 144.76C171.4 145.816 170.584 146.52 169.32 146.52H166.088ZM166.088 151.64V147.864H169.464C170.888 147.864 171.736 148.568 171.736 149.72C171.736 150.872 170.888 151.64 169.464 151.64H166.088ZM178.06 153.224C179.708 153.224 180.46 152.056 180.7 151.624V153H182.028V145.08H180.668V148.44C180.668 149.656 180.636 152.024 178.492 152.024C177.452 152.024 176.78 151.416 176.78 149.928V145.08H175.42V150.248C175.42 152.008 176.204 153.224 178.06 153.224ZM187.471 153H189.295V151.8H187.647C187.087 151.8 186.847 151.56 186.847 151V146.232H189.007V145.08H186.847V142.6H185.487V145.08H183.647V146.232H185.487V151.08C185.487 152.392 186.159 153 187.471 153ZM193.768 153H195.592V151.8H193.944C193.384 151.8 193.144 151.56 193.144 151V146.232H195.304V145.08H193.144V142.6H191.784V145.08H189.944V146.232H191.784V151.08C191.784 152.392 192.456 153 193.768 153ZM200.291 153.224C202.371 153.224 203.971 151.432 203.971 149.048C203.971 146.664 202.435 144.856 200.291 144.856C198.147 144.856 196.611 146.664 196.611 149.048C196.611 151.432 198.211 153.224 200.291 153.224ZM200.291 152.024C198.947 152.024 198.019 151.064 198.019 149.064C198.019 147.064 198.947 146.056 200.291 146.056C201.635 146.056 202.563 147.064 202.563 149.064C202.563 151.064 201.635 152.024 200.291 152.024ZM206.032 153H207.392V149.64C207.392 148.472 207.44 146.056 209.616 146.056C210.672 146.056 211.36 146.664 211.36 148.152V153H212.72V147.832C212.72 146.072 211.92 144.856 209.952 144.856C208.24 144.856 207.472 146.072 207.36 146.424V145.08H206.032V153ZM223.31 153.224C225.134 153.224 226.526 151.64 226.526 149.032C226.526 146.424 225.134 144.856 223.31 144.856C221.918 144.856 221.182 145.624 220.798 146.296V144.76V141.8H219.438V153H220.766V151.768C221.15 152.44 221.918 153.224 223.31 153.224ZM222.958 152.024C221.662 152.024 220.718 151.016 220.718 149.016C220.718 147.016 221.662 146.056 222.958 146.056C224.222 146.056 225.134 146.808 225.134 149.016C225.134 151.224 224.222 152.024 222.958 152.024ZM231.249 153.224C232.641 153.224 233.409 152.456 233.793 151.784V153H235.121V145.08H233.761V146.312C233.377 145.64 232.641 144.856 231.249 144.856C229.425 144.856 228.033 146.44 228.033 149.048C228.033 151.656 229.425 153.224 231.249 153.224ZM231.601 152.024C230.337 152.024 229.425 151.272 229.425 149.064C229.425 146.856 230.337 146.056 231.601 146.056C232.897 146.056 233.841 147.064 233.841 149.064C233.841 151.064 232.897 152.024 231.601 152.024ZM240.965 153.224C242.741 153.224 243.893 152.184 244.405 150.712L243.125 150.264C242.869 151.128 242.277 152.024 240.965 152.024C239.653 152.024 238.629 151.064 238.629 149.032C238.629 147.048 239.685 146.056 240.949 146.056C242.101 146.056 242.677 146.808 242.933 147.56L244.197 147.144C243.829 145.912 242.741 144.856 240.949 144.856C238.757 144.856 237.205 146.584 237.205 149.032C237.205 151.592 238.677 153.224 240.965 153.224ZM252.091 153H253.835L250.027 148.392L253.595 145.08H251.787L247.579 149.16V146.568V141.8H246.219V153H247.579V150.664L249.083 149.288L252.091 153ZM256.421 156.12H260.117C261.461 156.12 262.597 155.416 262.597 153.944C262.597 152.616 261.605 151.752 260.085 151.752H256.629C256.069 151.752 255.957 151.464 255.957 151.208C255.957 150.92 256.245 150.616 256.677 150.424C257.109 150.68 257.605 150.728 258.149 150.728C259.909 150.728 261.109 149.56 261.237 147.768L261.269 147.336C261.333 146.408 261.605 146.232 262.325 146.232H262.933V145.08H262.085C261.317 145.08 260.949 145.608 260.789 146.216C260.453 145.656 259.621 144.856 258.149 144.856C256.325 144.856 254.997 146.152 254.997 147.8C254.997 148.792 255.429 149.512 255.877 149.912C255.365 150.28 254.709 150.808 254.709 151.592C254.709 152.216 254.965 152.584 255.413 152.856C254.933 153.128 254.357 153.72 254.357 154.52C254.357 155.448 254.901 156.12 256.421 156.12ZM258.149 149.608C257.077 149.608 256.373 148.888 256.373 147.8C256.373 146.712 257.077 145.976 258.149 145.976C259.221 145.976 259.925 146.712 259.925 147.8C259.925 148.888 259.221 149.608 258.149 149.608ZM256.885 154.904C256.053 154.904 255.605 154.728 255.605 154.072C255.605 153.528 255.957 153.176 256.229 153H259.973C260.597 153 261.221 153.128 261.221 153.944C261.221 154.76 260.597 154.904 259.973 154.904H256.885ZM264.532 153H265.892V149.368C265.892 147.512 266.628 146.376 268.42 146.376C268.74 146.376 269.012 146.408 269.268 146.456V145.064C269.076 145.016 268.836 144.968 268.452 144.968C266.948 144.968 266.132 146.136 265.876 146.728V145.08H264.532V153ZM273.806 153.224C275.886 153.224 277.486 151.432 277.486 149.048C277.486 146.664 275.95 144.856 273.806 144.856C271.662 144.856 270.126 146.664 270.126 149.048C270.126 151.432 271.726 153.224 273.806 153.224ZM273.806 152.024C272.462 152.024 271.534 151.064 271.534 149.064C271.534 147.064 272.462 146.056 273.806 146.056C275.15 146.056 276.078 147.064 276.078 149.064C276.078 151.064 275.15 152.024 273.806 152.024ZM282.075 153.224C283.723 153.224 284.475 152.056 284.715 151.624V153H286.043V145.08H284.683V148.44C284.683 149.656 284.651 152.024 282.507 152.024C281.467 152.024 280.795 151.416 280.795 149.928V145.08H279.435V150.248C279.435 152.008 280.219 153.224 282.075 153.224ZM288.735 153H290.095V149.64C290.095 148.472 290.143 146.056 292.319 146.056C293.375 146.056 294.063 146.664 294.063 148.152V153H295.423V147.832C295.423 146.072 294.623 144.856 292.655 144.856C290.943 144.856 290.175 146.072 290.063 146.424V145.08H288.735V153ZM300.624 153.224C302.016 153.224 302.784 152.456 303.168 151.784V153H304.496V141.8H303.136V144.76V146.312C302.752 145.64 302.016 144.856 300.624 144.856C298.8 144.856 297.408 146.44 297.408 149.048C297.408 151.656 298.8 153.224 300.624 153.224ZM300.976 152.024C299.712 152.024 298.8 151.272 298.8 149.064C298.8 146.856 299.712 146.056 300.976 146.056C302.272 146.056 303.216 147.064 303.216 149.064C303.216 151.064 302.272 152.024 300.976 152.024Z" fill="#6E6E78"/>
<path d="M401 58C401 57.4477 400.552 57 400 57C399.448 57 399 57.4477 399 58L401 58ZM399.293 148.707C399.683 149.098 400.317 149.098 400.707 148.707L407.071 142.343C407.462 141.953 407.462 141.319 407.071 140.929C406.681 140.538 406.047 140.538 405.657 140.929L400 146.586L394.343 140.929C393.953 140.538 393.319 140.538 392.929 140.929C392.538 141.319 392.538 141.953 392.929 142.343L399.293 148.707ZM399 58L399 148L401 148L401 58L399 58Z" fill="#DA372C"/>
<path d="M319.066 69H320.506V57.8H319.354C318.602 59.128 317.354 59.944 316.042 60.296V61.816C317.274 61.608 318.458 60.776 319.066 59.752V61.32V69ZM327.9 69H329.324V65.896H330.956V64.648H329.324V57.8H327.1L322.668 64.504V65.896H327.9V69ZM327.9 64.648H326.252H324.124L327.9 58.936V61.384V64.648ZM332.875 72.12H334.235V69.32V67.768C334.619 68.44 335.355 69.224 336.747 69.224C338.571 69.224 339.963 67.64 339.963 65.032C339.963 62.424 338.571 60.856 336.747 60.856C335.355 60.856 334.587 61.624 334.203 62.296V61.08H332.875V72.12ZM336.395 68.024C335.099 68.024 334.155 67.016 334.155 65.016C334.155 63.016 335.099 62.056 336.395 62.056C337.659 62.056 338.571 62.808 338.571 65.016C338.571 67.224 337.659 68.024 336.395 68.024ZM340.913 69H342.401L343.409 67.496L344.417 65.976C344.641 66.328 344.817 66.6 345.409 67.496L346.401 69H348.033L345.281 64.968L347.873 61.08H346.369L345.505 62.44C344.897 63.384 344.705 63.672 344.481 63.992C344.289 63.672 344.113 63.384 343.521 62.44L342.657 61.08H341.073L343.633 64.952L340.913 69ZM353.78 59.528H355.22V57.8H353.78V59.528ZM353.828 69H355.188V61.08H353.828V69ZM361.027 69.224C362.803 69.224 363.955 68.184 364.467 66.712L363.187 66.264C362.931 67.128 362.339 68.024 361.027 68.024C359.715 68.024 358.691 67.064 358.691 65.032C358.691 63.048 359.747 62.056 361.011 62.056C362.163 62.056 362.739 62.808 362.995 63.56L364.259 63.144C363.891 61.912 362.803 60.856 361.011 60.856C358.819 60.856 357.267 62.584 357.267 65.032C357.267 67.592 358.739 69.224 361.027 69.224ZM369.338 69.224C371.418 69.224 373.017 67.432 373.017 65.048C373.017 62.664 371.482 60.856 369.338 60.856C367.194 60.856 365.658 62.664 365.658 65.048C365.658 67.432 367.258 69.224 369.338 69.224ZM369.338 68.024C367.994 68.024 367.066 67.064 367.066 65.064C367.066 63.064 367.994 62.056 369.338 62.056C370.682 62.056 371.61 63.064 371.61 65.064C371.61 67.064 370.682 68.024 369.338 68.024ZM375.078 69H376.438V65.64C376.438 64.472 376.486 62.056 378.662 62.056C379.718 62.056 380.406 62.664 380.406 64.152V69H381.766V63.832C381.766 62.072 380.966 60.856 378.998 60.856C377.286 60.856 376.518 62.072 376.406 62.424V61.08H375.078V69Z" fill="#6E6E78"/>
<path d="M556 58C556 57.4477 555.552 57 555 57C554.448 57 554 57.4477 554 58L556 58ZM554.293 155.707C554.683 156.098 555.317 156.098 555.707 155.707L562.071 149.343C562.462 148.953 562.462 148.319 562.071 147.929C561.681 147.538 561.047 147.538 560.657 147.929L555 153.586L549.343 147.929C548.953 147.538 548.319 147.538 547.929 147.929C547.538 148.319 547.538 148.953 547.929 149.343L554.293 155.707ZM554 58L554 155L556 155L556 58L554 58Z" fill="#DA372C"/>
<path d="M456.148 69H461.172C463.108 69 464.788 68.072 464.788 65.912C464.788 64.248 463.476 63.384 462.34 63.16C463.3 62.968 464.42 62.12 464.42 60.568C464.42 58.936 463.3 57.8 460.948 57.8H456.148V69ZM457.588 62.52V59.16H460.82C462.084 59.16 462.9 59.704 462.9 60.76C462.9 61.816 462.084 62.52 460.82 62.52H457.588ZM457.588 67.64V63.864H460.964C462.388 63.864 463.236 64.568 463.236 65.72C463.236 66.872 462.388 67.64 460.964 67.64H457.588ZM469.56 69.224C471.208 69.224 471.96 68.056 472.2 67.624V69H473.528V61.08H472.168V64.44C472.168 65.656 472.136 68.024 469.992 68.024C468.952 68.024 468.28 67.416 468.28 65.928V61.08H466.92V66.248C466.92 68.008 467.704 69.224 469.56 69.224ZM478.971 69H480.795V67.8H479.147C478.587 67.8 478.347 67.56 478.347 67V62.232H480.507V61.08H478.347V58.6H476.987V61.08H475.147V62.232H476.987V67.08C476.987 68.392 477.659 69 478.971 69ZM485.268 69H487.092V67.8H485.444C484.884 67.8 484.644 67.56 484.644 67V62.232H486.804V61.08H484.644V58.6H483.284V61.08H481.444V62.232H483.284V67.08C483.284 68.392 483.956 69 485.268 69ZM491.791 69.224C493.871 69.224 495.471 67.432 495.471 65.048C495.471 62.664 493.935 60.856 491.791 60.856C489.647 60.856 488.111 62.664 488.111 65.048C488.111 67.432 489.711 69.224 491.791 69.224ZM491.791 68.024C490.447 68.024 489.519 67.064 489.519 65.064C489.519 63.064 490.447 62.056 491.791 62.056C493.135 62.056 494.063 63.064 494.063 65.064C494.063 67.064 493.135 68.024 491.791 68.024ZM497.532 69H498.892V65.64C498.892 64.472 498.94 62.056 501.116 62.056C502.172 62.056 502.86 62.664 502.86 64.152V69H504.22V63.832C504.22 62.072 503.42 60.856 501.452 60.856C499.74 60.856 498.972 62.072 498.86 62.424V61.08H497.532V69ZM513.409 69H515.233V67.8H513.585C513.025 67.8 512.785 67.56 512.785 67V62.232H514.945V61.08H512.785V58.6H511.424V61.08H509.585V62.232H511.424V67.08C511.424 68.392 512.097 69 513.409 69ZM519.867 69.224C521.355 69.224 522.683 68.552 523.275 66.936L522.027 66.504C521.819 67.016 521.259 68.04 519.915 68.04C518.811 68.04 517.707 67.4 517.627 65.4H523.211C523.515 62.808 522.091 60.856 519.787 60.856C517.771 60.856 516.283 62.472 516.283 65.08C516.283 67.768 517.707 69.224 519.867 69.224ZM517.659 64.264C517.771 62.824 518.747 61.976 519.787 61.976C520.875 61.976 521.819 62.76 521.819 64.264H517.659ZM524.273 69H525.761L526.769 67.496L527.777 65.976C528.001 66.328 528.177 66.6 528.769 67.496L529.761 69H531.393L528.641 64.968L531.233 61.08H529.729L528.865 62.44C528.257 63.384 528.065 63.672 527.841 63.992C527.649 63.672 527.473 63.384 526.881 62.44L526.017 61.08H524.433L526.993 64.952L524.273 69ZM535.799 69H537.623V67.8H535.975C535.415 67.8 535.175 67.56 535.175 67V62.232H537.335V61.08H535.175V58.6H533.815V61.08H531.975V62.232H533.815V67.08C533.815 68.392 534.487 69 535.799 69Z" fill="#6E6E78"/>
<path d="M575.293 116.293C574.902 116.683 574.902 117.317 575.293 117.707L581.657 124.071C582.047 124.462 582.681 124.462 583.071 124.071C583.462 123.681 583.462 123.047 583.071 122.657L577.414 117L583.071 111.343C583.462 110.953 583.462 110.319 583.071 109.929C582.681 109.538 582.047 109.538 581.657 109.929L575.293 116.293ZM624 133L625 133L625 133L624 133ZM623.293 165.707C623.683 166.098 624.317 166.098 624.707 165.707L631.071 159.343C631.462 158.953 631.462 158.319 631.071 157.929C630.681 157.538 630.047 157.538 629.657 157.929L624 163.586L618.343 157.929C617.953 157.538 617.319 157.538 616.929 157.929C616.538 158.319 616.538 158.953 616.929 159.343L623.293 165.707ZM608 116H576V118H608V116ZM623 133L623 165L625 165L625 133L623 133ZM608 118C616.284 118 623 124.716 623 133L625 133C625 123.611 617.389 116 608 116V118Z" fill="#DA372C"/>
<path d="M653.712 136H655.136V132.896H656.768V131.648H655.136V124.8H652.912L648.48 131.504V132.896H653.712V136ZM653.712 131.648H652.064H649.936L653.712 125.936V128.384V131.648ZM658.688 139.12H660.048V136.32V134.768C660.432 135.44 661.168 136.224 662.56 136.224C664.384 136.224 665.776 134.64 665.776 132.032C665.776 129.424 664.384 127.856 662.56 127.856C661.168 127.856 660.4 128.624 660.016 129.296V128.08H658.688V139.12ZM662.208 135.024C660.912 135.024 659.968 134.016 659.968 132.016C659.968 130.016 660.912 129.056 662.208 129.056C663.472 129.056 664.384 129.808 664.384 132.016C664.384 134.224 663.472 135.024 662.208 135.024ZM666.726 136H668.214L669.222 134.496L670.23 132.976C670.454 133.328 670.63 133.6 671.222 134.496L672.214 136H673.846L671.094 131.968L673.686 128.08H672.182L671.318 129.44C670.71 130.384 670.518 130.672 670.294 130.992C670.102 130.672 669.926 130.384 669.334 129.44L668.47 128.08H666.886L669.446 131.952L666.726 136ZM682.793 136.224C684.569 136.224 685.721 135.184 686.233 133.712L684.953 133.264C684.697 134.128 684.105 135.024 682.793 135.024C681.481 135.024 680.457 134.064 680.457 132.032C680.457 130.048 681.513 129.056 682.777 129.056C683.929 129.056 684.505 129.808 684.761 130.56L686.025 130.144C685.657 128.912 684.569 127.856 682.777 127.856C680.585 127.856 679.033 129.584 679.033 132.032C679.033 134.592 680.505 136.224 682.793 136.224ZM691.103 136.224C693.183 136.224 694.783 134.432 694.783 132.048C694.783 129.664 693.247 127.856 691.103 127.856C688.959 127.856 687.423 129.664 687.423 132.048C687.423 134.432 689.023 136.224 691.103 136.224ZM691.103 135.024C689.759 135.024 688.831 134.064 688.831 132.064C688.831 130.064 689.759 129.056 691.103 129.056C692.447 129.056 693.375 130.064 693.375 132.064C693.375 134.064 692.447 135.024 691.103 135.024ZM696.844 136H698.204V132.368C698.204 130.512 698.94 129.376 700.732 129.376C701.052 129.376 701.324 129.408 701.58 129.456V128.064C701.388 128.016 701.148 127.968 700.764 127.968C699.26 127.968 698.444 129.136 698.188 129.728V128.08H696.844V136ZM703.188 136H704.548V132.64C704.548 131.472 704.596 129.056 706.772 129.056C707.828 129.056 708.516 129.664 708.516 131.152V136H709.876V130.832C709.876 129.072 709.076 127.856 707.108 127.856C705.396 127.856 704.628 129.072 704.516 129.424V128.08H703.188V136ZM715.445 136.224C716.933 136.224 718.261 135.552 718.853 133.936L717.605 133.504C717.397 134.016 716.837 135.04 715.493 135.04C714.389 135.04 713.285 134.4 713.205 132.4H718.789C719.093 129.808 717.669 127.856 715.365 127.856C713.349 127.856 711.861 129.472 711.861 132.08C711.861 134.768 713.285 136.224 715.445 136.224ZM713.237 131.264C713.349 129.824 714.325 128.976 715.365 128.976C716.453 128.976 717.397 129.76 717.397 131.264H713.237ZM720.969 136H722.329V132.368C722.329 130.512 723.065 129.376 724.857 129.376C725.177 129.376 725.449 129.408 725.705 129.456V128.064C725.513 128.016 725.273 127.968 724.889 127.968C723.385 127.968 722.569 129.136 722.313 129.728V128.08H720.969V136ZM731.016 136H732.376V132.368C732.376 130.512 733.112 129.376 734.904 129.376C735.224 129.376 735.496 129.408 735.752 129.456V128.064C735.56 128.016 735.32 127.968 734.936 127.968C733.432 127.968 732.616 129.136 732.36 129.728V128.08H731.016V136ZM739.859 136.224C741.251 136.224 742.019 135.456 742.403 134.784V136H743.731V128.08H742.371V129.312C741.987 128.64 741.251 127.856 739.859 127.856C738.035 127.856 736.643 129.44 736.643 132.048C736.643 134.656 738.035 136.224 739.859 136.224ZM740.211 135.024C738.947 135.024 738.035 134.272 738.035 132.064C738.035 129.856 738.947 129.056 740.211 129.056C741.507 129.056 742.451 130.064 742.451 132.064C742.451 134.064 741.507 135.024 740.211 135.024ZM749.046 136.224C750.438 136.224 751.206 135.456 751.59 134.784V136H752.918V124.8H751.558V127.76V129.312C751.174 128.64 750.438 127.856 749.046 127.856C747.222 127.856 745.83 129.44 745.83 132.048C745.83 134.656 747.222 136.224 749.046 136.224ZM749.398 135.024C748.134 135.024 747.222 134.272 747.222 132.064C747.222 129.856 748.134 129.056 749.398 129.056C750.694 129.056 751.638 130.064 751.638 132.064C751.638 134.064 750.694 135.024 749.398 135.024ZM755.562 126.528H757.002V124.8H755.562V126.528ZM755.61 136H756.97V128.08H755.61V136ZM762.185 136.224C763.833 136.224 764.585 135.056 764.825 134.624V136H766.153V128.08H764.793V131.44C764.793 132.656 764.761 135.024 762.617 135.024C761.577 135.024 760.905 134.416 760.905 132.928V128.08H759.545V133.248C759.545 135.008 760.329 136.224 762.185 136.224ZM771.516 136.224C773.516 136.224 774.668 135.28 774.668 133.792C774.668 131.984 772.796 131.504 771.996 131.344L771.084 131.168C769.948 130.944 769.692 130.624 769.692 130.096C769.692 129.52 770.204 128.976 771.308 128.976C772.652 128.976 773.1 129.824 773.292 130.352L774.524 129.904C774.204 128.864 773.276 127.856 771.308 127.856C769.756 127.856 768.412 128.816 768.412 130.24C768.412 131.744 769.564 132.24 770.876 132.496L771.788 132.672C772.94 132.896 773.308 133.312 773.308 133.904C773.308 134.656 772.668 135.056 771.516 135.056C770.268 135.056 769.628 134.464 769.388 133.52L768.076 133.952C768.428 135.472 769.9 136.224 771.516 136.224Z" fill="#6E6E78"/>
<path d="M507 271C507 271.552 507.448 272 508 272C508.552 272 509 271.552 509 271L507 271ZM508.707 198.293C508.317 197.902 507.683 197.902 507.293 198.293L500.929 204.657C500.538 205.047 500.538 205.681 500.929 206.071C501.319 206.462 501.953 206.462 502.343 206.071L508 200.414L513.657 206.071C514.047 206.462 514.681 206.462 515.071 206.071C515.462 205.681 515.462 205.047 515.071 204.657L508.707 198.293ZM509 271L509 199L507 199L507 271L509 271Z" fill="#DA372C"/>
<path d="M406.975 272.68H408.175V271.208C410.447 271.032 411.695 269.72 411.695 267.896C411.695 266.2 410.431 265.24 408.655 264.792L408.175 264.664V260.952C409.471 261.208 409.983 262.2 410.191 262.792L411.519 262.136C411.231 261.192 410.191 259.832 408.175 259.608V258.12H406.975V259.608C405.071 259.832 403.807 261.064 403.807 262.712C403.807 264.568 404.959 265.384 406.607 265.736L406.975 265.816V269.848C405.727 269.576 404.975 268.664 404.607 267.544L403.247 268.2C403.743 269.768 405.007 270.952 406.975 271.192V272.68ZM406.975 264.392C405.727 264.072 405.183 263.592 405.183 262.632C405.183 261.72 405.855 261.032 406.975 260.904V262.968V264.392ZM408.175 269.912V267.848V266.088C409.567 266.408 410.239 267.032 410.239 268.024C410.239 269.064 409.487 269.784 408.175 269.912ZM416.391 271.224C418.391 271.224 419.543 270.28 419.543 268.792C419.543 266.984 417.671 266.504 416.871 266.344L415.959 266.168C414.823 265.944 414.567 265.624 414.567 265.096C414.567 264.52 415.079 263.976 416.183 263.976C417.527 263.976 417.975 264.824 418.167 265.352L419.399 264.904C419.079 263.864 418.151 262.856 416.183 262.856C414.631 262.856 413.287 263.816 413.287 265.24C413.287 266.744 414.439 267.24 415.751 267.496L416.663 267.672C417.815 267.896 418.183 268.312 418.183 268.904C418.183 269.656 417.543 270.056 416.391 270.056C415.143 270.056 414.503 269.464 414.263 268.52L412.951 268.952C413.303 270.472 414.775 271.224 416.391 271.224ZM421.578 274.12H422.938V271.32V269.768C423.322 270.44 424.058 271.224 425.45 271.224C427.274 271.224 428.666 269.64 428.666 267.032C428.666 264.424 427.274 262.856 425.45 262.856C424.058 262.856 423.29 263.624 422.906 264.296V263.08H421.578V274.12ZM425.098 270.024C423.802 270.024 422.858 269.016 422.858 267.016C422.858 265.016 423.802 264.056 425.098 264.056C426.362 264.056 427.274 264.808 427.274 267.016C427.274 269.224 426.362 270.024 425.098 270.024ZM433.39 271.224C434.782 271.224 435.55 270.456 435.934 269.784V271H437.262V263.08H435.902V264.312C435.518 263.64 434.782 262.856 433.39 262.856C431.566 262.856 430.174 264.44 430.174 267.048C430.174 269.656 431.566 271.224 433.39 271.224ZM433.742 270.024C432.478 270.024 431.566 269.272 431.566 267.064C431.566 264.856 432.478 264.056 433.742 264.056C435.038 264.056 435.982 265.064 435.982 267.064C435.982 269.064 435.038 270.024 433.742 270.024ZM443.105 271.224C444.881 271.224 446.033 270.184 446.545 268.712L445.265 268.264C445.009 269.128 444.417 270.024 443.105 270.024C441.793 270.024 440.769 269.064 440.769 267.032C440.769 265.048 441.825 264.056 443.089 264.056C444.241 264.056 444.817 264.808 445.073 265.56L446.337 265.144C445.969 263.912 444.881 262.856 443.089 262.856C440.897 262.856 439.345 264.584 439.345 267.032C439.345 269.592 440.817 271.224 443.105 271.224ZM448.312 261.528H449.752V259.8H448.312V261.528ZM448.36 271H449.72V263.08H448.36V271ZM452.407 271H453.767V267.64C453.767 266.472 453.815 264.056 455.991 264.056C457.047 264.056 457.735 264.664 457.735 266.152V271H459.095V265.832C459.095 264.072 458.295 262.856 456.327 262.856C454.615 262.856 453.847 264.072 453.735 264.424V263.08H452.407V271ZM462.952 274.12H466.648C467.992 274.12 469.128 273.416 469.128 271.944C469.128 270.616 468.136 269.752 466.616 269.752H463.16C462.6 269.752 462.488 269.464 462.488 269.208C462.488 268.92 462.776 268.616 463.208 268.424C463.64 268.68 464.136 268.728 464.68 268.728C466.44 268.728 467.64 267.56 467.768 265.768L467.8 265.336C467.864 264.408 468.136 264.232 468.856 264.232H469.464V263.08H468.616C467.848 263.08 467.48 263.608 467.32 264.216C466.984 263.656 466.152 262.856 464.68 262.856C462.856 262.856 461.528 264.152 461.528 265.8C461.528 266.792 461.96 267.512 462.408 267.912C461.896 268.28 461.24 268.808 461.24 269.592C461.24 270.216 461.496 270.584 461.944 270.856C461.464 271.128 460.888 271.72 460.888 272.52C460.888 273.448 461.432 274.12 462.952 274.12ZM464.68 267.608C463.608 267.608 462.904 266.888 462.904 265.8C462.904 264.712 463.608 263.976 464.68 263.976C465.752 263.976 466.456 264.712 466.456 265.8C466.456 266.888 465.752 267.608 464.68 267.608ZM463.416 272.904C462.584 272.904 462.136 272.728 462.136 272.072C462.136 271.528 462.488 271.176 462.76 271H466.504C467.128 271 467.752 271.128 467.752 271.944C467.752 272.76 467.128 272.904 466.504 272.904H463.416ZM470.62 266.776H475.036V265.336H470.62V266.776ZM480.157 271.224C482.157 271.224 483.309 270.28 483.309 268.792C483.309 266.984 481.437 266.504 480.637 266.344L479.725 266.168C478.589 265.944 478.333 265.624 478.333 265.096C478.333 264.52 478.845 263.976 479.949 263.976C481.293 263.976 481.741 264.824 481.933 265.352L483.165 264.904C482.845 263.864 481.917 262.856 479.949 262.856C478.397 262.856 477.053 263.816 477.053 265.24C477.053 266.744 478.205 267.24 479.517 267.496L480.429 267.672C481.581 267.896 481.949 268.312 481.949 268.904C481.949 269.656 481.309 270.056 480.157 270.056C478.909 270.056 478.269 269.464 478.029 268.52L476.717 268.952C477.069 270.472 478.541 271.224 480.157 271.224Z" fill="#6E6E78"/>
</svg>
