<svg viewBox="0 0 942 346" fill="none" xmlns="http://www.w3.org/2000/svg"><g clip-path="url(#clip0)"><path fill="#F6F6F7" d="M239 161H255V177H239z"/><path fill="#fff" d="M255 161H271V177H255z"/><path fill="#F6F6F7" d="M239 193H255V209H239z"/><path fill="#fff" d="M255 193H271V209H255z"/><path fill="#F6F6F7" d="M239 225H255V241H239z"/><path fill="#fff" d="M255 225H271V241H255z"/><path fill="#F6F6F7" d="M255 177H271V193H255z"/><path fill="#fff" d="M239 177H255V193H239z"/><path fill="#F6F6F7" d="M255 209H271V225H255z"/><path fill="#fff" d="M239 209H255V225H239z"/><path fill="#F6F6F7" d="M319 177H335V193H319z"/><path fill="#fff" d="M303 177H319V193H303z"/><path fill="#F6F6F7" d="M319 209H335V225H319z"/><path fill="#fff" d="M303 209H319V225H303z"/><path fill="#F6F6F7" d="M383 177H399V193H383z"/><path fill="#fff" d="M367 177H383V193H367z"/><path fill="#F6F6F7" d="M383 209H399V225H383z"/><path fill="#fff" d="M367 209H383V225H367z"/><path fill="#F6F6F7" d="M447 177H463V193H447z"/><path fill="#fff" d="M431 177H447V193H431z"/><path fill="#F6F6F7" d="M447 209H463V225H447z"/><path fill="#fff" d="M431 209H447V225H431z"/><path fill="#F6F6F7" d="M511 177H527V193H511z"/><path fill="#fff" d="M495 177H511V193H495z"/><path fill="#F6F6F7" d="M511 209H527V225H511z"/><path fill="#fff" d="M495 209H511V225H495z"/><path fill="#F6F6F7" d="M575 177H591V193H575z"/><path fill="#fff" d="M559 177H575V193H559z"/><path fill="#F6F6F7" d="M575 209H591V225H575z"/><path fill="#fff" d="M559 209H575V225H559z"/><path fill="#F6F6F7" d="M639 177H655V193H639z"/><path fill="#fff" d="M623 177H639V193H623z"/><path fill="#F6F6F7" d="M639 209H655V225H639z"/><path fill="#fff" d="M623 209H639V225H623zM687 177H703V193H687zM687 209H703V225H687z"/><path fill="#F6F6F7" d="M287 177H303V193H287z"/><path fill="#fff" d="M271 177H287V193H271z"/><path fill="#F6F6F7" d="M287 209H303V225H287z"/><path fill="#fff" d="M271 209H287V225H271z"/><path fill="#F6F6F7" d="M351 177H367V193H351z"/><path fill="#fff" d="M335 177H351V193H335z"/><path fill="#F6F6F7" d="M351 209H367V225H351z"/><path fill="#fff" d="M335 209H351V225H335z"/><path fill="#F6F6F7" d="M415 177H431V193H415z"/><path fill="#fff" d="M399 177H415V193H399z"/><path fill="#F6F6F7" d="M415 209H431V225H415z"/><path fill="#fff" d="M399 209H415V225H399z"/><path fill="#F6F6F7" d="M479 177H495V193H479z"/><path fill="#fff" d="M463 177H479V193H463z"/><path fill="#F6F6F7" d="M479 209H495V225H479z"/><path fill="#fff" d="M463 209H479V225H463z"/><path fill="#F6F6F7" d="M543 177H559V193H543z"/><path fill="#fff" d="M527 177H543V193H527z"/><path fill="#F6F6F7" d="M543 209H559V225H543z"/><path fill="#fff" d="M527 209H543V225H527z"/><path fill="#F6F6F7" d="M607 177H623V193H607z"/><path fill="#fff" d="M591 177H607V193H591z"/><path fill="#F6F6F7" d="M607 209H623V225H607z"/><path fill="#fff" d="M591 209H607V225H591z"/><path fill="#F6F6F7" d="M671 177H687V193H671z"/><path fill="#fff" d="M655 177H671V193H655z"/><path fill="#F6F6F7" d="M671 209H687V225H671z"/><path fill="#fff" d="M655 209H671V225H655z"/><path fill="#F6F6F7" d="M367 161H383V177H367z"/><path fill="#fff" d="M383 161H399V177H383z"/><path fill="#F6F6F7" d="M367 193H383V209H367z"/><path fill="#fff" d="M383 193H399V209H383z"/><path fill="#F6F6F7" d="M367 225H383V241H367z"/><path fill="#fff" d="M383 225H399V241H383z"/><path fill="#F6F6F7" d="M495 161H511V177H495z"/><path fill="#fff" d="M511 161H527V177H511z"/><path fill="#F6F6F7" d="M495 193H511V209H495z"/><path fill="#fff" d="M511 193H527V209H511z"/><path fill="#F6F6F7" d="M495 225H511V241H495z"/><path fill="#fff" d="M511 225H527V241H511z"/><path fill="#F6F6F7" d="M623 161H639V177H623z"/><path fill="#fff" d="M639 161H655V177H639z"/><path fill="#F6F6F7" d="M623 193H639V209H623z"/><path fill="#fff" d="M639 193H655V209H639z"/><path fill="#F6F6F7" d="M623 225H639V241H623z"/><path fill="#fff" d="M639 225H655V241H639z"/><path fill="#F6F6F7" d="M303 161H319V177H303z"/><path fill="#fff" d="M319 161H335V177H319z"/><path fill="#F6F6F7" d="M303 193H319V209H303z"/><path fill="#fff" d="M319 193H335V209H319z"/><path fill="#F6F6F7" d="M303 225H319V241H303z"/><path fill="#fff" d="M319 225H335V241H319z"/><path fill="#F6F6F7" d="M431 161H447V177H431z"/><path fill="#fff" d="M447 161H463V177H447z"/><path fill="#F6F6F7" d="M431 193H447V209H431z"/><path fill="#fff" d="M447 193H463V209H447z"/><path fill="#F6F6F7" d="M431 225H447V241H431z"/><path fill="#fff" d="M447 225H463V241H447z"/><path fill="#F6F6F7" d="M559 161H575V177H559z"/><path fill="#fff" d="M575 161H591V177H575z"/><path fill="#F6F6F7" d="M559 193H575V209H559z"/><path fill="#fff" d="M575 193H591V209H575z"/><path fill="#F6F6F7" d="M559 225H575V241H559z"/><path fill="#fff" d="M575 225H591V241H575z"/><path fill="#F6F6F7" d="M687 161H703V177H687zM687 193H703V209H687zM687 225H703V241H687zM271 161H287V177H271z"/><path fill="#fff" d="M287 161H303V177H287z"/><path fill="#F6F6F7" d="M271 193H287V209H271z"/><path fill="#fff" d="M287 193H303V209H287z"/><path fill="#F6F6F7" d="M271 225H287V241H271z"/><path fill="#fff" d="M287 225H303V241H287z"/><path fill="#F6F6F7" d="M399 161H415V177H399z"/><path fill="#fff" d="M415 161H431V177H415z"/><path fill="#F6F6F7" d="M399 193H415V209H399z"/><path fill="#fff" d="M415 193H431V209H415z"/><path fill="#F6F6F7" d="M399 225H415V241H399z"/><path fill="#fff" d="M415 225H431V241H415z"/><path fill="#F6F6F7" d="M527 161H543V177H527z"/><path fill="#fff" d="M543 161H559V177H543z"/><path fill="#F6F6F7" d="M527 193H543V209H527z"/><path fill="#fff" d="M543 193H559V209H543z"/><path fill="#F6F6F7" d="M527 225H543V241H527z"/><path fill="#fff" d="M543 225H559V241H543z"/><path fill="#F6F6F7" d="M655 161H671V177H655z"/><path fill="#fff" d="M671 161H687V177H671z"/><path fill="#F6F6F7" d="M655 193H671V209H655z"/><path fill="#fff" d="M671 193H687V209H671z"/><path fill="#F6F6F7" d="M655 225H671V241H655z"/><path fill="#fff" d="M671 225H687V241H671z"/><path fill="#F6F6F7" d="M335 161H351V177H335z"/><path fill="#fff" d="M351 161H367V177H351z"/><path fill="#F6F6F7" d="M335 193H351V209H335z"/><path fill="#fff" d="M351 193H367V209H351z"/><path fill="#F6F6F7" d="M335 225H351V241H335z"/><path fill="#fff" d="M351 225H367V241H351z"/><path fill="#F6F6F7" d="M463 161H479V177H463z"/><path fill="#fff" d="M479 161H495V177H479z"/><path fill="#F6F6F7" d="M463 193H479V209H463z"/><path fill="#fff" d="M479 193H495V209H479z"/><path fill="#F6F6F7" d="M463 225H479V241H463z"/><path fill="#fff" d="M479 225H495V241H479z"/><path fill="#F6F6F7" d="M591 161H607V177H591z"/><path fill="#fff" d="M607 161H623V177H607z"/><path fill="#F6F6F7" d="M591 193H607V209H591z"/><path fill="#fff" d="M607 193H623V209H607z"/><path fill="#F6F6F7" d="M591 225H607V241H591z"/><path fill="#fff" d="M607 225H623V241H607z"/></g><path d="M241.472 275H243.632V268.328H248.12C251.672 268.328 253.664 266.24 253.664 263.264 253.664 260.288 251.696 258.2 248.144 258.2H241.472V275zM243.632 266.408V260.24H247.736C250.256 260.24 251.384 261.488 251.384 263.264 251.384 265.04 250.208 266.408 247.736 266.408H243.632zM256.438 275H258.478V258.2H256.438V275zM266.3 275.336C268.772 275.336 269.9 273.584 270.26 272.936V275H272.252V263.12H270.212V268.16C270.212 269.984 270.164 273.536 266.948 273.536 265.388 273.536 264.38 272.624 264.38 270.392V263.12H262.34V270.872C262.34 273.512 263.516 275.336 266.3 275.336zM280.417 275H283.153V273.2H280.681C279.841 273.2 279.481 272.84 279.481 272V264.848H282.721V263.12H279.481V259.4H277.441V263.12H274.681V264.848H277.441V272.12C277.441 274.088 278.449 275 280.417 275zM290.201 275.336C293.321 275.336 295.721 272.648 295.721 269.072 295.721 265.496 293.417 262.784 290.201 262.784 286.985 262.784 284.681 265.496 284.681 269.072 284.681 272.648 287.081 275.336 290.201 275.336zM290.201 273.536C288.185 273.536 286.793 272.096 286.793 269.096 286.793 266.096 288.185 264.584 290.201 264.584 292.217 264.584 293.609 266.096 293.609 269.096 293.609 272.096 292.217 273.536 290.201 273.536zM304.952 260.792H307.112V258.2H304.952V260.792zM305.024 275H307.064V263.12H305.024V275zM315.102 275.336C318.102 275.336 319.83 273.92 319.83 271.688 319.83 268.976 317.022 268.256 315.822 268.016L314.454 267.752C312.75 267.416 312.366 266.936 312.366 266.144 312.366 265.28 313.134 264.464 314.79 264.464 316.806 264.464 317.478 265.736 317.766 266.528L319.614 265.856C319.134 264.296 317.742 262.784 314.79 262.784 312.462 262.784 310.446 264.224 310.446 266.36 310.446 268.616 312.174 269.36 314.142 269.744L315.51 270.008C317.238 270.344 317.79 270.968 317.79 271.856 317.79 272.984 316.83 273.584 315.102 273.584 313.23 273.584 312.27 272.696 311.91 271.28L309.942 271.928C310.47 274.208 312.678 275.336 315.102 275.336zM329.094 275H331.134V269.96C331.134 268.208 331.206 264.584 334.47 264.584 336.054 264.584 337.086 265.496 337.086 267.728V275H339.126V267.248C339.126 264.608 337.926 262.784 334.974 262.784 332.406 262.784 331.254 264.608 331.086 265.136V263.12H329.094V275zM347.576 275.336C350.696 275.336 353.096 272.648 353.096 269.072 353.096 265.496 350.792 262.784 347.576 262.784 344.36 262.784 342.056 265.496 342.056 269.072 342.056 272.648 344.456 275.336 347.576 275.336zM347.576 273.536C345.56 273.536 344.168 272.096 344.168 269.096 344.168 266.096 345.56 264.584 347.576 264.584 349.592 264.584 350.984 266.096 350.984 269.096 350.984 272.096 349.592 273.536 347.576 273.536zM360.199 275H362.935V273.2H360.463C359.623 273.2 359.263 272.84 359.263 272V264.848H362.503V263.12H359.263V259.4H357.223V263.12H354.463V264.848H357.223V272.12C357.223 274.088 358.231 275 360.199 275zM374.799 275.336C376.647 275.336 377.775 274.544 378.663 273.2 378.807 274.184 379.071 275 380.871 275H382.431V273.2H381.183C380.631 273.2 380.487 273.056 380.487 272.504V266.864C380.487 264.416 379.023 262.784 375.855 262.784 372.759 262.784 371.127 264.464 370.695 266.048L372.687 266.768C372.999 265.88 373.647 264.584 375.831 264.584 377.655 264.584 378.447 265.448 378.447 266.888V267.224C374.583 267.536 370.959 268.664 370.959 271.928 370.959 274.04 372.447 275.336 374.799 275.336zM375.279 273.608C373.791 273.608 373.071 272.888 373.071 271.76 373.071 269.816 375.543 269.072 378.447 268.76V270.08C378.447 272.552 376.839 273.608 375.279 273.608zM393.021 275H395.565L399.405 263.12H397.317L395.277 269.96 394.317 273.128C394.149 272.576 393.717 271.16 393.333 269.96L391.197 263.12H389.061L393.021 275zM405.01 275.336C406.858 275.336 407.986 274.544 408.874 273.2 409.018 274.184 409.282 275 411.082 275H412.642V273.2H411.394C410.842 273.2 410.698 273.056 410.698 272.504V266.864C410.698 264.416 409.234 262.784 406.066 262.784 402.97 262.784 401.338 264.464 400.906 266.048L402.898 266.768C403.21 265.88 403.858 264.584 406.042 264.584 407.866 264.584 408.658 265.448 408.658 266.888V267.224C404.794 267.536 401.17 268.664 401.17 271.928 401.17 274.04 402.658 275.336 405.01 275.336zM405.49 273.608C404.002 273.608 403.282 272.888 403.282 271.76 403.282 269.816 405.754 269.072 408.658 268.76V270.08C408.658 272.552 407.05 273.608 405.49 273.608zM414.828 275H416.868V258.2H414.828V275zM420.827 260.792H422.987V258.2H420.827V260.792zM420.899 275H422.939V263.12H420.899V275zM430.905 275.336C432.993 275.336 434.145 274.184 434.721 273.176V275H436.713V258.2H434.673V262.64 264.968C434.097 263.96 432.993 262.784 430.905 262.784 428.169 262.784 426.081 265.16 426.081 269.072 426.081 272.984 428.169 275.336 430.905 275.336zM431.433 273.536C429.537 273.536 428.169 272.408 428.169 269.096 428.169 265.784 429.537 264.584 431.433 264.584 433.377 264.584 434.793 266.096 434.793 269.096 434.793 272.096 433.377 273.536 431.433 273.536zM450.033 275.336C451.881 275.336 453.009 274.544 453.897 273.2 454.041 274.184 454.305 275 456.105 275H457.665V273.2H456.417C455.865 273.2 455.721 273.056 455.721 272.504V266.864C455.721 264.416 454.257 262.784 451.089 262.784 447.993 262.784 446.361 264.464 445.929 266.048L447.921 266.768C448.233 265.88 448.881 264.584 451.065 264.584 452.889 264.584 453.681 265.448 453.681 266.888V267.224C449.817 267.536 446.193 268.664 446.193 271.928 446.193 274.04 447.681 275.336 450.033 275.336zM450.513 273.608C449.025 273.608 448.305 272.888 448.305 271.76 448.305 269.816 450.777 269.072 453.681 268.76V270.08C453.681 272.552 452.073 273.608 450.513 273.608zM459.852 275H461.892V269.96C461.892 268.208 461.964 264.584 465.228 264.584 466.812 264.584 467.844 265.496 467.844 267.728V275H469.884V267.248C469.884 264.608 468.684 262.784 465.732 262.784 463.164 262.784 462.012 264.608 461.844 265.136V263.12H459.852V275zM477.758 275.336C480.758 275.336 482.486 273.92 482.486 271.688 482.486 268.976 479.678 268.256 478.478 268.016L477.11 267.752C475.406 267.416 475.022 266.936 475.022 266.144 475.022 265.28 475.79 264.464 477.446 264.464 479.462 264.464 480.134 265.736 480.422 266.528L482.27 265.856C481.79 264.296 480.398 262.784 477.446 262.784 475.118 262.784 473.102 264.224 473.102 266.36 473.102 268.616 474.83 269.36 476.798 269.744L478.166 270.008C479.894 270.344 480.446 270.968 480.446 271.856 480.446 272.984 479.486 273.584 477.758 273.584 475.886 273.584 474.926 272.696 474.566 271.28L472.598 271.928C473.126 274.208 475.334 275.336 477.758 275.336zM487.895 275H490.199L492.071 269.144C492.791 266.888 493.031 266.144 493.271 265.424L494.447 269.144 496.271 275H498.647L502.679 263.12H500.519L498.647 269.048C497.951 271.232 497.639 272.192 497.447 272.744L496.511 269.696 494.471 263.12H492.119L490.271 269.048 489.119 272.744C488.927 272.096 488.687 271.328 487.967 269.048L486.119 263.12H483.983L487.895 275zM509.715 275.336C511.947 275.336 513.939 274.328 514.827 271.904L512.955 271.256C512.643 272.024 511.803 273.56 509.787 273.56 508.131 273.56 506.475 272.6 506.355 269.6H514.731C515.187 265.712 513.051 262.784 509.595 262.784 506.571 262.784 504.339 265.208 504.339 269.12 504.339 273.152 506.475 275.336 509.715 275.336zM506.403 267.896C506.571 265.736 508.035 264.464 509.595 264.464 511.227 264.464 512.643 265.64 512.643 267.896H506.403zM518 275H520.04V269.552C520.04 266.768 521.144 265.064 523.832 265.064 524.312 265.064 524.72 265.112 525.104 265.184V263.096C524.816 263.024 524.456 262.952 523.88 262.952 521.624 262.952 520.4 264.704 520.016 265.592V263.12H518V275zM525.679 275H528.559V272H525.679V275z" fill="#DA372C"/><path d="M618.217 139.336C622.897 139.336 626.497 135.856 626.497 130.6 626.497 125.344 622.897 121.864 618.217 121.864 613.537 121.864 609.889 125.344 609.889 130.6 609.889 135.856 613.537 139.336 618.217 139.336zM618.193 137.296C614.449 137.296 612.193 134.44 612.193 130.6 612.193 126.76 614.449 123.904 618.193 123.904 621.937 123.904 624.193 126.76 624.193 130.6 624.193 134.44 621.937 137.296 618.193 137.296zM629.758 143.68H631.798V139.48 137.152C632.374 138.16 633.478 139.336 635.566 139.336 638.302 139.336 640.39 136.96 640.39 133.048 640.39 129.136 638.302 126.784 635.566 126.784 633.478 126.784 632.326 127.936 631.75 128.944V127.12H629.758V143.68zM635.038 137.536C633.094 137.536 631.678 136.024 631.678 133.024 631.678 130.024 633.094 128.584 635.038 128.584 636.934 128.584 638.302 129.712 638.302 133.024 638.302 136.336 636.934 137.536 635.038 137.536zM647.574 139H650.31V137.2H647.838C646.998 137.2 646.638 136.84 646.638 136V128.848H649.878V127.12H646.638V123.4H644.598V127.12H641.838V128.848H644.598V136.12C644.598 138.088 645.606 139 647.574 139zM652.819 124.792H654.979V122.2H652.819V124.792zM652.891 139H654.931V127.12H652.891V139zM663.545 139.336C666.665 139.336 669.065 136.648 669.065 133.072 669.065 129.496 666.761 126.784 663.545 126.784 660.329 126.784 658.025 129.496 658.025 133.072 658.025 136.648 660.425 139.336 663.545 139.336zM663.545 137.536C661.529 137.536 660.137 136.096 660.137 133.096 660.137 130.096 661.529 128.584 663.545 128.584 665.561 128.584 666.953 130.096 666.953 133.096 666.953 136.096 665.561 137.536 663.545 137.536zM672.157 139H674.197V133.96C674.197 132.208 674.269 128.584 677.533 128.584 679.117 128.584 680.149 129.496 680.149 131.728V139H682.189V131.248C682.189 128.608 680.989 126.784 678.037 126.784 675.469 126.784 674.317 128.608 674.149 129.136V127.12H672.157V139zM689.127 139.336C690.975 139.336 692.103 138.544 692.991 137.2 693.135 138.184 693.399 139 695.199 139H696.759V137.2H695.511C694.959 137.2 694.815 137.056 694.815 136.504V130.864C694.815 128.416 693.351 126.784 690.183 126.784 687.087 126.784 685.455 128.464 685.023 130.048L687.015 130.768C687.327 129.88 687.975 128.584 690.159 128.584 691.983 128.584 692.775 129.448 692.775 130.888V131.224C688.911 131.536 685.287 132.664 685.287 135.928 685.287 138.04 686.775 139.336 689.127 139.336zM689.607 137.608C688.119 137.608 687.399 136.888 687.399 135.76 687.399 133.816 689.871 133.072 692.775 132.76V134.08C692.775 136.552 691.167 137.608 689.607 137.608zM698.946 139H700.986V122.2H698.946V139zM241.472 139H243.632V132.328H248.12C251.672 132.328 253.664 130.24 253.664 127.264 253.664 124.288 251.696 122.2 248.144 122.2H241.472V139zM243.632 130.408V124.24H247.736C250.256 124.24 251.384 125.488 251.384 127.264 251.384 129.04 250.208 130.408 247.736 130.408H243.632zM256.438 139H258.478V122.2H256.438V139zM266.3 139.336C268.772 139.336 269.9 137.584 270.26 136.936V139H272.252V127.12H270.212V132.16C270.212 133.984 270.164 137.536 266.948 137.536 265.388 137.536 264.38 136.624 264.38 134.392V127.12H262.34V134.872C262.34 137.512 263.516 139.336 266.3 139.336zM280.417 139H283.153V137.2H280.681C279.841 137.2 279.481 136.84 279.481 136V128.848H282.721V127.12H279.481V123.4H277.441V127.12H274.681V128.848H277.441V136.12C277.441 138.088 278.449 139 280.417 139zM290.201 139.336C293.321 139.336 295.721 136.648 295.721 133.072 295.721 129.496 293.417 126.784 290.201 126.784 286.985 126.784 284.681 129.496 284.681 133.072 284.681 136.648 287.081 139.336 290.201 139.336zM290.201 137.536C288.185 137.536 286.793 136.096 286.793 133.096 286.793 130.096 288.185 128.584 290.201 128.584 292.217 128.584 293.609 130.096 293.609 133.096 293.609 136.096 292.217 137.536 290.201 137.536zM308.96 139.336C311.048 139.336 312.2 138.184 312.776 137.176V139H314.768V122.2H312.728V126.64 128.968C312.152 127.96 311.048 126.784 308.96 126.784 306.224 126.784 304.136 129.16 304.136 133.072 304.136 136.984 306.224 139.336 308.96 139.336zM309.488 137.536C307.592 137.536 306.224 136.408 306.224 133.096 306.224 129.784 307.592 128.584 309.488 128.584 311.432 128.584 312.848 130.096 312.848 133.096 312.848 136.096 311.432 137.536 309.488 137.536zM323.389 139.336C326.509 139.336 328.909 136.648 328.909 133.072 328.909 129.496 326.605 126.784 323.389 126.784 320.173 126.784 317.869 129.496 317.869 133.072 317.869 136.648 320.269 139.336 323.389 139.336zM323.389 137.536C321.373 137.536 319.981 136.096 319.981 133.096 319.981 130.096 321.373 128.584 323.389 128.584 325.405 128.584 326.797 130.096 326.797 133.096 326.797 136.096 325.405 137.536 323.389 137.536zM336.488 139.336C338.72 139.336 340.712 138.328 341.6 135.904L339.728 135.256C339.416 136.024 338.576 137.56 336.56 137.56 334.904 137.56 333.248 136.6 333.128 133.6H341.504C341.96 129.712 339.824 126.784 336.368 126.784 333.344 126.784 331.112 129.208 331.112 133.12 331.112 137.152 333.248 139.336 336.488 139.336zM333.176 131.896C333.344 129.736 334.808 128.464 336.368 128.464 338 128.464 339.416 129.64 339.416 131.896H333.176zM348.782 139.336C351.782 139.336 353.51 137.92 353.51 135.688 353.51 132.976 350.702 132.256 349.502 132.016L348.134 131.752C346.43 131.416 346.046 130.936 346.046 130.144 346.046 129.28 346.814 128.464 348.47 128.464 350.486 128.464 351.158 129.736 351.446 130.528L353.294 129.856C352.814 128.296 351.422 126.784 348.47 126.784 346.142 126.784 344.126 128.224 344.126 130.36 344.126 132.616 345.854 133.36 347.822 133.744L349.19 134.008C350.918 134.344 351.47 134.968 351.47 135.856 351.47 136.984 350.51 137.584 348.782 137.584 346.91 137.584 345.95 136.696 345.59 135.28L343.622 135.928C344.15 138.208 346.358 139.336 348.782 139.336zM356.563 139H358.603V133.96C358.603 132.208 358.675 128.584 361.939 128.584 363.523 128.584 364.555 129.496 364.555 131.728V139H366.595V131.248C366.595 128.608 365.395 126.784 362.443 126.784 359.875 126.784 358.723 128.608 358.555 129.136V127.12H356.563V139zM369.654 128.104H370.974L372.654 125.032V122.176H369.918V125.032H371.358L369.654 128.104zM380.05 139H382.786V137.2H380.314C379.474 137.2 379.114 136.84 379.114 136V128.848H382.354V127.12H379.114V123.4H377.074V127.12H374.314V128.848H377.074V136.12C377.074 138.088 378.082 139 380.05 139zM396.306 139.336C398.97 139.336 400.698 137.776 401.466 135.568L399.546 134.896C399.162 136.192 398.274 137.536 396.306 137.536 394.338 137.536 392.802 136.096 392.802 133.048 392.802 130.072 394.386 128.584 396.282 128.584 398.01 128.584 398.874 129.712 399.258 130.84L401.154 130.216C400.602 128.368 398.97 126.784 396.282 126.784 392.994 126.784 390.666 129.376 390.666 133.048 390.666 136.888 392.874 139.336 396.306 139.336zM408.772 139.336C411.892 139.336 414.292 136.648 414.292 133.072 414.292 129.496 411.988 126.784 408.772 126.784 405.556 126.784 403.252 129.496 403.252 133.072 403.252 136.648 405.652 139.336 408.772 139.336zM408.772 137.536C406.756 137.536 405.364 136.096 405.364 133.096 405.364 130.096 406.756 128.584 408.772 128.584 410.788 128.584 412.18 130.096 412.18 133.096 412.18 136.096 410.788 137.536 408.772 137.536zM421.175 139.336C423.647 139.336 424.775 137.584 425.135 136.936V139H427.127V127.12H425.087V132.16C425.087 133.984 425.039 137.536 421.823 137.536 420.263 137.536 419.255 136.624 419.255 134.392V127.12H417.215V134.872C417.215 137.512 418.391 139.336 421.175 139.336zM431.164 139H433.204V133.96C433.204 132.208 433.276 128.584 436.54 128.584 438.124 128.584 439.156 129.496 439.156 131.728V139H441.196V131.248C441.196 128.608 439.996 126.784 437.044 126.784 434.476 126.784 433.324 128.608 433.156 129.136V127.12H431.164V139zM449.191 139H451.927V137.2H449.455C448.615 137.2 448.255 136.84 448.255 136V128.848H451.495V127.12H448.255V123.4H446.215V127.12H443.455V128.848H446.215V136.12C446.215 138.088 447.223 139 449.191 139zM455.18 133.792H456.164L456.812 127.504V122.2H454.652V127.408L455.18 133.792zM454.292 139H457.172V136H454.292V139z" fill="#6E6E78"/><path d="M241.912 99.9999H246.072V91.1039H256.12V87.5199H246.072V81.1519H258.712V77.5999H241.912V99.9999zM264.777 100.48C267.465 100.48 269.161 99.1359 270.121 97.6319 270.313 99.0399 271.017 99.9999 273.033 99.9999H276.041V96.9279H274.537C273.705 96.9279 273.577 96.7359 273.577 95.9679V89.5359C273.577 85.6319 271.177 83.5839 266.793 83.5839 262.313 83.5839 259.817 85.9199 259.433 88.2879L263.049 89.2159C263.433 87.8079 264.425 86.5599 266.793 86.5599 268.841 86.5599 269.737 87.4879 269.737 89.0559V89.5999C264.457 90.0799 259.689 91.4559 259.689 95.9039 259.689 98.7199 261.801 100.48 264.777 100.48zM266.057 97.5359C264.457 97.5359 263.657 96.7359 263.657 95.5199 263.657 93.2479 266.441 92.5439 269.737 92.1599V93.4399C269.737 96.2879 267.945 97.5359 266.057 97.5359zM281.992 99.9999H286.696L292.264 84.0639H288.296L285.96 91.5199C285.096 94.3039 284.584 95.8399 284.36 96.6079 284.104 95.8719 283.624 94.3679 282.664 91.5199L280.232 84.0639H276.136L281.992 99.9999zM301.905 100.48C306.545 100.48 309.937 97.0879 309.937 92.0319 309.937 87.0399 306.577 83.5839 301.905 83.5839 297.233 83.5839 293.873 87.0399 293.873 92.0319 293.873 96.8959 297.265 100.48 301.905 100.48zM301.905 97.3119C299.537 97.3119 297.905 95.6479 297.905 92.0959 297.905 88.5439 299.537 86.7519 301.905 86.7519 304.273 86.7519 305.873 88.5439 305.873 92.0959 305.873 95.6479 304.273 97.3119 301.905 97.3119zM313.556 99.9999H317.46V93.2799C317.46 89.3759 318.9 87.7439 322.292 87.7439 322.868 87.7439 323.444 87.7759 324.02 87.8719V83.8719C323.732 83.8079 323.412 83.7759 322.964 83.7759 319.412 83.7759 317.908 86.3039 317.396 87.5839V84.0639H313.556V99.9999zM326.771 81.5359H330.931V77.5679H326.771V81.5359zM326.931 99.9999H330.803V84.0639H326.931V99.9999zM341.125 99.9999H345.861V96.7999H342.469C341.445 96.7999 340.997 96.3519 340.997 95.3279V87.1039H345.221V84.0639H340.997V79.0399H337.093V84.0639H333.637V87.1039H337.093V95.9359C337.093 98.4639 338.533 99.9999 341.125 99.9999zM355.462 100.48C359.654 100.48 361.894 98.3039 362.918 95.8399L359.398 94.5279C358.822 95.8719 357.766 97.4079 355.494 97.4079 353.446 97.4079 351.718 96.2239 351.558 92.9919H362.822C363.334 87.7119 360.486 83.5839 355.398 83.5839 350.982 83.5839 347.686 86.9439 347.686 92.0319 347.686 97.3439 350.758 100.48 355.462 100.48zM351.686 90.1119C351.974 87.8079 353.478 86.4959 355.398 86.4959 357.414 86.4959 358.822 87.7759 358.95 90.1119H351.686zM374.399 106.24H378.303V100.64 97.7279C379.039 98.9759 380.703 100.48 383.423 100.48 387.487 100.48 390.207 97.1199 390.207 92.0319 390.207 86.9119 387.487 83.5519 383.423 83.5519 380.671 83.5519 378.943 85.1519 378.207 86.3039V84.0639H374.399V106.24zM382.143 97.4079C379.775 97.4079 378.111 95.6159 378.111 91.9999 378.111 88.4159 379.775 86.6239 382.143 86.6239 384.415 86.6239 386.143 88.0319 386.143 91.9999 386.143 95.9999 384.415 97.4079 382.143 97.4079zM393.868 99.9999H397.772V77.5999H393.868V99.9999zM406.621 100.48C409.309 100.48 411.005 99.1359 411.965 97.6319 412.157 99.0399 412.861 99.9999 414.877 99.9999H417.885V96.9279H416.381C415.549 96.9279 415.421 96.7359 415.421 95.9679V89.5359C415.421 85.6319 413.021 83.5839 408.637 83.5839 404.157 83.5839 401.661 85.9199 401.277 88.2879L404.893 89.2159C405.277 87.8079 406.269 86.5599 408.637 86.5599 410.685 86.5599 411.581 87.4879 411.581 89.0559V89.5999C406.301 90.0799 401.533 91.4559 401.533 95.9039 401.533 98.7199 403.645 100.48 406.621 100.48zM407.901 97.5359C406.301 97.5359 405.501 96.7359 405.501 95.5199 405.501 93.2479 408.285 92.5439 411.581 92.1599V93.4399C411.581 96.2879 409.789 97.5359 407.901 97.5359zM420.431 99.9999H424.335V92.7359C424.335 90.7839 424.399 86.8479 427.983 86.8479 429.743 86.8479 430.863 87.8719 430.863 90.2719V99.9999H434.767V89.4079C434.767 85.9199 433.199 83.5839 429.391 83.5839 426.287 83.5839 424.751 85.6639 424.239 86.5919V84.0639H420.431V99.9999zM446.025 100.48C450.217 100.48 452.457 98.3039 453.481 95.8399L449.961 94.5279C449.385 95.8719 448.329 97.4079 446.057 97.4079 444.009 97.4079 442.281 96.2239 442.121 92.9919H453.385C453.897 87.7119 451.049 83.5839 445.961 83.5839 441.545 83.5839 438.249 86.9439 438.249 92.0319 438.249 97.3439 441.321 100.48 446.025 100.48zM442.249 90.1119C442.537 87.8079 444.041 86.4959 445.961 86.4959 447.977 86.4959 449.385 87.7759 449.513 90.1119H442.249zM462.594 99.9999H467.33V96.7999H463.938C462.914 96.7999 462.466 96.3519 462.466 95.3279V87.1039H466.69V84.0639H462.466V79.0399H458.562V84.0639H455.106V87.1039H458.562V95.9359C458.562 98.4639 460.002 99.9999 462.594 99.9999z" fill="#1D1D21"/><path opacity="0.2" fill="#DA372C" d="M239 237H703V249H239zM239 149H703V161H239z"/><path d="M195 198C194.448 198 194 198.448 194 199C194 199.552 194.448 200 195 200V198ZM375.707 199.707C376.098 199.317 376.098 198.683 375.707 198.293L369.343 191.929C368.953 191.538 368.319 191.538 367.929 191.929C367.538 192.319 367.538 192.953 367.929 193.343L373.586 199L367.929 204.657C367.538 205.047 367.538 205.681 367.929 206.071C368.319 206.462 368.953 206.462 369.343 206.071L375.707 199.707ZM195 200L375 200V198L195 198V200Z" fill="#DA372C"/><path d="M70.7104 204H72.1504V192.8H70.7104V204zM75.1408 204H76.5008V200.64C76.5008 199.472 76.5488 197.056 78.7248 197.056 79.7808 197.056 80.4688 197.664 80.4688 199.152V204H81.8288V198.832C81.8288 197.072 81.0288 195.856 79.0608 195.856 77.3488 195.856 76.5808 197.072 76.4688 197.424V196.08H75.1408V204zM84.4064 207.12H85.7664V204.32 202.768C86.1504 203.44 86.8864 204.224 88.2784 204.224 90.1024 204.224 91.4944 202.64 91.4944 200.032 91.4944 197.424 90.1024 195.856 88.2784 195.856 86.8864 195.856 86.1185 196.624 85.7345 197.296V196.08H84.4064V207.12zM87.9264 203.024C86.6304 203.024 85.6865 202.016 85.6865 200.016 85.6865 198.016 86.6304 197.056 87.9264 197.056 89.1904 197.056 90.1024 197.808 90.1024 200.016 90.1024 202.224 89.1904 203.024 87.9264 203.024zM96.1219 204.224C97.7699 204.224 98.5219 203.056 98.7619 202.624V204H100.09V196.08H98.7299V199.44C98.7299 200.656 98.6979 203.024 96.5539 203.024 95.5139 203.024 94.8419 202.416 94.8419 200.928V196.08H93.4819V201.248C93.4819 203.008 94.2659 204.224 96.1219 204.224zM105.533 204H107.357V202.8H105.709C105.149 202.8 104.909 202.56 104.909 202V197.232H107.069V196.08H104.909V193.6H103.549V196.08H101.709V197.232H103.549V202.08C103.549 203.392 104.221 204 105.533 204zM114.499 207.12H118.195C119.539 207.12 120.675 206.416 120.675 204.944 120.675 203.616 119.683 202.752 118.163 202.752H114.707C114.147 202.752 114.035 202.464 114.035 202.208 114.035 201.92 114.323 201.616 114.755 201.424 115.187 201.68 115.683 201.728 116.227 201.728 117.987 201.728 119.187 200.56 119.315 198.768L119.347 198.336C119.411 197.408 119.683 197.232 120.403 197.232H121.011V196.08H120.163C119.395 196.08 119.027 196.608 118.867 197.216 118.531 196.656 117.699 195.856 116.227 195.856 114.403 195.856 113.075 197.152 113.075 198.8 113.075 199.792 113.507 200.512 113.955 200.912 113.443 201.28 112.787 201.808 112.787 202.592 112.787 203.216 113.043 203.584 113.491 203.856 113.011 204.128 112.435 204.72 112.435 205.52 112.435 206.448 112.979 207.12 114.499 207.12zM116.227 200.608C115.155 200.608 114.451 199.888 114.451 198.8 114.451 197.712 115.155 196.976 116.227 196.976 117.299 196.976 118.003 197.712 118.003 198.8 118.003 199.888 117.299 200.608 116.227 200.608zM114.963 205.904C114.131 205.904 113.683 205.728 113.683 205.072 113.683 204.528 114.035 204.176 114.307 204H118.051C118.675 204 119.299 204.128 119.299 204.944 119.299 205.76 118.675 205.904 118.051 205.904H114.963zM125.509 204.224C127.589 204.224 129.189 202.432 129.189 200.048 129.189 197.664 127.653 195.856 125.509 195.856 123.365 195.856 121.829 197.664 121.829 200.048 121.829 202.432 123.429 204.224 125.509 204.224zM125.509 203.024C124.165 203.024 123.237 202.064 123.237 200.064 123.237 198.064 124.165 197.056 125.509 197.056 126.853 197.056 127.781 198.064 127.781 200.064 127.781 202.064 126.853 203.024 125.509 203.024zM134.242 204.224C135.73 204.224 137.058 203.552 137.65 201.936L136.402 201.504C136.194 202.016 135.634 203.04 134.29 203.04 133.186 203.04 132.082 202.4 132.002 200.4H137.586C137.89 197.808 136.466 195.856 134.162 195.856 132.146 195.856 130.658 197.472 130.658 200.08 130.658 202.768 132.082 204.224 134.242 204.224zM132.034 199.264C132.146 197.824 133.122 196.976 134.162 196.976 135.25 196.976 136.194 197.76 136.194 199.264H132.034zM142.438 204.224C144.438 204.224 145.59 203.28 145.59 201.792 145.59 199.984 143.718 199.504 142.918 199.344L142.006 199.168C140.87 198.944 140.614 198.624 140.614 198.096 140.614 197.52 141.126 196.976 142.23 196.976 143.574 196.976 144.022 197.824 144.214 198.352L145.446 197.904C145.126 196.864 144.198 195.856 142.23 195.856 140.678 195.856 139.334 196.816 139.334 198.24 139.334 199.744 140.486 200.24 141.798 200.496L142.71 200.672C143.862 200.896 144.23 201.312 144.23 201.904 144.23 202.656 143.59 203.056 142.438 203.056 141.19 203.056 140.55 202.464 140.31 201.52L138.998 201.952C139.35 203.472 140.822 204.224 142.438 204.224zM151.766 204H153.126V200.64C153.126 199.472 153.174 197.056 155.35 197.056 156.406 197.056 157.094 197.664 157.094 199.152V204H158.454V198.832C158.454 197.072 157.59 195.856 155.782 195.856 153.91 195.856 153.238 197.072 153.126 197.424V195.76 192.8H151.766V204zM164.023 204.224C165.511 204.224 166.839 203.552 167.431 201.936L166.183 201.504C165.975 202.016 165.415 203.04 164.071 203.04 162.967 203.04 161.863 202.4 161.783 200.4H167.367C167.671 197.808 166.247 195.856 163.943 195.856 161.927 195.856 160.439 197.472 160.439 200.08 160.439 202.768 161.863 204.224 164.023 204.224zM161.815 199.264C161.927 197.824 162.903 196.976 163.943 196.976 165.031 196.976 165.975 197.76 165.975 199.264H161.815zM169.547 204H170.907V200.368C170.907 198.512 171.643 197.376 173.435 197.376 173.755 197.376 174.027 197.408 174.283 197.456V196.064C174.091 196.016 173.851 195.968 173.467 195.968 171.963 195.968 171.147 197.136 170.891 197.728V196.08H169.547V204zM178.758 204.224C180.246 204.224 181.574 203.552 182.166 201.936L180.918 201.504C180.71 202.016 180.15 203.04 178.806 203.04 177.702 203.04 176.598 202.4 176.518 200.4H182.102C182.406 197.808 180.982 195.856 178.678 195.856 176.662 195.856 175.174 197.472 175.174 200.08 175.174 202.768 176.598 204.224 178.758 204.224zM176.55 199.264C176.662 197.824 177.638 196.976 178.678 196.976 179.766 196.976 180.71 197.76 180.71 199.264H176.55z" fill="#6E6E78"/><path d="M195 88C194.448 88 194 88.4477 194 89C194 89.5523 194.448 90 195 90V88ZM227.707 89.7071C228.098 89.3166 228.098 88.6834 227.707 88.2929L221.343 81.9289C220.953 81.5384 220.319 81.5384 219.929 81.9289C219.538 82.3195 219.538 82.9526 219.929 83.3431L225.586 89L219.929 94.6569C219.538 95.0474 219.538 95.6805 219.929 96.0711C220.319 96.4616 220.953 96.4616 221.343 96.0711L227.707 89.7071ZM195 90H227V88H195V90Z" fill="#DA372C"/><path d="M109.648 93.9998H111.088V89.1998H116.272V87.8398H111.088V84.1598H117.696V82.7998H109.648V93.9998zM119.374 84.5278H120.814V82.7998H119.374V84.5278zM119.422 93.9998H120.782V86.0798H119.422V93.9998zM126.461 94.2238C127.949 94.2238 129.277 93.5518 129.869 91.9358L128.621 91.5038C128.413 92.0158 127.853 93.0398 126.509 93.0398 125.405 93.0398 124.301 92.3998 124.221 90.3998H129.805C130.109 87.8078 128.685 85.8558 126.381 85.8558 124.365 85.8558 122.877 87.4718 122.877 90.0798 122.877 92.7678 124.301 94.2238 126.461 94.2238zM124.253 89.2638C124.365 87.8238 125.341 86.9758 126.381 86.9758 127.469 86.9758 128.413 87.7598 128.413 89.2638H124.253zM131.985 93.9998H133.345V82.7998H131.985V93.9998zM138.655 94.2238C140.047 94.2238 140.815 93.4558 141.199 92.7838V93.9998H142.527V82.7998H141.167V85.7598 87.3118C140.783 86.6398 140.047 85.8558 138.655 85.8558 136.831 85.8558 135.439 87.4398 135.439 90.0478 135.439 92.6558 136.831 94.2238 138.655 94.2238zM139.007 93.0238C137.743 93.0238 136.831 92.2718 136.831 90.0638 136.831 87.8558 137.743 87.0558 139.007 87.0558 140.303 87.0558 141.247 88.0638 141.247 90.0638 141.247 92.0638 140.303 93.0238 139.007 93.0238zM149.36 93.9998H150.72V82.7998H149.36V93.9998zM156.03 94.2238C157.422 94.2238 158.19 93.4558 158.574 92.7838V93.9998H159.902V86.0798H158.542V87.3118C158.158 86.6398 157.422 85.8558 156.03 85.8558 154.206 85.8558 152.814 87.4398 152.814 90.0478 152.814 92.6558 154.206 94.2238 156.03 94.2238zM156.382 93.0238C155.118 93.0238 154.206 92.2718 154.206 90.0638 154.206 87.8558 155.118 87.0558 156.382 87.0558 157.678 87.0558 158.622 88.0638 158.622 90.0638 158.622 92.0638 157.678 93.0238 156.382 93.0238zM166.466 94.2238C168.29 94.2238 169.682 92.6398 169.682 90.0318 169.682 87.4238 168.29 85.8558 166.466 85.8558 165.074 85.8558 164.338 86.6238 163.954 87.2958V85.7598 82.7998H162.594V93.9998H163.922V92.7678C164.306 93.4398 165.074 94.2238 166.466 94.2238zM166.114 93.0238C164.818 93.0238 163.874 92.0158 163.874 90.0158 163.874 88.0158 164.818 87.0558 166.114 87.0558 167.378 87.0558 168.29 87.8078 168.29 90.0158 168.29 92.2238 167.378 93.0238 166.114 93.0238zM174.773 94.2238C176.261 94.2238 177.589 93.5518 178.181 91.9358L176.933 91.5038C176.725 92.0158 176.165 93.0398 174.821 93.0398 173.717 93.0398 172.613 92.3998 172.533 90.3998H178.117C178.421 87.8078 176.997 85.8558 174.693 85.8558 172.677 85.8558 171.189 87.4718 171.189 90.0798 171.189 92.7678 172.613 94.2238 174.773 94.2238zM172.565 89.2638C172.677 87.8238 173.653 86.9758 174.693 86.9758 175.781 86.9758 176.725 87.7598 176.725 89.2638H172.565zM180.297 93.9998H181.657V82.7998H180.297V93.9998z" fill="#6E6E78"/><path d="M195 126C194.448 126 194 126.448 194 127C194 127.552 194.448 128 195 128V126ZM227.707 127.707C228.098 127.317 228.098 126.683 227.707 126.293L221.343 119.929C220.953 119.538 220.319 119.538 219.929 119.929C219.538 120.319 219.538 120.953 219.929 121.343L225.586 127L219.929 132.657C219.538 133.047 219.538 133.681 219.929 134.071C220.319 134.462 220.953 134.462 221.343 134.071L227.707 127.707ZM195 128H227V126H195V128Z" fill="#DA372C"/><path d="M115.757 132H117.197V127.2H122.381V125.84H117.197V122.16H123.805V120.8H115.757V132zM125.483 122.528H126.923V120.8H125.483V122.528zM125.531 132H126.891V124.08H125.531V132zM132.57 132.224C134.058 132.224 135.386 131.552 135.978 129.936L134.73 129.504C134.522 130.016 133.962 131.04 132.618 131.04 131.514 131.04 130.41 130.4 130.33 128.4H135.914C136.218 125.808 134.794 123.856 132.49 123.856 130.474 123.856 128.986 125.472 128.986 128.08 128.986 130.768 130.41 132.224 132.57 132.224zM130.362 127.264C130.474 125.824 131.45 124.976 132.49 124.976 133.578 124.976 134.522 125.76 134.522 127.264H130.362zM138.094 132H139.454V120.8H138.094V132zM144.765 132.224C146.157 132.224 146.925 131.456 147.309 130.784V132H148.637V120.8H147.277V123.76 125.312C146.893 124.64 146.157 123.856 144.765 123.856 142.941 123.856 141.549 125.44 141.549 128.048 141.549 130.656 142.941 132.224 144.765 132.224zM145.117 131.024C143.853 131.024 142.941 130.272 142.941 128.064 142.941 125.856 143.853 125.056 145.117 125.056 146.413 125.056 147.357 126.064 147.357 128.064 147.357 130.064 146.413 131.024 145.117 131.024zM155.469 132H156.829V128.64C156.829 127.472 156.877 125.056 159.053 125.056 160.109 125.056 160.797 125.664 160.797 127.152V132H162.157V126.832C162.157 125.072 161.293 123.856 159.485 123.856 157.613 123.856 156.941 125.072 156.829 125.424V123.76 120.8H155.469V132zM164.687 122.528H166.127V120.8H164.687V122.528zM164.735 132H166.095V124.08H164.735V132zM168.781 132H170.141V128.64C170.141 127.472 170.189 125.056 172.365 125.056 173.421 125.056 174.109 125.664 174.109 127.152V132H175.469V126.832C175.469 125.072 174.669 123.856 172.701 123.856 170.989 123.856 170.221 125.072 170.109 125.424V124.08H168.781V132zM180.799 132H182.623V130.8H180.975C180.415 130.8 180.175 130.56 180.175 130V125.232H182.335V124.08H180.175V121.6H178.815V124.08H176.975V125.232H178.815V130.08C178.815 131.392 179.487 132 180.799 132z" fill="#6E6E78"/><path d="M195 266C194.448 266 194 266.448 194 267C194 267.552 194.448 268 195 268V266ZM227.707 267.707C228.098 267.317 228.098 266.683 227.707 266.293L221.343 259.929C220.953 259.538 220.319 259.538 219.929 259.929C219.538 260.319 219.538 260.953 219.929 261.343L225.586 267L219.929 272.657C219.538 273.047 219.538 273.681 219.929 274.071C220.319 274.462 220.953 274.462 221.343 274.071L227.707 267.707ZM195 268H227V266H195V268Z" fill="#DA372C"/><path d="M77.8042 272H85.6122V270.64H79.2442V266.864H83.9482V265.52H79.2442V262.16H85.6122V260.8H77.8042V272zM87.5627 272H88.9227V268.368C88.9227 266.512 89.6587 265.376 91.4507 265.376 91.7707 265.376 92.0427 265.408 92.2987 265.456V264.064C92.1067 264.016 91.8667 263.968 91.4827 263.968 89.9787 263.968 89.1627 265.136 88.9067 265.728V264.08H87.5627V272zM93.9064 272H95.2664V268.368C95.2664 266.512 96.0024 265.376 97.7944 265.376 98.1144 265.376 98.3864 265.408 98.6424 265.456V264.064C98.4504 264.016 98.2104 263.968 97.8264 263.968 96.3224 263.968 95.5064 265.136 95.2504 265.728V264.08H93.9064V272zM103.181 272.224C105.261 272.224 106.861 270.432 106.861 268.048 106.861 265.664 105.325 263.856 103.181 263.856 101.037 263.856 99.5012 265.664 99.5012 268.048 99.5012 270.432 101.101 272.224 103.181 272.224zM103.181 271.024C101.837 271.024 100.909 270.064 100.909 268.064 100.909 266.064 101.837 265.056 103.181 265.056 104.525 265.056 105.453 266.064 105.453 268.064 105.453 270.064 104.525 271.024 103.181 271.024zM108.922 272H110.282V268.368C110.282 266.512 111.018 265.376 112.81 265.376 113.13 265.376 113.402 265.408 113.658 265.456V264.064C113.466 264.016 113.226 263.968 112.842 263.968 111.338 263.968 110.522 265.136 110.266 265.728V264.08H108.922V272zM118.969 272H120.329V268.32C120.329 267.184 120.425 265.072 122.361 265.072 123.417 265.072 124.121 265.616 124.121 267.152V272H125.449V268.32C125.449 267.184 125.497 265.072 127.497 265.072 128.553 265.072 129.241 265.616 129.241 267.152V272H130.601V266.752C130.601 264.912 129.641 263.856 127.833 263.856 126.153 263.856 125.449 264.896 125.177 265.552 124.777 264.48 123.849 263.856 122.681 263.856 121.257 263.856 120.585 264.768 120.297 265.28V264.08H118.969V272zM136.164 272.224C137.652 272.224 138.98 271.552 139.572 269.936L138.324 269.504C138.116 270.016 137.556 271.04 136.212 271.04 135.108 271.04 134.004 270.4 133.924 268.4H139.508C139.812 265.808 138.388 263.856 136.084 263.856 134.068 263.856 132.58 265.472 132.58 268.08 132.58 270.768 134.004 272.224 136.164 272.224zM133.956 267.264C134.068 265.824 135.044 264.976 136.084 264.976 137.172 264.976 138.116 265.76 138.116 267.264H133.956zM144.36 272.224C146.36 272.224 147.512 271.28 147.512 269.792 147.512 267.984 145.64 267.504 144.84 267.344L143.928 267.168C142.792 266.944 142.536 266.624 142.536 266.096 142.536 265.52 143.048 264.976 144.152 264.976 145.496 264.976 145.944 265.824 146.136 266.352L147.368 265.904C147.048 264.864 146.12 263.856 144.152 263.856 142.6 263.856 141.256 264.816 141.256 266.24 141.256 267.744 142.408 268.24 143.72 268.496L144.632 268.672C145.784 268.896 146.152 269.312 146.152 269.904 146.152 270.656 145.512 271.056 144.36 271.056 143.112 271.056 142.472 270.464 142.232 269.52L140.92 269.952C141.272 271.472 142.744 272.224 144.36 272.224zM152.219 272.224C154.219 272.224 155.371 271.28 155.371 269.792 155.371 267.984 153.499 267.504 152.699 267.344L151.787 267.168C150.651 266.944 150.395 266.624 150.395 266.096 150.395 265.52 150.907 264.976 152.011 264.976 153.355 264.976 153.803 265.824 153.995 266.352L155.227 265.904C154.907 264.864 153.979 263.856 152.011 263.856 150.459 263.856 149.115 264.816 149.115 266.24 149.115 267.744 150.267 268.24 151.579 268.496L152.491 268.672C153.643 268.896 154.011 269.312 154.011 269.904 154.011 270.656 153.371 271.056 152.219 271.056 150.971 271.056 150.331 270.464 150.091 269.52L148.779 269.952C149.131 271.472 150.603 272.224 152.219 272.224zM160.03 272.224C161.422 272.224 162.19 271.456 162.574 270.784V272H163.902V264.08H162.542V265.312C162.158 264.64 161.422 263.856 160.03 263.856 158.206 263.856 156.814 265.44 156.814 268.048 156.814 270.656 158.206 272.224 160.03 272.224zM160.382 271.024C159.118 271.024 158.206 270.272 158.206 268.064 158.206 265.856 159.118 265.056 160.382 265.056 161.678 265.056 162.622 266.064 162.622 268.064 162.622 270.064 161.678 271.024 160.382 271.024zM167.874 275.12H171.57C172.914 275.12 174.05 274.416 174.05 272.944 174.05 271.616 173.058 270.752 171.538 270.752H168.082C167.522 270.752 167.41 270.464 167.41 270.208 167.41 269.92 167.698 269.616 168.13 269.424 168.562 269.68 169.058 269.728 169.602 269.728 171.362 269.728 172.562 268.56 172.69 266.768L172.722 266.336C172.786 265.408 173.058 265.232 173.778 265.232H174.386V264.08H173.538C172.77 264.08 172.402 264.608 172.242 265.216 171.906 264.656 171.074 263.856 169.602 263.856 167.778 263.856 166.45 265.152 166.45 266.8 166.45 267.792 166.882 268.512 167.33 268.912 166.818 269.28 166.162 269.808 166.162 270.592 166.162 271.216 166.418 271.584 166.866 271.856 166.386 272.128 165.81 272.72 165.81 273.52 165.81 274.448 166.354 275.12 167.874 275.12zM169.602 268.608C168.53 268.608 167.826 267.888 167.826 266.8 167.826 265.712 168.53 264.976 169.602 264.976 170.674 264.976 171.378 265.712 171.378 266.8 171.378 267.888 170.674 268.608 169.602 268.608zM168.338 273.904C167.506 273.904 167.058 273.728 167.058 273.072 167.058 272.528 167.41 272.176 167.682 272H171.426C172.05 272 172.674 272.128 172.674 272.944 172.674 273.76 172.05 273.904 171.426 273.904H168.338zM178.82 272.224C180.308 272.224 181.636 271.552 182.228 269.936L180.98 269.504C180.772 270.016 180.212 271.04 178.868 271.04 177.764 271.04 176.66 270.4 176.58 268.4H182.164C182.468 265.808 181.044 263.856 178.74 263.856 176.724 263.856 175.236 265.472 175.236 268.08 175.236 270.768 176.66 272.224 178.82 272.224zM176.612 267.264C176.724 265.824 177.7 264.976 178.74 264.976 179.828 264.976 180.772 265.76 180.772 267.264H176.612z" fill="#6E6E78"/><path d="M747 242C747.552 242 748 242.448 748 243C748 243.552 747.552 244 747 244V242ZM714.293 243.707C713.902 243.317 713.902 242.683 714.293 242.293L720.657 235.929C721.047 235.538 721.681 235.538 722.071 235.929C722.462 236.319 722.462 236.953 722.071 237.343L716.414 243L722.071 248.657C722.462 249.047 722.462 249.681 722.071 250.071C721.681 250.462 721.047 250.462 720.657 250.071L714.293 243.707ZM747 244H715V242H747V244Z" fill="#DA372C"/><path d="M764.6 249.68H765.8V248.208C768.072 248.032 769.32 246.72 769.32 244.896 769.32 243.2 768.056 242.24 766.28 241.792L765.8 241.664V237.952C767.096 238.208 767.608 239.2 767.816 239.792L769.144 239.136C768.856 238.192 767.816 236.832 765.8 236.608V235.12H764.6V236.608C762.696 236.832 761.432 238.064 761.432 239.712 761.432 241.568 762.584 242.384 764.232 242.736L764.6 242.816V246.848C763.352 246.576 762.6 245.664 762.232 244.544L760.872 245.2C761.368 246.768 762.632 247.952 764.6 248.192V249.68zM764.6 241.392C763.352 241.072 762.808 240.592 762.808 239.632 762.808 238.72 763.48 238.032 764.6 237.904V239.968 241.392zM765.8 246.912V244.848 243.088C767.192 243.408 767.864 244.032 767.864 245.024 767.864 246.064 767.112 246.784 765.8 246.912zM774.016 248.224C776.016 248.224 777.168 247.28 777.168 245.792 777.168 243.984 775.296 243.504 774.496 243.344L773.584 243.168C772.448 242.944 772.192 242.624 772.192 242.096 772.192 241.52 772.704 240.976 773.808 240.976 775.152 240.976 775.6 241.824 775.792 242.352L777.024 241.904C776.704 240.864 775.776 239.856 773.808 239.856 772.256 239.856 770.912 240.816 770.912 242.24 770.912 243.744 772.064 244.24 773.376 244.496L774.288 244.672C775.44 244.896 775.808 245.312 775.808 245.904 775.808 246.656 775.168 247.056 774.016 247.056 772.768 247.056 772.128 246.464 771.888 245.52L770.576 245.952C770.928 247.472 772.4 248.224 774.016 248.224zM779.203 251.12H780.563V248.32 246.768C780.947 247.44 781.683 248.224 783.075 248.224 784.899 248.224 786.291 246.64 786.291 244.032 786.291 241.424 784.899 239.856 783.075 239.856 781.683 239.856 780.915 240.624 780.531 241.296V240.08H779.203V251.12zM782.723 247.024C781.427 247.024 780.483 246.016 780.483 244.016 780.483 242.016 781.427 241.056 782.723 241.056 783.987 241.056 784.899 241.808 784.899 244.016 784.899 246.224 783.987 247.024 782.723 247.024zM791.015 248.224C792.407 248.224 793.175 247.456 793.559 246.784V248H794.887V240.08H793.527V241.312C793.143 240.64 792.407 239.856 791.015 239.856 789.191 239.856 787.799 241.44 787.799 244.048 787.799 246.656 789.191 248.224 791.015 248.224zM791.367 247.024C790.103 247.024 789.191 246.272 789.191 244.064 789.191 241.856 790.103 241.056 791.367 241.056 792.663 241.056 793.607 242.064 793.607 244.064 793.607 246.064 792.663 247.024 791.367 247.024zM800.73 248.224C802.506 248.224 803.658 247.184 804.17 245.712L802.89 245.264C802.634 246.128 802.042 247.024 800.73 247.024 799.418 247.024 798.394 246.064 798.394 244.032 798.394 242.048 799.45 241.056 800.714 241.056 801.866 241.056 802.442 241.808 802.698 242.56L803.962 242.144C803.594 240.912 802.506 239.856 800.714 239.856 798.522 239.856 796.97 241.584 796.97 244.032 796.97 246.592 798.442 248.224 800.73 248.224zM805.937 238.528H807.377V236.8H805.937V238.528zM805.985 248H807.345V240.08H805.985V248zM810.032 248H811.392V244.64C811.392 243.472 811.44 241.056 813.616 241.056 814.672 241.056 815.36 241.664 815.36 243.152V248H816.72V242.832C816.72 241.072 815.92 239.856 813.952 239.856 812.24 239.856 811.472 241.072 811.36 241.424V240.08H810.032V248zM820.577 251.12H824.273C825.617 251.12 826.753 250.416 826.753 248.944 826.753 247.616 825.761 246.752 824.241 246.752H820.785C820.225 246.752 820.113 246.464 820.113 246.208 820.113 245.92 820.401 245.616 820.833 245.424 821.265 245.68 821.761 245.728 822.305 245.728 824.065 245.728 825.265 244.56 825.393 242.768L825.425 242.336C825.489 241.408 825.761 241.232 826.481 241.232H827.089V240.08H826.241C825.473 240.08 825.105 240.608 824.945 241.216 824.609 240.656 823.777 239.856 822.305 239.856 820.481 239.856 819.153 241.152 819.153 242.8 819.153 243.792 819.585 244.512 820.033 244.912 819.521 245.28 818.865 245.808 818.865 246.592 818.865 247.216 819.121 247.584 819.569 247.856 819.089 248.128 818.513 248.72 818.513 249.52 818.513 250.448 819.057 251.12 820.577 251.12zM822.305 244.608C821.233 244.608 820.529 243.888 820.529 242.8 820.529 241.712 821.233 240.976 822.305 240.976 823.377 240.976 824.081 241.712 824.081 242.8 824.081 243.888 823.377 244.608 822.305 244.608zM821.041 249.904C820.209 249.904 819.761 249.728 819.761 249.072 819.761 248.528 820.113 248.176 820.385 248H824.129C824.753 248 825.377 248.128 825.377 248.944 825.377 249.76 824.753 249.904 824.129 249.904H821.041zM828.245 243.776H832.661V242.336H828.245V243.776zM833.71 248H835.198L836.206 246.496 837.214 244.976C837.438 245.328 837.614 245.6 838.206 246.496L839.198 248H840.83L838.078 243.968 840.67 240.08H839.166L838.302 241.44C837.694 242.384 837.502 242.672 837.278 242.992 837.086 242.672 836.91 242.384 836.318 241.44L835.454 240.08H833.87L836.43 243.952 833.71 248zM845.157 248.224C847.157 248.224 848.309 247.28 848.309 245.792 848.309 243.984 846.437 243.504 845.637 243.344L844.725 243.168C843.589 242.944 843.333 242.624 843.333 242.096 843.333 241.52 843.845 240.976 844.949 240.976 846.293 240.976 846.741 241.824 846.933 242.352L848.165 241.904C847.845 240.864 846.917 239.856 844.949 239.856 843.397 239.856 842.053 240.816 842.053 242.24 842.053 243.744 843.205 244.24 844.517 244.496L845.429 244.672C846.581 244.896 846.949 245.312 846.949 245.904 846.949 246.656 846.309 247.056 845.157 247.056 843.909 247.056 843.269 246.464 843.029 245.52L841.717 245.952C842.069 247.472 843.541 248.224 845.157 248.224z" fill="#6E6E78"/><path d="M747 132C747.552 132 748 131.552 748 131C748 130.448 747.552 130 747 130V132ZM714.293 130.293C713.902 130.683 713.902 131.317 714.293 131.707L720.657 138.071C721.047 138.462 721.681 138.462 722.071 138.071C722.462 137.681 722.462 137.047 722.071 136.657L716.414 131L722.071 125.343C722.462 124.953 722.462 124.319 722.071 123.929C721.681 123.538 721.047 123.538 720.657 123.929L714.293 130.293ZM747 130H715V132H747V130Z" fill="#DA372C"/><path d="M765.384 136.224C768.504 136.224 770.904 133.904 770.904 130.4 770.904 126.896 768.504 124.576 765.384 124.576 762.264 124.576 759.832 126.896 759.832 130.4 759.832 133.904 762.264 136.224 765.384 136.224zM765.368 134.864C762.872 134.864 761.368 132.96 761.368 130.4 761.368 127.84 762.872 125.936 765.368 125.936 767.864 125.936 769.368 127.84 769.368 130.4 769.368 132.96 767.864 134.864 765.368 134.864zM773.078 139.12H774.438V136.32 134.768C774.822 135.44 775.558 136.224 776.95 136.224 778.774 136.224 780.166 134.64 780.166 132.032 780.166 129.424 778.774 127.856 776.95 127.856 775.558 127.856 774.79 128.624 774.406 129.296V128.08H773.078V139.12zM776.598 135.024C775.302 135.024 774.358 134.016 774.358 132.016 774.358 130.016 775.302 129.056 776.598 129.056 777.862 129.056 778.774 129.808 778.774 132.016 778.774 134.224 777.862 135.024 776.598 135.024zM784.955 136H786.779V134.8H785.131C784.571 134.8 784.331 134.56 784.331 134V129.232H786.491V128.08H784.331V125.6H782.971V128.08H781.131V129.232H782.971V134.08C782.971 135.392 783.643 136 784.955 136zM788.452 126.528H789.892V124.8H788.452V126.528zM788.5 136H789.86V128.08H788.5V136zM795.603 136.224C797.683 136.224 799.283 134.432 799.283 132.048 799.283 129.664 797.747 127.856 795.603 127.856 793.459 127.856 791.923 129.664 791.923 132.048 791.923 134.432 793.523 136.224 795.603 136.224zM795.603 135.024C794.259 135.024 793.331 134.064 793.331 132.064 793.331 130.064 794.259 129.056 795.603 129.056 796.947 129.056 797.875 130.064 797.875 132.064 797.875 134.064 796.947 135.024 795.603 135.024zM801.344 136H802.704V132.64C802.704 131.472 802.752 129.056 804.928 129.056 805.984 129.056 806.672 129.664 806.672 131.152V136H808.032V130.832C808.032 129.072 807.232 127.856 805.264 127.856 803.552 127.856 802.784 129.072 802.672 129.424V128.08H801.344V136zM813.234 136.224C814.626 136.224 815.394 135.456 815.778 134.784V136H817.106V128.08H815.746V129.312C815.362 128.64 814.626 127.856 813.234 127.856 811.41 127.856 810.018 129.44 810.018 132.048 810.018 134.656 811.41 136.224 813.234 136.224zM813.586 135.024C812.322 135.024 811.41 134.272 811.41 132.064 811.41 129.856 812.322 129.056 813.586 129.056 814.882 129.056 815.826 130.064 815.826 132.064 815.826 134.064 814.882 135.024 813.586 135.024zM819.797 136H821.157V124.8H819.797V136zM760.344 164H761.704V152.8H760.344V164zM767.015 164.224C768.407 164.224 769.175 163.456 769.559 162.784V164H770.887V156.08H769.527V157.312C769.143 156.64 768.407 155.856 767.015 155.856 765.191 155.856 763.799 157.44 763.799 160.048 763.799 162.656 765.191 164.224 767.015 164.224zM767.367 163.024C766.103 163.024 765.191 162.272 765.191 160.064 765.191 157.856 766.103 157.056 767.367 157.056 768.663 157.056 769.607 158.064 769.607 160.064 769.607 162.064 768.663 163.024 767.367 163.024zM777.45 164.224C779.274 164.224 780.666 162.64 780.666 160.032 780.666 157.424 779.274 155.856 777.45 155.856 776.058 155.856 775.322 156.624 774.938 157.296V155.76 152.8H773.578V164H774.906V162.768C775.29 163.44 776.058 164.224 777.45 164.224zM777.098 163.024C775.802 163.024 774.858 162.016 774.858 160.016 774.858 158.016 775.802 157.056 777.098 157.056 778.362 157.056 779.274 157.808 779.274 160.016 779.274 162.224 778.362 163.024 777.098 163.024zM785.758 164.224C787.246 164.224 788.574 163.552 789.166 161.936L787.918 161.504C787.71 162.016 787.15 163.04 785.806 163.04 784.702 163.04 783.598 162.4 783.518 160.4H789.102C789.406 157.808 787.982 155.856 785.678 155.856 783.662 155.856 782.174 157.472 782.174 160.08 782.174 162.768 783.598 164.224 785.758 164.224zM783.55 159.264C783.662 157.824 784.638 156.976 785.678 156.976 786.766 156.976 787.71 157.76 787.71 159.264H783.55zM791.282 164H792.642V152.8H791.282V164z" fill="#6E6E78"/><defs><clipPath id="clip0"><path fill="#fff" transform="translate(239 161)" d="M0 0H464V76H0z"/></clipPath></defs></svg>