<svg viewBox="0 0 958 455" fill="none" xmlns="http://www.w3.org/2000/svg"><rect x="234" y="66" width="490" height="323" rx="4" fill="#fff"/><path fill-rule="evenodd" clip-rule="evenodd" d="M697.704 92.2954C697.311 91.9015 696.672 91.9015 696.278 92.2954L692 96.5737L687.722 92.2955C687.328 91.9016 686.689 91.9016 686.296 92.2955C685.902 92.6893 685.902 93.3278 686.296 93.7216L690.574 97.9999L686.295 102.278C685.902 102.672 685.902 103.311 686.295 103.705C686.689 104.098 687.328 104.098 687.721 103.705L692 99.426L696.279 103.705C696.672 104.098 697.311 104.098 697.705 103.705C698.098 103.311 698.098 102.672 697.705 102.278L693.426 97.9999L697.704 93.7215C698.098 93.3277 698.098 92.6892 697.704 92.2954Z" fill="#1D1D21"/><path d="M271.536 130H274.992L268.728 113.2H264.576L258.216 130H261.576L263.04 125.848H270.12L271.536 130zM263.976 123.184L265.416 119.128C266.064 117.256 266.376 116.368 266.592 115.72L267.792 119.104 269.184 123.184H263.976zM280.557 130.36C282.909 130.36 284.013 128.824 284.493 128.032V130H287.397V118.048H284.469V123.664C284.469 125.584 284.037 127.912 281.757 127.912 280.485 127.912 279.693 127.168 279.693 125.32V118.048H276.765V126.016C276.765 128.632 278.085 130.36 280.557 130.36zM295.172 130H298.724V127.6H296.18C295.412 127.6 295.076 127.264 295.076 126.496V120.328H298.244V118.048H295.076V114.28H292.148V118.048H289.556V120.328H292.148V126.952C292.148 128.848 293.228 130 295.172 130zM306.093 130.36C309.573 130.36 312.117 127.816 312.117 124.024 312.117 120.28 309.597 117.688 306.093 117.688 302.589 117.688 300.069 120.28 300.069 124.024 300.069 127.672 302.613 130.36 306.093 130.36zM306.093 127.984C304.317 127.984 303.093 126.736 303.093 124.072 303.093 121.408 304.317 120.064 306.093 120.064 307.869 120.064 309.069 121.408 309.069 124.072 309.069 126.736 307.869 127.984 306.093 127.984zM324.962 130.36C327.026 130.36 328.322 129.208 328.874 128.32V130H331.73V113.2H328.802V117.568 119.728C328.25 118.84 327.002 117.688 324.962 117.688 321.938 117.688 319.898 120.184 319.898 124.024 319.898 127.864 321.938 130.36 324.962 130.36zM325.922 128.056C324.218 128.056 322.946 127.024 322.946 124.024 322.946 121.048 324.218 119.992 325.922 119.992 327.698 119.992 328.946 121.336 328.946 124.024 328.946 126.736 327.698 128.056 325.922 128.056zM340.476 130.36C343.956 130.36 346.5 127.816 346.5 124.024 346.5 120.28 343.98 117.688 340.476 117.688 336.972 117.688 334.452 120.28 334.452 124.024 334.452 127.672 336.996 130.36 340.476 130.36zM340.476 127.984C338.7 127.984 337.476 126.736 337.476 124.072 337.476 121.408 338.7 120.064 340.476 120.064 342.252 120.064 343.452 121.408 343.452 124.072 343.452 126.736 342.252 127.984 340.476 127.984zM354.518 130.36C357.302 130.36 359.318 128.824 360.182 126.544L357.422 125.56C356.942 127.024 356.078 127.984 354.47 127.984 352.766 127.984 351.35 126.688 351.35 124 351.35 121.36 352.742 120.064 354.446 120.064 355.862 120.064 356.798 120.928 357.254 122.2L359.942 121.24C359.246 119.248 357.35 117.688 354.518 117.688 351.014 117.688 348.374 120.208 348.374 124 348.374 127.864 350.918 130.36 354.518 130.36zM371.383 130H375.079L369.391 122.872 374.431 118.048H370.783L365.431 123.352V119.2 113.2H362.503V130H365.431V126.64L367.375 124.816 371.383 130zM386.227 130H389.779V127.6H387.235C386.467 127.6 386.131 127.264 386.131 126.496V120.328H389.299V118.048H386.131V114.28H383.203V118.048H380.611V120.328H383.203V126.952C383.203 128.848 384.283 130 386.227 130zM397.148 130.36C400.628 130.36 403.172 127.816 403.172 124.024 403.172 120.28 400.652 117.688 397.148 117.688 393.644 117.688 391.124 120.28 391.124 124.024 391.124 127.672 393.668 130.36 397.148 130.36zM397.148 127.984C395.372 127.984 394.148 126.736 394.148 124.072 394.148 121.408 395.372 120.064 397.148 120.064 398.924 120.064 400.124 121.408 400.124 124.072 400.124 126.736 398.924 127.984 397.148 127.984zM412.153 130H415.273V113.2H412.153V130zM425.486 130.36C430.046 130.36 432.182 128.056 432.182 125.176 432.182 122.272 429.95 120.664 426.758 120.136L424.574 119.752C423.014 119.464 422.198 118.816 422.198 117.664 422.198 116.464 423.11 115.432 425.222 115.432 427.574 115.432 428.63 116.848 429.086 118.216L431.99 117.088C431.342 115.048 429.35 112.84 425.318 112.84 421.286 112.84 419.006 115.096 419.006 117.808 419.006 120.808 420.95 122.2 423.926 122.704L426.062 123.064C428.102 123.424 428.942 124.192 428.942 125.392 428.942 126.76 427.886 127.768 425.534 127.768 422.894 127.768 421.574 126.064 421.118 124.288L418.166 125.416C418.862 128.104 421.19 130.36 425.486 130.36zM441.33 130.36C445.89 130.36 448.026 128.056 448.026 125.176 448.026 122.272 445.794 120.664 442.602 120.136L440.418 119.752C438.858 119.464 438.042 118.816 438.042 117.664 438.042 116.464 438.954 115.432 441.066 115.432 443.418 115.432 444.474 116.848 444.93 118.216L447.834 117.088C447.186 115.048 445.194 112.84 441.162 112.84 437.13 112.84 434.85 115.096 434.85 117.808 434.85 120.808 436.794 122.2 439.77 122.704L441.906 123.064C443.946 123.424 444.786 124.192 444.786 125.392 444.786 126.76 443.73 127.768 441.378 127.768 438.738 127.768 437.418 126.064 436.962 124.288L434.01 125.416C434.706 128.104 437.034 130.36 441.33 130.36zM261.248 161H263.2L265.2 154.024C265.632 152.536 265.76 152.072 265.856 151.704L266.48 154.024 268.352 161H270.272L273.136 149.8H271.632L270.032 156.392C269.504 158.552 269.408 158.92 269.296 159.336 269.168 158.92 269.072 158.568 268.72 157.24L266.736 149.8H265.024L263.104 156.52 262.304 159.336C262.208 158.936 262.096 158.456 261.648 156.472L260.144 149.8H258.64L261.248 161zM277.666 161.224C279.746 161.224 281.346 159.432 281.346 157.048 281.346 154.664 279.81 152.856 277.666 152.856 275.522 152.856 273.986 154.664 273.986 157.048 273.986 159.432 275.586 161.224 277.666 161.224zM277.666 160.024C276.322 160.024 275.394 159.064 275.394 157.064 275.394 155.064 276.322 154.056 277.666 154.056 279.01 154.056 279.938 155.064 279.938 157.064 279.938 159.064 279.01 160.024 277.666 160.024zM285.935 161.224C287.583 161.224 288.335 160.056 288.575 159.624V161H289.903V153.08H288.543V156.44C288.543 157.656 288.511 160.024 286.367 160.024 285.327 160.024 284.655 159.416 284.655 157.928V153.08H283.295V158.248C283.295 160.008 284.079 161.224 285.935 161.224zM292.594 161H293.954V149.8H292.594V161zM299.265 161.224C300.657 161.224 301.425 160.456 301.809 159.784V161H303.137V149.8H301.777V152.76 154.312C301.393 153.64 300.657 152.856 299.265 152.856 297.441 152.856 296.049 154.44 296.049 157.048 296.049 159.656 297.441 161.224 299.265 161.224zM299.617 160.024C298.353 160.024 297.441 159.272 297.441 157.064 297.441 154.856 298.353 154.056 299.617 154.056 300.913 154.056 301.857 155.064 301.857 157.064 301.857 159.064 300.913 160.024 299.617 160.024zM314.472 153.08L313.032 157.416C312.712 158.376 312.616 158.664 312.472 159.128 312.312 158.712 312.184 158.392 311.688 157.192L309.992 153.08H308.456L311.88 160.904 311.432 162.168C311.224 162.76 310.872 162.872 310.344 162.872H308.84V164.12H310.344C311.736 164.12 312.312 163.656 312.84 162.088L315.912 153.08H314.472zM320.619 161.224C322.699 161.224 324.299 159.432 324.299 157.048 324.299 154.664 322.763 152.856 320.619 152.856 318.475 152.856 316.939 154.664 316.939 157.048 316.939 159.432 318.539 161.224 320.619 161.224zM320.619 160.024C319.275 160.024 318.347 159.064 318.347 157.064 318.347 155.064 319.275 154.056 320.619 154.056 321.963 154.056 322.891 155.064 322.891 157.064 322.891 159.064 321.963 160.024 320.619 160.024zM328.888 161.224C330.536 161.224 331.288 160.056 331.528 159.624V161H332.856V153.08H331.496V156.44C331.496 157.656 331.464 160.024 329.32 160.024 328.28 160.024 327.608 159.416 327.608 157.928V153.08H326.248V158.248C326.248 160.008 327.032 161.224 328.888 161.224zM339.688 161H341.048V149.8H339.688V161zM343.687 151.528H345.127V149.8H343.687V151.528zM343.735 161H345.095V153.08H343.735V161zM353.654 161H355.398L351.59 156.392 355.158 153.08H353.35L349.142 157.16V154.568 149.8H347.782V161H349.142V158.664L350.646 157.288 353.654 161zM359.477 161.224C360.965 161.224 362.293 160.552 362.885 158.936L361.637 158.504C361.429 159.016 360.869 160.04 359.525 160.04 358.421 160.04 357.317 159.4 357.237 157.4H362.821C363.125 154.808 361.701 152.856 359.397 152.856 357.381 152.856 355.893 154.472 355.893 157.08 355.893 159.768 357.317 161.224 359.477 161.224zM357.269 156.264C357.381 154.824 358.357 153.976 359.397 153.976 360.485 153.976 361.429 154.76 361.429 156.264H357.269zM371.612 161H373.436V159.8H371.788C371.228 159.8 370.988 159.56 370.988 159V154.232H373.148V153.08H370.988V150.6H369.628V153.08H367.788V154.232H369.628V159.08C369.628 160.392 370.3 161 371.612 161zM378.134 161.224C380.214 161.224 381.814 159.432 381.814 157.048 381.814 154.664 380.278 152.856 378.134 152.856 375.99 152.856 374.454 154.664 374.454 157.048 374.454 159.432 376.054 161.224 378.134 161.224zM378.134 160.024C376.79 160.024 375.862 159.064 375.862 157.064 375.862 155.064 376.79 154.056 378.134 154.056 379.478 154.056 380.406 155.064 380.406 157.064 380.406 159.064 379.478 160.024 378.134 160.024zM395.257 161H396.873L392.777 149.8H390.745L386.553 161H388.105L389.193 157.976H394.185L395.257 161zM389.689 156.616L390.825 153.448 391.705 151C391.881 151.48 392.137 152.184 392.585 153.448L393.705 156.616H389.689zM400.966 161.224C402.614 161.224 403.366 160.056 403.606 159.624V161H404.934V153.08H403.574V156.44C403.574 157.656 403.542 160.024 401.398 160.024 400.358 160.024 399.686 159.416 399.686 157.928V153.08H398.326V158.248C398.326 160.008 399.11 161.224 400.966 161.224zM410.377 161H412.201V159.8H410.553C409.993 159.8 409.753 159.56 409.753 159V154.232H411.913V153.08H409.753V150.6H408.393V153.08H406.553V154.232H408.393V159.08C408.393 160.392 409.065 161 410.377 161zM416.9 161.224C418.98 161.224 420.58 159.432 420.58 157.048 420.58 154.664 419.044 152.856 416.9 152.856 414.756 152.856 413.22 154.664 413.22 157.048 413.22 159.432 414.82 161.224 416.9 161.224zM416.9 160.024C415.556 160.024 414.628 159.064 414.628 157.064 414.628 155.064 415.556 154.056 416.9 154.056 418.244 154.056 419.172 155.064 419.172 157.064 419.172 159.064 418.244 160.024 416.9 160.024zM429.406 161.224C430.798 161.224 431.566 160.456 431.95 159.784V161H433.278V149.8H431.918V152.76 154.312C431.534 153.64 430.798 152.856 429.406 152.856 427.582 152.856 426.19 154.44 426.19 157.048 426.19 159.656 427.582 161.224 429.406 161.224zM429.758 160.024C428.494 160.024 427.582 159.272 427.582 157.064 427.582 154.856 428.494 154.056 429.758 154.056 431.054 154.056 431.998 155.064 431.998 157.064 431.998 159.064 431.054 160.024 429.758 160.024zM439.025 161.224C441.105 161.224 442.705 159.432 442.705 157.048 442.705 154.664 441.169 152.856 439.025 152.856 436.881 152.856 435.345 154.664 435.345 157.048 435.345 159.432 436.945 161.224 439.025 161.224zM439.025 160.024C437.681 160.024 436.753 159.064 436.753 157.064 436.753 155.064 437.681 154.056 439.025 154.056 440.369 154.056 441.297 155.064 441.297 157.064 441.297 159.064 440.369 160.024 439.025 160.024zM447.918 161.224C449.694 161.224 450.846 160.184 451.358 158.712L450.078 158.264C449.822 159.128 449.23 160.024 447.918 160.024 446.606 160.024 445.582 159.064 445.582 157.032 445.582 155.048 446.638 154.056 447.902 154.056 449.054 154.056 449.63 154.808 449.886 155.56L451.15 155.144C450.782 153.912 449.694 152.856 447.902 152.856 445.71 152.856 444.158 154.584 444.158 157.032 444.158 159.592 445.63 161.224 447.918 161.224zM459.044 161H460.788L456.98 156.392 460.548 153.08H458.74L454.532 157.16V154.568 149.8H453.172V161H454.532V158.664L456.036 157.288 459.044 161zM467.492 161H469.028L470.276 157.096C470.756 155.592 470.916 155.096 471.076 154.616L471.86 157.096 473.076 161H474.66L477.348 153.08H475.908L474.66 157.032C474.196 158.488 473.988 159.128 473.86 159.496L473.236 157.464 471.876 153.08H470.308L469.076 157.032 468.308 159.496C468.18 159.064 468.02 158.552 467.54 157.032L466.308 153.08H464.884L467.492 161zM478.999 151.528H480.439V149.8H478.999V151.528zM479.047 161H480.407V153.08H479.047V161zM485.846 161H487.67V159.8H486.022C485.462 159.8 485.222 159.56 485.222 159V154.232H487.382V153.08H485.222V150.6H483.862V153.08H482.022V154.232H483.862V159.08C483.862 160.392 484.534 161 485.846 161zM489.391 161H490.751V157.64C490.751 156.472 490.799 154.056 492.975 154.056 494.031 154.056 494.719 154.664 494.719 156.152V161H496.079V155.832C496.079 154.072 495.215 152.856 493.407 152.856 491.535 152.856 490.863 154.072 490.751 154.424V152.76 149.8H489.391V161zM505.268 161H507.092V159.8H505.444C504.884 159.8 504.644 159.56 504.644 159V154.232H506.804V153.08H504.644V150.6H503.284V153.08H501.444V154.232H503.284V159.08C503.284 160.392 503.956 161 505.268 161zM508.813 161H510.173V157.64C510.173 156.472 510.221 154.056 512.397 154.056 513.453 154.056 514.141 154.664 514.141 156.152V161H515.501V155.832C515.501 154.072 514.637 152.856 512.829 152.856 510.957 152.856 510.285 154.072 510.173 154.424V152.76 149.8H508.813V161zM521.07 161.224C522.558 161.224 523.886 160.552 524.478 158.936L523.23 158.504C523.022 159.016 522.462 160.04 521.118 160.04 520.014 160.04 518.91 159.4 518.83 157.4H524.414C524.718 154.808 523.294 152.856 520.99 152.856 518.974 152.856 517.486 154.472 517.486 157.08 517.486 159.768 518.91 161.224 521.07 161.224zM518.862 156.264C518.974 154.824 519.95 153.976 520.99 153.976 522.078 153.976 523.022 154.76 523.022 156.264H518.862zM531.039 161H532.479V149.8H531.039V161zM539.149 161.224C541.741 161.224 543.165 159.832 543.165 157.88 543.165 156.184 541.885 155.144 540.093 154.728L538.525 154.36C537.261 154.056 536.685 153.608 536.685 152.648 536.685 151.64 537.517 150.92 538.893 150.92 540.717 150.92 541.373 152.136 541.613 152.824L542.989 152.152C542.669 151.112 541.453 149.576 539.069 149.576 536.797 149.576 535.261 150.904 535.261 152.728 535.261 154.6 536.413 155.416 538.077 155.8L539.581 156.152C540.973 156.472 541.661 157.032 541.661 158.008 541.661 159.128 540.781 159.88 539.245 159.88 537.485 159.88 536.557 158.808 536.109 157.496L534.701 158.184C535.245 159.928 536.765 161.224 539.149 161.224zM548.993 161.224C551.585 161.224 553.009 159.832 553.009 157.88 553.009 156.184 551.729 155.144 549.937 154.728L548.369 154.36C547.105 154.056 546.529 153.608 546.529 152.648 546.529 151.64 547.361 150.92 548.737 150.92 550.561 150.92 551.217 152.136 551.457 152.824L552.833 152.152C552.513 151.112 551.297 149.576 548.913 149.576 546.641 149.576 545.105 150.904 545.105 152.728 545.105 154.6 546.257 155.416 547.921 155.8L549.425 156.152C550.817 156.472 551.505 157.032 551.505 158.008 551.505 159.128 550.625 159.88 549.089 159.88 547.329 159.88 546.401 158.808 545.953 157.496L544.545 158.184C545.089 159.928 546.609 161.224 548.993 161.224zM561.825 161.224C563.473 161.224 564.225 160.056 564.465 159.624V161H565.793V153.08H564.433V156.44C564.433 157.656 564.401 160.024 562.257 160.024 561.217 160.024 560.545 159.416 560.545 157.928V153.08H559.185V158.248C559.185 160.008 559.969 161.224 561.825 161.224zM568.485 164.12H569.845V161.32 159.768C570.229 160.44 570.965 161.224 572.357 161.224 574.181 161.224 575.573 159.64 575.573 157.032 575.573 154.424 574.181 152.856 572.357 152.856 570.965 152.856 570.197 153.624 569.813 154.296V153.08H568.485V164.12zM572.005 160.024C570.709 160.024 569.765 159.016 569.765 157.016 569.765 155.016 570.709 154.056 572.005 154.056 573.269 154.056 574.181 154.808 574.181 157.016 574.181 159.224 573.269 160.024 572.005 160.024zM580.728 161.224C582.808 161.224 584.408 159.432 584.408 157.048 584.408 154.664 582.872 152.856 580.728 152.856 578.584 152.856 577.048 154.664 577.048 157.048 577.048 159.432 578.648 161.224 580.728 161.224zM580.728 160.024C579.384 160.024 578.456 159.064 578.456 157.064 578.456 155.064 579.384 154.056 580.728 154.056 582.072 154.056 583 155.064 583 157.064 583 159.064 582.072 160.024 580.728 160.024zM586.469 161H587.829V157.64C587.829 156.472 587.877 154.056 590.053 154.056 591.109 154.056 591.797 154.664 591.797 156.152V161H593.157V155.832C593.157 154.072 592.357 152.856 590.389 152.856 588.677 152.856 587.909 154.072 587.797 154.424V153.08H586.469V161zM602.499 161.224C603.891 161.224 604.659 160.456 605.043 159.784V161H606.371V153.08H605.011V154.312C604.627 153.64 603.891 152.856 602.499 152.856 600.675 152.856 599.283 154.44 599.283 157.048 599.283 159.656 600.675 161.224 602.499 161.224zM602.851 160.024C601.587 160.024 600.675 159.272 600.675 157.064 600.675 154.856 601.587 154.056 602.851 154.056 604.147 154.056 605.091 155.064 605.091 157.064 605.091 159.064 604.147 160.024 602.851 160.024zM609.063 161H610.423V157.368C610.423 155.512 611.159 154.376 612.951 154.376 613.271 154.376 613.543 154.408 613.799 154.456V153.064C613.607 153.016 613.367 152.968 612.983 152.968 611.479 152.968 610.663 154.136 610.407 154.728V153.08H609.063V161zM615.407 161H616.767V157.368C616.767 155.512 617.503 154.376 619.295 154.376 619.615 154.376 619.887 154.408 620.143 154.456V153.064C619.951 153.016 619.711 152.968 619.327 152.968 617.823 152.968 617.007 154.136 616.751 154.728V153.08H615.407V161zM621.702 151.528H623.142V149.8H621.702V151.528zM621.75 161H623.11V153.08H621.75V161zM627.509 161H629.205L631.765 153.08H630.373L629.013 157.64 628.373 159.752C628.261 159.384 627.973 158.44 627.717 157.64L626.293 153.08H624.869L627.509 161zM636.14 161.224C637.532 161.224 638.3 160.456 638.684 159.784V161H640.012V153.08H638.652V154.312C638.268 153.64 637.532 152.856 636.14 152.856 634.316 152.856 632.924 154.44 632.924 157.048 632.924 159.656 634.316 161.224 636.14 161.224zM636.492 160.024C635.228 160.024 634.316 159.272 634.316 157.064 634.316 154.856 635.228 154.056 636.492 154.056 637.788 154.056 638.732 155.064 638.732 157.064 638.732 159.064 637.788 160.024 636.492 160.024zM642.703 161H644.063V149.8H642.703V161zM648.366 157.528H649.726C649.726 156.776 649.886 156.392 650.702 155.704 651.998 154.616 652.606 153.752 652.606 152.584 652.606 150.664 651.054 149.592 649.326 149.592 647.294 149.592 645.966 150.808 645.966 153.048L647.358 153.272C647.358 151.688 648.094 150.872 649.326 150.872 650.398 150.872 651.134 151.528 651.134 152.6 651.134 153.544 650.494 154.12 649.742 154.76 648.926 155.464 648.366 156.088 648.366 157.528zM648.094 161H650.014V159H648.094V161z" fill="#1D1D21"/><circle cx="266" cy="205" r="7" fill="#1662DD" stroke="#1662DD" stroke-width="2"/><circle cx="266" cy="205" r="2" fill="#fff" stroke="#fff" stroke-width="2"/><path d="M289.878 210H291.138V205.814L294.582 200.2H293.056L291.278 203.322L290.522 204.624L289.738 203.322L287.848 200.2H286.322L289.878 205.87V210ZM297.505 210.196C298.807 210.196 299.969 209.608 300.487 208.194L299.395 207.816C299.213 208.264 298.723 209.16 297.547 209.16C296.581 209.16 295.615 208.6 295.545 206.85H300.431C300.697 204.582 299.451 202.874 297.435 202.874C295.671 202.874 294.369 204.288 294.369 206.57C294.369 208.922 295.615 210.196 297.505 210.196ZM295.573 205.856C295.671 204.596 296.525 203.854 297.435 203.854C298.387 203.854 299.213 204.54 299.213 205.856H295.573ZM304.676 210.196C306.426 210.196 307.434 209.37 307.434 208.068C307.434 206.486 305.796 206.066 305.096 205.926L304.298 205.772C303.304 205.576 303.08 205.296 303.08 204.834C303.08 204.33 303.528 203.854 304.494 203.854C305.67 203.854 306.062 204.596 306.23 205.058L307.308 204.666C307.028 203.756 306.216 202.874 304.494 202.874C303.136 202.874 301.96 203.714 301.96 204.96C301.96 206.276 302.968 206.71 304.116 206.934L304.914 207.088C305.922 207.284 306.244 207.648 306.244 208.166C306.244 208.824 305.684 209.174 304.676 209.174C303.584 209.174 303.024 208.656 302.814 207.83L301.666 208.208C301.974 209.538 303.262 210.196 304.676 210.196Z" fill="#1D1D21"/><circle cx="266" cy="235" r="7" fill="#fff" stroke="#8C8C96" stroke-width="2"/><path d="M287.442 240H288.702V234.246V231.768L294.512 240H295.786V230.2H294.526V235.674V237.858L289.122 230.2H287.442V240ZM300.965 240.196C302.785 240.196 304.185 238.628 304.185 236.542C304.185 234.456 302.841 232.874 300.965 232.874C299.089 232.874 297.745 234.456 297.745 236.542C297.745 238.628 299.145 240.196 300.965 240.196ZM300.965 239.146C299.789 239.146 298.977 238.306 298.977 236.556C298.977 234.806 299.789 233.924 300.965 233.924C302.141 233.924 302.953 234.806 302.953 236.556C302.953 238.306 302.141 239.146 300.965 239.146Z" fill="#1D1D21"/><path transform="translate(258 271)" fill="#fff" d="M0 0H16V24H0z"/><rect x="259" y="276" width="14" height="14" rx="3" fill="#1662DD" stroke="#1662DD" stroke-width="2"/><path d="M259.911 283.295L259.824 283.383L259.912 283.471L264.021 287.588L264.109 287.677L264.198 287.588L272.088 279.706L272.177 279.617L272.088 279.528L270.955 278.411L270.867 278.324L270.779 278.412L264.109 285.073L261.206 282.169L261.117 282.081L261.028 282.17L259.911 283.295Z" fill="#fff" stroke="#fff" stroke-width="0.25"/><path d="M287.442 288H288.702V283.898H290.774C292.118 283.898 292.79 284.36 293.014 285.634L293.434 288H294.82L294.316 285.522C294.078 284.374 293.658 283.702 292.328 283.478C293.616 283.212 294.638 282.344 294.638 280.874C294.638 279.39 293.518 278.2 291.502 278.2H287.442V288ZM288.702 282.722V279.39H291.334C292.468 279.39 293.308 279.908 293.308 281.056C293.308 282.204 292.468 282.722 291.334 282.722H288.702ZM299.269 288.196C300.571 288.196 301.733 287.608 302.251 286.194L301.159 285.816C300.977 286.264 300.487 287.16 299.311 287.16C298.345 287.16 297.379 286.6 297.309 284.85H302.195C302.461 282.582 301.215 280.874 299.199 280.874C297.435 280.874 296.133 282.288 296.133 284.57C296.133 286.922 297.379 288.196 299.269 288.196ZM297.337 283.856C297.435 282.596 298.289 281.854 299.199 281.854C300.151 281.854 300.977 282.54 300.977 283.856H297.337ZM304.102 288H305.292V284.78C305.292 283.786 305.376 281.938 307.07 281.938C307.994 281.938 308.61 282.414 308.61 283.758V288H309.772V284.78C309.772 283.786 309.814 281.938 311.564 281.938C312.488 281.938 313.09 282.414 313.09 283.758V288H314.28V283.408C314.28 281.798 313.44 280.874 311.858 280.874C310.388 280.874 309.772 281.784 309.534 282.358C309.184 281.42 308.372 280.874 307.35 280.874C306.104 280.874 305.516 281.672 305.264 282.12V281.07H304.102V288ZM319.148 288.196C320.45 288.196 321.612 287.608 322.13 286.194L321.038 285.816C320.856 286.264 320.366 287.16 319.19 287.16C318.224 287.16 317.258 286.6 317.188 284.85H322.074C322.34 282.582 321.094 280.874 319.078 280.874C317.314 280.874 316.012 282.288 316.012 284.57C316.012 286.922 317.258 288.196 319.148 288.196ZM317.216 283.856C317.314 282.596 318.168 281.854 319.078 281.854C320.03 281.854 320.856 282.54 320.856 283.856H317.216ZM323.981 288H325.171V284.78C325.171 283.786 325.255 281.938 326.949 281.938C327.873 281.938 328.489 282.414 328.489 283.758V288H329.651V284.78C329.651 283.786 329.693 281.938 331.443 281.938C332.367 281.938 332.969 282.414 332.969 283.758V288H334.159V283.408C334.159 281.798 333.319 280.874 331.737 280.874C330.267 280.874 329.651 281.784 329.413 282.358C329.063 281.42 328.251 280.874 327.229 280.874C325.983 280.874 325.395 281.672 325.143 282.12V281.07H323.981V288ZM339.796 288.196C341.392 288.196 342.61 286.81 342.61 284.528C342.61 282.246 341.392 280.874 339.796 280.874C338.578 280.874 337.934 281.546 337.598 282.134V280.79V278.2H336.408V288H337.57V286.922C337.906 287.51 338.578 288.196 339.796 288.196ZM339.488 287.146C338.354 287.146 337.528 286.264 337.528 284.514C337.528 282.764 338.354 281.924 339.488 281.924C340.594 281.924 341.392 282.582 341.392 284.514C341.392 286.446 340.594 287.146 339.488 287.146ZM347.065 288.196C348.367 288.196 349.529 287.608 350.047 286.194L348.955 285.816C348.773 286.264 348.283 287.16 347.107 287.16C346.141 287.16 345.175 286.6 345.105 284.85H349.991C350.257 282.582 349.011 280.874 346.995 280.874C345.231 280.874 343.929 282.288 343.929 284.57C343.929 286.922 345.175 288.196 347.065 288.196ZM345.133 283.856C345.231 282.596 346.085 281.854 346.995 281.854C347.947 281.854 348.773 282.54 348.773 283.856H345.133ZM351.899 288H353.089V284.822C353.089 283.198 353.733 282.204 355.301 282.204C355.581 282.204 355.819 282.232 356.043 282.274V281.056C355.875 281.014 355.665 280.972 355.329 280.972C354.013 280.972 353.299 281.994 353.075 282.512V281.07H351.899V288ZM360.69 288H361.88V284.78C361.88 283.786 361.964 281.938 363.658 281.938C364.582 281.938 365.198 282.414 365.198 283.758V288H366.36V284.78C366.36 283.786 366.402 281.938 368.152 281.938C369.076 281.938 369.678 282.414 369.678 283.758V288H370.868V283.408C370.868 281.798 370.028 280.874 368.446 280.874C366.976 280.874 366.36 281.784 366.122 282.358C365.772 281.42 364.96 280.874 363.938 280.874C362.692 280.874 362.104 281.672 361.852 282.12V281.07H360.69V288ZM377.303 281.07L376.043 284.864C375.763 285.704 375.679 285.956 375.553 286.362C375.413 285.998 375.301 285.718 374.867 284.668L373.383 281.07H372.039L375.035 287.916L374.643 289.022C374.461 289.54 374.153 289.638 373.691 289.638H372.375V290.73H373.691C374.909 290.73 375.413 290.324 375.875 288.952L378.563 281.07H377.303ZM386.252 288.196C387.806 288.196 388.814 287.286 389.262 285.998L388.142 285.606C387.918 286.362 387.4 287.146 386.252 287.146C385.104 287.146 384.208 286.306 384.208 284.528C384.208 282.792 385.132 281.924 386.238 281.924C387.246 281.924 387.75 282.582 387.974 283.24L389.08 282.876C388.758 281.798 387.806 280.874 386.238 280.874C384.32 280.874 382.962 282.386 382.962 284.528C382.962 286.768 384.25 288.196 386.252 288.196ZM390.85 288H392.04V285.06C392.04 284.038 392.082 281.924 393.986 281.924C394.91 281.924 395.512 282.456 395.512 283.758V288H396.702V283.478C396.702 281.938 395.946 280.874 394.364 280.874C392.726 280.874 392.138 281.938 392.04 282.246V280.79V278.2H390.85V288ZM401.631 288.196C403.451 288.196 404.851 286.628 404.851 284.542C404.851 282.456 403.507 280.874 401.631 280.874C399.755 280.874 398.411 282.456 398.411 284.542C398.411 286.628 399.811 288.196 401.631 288.196ZM401.631 287.146C400.455 287.146 399.643 286.306 399.643 284.556C399.643 282.806 400.455 281.924 401.631 281.924C402.807 281.924 403.619 282.806 403.619 284.556C403.619 286.306 402.807 287.146 401.631 287.146ZM406.613 279.712H407.873V278.2H406.613V279.712ZM406.655 288H407.845V281.07H406.655V288ZM412.954 288.196C414.508 288.196 415.516 287.286 415.964 285.998L414.844 285.606C414.62 286.362 414.102 287.146 412.954 287.146C411.806 287.146 410.91 286.306 410.91 284.528C410.91 282.792 411.834 281.924 412.94 281.924C413.948 281.924 414.452 282.582 414.676 283.24L415.782 282.876C415.46 281.798 414.508 280.874 412.94 280.874C411.022 280.874 409.664 282.386 409.664 284.528C409.664 286.768 410.952 288.196 412.954 288.196ZM420.169 288.196C421.471 288.196 422.633 287.608 423.151 286.194L422.059 285.816C421.877 286.264 421.387 287.16 420.211 287.16C419.245 287.16 418.279 286.6 418.209 284.85H423.095C423.361 282.582 422.115 280.874 420.099 280.874C418.335 280.874 417.033 282.288 417.033 284.57C417.033 286.922 418.279 288.196 420.169 288.196ZM418.237 283.856C418.335 282.596 419.189 281.854 420.099 281.854C421.051 281.854 421.877 282.54 421.877 283.856H418.237ZM429.036 288H430.226V282.078H432.046V281.07H430.226V279.95C430.226 279.46 430.436 279.25 430.926 279.25H432.298V278.2H430.786C429.638 278.2 429.036 278.746 429.036 280.034V281.07H427.496V282.078H429.036V288ZM436.043 288.196C437.863 288.196 439.263 286.628 439.263 284.542C439.263 282.456 437.919 280.874 436.043 280.874C434.167 280.874 432.823 282.456 432.823 284.542C432.823 286.628 434.223 288.196 436.043 288.196ZM436.043 287.146C434.867 287.146 434.055 286.306 434.055 284.556C434.055 282.806 434.867 281.924 436.043 281.924C437.219 281.924 438.031 282.806 438.031 284.556C438.031 286.306 437.219 287.146 436.043 287.146ZM441.067 288H442.257V284.822C442.257 283.198 442.901 282.204 444.469 282.204C444.749 282.204 444.987 282.232 445.211 282.274V281.056C445.043 281.014 444.833 280.972 444.497 280.972C443.181 280.972 442.467 281.994 442.243 282.512V281.07H441.067V288ZM449.858 288H451.048V285.06C451.048 284.038 451.09 281.924 452.994 281.924C453.918 281.924 454.52 282.456 454.52 283.758V288H455.71V283.478C455.71 281.938 455.01 280.874 453.288 280.874C451.79 280.874 451.118 281.938 451.02 282.246V281.07H449.858V288ZM460.583 288.196C461.885 288.196 463.047 287.608 463.565 286.194L462.473 285.816C462.291 286.264 461.801 287.16 460.625 287.16C459.659 287.16 458.693 286.6 458.623 284.85H463.509C463.775 282.582 462.529 280.874 460.513 280.874C458.749 280.874 457.447 282.288 457.447 284.57C457.447 286.922 458.693 288.196 460.583 288.196ZM458.651 283.856C458.749 282.596 459.603 281.854 460.513 281.854C461.465 281.854 462.291 282.54 462.291 283.856H458.651ZM464.438 288H465.74L466.622 286.684L467.504 285.354C467.7 285.662 467.854 285.9 468.372 286.684L469.24 288H470.668L468.26 284.472L470.528 281.07H469.212L468.456 282.26C467.924 283.086 467.756 283.338 467.56 283.618C467.392 283.338 467.238 283.086 466.72 282.26L465.964 281.07H464.578L466.818 284.458L464.438 288ZM474.523 288H476.119V286.95H474.677C474.187 286.95 473.977 286.74 473.977 286.25V282.078H475.867V281.07H473.977V278.9H472.787V281.07H471.177V282.078H472.787V286.32C472.787 287.468 473.375 288 474.523 288ZM483.41 288H485.006V286.95H483.564C483.074 286.95 482.864 286.74 482.864 286.25V282.078H484.754V281.07H482.864V278.9H481.674V281.07H480.064V282.078H481.674V286.32C481.674 287.468 482.262 288 483.41 288ZM486.47 279.712H487.73V278.2H486.47V279.712ZM486.512 288H487.702V281.07H486.512V288ZM490.053 288H491.243V284.78C491.243 283.786 491.327 281.938 493.021 281.938C493.945 281.938 494.561 282.414 494.561 283.758V288H495.723V284.78C495.723 283.786 495.765 281.938 497.515 281.938C498.439 281.938 499.041 282.414 499.041 283.758V288H500.231V283.408C500.231 281.798 499.391 280.874 497.809 280.874C496.339 280.874 495.723 281.784 495.485 282.358C495.135 281.42 494.323 280.874 493.301 280.874C492.055 280.874 491.467 281.672 491.215 282.12V281.07H490.053V288ZM505.099 288.196C506.401 288.196 507.563 287.608 508.081 286.194L506.989 285.816C506.807 286.264 506.317 287.16 505.141 287.16C504.175 287.16 503.209 286.6 503.139 284.85H508.025C508.291 282.582 507.045 280.874 505.029 280.874C503.265 280.874 501.963 282.288 501.963 284.57C501.963 286.922 503.209 288.196 505.099 288.196ZM503.167 283.856C503.265 282.596 504.119 281.854 505.029 281.854C505.981 281.854 506.807 282.54 506.807 283.856H503.167Z" fill="#1D1D21"/><path d="M556 331C556 328.791 557.791 327 560 327H622C624.209 327 626 328.791 626 331V361C626 363.209 624.209 365 622 365H560C557.791 365 556 363.209 556 361V331Z" fill="#fff"/><path d="M573.638 351.21C576.018 351.21 577.474 349.978 578.09 348.2L576.438 347.542C576.032 348.718 575.22 349.642 573.638 349.642 571.762 349.642 570.6 348.27 570.6 346.058 570.6 343.832 571.776 342.544 573.638 342.544 575.234 342.544 576.018 343.552 576.382 344.602L578.076 343.958C577.6 342.376 576.074 340.99 573.652 340.99 570.698 340.99 568.682 343.188 568.682 346.058 568.682 348.984 570.572 351.21 573.638 351.21zM581.353 351.21C582.529 351.21 583.271 350.622 583.691 349.964 583.775 350.58 584.083 351 584.965 351H586.281V349.656H585.623C585.259 349.656 585.203 349.572 585.203 349.236V346.422C585.203 344.714 584.153 343.818 582.235 343.818 580.275 343.818 579.183 344.84 579.015 345.876L580.597 346.282C580.765 345.666 581.199 345.12 582.235 345.12 583.131 345.12 583.523 345.526 583.523 346.212V346.45C581.213 346.66 579.127 347.262 579.127 349.208 579.127 350.44 580.051 351.21 581.353 351.21zM581.913 349.922C581.213 349.922 580.863 349.572 580.863 349.04 580.863 348.046 582.081 347.738 583.523 347.57V348.13C583.523 349.376 582.739 349.922 581.913 349.922zM587.394 351H589.102V347.822C589.102 346.968 589.13 345.246 590.698 345.246 591.468 345.246 591.958 345.694 591.958 346.744V351H593.666V346.366C593.666 344.84 592.98 343.818 591.314 343.818 589.956 343.818 589.284 344.728 589.06 345.134V344.028H587.394V351zM598.76 351.21C600.384 351.21 601.56 350.314 602.064 348.984L600.454 348.41C600.174 349.264 599.67 349.824 598.732 349.824 597.738 349.824 596.912 349.068 596.912 347.5 596.912 345.96 597.724 345.204 598.718 345.204 599.544 345.204 600.09 345.708 600.356 346.45L601.924 345.89C601.518 344.728 600.412 343.818 598.76 343.818 596.716 343.818 595.176 345.288 595.176 347.5 595.176 349.754 596.66 351.21 598.76 351.21zM606.344 351.21C608.178 351.21 609.158 350.258 609.606 349.18L608.066 348.606C607.814 349.194 607.352 349.866 606.358 349.866 605.462 349.866 604.706 349.348 604.636 347.934H609.564C609.788 345.624 608.542 343.818 606.316 343.818 604.384 343.818 602.942 345.288 602.942 347.514 602.942 349.838 604.286 351.21 606.344 351.21zM604.692 346.674C604.818 345.666 605.476 345.092 606.316 345.092 607.198 345.092 607.814 345.652 607.87 346.674H604.692zM611.211 351H612.919V341.2H611.211V351zM642 331C642 328.791 643.791 327 646 327H696C698.209 327 700 328.791 700 331V361C700 363.209 698.209 365 696 365H646C643.791 365 642 363.209 642 361V331z" fill="#1662DD"/><path d="M658.792 351.21C661.452 351.21 662.698 349.866 662.698 348.186C662.698 346.492 661.396 345.554 659.534 345.246L658.26 345.022C657.35 344.854 656.874 344.476 656.874 343.804C656.874 343.104 657.406 342.502 658.638 342.502C660.01 342.502 660.626 343.328 660.892 344.126L662.586 343.468C662.208 342.278 661.046 340.99 658.694 340.99C656.342 340.99 655.012 342.306 655.012 343.888C655.012 345.638 656.146 346.45 657.882 346.744L659.128 346.954C660.318 347.164 660.808 347.612 660.808 348.312C660.808 349.11 660.192 349.698 658.82 349.698C657.28 349.698 656.51 348.704 656.244 347.668L654.522 348.326C654.928 349.894 656.286 351.21 658.792 351.21ZM667.292 351.21C669.126 351.21 670.106 350.258 670.554 349.18L669.014 348.606C668.762 349.194 668.3 349.866 667.306 349.866C666.41 349.866 665.654 349.348 665.584 347.934H670.512C670.736 345.624 669.49 343.818 667.264 343.818C665.332 343.818 663.89 345.288 663.89 347.514C663.89 349.838 665.234 351.21 667.292 351.21ZM665.64 346.674C665.766 345.666 666.424 345.092 667.264 345.092C668.146 345.092 668.762 345.652 668.818 346.674H665.64ZM672.159 351H673.867V347.822C673.867 346.968 673.895 345.246 675.463 345.246C676.233 345.246 676.723 345.694 676.723 346.744V351H678.431V346.366C678.431 344.84 677.745 343.818 676.079 343.818C674.721 343.818 674.049 344.728 673.825 345.134V344.028H672.159V351ZM682.923 351.21C684.127 351.21 684.883 350.538 685.205 350.02V351H686.871V341.2H685.163V343.748V345.008C684.841 344.49 684.113 343.818 682.923 343.818C681.159 343.818 679.969 345.274 679.969 347.514C679.969 349.754 681.159 351.21 682.923 351.21ZM683.483 349.866C682.489 349.866 681.747 349.264 681.747 347.514C681.747 345.778 682.489 345.162 683.483 345.162C684.519 345.162 685.247 345.946 685.247 347.514C685.247 349.096 684.519 349.866 683.483 349.866Z" fill="#fff"/><path d="M149 294C148.448 294 148 294.448 148 295 148 295.552 148.448 296 149 296L149 294zM173.707 295.707C174.098 295.317 174.098 294.683 173.707 294.293L167.343 287.929C166.953 287.538 166.319 287.538 165.929 287.929 165.538 288.319 165.538 288.953 165.929 289.343L171.586 295 165.929 300.657C165.538 301.047 165.538 301.681 165.929 302.071 166.319 302.462 166.953 302.462 167.343 302.071L173.707 295.707zM149 296L173 296 173 294 149 294 149 296zM81 296C81.5523 296 82 295.552 82 295 82 294.448 81.5523 294 81 294L81 296zM56.2929 294.293C55.9024 294.683 55.9024 295.317 56.2929 295.707L62.6569 302.071C63.0474 302.462 63.6805 302.462 64.0711 302.071 64.4616 301.681 64.4616 301.047 64.0711 300.657L58.4142 295 64.0711 289.343C64.4616 288.953 64.4616 288.319 64.0711 287.929 63.6805 287.538 63.0474 287.538 62.6569 287.929L56.2929 294.293zM81 294L57 294 57 296 81 296 81 294zM114 275C114 275.552 114.448 276 115 276 115.552 276 116 275.552 116 275L114 275zM115.707 250.293C115.317 249.902 114.683 249.902 114.293 250.293L107.929 256.657C107.538 257.047 107.538 257.681 107.929 258.071 108.319 258.462 108.953 258.462 109.343 258.071L115 252.414 120.657 258.071C121.047 258.462 121.681 258.462 122.071 258.071 122.462 257.681 122.462 257.047 122.071 256.657L115.707 250.293zM116 275L116 251 114 251 114 275 116 275zM114 314C114 313.448 114.448 313 115 313 115.552 313 116 313.448 116 314L114 314zM115.707 338.707C115.317 339.098 114.683 339.098 114.293 338.707L107.929 332.343C107.538 331.953 107.538 331.319 107.929 330.929 108.319 330.538 108.953 330.538 109.343 330.929L115 336.586 120.657 330.929C121.047 330.538 121.681 330.538 122.071 330.929 122.462 331.319 122.462 331.953 122.071 332.343L115.707 338.707zM116 314L116 338 114 338 114 314 116 314z" fill="#DA372C"/><path d="M93.2716 300.224C96.0396 300.224 97.6556 298.608 98.1516 296.816L96.6956 296.272C96.2796 297.616 95.4796 298.864 93.2716 298.864C90.9516 298.864 89.3996 296.976 89.3996 294.272C89.3996 291.568 90.9676 289.936 93.2716 289.936C95.5276 289.936 96.3596 291.472 96.6476 292.384L98.1356 291.872C97.6876 290.384 96.1676 288.576 93.2716 288.576C90.0396 288.576 87.8476 291.04 87.8476 294.288C87.8476 297.536 89.7676 300.224 93.2716 300.224ZM102.622 300.224C104.27 300.224 105.022 299.056 105.262 298.624V300H106.59V292.08H105.23V295.44C105.23 296.656 105.198 299.024 103.054 299.024C102.014 299.024 101.342 298.416 101.342 296.928V292.08H99.982V297.248C99.982 299.008 100.766 300.224 102.622 300.224ZM109.282 300H110.642V296.368C110.642 294.512 111.378 293.376 113.17 293.376C113.49 293.376 113.762 293.408 114.018 293.456V292.064C113.826 292.016 113.586 291.968 113.202 291.968C111.698 291.968 110.882 293.136 110.626 293.728V292.08H109.282V300ZM118.377 300H120.201V298.8H118.553C117.993 298.8 117.753 298.56 117.753 298V293.232H119.913V292.08H117.753V289.6H116.393V292.08H114.553V293.232H116.393V298.08C116.393 299.392 117.065 300 118.377 300ZM124.468 300.224C125.86 300.224 126.628 299.456 127.012 298.784V300H128.34V292.08H126.98V293.312C126.596 292.64 125.86 291.856 124.468 291.856C122.644 291.856 121.252 293.44 121.252 296.048C121.252 298.656 122.644 300.224 124.468 300.224ZM124.82 299.024C123.556 299.024 122.644 298.272 122.644 296.064C122.644 293.856 123.556 293.056 124.82 293.056C126.116 293.056 127.06 294.064 127.06 296.064C127.06 298.064 126.116 299.024 124.82 299.024ZM130.984 290.528H132.424V288.8H130.984V290.528ZM131.032 300H132.392V292.08H131.032V300ZM135.078 300H136.438V296.64C136.438 295.472 136.486 293.056 138.662 293.056C139.718 293.056 140.406 293.664 140.406 295.152V300H141.766V294.832C141.766 293.072 140.966 291.856 138.998 291.856C137.286 291.856 136.518 293.072 136.406 293.424V292.08H135.078V300Z" fill="#1D1D21"/><path d="M802 207C802.552 207 803 206.552 803 206 803 205.448 802.552 205 802 205L802 207zM333.293 205.293C332.902 205.683 332.902 206.317 333.293 206.707L339.657 213.071C340.047 213.462 340.681 213.462 341.071 213.071 341.462 212.681 341.462 212.047 341.071 211.657L335.414 206 341.071 200.343C341.462 199.953 341.462 199.319 341.071 198.929 340.681 198.538 340.047 198.538 339.657 198.929L333.293 205.293zM802 205L334 205 334 207 802 207 802 205zM802 259C802.552 259 803 258.552 803 258 803 257.448 802.552 257 802 257V259zM697.293 257.293C696.902 257.683 696.902 258.317 697.293 258.707L703.657 265.071C704.047 265.462 704.681 265.462 705.071 265.071 705.462 264.681 705.462 264.047 705.071 263.657L699.414 258 705.071 252.343C705.462 251.953 705.462 251.319 705.071 250.929 704.681 250.538 704.047 250.538 703.657 250.929L697.293 257.293zM802 257L698 257V259L802 259V257zM802 348C802.552 348 803 347.552 803 347 803 346.448 802.552 346 802 346V348zM708.293 346.293C707.902 346.683 707.902 347.317 708.293 347.707L714.657 354.071C715.047 354.462 715.681 354.462 716.071 354.071 716.462 353.681 716.462 353.047 716.071 352.657L710.414 347 716.071 341.343C716.462 340.953 716.462 340.319 716.071 339.929 715.681 339.538 715.047 339.538 714.657 339.929L708.293 346.293zM802 346L709 346V348L802 348V346zM186 103C185.448 103 185 103.448 185 104 185 104.552 185.448 105 186 105L186 103zM249.707 104.707C250.098 104.317 250.098 103.683 249.707 103.293L243.343 96.9289C242.953 96.5384 242.319 96.5384 241.929 96.9289 241.538 97.3195 241.538 97.9526 241.929 98.3431L247.586 104 241.929 109.657C241.538 110.047 241.538 110.681 241.929 111.071 242.319 111.462 242.953 111.462 243.343 111.071L249.707 104.707zM186 105L249 105 249 103 186 103 186 105z" fill="#DA372C"/><path d="M44.7221 109H46.1621V99.16H50.3061V97.8H40.7381V99.16H44.7221V109zM51.7648 99.528H53.2048V97.8H51.7648V99.528zM51.8128 109H53.1728V101.08H51.8128V109zM58.6116 109H60.4356V107.8H58.7876C58.2276 107.8 57.9876 107.56 57.9876 107V102.232H60.1476V101.08H57.9876V98.6H56.6276V101.08H54.7876V102.232H56.6276V107.08C56.6276 108.392 57.2996 109 58.6116 109zM62.1565 109H63.5165V97.8H62.1565V109zM69.1954 109.224C70.6834 109.224 72.0114 108.552 72.6034 106.936L71.3554 106.504C71.1474 107.016 70.5874 108.04 69.2434 108.04 68.1394 108.04 67.0354 107.4 66.9554 105.4H72.5394C72.8434 102.808 71.4194 100.856 69.1154 100.856 67.0994 100.856 65.6114 102.472 65.6114 105.08 65.6114 107.768 67.0354 109.224 69.1954 109.224zM66.9874 104.264C67.0994 102.824 68.0754 101.976 69.1154 101.976 70.2034 101.976 71.1474 102.76 71.1474 104.264H66.9874zM81.8036 109.224C83.1476 109.224 84.1876 108.744 84.9716 107.992 85.7396 108.488 86.5236 108.904 87.2916 109.208L87.7876 108.056C87.0836 107.768 86.4116 107.416 85.7716 107.016 86.3156 106.168 86.6836 105.176 86.9236 104.152L85.5956 103.768C85.4196 104.648 85.1156 105.544 84.6836 106.264 83.9956 105.736 83.3716 105.176 82.8276 104.568 82.4916 104.184 82.1716 103.784 81.9156 103.384 83.9316 102.28 84.7476 101.432 84.7476 99.96 84.7476 98.648 83.7876 97.576 82.1876 97.576 80.6516 97.576 79.5316 98.6 79.5316 100.392 79.5316 101.24 79.7876 102.136 80.2356 103.016 78.9396 103.816 78.2516 104.824 78.2516 106.152 78.2516 107.848 79.5636 109.224 81.8036 109.224zM81.3396 102.376C81.0036 101.688 80.8276 101 80.8276 100.36 80.8276 99.336 81.2916 98.696 82.1556 98.696 83.0676 98.696 83.4356 99.352 83.4356 99.928 83.4356 100.568 83.1636 101.304 81.8836 102.056L81.3396 102.376zM81.8996 108.024C80.5396 108.024 79.6596 107.144 79.6596 106.008 79.6596 105.208 80.1876 104.504 80.8596 104.04 81.1796 104.472 81.5156 104.92 81.8356 105.288 82.5396 106.104 83.1476 106.648 83.8996 107.224 83.3556 107.736 82.6836 108.024 81.8996 108.024zM96.0774 109.224C97.4694 109.224 98.2374 108.456 98.6214 107.784V109H99.9494V97.8H98.5894V100.76 102.312C98.2054 101.64 97.4694 100.856 96.0774 100.856 94.2534 100.856 92.8614 102.44 92.8614 105.048 92.8614 107.656 94.2534 109.224 96.0774 109.224zM96.4294 108.024C95.1654 108.024 94.2534 107.272 94.2534 105.064 94.2534 102.856 95.1654 102.056 96.4294 102.056 97.7254 102.056 98.6694 103.064 98.6694 105.064 98.6694 107.064 97.7254 108.024 96.4294 108.024zM105.633 109.224C107.121 109.224 108.449 108.552 109.041 106.936L107.793 106.504C107.585 107.016 107.025 108.04 105.681 108.04 104.577 108.04 103.473 107.4 103.393 105.4H108.977C109.281 102.808 107.857 100.856 105.553 100.856 103.537 100.856 102.049 102.472 102.049 105.08 102.049 107.768 103.473 109.224 105.633 109.224zM103.425 104.264C103.537 102.824 104.513 101.976 105.553 101.976 106.641 101.976 107.585 102.76 107.585 104.264H103.425zM113.829 109.224C115.829 109.224 116.981 108.28 116.981 106.792 116.981 104.984 115.109 104.504 114.309 104.344L113.397 104.168C112.261 103.944 112.005 103.624 112.005 103.096 112.005 102.52 112.517 101.976 113.621 101.976 114.965 101.976 115.413 102.824 115.605 103.352L116.837 102.904C116.517 101.864 115.589 100.856 113.621 100.856 112.069 100.856 110.725 101.816 110.725 103.24 110.725 104.744 111.877 105.24 113.189 105.496L114.101 105.672C115.253 105.896 115.621 106.312 115.621 106.904 115.621 107.656 114.981 108.056 113.829 108.056 112.581 108.056 111.941 107.464 111.701 106.52L110.389 106.952C110.741 108.472 112.213 109.224 113.829 109.224zM122.168 109.224C123.944 109.224 125.096 108.184 125.608 106.712L124.328 106.264C124.072 107.128 123.48 108.024 122.168 108.024 120.856 108.024 119.832 107.064 119.832 105.032 119.832 103.048 120.888 102.056 122.152 102.056 123.304 102.056 123.88 102.808 124.136 103.56L125.4 103.144C125.032 101.912 123.944 100.856 122.152 100.856 119.96 100.856 118.408 102.584 118.408 105.032 118.408 107.592 119.88 109.224 122.168 109.224zM127.422 109H128.782V105.368C128.782 103.512 129.518 102.376 131.31 102.376 131.63 102.376 131.902 102.408 132.158 102.456V101.064C131.966 101.016 131.726 100.968 131.342 100.968 129.838 100.968 129.022 102.136 128.766 102.728V101.08H127.422V109zM133.718 99.528H135.158V97.8H133.718V99.528zM133.766 109H135.126V101.08H133.766V109zM137.813 112.12H139.173V109.32 107.768C139.557 108.44 140.293 109.224 141.685 109.224 143.509 109.224 144.901 107.64 144.901 105.032 144.901 102.424 143.509 100.856 141.685 100.856 140.293 100.856 139.525 101.624 139.141 102.296V101.08H137.813V112.12zM141.333 108.024C140.037 108.024 139.093 107.016 139.093 105.016 139.093 103.016 140.037 102.056 141.333 102.056 142.597 102.056 143.509 102.808 143.509 105.016 143.509 107.224 142.597 108.024 141.333 108.024zM149.69 109H151.514V107.8H149.866C149.306 107.8 149.066 107.56 149.066 107V102.232H151.226V101.08H149.066V98.6H147.706V101.08H145.866V102.232H147.706V107.08C147.706 108.392 148.378 109 149.69 109zM153.187 99.528H154.627V97.8H153.187V99.528zM153.235 109H154.595V101.08H153.235V109zM160.338 109.224C162.418 109.224 164.017 107.432 164.017 105.048 164.017 102.664 162.482 100.856 160.338 100.856 158.194 100.856 156.658 102.664 156.658 105.048 156.658 107.432 158.258 109.224 160.338 109.224zM160.338 108.024C158.994 108.024 158.066 107.064 158.066 105.064 158.066 103.064 158.994 102.056 160.338 102.056 161.682 102.056 162.61 103.064 162.61 105.064 162.61 107.064 161.682 108.024 160.338 108.024zM166.078 109H167.438V105.64C167.438 104.472 167.486 102.056 169.662 102.056 170.718 102.056 171.406 102.664 171.406 104.152V109H172.766V103.832C172.766 102.072 171.966 100.856 169.998 100.856 168.286 100.856 167.518 102.072 167.406 102.424V101.08H166.078V109zM820.256 211.224C823.024 211.224 824.64 209.608 825.136 207.816L823.68 207.272C823.264 208.616 822.464 209.864 820.256 209.864 817.936 209.864 816.384 207.976 816.384 205.272 816.384 202.568 817.952 200.936 820.256 200.936 822.512 200.936 823.344 202.472 823.632 203.384L825.12 202.872C824.672 201.384 823.152 199.576 820.256 199.576 817.024 199.576 814.832 202.04 814.832 205.288 814.832 208.536 816.752 211.224 820.256 211.224zM830.134 211.224C832.214 211.224 833.814 209.432 833.814 207.048 833.814 204.664 832.278 202.856 830.134 202.856 827.99 202.856 826.454 204.664 826.454 207.048 826.454 209.432 828.054 211.224 830.134 211.224zM830.134 210.024C828.79 210.024 827.862 209.064 827.862 207.064 827.862 205.064 828.79 204.056 830.134 204.056 831.478 204.056 832.406 205.064 832.406 207.064 832.406 209.064 831.478 210.024 830.134 210.024zM835.875 211H837.235V207.64C837.235 206.472 837.283 204.056 839.459 204.056 840.515 204.056 841.203 204.664 841.203 206.152V211H842.563V205.832C842.563 204.072 841.763 202.856 839.795 202.856 838.083 202.856 837.315 204.072 837.203 204.424V203.08H835.875V211zM847.893 211H849.717V209.8H848.069C847.509 209.8 847.269 209.56 847.269 209V204.232H849.429V203.08H847.269V200.6H845.909V203.08H844.069V204.232H845.909V209.08C845.909 210.392 846.581 211 847.893 211zM854.352 211.224C855.84 211.224 857.168 210.552 857.76 208.936L856.512 208.504C856.304 209.016 855.744 210.04 854.4 210.04 853.296 210.04 852.192 209.4 852.112 207.4H857.696C858 204.808 856.576 202.856 854.272 202.856 852.256 202.856 850.768 204.472 850.768 207.08 850.768 209.768 852.192 211.224 854.352 211.224zM852.144 206.264C852.256 204.824 853.232 203.976 854.272 203.976 855.36 203.976 856.304 204.76 856.304 206.264H852.144zM859.875 211H861.235V207.64C861.235 206.472 861.283 204.056 863.459 204.056 864.515 204.056 865.203 204.664 865.203 206.152V211H866.563V205.832C866.563 204.072 865.763 202.856 863.795 202.856 862.083 202.856 861.315 204.072 861.203 204.424V203.08H859.875V211zM871.893 211H873.717V209.8H872.069C871.509 209.8 871.269 209.56 871.269 209V204.232H873.429V203.08H871.269V200.6H869.909V203.08H868.069V204.232H869.909V209.08C869.909 210.392 870.581 211 871.893 211zM882.202 211.224C883.594 211.224 884.362 210.456 884.746 209.784V211H886.074V203.08H884.714V204.312C884.33 203.64 883.594 202.856 882.202 202.856 880.378 202.856 878.986 204.44 878.986 207.048 878.986 209.656 880.378 211.224 882.202 211.224zM882.554 210.024C881.29 210.024 880.378 209.272 880.378 207.064 880.378 204.856 881.29 204.056 882.554 204.056 883.85 204.056 884.794 205.064 884.794 207.064 884.794 209.064 883.85 210.024 882.554 210.024zM888.766 211H890.126V207.368C890.126 205.512 890.862 204.376 892.654 204.376 892.974 204.376 893.246 204.408 893.502 204.456V203.064C893.31 203.016 893.07 202.968 892.686 202.968 891.182 202.968 890.366 204.136 890.11 204.728V203.08H888.766V211zM897.977 211.224C899.465 211.224 900.793 210.552 901.385 208.936L900.137 208.504C899.929 209.016 899.369 210.04 898.025 210.04 896.921 210.04 895.817 209.4 895.737 207.4H901.321C901.625 204.808 900.201 202.856 897.897 202.856 895.881 202.856 894.393 204.472 894.393 207.08 894.393 209.768 895.817 211.224 897.977 211.224zM895.769 206.264C895.881 204.824 896.857 203.976 897.897 203.976 898.985 203.976 899.929 204.76 899.929 206.264H895.769zM906.124 211.224C907.516 211.224 908.284 210.456 908.668 209.784V211H909.996V203.08H908.636V204.312C908.252 203.64 907.516 202.856 906.124 202.856 904.3 202.856 902.908 204.44 902.908 207.048 902.908 209.656 904.3 211.224 906.124 211.224zM906.476 210.024C905.212 210.024 904.3 209.272 904.3 207.064 904.3 204.856 905.212 204.056 906.476 204.056 907.772 204.056 908.716 205.064 908.716 207.064 908.716 209.064 907.772 210.024 906.476 210.024zM820.256 264.224C823.024 264.224 824.64 262.608 825.136 260.816L823.68 260.272C823.264 261.616 822.464 262.864 820.256 262.864 817.936 262.864 816.384 260.976 816.384 258.272 816.384 255.568 817.952 253.936 820.256 253.936 822.512 253.936 823.344 255.472 823.632 256.384L825.12 255.872C824.672 254.384 823.152 252.576 820.256 252.576 817.024 252.576 814.832 255.04 814.832 258.288 814.832 261.536 816.752 264.224 820.256 264.224zM830.134 264.224C832.214 264.224 833.814 262.432 833.814 260.048 833.814 257.664 832.278 255.856 830.134 255.856 827.99 255.856 826.454 257.664 826.454 260.048 826.454 262.432 828.054 264.224 830.134 264.224zM830.134 263.024C828.79 263.024 827.862 262.064 827.862 260.064 827.862 258.064 828.79 257.056 830.134 257.056 831.478 257.056 832.406 258.064 832.406 260.064 832.406 262.064 831.478 263.024 830.134 263.024zM835.875 264H837.235V260.64C837.235 259.472 837.283 257.056 839.459 257.056 840.515 257.056 841.203 257.664 841.203 259.152V264H842.563V258.832C842.563 257.072 841.763 255.856 839.795 255.856 838.083 255.856 837.315 257.072 837.203 257.424V256.08H835.875V264zM847.893 264H849.717V262.8H848.069C847.509 262.8 847.269 262.56 847.269 262V257.232H849.429V256.08H847.269V253.6H845.909V256.08H844.069V257.232H845.909V262.08C845.909 263.392 846.581 264 847.893 264zM853.984 264.224C855.376 264.224 856.144 263.456 856.528 262.784V264H857.856V256.08H856.496V257.312C856.112 256.64 855.376 255.856 853.984 255.856 852.16 255.856 850.768 257.44 850.768 260.048 850.768 262.656 852.16 264.224 853.984 264.224zM854.336 263.024C853.072 263.024 852.16 262.272 852.16 260.064 852.16 257.856 853.072 257.056 854.336 257.056 855.632 257.056 856.576 258.064 856.576 260.064 856.576 262.064 855.632 263.024 854.336 263.024zM860.499 254.528H861.939V252.8H860.499V254.528zM860.547 264H861.907V256.08H860.547V264zM864.594 264H865.954V260.64C865.954 259.472 866.002 257.056 868.178 257.056 869.234 257.056 869.922 257.664 869.922 259.152V264H871.282V258.832C871.282 257.072 870.482 255.856 868.514 255.856 866.802 255.856 866.034 257.072 865.922 257.424V256.08H864.594V264zM876.852 264.224C878.34 264.224 879.668 263.552 880.26 261.936L879.012 261.504C878.804 262.016 878.244 263.04 876.9 263.04 875.796 263.04 874.692 262.4 874.612 260.4H880.196C880.5 257.808 879.076 255.856 876.772 255.856 874.756 255.856 873.268 257.472 873.268 260.08 873.268 262.768 874.692 264.224 876.852 264.224zM874.644 259.264C874.756 257.824 875.732 256.976 876.772 256.976 877.86 256.976 878.804 257.76 878.804 259.264H874.644zM882.375 264H883.735V260.368C883.735 258.512 884.471 257.376 886.263 257.376 886.583 257.376 886.855 257.408 887.111 257.456V256.064C886.919 256.016 886.679 255.968 886.295 255.968 884.791 255.968 883.975 257.136 883.719 257.728V256.08H882.375V264zM822.976 352H824.592L820.496 340.8H818.464L814.272 352H815.824L816.912 348.976H821.904L822.976 352zM817.408 347.616L818.544 344.448 819.424 342C819.6 342.48 819.856 343.184 820.304 344.448L821.424 347.616H817.408zM829.324 352.224C831.1 352.224 832.252 351.184 832.764 349.712L831.484 349.264C831.228 350.128 830.636 351.024 829.324 351.024 828.012 351.024 826.988 350.064 826.988 348.032 826.988 346.048 828.044 345.056 829.308 345.056 830.46 345.056 831.036 345.808 831.292 346.56L832.556 346.144C832.188 344.912 831.1 343.856 829.308 343.856 827.116 343.856 825.564 345.584 825.564 348.032 825.564 350.592 827.036 352.224 829.324 352.224zM837.33 352H839.154V350.8H837.506C836.946 350.8 836.706 350.56 836.706 350V345.232H838.866V344.08H836.706V341.6H835.346V344.08H833.506V345.232H835.346V350.08C835.346 351.392 836.018 352 837.33 352zM840.827 342.528H842.267V340.8H840.827V342.528zM840.875 352H842.235V344.08H840.875V352zM847.978 352.224C850.058 352.224 851.658 350.432 851.658 348.048 851.658 345.664 850.122 343.856 847.978 343.856 845.834 343.856 844.298 345.664 844.298 348.048 844.298 350.432 845.898 352.224 847.978 352.224zM847.978 351.024C846.634 351.024 845.706 350.064 845.706 348.064 845.706 346.064 846.634 345.056 847.978 345.056 849.322 345.056 850.25 346.064 850.25 348.064 850.25 350.064 849.322 351.024 847.978 351.024zM853.719 352H855.079V348.64C855.079 347.472 855.127 345.056 857.303 345.056 858.359 345.056 859.047 345.664 859.047 347.152V352H860.407V346.832C860.407 345.072 859.607 343.856 857.639 343.856 855.927 343.856 855.159 345.072 855.047 345.424V344.08H853.719V352zM870.997 352.224C872.821 352.224 874.213 350.64 874.213 348.032 874.213 345.424 872.821 343.856 870.997 343.856 869.605 343.856 868.869 344.624 868.485 345.296V343.76 340.8H867.125V352H868.453V350.768C868.837 351.44 869.605 352.224 870.997 352.224zM870.645 351.024C869.349 351.024 868.405 350.016 868.405 348.016 868.405 346.016 869.349 345.056 870.645 345.056 871.909 345.056 872.821 345.808 872.821 348.016 872.821 350.224 871.909 351.024 870.645 351.024zM878.937 352.224C880.329 352.224 881.097 351.456 881.481 350.784V352H882.809V344.08H881.449V345.312C881.065 344.64 880.329 343.856 878.937 343.856 877.113 343.856 875.721 345.44 875.721 348.048 875.721 350.656 877.113 352.224 878.937 352.224zM879.289 351.024C878.025 351.024 877.113 350.272 877.113 348.064 877.113 345.856 878.025 345.056 879.289 345.056 880.585 345.056 881.529 346.064 881.529 348.064 881.529 350.064 880.585 351.024 879.289 351.024zM885.5 352H886.86V348.368C886.86 346.512 887.596 345.376 889.388 345.376 889.708 345.376 889.98 345.408 890.236 345.456V344.064C890.044 344.016 889.804 343.968 889.42 343.968 887.916 343.968 887.1 345.136 886.844 345.728V344.08H885.5V352z" fill="#1D1D21"/></svg>