<svg width="958" height="346" viewBox="0 0 958 346" fill="none" xmlns="http://www.w3.org/2000/svg">
<g filter="url(#filter0_d)">
<rect x="266" y="108" width="426" height="130" rx="4" fill="#008055"/>
<path fill-rule="evenodd" clip-rule="evenodd" d="M290 154C295.523 154 300 149.523 300 144C300 138.477 295.523 134 290 134C284.477 134 280 138.477 280 144C280 149.523 284.477 154 290 154ZM293.75 138.64L289.458 146.8L285.837 144.117C285.339 143.747 284.639 143.84 284.253 144.327C283.859 144.821 283.933 145.542 284.418 145.946L288.991 149.752C289.511 150.185 290.296 150.033 290.62 149.436L295.854 139.778C296.178 139.18 295.944 138.431 295.34 138.127C294.759 137.835 294.054 138.063 293.75 138.64Z" fill="white"/>
<path d="M318.288 151H320.368V146.36L324.336 139.8H321.952L320.464 142.456L319.376 144.392L318.24 142.472L316.656 139.8H314.224L318.288 146.376V151ZM327.781 151.24C330.101 151.24 331.797 149.544 331.797 147.016C331.797 144.52 330.117 142.792 327.781 142.792C325.445 142.792 323.765 144.52 323.765 147.016C323.765 149.448 325.461 151.24 327.781 151.24ZM327.781 149.656C326.597 149.656 325.781 148.824 325.781 147.048C325.781 145.272 326.597 144.376 327.781 144.376C328.965 144.376 329.765 145.272 329.765 147.048C329.765 148.824 328.965 149.656 327.781 149.656ZM336.038 151.24C337.606 151.24 338.342 150.216 338.662 149.688V151H340.598V143.032H338.646V146.776C338.646 148.056 338.358 149.608 336.838 149.608C335.99 149.608 335.462 149.112 335.462 147.88V143.032H333.51V148.344C333.51 150.088 334.39 151.24 336.038 151.24ZM342.965 151H344.917V147.64C344.917 145.688 345.637 144.872 347.333 144.872C347.621 144.872 347.909 144.888 348.197 144.936V142.936C348.053 142.904 347.893 142.888 347.669 142.888C345.893 142.888 345.141 144.152 344.885 144.792V143.032H342.965V151ZM356.001 151.24C357.377 151.24 358.241 150.472 358.609 149.88V151H360.513V139.8H358.561V142.712V144.152C358.193 143.56 357.361 142.792 356.001 142.792C353.985 142.792 352.625 144.456 352.625 147.016C352.625 149.576 353.985 151.24 356.001 151.24ZM356.641 149.704C355.505 149.704 354.657 149.016 354.657 147.016C354.657 145.032 355.505 144.328 356.641 144.328C357.825 144.328 358.657 145.224 358.657 147.016C358.657 148.824 357.825 149.704 356.641 149.704ZM366.343 151.24C368.663 151.24 370.359 149.544 370.359 147.016C370.359 144.52 368.679 142.792 366.343 142.792C364.007 142.792 362.327 144.52 362.327 147.016C362.327 149.448 364.023 151.24 366.343 151.24ZM366.343 149.656C365.159 149.656 364.343 148.824 364.343 147.048C364.343 145.272 365.159 144.376 366.343 144.376C367.527 144.376 368.327 145.272 368.327 147.048C368.327 148.824 367.527 149.656 366.343 149.656ZM372.168 151H374.12V147.368C374.12 146.392 374.152 144.424 375.944 144.424C376.824 144.424 377.384 144.936 377.384 146.136V151H379.336V145.704C379.336 143.96 378.552 142.792 376.648 142.792C375.096 142.792 374.328 143.832 374.072 144.296V143.032H372.168V151ZM384.054 151.24C385.622 151.24 386.358 150.216 386.678 149.688V151H388.614V143.032H386.662V146.776C386.662 148.056 386.374 149.608 384.854 149.608C384.006 149.608 383.478 149.112 383.478 147.88V143.032H381.526V148.344C381.526 150.088 382.406 151.24 384.054 151.24ZM393.797 151H396.165V149.4H394.469C393.957 149.4 393.733 149.176 393.733 148.664V144.552H395.845V143.032H393.733V140.52H391.781V143.032H390.053V144.552H391.781V148.968C391.781 150.232 392.501 151 393.797 151ZM400.659 151.224C402.883 151.224 404.179 150.216 404.179 148.664C404.179 147.032 402.707 146.424 401.443 146.184L400.419 145.976C399.459 145.8 399.203 145.544 399.203 145.096C399.203 144.616 399.635 144.2 400.515 144.2C401.507 144.2 402.035 144.808 402.259 145.416L403.907 144.712C403.571 143.816 402.579 142.792 400.579 142.792C398.659 142.792 397.347 143.784 397.347 145.272C397.347 146.824 398.371 147.352 399.923 147.656L400.979 147.864C401.923 148.056 402.163 148.408 402.163 148.856C402.163 149.416 401.667 149.784 400.739 149.784C399.299 149.784 398.915 148.808 398.819 148.36L397.011 148.936C397.363 150.392 398.867 151.224 400.659 151.224ZM409.825 151H411.777V147.368C411.777 146.392 411.809 144.424 413.601 144.424C414.481 144.424 415.041 144.936 415.041 146.136V151H416.993V145.704C416.993 143.96 416.177 142.792 414.401 142.792C412.753 142.792 412.033 143.832 411.777 144.296V142.712V139.8H409.825V151ZM421.342 151.24C422.686 151.24 423.534 150.568 424.014 149.816C424.11 150.52 424.462 151 425.47 151H426.974V149.464H426.222C425.806 149.464 425.742 149.368 425.742 148.984V145.768C425.742 143.816 424.542 142.792 422.35 142.792C420.11 142.792 418.862 143.96 418.67 145.144L420.478 145.608C420.67 144.904 421.166 144.28 422.35 144.28C423.374 144.28 423.822 144.744 423.822 145.528V145.8C421.182 146.04 418.798 146.728 418.798 148.952C418.798 150.36 419.854 151.24 421.342 151.24ZM421.982 149.768C421.182 149.768 420.782 149.368 420.782 148.76C420.782 147.624 422.174 147.272 423.822 147.08V147.72C423.822 149.144 422.926 149.768 421.982 149.768ZM429.949 151H432.301L435.085 143.032H433.101L431.933 146.76C431.501 148.152 431.245 148.92 431.133 149.304C431.005 148.936 430.765 148.184 430.285 146.76L429.069 143.032H427.021L429.949 151ZM439.794 151.24C441.89 151.24 443.01 150.152 443.522 148.92L441.762 148.264C441.474 148.936 440.946 149.704 439.81 149.704C438.786 149.704 437.922 149.112 437.842 147.496H443.474C443.73 144.856 442.306 142.792 439.762 142.792C437.554 142.792 435.906 144.472 435.906 147.016C435.906 149.672 437.442 151.24 439.794 151.24ZM437.906 146.056C438.05 144.904 438.802 144.248 439.762 144.248C440.77 144.248 441.474 144.888 441.538 146.056H437.906ZM453.774 151.24C455.806 151.24 457.166 149.56 457.166 147.016C457.166 144.456 455.806 142.792 453.79 142.792C452.414 142.792 451.582 143.576 451.214 144.152V142.712V139.8H449.262V151H451.166V149.864C451.55 150.488 452.398 151.24 453.774 151.24ZM453.15 149.704C451.966 149.704 451.118 148.808 451.118 147C451.118 145.208 451.966 144.328 453.15 144.328C454.286 144.328 455.134 145.016 455.134 147C455.134 149 454.286 149.704 453.15 149.704ZM462.341 151.24C464.437 151.24 465.557 150.152 466.069 148.92L464.309 148.264C464.021 148.936 463.493 149.704 462.357 149.704C461.333 149.704 460.469 149.112 460.389 147.496H466.021C466.277 144.856 464.853 142.792 462.309 142.792C460.101 142.792 458.453 144.472 458.453 147.016C458.453 149.672 459.989 151.24 462.341 151.24ZM460.453 146.056C460.597 144.904 461.349 144.248 462.309 144.248C463.317 144.248 464.021 144.888 464.085 146.056H460.453ZM471.247 151.24C473.343 151.24 474.463 150.152 474.975 148.92L473.215 148.264C472.927 148.936 472.399 149.704 471.263 149.704C470.239 149.704 469.375 149.112 469.295 147.496H474.927C475.183 144.856 473.759 142.792 471.215 142.792C469.007 142.792 467.359 144.472 467.359 147.016C467.359 149.672 468.895 151.24 471.247 151.24ZM469.359 146.056C469.503 144.904 470.255 144.248 471.215 144.248C472.223 144.248 472.927 144.888 472.991 146.056H469.359ZM476.809 151H478.761V147.368C478.761 146.392 478.793 144.424 480.585 144.424C481.465 144.424 482.025 144.936 482.025 146.136V151H483.977V145.704C483.977 143.96 483.193 142.792 481.289 142.792C479.737 142.792 478.969 143.832 478.713 144.296V143.032H476.809V151ZM493.624 151.24C495.944 151.24 497.64 149.544 497.64 147.016C497.64 144.52 495.96 142.792 493.624 142.792C491.288 142.792 489.608 144.52 489.608 147.016C489.608 149.448 491.304 151.24 493.624 151.24ZM493.624 149.656C492.44 149.656 491.624 148.824 491.624 147.048C491.624 145.272 492.44 144.376 493.624 144.376C494.808 144.376 495.608 145.272 495.608 147.048C495.608 148.824 494.808 149.656 493.624 149.656ZM499.45 151H501.402V147.64C501.402 145.688 502.122 144.872 503.818 144.872C504.106 144.872 504.394 144.888 504.682 144.936V142.936C504.538 142.904 504.378 142.888 504.154 142.888C502.378 142.888 501.626 144.152 501.37 144.792V143.032H499.45V151ZM508.845 151.24C510.221 151.24 511.085 150.472 511.453 149.88V151H513.357V139.8H511.405V142.712V144.152C511.037 143.56 510.205 142.792 508.845 142.792C506.829 142.792 505.469 144.456 505.469 147.016C505.469 149.576 506.829 151.24 508.845 151.24ZM509.485 149.704C508.349 149.704 507.501 149.016 507.501 147.016C507.501 145.032 508.349 144.328 509.485 144.328C510.669 144.328 511.501 145.224 511.501 147.016C511.501 148.824 510.669 149.704 509.485 149.704ZM519.075 151.24C521.171 151.24 522.291 150.152 522.803 148.92L521.043 148.264C520.755 148.936 520.227 149.704 519.091 149.704C518.067 149.704 517.203 149.112 517.123 147.496H522.755C523.011 144.856 521.587 142.792 519.043 142.792C516.835 142.792 515.187 144.472 515.187 147.016C515.187 149.672 516.723 151.24 519.075 151.24ZM517.187 146.056C517.331 144.904 518.083 144.248 519.043 144.248C520.051 144.248 520.755 144.888 520.819 146.056H517.187ZM524.637 151H526.589V147.64C526.589 145.688 527.309 144.872 529.005 144.872C529.293 144.872 529.581 144.888 529.869 144.936V142.936C529.725 142.904 529.565 142.888 529.341 142.888C527.565 142.888 526.813 144.152 526.557 144.792V143.032H524.637V151ZM534.528 151.24C536.624 151.24 537.744 150.152 538.256 148.92L536.496 148.264C536.208 148.936 535.68 149.704 534.544 149.704C533.52 149.704 532.656 149.112 532.576 147.496H538.208C538.464 144.856 537.04 142.792 534.496 142.792C532.288 142.792 530.64 144.472 530.64 147.016C530.64 149.672 532.176 151.24 534.528 151.24ZM532.64 146.056C532.784 144.904 533.536 144.248 534.496 144.248C535.504 144.248 536.208 144.888 536.272 146.056H532.64ZM542.938 151.24C544.314 151.24 545.178 150.472 545.546 149.88V151H547.45V139.8H545.498V142.712V144.152C545.13 143.56 544.298 142.792 542.938 142.792C540.922 142.792 539.562 144.456 539.562 147.016C539.562 149.576 540.922 151.24 542.938 151.24ZM543.578 149.704C542.442 149.704 541.594 149.016 541.594 147.016C541.594 145.032 542.442 144.328 543.578 144.328C544.762 144.328 545.594 145.224 545.594 147.016C545.594 148.824 544.762 149.704 543.578 149.704ZM550.449 147.176H551.345L551.969 142.696V139.8H549.841V142.68L550.449 147.176ZM549.713 151H552.097V148.664H549.713V151Z" fill="white"/>
<path d="M323.056 179H324.976L319.616 172.456L324.128 167.8H322.176L317.088 173.208V170.616V167.8H315.648V179H317.088V175.016L318.608 173.464L323.056 179ZM328.867 179.224C330.355 179.224 331.683 178.552 332.275 176.936L331.027 176.504C330.819 177.016 330.259 178.04 328.915 178.04C327.811 178.04 326.707 177.4 326.627 175.4H332.211C332.515 172.808 331.091 170.856 328.787 170.856C326.771 170.856 325.283 172.472 325.283 175.08C325.283 177.768 326.707 179.224 328.867 179.224ZM326.659 174.264C326.771 172.824 327.747 171.976 328.787 171.976C329.875 171.976 330.819 172.76 330.819 174.264H326.659ZM337.383 179.224C338.871 179.224 340.199 178.552 340.791 176.936L339.543 176.504C339.335 177.016 338.775 178.04 337.431 178.04C336.327 178.04 335.223 177.4 335.143 175.4H340.727C341.031 172.808 339.607 170.856 337.303 170.856C335.287 170.856 333.799 172.472 333.799 175.08C333.799 177.768 335.223 179.224 337.383 179.224ZM335.175 174.264C335.287 172.824 336.263 171.976 337.303 171.976C338.391 171.976 339.335 172.76 339.335 174.264H335.175ZM342.907 182.12H344.267V179.32V177.768C344.651 178.44 345.387 179.224 346.779 179.224C348.603 179.224 349.995 177.64 349.995 175.032C349.995 172.424 348.603 170.856 346.779 170.856C345.387 170.856 344.619 171.624 344.235 172.296V171.08H342.907V182.12ZM346.427 178.024C345.131 178.024 344.187 177.016 344.187 175.016C344.187 173.016 345.131 172.056 346.427 172.056C347.691 172.056 348.603 172.808 348.603 175.016C348.603 177.224 347.691 178.024 346.427 178.024ZM358.859 179.224C360.251 179.224 361.019 178.456 361.403 177.784V179H362.731V171.08H361.371V172.312C360.987 171.64 360.251 170.856 358.859 170.856C357.035 170.856 355.643 172.44 355.643 175.048C355.643 177.656 357.035 179.224 358.859 179.224ZM359.211 178.024C357.947 178.024 357.035 177.272 357.035 175.064C357.035 172.856 357.947 172.056 359.211 172.056C360.507 172.056 361.451 173.064 361.451 175.064C361.451 177.064 360.507 178.024 359.211 178.024ZM365.422 179H366.782V175.64C366.782 174.472 366.83 172.056 369.006 172.056C370.062 172.056 370.75 172.664 370.75 174.152V179H372.11V173.832C372.11 172.072 371.31 170.856 369.342 170.856C367.63 170.856 366.862 172.072 366.75 172.424V171.08H365.422V179ZM381.82 179.224C383.308 179.224 384.636 178.552 385.228 176.936L383.98 176.504C383.772 177.016 383.212 178.04 381.868 178.04C380.764 178.04 379.66 177.4 379.58 175.4H385.164C385.468 172.808 384.044 170.856 381.74 170.856C379.724 170.856 378.236 172.472 378.236 175.08C378.236 177.768 379.66 179.224 381.82 179.224ZM379.612 174.264C379.724 172.824 380.7 171.976 381.74 171.976C382.828 171.976 383.772 172.76 383.772 174.264H379.612ZM392.128 171.08L390.688 175.416C390.368 176.376 390.272 176.664 390.128 177.128C389.968 176.712 389.84 176.392 389.344 175.192L387.648 171.08H386.112L389.536 178.904L389.088 180.168C388.88 180.76 388.528 180.872 388 180.872H386.496V182.12H388C389.392 182.12 389.968 181.656 390.496 180.088L393.568 171.08H392.128ZM398.211 179.224C399.699 179.224 401.027 178.552 401.619 176.936L400.371 176.504C400.163 177.016 399.603 178.04 398.259 178.04C397.155 178.04 396.051 177.4 395.971 175.4H401.555C401.859 172.808 400.435 170.856 398.131 170.856C396.115 170.856 394.627 172.472 394.627 175.08C394.627 177.768 396.051 179.224 398.211 179.224ZM396.003 174.264C396.115 172.824 397.091 171.976 398.131 171.976C399.219 171.976 400.163 172.76 400.163 174.264H396.003ZM410.931 179.224C413.011 179.224 414.611 177.432 414.611 175.048C414.611 172.664 413.075 170.856 410.931 170.856C408.787 170.856 407.251 172.664 407.251 175.048C407.251 177.432 408.851 179.224 410.931 179.224ZM410.931 178.024C409.587 178.024 408.659 177.064 408.659 175.064C408.659 173.064 409.587 172.056 410.931 172.056C412.275 172.056 413.203 173.064 413.203 175.064C413.203 177.064 412.275 178.024 410.931 178.024ZM419.2 179.224C420.848 179.224 421.6 178.056 421.84 177.624V179H423.168V171.08H421.808V174.44C421.808 175.656 421.776 178.024 419.632 178.024C418.592 178.024 417.92 177.416 417.92 175.928V171.08H416.56V176.248C416.56 178.008 417.344 179.224 419.2 179.224ZM428.612 179H430.436V177.8H428.788C428.228 177.8 427.988 177.56 427.988 177V172.232H430.148V171.08H427.988V168.6H426.628V171.08H424.788V172.232H426.628V177.08C426.628 178.392 427.3 179 428.612 179ZM436.767 179H438.127V172.232H440.207V171.08H438.127V169.8C438.127 169.24 438.367 169 438.927 169H440.495V167.8H438.767C437.455 167.8 436.767 168.424 436.767 169.896V171.08H435.007V172.232H436.767V179ZM444.775 179.224C446.855 179.224 448.455 177.432 448.455 175.048C448.455 172.664 446.919 170.856 444.775 170.856C442.631 170.856 441.095 172.664 441.095 175.048C441.095 177.432 442.695 179.224 444.775 179.224ZM444.775 178.024C443.431 178.024 442.503 177.064 442.503 175.064C442.503 173.064 443.431 172.056 444.775 172.056C446.119 172.056 447.047 173.064 447.047 175.064C447.047 177.064 446.119 178.024 444.775 178.024ZM450.516 179H451.876V175.368C451.876 173.512 452.612 172.376 454.404 172.376C454.724 172.376 454.996 172.408 455.252 172.456V171.064C455.06 171.016 454.82 170.968 454.436 170.968C452.932 170.968 452.116 172.136 451.86 172.728V171.08H450.516V179ZM463.187 179.224C464.579 179.224 465.347 178.456 465.731 177.784V179H467.059V171.08H465.699V172.312C465.315 171.64 464.579 170.856 463.187 170.856C461.363 170.856 459.971 172.44 459.971 175.048C459.971 177.656 461.363 179.224 463.187 179.224ZM463.539 178.024C462.275 178.024 461.363 177.272 461.363 175.064C461.363 172.856 462.275 172.056 463.539 172.056C464.835 172.056 465.779 173.064 465.779 175.064C465.779 177.064 464.835 178.024 463.539 178.024ZM469.75 179H471.11V175.64C471.11 174.472 471.158 172.056 473.334 172.056C474.39 172.056 475.078 172.664 475.078 174.152V179H476.438V173.832C476.438 172.072 475.638 170.856 473.67 170.856C471.958 170.856 471.19 172.072 471.078 172.424V171.08H469.75V179ZM486.149 179.224C487.637 179.224 488.965 178.552 489.557 176.936L488.309 176.504C488.101 177.016 487.541 178.04 486.197 178.04C485.093 178.04 483.989 177.4 483.909 175.4H489.493C489.797 172.808 488.373 170.856 486.069 170.856C484.053 170.856 482.565 172.472 482.565 175.08C482.565 177.768 483.989 179.224 486.149 179.224ZM483.941 174.264C484.053 172.824 485.029 171.976 486.069 171.976C487.157 171.976 488.101 172.76 488.101 174.264H483.941ZM491.672 179H493.032V175.32C493.032 174.184 493.128 172.072 495.064 172.072C496.12 172.072 496.824 172.616 496.824 174.152V179H498.152V175.32C498.152 174.184 498.2 172.072 500.2 172.072C501.256 172.072 501.944 172.616 501.944 174.152V179H503.304V173.752C503.304 171.912 502.344 170.856 500.536 170.856C498.856 170.856 498.152 171.896 497.88 172.552C497.48 171.48 496.552 170.856 495.384 170.856C493.96 170.856 493.288 171.768 493 172.28V171.08H491.672V179ZM508.499 179.224C509.891 179.224 510.659 178.456 511.043 177.784V179H512.371V171.08H511.011V172.312C510.627 171.64 509.891 170.856 508.499 170.856C506.675 170.856 505.283 172.44 505.283 175.048C505.283 177.656 506.675 179.224 508.499 179.224ZM508.851 178.024C507.587 178.024 506.675 177.272 506.675 175.064C506.675 172.856 507.587 172.056 508.851 172.056C510.147 172.056 511.091 173.064 511.091 175.064C511.091 177.064 510.147 178.024 508.851 178.024ZM515.015 169.528H516.455V167.8H515.015V169.528ZM515.063 179H516.423V171.08H515.063V179ZM519.11 179H520.47V167.8H519.11V179ZM528.711 179H530.247L531.495 175.096C531.975 173.592 532.135 173.096 532.295 172.616L533.079 175.096L534.295 179H535.879L538.567 171.08H537.127L535.879 175.032C535.415 176.488 535.207 177.128 535.079 177.496L534.455 175.464L533.095 171.08H531.527L530.295 175.032L529.527 177.496C529.399 177.064 529.239 176.552 528.759 175.032L527.527 171.08H526.103L528.711 179ZM540.218 169.528H541.658V167.8H540.218V169.528ZM540.266 179H541.626V171.08H540.266V179ZM547.065 179H548.889V177.8H547.241C546.681 177.8 546.441 177.56 546.441 177V172.232H548.601V171.08H546.441V168.6H545.081V171.08H543.241V172.232H545.081V177.08C545.081 178.392 545.753 179 547.065 179ZM550.61 179H551.97V175.64C551.97 174.472 552.018 172.056 554.194 172.056C555.25 172.056 555.938 172.664 555.938 174.152V179H557.298V173.832C557.298 172.072 556.434 170.856 554.626 170.856C552.754 170.856 552.082 172.072 551.97 172.424V170.76V167.8H550.61V179ZM568.519 171.08L567.079 175.416C566.759 176.376 566.663 176.664 566.519 177.128C566.359 176.712 566.231 176.392 565.735 175.192L564.039 171.08H562.503L565.927 178.904L565.479 180.168C565.271 180.76 564.919 180.872 564.391 180.872H562.887V182.12H564.391C565.783 182.12 566.359 181.656 566.887 180.088L569.959 171.08H568.519ZM574.666 179.224C576.746 179.224 578.346 177.432 578.346 175.048C578.346 172.664 576.81 170.856 574.666 170.856C572.522 170.856 570.986 172.664 570.986 175.048C570.986 177.432 572.586 179.224 574.666 179.224ZM574.666 178.024C573.322 178.024 572.394 177.064 572.394 175.064C572.394 173.064 573.322 172.056 574.666 172.056C576.01 172.056 576.938 173.064 576.938 175.064C576.938 177.064 576.01 178.024 574.666 178.024ZM582.935 179.224C584.583 179.224 585.335 178.056 585.575 177.624V179H586.903V171.08H585.543V174.44C585.543 175.656 585.511 178.024 583.367 178.024C582.327 178.024 581.655 177.416 581.655 175.928V171.08H580.295V176.248C580.295 178.008 581.079 179.224 582.935 179.224ZM589.594 179H590.954V175.368C590.954 173.512 591.69 172.376 593.482 172.376C593.802 172.376 594.074 172.408 594.33 172.456V171.064C594.138 171.016 593.898 170.968 593.514 170.968C592.01 170.968 591.194 172.136 590.938 172.728V171.08H589.594V179ZM318.496 206.224C320.272 206.224 321.424 205.184 321.936 203.712L320.656 203.264C320.4 204.128 319.808 205.024 318.496 205.024C317.184 205.024 316.16 204.064 316.16 202.032C316.16 200.048 317.216 199.056 318.48 199.056C319.632 199.056 320.208 199.808 320.464 200.56L321.728 200.144C321.36 198.912 320.272 197.856 318.48 197.856C316.288 197.856 314.736 199.584 314.736 202.032C314.736 204.592 316.208 206.224 318.496 206.224ZM326.806 206.224C328.886 206.224 330.486 204.432 330.486 202.048C330.486 199.664 328.95 197.856 326.806 197.856C324.662 197.856 323.126 199.664 323.126 202.048C323.126 204.432 324.726 206.224 326.806 206.224ZM326.806 205.024C325.462 205.024 324.534 204.064 324.534 202.064C324.534 200.064 325.462 199.056 326.806 199.056C328.15 199.056 329.078 200.064 329.078 202.064C329.078 204.064 328.15 205.024 326.806 205.024ZM332.547 206H333.907V202.64C333.907 201.472 333.955 199.056 336.131 199.056C337.187 199.056 337.875 199.664 337.875 201.152V206H339.235V200.832C339.235 199.072 338.435 197.856 336.467 197.856C334.755 197.856 333.987 199.072 333.875 199.424V198.08H332.547V206ZM349.013 198.08H343.893V196.8C343.893 196.24 344.133 196 344.693 196H346.261V194.8H344.533C343.221 194.8 342.533 195.424 342.533 196.896V198.08H340.773V199.232H342.533V206H343.893V199.232H347.653V206H349.013V198.08ZM347.605 194.8V196.528H349.045V194.8H347.605ZM351.703 206H353.063V202.368C353.063 200.512 353.799 199.376 355.591 199.376C355.911 199.376 356.183 199.408 356.439 199.456V198.064C356.247 198.016 356.007 197.968 355.623 197.968C354.119 197.968 353.303 199.136 353.047 199.728V198.08H351.703V206ZM358.047 206H359.407V202.32C359.407 201.184 359.503 199.072 361.439 199.072C362.495 199.072 363.199 199.616 363.199 201.152V206H364.527V202.32C364.527 201.184 364.575 199.072 366.575 199.072C367.631 199.072 368.319 199.616 368.319 201.152V206H369.679V200.752C369.679 198.912 368.719 197.856 366.911 197.856C365.231 197.856 364.527 198.896 364.255 199.552C363.855 198.48 362.927 197.856 361.759 197.856C360.335 197.856 359.663 198.768 359.375 199.28V198.08H358.047V206ZM374.874 206.224C376.266 206.224 377.034 205.456 377.418 204.784V206H378.746V198.08H377.386V199.312C377.002 198.64 376.266 197.856 374.874 197.856C373.05 197.856 371.658 199.44 371.658 202.048C371.658 204.656 373.05 206.224 374.874 206.224ZM375.226 205.024C373.962 205.024 373.05 204.272 373.05 202.064C373.05 199.856 373.962 199.056 375.226 199.056C376.522 199.056 377.466 200.064 377.466 202.064C377.466 204.064 376.522 205.024 375.226 205.024ZM384.19 206H386.014V204.8H384.366C383.806 204.8 383.566 204.56 383.566 204V199.232H385.726V198.08H383.566V195.6H382.206V198.08H380.366V199.232H382.206V204.08C382.206 205.392 382.878 206 384.19 206ZM387.687 196.528H389.127V194.8H387.687V196.528ZM387.735 206H389.095V198.08H387.735V206ZM394.838 206.224C396.918 206.224 398.517 204.432 398.517 202.048C398.517 199.664 396.982 197.856 394.838 197.856C392.694 197.856 391.158 199.664 391.158 202.048C391.158 204.432 392.758 206.224 394.838 206.224ZM394.838 205.024C393.494 205.024 392.566 204.064 392.566 202.064C392.566 200.064 393.494 199.056 394.838 199.056C396.182 199.056 397.11 200.064 397.11 202.064C397.11 204.064 396.182 205.024 394.838 205.024ZM400.578 206H401.938V202.64C401.938 201.472 401.986 199.056 404.162 199.056C405.218 199.056 405.906 199.664 405.906 201.152V206H407.266V200.832C407.266 199.072 406.466 197.856 404.498 197.856C402.786 197.856 402.018 199.072 401.906 199.424V198.08H400.578V206ZM413.985 206H415.345V202.64C415.345 201.472 415.393 199.056 417.569 199.056C418.625 199.056 419.313 199.664 419.313 201.152V206H420.673V200.832C420.673 199.072 419.873 197.856 417.905 197.856C416.193 197.856 415.425 199.072 415.313 199.424V198.08H413.985V206ZM425.778 206.224C427.426 206.224 428.178 205.056 428.418 204.624V206H429.746V198.08H428.386V201.44C428.386 202.656 428.354 205.024 426.21 205.024C425.17 205.024 424.498 204.416 424.498 202.928V198.08H423.138V203.248C423.138 205.008 423.922 206.224 425.778 206.224ZM432.438 206H433.798V202.32C433.798 201.184 433.894 199.072 435.83 199.072C436.886 199.072 437.59 199.616 437.59 201.152V206H438.918V202.32C438.918 201.184 438.966 199.072 440.966 199.072C442.022 199.072 442.71 199.616 442.71 201.152V206H444.07V200.752C444.07 198.912 443.11 197.856 441.302 197.856C439.622 197.856 438.918 198.896 438.646 199.552C438.246 198.48 437.318 197.856 436.15 197.856C434.726 197.856 434.054 198.768 433.766 199.28V198.08H432.438V206ZM450.513 206.224C452.337 206.224 453.729 204.64 453.729 202.032C453.729 199.424 452.337 197.856 450.513 197.856C449.121 197.856 448.385 198.624 448.001 199.296V197.76V194.8H446.641V206H447.969V204.768C448.353 205.44 449.121 206.224 450.513 206.224ZM450.161 205.024C448.865 205.024 447.921 204.016 447.921 202.016C447.921 200.016 448.865 199.056 450.161 199.056C451.425 199.056 452.337 199.808 452.337 202.016C452.337 204.224 451.425 205.024 450.161 205.024ZM458.82 206.224C460.308 206.224 461.636 205.552 462.228 203.936L460.98 203.504C460.772 204.016 460.212 205.04 458.868 205.04C457.764 205.04 456.66 204.4 456.58 202.4H462.164C462.468 199.808 461.044 197.856 458.74 197.856C456.724 197.856 455.236 199.472 455.236 202.08C455.236 204.768 456.66 206.224 458.82 206.224ZM456.612 201.264C456.724 199.824 457.7 198.976 458.74 198.976C459.828 198.976 460.772 199.76 460.772 201.264H456.612ZM464.344 206H465.704V202.368C465.704 200.512 466.44 199.376 468.232 199.376C468.552 199.376 468.824 199.408 469.08 199.456V198.064C468.888 198.016 468.648 197.968 468.264 197.968C466.76 197.968 465.944 199.136 465.688 199.728V198.08H464.344V206ZM469.463 206H471.383V204H469.463V206Z" fill="white"/>
<path d="M668.323 130.118C667.892 130.549 667.892 131.247 668.323 131.677C668.753 132.108 669.451 132.108 669.882 131.677L673 128.559L676.118 131.677C676.549 132.108 677.247 132.108 677.677 131.677C678.108 131.247 678.108 130.549 677.677 130.118L674.559 127L677.677 123.882C678.108 123.451 678.108 122.753 677.677 122.323C677.247 121.892 676.549 121.892 676.118 122.323L673 125.441L669.882 122.323C669.451 121.892 668.753 121.892 668.323 122.323C667.892 122.753 667.892 123.451 668.323 123.882L671.441 127L668.323 130.118Z" fill="white"/>
</g>
<path d="M291 49C291 48.4477 290.552 48 290 48C289.448 48 289 48.4477 289 49L291 49ZM289.293 129.707C289.683 130.098 290.317 130.098 290.707 129.707L297.071 123.343C297.462 122.953 297.462 122.319 297.071 121.929C296.681 121.538 296.047 121.538 295.657 121.929L290 127.586L284.343 121.929C283.953 121.538 283.319 121.538 282.929 121.929C282.538 122.319 282.538 122.953 282.929 123.343L289.293 129.707ZM289 49L289 129L291 129L291 49L289 49Z" fill="#DA372C"/>
<path d="M373 49C373 48.4477 372.552 48 372 48C371.448 48 371 48.4477 371 49L373 49ZM371.293 129.707C371.683 130.098 372.317 130.098 372.707 129.707L379.071 123.343C379.462 122.953 379.462 122.319 379.071 121.929C378.681 121.538 378.047 121.538 377.657 121.929L372 127.586L366.343 121.929C365.953 121.538 365.319 121.538 364.929 121.929C364.538 122.319 364.538 122.953 364.929 123.343L371.293 129.707ZM371 49L371 129L373 129L373 49L371 49Z" fill="#DA372C"/>
<path d="M248.57 60H250.01V48.8H248.57V60ZM256.027 60.224C257.803 60.224 258.955 59.184 259.467 57.712L258.187 57.264C257.931 58.128 257.339 59.024 256.027 59.024C254.715 59.024 253.691 58.064 253.691 56.032C253.691 54.048 254.747 53.056 256.011 53.056C257.163 53.056 257.739 53.808 257.995 54.56L259.259 54.144C258.891 52.912 257.803 51.856 256.011 51.856C253.819 51.856 252.267 53.584 252.267 56.032C252.267 58.592 253.739 60.224 256.027 60.224ZM264.338 60.224C266.418 60.224 268.017 58.432 268.017 56.048C268.017 53.664 266.482 51.856 264.338 51.856C262.194 51.856 260.658 53.664 260.658 56.048C260.658 58.432 262.258 60.224 264.338 60.224ZM264.338 59.024C262.994 59.024 262.066 58.064 262.066 56.064C262.066 54.064 262.994 53.056 264.338 53.056C265.682 53.056 266.61 54.064 266.61 56.064C266.61 58.064 265.682 59.024 264.338 59.024ZM270.078 60H271.438V56.64C271.438 55.472 271.486 53.056 273.662 53.056C274.718 53.056 275.406 53.664 275.406 55.152V60H276.766V54.832C276.766 53.072 275.966 51.856 273.998 51.856C272.286 51.856 271.518 53.072 271.406 53.424V52.08H270.078V60Z" fill="#6E6E78"/>
<path d="M331.347 60H332.787V50.16H336.931V48.8H327.363V50.16H331.347V60ZM338.39 50.528H339.83V48.8H338.39V50.528ZM338.438 60H339.798V52.08H338.438V60ZM345.237 60H347.061V58.8H345.413C344.853 58.8 344.613 58.56 344.613 58V53.232H346.773V52.08H344.613V49.6H343.253V52.08H341.413V53.232H343.253V58.08C343.253 59.392 343.925 60 345.237 60ZM348.782 60H350.142V48.8H348.782V60ZM355.82 60.224C357.308 60.224 358.636 59.552 359.228 57.936L357.98 57.504C357.772 58.016 357.212 59.04 355.868 59.04C354.764 59.04 353.66 58.4 353.58 56.4H359.164C359.468 53.808 358.044 51.856 355.74 51.856C353.724 51.856 352.236 53.472 352.236 56.08C352.236 58.768 353.66 60.224 355.82 60.224ZM353.612 55.264C353.724 53.824 354.7 52.976 355.74 52.976C356.828 52.976 357.772 53.76 357.772 55.264H353.612Z" fill="#6E6E78"/>
<path d="M405 300L405 301L407 301L407 300L405 300ZM406.707 222.293C406.317 221.902 405.683 221.902 405.293 222.293L398.929 228.657C398.538 229.047 398.538 229.681 398.929 230.071C399.319 230.462 399.953 230.462 400.343 230.071L406 224.414L411.657 230.071C412.047 230.462 412.681 230.462 413.071 230.071C413.462 229.681 413.462 229.047 413.071 228.657L406.707 222.293ZM407 300L407 223L405 223L405 300L407 300Z" fill="#DA372C"/>
<path d="M326.211 301H331.235C333.171 301 334.851 300.072 334.851 297.912C334.851 296.248 333.539 295.384 332.403 295.16C333.363 294.968 334.483 294.12 334.483 292.568C334.483 290.936 333.363 289.8 331.011 289.8H326.211V301ZM327.651 294.52V291.16H330.883C332.147 291.16 332.963 291.704 332.963 292.76C332.963 293.816 332.147 294.52 330.883 294.52H327.651ZM327.651 299.64V295.864H331.027C332.451 295.864 333.299 296.568 333.299 297.72C333.299 298.872 332.451 299.64 331.027 299.64H327.651ZM340.15 301.224C342.23 301.224 343.83 299.432 343.83 297.048C343.83 294.664 342.294 292.856 340.15 292.856C338.006 292.856 336.47 294.664 336.47 297.048C336.47 299.432 338.07 301.224 340.15 301.224ZM340.15 300.024C338.806 300.024 337.878 299.064 337.878 297.064C337.878 295.064 338.806 294.056 340.15 294.056C341.494 294.056 342.422 295.064 342.422 297.064C342.422 299.064 341.494 300.024 340.15 300.024ZM348.515 301.224C349.907 301.224 350.675 300.456 351.059 299.784V301H352.387V289.8H351.027V292.76V294.312C350.643 293.64 349.907 292.856 348.515 292.856C346.691 292.856 345.299 294.44 345.299 297.048C345.299 299.656 346.691 301.224 348.515 301.224ZM348.867 300.024C347.603 300.024 346.691 299.272 346.691 297.064C346.691 294.856 347.603 294.056 348.867 294.056C350.163 294.056 351.107 295.064 351.107 297.064C351.107 299.064 350.163 300.024 348.867 300.024ZM359.862 293.08L358.422 297.416C358.102 298.376 358.006 298.664 357.862 299.128C357.702 298.712 357.574 298.392 357.078 297.192L355.382 293.08H353.846L357.27 300.904L356.822 302.168C356.614 302.76 356.262 302.872 355.734 302.872H354.23V304.12H355.734C357.126 304.12 357.702 303.656 358.23 302.088L361.302 293.08H359.862ZM369.409 301H371.233V299.8H369.585C369.025 299.8 368.785 299.56 368.785 299V294.232H370.945V293.08H368.785V290.6H367.424V293.08H365.585V294.232H367.424V299.08C367.424 300.392 368.097 301 369.409 301ZM375.867 301.224C377.355 301.224 378.683 300.552 379.275 298.936L378.027 298.504C377.819 299.016 377.259 300.04 375.915 300.04C374.811 300.04 373.707 299.4 373.627 297.4H379.211C379.515 294.808 378.091 292.856 375.787 292.856C373.771 292.856 372.283 294.472 372.283 297.08C372.283 299.768 373.707 301.224 375.867 301.224ZM373.659 296.264C373.771 294.824 374.747 293.976 375.787 293.976C376.875 293.976 377.819 294.76 377.819 296.264H373.659ZM380.273 301H381.761L382.769 299.496L383.777 297.976C384.001 298.328 384.177 298.6 384.769 299.496L385.761 301H387.393L384.641 296.968L387.233 293.08H385.729L384.865 294.44C384.257 295.384 384.065 295.672 383.841 295.992C383.649 295.672 383.473 295.384 382.881 294.44L382.017 293.08H380.433L382.993 296.952L380.273 301ZM391.799 301H393.623V299.8H391.975C391.415 299.8 391.175 299.56 391.175 299V294.232H393.335V293.08H391.175V290.6H389.815V293.08H387.975V294.232H389.815V299.08C389.815 300.392 390.487 301 391.799 301Z" fill="#6E6E78"/>
<path d="M674 49C674 48.4477 673.552 48 673 48C672.448 48 672 48.4477 672 49L674 49ZM672.293 118.707C672.683 119.098 673.317 119.098 673.707 118.707L680.071 112.343C680.462 111.953 680.462 111.319 680.071 110.929C679.681 110.538 679.047 110.538 678.657 110.929L673 116.586L667.343 110.929C666.953 110.538 666.319 110.538 665.929 110.929C665.538 111.319 665.538 111.953 665.929 112.343L672.293 118.707ZM672 49L672 118L674 118L674 49L672 49Z" fill="#DA372C"/>
<path d="M605.086 60H608.846C612.222 60 614.254 57.888 614.254 54.368C614.254 51.04 612.158 48.8 608.958 48.8H605.086V60ZM606.526 58.64V50.16H608.702C611.422 50.16 612.734 51.84 612.734 54.368C612.734 57.168 611.39 58.64 608.59 58.64H606.526ZM616.421 50.528H617.861V48.8H616.421V50.528ZM616.469 60H617.829V52.08H616.469V60ZM623.188 60.224C625.188 60.224 626.34 59.28 626.34 57.792C626.34 55.984 624.468 55.504 623.668 55.344L622.756 55.168C621.62 54.944 621.364 54.624 621.364 54.096C621.364 53.52 621.876 52.976 622.98 52.976C624.324 52.976 624.772 53.824 624.964 54.352L626.196 53.904C625.876 52.864 624.948 51.856 622.98 51.856C621.428 51.856 620.084 52.816 620.084 54.24C620.084 55.744 621.236 56.24 622.548 56.496L623.46 56.672C624.612 56.896 624.98 57.312 624.98 57.904C624.98 58.656 624.34 59.056 623.188 59.056C621.94 59.056 621.3 58.464 621.06 57.52L619.748 57.952C620.1 59.472 621.572 60.224 623.188 60.224ZM628.375 60H629.735V56.32C629.735 55.184 629.831 53.072 631.767 53.072C632.823 53.072 633.527 53.616 633.527 55.152V60H634.855V56.32C634.855 55.184 634.903 53.072 636.903 53.072C637.959 53.072 638.647 53.616 638.647 55.152V60H640.007V54.752C640.007 52.912 639.047 51.856 637.239 51.856C635.559 51.856 634.855 52.896 634.583 53.552C634.183 52.48 633.255 51.856 632.087 51.856C630.663 51.856 629.991 52.768 629.703 53.28V52.08H628.375V60ZM642.53 50.528H643.97V48.8H642.53V50.528ZM642.578 60H643.938V52.08H642.578V60ZM649.297 60.224C651.297 60.224 652.449 59.28 652.449 57.792C652.449 55.984 650.577 55.504 649.777 55.344L648.865 55.168C647.729 54.944 647.473 54.624 647.473 54.096C647.473 53.52 647.985 52.976 649.089 52.976C650.433 52.976 650.881 53.824 651.073 54.352L652.305 53.904C651.985 52.864 651.057 51.856 649.089 51.856C647.537 51.856 646.193 52.816 646.193 54.24C646.193 55.744 647.345 56.24 648.657 56.496L649.569 56.672C650.721 56.896 651.089 57.312 651.089 57.904C651.089 58.656 650.449 59.056 649.297 59.056C648.049 59.056 647.409 58.464 647.169 57.52L645.857 57.952C646.209 59.472 647.681 60.224 649.297 60.224ZM657.157 60.224C659.157 60.224 660.309 59.28 660.309 57.792C660.309 55.984 658.437 55.504 657.637 55.344L656.725 55.168C655.589 54.944 655.333 54.624 655.333 54.096C655.333 53.52 655.845 52.976 656.949 52.976C658.293 52.976 658.741 53.824 658.933 54.352L660.165 53.904C659.845 52.864 658.917 51.856 656.949 51.856C655.397 51.856 654.053 52.816 654.053 54.24C654.053 55.744 655.205 56.24 656.517 56.496L657.429 56.672C658.581 56.896 658.949 57.312 658.949 57.904C658.949 58.656 658.309 59.056 657.157 59.056C655.909 59.056 655.269 58.464 655.029 57.52L653.717 57.952C654.069 59.472 655.541 60.224 657.157 60.224Z" fill="#6E6E78"/>
<path d="M708.707 205.293C708.317 204.902 707.683 204.902 707.293 205.293L700.929 211.657C700.538 212.047 700.538 212.681 700.929 213.071C701.319 213.462 701.953 213.462 702.343 213.071L708 207.414L713.657 213.071C714.047 213.462 714.681 213.462 715.071 213.071C715.462 212.681 715.462 212.047 715.071 211.657L708.707 205.293ZM692 254L692 255L692 255L692 254ZM659.293 253.293C658.902 253.683 658.902 254.317 659.293 254.707L665.657 261.071C666.047 261.462 666.681 261.462 667.071 261.071C667.462 260.681 667.462 260.047 667.071 259.657L661.414 254L667.071 248.343C667.462 247.953 667.462 247.319 667.071 246.929C666.681 246.538 666.047 246.538 665.657 246.929L659.293 253.293ZM709 238L709 206L707 206L707 238L709 238ZM692 253L660 253L660 255L692 255L692 253ZM707 238C707 246.284 700.284 253 692 253L692 255C701.389 255 709 247.389 709 238L707 238Z" fill="#DA372C"/>
<path d="M725.712 254H727.136V250.896H728.768V249.648H727.136V242.8H724.912L720.48 249.504V250.896H725.712V254ZM725.712 249.648H724.064H721.936L725.712 243.936V246.384V249.648ZM730.688 257.12H732.048V254.32V252.768C732.432 253.44 733.168 254.224 734.56 254.224C736.384 254.224 737.776 252.64 737.776 250.032C737.776 247.424 736.384 245.856 734.56 245.856C733.168 245.856 732.4 246.624 732.016 247.296V246.08H730.688V257.12ZM734.208 253.024C732.912 253.024 731.968 252.016 731.968 250.016C731.968 248.016 732.912 247.056 734.208 247.056C735.472 247.056 736.384 247.808 736.384 250.016C736.384 252.224 735.472 253.024 734.208 253.024ZM738.726 254H740.214L741.222 252.496L742.23 250.976C742.454 251.328 742.63 251.6 743.222 252.496L744.214 254H745.846L743.094 249.968L745.686 246.08H744.182L743.318 247.44C742.71 248.384 742.518 248.672 742.294 248.992C742.102 248.672 741.926 248.384 741.334 247.44L740.47 246.08H738.886L741.446 249.952L738.726 254ZM754.793 254.224C756.569 254.224 757.721 253.184 758.233 251.712L756.953 251.264C756.697 252.128 756.105 253.024 754.793 253.024C753.481 253.024 752.457 252.064 752.457 250.032C752.457 248.048 753.513 247.056 754.777 247.056C755.929 247.056 756.505 247.808 756.761 248.56L758.025 248.144C757.657 246.912 756.569 245.856 754.777 245.856C752.585 245.856 751.033 247.584 751.033 250.032C751.033 252.592 752.505 254.224 754.793 254.224ZM763.103 254.224C765.183 254.224 766.783 252.432 766.783 250.048C766.783 247.664 765.247 245.856 763.103 245.856C760.959 245.856 759.423 247.664 759.423 250.048C759.423 252.432 761.023 254.224 763.103 254.224ZM763.103 253.024C761.759 253.024 760.831 252.064 760.831 250.064C760.831 248.064 761.759 247.056 763.103 247.056C764.447 247.056 765.375 248.064 765.375 250.064C765.375 252.064 764.447 253.024 763.103 253.024ZM768.844 254H770.204V250.368C770.204 248.512 770.94 247.376 772.732 247.376C773.052 247.376 773.324 247.408 773.58 247.456V246.064C773.388 246.016 773.148 245.968 772.764 245.968C771.26 245.968 770.444 247.136 770.188 247.728V246.08H768.844V254ZM775.188 254H776.548V250.64C776.548 249.472 776.596 247.056 778.772 247.056C779.828 247.056 780.516 247.664 780.516 249.152V254H781.876V248.832C781.876 247.072 781.076 245.856 779.108 245.856C777.396 245.856 776.628 247.072 776.516 247.424V246.08H775.188V254ZM787.445 254.224C788.933 254.224 790.261 253.552 790.853 251.936L789.605 251.504C789.397 252.016 788.837 253.04 787.493 253.04C786.389 253.04 785.285 252.4 785.205 250.4H790.789C791.093 247.808 789.669 245.856 787.365 245.856C785.349 245.856 783.861 247.472 783.861 250.08C783.861 252.768 785.285 254.224 787.445 254.224ZM785.237 249.264C785.349 247.824 786.325 246.976 787.365 246.976C788.453 246.976 789.397 247.76 789.397 249.264H785.237ZM792.969 254H794.329V250.368C794.329 248.512 795.065 247.376 796.857 247.376C797.177 247.376 797.449 247.408 797.705 247.456V246.064C797.513 246.016 797.273 245.968 796.889 245.968C795.385 245.968 794.569 247.136 794.313 247.728V246.08H792.969V254ZM803.016 254H804.376V250.368C804.376 248.512 805.112 247.376 806.904 247.376C807.224 247.376 807.496 247.408 807.752 247.456V246.064C807.56 246.016 807.32 245.968 806.936 245.968C805.432 245.968 804.616 247.136 804.36 247.728V246.08H803.016V254ZM811.859 254.224C813.251 254.224 814.019 253.456 814.403 252.784V254H815.731V246.08H814.371V247.312C813.987 246.64 813.251 245.856 811.859 245.856C810.035 245.856 808.643 247.44 808.643 250.048C808.643 252.656 810.035 254.224 811.859 254.224ZM812.211 253.024C810.947 253.024 810.035 252.272 810.035 250.064C810.035 247.856 810.947 247.056 812.211 247.056C813.507 247.056 814.451 248.064 814.451 250.064C814.451 252.064 813.507 253.024 812.211 253.024ZM821.046 254.224C822.438 254.224 823.206 253.456 823.59 252.784V254H824.918V242.8H823.558V245.76V247.312C823.174 246.64 822.438 245.856 821.046 245.856C819.222 245.856 817.83 247.44 817.83 250.048C817.83 252.656 819.222 254.224 821.046 254.224ZM821.398 253.024C820.134 253.024 819.222 252.272 819.222 250.064C819.222 247.856 820.134 247.056 821.398 247.056C822.694 247.056 823.638 248.064 823.638 250.064C823.638 252.064 822.694 253.024 821.398 253.024ZM827.562 244.528H829.002V242.8H827.562V244.528ZM827.61 254H828.97V246.08H827.61V254ZM834.185 254.224C835.833 254.224 836.585 253.056 836.825 252.624V254H838.153V246.08H836.793V249.44C836.793 250.656 836.761 253.024 834.617 253.024C833.577 253.024 832.905 252.416 832.905 250.928V246.08H831.545V251.248C831.545 253.008 832.329 254.224 834.185 254.224ZM843.516 254.224C845.516 254.224 846.668 253.28 846.668 251.792C846.668 249.984 844.796 249.504 843.996 249.344L843.084 249.168C841.948 248.944 841.692 248.624 841.692 248.096C841.692 247.52 842.204 246.976 843.308 246.976C844.652 246.976 845.1 247.824 845.292 248.352L846.524 247.904C846.204 246.864 845.276 245.856 843.308 245.856C841.756 245.856 840.412 246.816 840.412 248.24C840.412 249.744 841.564 250.24 842.876 250.496L843.788 250.672C844.94 250.896 845.308 251.312 845.308 251.904C845.308 252.656 844.668 253.056 843.516 253.056C842.268 253.056 841.628 252.464 841.388 251.52L840.076 251.952C840.428 253.472 841.9 254.224 843.516 254.224Z" fill="#6E6E78"/>
<defs>
<filter id="filter0_d" x="254" y="104" width="450" height="154" filterUnits="userSpaceOnUse" color-interpolation-filters="sRGB">
<feFlood flood-opacity="0" result="BackgroundImageFix"/>
<feColorMatrix in="SourceAlpha" type="matrix" values="0 0 0 0 0 0 0 0 0 0 0 0 0 0 0 0 0 0 127 0"/>
<feOffset dy="8"/>
<feGaussianBlur stdDeviation="6"/>
<feColorMatrix type="matrix" values="0 0 0 0 0.129412 0 0 0 0 0.129412 0 0 0 0 0.14902 0 0 0 0.12 0"/>
<feBlend mode="normal" in2="BackgroundImageFix" result="effect1_dropShadow"/>
<feBlend mode="normal" in="SourceGraphic" in2="effect1_dropShadow" result="shape"/>
</filter>
</defs>
</svg>
