<svg width="958" height="346" viewBox="0 0 958 346" fill="none" xmlns="http://www.w3.org/2000/svg">
<path fill-rule="evenodd" clip-rule="evenodd" d="M958 184H190V186H958V184Z" fill="#C1C1C8"/>
<path d="M224.556 159.42C228.56 159.42 230.296 157.292 231.052 155.948V159H234.412V149.088H224.248V152.224H230.772C230.576 154.156 228.812 156.312 225.284 156.312C221.812 156.312 219.096 153.764 219.096 149.228C219.096 144.664 221.952 142.116 225.396 142.116C228.56 142.116 230.156 143.936 230.968 146.26L234.496 144.916C233.46 141.808 230.604 138.98 225.424 138.98C219.74 138.98 215.288 143.348 215.288 149.256C215.288 155.668 219.348 159.42 224.556 159.42ZM238.166 159H241.582V139.4H238.166V159ZM249.325 159.42C251.677 159.42 253.161 158.244 254.001 156.928C254.169 158.16 254.785 159 256.549 159H259.181V156.312H257.865C257.137 156.312 257.025 156.144 257.025 155.472V149.844C257.025 146.428 254.925 144.636 251.089 144.636C247.169 144.636 244.985 146.68 244.649 148.752L247.813 149.564C248.149 148.332 249.017 147.24 251.089 147.24C252.881 147.24 253.665 148.052 253.665 149.424V149.9C249.045 150.32 244.873 151.524 244.873 155.416C244.873 157.88 246.721 159.42 249.325 159.42ZM250.445 156.844C249.045 156.844 248.345 156.144 248.345 155.08C248.345 153.092 250.781 152.476 253.665 152.14V153.26C253.665 155.752 252.097 156.844 250.445 156.844ZM260.456 159H272.244V156.2H267.876H264.18L271.88 147.52V145.056H260.764V147.828H264.18H267.708L260.456 156.004V159ZM280.987 159.42C284.655 159.42 286.615 157.516 287.511 155.36L284.431 154.212C283.927 155.388 283.003 156.732 281.015 156.732C279.223 156.732 277.711 155.696 277.571 152.868H287.427C287.875 148.248 285.383 144.636 280.931 144.636C277.067 144.636 274.183 147.576 274.183 152.028C274.183 156.676 276.871 159.42 280.987 159.42ZM277.683 150.348C277.935 148.332 279.251 147.184 280.931 147.184C282.695 147.184 283.927 148.304 284.039 150.348H277.683ZM295.704 159.42C298.112 159.42 299.624 158.076 300.268 157.04V159H303.6V139.4H300.184V144.496V147.016C299.54 145.98 298.084 144.636 295.704 144.636C292.176 144.636 289.796 147.548 289.796 152.028C289.796 156.508 292.176 159.42 295.704 159.42ZM296.824 156.732C294.836 156.732 293.352 155.528 293.352 152.028C293.352 148.556 294.836 147.324 296.824 147.324C298.896 147.324 300.352 148.892 300.352 152.028C300.352 155.192 298.896 156.732 296.824 156.732Z" fill="#1D1D21"/>
<path d="M190 182H330V186H190V182Z" fill="#1662DD"/>
<path d="M388.408 159.42C393.728 159.42 396.22 156.732 396.22 153.372C396.22 149.984 393.616 148.108 389.892 147.492L387.344 147.044C385.524 146.708 384.572 145.952 384.572 144.608C384.572 143.208 385.636 142.004 388.1 142.004C390.844 142.004 392.076 143.656 392.608 145.252L395.996 143.936C395.24 141.556 392.916 138.98 388.212 138.98C383.508 138.98 380.848 141.612 380.848 144.776C380.848 148.276 383.116 149.9 386.588 150.488L389.08 150.908C391.46 151.328 392.44 152.224 392.44 153.624C392.44 155.22 391.208 156.396 388.464 156.396C385.384 156.396 383.844 154.408 383.312 152.336L379.868 153.652C380.68 156.788 383.396 159.42 388.408 159.42ZM399.502 164.46H402.918V159.56V157.012C403.562 158.104 405.018 159.42 407.398 159.42C410.954 159.42 413.334 156.48 413.334 152.028C413.334 147.548 410.954 144.608 407.398 144.608C404.99 144.608 403.478 146.008 402.834 147.016V145.056H399.502V164.46ZM406.278 156.732C404.206 156.732 402.75 155.164 402.75 152C402.75 148.864 404.206 147.296 406.278 147.296C408.266 147.296 409.778 148.528 409.778 152C409.778 155.5 408.266 156.732 406.278 156.732ZM416.537 159H419.953V153.12C419.953 149.704 421.213 148.276 424.181 148.276C424.685 148.276 425.189 148.304 425.693 148.388V144.888C425.441 144.832 425.161 144.804 424.769 144.804C421.661 144.804 420.345 147.016 419.897 148.136V145.056H416.537V159ZM428.1 142.844H431.74V139.372H428.1V142.844ZM428.24 159H431.628V145.056H428.24V159ZM435.732 159H439.148V152.644C439.148 150.936 439.204 147.492 442.34 147.492C443.88 147.492 444.86 148.388 444.86 150.488V159H448.276V149.732C448.276 146.68 446.904 144.636 443.572 144.636C440.856 144.636 439.512 146.456 439.064 147.268V145.056H435.732V159ZM462.635 159H466.947L460.311 150.684L466.191 145.056H461.935L455.691 151.244V146.4V139.4H452.275V159H455.691V155.08L457.959 152.952L462.635 159ZM468.818 159H472.234V139.4H468.818V159ZM482.217 159.42C485.885 159.42 487.845 157.516 488.741 155.36L485.661 154.212C485.157 155.388 484.233 156.732 482.245 156.732C480.453 156.732 478.941 155.696 478.801 152.868H488.657C489.105 148.248 486.613 144.636 482.161 144.636C478.297 144.636 475.413 147.576 475.413 152.028C475.413 156.676 478.101 159.42 482.217 159.42ZM478.913 150.348C479.165 148.332 480.481 147.184 482.161 147.184C483.925 147.184 485.157 148.304 485.269 150.348H478.913Z" fill="#1D1D21"/>
<path d="M355 184H514V186H355V184Z" fill="#C1C1C8"/>
<path d="M565.548 159H569.188V151.216H577.98V148.08H569.188V142.508H580.248V139.4H565.548V159ZM582.842 142.844H586.482V139.372H582.842V142.844ZM582.982 159H586.37V145.056H582.982V159ZM590.474 159H593.89V139.4H590.474V159ZM598.021 159H601.437V139.4H598.021V159ZM611.42 159.42C615.088 159.42 617.048 157.516 617.944 155.36L614.864 154.212C614.36 155.388 613.436 156.732 611.448 156.732C609.656 156.732 608.144 155.696 608.004 152.868H617.86C618.308 148.248 615.816 144.636 611.364 144.636C607.5 144.636 604.616 147.576 604.616 152.028C604.616 156.676 607.304 159.42 611.42 159.42ZM608.116 150.348C608.368 148.332 609.684 147.184 611.364 147.184C613.128 147.184 614.36 148.304 614.472 150.348H608.116ZM626.138 159.42C628.546 159.42 630.058 158.076 630.702 157.04V159H634.034V139.4H630.618V144.496V147.016C629.974 145.98 628.518 144.636 626.138 144.636C622.61 144.636 620.23 147.548 620.23 152.028C620.23 156.508 622.61 159.42 626.138 159.42ZM627.258 156.732C625.27 156.732 623.786 155.528 623.786 152.028C623.786 148.556 625.27 147.324 627.258 147.324C629.33 147.324 630.786 148.892 630.786 152.028C630.786 155.192 629.33 156.732 627.258 156.732Z" fill="#1D1D21"/>
<path d="M539 184H661V186H539V184Z" fill="#C1C1C8"/>
<path d="M716.804 159.42C720.808 159.42 722.796 157.124 722.796 152.112V139.4H719.156V152.392C719.156 154.94 718.54 156.34 716.692 156.34C714.676 156.34 714.088 154.632 714.088 151.748L710.392 152.7C710.476 156.872 712.8 159.42 716.804 159.42ZM732.881 159.42C736.549 159.42 738.509 157.516 739.405 155.36L736.325 154.212C735.821 155.388 734.897 156.732 732.909 156.732C731.117 156.732 729.605 155.696 729.465 152.868H739.321C739.769 148.248 737.277 144.636 732.825 144.636C728.961 144.636 726.077 147.576 726.077 152.028C726.077 156.676 728.765 159.42 732.881 159.42ZM729.577 150.348C729.829 148.332 731.145 147.184 732.825 147.184C734.589 147.184 735.821 148.304 735.933 150.348H729.577ZM742.615 159H746.031V139.4H742.615V159ZM750.162 159H753.578V139.4H750.162V159ZM766.641 145.056L764.709 151.02L763.477 154.772C763.225 154.184 762.889 153.484 761.881 151.048L759.305 145.056H755.609L762.105 158.888L761.685 160.148C761.265 161.296 760.789 161.632 759.837 161.632H756.533V164.46H760.173C762.609 164.46 763.729 163.48 764.541 161.1L770.225 145.056H766.641Z" fill="#1D1D21"/>
<path d="M686 184H795V186H686V184Z" fill="#C1C1C8"/>
<rect x="190" y="186" width="16" height="16" fill="#F6F6F7"/>
<rect x="206" y="186" width="16" height="16" fill="white"/>
<rect x="190" y="218" width="16" height="16" fill="#F6F6F7"/>
<rect x="206" y="218" width="16" height="16" fill="white"/>
<rect x="190" y="250" width="16" height="16" fill="#F6F6F7"/>
<rect x="206" y="250" width="16" height="16" fill="white"/>
<rect x="190" y="282" width="16" height="16" fill="#F6F6F7"/>
<rect x="206" y="282" width="16" height="16" fill="white"/>
<rect x="190" y="314" width="16" height="16" fill="#F6F6F7"/>
<rect x="206" y="314" width="16" height="16" fill="white"/>
<rect x="206" y="202" width="16" height="16" fill="#F6F6F7"/>
<rect x="190" y="202" width="16" height="16" fill="white"/>
<rect x="206" y="234" width="16" height="16" fill="#F6F6F7"/>
<rect x="190" y="234" width="16" height="16" fill="white"/>
<rect x="206" y="266" width="16" height="16" fill="#F6F6F7"/>
<rect x="190" y="266" width="16" height="16" fill="white"/>
<rect x="206" y="298" width="16" height="16" fill="#F6F6F7"/>
<rect x="190" y="298" width="16" height="16" fill="white"/>
<rect x="206" y="330" width="16" height="16" fill="#F6F6F7"/>
<rect x="190" y="330" width="16" height="16" fill="white"/>
<rect x="270" y="202" width="16" height="16" fill="#F6F6F7"/>
<rect x="254" y="202" width="16" height="16" fill="white"/>
<rect x="270" y="234" width="16" height="16" fill="#F6F6F7"/>
<rect x="254" y="234" width="16" height="16" fill="white"/>
<rect x="270" y="266" width="16" height="16" fill="#F6F6F7"/>
<rect x="254" y="266" width="16" height="16" fill="white"/>
<rect x="270" y="298" width="16" height="16" fill="#F6F6F7"/>
<rect x="254" y="298" width="16" height="16" fill="white"/>
<rect x="270" y="330" width="16" height="16" fill="#F6F6F7"/>
<rect x="254" y="330" width="16" height="16" fill="white"/>
<rect x="334" y="202" width="16" height="16" fill="#F6F6F7"/>
<rect x="318" y="202" width="16" height="16" fill="white"/>
<rect x="334" y="234" width="16" height="16" fill="#F6F6F7"/>
<rect x="318" y="234" width="16" height="16" fill="white"/>
<rect x="334" y="266" width="16" height="16" fill="#F6F6F7"/>
<rect x="318" y="266" width="16" height="16" fill="white"/>
<rect x="334" y="298" width="16" height="16" fill="#F6F6F7"/>
<rect x="318" y="298" width="16" height="16" fill="white"/>
<rect x="334" y="330" width="16" height="16" fill="#F6F6F7"/>
<rect x="318" y="330" width="16" height="16" fill="white"/>
<rect x="398" y="202" width="16" height="16" fill="#F6F6F7"/>
<rect x="382" y="202" width="16" height="16" fill="white"/>
<rect x="398" y="234" width="16" height="16" fill="#F6F6F7"/>
<rect x="382" y="234" width="16" height="16" fill="white"/>
<rect x="398" y="266" width="16" height="16" fill="#F6F6F7"/>
<rect x="382" y="266" width="16" height="16" fill="white"/>
<rect x="398" y="298" width="16" height="16" fill="#F6F6F7"/>
<rect x="382" y="298" width="16" height="16" fill="white"/>
<rect x="398" y="330" width="16" height="16" fill="#F6F6F7"/>
<rect x="382" y="330" width="16" height="16" fill="white"/>
<rect x="462" y="202" width="16" height="16" fill="#F6F6F7"/>
<rect x="446" y="202" width="16" height="16" fill="white"/>
<rect x="462" y="234" width="16" height="16" fill="#F6F6F7"/>
<rect x="446" y="234" width="16" height="16" fill="white"/>
<rect x="462" y="266" width="16" height="16" fill="#F6F6F7"/>
<rect x="446" y="266" width="16" height="16" fill="white"/>
<rect x="462" y="298" width="16" height="16" fill="#F6F6F7"/>
<rect x="446" y="298" width="16" height="16" fill="white"/>
<rect x="462" y="330" width="16" height="16" fill="#F6F6F7"/>
<rect x="446" y="330" width="16" height="16" fill="white"/>
<rect x="526" y="202" width="16" height="16" fill="#F6F6F7"/>
<rect x="510" y="202" width="16" height="16" fill="white"/>
<rect x="526" y="234" width="16" height="16" fill="#F6F6F7"/>
<rect x="510" y="234" width="16" height="16" fill="white"/>
<rect x="526" y="266" width="16" height="16" fill="#F6F6F7"/>
<rect x="510" y="266" width="16" height="16" fill="white"/>
<rect x="526" y="298" width="16" height="16" fill="#F6F6F7"/>
<rect x="510" y="298" width="16" height="16" fill="white"/>
<rect x="526" y="330" width="16" height="16" fill="#F6F6F7"/>
<rect x="510" y="330" width="16" height="16" fill="white"/>
<rect x="590" y="202" width="16" height="16" fill="#F6F6F7"/>
<rect x="574" y="202" width="16" height="16" fill="white"/>
<rect x="590" y="234" width="16" height="16" fill="#F6F6F7"/>
<rect x="574" y="234" width="16" height="16" fill="white"/>
<rect x="590" y="266" width="16" height="16" fill="#F6F6F7"/>
<rect x="574" y="266" width="16" height="16" fill="white"/>
<rect x="590" y="298" width="16" height="16" fill="#F6F6F7"/>
<rect x="574" y="298" width="16" height="16" fill="white"/>
<rect x="590" y="330" width="16" height="16" fill="#F6F6F7"/>
<rect x="574" y="330" width="16" height="16" fill="white"/>
<rect x="654" y="202" width="16" height="16" fill="#F6F6F7"/>
<rect x="638" y="202" width="16" height="16" fill="white"/>
<rect x="654" y="234" width="16" height="16" fill="#F6F6F7"/>
<rect x="638" y="234" width="16" height="16" fill="white"/>
<rect x="654" y="266" width="16" height="16" fill="#F6F6F7"/>
<rect x="638" y="266" width="16" height="16" fill="white"/>
<rect x="654" y="298" width="16" height="16" fill="#F6F6F7"/>
<rect x="638" y="298" width="16" height="16" fill="white"/>
<rect x="654" y="330" width="16" height="16" fill="#F6F6F7"/>
<rect x="638" y="330" width="16" height="16" fill="white"/>
<rect x="718" y="202" width="16" height="16" fill="#F6F6F7"/>
<rect x="702" y="202" width="16" height="16" fill="white"/>
<rect x="718" y="234" width="16" height="16" fill="#F6F6F7"/>
<rect x="702" y="234" width="16" height="16" fill="white"/>
<rect x="718" y="266" width="16" height="16" fill="#F6F6F7"/>
<rect x="702" y="266" width="16" height="16" fill="white"/>
<rect x="718" y="298" width="16" height="16" fill="#F6F6F7"/>
<rect x="702" y="298" width="16" height="16" fill="white"/>
<rect x="718" y="330" width="16" height="16" fill="#F6F6F7"/>
<rect x="702" y="330" width="16" height="16" fill="white"/>
<rect x="782" y="202" width="16" height="16" fill="#F6F6F7"/>
<rect x="766" y="202" width="16" height="16" fill="white"/>
<rect x="782" y="234" width="16" height="16" fill="#F6F6F7"/>
<rect x="766" y="234" width="16" height="16" fill="white"/>
<rect x="782" y="266" width="16" height="16" fill="#F6F6F7"/>
<rect x="766" y="266" width="16" height="16" fill="white"/>
<rect x="782" y="298" width="16" height="16" fill="#F6F6F7"/>
<rect x="766" y="298" width="16" height="16" fill="white"/>
<rect x="782" y="330" width="16" height="16" fill="#F6F6F7"/>
<rect x="766" y="330" width="16" height="16" fill="white"/>
<rect x="846" y="202" width="16" height="16" fill="#F6F6F7"/>
<rect x="830" y="202" width="16" height="16" fill="white"/>
<rect x="846" y="234" width="16" height="16" fill="#F6F6F7"/>
<rect x="830" y="234" width="16" height="16" fill="white"/>
<rect x="846" y="266" width="16" height="16" fill="#F6F6F7"/>
<rect x="830" y="266" width="16" height="16" fill="white"/>
<rect x="846" y="298" width="16" height="16" fill="#F6F6F7"/>
<rect x="830" y="298" width="16" height="16" fill="white"/>
<rect x="846" y="330" width="16" height="16" fill="#F6F6F7"/>
<rect x="830" y="330" width="16" height="16" fill="white"/>
<rect x="910" y="202" width="16" height="16" fill="#F6F6F7"/>
<rect x="894" y="202" width="16" height="16" fill="white"/>
<rect x="910" y="234" width="16" height="16" fill="#F6F6F7"/>
<rect x="894" y="234" width="16" height="16" fill="white"/>
<rect x="910" y="266" width="16" height="16" fill="#F6F6F7"/>
<rect x="894" y="266" width="16" height="16" fill="white"/>
<rect x="910" y="298" width="16" height="16" fill="#F6F6F7"/>
<rect x="894" y="298" width="16" height="16" fill="white"/>
<rect x="910" y="330" width="16" height="16" fill="#F6F6F7"/>
<rect x="894" y="330" width="16" height="16" fill="white"/>
<rect x="238" y="202" width="16" height="16" fill="#F6F6F7"/>
<rect x="222" y="202" width="16" height="16" fill="white"/>
<rect x="238" y="234" width="16" height="16" fill="#F6F6F7"/>
<rect x="222" y="234" width="16" height="16" fill="white"/>
<rect x="238" y="266" width="16" height="16" fill="#F6F6F7"/>
<rect x="222" y="266" width="16" height="16" fill="white"/>
<rect x="238" y="298" width="16" height="16" fill="#F6F6F7"/>
<rect x="222" y="298" width="16" height="16" fill="white"/>
<rect x="238" y="330" width="16" height="16" fill="#F6F6F7"/>
<rect x="222" y="330" width="16" height="16" fill="white"/>
<rect x="302" y="202" width="16" height="16" fill="#F6F6F7"/>
<rect x="286" y="202" width="16" height="16" fill="white"/>
<rect x="302" y="234" width="16" height="16" fill="#F6F6F7"/>
<rect x="286" y="234" width="16" height="16" fill="white"/>
<rect x="302" y="266" width="16" height="16" fill="#F6F6F7"/>
<rect x="286" y="266" width="16" height="16" fill="white"/>
<rect x="302" y="298" width="16" height="16" fill="#F6F6F7"/>
<rect x="286" y="298" width="16" height="16" fill="white"/>
<rect x="302" y="330" width="16" height="16" fill="#F6F6F7"/>
<rect x="286" y="330" width="16" height="16" fill="white"/>
<rect x="366" y="202" width="16" height="16" fill="#F6F6F7"/>
<rect x="350" y="202" width="16" height="16" fill="white"/>
<rect x="366" y="234" width="16" height="16" fill="#F6F6F7"/>
<rect x="350" y="234" width="16" height="16" fill="white"/>
<rect x="366" y="266" width="16" height="16" fill="#F6F6F7"/>
<rect x="350" y="266" width="16" height="16" fill="white"/>
<rect x="366" y="298" width="16" height="16" fill="#F6F6F7"/>
<rect x="350" y="298" width="16" height="16" fill="white"/>
<rect x="366" y="330" width="16" height="16" fill="#F6F6F7"/>
<rect x="350" y="330" width="16" height="16" fill="white"/>
<rect x="430" y="202" width="16" height="16" fill="#F6F6F7"/>
<rect x="414" y="202" width="16" height="16" fill="white"/>
<rect x="430" y="234" width="16" height="16" fill="#F6F6F7"/>
<rect x="414" y="234" width="16" height="16" fill="white"/>
<rect x="430" y="266" width="16" height="16" fill="#F6F6F7"/>
<rect x="414" y="266" width="16" height="16" fill="white"/>
<rect x="430" y="298" width="16" height="16" fill="#F6F6F7"/>
<rect x="414" y="298" width="16" height="16" fill="white"/>
<rect x="430" y="330" width="16" height="16" fill="#F6F6F7"/>
<rect x="414" y="330" width="16" height="16" fill="white"/>
<rect x="494" y="202" width="16" height="16" fill="#F6F6F7"/>
<rect x="478" y="202" width="16" height="16" fill="white"/>
<rect x="494" y="234" width="16" height="16" fill="#F6F6F7"/>
<rect x="478" y="234" width="16" height="16" fill="white"/>
<rect x="494" y="266" width="16" height="16" fill="#F6F6F7"/>
<rect x="478" y="266" width="16" height="16" fill="white"/>
<rect x="494" y="298" width="16" height="16" fill="#F6F6F7"/>
<rect x="478" y="298" width="16" height="16" fill="white"/>
<rect x="494" y="330" width="16" height="16" fill="#F6F6F7"/>
<rect x="478" y="330" width="16" height="16" fill="white"/>
<rect x="558" y="202" width="16" height="16" fill="#F6F6F7"/>
<rect x="542" y="202" width="16" height="16" fill="white"/>
<rect x="558" y="234" width="16" height="16" fill="#F6F6F7"/>
<rect x="542" y="234" width="16" height="16" fill="white"/>
<rect x="558" y="266" width="16" height="16" fill="#F6F6F7"/>
<rect x="542" y="266" width="16" height="16" fill="white"/>
<rect x="558" y="298" width="16" height="16" fill="#F6F6F7"/>
<rect x="542" y="298" width="16" height="16" fill="white"/>
<rect x="558" y="330" width="16" height="16" fill="#F6F6F7"/>
<rect x="542" y="330" width="16" height="16" fill="white"/>
<rect x="622" y="202" width="16" height="16" fill="#F6F6F7"/>
<rect x="606" y="202" width="16" height="16" fill="white"/>
<rect x="622" y="234" width="16" height="16" fill="#F6F6F7"/>
<rect x="606" y="234" width="16" height="16" fill="white"/>
<rect x="622" y="266" width="16" height="16" fill="#F6F6F7"/>
<rect x="606" y="266" width="16" height="16" fill="white"/>
<rect x="622" y="298" width="16" height="16" fill="#F6F6F7"/>
<rect x="606" y="298" width="16" height="16" fill="white"/>
<rect x="622" y="330" width="16" height="16" fill="#F6F6F7"/>
<rect x="606" y="330" width="16" height="16" fill="white"/>
<rect x="686" y="202" width="16" height="16" fill="#F6F6F7"/>
<rect x="670" y="202" width="16" height="16" fill="white"/>
<rect x="686" y="234" width="16" height="16" fill="#F6F6F7"/>
<rect x="670" y="234" width="16" height="16" fill="white"/>
<rect x="686" y="266" width="16" height="16" fill="#F6F6F7"/>
<rect x="670" y="266" width="16" height="16" fill="white"/>
<rect x="686" y="298" width="16" height="16" fill="#F6F6F7"/>
<rect x="670" y="298" width="16" height="16" fill="white"/>
<rect x="686" y="330" width="16" height="16" fill="#F6F6F7"/>
<rect x="670" y="330" width="16" height="16" fill="white"/>
<rect x="750" y="202" width="16" height="16" fill="#F6F6F7"/>
<rect x="734" y="202" width="16" height="16" fill="white"/>
<rect x="750" y="234" width="16" height="16" fill="#F6F6F7"/>
<rect x="734" y="234" width="16" height="16" fill="white"/>
<rect x="750" y="266" width="16" height="16" fill="#F6F6F7"/>
<rect x="734" y="266" width="16" height="16" fill="white"/>
<rect x="750" y="298" width="16" height="16" fill="#F6F6F7"/>
<rect x="734" y="298" width="16" height="16" fill="white"/>
<rect x="750" y="330" width="16" height="16" fill="#F6F6F7"/>
<rect x="734" y="330" width="16" height="16" fill="white"/>
<rect x="814" y="202" width="16" height="16" fill="#F6F6F7"/>
<rect x="798" y="202" width="16" height="16" fill="white"/>
<rect x="814" y="234" width="16" height="16" fill="#F6F6F7"/>
<rect x="798" y="234" width="16" height="16" fill="white"/>
<rect x="814" y="266" width="16" height="16" fill="#F6F6F7"/>
<rect x="798" y="266" width="16" height="16" fill="white"/>
<rect x="814" y="298" width="16" height="16" fill="#F6F6F7"/>
<rect x="798" y="298" width="16" height="16" fill="white"/>
<rect x="814" y="330" width="16" height="16" fill="#F6F6F7"/>
<rect x="798" y="330" width="16" height="16" fill="white"/>
<rect x="878" y="202" width="16" height="16" fill="#F6F6F7"/>
<rect x="862" y="202" width="16" height="16" fill="white"/>
<rect x="878" y="234" width="16" height="16" fill="#F6F6F7"/>
<rect x="862" y="234" width="16" height="16" fill="white"/>
<rect x="878" y="266" width="16" height="16" fill="#F6F6F7"/>
<rect x="862" y="266" width="16" height="16" fill="white"/>
<rect x="878" y="298" width="16" height="16" fill="#F6F6F7"/>
<rect x="862" y="298" width="16" height="16" fill="white"/>
<rect x="878" y="330" width="16" height="16" fill="#F6F6F7"/>
<rect x="862" y="330" width="16" height="16" fill="white"/>
<rect x="942" y="202" width="16" height="16" fill="#F6F6F7"/>
<rect x="926" y="202" width="16" height="16" fill="white"/>
<rect x="942" y="234" width="16" height="16" fill="#F6F6F7"/>
<rect x="926" y="234" width="16" height="16" fill="white"/>
<rect x="942" y="266" width="16" height="16" fill="#F6F6F7"/>
<rect x="926" y="266" width="16" height="16" fill="white"/>
<rect x="942" y="298" width="16" height="16" fill="#F6F6F7"/>
<rect x="926" y="298" width="16" height="16" fill="white"/>
<rect x="942" y="330" width="16" height="16" fill="#F6F6F7"/>
<rect x="926" y="330" width="16" height="16" fill="white"/>
<rect x="318" y="186" width="16" height="16" fill="#F6F6F7"/>
<rect x="334" y="186" width="16" height="16" fill="white"/>
<rect x="318" y="218" width="16" height="16" fill="#F6F6F7"/>
<rect x="334" y="218" width="16" height="16" fill="white"/>
<rect x="318" y="250" width="16" height="16" fill="#F6F6F7"/>
<rect x="334" y="250" width="16" height="16" fill="white"/>
<rect x="318" y="282" width="16" height="16" fill="#F6F6F7"/>
<rect x="334" y="282" width="16" height="16" fill="white"/>
<rect x="318" y="314" width="16" height="16" fill="#F6F6F7"/>
<rect x="334" y="314" width="16" height="16" fill="white"/>
<rect x="446" y="186" width="16" height="16" fill="#F6F6F7"/>
<rect x="462" y="186" width="16" height="16" fill="white"/>
<rect x="446" y="218" width="16" height="16" fill="#F6F6F7"/>
<rect x="462" y="218" width="16" height="16" fill="white"/>
<rect x="446" y="250" width="16" height="16" fill="#F6F6F7"/>
<rect x="462" y="250" width="16" height="16" fill="white"/>
<rect x="446" y="282" width="16" height="16" fill="#F6F6F7"/>
<rect x="462" y="282" width="16" height="16" fill="white"/>
<rect x="446" y="314" width="16" height="16" fill="#F6F6F7"/>
<rect x="462" y="314" width="16" height="16" fill="white"/>
<rect x="574" y="186" width="16" height="16" fill="#F6F6F7"/>
<rect x="590" y="186" width="16" height="16" fill="white"/>
<rect x="574" y="218" width="16" height="16" fill="#F6F6F7"/>
<rect x="590" y="218" width="16" height="16" fill="white"/>
<rect x="574" y="250" width="16" height="16" fill="#F6F6F7"/>
<rect x="590" y="250" width="16" height="16" fill="white"/>
<rect x="574" y="282" width="16" height="16" fill="#F6F6F7"/>
<rect x="590" y="282" width="16" height="16" fill="white"/>
<rect x="574" y="314" width="16" height="16" fill="#F6F6F7"/>
<rect x="590" y="314" width="16" height="16" fill="white"/>
<rect x="702" y="186" width="16" height="16" fill="#F6F6F7"/>
<rect x="718" y="186" width="16" height="16" fill="white"/>
<rect x="702" y="218" width="16" height="16" fill="#F6F6F7"/>
<rect x="718" y="218" width="16" height="16" fill="white"/>
<rect x="702" y="250" width="16" height="16" fill="#F6F6F7"/>
<rect x="718" y="250" width="16" height="16" fill="white"/>
<rect x="702" y="282" width="16" height="16" fill="#F6F6F7"/>
<rect x="718" y="282" width="16" height="16" fill="white"/>
<rect x="702" y="314" width="16" height="16" fill="#F6F6F7"/>
<rect x="718" y="314" width="16" height="16" fill="white"/>
<rect x="830" y="186" width="16" height="16" fill="#F6F6F7"/>
<rect x="846" y="186" width="16" height="16" fill="white"/>
<rect x="830" y="218" width="16" height="16" fill="#F6F6F7"/>
<rect x="846" y="218" width="16" height="16" fill="white"/>
<rect x="830" y="250" width="16" height="16" fill="#F6F6F7"/>
<rect x="846" y="250" width="16" height="16" fill="white"/>
<rect x="830" y="282" width="16" height="16" fill="#F6F6F7"/>
<rect x="846" y="282" width="16" height="16" fill="white"/>
<rect x="830" y="314" width="16" height="16" fill="#F6F6F7"/>
<rect x="846" y="314" width="16" height="16" fill="white"/>
<rect x="254" y="186" width="16" height="16" fill="#F6F6F7"/>
<rect x="270" y="186" width="16" height="16" fill="white"/>
<rect x="254" y="218" width="16" height="16" fill="#F6F6F7"/>
<rect x="270" y="218" width="16" height="16" fill="white"/>
<rect x="254" y="250" width="16" height="16" fill="#F6F6F7"/>
<rect x="270" y="250" width="16" height="16" fill="white"/>
<rect x="254" y="282" width="16" height="16" fill="#F6F6F7"/>
<rect x="270" y="282" width="16" height="16" fill="white"/>
<rect x="254" y="314" width="16" height="16" fill="#F6F6F7"/>
<rect x="270" y="314" width="16" height="16" fill="white"/>
<rect x="382" y="186" width="16" height="16" fill="#F6F6F7"/>
<rect x="398" y="186" width="16" height="16" fill="white"/>
<rect x="382" y="218" width="16" height="16" fill="#F6F6F7"/>
<rect x="398" y="218" width="16" height="16" fill="white"/>
<rect x="382" y="250" width="16" height="16" fill="#F6F6F7"/>
<rect x="398" y="250" width="16" height="16" fill="white"/>
<rect x="382" y="282" width="16" height="16" fill="#F6F6F7"/>
<rect x="398" y="282" width="16" height="16" fill="white"/>
<rect x="382" y="314" width="16" height="16" fill="#F6F6F7"/>
<rect x="398" y="314" width="16" height="16" fill="white"/>
<rect x="510" y="186" width="16" height="16" fill="#F6F6F7"/>
<rect x="526" y="186" width="16" height="16" fill="white"/>
<rect x="510" y="218" width="16" height="16" fill="#F6F6F7"/>
<rect x="526" y="218" width="16" height="16" fill="white"/>
<rect x="510" y="250" width="16" height="16" fill="#F6F6F7"/>
<rect x="526" y="250" width="16" height="16" fill="white"/>
<rect x="510" y="282" width="16" height="16" fill="#F6F6F7"/>
<rect x="526" y="282" width="16" height="16" fill="white"/>
<rect x="510" y="314" width="16" height="16" fill="#F6F6F7"/>
<rect x="526" y="314" width="16" height="16" fill="white"/>
<rect x="638" y="186" width="16" height="16" fill="#F6F6F7"/>
<rect x="654" y="186" width="16" height="16" fill="white"/>
<rect x="638" y="218" width="16" height="16" fill="#F6F6F7"/>
<rect x="654" y="218" width="16" height="16" fill="white"/>
<rect x="638" y="250" width="16" height="16" fill="#F6F6F7"/>
<rect x="654" y="250" width="16" height="16" fill="white"/>
<rect x="638" y="282" width="16" height="16" fill="#F6F6F7"/>
<rect x="654" y="282" width="16" height="16" fill="white"/>
<rect x="638" y="314" width="16" height="16" fill="#F6F6F7"/>
<rect x="654" y="314" width="16" height="16" fill="white"/>
<rect x="766" y="186" width="16" height="16" fill="#F6F6F7"/>
<rect x="782" y="186" width="16" height="16" fill="white"/>
<rect x="766" y="218" width="16" height="16" fill="#F6F6F7"/>
<rect x="782" y="218" width="16" height="16" fill="white"/>
<rect x="766" y="250" width="16" height="16" fill="#F6F6F7"/>
<rect x="782" y="250" width="16" height="16" fill="white"/>
<rect x="766" y="282" width="16" height="16" fill="#F6F6F7"/>
<rect x="782" y="282" width="16" height="16" fill="white"/>
<rect x="766" y="314" width="16" height="16" fill="#F6F6F7"/>
<rect x="782" y="314" width="16" height="16" fill="white"/>
<rect x="894" y="186" width="16" height="16" fill="#F6F6F7"/>
<rect x="910" y="186" width="16" height="16" fill="white"/>
<rect x="894" y="218" width="16" height="16" fill="#F6F6F7"/>
<rect x="910" y="218" width="16" height="16" fill="white"/>
<rect x="894" y="250" width="16" height="16" fill="#F6F6F7"/>
<rect x="910" y="250" width="16" height="16" fill="white"/>
<rect x="894" y="282" width="16" height="16" fill="#F6F6F7"/>
<rect x="910" y="282" width="16" height="16" fill="white"/>
<rect x="894" y="314" width="16" height="16" fill="#F6F6F7"/>
<rect x="910" y="314" width="16" height="16" fill="white"/>
<rect x="222" y="186" width="16" height="16" fill="#F6F6F7"/>
<rect x="238" y="186" width="16" height="16" fill="white"/>
<rect x="222" y="218" width="16" height="16" fill="#F6F6F7"/>
<rect x="238" y="218" width="16" height="16" fill="white"/>
<rect x="222" y="250" width="16" height="16" fill="#F6F6F7"/>
<rect x="238" y="250" width="16" height="16" fill="white"/>
<rect x="222" y="282" width="16" height="16" fill="#F6F6F7"/>
<rect x="238" y="282" width="16" height="16" fill="white"/>
<rect x="222" y="314" width="16" height="16" fill="#F6F6F7"/>
<rect x="238" y="314" width="16" height="16" fill="white"/>
<rect x="350" y="186" width="16" height="16" fill="#F6F6F7"/>
<rect x="366" y="186" width="16" height="16" fill="white"/>
<rect x="350" y="218" width="16" height="16" fill="#F6F6F7"/>
<rect x="366" y="218" width="16" height="16" fill="white"/>
<rect x="350" y="250" width="16" height="16" fill="#F6F6F7"/>
<rect x="366" y="250" width="16" height="16" fill="white"/>
<rect x="350" y="282" width="16" height="16" fill="#F6F6F7"/>
<rect x="366" y="282" width="16" height="16" fill="white"/>
<rect x="350" y="314" width="16" height="16" fill="#F6F6F7"/>
<rect x="366" y="314" width="16" height="16" fill="white"/>
<rect x="478" y="186" width="16" height="16" fill="#F6F6F7"/>
<rect x="494" y="186" width="16" height="16" fill="white"/>
<rect x="478" y="218" width="16" height="16" fill="#F6F6F7"/>
<rect x="494" y="218" width="16" height="16" fill="white"/>
<rect x="478" y="250" width="16" height="16" fill="#F6F6F7"/>
<rect x="494" y="250" width="16" height="16" fill="white"/>
<rect x="478" y="282" width="16" height="16" fill="#F6F6F7"/>
<rect x="494" y="282" width="16" height="16" fill="white"/>
<rect x="478" y="314" width="16" height="16" fill="#F6F6F7"/>
<rect x="494" y="314" width="16" height="16" fill="white"/>
<rect x="606" y="186" width="16" height="16" fill="#F6F6F7"/>
<rect x="622" y="186" width="16" height="16" fill="white"/>
<rect x="606" y="218" width="16" height="16" fill="#F6F6F7"/>
<rect x="622" y="218" width="16" height="16" fill="white"/>
<rect x="606" y="250" width="16" height="16" fill="#F6F6F7"/>
<rect x="622" y="250" width="16" height="16" fill="white"/>
<rect x="606" y="282" width="16" height="16" fill="#F6F6F7"/>
<rect x="622" y="282" width="16" height="16" fill="white"/>
<rect x="606" y="314" width="16" height="16" fill="#F6F6F7"/>
<rect x="622" y="314" width="16" height="16" fill="white"/>
<rect x="734" y="186" width="16" height="16" fill="#F6F6F7"/>
<rect x="750" y="186" width="16" height="16" fill="white"/>
<rect x="734" y="218" width="16" height="16" fill="#F6F6F7"/>
<rect x="750" y="218" width="16" height="16" fill="white"/>
<rect x="734" y="250" width="16" height="16" fill="#F6F6F7"/>
<rect x="750" y="250" width="16" height="16" fill="white"/>
<rect x="734" y="282" width="16" height="16" fill="#F6F6F7"/>
<rect x="750" y="282" width="16" height="16" fill="white"/>
<rect x="734" y="314" width="16" height="16" fill="#F6F6F7"/>
<rect x="750" y="314" width="16" height="16" fill="white"/>
<rect x="862" y="186" width="16" height="16" fill="#F6F6F7"/>
<rect x="878" y="186" width="16" height="16" fill="white"/>
<rect x="862" y="218" width="16" height="16" fill="#F6F6F7"/>
<rect x="878" y="218" width="16" height="16" fill="white"/>
<rect x="862" y="250" width="16" height="16" fill="#F6F6F7"/>
<rect x="878" y="250" width="16" height="16" fill="white"/>
<rect x="862" y="282" width="16" height="16" fill="#F6F6F7"/>
<rect x="878" y="282" width="16" height="16" fill="white"/>
<rect x="862" y="314" width="16" height="16" fill="#F6F6F7"/>
<rect x="878" y="314" width="16" height="16" fill="white"/>
<rect x="286" y="186" width="16" height="16" fill="#F6F6F7"/>
<rect x="302" y="186" width="16" height="16" fill="white"/>
<rect x="286" y="218" width="16" height="16" fill="#F6F6F7"/>
<rect x="302" y="218" width="16" height="16" fill="white"/>
<rect x="286" y="250" width="16" height="16" fill="#F6F6F7"/>
<rect x="302" y="250" width="16" height="16" fill="white"/>
<rect x="286" y="282" width="16" height="16" fill="#F6F6F7"/>
<rect x="302" y="282" width="16" height="16" fill="white"/>
<rect x="286" y="314" width="16" height="16" fill="#F6F6F7"/>
<rect x="302" y="314" width="16" height="16" fill="white"/>
<rect x="414" y="186" width="16" height="16" fill="#F6F6F7"/>
<rect x="430" y="186" width="16" height="16" fill="white"/>
<rect x="414" y="218" width="16" height="16" fill="#F6F6F7"/>
<rect x="430" y="218" width="16" height="16" fill="white"/>
<rect x="414" y="250" width="16" height="16" fill="#F6F6F7"/>
<rect x="430" y="250" width="16" height="16" fill="white"/>
<rect x="414" y="282" width="16" height="16" fill="#F6F6F7"/>
<rect x="430" y="282" width="16" height="16" fill="white"/>
<rect x="414" y="314" width="16" height="16" fill="#F6F6F7"/>
<rect x="430" y="314" width="16" height="16" fill="white"/>
<rect x="542" y="186" width="16" height="16" fill="#F6F6F7"/>
<rect x="558" y="186" width="16" height="16" fill="white"/>
<rect x="542" y="218" width="16" height="16" fill="#F6F6F7"/>
<rect x="558" y="218" width="16" height="16" fill="white"/>
<rect x="542" y="250" width="16" height="16" fill="#F6F6F7"/>
<rect x="558" y="250" width="16" height="16" fill="white"/>
<rect x="542" y="282" width="16" height="16" fill="#F6F6F7"/>
<rect x="558" y="282" width="16" height="16" fill="white"/>
<rect x="542" y="314" width="16" height="16" fill="#F6F6F7"/>
<rect x="558" y="314" width="16" height="16" fill="white"/>
<rect x="670" y="186" width="16" height="16" fill="#F6F6F7"/>
<rect x="686" y="186" width="16" height="16" fill="white"/>
<rect x="670" y="218" width="16" height="16" fill="#F6F6F7"/>
<rect x="686" y="218" width="16" height="16" fill="white"/>
<rect x="670" y="250" width="16" height="16" fill="#F6F6F7"/>
<rect x="686" y="250" width="16" height="16" fill="white"/>
<rect x="670" y="282" width="16" height="16" fill="#F6F6F7"/>
<rect x="686" y="282" width="16" height="16" fill="white"/>
<rect x="670" y="314" width="16" height="16" fill="#F6F6F7"/>
<rect x="686" y="314" width="16" height="16" fill="white"/>
<rect x="798" y="186" width="16" height="16" fill="#F6F6F7"/>
<rect x="814" y="186" width="16" height="16" fill="white"/>
<rect x="798" y="218" width="16" height="16" fill="#F6F6F7"/>
<rect x="814" y="218" width="16" height="16" fill="white"/>
<rect x="798" y="250" width="16" height="16" fill="#F6F6F7"/>
<rect x="814" y="250" width="16" height="16" fill="white"/>
<rect x="798" y="282" width="16" height="16" fill="#F6F6F7"/>
<rect x="814" y="282" width="16" height="16" fill="white"/>
<rect x="798" y="314" width="16" height="16" fill="#F6F6F7"/>
<rect x="814" y="314" width="16" height="16" fill="white"/>
<rect x="926" y="186" width="16" height="16" fill="#F6F6F7"/>
<rect x="942" y="186" width="16" height="16" fill="white"/>
<rect x="926" y="218" width="16" height="16" fill="#F6F6F7"/>
<rect x="942" y="218" width="16" height="16" fill="white"/>
<rect x="926" y="250" width="16" height="16" fill="#F6F6F7"/>
<rect x="942" y="250" width="16" height="16" fill="white"/>
<rect x="926" y="282" width="16" height="16" fill="#F6F6F7"/>
<rect x="942" y="282" width="16" height="16" fill="white"/>
<rect x="926" y="314" width="16" height="16" fill="#F6F6F7"/>
<rect x="942" y="314" width="16" height="16" fill="white"/>
<path d="M542.199 275H543.639V265.16H547.783V263.8H538.215V265.16H542.199V275ZM550.195 275.224C551.587 275.224 552.355 274.456 552.739 273.784V275H554.067V267.08H552.707V268.312C552.323 267.64 551.587 266.856 550.195 266.856C548.371 266.856 546.979 268.44 546.979 271.048C546.979 273.656 548.371 275.224 550.195 275.224ZM550.547 274.024C549.283 274.024 548.371 273.272 548.371 271.064C548.371 268.856 549.283 268.056 550.547 268.056C551.843 268.056 552.787 269.064 552.787 271.064C552.787 273.064 551.843 274.024 550.547 274.024ZM560.63 275.224C562.454 275.224 563.846 273.64 563.846 271.032C563.846 268.424 562.454 266.856 560.63 266.856C559.238 266.856 558.502 267.624 558.118 268.296V266.76V263.8H556.758V275H558.086V273.768C558.47 274.44 559.238 275.224 560.63 275.224ZM560.278 274.024C558.982 274.024 558.038 273.016 558.038 271.016C558.038 269.016 558.982 268.056 560.278 268.056C561.542 268.056 562.454 268.808 562.454 271.016C562.454 273.224 561.542 274.024 560.278 274.024ZM570.086 278.12H571.446V275.32V273.768C571.83 274.44 572.566 275.224 573.958 275.224C575.782 275.224 577.174 273.64 577.174 271.032C577.174 268.424 575.782 266.856 573.958 266.856C572.566 266.856 571.798 267.624 571.414 268.296V267.08H570.086V278.12ZM573.606 274.024C572.31 274.024 571.366 273.016 571.366 271.016C571.366 269.016 572.31 268.056 573.606 268.056C574.87 268.056 575.782 268.808 575.782 271.016C575.782 273.224 574.87 274.024 573.606 274.024ZM581.898 275.224C583.29 275.224 584.058 274.456 584.442 273.784V275H585.77V267.08H584.41V268.312C584.026 267.64 583.29 266.856 581.898 266.856C580.074 266.856 578.682 268.44 578.682 271.048C578.682 273.656 580.074 275.224 581.898 275.224ZM582.25 274.024C580.986 274.024 580.074 273.272 580.074 271.064C580.074 268.856 580.986 268.056 582.25 268.056C583.546 268.056 584.49 269.064 584.49 271.064C584.49 273.064 583.546 274.024 582.25 274.024ZM588.461 275H589.821V271.64C589.821 270.472 589.869 268.056 592.045 268.056C593.101 268.056 593.789 268.664 593.789 270.152V275H595.149V269.832C595.149 268.072 594.349 266.856 592.381 266.856C590.669 266.856 589.901 268.072 589.789 268.424V267.08H588.461V275ZM600.719 275.224C602.207 275.224 603.535 274.552 604.127 272.936L602.879 272.504C602.671 273.016 602.111 274.04 600.767 274.04C599.663 274.04 598.559 273.4 598.479 271.4H604.063C604.367 268.808 602.943 266.856 600.639 266.856C598.623 266.856 597.135 268.472 597.135 271.08C597.135 273.768 598.559 275.224 600.719 275.224ZM598.511 270.264C598.623 268.824 599.599 267.976 600.639 267.976C601.727 267.976 602.671 268.76 602.671 270.264H598.511ZM606.242 275H607.602V263.8H606.242V275Z" fill="#6E6E78"/>
<path d="M530 267C530.552 267 531 267.448 531 268C531 268.552 530.552 269 530 269L530 267ZM343.293 268.707C342.902 268.317 342.902 267.683 343.293 267.293L349.657 260.929C350.047 260.538 350.681 260.538 351.071 260.929C351.462 261.319 351.462 261.953 351.071 262.343L345.414 268L351.071 273.657C351.462 274.047 351.462 274.681 351.071 275.071C350.681 275.462 350.047 275.462 349.657 275.071L343.293 268.707ZM530 269L344 269L344 267L530 267L530 269Z" fill="#DA372C"/>
<path d="M616 267C615.448 267 615 267.448 615 268C615 268.552 615.448 269 616 269L616 267ZM802.707 268.707C803.098 268.317 803.098 267.683 802.707 267.293L796.343 260.929C795.953 260.538 795.319 260.538 794.929 260.929C794.538 261.319 794.538 261.953 794.929 262.343L800.586 268L794.929 273.657C794.538 274.047 794.538 274.681 794.929 275.071C795.319 275.462 795.953 275.462 796.343 275.071L802.707 268.707ZM616 269L802 269L802 267L616 267L616 269Z" fill="#DA372C"/>
<path d="M572 250C572 250.552 572.448 251 573 251C573.552 251 574 250.552 574 250L572 250ZM573.707 209.293C573.317 208.902 572.683 208.902 572.293 209.293L565.929 215.657C565.538 216.047 565.538 216.681 565.929 217.071C566.319 217.462 566.953 217.462 567.343 217.071L573 211.414L578.657 217.071C579.047 217.462 579.681 217.462 580.071 217.071C580.462 216.681 580.462 216.047 580.071 215.657L573.707 209.293ZM574 250L574 210L572 210L572 250L574 250Z" fill="#DA372C"/>
<path d="M572 286C572 285.448 572.448 285 573 285C573.552 285 574 285.448 574 286L572 286ZM573.707 326.707C573.317 327.098 572.683 327.098 572.293 326.707L565.929 320.343C565.538 319.953 565.538 319.319 565.929 318.929C566.319 318.538 566.953 318.538 567.343 318.929L573 324.586L578.657 318.929C579.047 318.538 579.681 318.538 580.071 318.929C580.462 319.319 580.462 319.953 580.071 320.343L573.707 326.707ZM574 286L574 326L572 326L572 286L574 286Z" fill="#DA372C"/>
<path d="M130 183C129.448 183 129 183.448 129 184C129 184.552 129.448 185 130 185L130 183ZM178.707 184.707C179.098 184.317 179.098 183.683 178.707 183.293L172.343 176.929C171.953 176.538 171.319 176.538 170.929 176.929C170.538 177.319 170.538 177.953 170.929 178.343L176.586 184L170.929 189.657C170.538 190.047 170.538 190.681 170.929 191.071C171.319 191.462 171.953 191.462 172.343 191.071L178.707 184.707ZM130 185L178 185L178 183L130 183L130 185Z" fill="#DA372C"/>
<path d="M53.4605 189H54.9005V177.8H53.4605V189ZM57.8909 189H59.2509V185.64C59.2509 184.472 59.2989 182.056 61.4749 182.056C62.5309 182.056 63.2189 182.664 63.2189 184.152V189H64.5789V183.832C64.5789 182.072 63.7789 180.856 61.8109 180.856C60.0989 180.856 59.3309 182.072 59.2189 182.424V181.08H57.8909V189ZM69.7805 189.224C71.1725 189.224 71.9405 188.456 72.3245 187.784V189H73.6525V177.8H72.2925V180.76V182.312C71.9085 181.64 71.1725 180.856 69.7805 180.856C67.9565 180.856 66.5645 182.44 66.5645 185.048C66.5645 187.656 67.9565 189.224 69.7805 189.224ZM70.1325 188.024C68.8685 188.024 67.9565 187.272 67.9565 185.064C67.9565 182.856 68.8685 182.056 70.1325 182.056C71.4285 182.056 72.3725 183.064 72.3725 185.064C72.3725 187.064 71.4285 188.024 70.1325 188.024ZM76.296 179.528H77.736V177.8H76.296V179.528ZM76.344 189H77.704V181.08H76.344V189ZM83.5429 189.224C85.3189 189.224 86.4709 188.184 86.9829 186.712L85.7029 186.264C85.4469 187.128 84.8549 188.024 83.5429 188.024C82.2309 188.024 81.2069 187.064 81.2069 185.032C81.2069 183.048 82.2629 182.056 83.5269 182.056C84.6789 182.056 85.2549 182.808 85.5109 183.56L86.7749 183.144C86.4069 181.912 85.3189 180.856 83.5269 180.856C81.3349 180.856 79.7829 182.584 79.7829 185.032C79.7829 187.592 81.2549 189.224 83.5429 189.224ZM91.4211 189.224C92.8131 189.224 93.5811 188.456 93.9651 187.784V189H95.2931V181.08H93.9331V182.312C93.5491 181.64 92.8131 180.856 91.4211 180.856C89.5971 180.856 88.2051 182.44 88.2051 185.048C88.2051 187.656 89.5971 189.224 91.4211 189.224ZM91.7731 188.024C90.5091 188.024 89.5971 187.272 89.5971 185.064C89.5971 182.856 90.5091 182.056 91.7731 182.056C93.0691 182.056 94.0131 183.064 94.0131 185.064C94.0131 187.064 93.0691 188.024 91.7731 188.024ZM100.737 189H102.561V187.8H100.913C100.353 187.8 100.113 187.56 100.113 187V182.232H102.273V181.08H100.113V178.6H98.7526V181.08H96.9126V182.232H98.7526V187.08C98.7526 188.392 99.4246 189 100.737 189ZM107.259 189.224C109.339 189.224 110.939 187.432 110.939 185.048C110.939 182.664 109.403 180.856 107.259 180.856C105.115 180.856 103.579 182.664 103.579 185.048C103.579 187.432 105.179 189.224 107.259 189.224ZM107.259 188.024C105.915 188.024 104.987 187.064 104.987 185.064C104.987 183.064 105.915 182.056 107.259 182.056C108.603 182.056 109.531 183.064 109.531 185.064C109.531 187.064 108.603 188.024 107.259 188.024ZM113 189H114.36V185.368C114.36 183.512 115.096 182.376 116.888 182.376C117.208 182.376 117.48 182.408 117.736 182.456V181.064C117.544 181.016 117.304 180.968 116.92 180.968C115.416 180.968 114.6 182.136 114.344 182.728V181.08H113V189Z" fill="#6E6E78"/>
<path d="M259 75C259 74.4477 259.448 74 260 74C260.552 74 261 74.4477 261 75L259 75ZM260.707 123.707C260.317 124.098 259.683 124.098 259.293 123.707L252.929 117.343C252.538 116.953 252.538 116.319 252.929 115.929C253.319 115.538 253.953 115.538 254.343 115.929L260 121.586L265.657 115.929C266.047 115.538 266.681 115.538 267.071 115.929C267.462 116.319 267.462 116.953 267.071 117.343L260.707 123.707ZM261 75L261 123L259 123L259 75L261 75Z" fill="#DA372C"/>
<path d="M225.597 86H227.037V76.16H231.181V74.8H221.613V76.16H225.597V86ZM233.593 86.224C234.985 86.224 235.753 85.456 236.137 84.784V86H237.465V78.08H236.105V79.312C235.721 78.64 234.985 77.856 233.593 77.856C231.769 77.856 230.377 79.44 230.377 82.048C230.377 84.656 231.769 86.224 233.593 86.224ZM233.945 85.024C232.681 85.024 231.769 84.272 231.769 82.064C231.769 79.856 232.681 79.056 233.945 79.056C235.241 79.056 236.185 80.064 236.185 82.064C236.185 84.064 235.241 85.024 233.945 85.024ZM244.029 86.224C245.853 86.224 247.245 84.64 247.245 82.032C247.245 79.424 245.853 77.856 244.029 77.856C242.637 77.856 241.901 78.624 241.517 79.296V77.76V74.8H240.157V86H241.485V84.768C241.869 85.44 242.637 86.224 244.029 86.224ZM243.677 85.024C242.381 85.024 241.437 84.016 241.437 82.016C241.437 80.016 242.381 79.056 243.677 79.056C244.941 79.056 245.853 79.808 245.853 82.016C245.853 84.224 244.941 85.024 243.677 85.024Z" fill="#6E6E78"/>
<path d="M894 75C894 74.4477 894.448 74 895 74C895.552 74 896 74.4477 896 75L894 75ZM895.707 178.707C895.317 179.098 894.683 179.098 894.293 178.707L887.929 172.343C887.538 171.953 887.538 171.319 887.929 170.929C888.319 170.538 888.953 170.538 889.343 170.929L895 176.586L900.657 170.929C901.047 170.538 901.681 170.538 902.071 170.929C902.462 171.319 902.462 171.953 902.071 172.343L895.707 178.707ZM896 75L896 178L894 178L894 75L896 75Z" fill="#DA372C"/>
<path d="M807.347 86H808.787V76.16H812.931V74.8H803.363V76.16H807.347V86ZM815.343 86.224C816.735 86.224 817.503 85.456 817.887 84.784V86H819.215V78.08H817.855V79.312C817.471 78.64 816.735 77.856 815.343 77.856C813.519 77.856 812.127 79.44 812.127 82.048C812.127 84.656 813.519 86.224 815.343 86.224ZM815.695 85.024C814.431 85.024 813.519 84.272 813.519 82.064C813.519 79.856 814.431 79.056 815.695 79.056C816.991 79.056 817.935 80.064 817.935 82.064C817.935 84.064 816.991 85.024 815.695 85.024ZM825.779 86.224C827.603 86.224 828.995 84.64 828.995 82.032C828.995 79.424 827.603 77.856 825.779 77.856C824.387 77.856 823.651 78.624 823.267 79.296V77.76V74.8H821.907V86H823.235V84.768C823.619 85.44 824.387 86.224 825.779 86.224ZM825.427 85.024C824.131 85.024 823.187 84.016 823.187 82.016C823.187 80.016 824.131 79.056 825.427 79.056C826.691 79.056 827.603 79.808 827.603 82.016C827.603 84.224 826.691 85.024 825.427 85.024ZM837.859 86.224C839.251 86.224 840.019 85.456 840.403 84.784V86H841.731V74.8H840.371V77.76V79.312C839.987 78.64 839.251 77.856 837.859 77.856C836.035 77.856 834.643 79.44 834.643 82.048C834.643 84.656 836.035 86.224 837.859 86.224ZM838.211 85.024C836.947 85.024 836.035 84.272 836.035 82.064C836.035 79.856 836.947 79.056 838.211 79.056C839.507 79.056 840.451 80.064 840.451 82.064C840.451 84.064 839.507 85.024 838.211 85.024ZM844.374 76.528H845.814V74.8H844.374V76.528ZM844.422 86H845.782V78.08H844.422V86ZM850.181 86H851.877L854.437 78.08H853.045L851.685 82.64L851.045 84.752C850.933 84.384 850.645 83.44 850.389 82.64L848.965 78.08H847.541L850.181 86ZM856.202 76.528H857.642V74.8H856.202V76.528ZM856.25 86H857.61V78.08H856.25V86ZM862.921 86.224C864.313 86.224 865.081 85.456 865.465 84.784V86H866.793V74.8H865.433V77.76V79.312C865.049 78.64 864.313 77.856 862.921 77.856C861.097 77.856 859.705 79.44 859.705 82.048C859.705 84.656 861.097 86.224 862.921 86.224ZM863.273 85.024C862.009 85.024 861.097 84.272 861.097 82.064C861.097 79.856 862.009 79.056 863.273 79.056C864.569 79.056 865.513 80.064 865.513 82.064C865.513 84.064 864.569 85.024 863.273 85.024ZM872.477 86.224C873.965 86.224 875.293 85.552 875.885 83.936L874.637 83.504C874.429 84.016 873.869 85.04 872.525 85.04C871.421 85.04 870.317 84.4 870.237 82.4H875.821C876.125 79.808 874.701 77.856 872.397 77.856C870.381 77.856 868.893 79.472 868.893 82.08C868.893 84.768 870.317 86.224 872.477 86.224ZM870.269 81.264C870.381 79.824 871.357 78.976 872.397 78.976C873.485 78.976 874.429 79.76 874.429 81.264H870.269ZM878 86H879.36V82.368C879.36 80.512 880.096 79.376 881.888 79.376C882.208 79.376 882.48 79.408 882.736 79.456V78.064C882.544 78.016 882.304 77.968 881.92 77.968C880.416 77.968 879.6 79.136 879.344 79.728V78.08H878V86Z" fill="#6E6E78"/>
</svg>
