<svg width="958" height="346" viewBox="0 0 958 346" fill="none" xmlns="http://www.w3.org/2000/svg">
<circle cx="382" cy="173" r="14" fill="#1662DD" stroke="#1662DD" stroke-width="4"/>
<circle cx="382" cy="173" r="4" fill="white" stroke="white" stroke-width="4"/>
<path d="M432.752 182.392C436.896 182.392 438.716 179.9 439.388 178.444V182H441.88V172.424H432.388V174.804H439.248C439.108 177.324 436.896 180.012 433.004 180.012C428.972 180.012 426.2 177.156 426.2 172.144C426.2 167.048 429.7 164.444 433.116 164.444C436.476 164.444 438.324 166.292 439.304 168.952L441.936 167.888C440.928 164.948 438.1 162.008 433.2 162.008C427.936 162.008 423.484 166.124 423.484 172.172C423.484 178.388 426.956 182.392 432.752 182.392ZM446.118 182H448.498V162.4H446.118V182ZM456.784 182.392C458.94 182.392 460.256 181.468 461.292 179.9C461.46 181.048 461.768 182 463.868 182H465.688V179.9H464.232C463.588 179.9 463.42 179.732 463.42 179.088V172.508C463.42 169.652 461.712 167.748 458.016 167.748C454.404 167.748 452.5 169.708 451.996 171.556L454.32 172.396C454.684 171.36 455.44 169.848 457.988 169.848C460.116 169.848 461.04 170.856 461.04 172.536V172.928C456.532 173.292 452.304 174.608 452.304 178.416C452.304 180.88 454.04 182.392 456.784 182.392ZM457.344 180.376C455.608 180.376 454.768 179.536 454.768 178.22C454.768 175.952 457.652 175.084 461.04 174.72V176.26C461.04 179.144 459.164 180.376 457.344 180.376ZM467.091 182H478.543V179.9H473.139H469.975L478.179 169.932V168.14H467.315V170.24H472.019H475.015L467.091 179.9V182ZM487.037 182.392C489.641 182.392 491.965 181.216 493.001 178.388L490.817 177.632C490.453 178.528 489.473 180.32 487.121 180.32C485.189 180.32 483.257 179.2 483.117 175.7H492.889C493.421 171.164 490.929 167.748 486.897 167.748C483.369 167.748 480.765 170.576 480.765 175.14C480.765 179.844 483.257 182.392 487.037 182.392ZM483.173 173.712C483.369 171.192 485.077 169.708 486.897 169.708C488.801 169.708 490.453 171.08 490.453 173.712H483.173ZM501.296 182.392C503.732 182.392 505.076 181.048 505.748 179.872V182H508.072V162.4H505.692V167.58V170.296C505.02 169.12 503.732 167.748 501.296 167.748C498.104 167.748 495.668 170.52 495.668 175.084C495.668 179.648 498.104 182.392 501.296 182.392ZM501.912 180.292C499.7 180.292 498.104 178.976 498.104 175.112C498.104 171.248 499.7 169.848 501.912 169.848C504.18 169.848 505.832 171.612 505.832 175.112C505.832 178.612 504.18 180.292 501.912 180.292ZM524.62 182.392C527.056 182.392 528.4 181.048 529.072 179.872V182H531.396V162.4H529.016V167.58V170.296C528.344 169.12 527.056 167.748 524.62 167.748C521.428 167.748 518.992 170.52 518.992 175.084C518.992 179.648 521.428 182.392 524.62 182.392ZM525.236 180.292C523.024 180.292 521.428 178.976 521.428 175.112C521.428 171.248 523.024 169.848 525.236 169.848C527.504 169.848 529.156 171.612 529.156 175.112C529.156 178.612 527.504 180.292 525.236 180.292ZM541.454 182.392C545.094 182.392 547.894 179.256 547.894 175.084C547.894 170.912 545.206 167.748 541.454 167.748C537.702 167.748 535.014 170.912 535.014 175.084C535.014 179.256 537.814 182.392 541.454 182.392ZM541.454 180.292C539.102 180.292 537.478 178.612 537.478 175.112C537.478 171.612 539.102 169.848 541.454 169.848C543.806 169.848 545.43 171.612 545.43 175.112C545.43 178.612 543.806 180.292 541.454 180.292ZM551.5 182H553.88V176.12C553.88 174.076 553.964 169.848 557.772 169.848C559.62 169.848 560.824 170.912 560.824 173.516V182H563.204V172.956C563.204 169.876 561.804 167.748 558.36 167.748C555.364 167.748 554.02 169.876 553.824 170.492V168.14H551.5V182ZM572.139 182.392C575.023 182.392 576.339 180.348 576.759 179.592V182H579.083V168.14H576.703V174.02C576.703 176.148 576.647 180.292 572.895 180.292C571.075 180.292 569.899 179.228 569.899 176.624V168.14H567.519V177.184C567.519 180.264 568.891 182.392 572.139 182.392ZM588.609 182H591.801V179.9H588.917C587.937 179.9 587.517 179.48 587.517 178.5V170.156H591.297V168.14H587.517V163.8H585.137V168.14H581.917V170.156H585.137V178.64C585.137 180.936 586.313 182 588.609 182Z" fill="#1D1D21"/>
<path d="M185 172C184.448 172 184 172.448 184 173C184 173.552 184.448 174 185 174L185 172ZM354.707 173.707C355.098 173.317 355.098 172.683 354.707 172.293L348.343 165.929C347.953 165.538 347.319 165.538 346.929 165.929C346.538 166.319 346.538 166.953 346.929 167.343L352.586 173L346.929 178.657C346.538 179.047 346.538 179.681 346.929 180.071C347.319 180.462 347.953 180.462 348.343 180.071L354.707 173.707ZM185 174L354 174L354 172L185 172L185 174Z" fill="#DA372C"/>
<path d="M190.728 156.224C193.544 156.224 194.968 154.576 194.968 151.68V144.8H193.528V151.472C193.528 153.52 192.664 154.848 190.728 154.848C188.792 154.848 187.928 153.536 187.928 151.472V144.8H186.488V151.68C186.488 154.816 188.136 156.224 190.728 156.224ZM198.101 156H199.541V144.8H198.101V156ZM206.624 146.528H208.064V144.8H206.624V146.528ZM206.672 156H208.032V148.08H206.672V156ZM210.719 156H212.079V152.64C212.079 151.472 212.127 149.056 214.303 149.056C215.359 149.056 216.047 149.664 216.047 151.152V156H217.407V150.832C217.407 149.072 216.607 147.856 214.639 147.856C212.927 147.856 212.159 149.072 212.047 149.424V148.08H210.719V156ZM222.609 156.224C224.001 156.224 224.769 155.456 225.153 154.784V156H226.481V144.8H225.121V147.76V149.312C224.737 148.64 224.001 147.856 222.609 147.856C220.785 147.856 219.393 149.44 219.393 152.048C219.393 154.656 220.785 156.224 222.609 156.224ZM222.961 155.024C221.697 155.024 220.785 154.272 220.785 152.064C220.785 149.856 221.697 149.056 222.961 149.056C224.257 149.056 225.201 150.064 225.201 152.064C225.201 154.064 224.257 155.024 222.961 155.024ZM229.124 146.528H230.564V144.8H229.124V146.528ZM229.172 156H230.532V148.08H229.172V156ZM236.371 156.224C238.147 156.224 239.299 155.184 239.811 153.712L238.531 153.264C238.275 154.128 237.683 155.024 236.371 155.024C235.059 155.024 234.035 154.064 234.035 152.032C234.035 150.048 235.091 149.056 236.355 149.056C237.507 149.056 238.083 149.808 238.339 150.56L239.603 150.144C239.235 148.912 238.147 147.856 236.355 147.856C234.163 147.856 232.611 149.584 232.611 152.032C232.611 154.592 234.083 156.224 236.371 156.224ZM244.249 156.224C245.641 156.224 246.409 155.456 246.793 154.784V156H248.121V148.08H246.761V149.312C246.377 148.64 245.641 147.856 244.249 147.856C242.425 147.856 241.033 149.44 241.033 152.048C241.033 154.656 242.425 156.224 244.249 156.224ZM244.601 155.024C243.337 155.024 242.425 154.272 242.425 152.064C242.425 149.856 243.337 149.056 244.601 149.056C245.897 149.056 246.841 150.064 246.841 152.064C246.841 154.064 245.897 155.024 244.601 155.024ZM253.565 156H255.389V154.8H253.741C253.181 154.8 252.941 154.56 252.941 154V149.232H255.101V148.08H252.941V145.6H251.581V148.08H249.741V149.232H251.581V154.08C251.581 155.392 252.253 156 253.565 156ZM260.088 156.224C262.168 156.224 263.767 154.432 263.767 152.048C263.767 149.664 262.232 147.856 260.088 147.856C257.944 147.856 256.408 149.664 256.408 152.048C256.408 154.432 258.008 156.224 260.088 156.224ZM260.088 155.024C258.744 155.024 257.816 154.064 257.816 152.064C257.816 150.064 258.744 149.056 260.088 149.056C261.432 149.056 262.36 150.064 262.36 152.064C262.36 154.064 261.432 155.024 260.088 155.024ZM265.828 156H267.188V152.368C267.188 150.512 267.924 149.376 269.716 149.376C270.036 149.376 270.308 149.408 270.564 149.456V148.064C270.372 148.016 270.132 147.968 269.748 147.968C268.244 147.968 267.428 149.136 267.172 149.728V148.08H265.828V156Z" fill="#6E6E78"/>
<path d="M531 53C531 52.4477 530.552 52 530 52C529.448 52 529 52.4477 529 53L531 53ZM529.293 149.707C529.683 150.098 530.317 150.098 530.707 149.707L537.071 143.343C537.462 142.953 537.462 142.319 537.071 141.929C536.681 141.538 536.047 141.538 535.657 141.929L530 147.586L524.343 141.929C523.953 141.538 523.319 141.538 522.929 141.929C522.538 142.319 522.538 142.953 522.929 143.343L529.293 149.707ZM529 53L529 149L531 149L531 53L529 53Z" fill="#DA372C"/>
<path d="M479.429 65H486.901V63.608H480.869V53.8H479.429V65ZM491.031 65.224C492.423 65.224 493.191 64.456 493.575 63.784V65H494.903V57.08H493.543V58.312C493.159 57.64 492.423 56.856 491.031 56.856C489.207 56.856 487.815 58.44 487.815 61.048C487.815 63.656 489.207 65.224 491.031 65.224ZM491.383 64.024C490.119 64.024 489.207 63.272 489.207 61.064C489.207 58.856 490.119 58.056 491.383 58.056C492.679 58.056 493.623 59.064 493.623 61.064C493.623 63.064 492.679 64.024 491.383 64.024ZM501.466 65.224C503.29 65.224 504.682 63.64 504.682 61.032C504.682 58.424 503.29 56.856 501.466 56.856C500.074 56.856 499.338 57.624 498.954 58.296V56.76V53.8H497.594V65H498.922V63.768C499.306 64.44 500.074 65.224 501.466 65.224ZM501.114 64.024C499.818 64.024 498.874 63.016 498.874 61.016C498.874 59.016 499.818 58.056 501.114 58.056C502.378 58.056 503.29 58.808 503.29 61.016C503.29 63.224 502.378 64.024 501.114 64.024ZM509.774 65.224C511.262 65.224 512.59 64.552 513.182 62.936L511.934 62.504C511.726 63.016 511.166 64.04 509.822 64.04C508.718 64.04 507.614 63.4 507.534 61.4H513.118C513.422 58.808 511.998 56.856 509.694 56.856C507.678 56.856 506.19 58.472 506.19 61.08C506.19 63.768 507.614 65.224 509.774 65.224ZM507.566 60.264C507.678 58.824 508.654 57.976 509.694 57.976C510.782 57.976 511.726 58.76 511.726 60.264H507.566ZM515.297 65H516.657V53.8H515.297V65Z" fill="#6E6E78"/>
<path d="M409 295C409 295.552 409.448 296 410 296C410.552 296 411 295.552 411 295L409 295ZM410.707 208.293C410.317 207.902 409.683 207.902 409.293 208.293L402.929 214.657C402.538 215.047 402.538 215.681 402.929 216.071C403.319 216.462 403.953 216.462 404.343 216.071L410 210.414L415.657 216.071C416.047 216.462 416.681 216.462 417.071 216.071C417.462 215.681 417.462 215.047 417.071 214.657L410.707 208.293ZM411 295L411 209L409 209L409 295L411 295Z" fill="#DA372C"/>
<path d="M320.975 296.68H322.175V295.208C324.447 295.032 325.695 293.72 325.695 291.896C325.695 290.2 324.431 289.24 322.655 288.792L322.175 288.664V284.952C323.471 285.208 323.983 286.2 324.191 286.792L325.519 286.136C325.231 285.192 324.191 283.832 322.175 283.608V282.12H320.975V283.608C319.071 283.832 317.807 285.064 317.807 286.712C317.807 288.568 318.959 289.384 320.607 289.736L320.975 289.816V293.848C319.727 293.576 318.975 292.664 318.607 291.544L317.247 292.2C317.743 293.768 319.007 294.952 320.975 295.192V296.68ZM320.975 288.392C319.727 288.072 319.183 287.592 319.183 286.632C319.183 285.72 319.855 285.032 320.975 284.904V286.968V288.392ZM322.175 293.912V291.848V290.088C323.567 290.408 324.239 291.032 324.239 292.024C324.239 293.064 323.487 293.784 322.175 293.912ZM330.391 295.224C332.391 295.224 333.543 294.28 333.543 292.792C333.543 290.984 331.671 290.504 330.871 290.344L329.959 290.168C328.823 289.944 328.567 289.624 328.567 289.096C328.567 288.52 329.079 287.976 330.183 287.976C331.527 287.976 331.975 288.824 332.167 289.352L333.399 288.904C333.079 287.864 332.151 286.856 330.183 286.856C328.631 286.856 327.287 287.816 327.287 289.24C327.287 290.744 328.439 291.24 329.751 291.496L330.663 291.672C331.815 291.896 332.183 292.312 332.183 292.904C332.183 293.656 331.543 294.056 330.391 294.056C329.143 294.056 328.503 293.464 328.263 292.52L326.951 292.952C327.303 294.472 328.775 295.224 330.391 295.224ZM335.578 298.12H336.938V295.32V293.768C337.322 294.44 338.058 295.224 339.45 295.224C341.274 295.224 342.666 293.64 342.666 291.032C342.666 288.424 341.274 286.856 339.45 286.856C338.058 286.856 337.29 287.624 336.906 288.296V287.08H335.578V298.12ZM339.098 294.024C337.802 294.024 336.858 293.016 336.858 291.016C336.858 289.016 337.802 288.056 339.098 288.056C340.362 288.056 341.274 288.808 341.274 291.016C341.274 293.224 340.362 294.024 339.098 294.024ZM347.39 295.224C348.782 295.224 349.55 294.456 349.934 293.784V295H351.262V287.08H349.902V288.312C349.518 287.64 348.782 286.856 347.39 286.856C345.566 286.856 344.174 288.44 344.174 291.048C344.174 293.656 345.566 295.224 347.39 295.224ZM347.742 294.024C346.478 294.024 345.566 293.272 345.566 291.064C345.566 288.856 346.478 288.056 347.742 288.056C349.038 288.056 349.982 289.064 349.982 291.064C349.982 293.064 349.038 294.024 347.742 294.024ZM357.105 295.224C358.881 295.224 360.033 294.184 360.545 292.712L359.265 292.264C359.009 293.128 358.417 294.024 357.105 294.024C355.793 294.024 354.769 293.064 354.769 291.032C354.769 289.048 355.825 288.056 357.089 288.056C358.241 288.056 358.817 288.808 359.073 289.56L360.337 289.144C359.969 287.912 358.881 286.856 357.089 286.856C354.897 286.856 353.345 288.584 353.345 291.032C353.345 293.592 354.817 295.224 357.105 295.224ZM362.312 285.528H363.752V283.8H362.312V285.528ZM362.36 295H363.72V287.08H362.36V295ZM366.407 295H367.767V291.64C367.767 290.472 367.815 288.056 369.991 288.056C371.047 288.056 371.735 288.664 371.735 290.152V295H373.095V289.832C373.095 288.072 372.295 286.856 370.327 286.856C368.615 286.856 367.847 288.072 367.735 288.424V287.08H366.407V295ZM376.952 298.12H380.648C381.992 298.12 383.128 297.416 383.128 295.944C383.128 294.616 382.136 293.752 380.616 293.752H377.16C376.6 293.752 376.488 293.464 376.488 293.208C376.488 292.92 376.776 292.616 377.208 292.424C377.64 292.68 378.136 292.728 378.68 292.728C380.44 292.728 381.64 291.56 381.768 289.768L381.8 289.336C381.864 288.408 382.136 288.232 382.856 288.232H383.464V287.08H382.616C381.848 287.08 381.48 287.608 381.32 288.216C380.984 287.656 380.152 286.856 378.68 286.856C376.856 286.856 375.528 288.152 375.528 289.8C375.528 290.792 375.96 291.512 376.408 291.912C375.896 292.28 375.24 292.808 375.24 293.592C375.24 294.216 375.496 294.584 375.944 294.856C375.464 295.128 374.888 295.72 374.888 296.52C374.888 297.448 375.432 298.12 376.952 298.12ZM378.68 291.608C377.608 291.608 376.904 290.888 376.904 289.8C376.904 288.712 377.608 287.976 378.68 287.976C379.752 287.976 380.456 288.712 380.456 289.8C380.456 290.888 379.752 291.608 378.68 291.608ZM377.416 296.904C376.584 296.904 376.136 296.728 376.136 296.072C376.136 295.528 376.488 295.176 376.76 295H380.504C381.128 295 381.752 295.128 381.752 295.944C381.752 296.76 381.128 296.904 380.504 296.904H377.416ZM384.62 290.776H389.036V289.336H384.62V290.776ZM394.157 295.224C396.157 295.224 397.309 294.28 397.309 292.792C397.309 290.984 395.437 290.504 394.637 290.344L393.725 290.168C392.589 289.944 392.333 289.624 392.333 289.096C392.333 288.52 392.845 287.976 393.949 287.976C395.293 287.976 395.741 288.824 395.933 289.352L397.165 288.904C396.845 287.864 395.917 286.856 393.949 286.856C392.397 286.856 391.053 287.816 391.053 289.24C391.053 290.744 392.205 291.24 393.517 291.496L394.429 291.672C395.581 291.896 395.949 292.312 395.949 292.904C395.949 293.656 395.309 294.056 394.157 294.056C392.909 294.056 392.269 293.464 392.029 292.52L390.717 292.952C391.069 294.472 392.541 295.224 394.157 295.224Z" fill="#6E6E78"/>
<rect opacity="0.2" x="398" y="149" width="24" height="48" fill="#DA372C"/>
</svg>
