<svg viewBox="0 0 958 346" fill="none" xmlns="http://www.w3.org/2000/svg"><rect x="361" y="157" width="32" height="32" rx="8" fill="#1662DD"/><path d="M364.911 173.677L364.824 173.766L364.912 173.854L373.13 182.088L373.219 182.177L373.307 182.088L389.088 166.323L389.177 166.234L389.088 166.145L386.822 163.911L386.734 163.824L386.646 163.911L373.219 177.323L367.323 171.427L367.234 171.338L367.146 171.427L364.911 173.677Z" fill="#fff" stroke="#fff" stroke-width="0.25"/><path d="M419.884 182H426.464C432.372 182 435.928 178.304 435.928 172.144C435.928 166.32 432.26 162.4 426.66 162.4H419.884V182ZM422.404 179.62V164.78H426.212C430.972 164.78 433.268 167.72 433.268 172.144C433.268 177.044 430.916 179.62 426.016 179.62H422.404ZM439.805 182H442.185V175.644C442.185 172.396 443.473 170.408 446.609 170.408C447.169 170.408 447.645 170.464 448.093 170.548V168.112C447.757 168.028 447.337 167.944 446.665 167.944C444.033 167.944 442.605 169.988 442.157 171.024V168.14H439.805V182ZM456.036 182.392C459.676 182.392 462.476 179.256 462.476 175.084C462.476 170.912 459.788 167.748 456.036 167.748C452.284 167.748 449.596 170.912 449.596 175.084C449.596 179.256 452.396 182.392 456.036 182.392ZM456.036 180.292C453.684 180.292 452.06 178.612 452.06 175.112C452.06 171.612 453.684 169.848 456.036 169.848C458.388 169.848 460.012 171.612 460.012 175.112C460.012 178.612 458.388 180.292 456.036 180.292ZM466.082 182H468.462V176.12C468.462 174.076 468.546 169.848 472.354 169.848C474.202 169.848 475.406 170.912 475.406 173.516V182H477.786V172.956C477.786 169.876 476.386 167.748 472.942 167.748C469.946 167.748 468.602 169.876 468.406 170.492V168.14H466.082V182ZM487.533 182.392C490.137 182.392 492.461 181.216 493.497 178.388L491.313 177.632C490.949 178.528 489.969 180.32 487.617 180.32C485.685 180.32 483.753 179.2 483.613 175.7H493.385C493.917 171.164 491.425 167.748 487.393 167.748C483.865 167.748 481.261 170.576 481.261 175.14C481.261 179.844 483.753 182.392 487.533 182.392ZM483.669 173.712C483.865 171.192 485.573 169.708 487.393 169.708C489.297 169.708 490.949 171.08 490.949 173.712H483.669ZM504.446 182H506.826V162.4H504.446V182ZM515.112 182.392C517.268 182.392 518.584 181.468 519.62 179.9C519.788 181.048 520.096 182 522.196 182H524.016V179.9H522.56C521.916 179.9 521.748 179.732 521.748 179.088V172.508C521.748 169.652 520.04 167.748 516.344 167.748C512.732 167.748 510.828 169.708 510.324 171.556L512.648 172.396C513.012 171.36 513.768 169.848 516.316 169.848C518.444 169.848 519.368 170.856 519.368 172.536V172.928C514.86 173.292 510.632 174.608 510.632 178.416C510.632 180.88 512.368 182.392 515.112 182.392ZM515.672 180.376C513.936 180.376 513.096 179.536 513.096 178.22C513.096 175.952 515.98 175.084 519.368 174.72V176.26C519.368 179.144 517.492 180.376 515.672 180.376ZM526.567 182H528.947V176.12C528.947 174.076 529.031 169.848 532.839 169.848C534.687 169.848 535.891 170.912 535.891 173.516V182H538.271V172.956C538.271 169.876 536.871 167.748 533.427 167.748C530.431 167.748 529.087 169.876 528.891 170.492V168.14H526.567V182ZM547.374 182.392C549.81 182.392 551.154 181.048 551.826 179.872V182H554.15V162.4H551.77V167.58V170.296C551.098 169.12 549.81 167.748 547.374 167.748C544.182 167.748 541.746 170.52 541.746 175.084C541.746 179.648 544.182 182.392 547.374 182.392ZM547.99 180.292C545.778 180.292 544.182 178.976 544.182 175.112C544.182 171.248 545.778 169.848 547.99 169.848C550.258 169.848 551.91 171.612 551.91 175.112C551.91 178.612 550.258 180.292 547.99 180.292ZM558.776 165.424H561.296V162.4H558.776V165.424ZM558.86 182H561.24V168.14H558.86V182ZM565.942 182H568.322V176.12C568.322 174.076 568.406 169.848 572.214 169.848C574.062 169.848 575.266 170.912 575.266 173.516V182H577.646V172.956C577.646 169.876 576.246 167.748 572.802 167.748C569.806 167.748 568.462 169.876 568.266 170.492V168.14H565.942V182ZM584.397 187.46H590.865C593.217 187.46 595.205 186.228 595.205 183.652C595.205 181.328 593.469 179.816 590.809 179.816H584.761C583.781 179.816 583.585 179.312 583.585 178.864C583.585 178.36 584.089 177.828 584.845 177.492C585.601 177.94 586.469 178.024 587.421 178.024C590.501 178.024 592.601 175.98 592.825 172.844L592.881 172.088C592.993 170.464 593.469 170.156 594.729 170.156H595.793V168.14H594.309C592.965 168.14 592.321 169.064 592.041 170.128C591.453 169.148 589.997 167.748 587.421 167.748C584.229 167.748 581.905 170.016 581.905 172.9C581.905 174.636 582.661 175.896 583.445 176.596C582.549 177.24 581.401 178.164 581.401 179.536C581.401 180.628 581.849 181.272 582.633 181.748C581.793 182.224 580.785 183.26 580.785 184.66C580.785 186.284 581.737 187.46 584.397 187.46ZM587.421 176.064C585.545 176.064 584.313 174.804 584.313 172.9C584.313 170.996 585.545 169.708 587.421 169.708C589.297 169.708 590.529 170.996 590.529 172.9C590.529 174.804 589.297 176.064 587.421 176.064ZM585.209 185.332C583.753 185.332 582.969 185.024 582.969 183.876C582.969 182.924 583.585 182.308 584.061 182H590.613C591.705 182 592.797 182.224 592.797 183.652C592.797 185.08 591.705 185.332 590.613 185.332H585.209Z" fill="#1D1D21"/><path d="M183 172C182.448 172 182 172.448 182 173C182 173.552 182.448 174 183 174L183 172ZM354.707 173.707C355.098 173.317 355.098 172.683 354.707 172.293L348.343 165.929C347.953 165.538 347.319 165.538 346.929 165.929C346.538 166.319 346.538 166.953 346.929 167.343L352.586 173L346.929 178.657C346.538 179.047 346.538 179.681 346.929 180.071C347.319 180.462 347.953 180.462 348.343 180.071L354.707 173.707ZM183 174L354 174L354 172L183 172L183 174Z" fill="#DA372C"/><path d="M188.728 156.224C191.544 156.224 192.968 154.576 192.968 151.68V144.8H191.528V151.472C191.528 153.52 190.664 154.848 188.728 154.848C186.792 154.848 185.928 153.536 185.928 151.472V144.8H184.488V151.68C184.488 154.816 186.136 156.224 188.728 156.224ZM196.101 156H197.541V144.8H196.101V156ZM204.624 146.528H206.064V144.8H204.624V146.528ZM204.672 156H206.032V148.08H204.672V156ZM208.719 156H210.079V152.64C210.079 151.472 210.127 149.056 212.303 149.056C213.359 149.056 214.047 149.664 214.047 151.152V156H215.407V150.832C215.407 149.072 214.607 147.856 212.639 147.856C210.927 147.856 210.159 149.072 210.047 149.424V148.08H208.719V156ZM220.609 156.224C222.001 156.224 222.769 155.456 223.153 154.784V156H224.481V144.8H223.121V147.76V149.312C222.737 148.64 222.001 147.856 220.609 147.856C218.785 147.856 217.393 149.44 217.393 152.048C217.393 154.656 218.785 156.224 220.609 156.224ZM220.961 155.024C219.697 155.024 218.785 154.272 218.785 152.064C218.785 149.856 219.697 149.056 220.961 149.056C222.257 149.056 223.201 150.064 223.201 152.064C223.201 154.064 222.257 155.024 220.961 155.024ZM227.124 146.528H228.564V144.8H227.124V146.528ZM227.172 156H228.532V148.08H227.172V156ZM234.371 156.224C236.147 156.224 237.299 155.184 237.811 153.712L236.531 153.264C236.275 154.128 235.683 155.024 234.371 155.024C233.059 155.024 232.035 154.064 232.035 152.032C232.035 150.048 233.091 149.056 234.355 149.056C235.507 149.056 236.083 149.808 236.339 150.56L237.603 150.144C237.235 148.912 236.147 147.856 234.355 147.856C232.163 147.856 230.611 149.584 230.611 152.032C230.611 154.592 232.083 156.224 234.371 156.224ZM242.249 156.224C243.641 156.224 244.409 155.456 244.793 154.784V156H246.121V148.08H244.761V149.312C244.377 148.64 243.641 147.856 242.249 147.856C240.425 147.856 239.033 149.44 239.033 152.048C239.033 154.656 240.425 156.224 242.249 156.224ZM242.601 155.024C241.337 155.024 240.425 154.272 240.425 152.064C240.425 149.856 241.337 149.056 242.601 149.056C243.897 149.056 244.841 150.064 244.841 152.064C244.841 154.064 243.897 155.024 242.601 155.024ZM251.565 156H253.389V154.8H251.741C251.181 154.8 250.941 154.56 250.941 154V149.232H253.101V148.08H250.941V145.6H249.581V148.08H247.741V149.232H249.581V154.08C249.581 155.392 250.253 156 251.565 156ZM258.088 156.224C260.168 156.224 261.767 154.432 261.767 152.048C261.767 149.664 260.232 147.856 258.088 147.856C255.944 147.856 254.408 149.664 254.408 152.048C254.408 154.432 256.008 156.224 258.088 156.224ZM258.088 155.024C256.744 155.024 255.816 154.064 255.816 152.064C255.816 150.064 256.744 149.056 258.088 149.056C259.432 149.056 260.36 150.064 260.36 152.064C260.36 154.064 259.432 155.024 258.088 155.024ZM263.828 156H265.188V152.368C265.188 150.512 265.924 149.376 267.716 149.376C268.036 149.376 268.308 149.408 268.564 149.456V148.064C268.372 148.016 268.132 147.968 267.748 147.968C266.244 147.968 265.428 149.136 265.172 149.728V148.08H263.828V156Z" fill="#6E6E78"/><path d="M519 54C519 53.4477 518.552 53 518 53C517.448 53 517 53.4477 517 54L519 54ZM517.293 149.707C517.683 150.098 518.317 150.098 518.707 149.707L525.071 143.343C525.462 142.953 525.462 142.319 525.071 141.929C524.681 141.538 524.047 141.538 523.657 141.929L518 147.586L512.343 141.929C511.953 141.538 511.319 141.538 510.929 141.929C510.538 142.319 510.538 142.953 510.929 143.343L517.293 149.707ZM517 54L517 149L519 149L519 54L517 54Z" fill="#DA372C"/><path d="M467.429 65H474.901V63.608H468.869V53.8H467.429V65ZM479.031 65.224C480.423 65.224 481.191 64.456 481.575 63.784V65H482.903V57.08H481.543V58.312C481.159 57.64 480.423 56.856 479.031 56.856C477.207 56.856 475.815 58.44 475.815 61.048C475.815 63.656 477.207 65.224 479.031 65.224ZM479.383 64.024C478.119 64.024 477.207 63.272 477.207 61.064C477.207 58.856 478.119 58.056 479.383 58.056C480.679 58.056 481.623 59.064 481.623 61.064C481.623 63.064 480.679 64.024 479.383 64.024ZM489.466 65.224C491.29 65.224 492.682 63.64 492.682 61.032C492.682 58.424 491.29 56.856 489.466 56.856C488.074 56.856 487.338 57.624 486.954 58.296V56.76V53.8H485.594V65H486.922V63.768C487.306 64.44 488.074 65.224 489.466 65.224ZM489.114 64.024C487.818 64.024 486.874 63.016 486.874 61.016C486.874 59.016 487.818 58.056 489.114 58.056C490.378 58.056 491.29 58.808 491.29 61.016C491.29 63.224 490.378 64.024 489.114 64.024ZM497.774 65.224C499.262 65.224 500.59 64.552 501.182 62.936L499.934 62.504C499.726 63.016 499.166 64.04 497.822 64.04C496.718 64.04 495.614 63.4 495.534 61.4H501.118C501.422 58.808 499.998 56.856 497.694 56.856C495.678 56.856 494.19 58.472 494.19 61.08C494.19 63.768 495.614 65.224 497.774 65.224ZM495.566 60.264C495.678 58.824 496.654 57.976 497.694 57.976C498.782 57.976 499.726 58.76 499.726 60.264H495.566ZM503.297 65H504.657V53.8H503.297V65Z" fill="#6E6E78"/><path d="M406 295C406 295.552 406.448 296 407 296C407.552 296 408 295.552 408 295L406 295ZM407.707 208.293C407.317 207.902 406.683 207.902 406.293 208.293L399.929 214.657C399.538 215.047 399.538 215.681 399.929 216.071C400.319 216.462 400.953 216.462 401.343 216.071L407 210.414L412.657 216.071C413.047 216.462 413.681 216.462 414.071 216.071C414.462 215.681 414.462 215.047 414.071 214.657L407.707 208.293ZM408 295L408 209L406 209L406 295L408 295Z" fill="#DA372C"/><path d="M316.975 296.68H318.175V295.208C320.447 295.032 321.695 293.72 321.695 291.896C321.695 290.2 320.431 289.24 318.655 288.792L318.175 288.664V284.952C319.471 285.208 319.983 286.2 320.191 286.792L321.519 286.136C321.231 285.192 320.191 283.832 318.175 283.608V282.12H316.975V283.608C315.071 283.832 313.807 285.064 313.807 286.712C313.807 288.568 314.959 289.384 316.607 289.736L316.975 289.816V293.848C315.727 293.576 314.975 292.664 314.607 291.544L313.247 292.2C313.743 293.768 315.007 294.952 316.975 295.192V296.68ZM316.975 288.392C315.727 288.072 315.183 287.592 315.183 286.632C315.183 285.72 315.855 285.032 316.975 284.904V286.968V288.392ZM318.175 293.912V291.848V290.088C319.567 290.408 320.239 291.032 320.239 292.024C320.239 293.064 319.487 293.784 318.175 293.912ZM326.391 295.224C328.391 295.224 329.543 294.28 329.543 292.792C329.543 290.984 327.671 290.504 326.871 290.344L325.959 290.168C324.823 289.944 324.567 289.624 324.567 289.096C324.567 288.52 325.079 287.976 326.183 287.976C327.527 287.976 327.975 288.824 328.167 289.352L329.399 288.904C329.079 287.864 328.151 286.856 326.183 286.856C324.631 286.856 323.287 287.816 323.287 289.24C323.287 290.744 324.439 291.24 325.751 291.496L326.663 291.672C327.815 291.896 328.183 292.312 328.183 292.904C328.183 293.656 327.543 294.056 326.391 294.056C325.143 294.056 324.503 293.464 324.263 292.52L322.951 292.952C323.303 294.472 324.775 295.224 326.391 295.224ZM331.578 298.12H332.938V295.32V293.768C333.322 294.44 334.058 295.224 335.45 295.224C337.274 295.224 338.666 293.64 338.666 291.032C338.666 288.424 337.274 286.856 335.45 286.856C334.058 286.856 333.29 287.624 332.906 288.296V287.08H331.578V298.12ZM335.098 294.024C333.802 294.024 332.858 293.016 332.858 291.016C332.858 289.016 333.802 288.056 335.098 288.056C336.362 288.056 337.274 288.808 337.274 291.016C337.274 293.224 336.362 294.024 335.098 294.024ZM343.39 295.224C344.782 295.224 345.55 294.456 345.934 293.784V295H347.262V287.08H345.902V288.312C345.518 287.64 344.782 286.856 343.39 286.856C341.566 286.856 340.174 288.44 340.174 291.048C340.174 293.656 341.566 295.224 343.39 295.224ZM343.742 294.024C342.478 294.024 341.566 293.272 341.566 291.064C341.566 288.856 342.478 288.056 343.742 288.056C345.038 288.056 345.982 289.064 345.982 291.064C345.982 293.064 345.038 294.024 343.742 294.024ZM353.105 295.224C354.881 295.224 356.033 294.184 356.545 292.712L355.265 292.264C355.009 293.128 354.417 294.024 353.105 294.024C351.793 294.024 350.769 293.064 350.769 291.032C350.769 289.048 351.825 288.056 353.089 288.056C354.241 288.056 354.817 288.808 355.073 289.56L356.337 289.144C355.969 287.912 354.881 286.856 353.089 286.856C350.897 286.856 349.345 288.584 349.345 291.032C349.345 293.592 350.817 295.224 353.105 295.224ZM358.312 285.528H359.752V283.8H358.312V285.528ZM358.36 295H359.72V287.08H358.36V295ZM362.407 295H363.767V291.64C363.767 290.472 363.815 288.056 365.991 288.056C367.047 288.056 367.735 288.664 367.735 290.152V295H369.095V289.832C369.095 288.072 368.295 286.856 366.327 286.856C364.615 286.856 363.847 288.072 363.735 288.424V287.08H362.407V295ZM372.952 298.12H376.648C377.992 298.12 379.128 297.416 379.128 295.944C379.128 294.616 378.136 293.752 376.616 293.752H373.16C372.6 293.752 372.488 293.464 372.488 293.208C372.488 292.92 372.776 292.616 373.208 292.424C373.64 292.68 374.136 292.728 374.68 292.728C376.44 292.728 377.64 291.56 377.768 289.768L377.8 289.336C377.864 288.408 378.136 288.232 378.856 288.232H379.464V287.08H378.616C377.848 287.08 377.48 287.608 377.32 288.216C376.984 287.656 376.152 286.856 374.68 286.856C372.856 286.856 371.528 288.152 371.528 289.8C371.528 290.792 371.96 291.512 372.408 291.912C371.896 292.28 371.24 292.808 371.24 293.592C371.24 294.216 371.496 294.584 371.944 294.856C371.464 295.128 370.888 295.72 370.888 296.52C370.888 297.448 371.432 298.12 372.952 298.12ZM374.68 291.608C373.608 291.608 372.904 290.888 372.904 289.8C372.904 288.712 373.608 287.976 374.68 287.976C375.752 287.976 376.456 288.712 376.456 289.8C376.456 290.888 375.752 291.608 374.68 291.608ZM373.416 296.904C372.584 296.904 372.136 296.728 372.136 296.072C372.136 295.528 372.488 295.176 372.76 295H376.504C377.128 295 377.752 295.128 377.752 295.944C377.752 296.76 377.128 296.904 376.504 296.904H373.416ZM380.62 290.776H385.036V289.336H380.62V290.776ZM390.157 295.224C392.157 295.224 393.309 294.28 393.309 292.792C393.309 290.984 391.437 290.504 390.637 290.344L389.725 290.168C388.589 289.944 388.333 289.624 388.333 289.096C388.333 288.52 388.845 287.976 389.949 287.976C391.293 287.976 391.741 288.824 391.933 289.352L393.165 288.904C392.845 287.864 391.917 286.856 389.949 286.856C388.397 286.856 387.053 287.816 387.053 289.24C387.053 290.744 388.205 291.24 389.517 291.496L390.429 291.672C391.581 291.896 391.949 292.312 391.949 292.904C391.949 293.656 391.309 294.056 390.157 294.056C388.909 294.056 388.269 293.464 388.029 292.52L386.717 292.952C387.069 294.472 388.541 295.224 390.157 295.224Z" fill="#6E6E78"/><path opacity="0.2" fill="#DA372C" d="M393 149H417V197H393z"/></svg>