<svg width="726" height="190" viewBox="0 0 726 190" fill="none" xmlns="http://www.w3.org/2000/svg">
<rect x="136" y="60" width="422" height="120" rx="12" fill="#1D1D21"/>
<path d="M198.637 139H205.917V106.016H219.749V99.8H185.029V106.016H198.637V139ZM230.459 139.84C238.579 139.84 244.515 133.904 244.515 125.056C244.515 116.32 238.635 110.272 230.459 110.272C222.283 110.272 216.403 116.32 216.403 125.056C216.403 133.568 222.339 139.84 230.459 139.84ZM230.459 134.296C226.315 134.296 223.459 131.384 223.459 125.168C223.459 118.952 226.315 115.816 230.459 115.816C234.603 115.816 237.403 118.952 237.403 125.168C237.403 131.384 234.603 134.296 230.459 134.296ZM262.943 139.84C271.063 139.84 276.999 133.904 276.999 125.056C276.999 116.32 271.119 110.272 262.943 110.272C254.767 110.272 248.887 116.32 248.887 125.056C248.887 133.568 254.823 139.84 262.943 139.84ZM262.943 134.296C258.799 134.296 255.943 131.384 255.943 125.168C255.943 118.952 258.799 115.816 262.943 115.816C267.087 115.816 269.887 118.952 269.887 125.168C269.887 131.384 267.087 134.296 262.943 134.296ZM283.332 139H290.164V99.8H283.332V139ZM308.281 139H316.569V133.4H310.633C308.841 133.4 308.057 132.616 308.057 130.824V116.432H315.449V111.112H308.057V102.32H301.225V111.112H295.177V116.432H301.225V131.888C301.225 136.312 303.745 139 308.281 139ZM321.716 106.688H328.996V99.744H321.716V106.688ZM321.996 139H328.772V111.112H321.996V139ZM336.98 149.92H343.812V140.12V135.024C345.1 137.208 348.012 139.84 352.772 139.84C359.884 139.84 364.644 133.96 364.644 125.056C364.644 116.096 359.884 110.216 352.772 110.216C347.956 110.216 344.932 113.016 343.644 115.032V111.112H336.98V149.92ZM350.532 134.464C346.388 134.464 343.476 131.328 343.476 125C343.476 118.728 346.388 115.592 350.532 115.592C354.508 115.592 357.532 118.056 357.532 125C357.532 132 354.508 134.464 350.532 134.464ZM384.722 139H391.554V127.24C391.554 120.408 394.074 117.552 400.01 117.552C401.018 117.552 402.026 117.608 403.034 117.776V110.776C402.53 110.664 401.97 110.608 401.186 110.608C394.97 110.608 392.338 115.032 391.442 117.272V111.112H384.722V139ZM407.848 106.688H415.128V99.744H407.848V106.688ZM408.128 139H414.904V111.112H408.128V139ZM428.601 149.92H441.537C446.745 149.92 450.945 147.12 450.945 141.632C450.945 137.04 447.249 133.456 441.537 133.456H429.441C427.705 133.456 426.809 133.064 426.809 131.944C426.809 131.048 427.537 130.264 429.105 129.704C430.729 130.544 432.633 130.712 434.649 130.712C441.089 130.712 445.737 126.904 446.297 120.744L446.409 119.904C446.689 116.88 447.305 116.432 449.321 116.432H452.065V111.112H449.657C446.241 111.112 445.121 112.456 444.841 115.592C443.217 112.736 439.577 110.272 434.481 110.272C427.649 110.272 422.721 114.584 422.721 120.688C422.721 123.656 424.009 126.176 425.801 127.632C423.673 128.92 421.489 130.88 421.489 133.68C421.489 136.088 422.441 137.488 424.065 138.552C422.385 139.616 420.593 141.632 420.593 144.208C420.593 147.68 422.889 149.92 428.601 149.92ZM434.649 125.952C431.401 125.952 429.273 123.824 429.273 120.632C429.273 117.44 431.401 115.144 434.649 115.144C437.897 115.144 440.025 117.44 440.025 120.632C440.025 123.824 437.897 125.952 434.649 125.952ZM429.497 144.712C427.481 144.712 426.081 143.928 426.081 141.968C426.081 140.568 427.033 139.448 427.817 139H440.361C442.825 139 444.169 139.952 444.169 141.8C444.169 143.816 442.825 144.712 440.361 144.712H429.497ZM457.019 139H463.851V126.288C463.851 122.872 463.963 115.984 470.235 115.984C473.315 115.984 475.275 117.776 475.275 121.976V139H482.107V120.464C482.107 114.36 479.251 110.272 473.035 110.272C467.267 110.272 464.747 113.912 463.851 115.536V109.992V99.8H457.019V139ZM499.961 139H508.249V133.4H502.313C500.521 133.4 499.737 132.616 499.737 130.824V116.432H507.129V111.112H499.737V102.32H492.905V111.112H486.857V116.432H492.905V131.888C492.905 136.312 495.425 139 499.961 139Z" fill="white"/>
<path d="M577.733 122.8C579.867 124.4 579.867 127.6 577.733 129.2L558 144L558 108L577.733 122.8Z" fill="#1D1D21"/>
<path d="M433.87 16H434.95V8.62H438.058V7.6H430.882V8.62H433.87V16ZM440.167 16.168C441.727 16.168 442.927 14.824 442.927 13.036C442.927 11.248 441.775 9.892 440.167 9.892C438.559 9.892 437.407 11.248 437.407 13.036C437.407 14.824 438.607 16.168 440.167 16.168ZM440.167 15.268C439.159 15.268 438.463 14.548 438.463 13.048C438.463 11.548 439.159 10.792 440.167 10.792C441.175 10.792 441.871 11.548 441.871 13.048C441.871 14.548 441.175 15.268 440.167 15.268ZM446.765 16.168C448.325 16.168 449.525 14.824 449.525 13.036C449.525 11.248 448.373 9.892 446.765 9.892C445.157 9.892 444.005 11.248 444.005 13.036C444.005 14.824 445.205 16.168 446.765 16.168ZM446.765 15.268C445.757 15.268 445.061 14.548 445.061 13.048C445.061 11.548 445.757 10.792 446.765 10.792C447.773 10.792 448.469 11.548 448.469 13.048C448.469 14.548 447.773 15.268 446.765 15.268ZM451.071 16H452.091V7.6H451.071V16ZM456.17 16H457.538V15.1H456.302C455.882 15.1 455.702 14.92 455.702 14.5V10.924H457.322V10.06H455.702V8.2H454.682V10.06H453.302V10.924H454.682V14.56C454.682 15.544 455.186 16 456.17 16ZM458.792 8.896H459.872V7.6H458.792V8.896ZM458.828 16H459.848V10.06H458.828V16ZM461.863 18.34H462.883V16.24V15.076C463.171 15.58 463.723 16.168 464.767 16.168C466.135 16.168 467.179 14.98 467.179 13.024C467.179 11.068 466.135 9.892 464.767 9.892C463.723 9.892 463.147 10.468 462.859 10.972V10.06H461.863V18.34ZM464.503 15.268C463.531 15.268 462.823 14.512 462.823 13.012C462.823 11.512 463.531 10.792 464.503 10.792C465.451 10.792 466.135 11.356 466.135 13.012C466.135 14.668 465.451 15.268 464.503 15.268ZM474.224 16.168C475.556 16.168 476.42 15.388 476.804 14.284L475.844 13.948C475.652 14.596 475.208 15.268 474.224 15.268C473.24 15.268 472.472 14.548 472.472 13.024C472.472 11.536 473.264 10.792 474.212 10.792C475.076 10.792 475.508 11.356 475.7 11.92L476.648 11.608C476.372 10.684 475.556 9.892 474.212 9.892C472.568 9.892 471.404 11.188 471.404 13.024C471.404 14.944 472.508 16.168 474.224 16.168ZM480.456 16.168C482.016 16.168 483.216 14.824 483.216 13.036C483.216 11.248 482.064 9.892 480.456 9.892C478.848 9.892 477.696 11.248 477.696 13.036C477.696 14.824 478.896 16.168 480.456 16.168ZM480.456 15.268C479.448 15.268 478.752 14.548 478.752 13.048C478.752 11.548 479.448 10.792 480.456 10.792C481.464 10.792 482.16 11.548 482.16 13.048C482.16 14.548 481.464 15.268 480.456 15.268ZM484.762 16H485.782V13.48C485.782 12.604 485.818 10.792 487.45 10.792C488.242 10.792 488.758 11.248 488.758 12.364V16H489.778V12.124C489.778 10.804 489.178 9.892 487.702 9.892C486.418 9.892 485.842 10.804 485.758 11.068V10.06H484.762V16ZM493.775 16H495.143V15.1H493.907C493.487 15.1 493.307 14.92 493.307 14.5V10.924H494.927V10.06H493.307V8.2H492.287V10.06H490.907V10.924H492.287V14.56C492.287 15.544 492.791 16 493.775 16ZM497.97 16.168C498.894 16.168 499.458 15.772 499.902 15.1C499.974 15.592 500.106 16 501.006 16H501.786V15.1H501.162C500.886 15.1 500.814 15.028 500.814 14.752V11.932C500.814 10.708 500.082 9.892 498.498 9.892C496.95 9.892 496.134 10.732 495.918 11.524L496.914 11.884C497.07 11.44 497.394 10.792 498.486 10.792C499.398 10.792 499.794 11.224 499.794 11.944V12.112C497.862 12.268 496.05 12.832 496.05 14.464C496.05 15.52 496.794 16.168 497.97 16.168ZM498.21 15.304C497.466 15.304 497.106 14.944 497.106 14.38C497.106 13.408 498.342 13.036 499.794 12.88V13.54C499.794 14.776 498.99 15.304 498.21 15.304ZM502.843 8.896H503.923V7.6H502.843V8.896ZM502.879 16H503.899V10.06H502.879V16ZM505.914 16H506.934V13.48C506.934 12.604 506.97 10.792 508.602 10.792C509.394 10.792 509.91 11.248 509.91 12.364V16H510.93V12.124C510.93 10.804 510.33 9.892 508.854 9.892C507.57 9.892 506.994 10.804 506.91 11.068V10.06H505.914V16ZM515.107 16.168C516.223 16.168 517.219 15.664 517.663 14.452L516.727 14.128C516.571 14.512 516.151 15.28 515.143 15.28C514.315 15.28 513.487 14.8 513.427 13.3H517.615C517.843 11.356 516.775 9.892 515.047 9.892C513.535 9.892 512.419 11.104 512.419 13.06C512.419 15.076 513.487 16.168 515.107 16.168ZM513.451 12.448C513.535 11.368 514.267 10.732 515.047 10.732C515.863 10.732 516.571 11.32 516.571 12.448H513.451ZM519.25 16H520.27V13.276C520.27 11.884 520.822 11.032 522.166 11.032C522.406 11.032 522.61 11.056 522.802 11.092V10.048C522.658 10.012 522.478 9.976 522.19 9.976C521.062 9.976 520.45 10.852 520.258 11.296V10.06H519.25V16Z" fill="#DA372C"/>
<path d="M535.5 1L535.5 0.5L534.5 0.5L534.5 1L535.5 1ZM534.646 77.3536C534.842 77.5488 535.158 77.5488 535.354 77.3536L538.536 74.1716C538.731 73.9763 538.731 73.6597 538.536 73.4645C538.34 73.2692 538.024 73.2692 537.828 73.4645L535 76.2929L532.172 73.4645C531.976 73.2692 531.66 73.2692 531.464 73.4645C531.269 73.6597 531.269 73.9763 531.464 74.1716L534.646 77.3536ZM534.5 1L534.5 77L535.5 77L535.5 1L534.5 1Z" fill="#DA372C"/>
<path d="M659.108 147H660.188V139.62H663.296V138.6H656.12V139.62H659.108V147ZM665.405 147.168C666.965 147.168 668.165 145.824 668.165 144.036C668.165 142.248 667.013 140.892 665.405 140.892C663.797 140.892 662.645 142.248 662.645 144.036C662.645 145.824 663.845 147.168 665.405 147.168ZM665.405 146.268C664.397 146.268 663.701 145.548 663.701 144.048C663.701 142.548 664.397 141.792 665.405 141.792C666.413 141.792 667.109 142.548 667.109 144.048C667.109 145.548 666.413 146.268 665.405 146.268ZM672.003 147.168C673.563 147.168 674.763 145.824 674.763 144.036C674.763 142.248 673.611 140.892 672.003 140.892C670.395 140.892 669.243 142.248 669.243 144.036C669.243 145.824 670.443 147.168 672.003 147.168ZM672.003 146.268C670.995 146.268 670.299 145.548 670.299 144.048C670.299 142.548 670.995 141.792 672.003 141.792C673.011 141.792 673.707 142.548 673.707 144.048C673.707 145.548 673.011 146.268 672.003 146.268ZM676.309 147H677.329V138.6H676.309V147ZM681.408 147H682.776V146.1H681.54C681.12 146.1 680.94 145.92 680.94 145.5V141.924H682.56V141.06H680.94V139.2H679.92V141.06H678.54V141.924H679.92V145.56C679.92 146.544 680.424 147 681.408 147ZM684.031 139.896H685.111V138.6H684.031V139.896ZM684.067 147H685.087V141.06H684.067V147ZM687.102 149.34H688.122V147.24V146.076C688.41 146.58 688.962 147.168 690.006 147.168C691.374 147.168 692.418 145.98 692.418 144.024C692.418 142.068 691.374 140.892 690.006 140.892C688.962 140.892 688.386 141.468 688.098 141.972V141.06H687.102V149.34ZM689.742 146.268C688.77 146.268 688.062 145.512 688.062 144.012C688.062 142.512 688.77 141.792 689.742 141.792C690.69 141.792 691.374 142.356 691.374 144.012C691.374 145.668 690.69 146.268 689.742 146.268ZM699.462 147.168C700.794 147.168 701.658 146.388 702.042 145.284L701.082 144.948C700.89 145.596 700.446 146.268 699.462 146.268C698.478 146.268 697.71 145.548 697.71 144.024C697.71 142.536 698.502 141.792 699.45 141.792C700.314 141.792 700.746 142.356 700.938 142.92L701.886 142.608C701.61 141.684 700.794 140.892 699.45 140.892C697.806 140.892 696.642 142.188 696.642 144.024C696.642 145.944 697.746 147.168 699.462 147.168ZM704.939 147.168C705.863 147.168 706.427 146.772 706.871 146.1C706.943 146.592 707.075 147 707.975 147H708.755V146.1H708.131C707.855 146.1 707.783 146.028 707.783 145.752V142.932C707.783 141.708 707.051 140.892 705.467 140.892C703.919 140.892 703.103 141.732 702.887 142.524L703.883 142.884C704.039 142.44 704.363 141.792 705.455 141.792C706.367 141.792 706.763 142.224 706.763 142.944V143.112C704.831 143.268 703.019 143.832 703.019 145.464C703.019 146.52 703.763 147.168 704.939 147.168ZM705.179 146.304C704.435 146.304 704.075 145.944 704.075 145.38C704.075 144.408 705.311 144.036 706.763 143.88V144.54C706.763 145.776 705.959 146.304 705.179 146.304ZM709.848 147H710.868V144.276C710.868 142.884 711.42 142.032 712.764 142.032C713.004 142.032 713.208 142.056 713.4 142.092V141.048C713.256 141.012 713.076 140.976 712.788 140.976C711.66 140.976 711.048 141.852 710.856 142.296V141.06H709.848V147ZM716.756 147.168C717.872 147.168 718.868 146.664 719.312 145.452L718.376 145.128C718.22 145.512 717.8 146.28 716.792 146.28C715.964 146.28 715.136 145.8 715.076 144.3H719.264C719.492 142.356 718.424 140.892 716.696 140.892C715.184 140.892 714.068 142.104 714.068 144.06C714.068 146.076 715.136 147.168 716.756 147.168ZM715.1 143.448C715.184 142.368 715.916 141.732 716.696 141.732C717.512 141.732 718.22 142.32 718.22 143.448H715.1ZM722.904 147H724.272V146.1H723.036C722.616 146.1 722.436 145.92 722.436 145.5V141.924H724.056V141.06H722.436V139.2H721.416V141.06H720.036V141.924H721.416V145.56C721.416 146.544 721.92 147 722.904 147Z" fill="#DA372C"/>
<path d="M725 126.5H725.5V125.5H725V126.5ZM588.646 125.646C588.451 125.842 588.451 126.158 588.646 126.354L591.828 129.536C592.024 129.731 592.34 129.731 592.536 129.536C592.731 129.34 592.731 129.024 592.536 128.828L589.707 126L592.536 123.172C592.731 122.976 592.731 122.66 592.536 122.464C592.34 122.269 592.024 122.269 591.828 122.464L588.646 125.646ZM725 125.5L589 125.5V126.5L725 126.5V125.5Z" fill="#DA372C"/>
<path d="M4.192 185.26H5.092V184.156C6.796 184.024 7.732 183.04 7.732 181.672C7.732 180.4 6.784 179.68 5.452 179.344L5.092 179.248V176.464C6.064 176.656 6.448 177.4 6.604 177.844L7.6 177.352C7.384 176.644 6.604 175.624 5.092 175.456V174.34H4.192V175.456C2.764 175.624 1.816 176.548 1.816 177.784C1.816 179.176 2.68 179.788 3.916 180.052L4.192 180.112V183.136C3.256 182.932 2.692 182.248 2.416 181.408L1.396 181.9C1.768 183.076 2.716 183.964 4.192 184.144V185.26ZM4.192 179.044C3.256 178.804 2.848 178.444 2.848 177.724C2.848 177.04 3.352 176.524 4.192 176.428V177.976V179.044ZM5.092 183.184V181.636V180.316C6.136 180.556 6.64 181.024 6.64 181.768C6.64 182.548 6.076 183.088 5.092 183.184ZM11.2542 184.168C12.7542 184.168 13.6182 183.46 13.6182 182.344C13.6182 180.988 12.2142 180.628 11.6142 180.508L10.9302 180.376C10.0782 180.208 9.88619 179.968 9.88619 179.572C9.88619 179.14 10.2702 178.732 11.0982 178.732C12.1062 178.732 12.4422 179.368 12.5862 179.764L13.5102 179.428C13.2702 178.648 12.5742 177.892 11.0982 177.892C9.93419 177.892 8.92619 178.612 8.92619 179.68C8.92619 180.808 9.79019 181.18 10.7742 181.372L11.4582 181.504C12.3222 181.672 12.5982 181.984 12.5982 182.428C12.5982 182.992 12.1182 183.292 11.2542 183.292C10.3182 183.292 9.83819 182.848 9.65819 182.14L8.67419 182.464C8.93819 183.604 10.0422 184.168 11.2542 184.168ZM15.1447 186.34H16.1647V184.24V183.076C16.4527 183.58 17.0047 184.168 18.0487 184.168C19.4167 184.168 20.4607 182.98 20.4607 181.024C20.4607 179.068 19.4167 177.892 18.0487 177.892C17.0047 177.892 16.4287 178.468 16.1407 178.972V178.06H15.1447V186.34ZM17.7847 183.268C16.8127 183.268 16.1047 182.512 16.1047 181.012C16.1047 179.512 16.8127 178.792 17.7847 178.792C18.7327 178.792 19.4167 179.356 19.4167 181.012C19.4167 182.668 18.7327 183.268 17.7847 183.268ZM23.5713 184.168C24.4953 184.168 25.0593 183.772 25.5033 183.1C25.5753 183.592 25.7073 184 26.6073 184H27.3873V183.1H26.7633C26.4873 183.1 26.4153 183.028 26.4153 182.752V179.932C26.4153 178.708 25.6833 177.892 24.0993 177.892C22.5513 177.892 21.7353 178.732 21.5193 179.524L22.5153 179.884C22.6713 179.44 22.9953 178.792 24.0873 178.792C24.9993 178.792 25.3953 179.224 25.3953 179.944V180.112C23.4633 180.268 21.6513 180.832 21.6513 182.464C21.6513 183.52 22.3953 184.168 23.5713 184.168ZM23.8113 183.304C23.0673 183.304 22.7073 182.944 22.7073 182.38C22.7073 181.408 23.9433 181.036 25.3953 180.88V181.54C25.3953 182.776 24.5913 183.304 23.8113 183.304ZM30.8447 184.168C32.1767 184.168 33.0407 183.388 33.4247 182.284L32.4647 181.948C32.2727 182.596 31.8287 183.268 30.8447 183.268C29.8607 183.268 29.0927 182.548 29.0927 181.024C29.0927 179.536 29.8847 178.792 30.8327 178.792C31.6967 178.792 32.1287 179.356 32.3207 179.92L33.2687 179.608C32.9927 178.684 32.1767 177.892 30.8327 177.892C29.1887 177.892 28.0247 179.188 28.0247 181.024C28.0247 182.944 29.1287 184.168 30.8447 184.168ZM34.7493 176.896H35.8293V175.6H34.7493V176.896ZM34.7853 184H35.8053V178.06H34.7853V184ZM37.8205 184H38.8405V181.48C38.8405 180.604 38.8765 178.792 40.5085 178.792C41.3005 178.792 41.8165 179.248 41.8165 180.364V184H42.8365V180.124C42.8365 178.804 42.2365 177.892 40.7605 177.892C39.4765 177.892 38.9005 178.804 38.8165 179.068V178.06H37.8205V184ZM45.7297 186.34H48.5017C49.5097 186.34 50.3617 185.812 50.3617 184.708C50.3617 183.712 49.6177 183.064 48.4777 183.064H45.8857C45.4657 183.064 45.3817 182.848 45.3817 182.656C45.3817 182.44 45.5977 182.212 45.9217 182.068C46.2457 182.26 46.6177 182.296 47.0257 182.296C48.3457 182.296 49.2457 181.42 49.3417 180.076L49.3657 179.752C49.4137 179.056 49.6177 178.924 50.1577 178.924H50.6137V178.06H49.9777C49.4017 178.06 49.1257 178.456 49.0057 178.912C48.7537 178.492 48.1297 177.892 47.0257 177.892C45.6577 177.892 44.6617 178.864 44.6617 180.1C44.6617 180.844 44.9857 181.384 45.3217 181.684C44.9377 181.96 44.4457 182.356 44.4457 182.944C44.4457 183.412 44.6377 183.688 44.9737 183.892C44.6137 184.096 44.1817 184.54 44.1817 185.14C44.1817 185.836 44.5897 186.34 45.7297 186.34ZM47.0257 181.456C46.2217 181.456 45.6937 180.916 45.6937 180.1C45.6937 179.284 46.2217 178.732 47.0257 178.732C47.8297 178.732 48.3577 179.284 48.3577 180.1C48.3577 180.916 47.8297 181.456 47.0257 181.456ZM46.0777 185.428C45.4537 185.428 45.1177 185.296 45.1177 184.804C45.1177 184.396 45.3817 184.132 45.5857 184H48.3937C48.8617 184 49.3297 184.096 49.3297 184.708C49.3297 185.32 48.8617 185.428 48.3937 185.428H46.0777ZM51.4803 180.832H54.7923V179.752H51.4803V180.832ZM55.5796 184H56.6956L57.4516 182.872L58.2076 181.732C58.3756 181.996 58.5076 182.2 58.9516 182.872L59.6956 184H60.9196L58.8556 180.976L60.7996 178.06H59.6716L59.0236 179.08C58.5676 179.788 58.4236 180.004 58.2556 180.244C58.1116 180.004 57.9796 179.788 57.5356 179.08L56.8876 178.06H55.6996L57.6196 180.964L55.5796 184ZM64.1643 184.168C65.6643 184.168 66.5283 183.46 66.5283 182.344C66.5283 180.988 65.1243 180.628 64.5243 180.508L63.8403 180.376C62.9883 180.208 62.7963 179.968 62.7963 179.572C62.7963 179.14 63.1803 178.732 64.0083 178.732C65.0163 178.732 65.3523 179.368 65.4963 179.764L66.4203 179.428C66.1803 178.648 65.4843 177.892 64.0083 177.892C62.8443 177.892 61.8363 178.612 61.8363 179.68C61.8363 180.808 62.7003 181.18 63.6843 181.372L64.3683 181.504C65.2323 181.672 65.5083 181.984 65.5083 182.428C65.5083 182.992 65.0283 183.292 64.1643 183.292C63.2283 183.292 62.7483 182.848 62.5683 182.14L61.5843 182.464C61.8483 183.604 62.9523 184.168 64.1643 184.168Z" fill="#DA372C"/>
<path d="M1 162.5L0.5 162.5L0.5 163.5L1 163.5L1 162.5ZM208.354 163.354C208.549 163.158 208.549 162.842 208.354 162.646L205.172 159.464C204.976 159.269 204.66 159.269 204.464 159.464C204.269 159.66 204.269 159.976 204.464 160.172L207.293 163L204.464 165.828C204.269 166.024 204.269 166.34 204.464 166.536C204.66 166.731 204.976 166.731 205.172 166.536L208.354 163.354ZM1 163.5L208 163.5L208 162.5L1 162.5L1 163.5Z" fill="#DA372C"/>
<path d="M196.5 1L196.5 0.5L195.5 0.5L195.5 1L196.5 1ZM195.646 74.3536C195.842 74.5488 196.158 74.5488 196.354 74.3536L199.536 71.1716C199.731 70.9763 199.731 70.6597 199.536 70.4645C199.34 70.2692 199.024 70.2692 198.828 70.4645L196 73.2929L193.172 70.4645C192.976 70.2692 192.66 70.2692 192.464 70.4645C192.269 70.6597 192.269 70.9763 192.464 71.1716L195.646 74.3536ZM195.5 1L195.5 74L196.5 74L196.5 1L195.5 1Z" fill="#DA372C"/>
<path d="M121.919 17.26H122.819V16.156C124.523 16.024 125.459 15.04 125.459 13.672C125.459 12.4 124.511 11.68 123.179 11.344L122.819 11.248V8.464C123.791 8.656 124.175 9.4 124.331 9.844L125.327 9.352C125.111 8.644 124.331 7.624 122.819 7.456V6.34H121.919V7.456C120.491 7.624 119.543 8.548 119.543 9.784C119.543 11.176 120.407 11.788 121.643 12.052L121.919 12.112V15.136C120.983 14.932 120.419 14.248 120.143 13.408L119.123 13.9C119.495 15.076 120.443 15.964 121.919 16.144V17.26ZM121.919 11.044C120.983 10.804 120.575 10.444 120.575 9.724C120.575 9.04 121.079 8.524 121.919 8.428V9.976V11.044ZM122.819 15.184V13.636V12.316C123.863 12.556 124.367 13.024 124.367 13.768C124.367 14.548 123.803 15.088 122.819 15.184ZM128.981 16.168C130.481 16.168 131.345 15.46 131.345 14.344C131.345 12.988 129.941 12.628 129.341 12.508L128.657 12.376C127.805 12.208 127.613 11.968 127.613 11.572C127.613 11.14 127.997 10.732 128.825 10.732C129.833 10.732 130.169 11.368 130.313 11.764L131.237 11.428C130.997 10.648 130.301 9.892 128.825 9.892C127.661 9.892 126.653 10.612 126.653 11.68C126.653 12.808 127.517 13.18 128.501 13.372L129.185 13.504C130.049 13.672 130.325 13.984 130.325 14.428C130.325 14.992 129.845 15.292 128.981 15.292C128.045 15.292 127.565 14.848 127.385 14.14L126.401 14.464C126.665 15.604 127.769 16.168 128.981 16.168ZM132.871 18.34H133.891V16.24V15.076C134.179 15.58 134.731 16.168 135.775 16.168C137.143 16.168 138.187 14.98 138.187 13.024C138.187 11.068 137.143 9.892 135.775 9.892C134.731 9.892 134.155 10.468 133.867 10.972V10.06H132.871V18.34ZM135.511 15.268C134.539 15.268 133.831 14.512 133.831 13.012C133.831 11.512 134.539 10.792 135.511 10.792C136.459 10.792 137.143 11.356 137.143 13.012C137.143 14.668 136.459 15.268 135.511 15.268ZM141.298 16.168C142.222 16.168 142.786 15.772 143.23 15.1C143.302 15.592 143.434 16 144.334 16H145.114V15.1H144.49C144.214 15.1 144.142 15.028 144.142 14.752V11.932C144.142 10.708 143.41 9.892 141.826 9.892C140.278 9.892 139.462 10.732 139.246 11.524L140.242 11.884C140.398 11.44 140.722 10.792 141.814 10.792C142.726 10.792 143.122 11.224 143.122 11.944V12.112C141.19 12.268 139.378 12.832 139.378 14.464C139.378 15.52 140.122 16.168 141.298 16.168ZM141.538 15.304C140.794 15.304 140.434 14.944 140.434 14.38C140.434 13.408 141.67 13.036 143.122 12.88V13.54C143.122 14.776 142.318 15.304 141.538 15.304ZM148.571 16.168C149.903 16.168 150.767 15.388 151.151 14.284L150.191 13.948C149.999 14.596 149.555 15.268 148.571 15.268C147.587 15.268 146.819 14.548 146.819 13.024C146.819 11.536 147.611 10.792 148.559 10.792C149.423 10.792 149.855 11.356 150.047 11.92L150.995 11.608C150.719 10.684 149.903 9.892 148.559 9.892C146.915 9.892 145.751 11.188 145.751 13.024C145.751 14.944 146.855 16.168 148.571 16.168ZM152.476 8.896H153.556V7.6H152.476V8.896ZM152.512 16H153.532V10.06H152.512V16ZM155.547 16H156.567V13.48C156.567 12.604 156.603 10.792 158.235 10.792C159.027 10.792 159.543 11.248 159.543 12.364V16H160.563V12.124C160.563 10.804 159.963 9.892 158.487 9.892C157.203 9.892 156.627 10.804 156.543 11.068V10.06H155.547V16ZM163.456 18.34H166.228C167.236 18.34 168.088 17.812 168.088 16.708C168.088 15.712 167.344 15.064 166.204 15.064H163.612C163.192 15.064 163.108 14.848 163.108 14.656C163.108 14.44 163.324 14.212 163.648 14.068C163.972 14.26 164.344 14.296 164.752 14.296C166.072 14.296 166.972 13.42 167.068 12.076L167.092 11.752C167.14 11.056 167.344 10.924 167.884 10.924H168.34V10.06H167.704C167.128 10.06 166.852 10.456 166.732 10.912C166.48 10.492 165.856 9.892 164.752 9.892C163.384 9.892 162.388 10.864 162.388 12.1C162.388 12.844 162.712 13.384 163.048 13.684C162.664 13.96 162.172 14.356 162.172 14.944C162.172 15.412 162.364 15.688 162.7 15.892C162.34 16.096 161.908 16.54 161.908 17.14C161.908 17.836 162.316 18.34 163.456 18.34ZM164.752 13.456C163.948 13.456 163.42 12.916 163.42 12.1C163.42 11.284 163.948 10.732 164.752 10.732C165.556 10.732 166.084 11.284 166.084 12.1C166.084 12.916 165.556 13.456 164.752 13.456ZM163.804 17.428C163.18 17.428 162.844 17.296 162.844 16.804C162.844 16.396 163.108 16.132 163.312 16H166.12C166.588 16 167.056 16.096 167.056 16.708C167.056 17.32 166.588 17.428 166.12 17.428H163.804ZM169.207 12.832H172.519V11.752H169.207V12.832ZM174.356 16H175.376V13.24C175.376 12.388 175.448 10.804 176.9 10.804C177.692 10.804 178.22 11.212 178.22 12.364V16H179.216V13.24C179.216 12.388 179.252 10.804 180.752 10.804C181.544 10.804 182.06 11.212 182.06 12.364V16H183.08V12.064C183.08 10.684 182.36 9.892 181.004 9.892C179.744 9.892 179.216 10.672 179.012 11.164C178.712 10.36 178.016 9.892 177.14 9.892C176.072 9.892 175.568 10.576 175.352 10.96V10.06H174.356V16Z" fill="#DA372C"/>
<path d="M326.5 1L326.5 0.5L325.5 0.5L325.5 1L326.5 1ZM325.646 96.3536C325.842 96.5488 326.158 96.5488 326.354 96.3536L329.536 93.1716C329.731 92.9763 329.731 92.6597 329.536 92.4645C329.34 92.2692 329.024 92.2692 328.828 92.4645L326 95.2929L323.172 92.4645C322.976 92.2692 322.66 92.2692 322.464 92.4645C322.269 92.6597 322.269 92.9763 322.464 93.1716L325.646 96.3536ZM325.5 1L325.5 96L326.5 96L326.5 1L325.5 1Z" fill="#DA372C"/>
<path d="M234.444 16H235.524V8.62H238.632V7.6H231.456V8.62H234.444V16ZM240.741 16.168C242.301 16.168 243.501 14.824 243.501 13.036C243.501 11.248 242.349 9.892 240.741 9.892C239.133 9.892 237.981 11.248 237.981 13.036C237.981 14.824 239.181 16.168 240.741 16.168ZM240.741 15.268C239.733 15.268 239.037 14.548 239.037 13.048C239.037 11.548 239.733 10.792 240.741 10.792C241.749 10.792 242.445 11.548 242.445 13.048C242.445 14.548 241.749 15.268 240.741 15.268ZM247.339 16.168C248.899 16.168 250.099 14.824 250.099 13.036C250.099 11.248 248.947 9.892 247.339 9.892C245.731 9.892 244.579 11.248 244.579 13.036C244.579 14.824 245.779 16.168 247.339 16.168ZM247.339 15.268C246.331 15.268 245.635 14.548 245.635 13.048C245.635 11.548 246.331 10.792 247.339 10.792C248.347 10.792 249.043 11.548 249.043 13.048C249.043 14.548 248.347 15.268 247.339 15.268ZM251.645 16H252.665V7.6H251.645V16ZM256.744 16H258.112V15.1H256.876C256.456 15.1 256.276 14.92 256.276 14.5V10.924H257.896V10.06H256.276V8.2H255.256V10.06H253.876V10.924H255.256V14.56C255.256 15.544 255.76 16 256.744 16ZM259.367 8.896H260.447V7.6H259.367V8.896ZM259.403 16H260.423V10.06H259.403V16ZM262.438 18.34H263.458V16.24V15.076C263.746 15.58 264.298 16.168 265.342 16.168C266.71 16.168 267.754 14.98 267.754 13.024C267.754 11.068 266.71 9.892 265.342 9.892C264.298 9.892 263.722 10.468 263.434 10.972V10.06H262.438V18.34ZM265.078 15.268C264.106 15.268 263.398 14.512 263.398 13.012C263.398 11.512 264.106 10.792 265.078 10.792C266.026 10.792 266.71 11.356 266.71 13.012C266.71 14.668 266.026 15.268 265.078 15.268ZM274.798 16.168C276.13 16.168 276.994 15.388 277.378 14.284L276.418 13.948C276.226 14.596 275.782 15.268 274.798 15.268C273.814 15.268 273.046 14.548 273.046 13.024C273.046 11.536 273.838 10.792 274.786 10.792C275.65 10.792 276.082 11.356 276.274 11.92L277.222 11.608C276.946 10.684 276.13 9.892 274.786 9.892C273.142 9.892 271.978 11.188 271.978 13.024C271.978 14.944 273.082 16.168 274.798 16.168ZM281.03 16.168C282.59 16.168 283.79 14.824 283.79 13.036C283.79 11.248 282.638 9.892 281.03 9.892C279.422 9.892 278.27 11.248 278.27 13.036C278.27 14.824 279.47 16.168 281.03 16.168ZM281.03 15.268C280.022 15.268 279.326 14.548 279.326 13.048C279.326 11.548 280.022 10.792 281.03 10.792C282.038 10.792 282.734 11.548 282.734 13.048C282.734 14.548 282.038 15.268 281.03 15.268ZM285.336 16H286.356V13.48C286.356 12.604 286.392 10.792 288.024 10.792C288.816 10.792 289.332 11.248 289.332 12.364V16H290.352V12.124C290.352 10.804 289.752 9.892 288.276 9.892C286.992 9.892 286.416 10.804 286.332 11.068V10.06H285.336V16ZM294.349 16H295.717V15.1H294.481C294.061 15.1 293.881 14.92 293.881 14.5V10.924H295.501V10.06H293.881V8.2H292.861V10.06H291.481V10.924H292.861V14.56C292.861 15.544 293.365 16 294.349 16ZM299.193 16.168C300.309 16.168 301.305 15.664 301.749 14.452L300.813 14.128C300.657 14.512 300.237 15.28 299.229 15.28C298.401 15.28 297.573 14.8 297.513 13.3H301.701C301.929 11.356 300.861 9.892 299.133 9.892C297.621 9.892 296.505 11.104 296.505 13.06C296.505 15.076 297.573 16.168 299.193 16.168ZM297.537 12.448C297.621 11.368 298.353 10.732 299.133 10.732C299.949 10.732 300.657 11.32 300.657 12.448H297.537ZM303.336 16H304.356V13.48C304.356 12.604 304.392 10.792 306.024 10.792C306.816 10.792 307.332 11.248 307.332 12.364V16H308.352V12.124C308.352 10.804 307.752 9.892 306.276 9.892C304.992 9.892 304.416 10.804 304.332 11.068V10.06H303.336V16ZM312.349 16H313.717V15.1H312.481C312.061 15.1 311.881 14.92 311.881 14.5V10.924H313.501V10.06H311.881V8.2H310.861V10.06H309.481V10.924H310.861V14.56C310.861 15.544 311.365 16 312.349 16Z" fill="#DA372C"/>
</svg>
