<svg width="958" height="346" viewBox="0 0 958 346" fill="none" xmlns="http://www.w3.org/2000/svg">
<path d="M178.32 194H186.96L201.424 149.2H195.088L185.488 179.856L182.672 188.752L179.92 179.792L170.448 149.2H164.048L178.32 194ZM207.997 156.112H213.757V149.2H207.997V156.112ZM208.189 194H213.629V162.32H208.189V194ZM236.344 194.896C242.296 194.896 247.608 192.208 249.976 185.744L244.984 184.016C244.152 186.064 241.912 190.16 236.536 190.16C232.12 190.16 227.704 187.6 227.384 179.6H249.72C250.936 169.232 245.24 161.424 236.024 161.424C227.96 161.424 222.008 167.888 222.008 178.32C222.008 189.072 227.704 194.896 236.344 194.896ZM227.512 175.056C227.96 169.296 231.864 165.904 236.024 165.904C240.376 165.904 244.152 169.04 244.152 175.056H227.512ZM265.095 194H271.239L276.231 178.384C278.151 172.368 278.791 170.384 279.431 168.464L282.567 178.384L287.431 194H293.767L304.519 162.32H298.759L293.767 178.128C291.911 183.952 291.079 186.512 290.567 187.984L288.071 179.856L282.631 162.32H276.359L271.431 178.128L268.359 187.984C267.847 186.256 267.207 184.208 265.287 178.128L260.359 162.32H254.663L265.095 194ZM326.876 194H332.316V149.2H326.876V194ZM351.256 194.896C356.184 194.896 359.192 192.784 361.56 189.2C361.944 191.824 362.648 194 367.448 194H371.608V189.2H368.28C366.808 189.2 366.424 188.816 366.424 187.344V172.304C366.424 165.776 362.52 161.424 354.072 161.424C345.816 161.424 341.464 165.904 340.312 170.128L345.624 172.048C346.456 169.68 348.184 166.224 354.008 166.224C358.872 166.224 360.984 168.528 360.984 172.368V173.264C350.68 174.096 341.016 177.104 341.016 185.808C341.016 191.44 344.984 194.896 351.256 194.896ZM352.536 190.288C348.568 190.288 346.648 188.368 346.648 185.36C346.648 180.176 353.24 178.192 360.984 177.36V180.88C360.984 187.472 356.696 190.288 352.536 190.288ZM387.551 194.896C394.143 194.896 397.151 190.224 398.111 188.496V194H403.423V162.32H397.983V175.76C397.983 180.624 397.855 190.096 389.279 190.096C385.119 190.096 382.431 187.664 382.431 181.712V162.32H376.991V182.992C376.991 190.032 380.127 194.896 387.551 194.896ZM414.189 194H419.629V180.56C419.629 175.888 419.821 166.224 428.525 166.224C432.749 166.224 435.501 168.656 435.501 174.608V194H440.941V173.328C440.941 166.288 437.741 161.424 429.869 161.424C423.021 161.424 419.949 166.288 419.501 167.696V162.32H414.189V194ZM463.859 194.896C470.963 194.896 475.571 190.736 477.619 184.848L472.499 183.056C471.475 186.512 469.107 190.096 463.859 190.096C458.611 190.096 454.515 186.256 454.515 178.128C454.515 170.192 458.739 166.224 463.795 166.224C468.403 166.224 470.707 169.232 471.731 172.24L476.787 170.576C475.315 165.648 470.963 161.424 463.795 161.424C455.027 161.424 448.819 168.336 448.819 178.128C448.819 188.368 454.707 194.896 463.859 194.896ZM484.876 194H490.316V180.56C490.316 175.888 490.508 166.224 499.212 166.224C503.436 166.224 506.188 168.656 506.188 174.608V194H511.628V173.328C511.628 166.288 508.172 161.424 500.94 161.424C493.452 161.424 490.764 166.288 490.316 167.696V161.04V149.2H484.876V194ZM548.997 194.896C554.565 194.896 557.637 191.824 559.173 189.136V194H564.485V149.2H559.045V161.04V167.248C557.509 164.56 554.565 161.424 548.997 161.424C541.701 161.424 536.133 167.76 536.133 178.192C536.133 188.624 541.701 194.896 548.997 194.896ZM550.405 190.096C545.349 190.096 541.701 187.088 541.701 178.256C541.701 169.424 545.349 166.224 550.405 166.224C555.589 166.224 559.365 170.256 559.365 178.256C559.365 186.256 555.589 190.096 550.405 190.096ZM583.443 194.896C588.371 194.896 591.379 192.784 593.747 189.2C594.131 191.824 594.835 194 599.635 194H603.795V189.2H600.467C598.995 189.2 598.611 188.816 598.611 187.344V172.304C598.611 165.776 594.707 161.424 586.259 161.424C578.003 161.424 573.651 165.904 572.499 170.128L577.811 172.048C578.643 169.68 580.371 166.224 586.195 166.224C591.059 166.224 593.171 168.528 593.171 172.368V173.264C582.867 174.096 573.203 177.104 573.203 185.808C573.203 191.44 577.171 194.896 583.443 194.896ZM584.723 190.288C580.755 190.288 578.835 188.368 578.835 185.36C578.835 180.176 585.427 178.192 593.171 177.36V180.88C593.171 187.472 588.883 190.288 584.723 190.288ZM620.197 194H627.493V189.2H620.901C618.661 189.2 617.701 188.24 617.701 186V166.928H626.341V162.32H617.701V152.4H612.26V162.32H604.901V166.928H612.26V186.32C612.26 191.568 614.949 194 620.197 194ZM642.568 194.896C647.496 194.896 650.504 192.784 652.872 189.2C653.256 191.824 653.96 194 658.76 194H662.92V189.2H659.592C658.12 189.2 657.736 188.816 657.736 187.344V172.304C657.736 165.776 653.832 161.424 645.384 161.424C637.128 161.424 632.776 165.904 631.624 170.128L636.936 172.048C637.768 169.68 639.496 166.224 645.32 166.224C650.184 166.224 652.296 168.528 652.296 172.368V173.264C641.992 174.096 632.328 177.104 632.328 185.808C632.328 191.44 636.296 194.896 642.568 194.896ZM643.848 190.288C639.88 190.288 637.96 188.368 637.96 185.36C637.96 180.176 644.552 178.192 652.296 177.36V180.88C652.296 187.472 648.008 190.288 643.848 190.288Z" fill="#1662DD"/>
<path d="M748 155C748 151.686 745.314 149 742 149H724C720.686 149 718 151.686 718 155V203C718 206.314 720.686 209 724 209H772C775.314 209 778 206.314 778 203V185C778 181.686 775.314 179 772 179C768.686 179 766 181.686 766 185V197H730V161H742C745.314 161 748 158.314 748 155Z" fill="#1662DD"/>
<path d="M769.273 149L760 149C756.686 149 754 146.314 754 143C754 139.686 756.686 137 760 137H784C787.314 137 790 139.686 790 143V167C790 170.314 787.314 173 784 173C780.686 173 778 170.314 778 167V157.727L747.485 188C745.142 190.343 741.343 190.343 739 188L738.758 187.758C736.415 185.415 736.415 181.616 738.758 179.273L769.273 149Z" fill="#1662DD"/>
<rect opacity="0.2" x="664" y="118" width="48" height="109" fill="#DA372C"/>
<path d="M687 61C687 60.4477 687.448 60 688 60C688.552 60 689 60.4477 689 61L687 61ZM688.707 131.207C688.317 131.598 687.683 131.598 687.293 131.207L680.929 124.843C680.538 124.453 680.538 123.819 680.929 123.429C681.319 123.038 681.953 123.038 682.343 123.429L688 129.086L693.657 123.429C694.047 123.038 694.681 123.038 695.071 123.429C695.462 123.819 695.462 124.453 695.071 124.843L688.707 131.207ZM689 61L689 130.5L687 130.5L687 61L689 61Z" fill="#DA372C"/>
<path d="M704.256 73.68H705.456V72.208C707.728 72.032 708.976 70.72 708.976 68.896C708.976 67.2 707.712 66.24 705.936 65.792L705.456 65.664V61.952C706.752 62.208 707.264 63.2 707.472 63.792L708.8 63.136C708.512 62.192 707.472 60.832 705.456 60.608V59.12H704.256V60.608C702.352 60.832 701.088 62.064 701.088 63.712C701.088 65.568 702.24 66.384 703.888 66.736L704.256 66.816V70.848C703.008 70.576 702.256 69.664 701.888 68.544L700.528 69.2C701.024 70.768 702.288 71.952 704.256 72.192V73.68ZM704.256 65.392C703.008 65.072 702.464 64.592 702.464 63.632C702.464 62.72 703.136 62.032 704.256 61.904V63.968V65.392ZM705.456 70.912V68.848V67.088C706.848 67.408 707.52 68.032 707.52 69.024C707.52 70.064 706.768 70.784 705.456 70.912ZM713.672 72.224C715.672 72.224 716.824 71.28 716.824 69.792C716.824 67.984 714.952 67.504 714.152 67.344L713.24 67.168C712.104 66.944 711.848 66.624 711.848 66.096C711.848 65.52 712.36 64.976 713.464 64.976C714.808 64.976 715.256 65.824 715.448 66.352L716.68 65.904C716.36 64.864 715.432 63.856 713.464 63.856C711.912 63.856 710.568 64.816 710.568 66.24C710.568 67.744 711.72 68.24 713.032 68.496L713.944 68.672C715.096 68.896 715.464 69.312 715.464 69.904C715.464 70.656 714.824 71.056 713.672 71.056C712.424 71.056 711.784 70.464 711.544 69.52L710.232 69.952C710.584 71.472 712.056 72.224 713.672 72.224ZM718.86 75.12H720.22V72.32V70.768C720.604 71.44 721.34 72.224 722.732 72.224C724.556 72.224 725.948 70.64 725.948 68.032C725.948 65.424 724.556 63.856 722.732 63.856C721.34 63.856 720.572 64.624 720.188 65.296V64.08H718.86V75.12ZM722.38 71.024C721.084 71.024 720.14 70.016 720.14 68.016C720.14 66.016 721.084 65.056 722.38 65.056C723.644 65.056 724.556 65.808 724.556 68.016C724.556 70.224 723.644 71.024 722.38 71.024ZM730.671 72.224C732.063 72.224 732.831 71.456 733.215 70.784V72H734.543V64.08H733.183V65.312C732.799 64.64 732.063 63.856 730.671 63.856C728.847 63.856 727.455 65.44 727.455 68.048C727.455 70.656 728.847 72.224 730.671 72.224ZM731.023 71.024C729.759 71.024 728.847 70.272 728.847 68.064C728.847 65.856 729.759 65.056 731.023 65.056C732.319 65.056 733.263 66.064 733.263 68.064C733.263 70.064 732.319 71.024 731.023 71.024ZM740.387 72.224C742.163 72.224 743.315 71.184 743.827 69.712L742.547 69.264C742.291 70.128 741.699 71.024 740.387 71.024C739.075 71.024 738.051 70.064 738.051 68.032C738.051 66.048 739.107 65.056 740.371 65.056C741.523 65.056 742.099 65.808 742.355 66.56L743.619 66.144C743.251 64.912 742.163 63.856 740.371 63.856C738.179 63.856 736.627 65.584 736.627 68.032C736.627 70.592 738.099 72.224 740.387 72.224ZM745.593 62.528H747.033V60.8H745.593V62.528ZM745.641 72H747.001V64.08H745.641V72ZM749.688 72H751.048V68.64C751.048 67.472 751.096 65.056 753.272 65.056C754.328 65.056 755.016 65.664 755.016 67.152V72H756.376V66.832C756.376 65.072 755.576 63.856 753.608 63.856C751.896 63.856 751.128 65.072 751.016 65.424V64.08H749.688V72ZM760.233 75.12H763.929C765.273 75.12 766.409 74.416 766.409 72.944C766.409 71.616 765.417 70.752 763.897 70.752H760.441C759.881 70.752 759.769 70.464 759.769 70.208C759.769 69.92 760.057 69.616 760.489 69.424C760.921 69.68 761.417 69.728 761.961 69.728C763.721 69.728 764.921 68.56 765.049 66.768L765.081 66.336C765.145 65.408 765.417 65.232 766.137 65.232H766.745V64.08H765.897C765.129 64.08 764.761 64.608 764.601 65.216C764.265 64.656 763.433 63.856 761.961 63.856C760.137 63.856 758.809 65.152 758.809 66.8C758.809 67.792 759.241 68.512 759.689 68.912C759.177 69.28 758.521 69.808 758.521 70.592C758.521 71.216 758.777 71.584 759.225 71.856C758.745 72.128 758.169 72.72 758.169 73.52C758.169 74.448 758.713 75.12 760.233 75.12ZM761.961 68.608C760.889 68.608 760.185 67.888 760.185 66.8C760.185 65.712 760.889 64.976 761.961 64.976C763.033 64.976 763.737 65.712 763.737 66.8C763.737 67.888 763.033 68.608 761.961 68.608ZM760.697 73.904C759.865 73.904 759.417 73.728 759.417 73.072C759.417 72.528 759.769 72.176 760.041 72H763.785C764.409 72 765.033 72.128 765.033 72.944C765.033 73.76 764.409 73.904 763.785 73.904H760.697ZM767.901 67.776H772.317V66.336H767.901V67.776ZM773.367 72H774.855L775.863 70.496L776.871 68.976C777.095 69.328 777.271 69.6 777.863 70.496L778.855 72H780.487L777.735 67.968L780.327 64.08H778.823L777.959 65.44C777.351 66.384 777.159 66.672 776.935 66.992C776.743 66.672 776.567 66.384 775.975 65.44L775.111 64.08H773.527L776.087 67.952L773.367 72ZM784.813 72.224C786.813 72.224 787.965 71.28 787.965 69.792C787.965 67.984 786.093 67.504 785.293 67.344L784.381 67.168C783.245 66.944 782.989 66.624 782.989 66.096C782.989 65.52 783.501 64.976 784.605 64.976C785.949 64.976 786.397 65.824 786.589 66.352L787.821 65.904C787.501 64.864 786.573 63.856 784.605 63.856C783.053 63.856 781.709 64.816 781.709 66.24C781.709 67.744 782.861 68.24 784.173 68.496L785.085 68.672C786.237 68.896 786.605 69.312 786.605 69.904C786.605 70.656 785.965 71.056 784.813 71.056C783.565 71.056 782.925 70.464 782.685 69.52L781.373 69.952C781.725 71.472 783.197 72.224 784.813 72.224Z" fill="#6E6E78"/>
<path d="M198 61C198 60.4477 198.448 60 199 60C199.552 60 200 60.4477 200 61L198 61ZM199.707 131.207C199.317 131.598 198.683 131.598 198.293 131.207L191.929 124.843C191.538 124.453 191.538 123.819 191.929 123.429C192.319 123.038 192.953 123.038 193.343 123.429L199 129.086L204.657 123.429C205.047 123.038 205.681 123.038 206.071 123.429C206.462 123.819 206.462 124.453 206.071 124.843L199.707 131.207ZM200 61L200 130.5L198 130.5L198 61L200 61Z" fill="#DA372C"/>
<path d="M127.086 74H134.894V72.64H128.526V68.864H133.23V67.52H128.526V64.16H134.894V62.8H127.086V74ZM135.992 74H137.48L138.488 72.496L139.496 70.976C139.72 71.328 139.896 71.6 140.488 72.496L141.48 74H143.112L140.36 69.968L142.952 66.08H141.448L140.584 67.44C139.976 68.384 139.784 68.672 139.56 68.992C139.368 68.672 139.192 68.384 138.6 67.44L137.736 66.08H136.152L138.712 69.952L135.992 74ZM147.518 74H149.342V72.8H147.694C147.134 72.8 146.894 72.56 146.894 72V67.232H149.054V66.08H146.894V63.6H145.534V66.08H143.694V67.232H145.534V72.08C145.534 73.392 146.206 74 147.518 74ZM153.977 74.224C155.465 74.224 156.793 73.552 157.385 71.936L156.137 71.504C155.929 72.016 155.369 73.04 154.025 73.04C152.921 73.04 151.817 72.4 151.737 70.4H157.321C157.625 67.808 156.201 65.856 153.897 65.856C151.881 65.856 150.393 67.472 150.393 70.08C150.393 72.768 151.817 74.224 153.977 74.224ZM151.769 69.264C151.881 67.824 152.857 66.976 153.897 66.976C154.985 66.976 155.929 67.76 155.929 69.264H151.769ZM159.5 74H160.86V70.368C160.86 68.512 161.596 67.376 163.388 67.376C163.708 67.376 163.98 67.408 164.236 67.456V66.064C164.044 66.016 163.804 65.968 163.42 65.968C161.916 65.968 161.1 67.136 160.844 67.728V66.08H159.5V74ZM165.844 74H167.204V70.64C167.204 69.472 167.252 67.056 169.428 67.056C170.484 67.056 171.172 67.664 171.172 69.152V74H172.532V68.832C172.532 67.072 171.732 65.856 169.764 65.856C168.052 65.856 167.284 67.072 167.172 67.424V66.08H165.844V74ZM177.734 74.224C179.126 74.224 179.894 73.456 180.278 72.784V74H181.606V66.08H180.246V67.312C179.862 66.64 179.126 65.856 177.734 65.856C175.91 65.856 174.518 67.44 174.518 70.048C174.518 72.656 175.91 74.224 177.734 74.224ZM178.086 73.024C176.822 73.024 175.91 72.272 175.91 70.064C175.91 67.856 176.822 67.056 178.086 67.056C179.382 67.056 180.326 68.064 180.326 70.064C180.326 72.064 179.382 73.024 178.086 73.024ZM184.297 74H185.657V62.8H184.297V74ZM127.563 102H128.923V90.8H127.563V102ZM131.562 92.528H133.002V90.8H131.562V92.528ZM131.61 102H132.97V94.08H131.61V102ZM135.657 102H137.017V98.64C137.017 97.472 137.065 95.056 139.241 95.056C140.297 95.056 140.985 95.664 140.985 97.152V102H142.345V96.832C142.345 95.072 141.545 93.856 139.577 93.856C137.865 93.856 137.097 95.072 136.985 95.424V94.08H135.657V102ZM150.794 102H152.538L148.73 97.392L152.298 94.08H150.49L146.282 98.16V95.568V90.8H144.922V102H146.282V99.664L147.786 98.288L150.794 102ZM157.78 92.528H159.22V90.8H157.78V92.528ZM157.828 102H159.188V94.08H157.828V102ZM165.027 102.224C166.803 102.224 167.955 101.184 168.467 99.712L167.187 99.264C166.931 100.128 166.339 101.024 165.027 101.024C163.715 101.024 162.691 100.064 162.691 98.032C162.691 96.048 163.747 95.056 165.011 95.056C166.163 95.056 166.739 95.808 166.995 96.56L168.259 96.144C167.891 94.912 166.803 93.856 165.011 93.856C162.819 93.856 161.267 95.584 161.267 98.032C161.267 100.592 162.739 102.224 165.027 102.224ZM173.338 102.224C175.418 102.224 177.017 100.432 177.017 98.048C177.017 95.664 175.482 93.856 173.338 93.856C171.194 93.856 169.658 95.664 169.658 98.048C169.658 100.432 171.258 102.224 173.338 102.224ZM173.338 101.024C171.994 101.024 171.066 100.064 171.066 98.064C171.066 96.064 171.994 95.056 173.338 95.056C174.682 95.056 175.61 96.064 175.61 98.064C175.61 100.064 174.682 101.024 173.338 101.024ZM179.078 102H180.438V98.64C180.438 97.472 180.486 95.056 182.662 95.056C183.718 95.056 184.406 95.664 184.406 97.152V102H185.766V96.832C185.766 95.072 184.966 93.856 182.998 93.856C181.286 93.856 180.518 95.072 180.406 95.424V94.08H179.078V102Z" fill="#6E6E78"/>
<path d="M455 298C455 298.552 455.448 299 456 299C456.552 299 457 298.552 457 298L455 298ZM456.707 227.793C456.317 227.402 455.683 227.402 455.293 227.793L448.929 234.157C448.538 234.547 448.538 235.181 448.929 235.571C449.319 235.962 449.953 235.962 450.343 235.571L456 229.914L461.657 235.571C462.047 235.962 462.681 235.962 463.071 235.571C463.462 235.181 463.462 234.547 463.071 234.157L456.707 227.793ZM457 298L457 228.5L455 228.5L455 298L457 298Z" fill="#DA372C"/>
<path d="M469.648 298H477.12V296.608H471.088V286.8H469.648V298ZM478.577 288.528H480.017V286.8H478.577V288.528ZM478.625 298H479.985V290.08H478.625V298ZM482.672 298H484.032V294.64C484.032 293.472 484.08 291.056 486.256 291.056C487.312 291.056 488 291.664 488 293.152V298H489.36V292.832C489.36 291.072 488.56 289.856 486.592 289.856C484.88 289.856 484.112 291.072 484 291.424V290.08H482.672V298ZM497.81 298H499.554L495.746 293.392L499.314 290.08H497.506L493.298 294.16V291.568V286.8H491.938V298H493.298V295.664L494.802 294.288L497.81 298ZM507.315 298H509.139V296.8H507.491C506.931 296.8 506.691 296.56 506.691 296V291.232H508.851V290.08H506.691V287.6H505.331V290.08H503.491V291.232H505.331V296.08C505.331 297.392 506.003 298 507.315 298ZM513.774 298.224C515.262 298.224 516.59 297.552 517.182 295.936L515.934 295.504C515.726 296.016 515.166 297.04 513.822 297.04C512.718 297.04 511.614 296.4 511.534 294.4H517.118C517.422 291.808 515.998 289.856 513.694 289.856C511.678 289.856 510.19 291.472 510.19 294.08C510.19 296.768 511.614 298.224 513.774 298.224ZM511.566 293.264C511.678 291.824 512.654 290.976 513.694 290.976C514.782 290.976 515.726 291.76 515.726 293.264H511.566ZM518.179 298H519.667L520.675 296.496L521.683 294.976C521.907 295.328 522.083 295.6 522.675 296.496L523.667 298H525.299L522.547 293.968L525.139 290.08H523.635L522.771 291.44C522.163 292.384 521.971 292.672 521.747 292.992C521.555 292.672 521.379 292.384 520.787 291.44L519.923 290.08H518.339L520.899 293.952L518.179 298ZM529.705 298H531.529V296.8H529.881C529.321 296.8 529.081 296.56 529.081 296V291.232H531.241V290.08H529.081V287.6H527.721V290.08H525.881V291.232H527.721V296.08C527.721 297.392 528.393 298 529.705 298Z" fill="#6E6E78"/>
</svg>
