<svg viewBox="0 0 958 346" fill="none" xmlns="http://www.w3.org/2000/svg"><rect x="402" y="135" width="154" height="76" rx="8" fill="#1662DD"/><path d="M432.548 182H446.744V178.808H436.188V162.4H432.548V182ZM452.719 182.42C455.071 182.42 456.555 181.244 457.395 179.928C457.563 181.16 458.179 182 459.943 182H462.575V179.312H461.259C460.531 179.312 460.419 179.144 460.419 178.472V172.844C460.419 169.428 458.319 167.636 454.483 167.636C450.563 167.636 448.379 169.68 448.043 171.752L451.207 172.564C451.543 171.332 452.411 170.24 454.483 170.24C456.275 170.24 457.059 171.052 457.059 172.424V172.9C452.439 173.32 448.267 174.524 448.267 178.416C448.267 180.88 450.115 182.42 452.719 182.42ZM453.839 179.844C452.439 179.844 451.739 179.144 451.739 178.08C451.739 176.092 454.175 175.476 457.059 175.14V176.26C457.059 178.752 455.491 179.844 453.839 179.844ZM469.058 182.42C471.802 182.42 473.09 180.628 473.65 179.704V182H477.038V168.056H473.622V174.608C473.622 176.848 473.118 179.564 470.458 179.564C468.974 179.564 468.05 178.696 468.05 176.54V168.056H464.634V177.352C464.634 180.404 466.174 182.42 469.058 182.42ZM481.181 182H484.597V175.644C484.597 173.936 484.653 170.492 487.789 170.492C489.329 170.492 490.309 171.388 490.309 173.488V182H493.725V172.732C493.725 169.68 492.353 167.636 489.021 167.636C486.305 167.636 484.961 169.456 484.513 170.268V168.056H481.181V182ZM503.912 182.42C507.16 182.42 509.512 180.628 510.52 177.968L507.3 176.82C506.74 178.528 505.732 179.648 503.856 179.648C501.868 179.648 500.216 178.136 500.216 175C500.216 171.92 501.84 170.408 503.828 170.408C505.48 170.408 506.572 171.416 507.104 172.9L510.24 171.78C509.428 169.456 507.216 167.636 503.912 167.636C499.824 167.636 496.744 170.576 496.744 175C496.744 179.508 499.712 182.42 503.912 182.42ZM513.228 182H516.644V175.644C516.644 173.936 516.7 170.492 519.836 170.492C521.376 170.492 522.356 171.388 522.356 173.488V182H525.772V172.732C525.772 169.68 524.344 167.636 521.236 167.636C518.352 167.636 517.092 169.456 516.644 170.268V167.496V162.4H513.228V182Z" fill="#fff"/><path d="M255 170C254.448 170 254 170.448 254 171C254 171.552 254.448 172 255 172L255 170ZM390.707 171.707C391.098 171.317 391.098 170.683 390.707 170.293L384.343 163.929C383.953 163.538 383.319 163.538 382.929 163.929C382.538 164.319 382.538 164.953 382.929 165.343L388.586 171L382.929 176.657C382.538 177.047 382.538 177.681 382.929 178.071C383.319 178.462 383.953 178.462 384.343 178.071L390.707 171.707ZM255 172L390 172L390 170L255 170L255 172Z" fill="#DA372C"/><path d="M256.648 130H261.672C263.608 130 265.288 129.072 265.288 126.912C265.288 125.248 263.976 124.384 262.84 124.16C263.8 123.968 264.92 123.12 264.92 121.568C264.92 119.936 263.8 118.8 261.448 118.8H256.648V130ZM258.088 123.52V120.16H261.32C262.584 120.16 263.4 120.704 263.4 121.76C263.4 122.816 262.584 123.52 261.32 123.52H258.088ZM258.088 128.64V124.864H261.464C262.888 124.864 263.736 125.568 263.736 126.72C263.736 127.872 262.888 128.64 261.464 128.64H258.088ZM270.06 130.224C271.708 130.224 272.46 129.056 272.7 128.624V130H274.028V122.08H272.668V125.44C272.668 126.656 272.636 129.024 270.492 129.024C269.452 129.024 268.78 128.416 268.78 126.928V122.08H267.42V127.248C267.42 129.008 268.204 130.224 270.06 130.224ZM279.471 130H281.295V128.8H279.647C279.087 128.8 278.847 128.56 278.847 128V123.232H281.007V122.08H278.847V119.6H277.487V122.08H275.647V123.232H277.487V128.08C277.487 129.392 278.159 130 279.471 130ZM285.768 130H287.592V128.8H285.944C285.384 128.8 285.144 128.56 285.144 128V123.232H287.304V122.08H285.144V119.6H283.784V122.08H281.944V123.232H283.784V128.08C283.784 129.392 284.456 130 285.768 130ZM292.291 130.224C294.371 130.224 295.971 128.432 295.971 126.048C295.971 123.664 294.435 121.856 292.291 121.856C290.147 121.856 288.611 123.664 288.611 126.048C288.611 128.432 290.211 130.224 292.291 130.224ZM292.291 129.024C290.947 129.024 290.019 128.064 290.019 126.064C290.019 124.064 290.947 123.056 292.291 123.056C293.635 123.056 294.563 124.064 294.563 126.064C294.563 128.064 293.635 129.024 292.291 129.024ZM298.032 130H299.392V126.64C299.392 125.472 299.44 123.056 301.616 123.056C302.672 123.056 303.36 123.664 303.36 125.152V130H304.72V124.832C304.72 123.072 303.92 121.856 301.952 121.856C300.24 121.856 299.472 123.072 299.36 123.424V122.08H298.032V130ZM260.216 157.224C262.04 157.224 263.432 155.64 263.432 153.032C263.432 150.424 262.04 148.856 260.216 148.856C258.824 148.856 258.088 149.624 257.704 150.296V148.76V145.8H256.344V157H257.672V155.768C258.056 156.44 258.824 157.224 260.216 157.224ZM259.864 156.024C258.568 156.024 257.624 155.016 257.624 153.016C257.624 151.016 258.568 150.056 259.864 150.056C261.128 150.056 262.04 150.808 262.04 153.016C262.04 155.224 261.128 156.024 259.864 156.024ZM268.156 157.224C269.548 157.224 270.316 156.456 270.7 155.784V157H272.028V149.08H270.668V150.312C270.284 149.64 269.548 148.856 268.156 148.856C266.332 148.856 264.94 150.44 264.94 153.048C264.94 155.656 266.332 157.224 268.156 157.224ZM268.508 156.024C267.244 156.024 266.332 155.272 266.332 153.064C266.332 150.856 267.244 150.056 268.508 150.056C269.804 150.056 270.748 151.064 270.748 153.064C270.748 155.064 269.804 156.024 268.508 156.024ZM277.871 157.224C279.647 157.224 280.799 156.184 281.311 154.712L280.031 154.264C279.775 155.128 279.183 156.024 277.871 156.024C276.559 156.024 275.535 155.064 275.535 153.032C275.535 151.048 276.591 150.056 277.855 150.056C279.007 150.056 279.583 150.808 279.839 151.56L281.103 151.144C280.735 149.912 279.647 148.856 277.855 148.856C275.663 148.856 274.111 150.584 274.111 153.032C274.111 155.592 275.583 157.224 277.871 157.224ZM288.997 157H290.741L286.933 152.392L290.501 149.08H288.693L284.485 153.16V150.568V145.8H283.125V157H284.485V154.664L285.989 153.288L288.997 157ZM293.327 160.12H297.023C298.367 160.12 299.503 159.416 299.503 157.944C299.503 156.616 298.511 155.752 296.991 155.752H293.535C292.975 155.752 292.863 155.464 292.863 155.208C292.863 154.92 293.151 154.616 293.583 154.424C294.015 154.68 294.511 154.728 295.055 154.728C296.815 154.728 298.015 153.56 298.143 151.768L298.175 151.336C298.239 150.408 298.511 150.232 299.231 150.232H299.839V149.08H298.991C298.223 149.08 297.855 149.608 297.695 150.216C297.359 149.656 296.527 148.856 295.055 148.856C293.231 148.856 291.903 150.152 291.903 151.8C291.903 152.792 292.335 153.512 292.783 153.912C292.271 154.28 291.615 154.808 291.615 155.592C291.615 156.216 291.871 156.584 292.319 156.856C291.839 157.128 291.263 157.72 291.263 158.52C291.263 159.448 291.807 160.12 293.327 160.12ZM295.055 153.608C293.983 153.608 293.279 152.888 293.279 151.8C293.279 150.712 293.983 149.976 295.055 149.976C296.127 149.976 296.831 150.712 296.831 151.8C296.831 152.888 296.127 153.608 295.055 153.608ZM293.791 158.904C292.959 158.904 292.511 158.728 292.511 158.072C292.511 157.528 292.863 157.176 293.135 157H296.879C297.503 157 298.127 157.128 298.127 157.944C298.127 158.76 297.503 158.904 296.879 158.904H293.791ZM301.438 157H302.798V153.368C302.798 151.512 303.534 150.376 305.326 150.376C305.646 150.376 305.918 150.408 306.174 150.456V149.064C305.982 149.016 305.742 148.968 305.358 148.968C303.854 148.968 303.038 150.136 302.782 150.728V149.08H301.438V157ZM310.713 157.224C312.793 157.224 314.392 155.432 314.392 153.048C314.392 150.664 312.857 148.856 310.713 148.856C308.569 148.856 307.033 150.664 307.033 153.048C307.033 155.432 308.633 157.224 310.713 157.224ZM310.713 156.024C309.369 156.024 308.441 155.064 308.441 153.064C308.441 151.064 309.369 150.056 310.713 150.056C312.057 150.056 312.985 151.064 312.985 153.064C312.985 155.064 312.057 156.024 310.713 156.024ZM318.981 157.224C320.629 157.224 321.381 156.056 321.621 155.624V157H322.949V149.08H321.589V152.44C321.589 153.656 321.557 156.024 319.413 156.024C318.373 156.024 317.701 155.416 317.701 153.928V149.08H316.341V154.248C316.341 156.008 317.125 157.224 318.981 157.224ZM325.641 157H327.001V153.64C327.001 152.472 327.049 150.056 329.225 150.056C330.281 150.056 330.969 150.664 330.969 152.152V157H332.329V151.832C332.329 150.072 331.529 148.856 329.561 148.856C327.849 148.856 327.081 150.072 326.969 150.424V149.08H325.641V157ZM337.531 157.224C338.923 157.224 339.691 156.456 340.075 155.784V157H341.403V145.8H340.043V148.76V150.312C339.659 149.64 338.923 148.856 337.531 148.856C335.707 148.856 334.315 150.44 334.315 153.048C334.315 155.656 335.707 157.224 337.531 157.224ZM337.883 156.024C336.619 156.024 335.707 155.272 335.707 153.064C335.707 150.856 336.619 150.056 337.883 150.056C339.179 150.056 340.123 151.064 340.123 153.064C340.123 155.064 339.179 156.024 337.883 156.024Z" fill="#6E6E78"/><path d="M485 58C485 57.4477 484.552 57 484 57C483.448 57 483 57.4477 483 58L485 58ZM483.293 148.707C483.683 149.098 484.317 149.098 484.707 148.707L491.071 142.343C491.462 141.953 491.462 141.319 491.071 140.929C490.681 140.538 490.047 140.538 489.657 140.929L484 146.586L478.343 140.929C477.953 140.538 477.319 140.538 476.929 140.929C476.538 141.319 476.538 141.953 476.929 142.343L483.293 148.707ZM483 58L483 148L485 148L485 58L483 58Z" fill="#DA372C"/><path d="M378.148 77H383.172C385.108 77 386.788 76.072 386.788 73.912C386.788 72.248 385.476 71.384 384.34 71.16C385.3 70.968 386.42 70.12 386.42 68.568C386.42 66.936 385.3 65.8 382.948 65.8H378.148V77ZM379.588 70.52V67.16H382.82C384.084 67.16 384.9 67.704 384.9 68.76C384.9 69.816 384.084 70.52 382.82 70.52H379.588ZM379.588 75.64V71.864H382.964C384.388 71.864 385.236 72.568 385.236 73.72C385.236 74.872 384.388 75.64 382.964 75.64H379.588ZM391.56 77.224C393.208 77.224 393.96 76.056 394.2 75.624V77H395.528V69.08H394.168V72.44C394.168 73.656 394.136 76.024 391.992 76.024C390.952 76.024 390.28 75.416 390.28 73.928V69.08H388.92V74.248C388.92 76.008 389.704 77.224 391.56 77.224ZM400.971 77H402.795V75.8H401.147C400.587 75.8 400.347 75.56 400.347 75V70.232H402.507V69.08H400.347V66.6H398.987V69.08H397.147V70.232H398.987V75.08C398.987 76.392 399.659 77 400.971 77ZM407.268 77H409.092V75.8H407.444C406.884 75.8 406.644 75.56 406.644 75V70.232H408.804V69.08H406.644V66.6H405.284V69.08H403.444V70.232H405.284V75.08C405.284 76.392 405.956 77 407.268 77ZM413.791 77.224C415.871 77.224 417.471 75.432 417.471 73.048C417.471 70.664 415.935 68.856 413.791 68.856C411.647 68.856 410.111 70.664 410.111 73.048C410.111 75.432 411.711 77.224 413.791 77.224ZM413.791 76.024C412.447 76.024 411.519 75.064 411.519 73.064C411.519 71.064 412.447 70.056 413.791 70.056C415.135 70.056 416.063 71.064 416.063 73.064C416.063 75.064 415.135 76.024 413.791 76.024ZM419.532 77H420.892V73.64C420.892 72.472 420.94 70.056 423.116 70.056C424.172 70.056 424.86 70.664 424.86 72.152V77H426.22V71.832C426.22 70.072 425.42 68.856 423.452 68.856C421.74 68.856 420.972 70.072 420.86 70.424V69.08H419.532V77ZM435.409 77H437.233V75.8H435.585C435.025 75.8 434.785 75.56 434.785 75V70.232H436.945V69.08H434.785V66.6H433.424V69.08H431.585V70.232H433.424V75.08C433.424 76.392 434.097 77 435.409 77ZM441.867 77.224C443.355 77.224 444.683 76.552 445.275 74.936L444.027 74.504C443.819 75.016 443.259 76.04 441.915 76.04C440.811 76.04 439.707 75.4 439.627 73.4H445.211C445.515 70.808 444.091 68.856 441.787 68.856C439.771 68.856 438.283 70.472 438.283 73.08C438.283 75.768 439.707 77.224 441.867 77.224ZM439.659 72.264C439.771 70.824 440.747 69.976 441.787 69.976C442.875 69.976 443.819 70.76 443.819 72.264H439.659ZM446.273 77H447.761L448.769 75.496L449.777 73.976C450.001 74.328 450.177 74.6 450.769 75.496L451.761 77H453.393L450.641 72.968L453.233 69.08H451.729L450.865 70.44C450.257 71.384 450.065 71.672 449.841 71.992C449.649 71.672 449.473 71.384 448.881 70.44L448.017 69.08H446.433L448.993 72.952L446.273 77ZM457.799 77H459.623V75.8H457.975C457.415 75.8 457.175 75.56 457.175 75V70.232H459.335V69.08H457.175V66.6H455.815V69.08H453.975V70.232H455.815V75.08C455.815 76.392 456.487 77 457.799 77Z" fill="#6E6E78"/><path d="M522.293 116.293C521.902 116.683 521.902 117.317 522.293 117.707L528.657 124.071C529.047 124.462 529.681 124.462 530.071 124.071C530.462 123.681 530.462 123.047 530.071 122.657L524.414 117L530.071 111.343C530.462 110.953 530.462 110.319 530.071 109.929C529.681 109.538 529.047 109.538 528.657 109.929L522.293 116.293ZM571 133H572H571ZM570.293 165.707C570.683 166.098 571.317 166.098 571.707 165.707L578.071 159.343C578.462 158.953 578.462 158.319 578.071 157.929C577.681 157.538 577.047 157.538 576.657 157.929L571 163.586L565.343 157.929C564.953 157.538 564.319 157.538 563.929 157.929C563.538 158.319 563.538 158.953 563.929 159.343L570.293 165.707ZM555 116H523V118H555V116ZM570 133L570 165H572L572 133H570ZM555 118C563.284 118 570 124.716 570 133H572C572 123.611 564.389 116 555 116V118Z" fill="#DA372C"/><path d="M600.712 136H602.136V132.896H603.768V131.648H602.136V124.8H599.912L595.48 131.504V132.896H600.712V136ZM600.712 131.648H599.064H596.936L600.712 125.936V128.384V131.648ZM605.688 139.12H607.048V136.32V134.768C607.432 135.44 608.168 136.224 609.56 136.224C611.384 136.224 612.776 134.64 612.776 132.032C612.776 129.424 611.384 127.856 609.56 127.856C608.168 127.856 607.4 128.624 607.016 129.296V128.08H605.688V139.12ZM609.208 135.024C607.912 135.024 606.968 134.016 606.968 132.016C606.968 130.016 607.912 129.056 609.208 129.056C610.472 129.056 611.384 129.808 611.384 132.016C611.384 134.224 610.472 135.024 609.208 135.024ZM613.726 136H615.214L616.222 134.496L617.23 132.976C617.454 133.328 617.63 133.6 618.222 134.496L619.214 136H620.846L618.094 131.968L620.686 128.08H619.182L618.318 129.44C617.71 130.384 617.518 130.672 617.294 130.992C617.102 130.672 616.926 130.384 616.334 129.44L615.47 128.08H613.886L616.446 131.952L613.726 136ZM629.793 136.224C631.569 136.224 632.721 135.184 633.233 133.712L631.953 133.264C631.697 134.128 631.105 135.024 629.793 135.024C628.481 135.024 627.457 134.064 627.457 132.032C627.457 130.048 628.513 129.056 629.777 129.056C630.929 129.056 631.505 129.808 631.761 130.56L633.025 130.144C632.657 128.912 631.569 127.856 629.777 127.856C627.585 127.856 626.033 129.584 626.033 132.032C626.033 134.592 627.505 136.224 629.793 136.224ZM638.103 136.224C640.183 136.224 641.783 134.432 641.783 132.048C641.783 129.664 640.247 127.856 638.103 127.856C635.959 127.856 634.423 129.664 634.423 132.048C634.423 134.432 636.023 136.224 638.103 136.224ZM638.103 135.024C636.759 135.024 635.831 134.064 635.831 132.064C635.831 130.064 636.759 129.056 638.103 129.056C639.447 129.056 640.375 130.064 640.375 132.064C640.375 134.064 639.447 135.024 638.103 135.024ZM643.844 136H645.204V132.368C645.204 130.512 645.94 129.376 647.732 129.376C648.052 129.376 648.324 129.408 648.58 129.456V128.064C648.388 128.016 648.148 127.968 647.764 127.968C646.26 127.968 645.444 129.136 645.188 129.728V128.08H643.844V136ZM650.188 136H651.548V132.64C651.548 131.472 651.596 129.056 653.772 129.056C654.828 129.056 655.516 129.664 655.516 131.152V136H656.876V130.832C656.876 129.072 656.076 127.856 654.108 127.856C652.396 127.856 651.628 129.072 651.516 129.424V128.08H650.188V136ZM662.445 136.224C663.933 136.224 665.261 135.552 665.853 133.936L664.605 133.504C664.397 134.016 663.837 135.04 662.493 135.04C661.389 135.04 660.285 134.4 660.205 132.4H665.789C666.093 129.808 664.669 127.856 662.365 127.856C660.349 127.856 658.861 129.472 658.861 132.08C658.861 134.768 660.285 136.224 662.445 136.224ZM660.237 131.264C660.349 129.824 661.325 128.976 662.365 128.976C663.453 128.976 664.397 129.76 664.397 131.264H660.237ZM667.969 136H669.329V132.368C669.329 130.512 670.065 129.376 671.857 129.376C672.177 129.376 672.449 129.408 672.705 129.456V128.064C672.513 128.016 672.273 127.968 671.889 127.968C670.385 127.968 669.569 129.136 669.313 129.728V128.08H667.969V136ZM596.344 163H597.704V159.368C597.704 157.512 598.44 156.376 600.232 156.376C600.552 156.376 600.824 156.408 601.08 156.456V155.064C600.888 155.016 600.648 154.968 600.264 154.968C598.76 154.968 597.944 156.136 597.688 156.728V155.08H596.344V163ZM605.187 163.224C606.579 163.224 607.347 162.456 607.731 161.784V163H609.059V155.08H607.699V156.312C607.315 155.64 606.579 154.856 605.187 154.856C603.363 154.856 601.971 156.44 601.971 159.048C601.971 161.656 603.363 163.224 605.187 163.224ZM605.539 162.024C604.275 162.024 603.363 161.272 603.363 159.064C603.363 156.856 604.275 156.056 605.539 156.056C606.835 156.056 607.779 157.064 607.779 159.064C607.779 161.064 606.835 162.024 605.539 162.024ZM614.374 163.224C615.766 163.224 616.534 162.456 616.918 161.784V163H618.246V151.8H616.886V154.76V156.312C616.502 155.64 615.766 154.856 614.374 154.856C612.55 154.856 611.158 156.44 611.158 159.048C611.158 161.656 612.55 163.224 614.374 163.224ZM614.726 162.024C613.462 162.024 612.55 161.272 612.55 159.064C612.55 156.856 613.462 156.056 614.726 156.056C616.022 156.056 616.966 157.064 616.966 159.064C616.966 161.064 616.022 162.024 614.726 162.024ZM620.89 153.528H622.33V151.8H620.89V153.528ZM620.938 163H622.298V155.08H620.938V163ZM627.513 163.224C629.161 163.224 629.913 162.056 630.153 161.624V163H631.481V155.08H630.121V158.44C630.121 159.656 630.089 162.024 627.945 162.024C626.905 162.024 626.233 161.416 626.233 159.928V155.08H624.873V160.248C624.873 162.008 625.657 163.224 627.513 163.224ZM636.844 163.224C638.844 163.224 639.996 162.28 639.996 160.792C639.996 158.984 638.124 158.504 637.324 158.344L636.412 158.168C635.276 157.944 635.02 157.624 635.02 157.096C635.02 156.52 635.532 155.976 636.636 155.976C637.98 155.976 638.428 156.824 638.62 157.352L639.852 156.904C639.532 155.864 638.604 154.856 636.636 154.856C635.084 154.856 633.74 155.816 633.74 157.24C633.74 158.744 634.892 159.24 636.204 159.496L637.116 159.672C638.268 159.896 638.636 160.312 638.636 160.904C638.636 161.656 637.996 162.056 636.844 162.056C635.596 162.056 634.956 161.464 634.716 160.52L633.404 160.952C633.756 162.472 635.228 163.224 636.844 163.224Z" fill="#6E6E78"/><path d="M507 269C507 269.552 507.448 270 508 270C508.552 270 509 269.552 509 269L507 269ZM508.707 196.293C508.317 195.902 507.683 195.902 507.293 196.293L500.929 202.657C500.538 203.047 500.538 203.681 500.929 204.071C501.319 204.462 501.953 204.462 502.343 204.071L508 198.414L513.657 204.071C514.047 204.462 514.681 204.462 515.071 204.071C515.462 203.681 515.462 203.047 515.071 202.657L508.707 196.293ZM509 269L509 197L507 197L507 269L509 269Z" fill="#DA372C"/><path d="M406.975 265.68H408.175V264.208C410.447 264.032 411.695 262.72 411.695 260.896C411.695 259.2 410.431 258.24 408.655 257.792L408.175 257.664V253.952C409.471 254.208 409.983 255.2 410.191 255.792L411.519 255.136C411.231 254.192 410.191 252.832 408.175 252.608V251.12H406.975V252.608C405.071 252.832 403.807 254.064 403.807 255.712C403.807 257.568 404.959 258.384 406.607 258.736L406.975 258.816V262.848C405.727 262.576 404.975 261.664 404.607 260.544L403.247 261.2C403.743 262.768 405.007 263.952 406.975 264.192V265.68ZM406.975 257.392C405.727 257.072 405.183 256.592 405.183 255.632C405.183 254.72 405.855 254.032 406.975 253.904V255.968V257.392ZM408.175 262.912V260.848V259.088C409.567 259.408 410.239 260.032 410.239 261.024C410.239 262.064 409.487 262.784 408.175 262.912ZM416.391 264.224C418.391 264.224 419.543 263.28 419.543 261.792C419.543 259.984 417.671 259.504 416.871 259.344L415.959 259.168C414.823 258.944 414.567 258.624 414.567 258.096C414.567 257.52 415.079 256.976 416.183 256.976C417.527 256.976 417.975 257.824 418.167 258.352L419.399 257.904C419.079 256.864 418.151 255.856 416.183 255.856C414.631 255.856 413.287 256.816 413.287 258.24C413.287 259.744 414.439 260.24 415.751 260.496L416.663 260.672C417.815 260.896 418.183 261.312 418.183 261.904C418.183 262.656 417.543 263.056 416.391 263.056C415.143 263.056 414.503 262.464 414.263 261.52L412.951 261.952C413.303 263.472 414.775 264.224 416.391 264.224ZM421.578 267.12H422.938V264.32V262.768C423.322 263.44 424.058 264.224 425.45 264.224C427.274 264.224 428.666 262.64 428.666 260.032C428.666 257.424 427.274 255.856 425.45 255.856C424.058 255.856 423.29 256.624 422.906 257.296V256.08H421.578V267.12ZM425.098 263.024C423.802 263.024 422.858 262.016 422.858 260.016C422.858 258.016 423.802 257.056 425.098 257.056C426.362 257.056 427.274 257.808 427.274 260.016C427.274 262.224 426.362 263.024 425.098 263.024ZM433.39 264.224C434.782 264.224 435.55 263.456 435.934 262.784V264H437.262V256.08H435.902V257.312C435.518 256.64 434.782 255.856 433.39 255.856C431.566 255.856 430.174 257.44 430.174 260.048C430.174 262.656 431.566 264.224 433.39 264.224ZM433.742 263.024C432.478 263.024 431.566 262.272 431.566 260.064C431.566 257.856 432.478 257.056 433.742 257.056C435.038 257.056 435.982 258.064 435.982 260.064C435.982 262.064 435.038 263.024 433.742 263.024ZM443.105 264.224C444.881 264.224 446.033 263.184 446.545 261.712L445.265 261.264C445.009 262.128 444.417 263.024 443.105 263.024C441.793 263.024 440.769 262.064 440.769 260.032C440.769 258.048 441.825 257.056 443.089 257.056C444.241 257.056 444.817 257.808 445.073 258.56L446.337 258.144C445.969 256.912 444.881 255.856 443.089 255.856C440.897 255.856 439.345 257.584 439.345 260.032C439.345 262.592 440.817 264.224 443.105 264.224ZM448.312 254.528H449.752V252.8H448.312V254.528ZM448.36 264H449.72V256.08H448.36V264ZM452.407 264H453.767V260.64C453.767 259.472 453.815 257.056 455.991 257.056C457.047 257.056 457.735 257.664 457.735 259.152V264H459.095V258.832C459.095 257.072 458.295 255.856 456.327 255.856C454.615 255.856 453.847 257.072 453.735 257.424V256.08H452.407V264ZM462.952 267.12H466.648C467.992 267.12 469.128 266.416 469.128 264.944C469.128 263.616 468.136 262.752 466.616 262.752H463.16C462.6 262.752 462.488 262.464 462.488 262.208C462.488 261.92 462.776 261.616 463.208 261.424C463.64 261.68 464.136 261.728 464.68 261.728C466.44 261.728 467.64 260.56 467.768 258.768L467.8 258.336C467.864 257.408 468.136 257.232 468.856 257.232H469.464V256.08H468.616C467.848 256.08 467.48 256.608 467.32 257.216C466.984 256.656 466.152 255.856 464.68 255.856C462.856 255.856 461.528 257.152 461.528 258.8C461.528 259.792 461.96 260.512 462.408 260.912C461.896 261.28 461.24 261.808 461.24 262.592C461.24 263.216 461.496 263.584 461.944 263.856C461.464 264.128 460.888 264.72 460.888 265.52C460.888 266.448 461.432 267.12 462.952 267.12ZM464.68 260.608C463.608 260.608 462.904 259.888 462.904 258.8C462.904 257.712 463.608 256.976 464.68 256.976C465.752 256.976 466.456 257.712 466.456 258.8C466.456 259.888 465.752 260.608 464.68 260.608ZM463.416 265.904C462.584 265.904 462.136 265.728 462.136 265.072C462.136 264.528 462.488 264.176 462.76 264H466.504C467.128 264 467.752 264.128 467.752 264.944C467.752 265.76 467.128 265.904 466.504 265.904H463.416ZM470.62 259.776H475.036V258.336H470.62V259.776ZM480.157 264.224C482.157 264.224 483.309 263.28 483.309 261.792C483.309 259.984 481.437 259.504 480.637 259.344L479.725 259.168C478.589 258.944 478.333 258.624 478.333 258.096C478.333 257.52 478.845 256.976 479.949 256.976C481.293 256.976 481.741 257.824 481.933 258.352L483.165 257.904C482.845 256.864 481.917 255.856 479.949 255.856C478.397 255.856 477.053 256.816 477.053 258.24C477.053 259.744 478.205 260.24 479.517 260.496L480.429 260.672C481.581 260.896 481.949 261.312 481.949 261.904C481.949 262.656 481.309 263.056 480.157 263.056C478.909 263.056 478.269 262.464 478.029 261.52L476.717 261.952C477.069 263.472 478.541 264.224 480.157 264.224Z" fill="#6E6E78"/></svg>