<svg width="684" height="186" viewBox="0 0 684 186" fill="none" xmlns="http://www.w3.org/2000/svg">
<rect x="143" y="70" width="540" height="74" rx="7" fill="white"/>
<path d="M173.252 116H175.772V98.78H183.024V96.4H166.28V98.78H173.252V116ZM187.946 116.392C191.586 116.392 194.386 113.256 194.386 109.084C194.386 104.912 191.698 101.748 187.946 101.748C184.194 101.748 181.506 104.912 181.506 109.084C181.506 113.256 184.306 116.392 187.946 116.392ZM187.946 114.292C185.594 114.292 183.97 112.612 183.97 109.112C183.97 105.612 185.594 103.848 187.946 103.848C190.298 103.848 191.922 105.612 191.922 109.112C191.922 112.612 190.298 114.292 187.946 114.292ZM202.585 116.392C205.021 116.392 206.365 115.048 207.037 113.872V116H209.361V96.4H206.981V101.58V104.296C206.309 103.12 205.021 101.748 202.585 101.748C199.393 101.748 196.957 104.52 196.957 109.084C196.957 113.648 199.393 116.392 202.585 116.392ZM203.201 114.292C200.989 114.292 199.393 112.976 199.393 109.112C199.393 105.248 200.989 103.848 203.201 103.848C205.469 103.848 207.121 105.612 207.121 109.112C207.121 112.612 205.469 114.292 203.201 114.292ZM218.663 116.392C221.099 116.392 222.443 115.048 223.115 113.872V116H225.439V96.4H223.059V101.58V104.296C222.387 103.12 221.099 101.748 218.663 101.748C215.471 101.748 213.035 104.52 213.035 109.084C213.035 113.648 215.471 116.392 218.663 116.392ZM219.279 114.292C217.067 114.292 215.471 112.976 215.471 109.112C215.471 105.248 217.067 103.848 219.279 103.848C221.547 103.848 223.199 105.612 223.199 109.112C223.199 112.612 221.547 114.292 219.279 114.292Z" fill="#1D1D21"/>
<rect x="143" y="70" width="540" height="74" rx="7" stroke="#C1C1C8" stroke-width="2"/>
<path d="M144.548 42H148.188V34.216H156.98V31.08H148.188V25.508H159.248V22.4H144.548V42ZM161.842 25.844H165.482V22.372H161.842V25.844ZM161.982 42H165.37V28.056H161.982V42ZM169.474 42H172.89V36.12C172.89 32.704 174.15 31.276 177.118 31.276C177.622 31.276 178.126 31.304 178.63 31.388V27.888C178.378 27.832 178.098 27.804 177.706 27.804C174.598 27.804 173.282 30.016 172.834 31.136V28.056H169.474V42ZM186.22 42.392C190.112 42.392 192.38 40.628 192.38 37.912C192.38 35.056 189.804 33.992 187.592 33.572L185.8 33.208C184.12 32.9 183.672 32.452 183.672 31.668C183.672 30.828 184.428 30.1 185.968 30.1C187.704 30.1 188.628 31.164 189.02 32.228L191.904 30.996C191.316 29.428 189.58 27.636 186.08 27.636C182.72 27.636 180.424 29.372 180.424 31.976C180.424 34.692 182.216 35.616 184.932 36.148L186.78 36.512C188.432 36.848 188.852 37.464 188.852 38.248C188.852 39.228 187.984 39.872 186.36 39.872C183.84 39.872 183.168 38.164 183 37.38L179.836 38.388C180.452 40.936 183.084 42.392 186.22 42.392ZM200.133 42H204.277V39.2H201.309C200.413 39.2 200.021 38.808 200.021 37.912V30.716H203.717V28.056H200.021V23.66H196.605V28.056H193.581V30.716H196.605V38.444C196.605 40.656 197.865 42 200.133 42ZM213.826 42H217.242V35.644C217.242 33.936 217.298 30.492 220.434 30.492C221.974 30.492 222.954 31.388 222.954 33.488V42H226.37V32.732C226.37 29.68 224.998 27.636 221.666 27.636C218.95 27.636 217.606 29.456 217.158 30.268V28.056H213.826V42ZM233.981 42.42C236.333 42.42 237.817 41.244 238.657 39.928C238.825 41.16 239.441 42 241.205 42H243.837V39.312H242.521C241.793 39.312 241.681 39.144 241.681 38.472V32.844C241.681 29.428 239.581 27.636 235.745 27.636C231.825 27.636 229.641 29.68 229.305 31.752L232.469 32.564C232.805 31.332 233.673 30.24 235.745 30.24C237.537 30.24 238.321 31.052 238.321 32.424V32.9C233.701 33.32 229.529 34.524 229.529 38.416C229.529 40.88 231.377 42.42 233.981 42.42ZM235.101 39.844C233.701 39.844 233.001 39.144 233.001 38.08C233.001 36.092 235.437 35.476 238.321 35.14V36.26C238.321 38.752 236.753 39.844 235.101 39.844ZM246.064 42H249.48V35.112C249.48 33.488 249.592 30.52 252.42 30.52C253.904 30.52 254.912 31.332 254.912 33.488V42H258.272V35.112C258.272 33.488 258.328 30.52 261.184 30.52C262.696 30.52 263.676 31.332 263.676 33.488V42H267.092V32.704C267.092 29.204 265.188 27.636 262.388 27.636C260.176 27.636 258.72 28.672 257.712 30.268C256.928 28.672 255.528 27.636 253.568 27.636C251.58 27.636 250.152 28.7 249.396 30.1V28.056H246.064V42ZM276.936 42.42C280.604 42.42 282.564 40.516 283.46 38.36L280.38 37.212C279.876 38.388 278.952 39.732 276.964 39.732C275.172 39.732 273.66 38.696 273.52 35.868H283.376C283.824 31.248 281.332 27.636 276.88 27.636C273.016 27.636 270.132 30.576 270.132 35.028C270.132 39.676 272.82 42.42 276.936 42.42ZM273.632 33.348C273.884 31.332 275.2 30.184 276.88 30.184C278.644 30.184 279.876 31.304 279.988 33.348H273.632Z" fill="#1D1D21"/>
<path d="M591.5 9L591.5 8.5L590.5 8.5L590.5 9L591.5 9ZM590.646 63.3536C590.842 63.5488 591.158 63.5488 591.354 63.3536L594.536 60.1716C594.731 59.9763 594.731 59.6597 594.536 59.4645C594.34 59.2692 594.024 59.2692 593.828 59.4645L591 62.2929L588.172 59.4645C587.976 59.2692 587.66 59.2692 587.464 59.4645C587.269 59.6597 587.269 59.9763 587.464 60.1716L590.646 63.3536ZM590.5 9L590.5 63L591.5 63L591.5 9L590.5 9Z" fill="#F47C25"/>
<path d="M490.21 24H491.29V16.62H494.398V15.6H487.222V16.62H490.21V24ZM495.492 16.896H496.572V15.6H495.492V16.896ZM495.528 24H496.548V18.06H495.528V24ZM498.563 24H499.583V21.48C499.583 20.604 499.619 18.792 501.251 18.792C502.043 18.792 502.559 19.248 502.559 20.364V24H503.579V20.124C503.579 18.804 502.979 17.892 501.503 17.892C500.219 17.892 499.643 18.804 499.559 19.068V18.06H498.563V24ZM509.1 18.06L508.02 21.312C507.78 22.032 507.708 22.248 507.6 22.596C507.48 22.284 507.384 22.044 507.012 21.144L505.74 18.06H504.588L507.156 23.928L506.82 24.876C506.664 25.32 506.4 25.404 506.004 25.404H504.876V26.34H506.004C507.048 26.34 507.48 25.992 507.876 24.816L510.18 18.06H509.1ZM516.41 24.168C517.91 24.168 518.774 23.46 518.774 22.344C518.774 20.988 517.37 20.628 516.77 20.508L516.086 20.376C515.234 20.208 515.042 19.968 515.042 19.572C515.042 19.14 515.426 18.732 516.254 18.732C517.262 18.732 517.598 19.368 517.742 19.764L518.666 19.428C518.426 18.648 517.73 17.892 516.254 17.892C515.09 17.892 514.082 18.612 514.082 19.68C514.082 20.808 514.946 21.18 515.93 21.372L516.614 21.504C517.478 21.672 517.754 21.984 517.754 22.428C517.754 22.992 517.274 23.292 516.41 23.292C515.474 23.292 514.994 22.848 514.814 22.14L513.83 22.464C514.094 23.604 515.198 24.168 516.41 24.168ZM520.301 26.34H521.321V24.24V23.076C521.609 23.58 522.161 24.168 523.205 24.168C524.573 24.168 525.617 22.98 525.617 21.024C525.617 19.068 524.573 17.892 523.205 17.892C522.161 17.892 521.585 18.468 521.297 18.972V18.06H520.301V26.34ZM522.941 23.268C521.969 23.268 521.261 22.512 521.261 21.012C521.261 19.512 521.969 18.792 522.941 18.792C523.889 18.792 524.573 19.356 524.573 21.012C524.573 22.668 523.889 23.268 522.941 23.268ZM528.728 24.168C529.652 24.168 530.216 23.772 530.66 23.1C530.732 23.592 530.864 24 531.764 24H532.544V23.1H531.92C531.644 23.1 531.572 23.028 531.572 22.752V19.932C531.572 18.708 530.84 17.892 529.256 17.892C527.708 17.892 526.892 18.732 526.676 19.524L527.672 19.884C527.828 19.44 528.152 18.792 529.244 18.792C530.156 18.792 530.552 19.224 530.552 19.944V20.112C528.62 20.268 526.808 20.832 526.808 22.464C526.808 23.52 527.552 24.168 528.728 24.168ZM528.968 23.304C528.224 23.304 527.864 22.944 527.864 22.38C527.864 21.408 529.1 21.036 530.552 20.88V21.54C530.552 22.776 529.748 23.304 528.968 23.304ZM536.001 24.168C537.333 24.168 538.197 23.388 538.581 22.284L537.621 21.948C537.429 22.596 536.985 23.268 536.001 23.268C535.017 23.268 534.249 22.548 534.249 21.024C534.249 19.536 535.041 18.792 535.989 18.792C536.853 18.792 537.285 19.356 537.477 19.92L538.425 19.608C538.149 18.684 537.333 17.892 535.989 17.892C534.345 17.892 533.181 19.188 533.181 21.024C533.181 22.944 534.285 24.168 536.001 24.168ZM539.906 16.896H540.986V15.6H539.906V16.896ZM539.942 24H540.962V18.06H539.942V24ZM542.977 24H543.997V21.48C543.997 20.604 544.033 18.792 545.665 18.792C546.457 18.792 546.973 19.248 546.973 20.364V24H547.993V20.124C547.993 18.804 547.393 17.892 545.917 17.892C544.633 17.892 544.057 18.804 543.973 19.068V18.06H542.977V24ZM550.886 26.34H553.658C554.666 26.34 555.518 25.812 555.518 24.708C555.518 23.712 554.774 23.064 553.634 23.064H551.042C550.622 23.064 550.538 22.848 550.538 22.656C550.538 22.44 550.754 22.212 551.078 22.068C551.402 22.26 551.774 22.296 552.182 22.296C553.502 22.296 554.402 21.42 554.498 20.076L554.522 19.752C554.57 19.056 554.774 18.924 555.314 18.924H555.77V18.06H555.134C554.558 18.06 554.282 18.456 554.162 18.912C553.91 18.492 553.286 17.892 552.182 17.892C550.814 17.892 549.818 18.864 549.818 20.1C549.818 20.844 550.142 21.384 550.478 21.684C550.094 21.96 549.602 22.356 549.602 22.944C549.602 23.412 549.794 23.688 550.13 23.892C549.77 24.096 549.338 24.54 549.338 25.14C549.338 25.836 549.746 26.34 550.886 26.34ZM552.182 21.456C551.378 21.456 550.85 20.916 550.85 20.1C550.85 19.284 551.378 18.732 552.182 18.732C552.986 18.732 553.514 19.284 553.514 20.1C553.514 20.916 552.986 21.456 552.182 21.456ZM551.234 25.428C550.61 25.428 550.274 25.296 550.274 24.804C550.274 24.396 550.538 24.132 550.742 24H553.55C554.018 24 554.486 24.096 554.486 24.708C554.486 25.32 554.018 25.428 553.55 25.428H551.234ZM562.894 24.168C564.814 24.168 565.81 22.8 565.81 21.252C565.81 19.812 564.826 18.576 563.134 18.576C562.102 18.576 561.202 19.152 560.842 20.076C560.83 17.592 562.138 16.488 563.842 16.488C564.394 16.488 564.886 16.596 565.318 16.752V15.672C564.886 15.516 564.238 15.432 563.818 15.432C561.058 15.432 559.762 17.508 559.762 20.088C559.762 22.8 561.058 24.168 562.894 24.168ZM562.906 23.208C561.91 23.208 561.142 22.488 561.142 21.372C561.142 20.256 561.91 19.536 562.906 19.536C563.878 19.536 564.67 20.256 564.67 21.372C564.67 22.488 563.878 23.208 562.906 23.208ZM567.399 26.34H568.419V24.24V23.076C568.707 23.58 569.259 24.168 570.303 24.168C571.671 24.168 572.715 22.98 572.715 21.024C572.715 19.068 571.671 17.892 570.303 17.892C569.259 17.892 568.683 18.468 568.395 18.972V18.06H567.399V26.34ZM570.039 23.268C569.067 23.268 568.359 22.512 568.359 21.012C568.359 19.512 569.067 18.792 570.039 18.792C570.987 18.792 571.671 19.356 571.671 21.012C571.671 22.668 570.987 23.268 570.039 23.268ZM573.427 24H574.543L575.299 22.872L576.055 21.732C576.223 21.996 576.355 22.2 576.799 22.872L577.543 24H578.767L576.703 20.976L578.647 18.06H577.519L576.871 19.08C576.415 19.788 576.271 20.004 576.103 20.244C575.959 20.004 575.827 19.788 575.383 19.08L574.735 18.06H573.547L575.467 20.964L573.427 24Z" fill="#F47C25"/>
<path d="M219.5 185L219.5 185.5L218.5 185.5L218.5 185L219.5 185ZM218.646 130.646C218.842 130.451 219.158 130.451 219.354 130.646L222.536 133.828C222.731 134.024 222.731 134.34 222.536 134.536C222.34 134.731 222.024 134.731 221.828 134.536L219 131.707L216.172 134.536C215.976 134.731 215.66 134.731 215.464 134.536C215.269 134.34 215.269 134.024 215.464 133.828L218.646 130.646ZM218.5 185L218.5 131L219.5 131L219.5 185L218.5 185Z" fill="#F47C25"/>
<path d="M232.236 179H233.316V170.6H232.236V179ZM235.559 179H236.579V176.48C236.579 175.604 236.615 173.792 238.247 173.792C239.039 173.792 239.555 174.248 239.555 175.364V179H240.575V175.124C240.575 173.804 239.975 172.892 238.499 172.892C237.215 172.892 236.639 173.804 236.555 174.068V173.06H235.559V179ZM242.508 181.34H243.528V179.24V178.076C243.816 178.58 244.368 179.168 245.412 179.168C246.78 179.168 247.824 177.98 247.824 176.024C247.824 174.068 246.78 172.892 245.412 172.892C244.368 172.892 243.792 173.468 243.504 173.972V173.06H242.508V181.34ZM245.148 178.268C244.176 178.268 243.468 177.512 243.468 176.012C243.468 174.512 244.176 173.792 245.148 173.792C246.096 173.792 246.78 174.356 246.78 176.012C246.78 177.668 246.096 178.268 245.148 178.268ZM251.295 179.168C252.531 179.168 253.095 178.292 253.275 177.968V179H254.271V173.06H253.251V175.58C253.251 176.492 253.227 178.268 251.619 178.268C250.839 178.268 250.335 177.812 250.335 176.696V173.06H249.315V176.936C249.315 178.256 249.903 179.168 251.295 179.168ZM258.353 179H259.721V178.1H258.485C258.065 178.1 257.885 177.92 257.885 177.5V173.924H259.505V173.06H257.885V171.2H256.865V173.06H255.485V173.924H256.865V177.56C256.865 178.544 257.369 179 258.353 179ZM265.97 179H267.338V178.1H266.102C265.682 178.1 265.502 177.92 265.502 177.5V173.924H267.122V173.06H265.502V171.2H264.482V173.06H263.102V173.924H264.482V177.56C264.482 178.544 264.986 179 265.97 179ZM270.815 179.168C271.931 179.168 272.927 178.664 273.371 177.452L272.435 177.128C272.279 177.512 271.859 178.28 270.851 178.28C270.023 178.28 269.195 177.8 269.135 176.3H273.323C273.551 174.356 272.483 172.892 270.755 172.892C269.243 172.892 268.127 174.104 268.127 176.06C268.127 178.076 269.195 179.168 270.815 179.168ZM269.159 175.448C269.243 174.368 269.975 173.732 270.755 173.732C271.571 173.732 272.279 174.32 272.279 175.448H269.159ZM274.119 179H275.235L275.991 177.872L276.747 176.732C276.915 176.996 277.047 177.2 277.491 177.872L278.235 179H279.459L277.395 175.976L279.339 173.06H278.211L277.563 174.08C277.107 174.788 276.963 175.004 276.795 175.244C276.651 175.004 276.519 174.788 276.075 174.08L275.427 173.06H274.239L276.159 175.964L274.119 179ZM282.763 179H284.131V178.1H282.895C282.475 178.1 282.295 177.92 282.295 177.5V173.924H283.915V173.06H282.295V171.2H281.275V173.06H279.895V173.924H281.275V177.56C281.275 178.544 281.779 179 282.763 179Z" fill="#F47C25"/>
<path d="M1 130.5L0.5 130.5L0.5 131.5L1 131.5L1 130.5ZM166.354 131.354C166.549 131.158 166.549 130.842 166.354 130.646L163.172 127.464C162.976 127.269 162.66 127.269 162.464 127.464C162.269 127.66 162.269 127.976 162.464 128.172L165.293 131L162.464 133.828C162.269 134.024 162.269 134.34 162.464 134.536C162.66 134.731 162.976 134.731 163.172 134.536L166.354 131.354ZM1 131.5L166 131.5L166 130.5L1 130.5L1 131.5Z" fill="#F47C25"/>
<path d="M1 32.5L0.5 32.5L0.5 33.5L1 33.5L1 32.5ZM132.354 33.3535C132.549 33.1583 132.549 32.8417 132.354 32.6464L129.172 29.4645C128.976 29.2692 128.66 29.2692 128.464 29.4645C128.269 29.6597 128.269 29.9763 128.464 30.1716L131.293 33L128.464 35.8284C128.269 36.0237 128.269 36.3403 128.464 36.5355C128.66 36.7308 128.976 36.7308 129.172 36.5355L132.354 33.3535ZM1 33.5L132 33.5L132 32.5L1 32.5L1 33.5Z" fill="#F47C25"/>
<path d="M2.236 113H3.316V104.6H2.236V113ZM5.55878 113H6.57878V110.48C6.57878 109.604 6.61478 107.792 8.24678 107.792C9.03878 107.792 9.55478 108.248 9.55478 109.364V113H10.5748V109.124C10.5748 107.804 9.97478 106.892 8.49878 106.892C7.21478 106.892 6.63878 107.804 6.55478 108.068V107.06H5.55878V113ZM12.508 115.34H13.528V113.24V112.076C13.816 112.58 14.368 113.168 15.412 113.168C16.78 113.168 17.824 111.98 17.824 110.024C17.824 108.068 16.78 106.892 15.412 106.892C14.368 106.892 13.792 107.468 13.504 107.972V107.06H12.508V115.34ZM15.148 112.268C14.176 112.268 13.468 111.512 13.468 110.012C13.468 108.512 14.176 107.792 15.148 107.792C16.096 107.792 16.78 108.356 16.78 110.012C16.78 111.668 16.096 112.268 15.148 112.268ZM21.2946 113.168C22.5306 113.168 23.0946 112.292 23.2746 111.968V113H24.2706V107.06H23.2506V109.58C23.2506 110.492 23.2266 112.268 21.6186 112.268C20.8386 112.268 20.3346 111.812 20.3346 110.696V107.06H19.3146V110.936C19.3146 112.256 19.9026 113.168 21.2946 113.168ZM28.3533 113H29.7213V112.1H28.4853C28.0653 112.1 27.8853 111.92 27.8853 111.5V107.924H29.5053V107.06H27.8853V105.2H26.8652V107.06H25.4853V107.924H26.8652V111.56C26.8652 112.544 27.3693 113 28.3533 113ZM39.3299 107.06H35.4899V106.1C35.4899 105.68 35.6699 105.5 36.0899 105.5H37.2659V104.6H35.9699C34.9859 104.6 34.4699 105.068 34.4699 106.172V107.06H33.1499V107.924H34.4699V113H35.4899V107.924H38.3099V113H39.3299V107.06ZM38.2739 104.6V105.896H39.3539V104.6H38.2739ZM43.5918 113.168C44.7078 113.168 45.7038 112.664 46.1478 111.452L45.2118 111.128C45.0558 111.512 44.6358 112.28 43.6278 112.28C42.7998 112.28 41.9718 111.8 41.9118 110.3H46.0998C46.3278 108.356 45.2598 106.892 43.5318 106.892C42.0198 106.892 40.9038 108.104 40.9038 110.06C40.9038 112.076 41.9718 113.168 43.5918 113.168ZM41.9358 109.448C42.0198 108.368 42.7518 107.732 43.5318 107.732C44.3478 107.732 45.0558 108.32 45.0558 109.448H41.9358ZM47.7346 113H48.7546V104.6H47.7346V113ZM52.7377 113.168C53.7817 113.168 54.3577 112.592 54.6457 112.088V113H55.6417V104.6H54.6217V106.82V107.984C54.3337 107.48 53.7817 106.892 52.7377 106.892C51.3697 106.892 50.3257 108.08 50.3257 110.036C50.3257 111.992 51.3697 113.168 52.7377 113.168ZM53.0017 112.268C52.0537 112.268 51.3697 111.704 51.3697 110.048C51.3697 108.392 52.0537 107.792 53.0017 107.792C53.9737 107.792 54.6817 108.548 54.6817 110.048C54.6817 111.548 53.9737 112.268 53.0017 112.268Z" fill="#F47C25"/>
<path d="M2.236 15H3.316V6.6H2.236V15ZM5.55878 15H6.57878V12.48C6.57878 11.604 6.61478 9.792 8.24678 9.792C9.03878 9.792 9.55478 10.248 9.55478 11.364V15H10.5748V11.124C10.5748 9.804 9.97478 8.892 8.49878 8.892C7.21478 8.892 6.63878 9.804 6.55478 10.068V9.06H5.55878V15ZM12.508 17.34H13.528V15.24V14.076C13.816 14.58 14.368 15.168 15.412 15.168C16.78 15.168 17.824 13.98 17.824 12.024C17.824 10.068 16.78 8.892 15.412 8.892C14.368 8.892 13.792 9.468 13.504 9.972V9.06H12.508V17.34ZM15.148 14.268C14.176 14.268 13.468 13.512 13.468 12.012C13.468 10.512 14.176 9.792 15.148 9.792C16.096 9.792 16.78 10.356 16.78 12.012C16.78 13.668 16.096 14.268 15.148 14.268ZM21.2946 15.168C22.5306 15.168 23.0946 14.292 23.2746 13.968V15H24.2706V9.06H23.2506V11.58C23.2506 12.492 23.2266 14.268 21.6186 14.268C20.8386 14.268 20.3346 13.812 20.3346 12.696V9.06H19.3146V12.936C19.3146 14.256 19.9026 15.168 21.2946 15.168ZM28.3533 15H29.7213V14.1H28.4853C28.0653 14.1 27.8853 13.92 27.8853 13.5V9.924H29.5053V9.06H27.8853V7.2H26.8652V9.06H25.4853V9.924H26.8652V13.56C26.8652 14.544 27.3693 15 28.3533 15ZM34.1174 15H35.1374V6.6H34.1174V15ZM38.6885 15.168C39.6125 15.168 40.1765 14.772 40.6205 14.1C40.6925 14.592 40.8245 15 41.7245 15H42.5045V14.1H41.8805C41.6045 14.1 41.5325 14.028 41.5325 13.752V10.932C41.5325 9.708 40.8005 8.892 39.2165 8.892C37.6685 8.892 36.8525 9.732 36.6365 10.524L37.6325 10.884C37.7885 10.44 38.1125 9.792 39.2045 9.792C40.1165 9.792 40.5125 10.224 40.5125 10.944V11.112C38.5805 11.268 36.7685 11.832 36.7685 13.464C36.7685 14.52 37.5125 15.168 38.6885 15.168ZM38.9285 14.304C38.1845 14.304 37.8245 13.944 37.8245 13.38C37.8245 12.408 39.0605 12.036 40.5125 11.88V12.54C40.5125 13.776 39.7085 14.304 38.9285 14.304ZM46.5018 15.168C47.8698 15.168 48.9138 13.98 48.9138 12.024C48.9138 10.068 47.8698 8.892 46.5018 8.892C45.4578 8.892 44.9058 9.468 44.6178 9.972V8.82V6.6H43.5978V15H44.5938V14.076C44.8818 14.58 45.4578 15.168 46.5018 15.168ZM46.2378 14.268C45.2658 14.268 44.5578 13.512 44.5578 12.012C44.5578 10.512 45.2658 9.792 46.2378 9.792C47.1858 9.792 47.8698 10.356 47.8698 12.012C47.8698 13.668 47.1858 14.268 46.2378 14.268ZM52.7325 15.168C53.8485 15.168 54.8445 14.664 55.2885 13.452L54.3525 13.128C54.1965 13.512 53.7765 14.28 52.7685 14.28C51.9405 14.28 51.1125 13.8 51.0525 12.3H55.2405C55.4685 10.356 54.4005 8.892 52.6725 8.892C51.1605 8.892 50.0445 10.104 50.0445 12.06C50.0445 14.076 51.1125 15.168 52.7325 15.168ZM51.0765 11.448C51.1605 10.368 51.8925 9.732 52.6725 9.732C53.4885 9.732 54.1965 10.32 54.1965 11.448H51.0765ZM56.8752 15H57.8952V6.6H56.8752V15Z" fill="#F47C25"/>
<rect opacity="0.2" x="142" y="57" width="542" height="12" fill="#F47C25"/>
</svg>
