<svg width="959" height="307" viewBox="0 0 959 307" fill="none" xmlns="http://www.w3.org/2000/svg">
<rect x="354" y="116" width="251" height="76" rx="8" fill="#1662DD"/>
<path d="M406.111 153.452V159.73H409.313C409.732 159.73 410.101 159.454 410.221 159.052L411.889 153.452H406.111Z" fill="white"/>
<path d="M404.215 145.277H397.831V151.555H404.215V145.277Z" fill="white"/>
<path d="M413.812 145.659C413.633 145.419 413.351 145.277 413.052 145.277H406.111V151.555H412.454L413.96 146.496C414.046 146.209 413.991 145.899 413.812 145.659Z" fill="white"/>
<path d="M404.215 153.452H397.831V159.73H404.215V153.452Z" fill="white"/>
<path d="M388.924 145.278L387.649 140.994C387.529 140.592 387.159 140.316 386.74 140.316H382.948C382.424 140.316 382 140.741 382 141.264C382 141.788 382.424 142.212 382.948 142.212H386.033L387.303 146.476C387.307 146.49 387.311 146.504 387.315 146.517L388.816 151.555H395.936V145.278H388.924Z" fill="white"/>
<path d="M411.156 163.344H409.934C409.523 161.934 408.22 160.9 406.678 160.9C405.137 160.9 403.834 161.934 403.422 163.344H398.392C397.981 161.934 396.677 160.9 395.136 160.9C393.595 160.9 392.291 161.934 391.88 163.344H390.939C389.943 163.344 389.132 162.533 389.132 161.537C389.132 160.541 389.943 159.73 390.939 159.73H391.957H395.935V153.452H389.38L390.688 157.843C388.763 157.973 387.236 159.579 387.236 161.537C387.236 163.579 388.897 165.24 390.939 165.24H391.88C392.291 166.65 393.595 167.684 395.136 167.684C396.677 167.684 397.981 166.65 398.392 165.24H403.422C403.834 166.65 405.137 167.684 406.678 167.684C408.22 167.684 409.523 166.65 409.934 165.24H411.156C411.679 165.24 412.104 164.815 412.104 164.292C412.104 163.768 411.679 163.344 411.156 163.344Z" fill="white"/>
<path d="M428.548 163H437.732C441.596 163 444.62 161.096 444.62 157.568C444.62 155.02 442.716 153.2 440.196 152.752C442.38 152.164 443.976 150.568 443.976 148.16C443.976 145.332 441.82 143.4 437.564 143.4H428.548V163ZM432.188 151.324V146.508H437.088C439.048 146.508 440.28 147.208 440.28 148.86C440.28 150.512 439.048 151.324 437.088 151.324H432.188ZM432.188 159.892V154.376H437.2C439.384 154.376 440.812 155.272 440.812 157.12C440.812 158.996 439.384 159.892 437.2 159.892H432.188ZM452.262 163.42C455.006 163.42 456.294 161.628 456.854 160.704V163H460.242V149.056H456.826V155.608C456.826 157.848 456.322 160.564 453.662 160.564C452.178 160.564 451.254 159.696 451.254 157.54V149.056H447.838V158.352C447.838 161.404 449.378 163.42 452.262 163.42ZM473.317 149.056L471.385 155.02L470.153 158.772C469.901 158.184 469.565 157.484 468.557 155.048L465.981 149.056H462.284L468.781 162.888L468.361 164.148C467.941 165.296 467.465 165.632 466.513 165.632H463.209V168.46H466.849C469.285 168.46 470.405 167.48 471.217 165.1L476.901 149.056H473.317ZM490.779 163.42C493.187 163.42 494.699 162.076 495.343 161.04V163H498.675V143.4H495.259V148.496V151.016C494.615 149.98 493.159 148.636 490.779 148.636C487.251 148.636 484.871 151.548 484.871 156.028C484.871 160.508 487.251 163.42 490.779 163.42ZM491.899 160.732C489.911 160.732 488.427 159.528 488.427 156.028C488.427 152.556 489.911 151.324 491.899 151.324C493.971 151.324 495.427 152.892 495.427 156.028C495.427 159.192 493.971 160.732 491.899 160.732ZM508.878 163.42C512.938 163.42 515.906 160.452 515.906 156.028C515.906 151.66 512.966 148.636 508.878 148.636C504.79 148.636 501.85 151.66 501.85 156.028C501.85 160.284 504.818 163.42 508.878 163.42ZM508.878 160.648C506.806 160.648 505.378 159.192 505.378 156.084C505.378 152.976 506.806 151.408 508.878 151.408C510.95 151.408 512.35 152.976 512.35 156.084C512.35 159.192 510.95 160.648 508.878 160.648ZM519.072 163H522.488V156.644C522.488 154.936 522.544 151.492 525.68 151.492C527.22 151.492 528.2 152.388 528.2 154.488V163H531.616V153.732C531.616 150.68 530.244 148.636 526.912 148.636C524.196 148.636 522.852 150.456 522.404 151.268V149.056H519.072V163ZM539.871 163.42C542.615 163.42 543.903 161.628 544.463 160.704V163H547.851V149.056H544.435V155.608C544.435 157.848 543.931 160.564 541.271 160.564C539.787 160.564 538.863 159.696 538.863 157.54V149.056H535.447V158.352C535.447 161.404 536.987 163.42 539.871 163.42ZM556.922 163H561.066V160.2H558.098C557.202 160.2 556.81 159.808 556.81 158.912V151.716H560.506V149.056H556.81V144.66H553.394V149.056H550.37V151.716H553.394V159.444C553.394 161.656 554.654 163 556.922 163ZM568.931 163.392C572.823 163.392 575.091 161.628 575.091 158.912C575.091 156.056 572.515 154.992 570.303 154.572L568.511 154.208C566.831 153.9 566.383 153.452 566.383 152.668C566.383 151.828 567.139 151.1 568.679 151.1C570.415 151.1 571.339 152.164 571.731 153.228L574.615 151.996C574.027 150.428 572.291 148.636 568.791 148.636C565.431 148.636 563.135 150.372 563.135 152.976C563.135 155.692 564.927 156.616 567.643 157.148L569.491 157.512C571.143 157.848 571.563 158.464 571.563 159.248C571.563 160.228 570.695 160.872 569.071 160.872C566.551 160.872 565.879 159.164 565.711 158.38L562.547 159.388C563.163 161.936 565.795 163.392 568.931 163.392Z" fill="white"/>
<path d="M236 176.5L235.5 176.5L235.5 177.5L236 177.5L236 176.5ZM371.354 177.354C371.549 177.158 371.549 176.842 371.354 176.646L368.172 173.464C367.976 173.269 367.66 173.269 367.464 173.464C367.269 173.66 367.269 173.976 367.464 174.172L370.293 177L367.464 179.828C367.269 180.024 367.269 180.34 367.464 180.536C367.66 180.731 367.976 180.731 368.172 180.536L371.354 177.354ZM236 177.5L371 177.5L371 176.5L236 176.5L236 177.5Z" fill="#F47C25"/>
<path d="M237.236 138H241.004C242.456 138 243.716 137.304 243.716 135.684C243.716 134.436 242.732 133.788 241.88 133.62C242.6 133.476 243.44 132.84 243.44 131.676C243.44 130.452 242.6 129.6 240.836 129.6H237.236V138ZM238.316 133.14V130.62H240.74C241.688 130.62 242.3 131.028 242.3 131.82C242.3 132.612 241.688 133.14 240.74 133.14H238.316ZM238.316 136.98V134.148H240.848C241.916 134.148 242.552 134.676 242.552 135.54C242.552 136.404 241.916 136.98 240.848 136.98H238.316ZM247.295 138.168C248.531 138.168 249.095 137.292 249.275 136.968V138H250.271V132.06H249.251V134.58C249.251 135.492 249.227 137.268 247.619 137.268C246.839 137.268 246.335 136.812 246.335 135.696V132.06H245.315V135.936C245.315 137.256 245.903 138.168 247.295 138.168ZM254.353 138H255.721V137.1H254.485C254.065 137.1 253.885 136.92 253.885 136.5V132.924H255.505V132.06H253.885V130.2H252.865V132.06H251.485V132.924H252.865V136.56C252.865 137.544 253.369 138 254.353 138ZM259.076 138H260.444V137.1H259.208C258.788 137.1 258.608 136.92 258.608 136.5V132.924H260.228V132.06H258.608V130.2H257.588V132.06H256.208V132.924H257.588V136.56C257.588 137.544 258.092 138 259.076 138ZM263.968 138.168C265.528 138.168 266.728 136.824 266.728 135.036C266.728 133.248 265.576 131.892 263.968 131.892C262.36 131.892 261.208 133.248 261.208 135.036C261.208 136.824 262.408 138.168 263.968 138.168ZM263.968 137.268C262.96 137.268 262.264 136.548 262.264 135.048C262.264 133.548 262.96 132.792 263.968 132.792C264.976 132.792 265.672 133.548 265.672 135.048C265.672 136.548 264.976 137.268 263.968 137.268ZM268.274 138H269.294V135.48C269.294 134.604 269.33 132.792 270.962 132.792C271.754 132.792 272.27 133.248 272.27 134.364V138H273.29V134.124C273.29 132.804 272.69 131.892 271.214 131.892C269.93 131.892 269.354 132.804 269.27 133.068V132.06H268.274V138ZM239.912 159.168C241.28 159.168 242.324 157.98 242.324 156.024C242.324 154.068 241.28 152.892 239.912 152.892C238.868 152.892 238.316 153.468 238.028 153.972V152.82V150.6H237.008V159H238.004V158.076C238.292 158.58 238.868 159.168 239.912 159.168ZM239.648 158.268C238.676 158.268 237.968 157.512 237.968 156.012C237.968 154.512 238.676 153.792 239.648 153.792C240.596 153.792 241.28 154.356 241.28 156.012C241.28 157.668 240.596 158.268 239.648 158.268ZM245.435 159.168C246.359 159.168 246.923 158.772 247.367 158.1C247.439 158.592 247.571 159 248.471 159H249.251V158.1H248.627C248.351 158.1 248.279 158.028 248.279 157.752V154.932C248.279 153.708 247.547 152.892 245.963 152.892C244.415 152.892 243.599 153.732 243.383 154.524L244.379 154.884C244.535 154.44 244.859 153.792 245.951 153.792C246.863 153.792 247.259 154.224 247.259 154.944V155.112C245.327 155.268 243.515 155.832 243.515 157.464C243.515 158.52 244.259 159.168 245.435 159.168ZM245.675 158.304C244.931 158.304 244.571 157.944 244.571 157.38C244.571 156.408 245.807 156.036 247.259 155.88V156.54C247.259 157.776 246.455 158.304 245.675 158.304ZM252.708 159.168C254.04 159.168 254.904 158.388 255.288 157.284L254.328 156.948C254.136 157.596 253.692 158.268 252.708 158.268C251.724 158.268 250.956 157.548 250.956 156.024C250.956 154.536 251.748 153.792 252.696 153.792C253.56 153.792 253.992 154.356 254.184 154.92L255.132 154.608C254.856 153.684 254.04 152.892 252.696 152.892C251.052 152.892 249.888 154.188 249.888 156.024C249.888 157.944 250.992 159.168 252.708 159.168ZM261.053 159H262.361L259.505 155.544L262.181 153.06H260.825L257.669 156.12V154.176V150.6H256.649V159H257.669V157.248L258.797 156.216L261.053 159ZM264.3 161.34H267.072C268.08 161.34 268.932 160.812 268.932 159.708C268.932 158.712 268.188 158.064 267.048 158.064H264.456C264.036 158.064 263.952 157.848 263.952 157.656C263.952 157.44 264.168 157.212 264.492 157.068C264.816 157.26 265.188 157.296 265.596 157.296C266.916 157.296 267.816 156.42 267.912 155.076L267.936 154.752C267.984 154.056 268.188 153.924 268.728 153.924H269.184V153.06H268.548C267.972 153.06 267.696 153.456 267.576 153.912C267.324 153.492 266.7 152.892 265.596 152.892C264.228 152.892 263.232 153.864 263.232 155.1C263.232 155.844 263.556 156.384 263.892 156.684C263.508 156.96 263.016 157.356 263.016 157.944C263.016 158.412 263.208 158.688 263.544 158.892C263.184 159.096 262.752 159.54 262.752 160.14C262.752 160.836 263.16 161.34 264.3 161.34ZM265.596 156.456C264.792 156.456 264.264 155.916 264.264 155.1C264.264 154.284 264.792 153.732 265.596 153.732C266.4 153.732 266.928 154.284 266.928 155.1C266.928 155.916 266.4 156.456 265.596 156.456ZM264.648 160.428C264.024 160.428 263.688 160.296 263.688 159.804C263.688 159.396 263.952 159.132 264.156 159H266.964C267.432 159 267.9 159.096 267.9 159.708C267.9 160.32 267.432 160.428 266.964 160.428H264.648ZM270.383 159H271.403V156.276C271.403 154.884 271.955 154.032 273.299 154.032C273.539 154.032 273.743 154.056 273.935 154.092V153.048C273.791 153.012 273.611 152.976 273.323 152.976C272.195 152.976 271.583 153.852 271.391 154.296V153.06H270.383V159ZM277.339 159.168C278.899 159.168 280.099 157.824 280.099 156.036C280.099 154.248 278.947 152.892 277.339 152.892C275.731 152.892 274.579 154.248 274.579 156.036C274.579 157.824 275.779 159.168 277.339 159.168ZM277.339 158.268C276.331 158.268 275.635 157.548 275.635 156.048C275.635 154.548 276.331 153.792 277.339 153.792C278.347 153.792 279.043 154.548 279.043 156.048C279.043 157.548 278.347 158.268 277.339 158.268ZM283.541 159.168C284.777 159.168 285.341 158.292 285.521 157.968V159H286.517V153.06H285.497V155.58C285.497 156.492 285.473 158.268 283.865 158.268C283.085 158.268 282.581 157.812 282.581 156.696V153.06H281.561V156.936C281.561 158.256 282.149 159.168 283.541 159.168ZM288.535 159H289.555V156.48C289.555 155.604 289.591 153.792 291.223 153.792C292.015 153.792 292.531 154.248 292.531 155.364V159H293.551V155.124C293.551 153.804 292.951 152.892 291.475 152.892C290.191 152.892 289.615 153.804 289.531 154.068V153.06H288.535V159ZM297.453 159.168C298.497 159.168 299.073 158.592 299.361 158.088V159H300.357V150.6H299.337V152.82V153.984C299.049 153.48 298.497 152.892 297.453 152.892C296.085 152.892 295.041 154.08 295.041 156.036C295.041 157.992 296.085 159.168 297.453 159.168ZM297.717 158.268C296.769 158.268 296.085 157.704 296.085 156.048C296.085 154.392 296.769 153.792 297.717 153.792C298.689 153.792 299.397 154.548 299.397 156.048C299.397 157.548 298.689 158.268 297.717 158.268Z" fill="#F47C25"/>
<path d="M556.129 73L556.129 72.5L555.129 72.5L555.129 73L556.129 73ZM555.275 141.354C555.471 141.549 555.787 141.549 555.982 141.354L559.164 138.172C559.36 137.976 559.36 137.66 559.164 137.464C558.969 137.269 558.653 137.269 558.457 137.464L555.629 140.293L552.8 137.464C552.605 137.269 552.289 137.269 552.093 137.464C551.898 137.66 551.898 137.976 552.093 138.172L555.275 141.354ZM555.129 73L555.129 141L556.129 141L556.129 73L555.129 73Z" fill="#F47C25"/>
<path d="M482.611 88H486.379C487.831 88 489.091 87.304 489.091 85.684C489.091 84.436 488.107 83.788 487.255 83.62C487.975 83.476 488.815 82.84 488.815 81.676C488.815 80.452 487.975 79.6 486.211 79.6H482.611V88ZM483.691 83.14V80.62H486.115C487.063 80.62 487.675 81.028 487.675 81.82C487.675 82.612 487.063 83.14 486.115 83.14H483.691ZM483.691 86.98V84.148H486.223C487.291 84.148 487.927 84.676 487.927 85.54C487.927 86.404 487.291 86.98 486.223 86.98H483.691ZM492.67 88.168C493.906 88.168 494.47 87.292 494.65 86.968V88H495.646V82.06H494.626V84.58C494.626 85.492 494.602 87.268 492.994 87.268C492.214 87.268 491.71 86.812 491.71 85.696V82.06H490.69V85.936C490.69 87.256 491.278 88.168 492.67 88.168ZM499.728 88H501.096V87.1H499.86C499.44 87.1 499.26 86.92 499.26 86.5V82.924H500.88V82.06H499.26V80.2H498.24V82.06H496.86V82.924H498.24V86.56C498.24 87.544 498.744 88 499.728 88ZM504.451 88H505.819V87.1H504.583C504.163 87.1 503.983 86.92 503.983 86.5V82.924H505.603V82.06H503.983V80.2H502.963V82.06H501.583V82.924H502.963V86.56C502.963 87.544 503.467 88 504.451 88ZM509.343 88.168C510.903 88.168 512.103 86.824 512.103 85.036C512.103 83.248 510.951 81.892 509.343 81.892C507.735 81.892 506.583 83.248 506.583 85.036C506.583 86.824 507.783 88.168 509.343 88.168ZM509.343 87.268C508.335 87.268 507.639 86.548 507.639 85.048C507.639 83.548 508.335 82.792 509.343 82.792C510.351 82.792 511.047 83.548 511.047 85.048C511.047 86.548 510.351 87.268 509.343 87.268ZM513.649 88H514.669V85.48C514.669 84.604 514.705 82.792 516.337 82.792C517.129 82.792 517.645 83.248 517.645 84.364V88H518.665V84.124C518.665 82.804 518.065 81.892 516.589 81.892C515.305 81.892 514.729 82.804 514.645 83.068V82.06H513.649V88ZM525.556 88H526.924V87.1H525.688C525.268 87.1 525.088 86.92 525.088 86.5V82.924H526.708V82.06H525.088V80.2H524.068V82.06H522.688V82.924H524.068V86.56C524.068 87.544 524.572 88 525.556 88ZM530.4 88.168C531.516 88.168 532.512 87.664 532.956 86.452L532.02 86.128C531.864 86.512 531.444 87.28 530.436 87.28C529.608 87.28 528.78 86.8 528.72 85.3H532.908C533.136 83.356 532.068 81.892 530.34 81.892C528.828 81.892 527.712 83.104 527.712 85.06C527.712 87.076 528.78 88.168 530.4 88.168ZM528.744 84.448C528.828 83.368 529.56 82.732 530.34 82.732C531.156 82.732 531.864 83.32 531.864 84.448H528.744ZM533.705 88H534.821L535.577 86.872L536.333 85.732C536.501 85.996 536.633 86.2 537.077 86.872L537.821 88H539.045L536.981 84.976L538.925 82.06H537.797L537.149 83.08C536.693 83.788 536.549 84.004 536.381 84.244C536.237 84.004 536.105 83.788 535.661 83.08L535.013 82.06H533.825L535.745 84.964L533.705 88ZM542.349 88H543.717V87.1H542.481C542.061 87.1 541.881 86.92 541.881 86.5V82.924H543.501V82.06H541.881V80.2H540.861V82.06H539.481V82.924H540.861V86.56C540.861 87.544 541.365 88 542.349 88Z" fill="#F47C25"/>
<path d="M570.646 101.646C570.451 101.842 570.451 102.158 570.646 102.354L573.828 105.536C574.024 105.731 574.34 105.731 574.536 105.536C574.731 105.34 574.731 105.024 574.536 104.828L571.707 102L574.536 99.1716C574.731 98.9763 574.731 98.6597 574.536 98.4645C574.34 98.2692 574.024 98.2692 573.828 98.4645L570.646 101.646ZM619 118L619.5 118V118L619 118ZM618.646 150.354C618.842 150.549 619.158 150.549 619.354 150.354L622.536 147.172C622.731 146.976 622.731 146.66 622.536 146.464C622.34 146.269 622.024 146.269 621.828 146.464L619 149.293L616.172 146.464C615.976 146.269 615.66 146.269 615.464 146.464C615.269 146.66 615.269 146.976 615.464 147.172L618.646 150.354ZM603 101.5H571V102.5H603V101.5ZM618.5 118L618.5 150L619.5 150L619.5 118L618.5 118ZM603 102.5C611.56 102.5 618.5 109.44 618.5 118L619.5 118C619.5 108.887 612.113 101.5 603 101.5V102.5Z" fill="#F47C25"/>
<path d="M630.155 117H631.223V114.672H632.447V113.736H631.223V108.6H629.555L626.231 113.628V114.672H630.155V117ZM630.155 113.736H628.919H627.323L630.155 109.452V111.288V113.736ZM633.887 119.34H634.907V117.24V116.076C635.195 116.58 635.747 117.168 636.791 117.168C638.159 117.168 639.203 115.98 639.203 114.024C639.203 112.068 638.159 110.892 636.791 110.892C635.747 110.892 635.171 111.468 634.883 111.972V111.06H633.887V119.34ZM636.527 116.268C635.555 116.268 634.847 115.512 634.847 114.012C634.847 112.512 635.555 111.792 636.527 111.792C637.475 111.792 638.159 112.356 638.159 114.012C638.159 115.668 637.475 116.268 636.527 116.268ZM639.916 117H641.032L641.788 115.872L642.544 114.732C642.712 114.996 642.844 115.2 643.288 115.872L644.032 117H645.256L643.192 113.976L645.136 111.06H644.008L643.36 112.08C642.904 112.788 642.76 113.004 642.592 113.244C642.448 113.004 642.316 112.788 641.872 112.08L641.224 111.06H640.036L641.956 113.964L639.916 117ZM651.966 117.168C653.298 117.168 654.162 116.388 654.546 115.284L653.586 114.948C653.394 115.596 652.95 116.268 651.966 116.268C650.982 116.268 650.214 115.548 650.214 114.024C650.214 112.536 651.006 111.792 651.954 111.792C652.818 111.792 653.25 112.356 653.442 112.92L654.39 112.608C654.114 111.684 653.298 110.892 651.954 110.892C650.31 110.892 649.146 112.188 649.146 114.024C649.146 115.944 650.25 117.168 651.966 117.168ZM658.198 117.168C659.758 117.168 660.958 115.824 660.958 114.036C660.958 112.248 659.806 110.892 658.198 110.892C656.59 110.892 655.438 112.248 655.438 114.036C655.438 115.824 656.638 117.168 658.198 117.168ZM658.198 116.268C657.19 116.268 656.494 115.548 656.494 114.048C656.494 112.548 657.19 111.792 658.198 111.792C659.206 111.792 659.902 112.548 659.902 114.048C659.902 115.548 659.206 116.268 658.198 116.268ZM662.504 117H663.524V114.276C663.524 112.884 664.076 112.032 665.42 112.032C665.66 112.032 665.864 112.056 666.056 112.092V111.048C665.912 111.012 665.732 110.976 665.444 110.976C664.316 110.976 663.704 111.852 663.512 112.296V111.06H662.504V117ZM667.262 117H668.282V114.48C668.282 113.604 668.318 111.792 669.95 111.792C670.742 111.792 671.258 112.248 671.258 113.364V117H672.278V113.124C672.278 111.804 671.678 110.892 670.202 110.892C668.918 110.892 668.342 111.804 668.258 112.068V111.06H667.262V117ZM676.455 117.168C677.571 117.168 678.567 116.664 679.011 115.452L678.075 115.128C677.919 115.512 677.499 116.28 676.491 116.28C675.663 116.28 674.835 115.8 674.775 114.3H678.963C679.191 112.356 678.123 110.892 676.395 110.892C674.883 110.892 673.767 112.104 673.767 114.06C673.767 116.076 674.835 117.168 676.455 117.168ZM674.799 113.448C674.883 112.368 675.615 111.732 676.395 111.732C677.211 111.732 677.919 112.32 677.919 113.448H674.799ZM680.598 117H681.618V114.276C681.618 112.884 682.17 112.032 683.514 112.032C683.754 112.032 683.958 112.056 684.15 112.092V111.048C684.006 111.012 683.826 110.976 683.538 110.976C682.41 110.976 681.798 111.852 681.606 112.296V111.06H680.598V117ZM626.879 138H627.899V135.276C627.899 133.884 628.451 133.032 629.795 133.032C630.035 133.032 630.239 133.056 630.431 133.092V132.048C630.287 132.012 630.107 131.976 629.819 131.976C628.691 131.976 628.079 132.852 627.887 133.296V132.06H626.879V138ZM633.126 138.168C634.05 138.168 634.614 137.772 635.058 137.1C635.13 137.592 635.262 138 636.162 138H636.942V137.1H636.318C636.042 137.1 635.97 137.028 635.97 136.752V133.932C635.97 132.708 635.238 131.892 633.654 131.892C632.106 131.892 631.29 132.732 631.074 133.524L632.07 133.884C632.226 133.44 632.55 132.792 633.642 132.792C634.554 132.792 634.95 133.224 634.95 133.944V134.112C633.018 134.268 631.206 134.832 631.206 136.464C631.206 137.52 631.95 138.168 633.126 138.168ZM633.366 137.304C632.622 137.304 632.262 136.944 632.262 136.38C632.262 135.408 633.498 135.036 634.95 134.88V135.54C634.95 136.776 634.146 137.304 633.366 137.304ZM640.003 138.168C641.047 138.168 641.623 137.592 641.911 137.088V138H642.907V129.6H641.887V131.82V132.984C641.599 132.48 641.047 131.892 640.003 131.892C638.635 131.892 637.591 133.08 637.591 135.036C637.591 136.992 638.635 138.168 640.003 138.168ZM640.267 137.268C639.319 137.268 638.635 136.704 638.635 135.048C638.635 133.392 639.319 132.792 640.267 132.792C641.239 132.792 641.947 133.548 641.947 135.048C641.947 136.548 641.239 137.268 640.267 137.268ZM644.89 130.896H645.97V129.6H644.89V130.896ZM644.926 138H645.946V132.06H644.926V138ZM649.857 138.168C651.093 138.168 651.657 137.292 651.837 136.968V138H652.833V132.06H651.813V134.58C651.813 135.492 651.789 137.268 650.181 137.268C649.401 137.268 648.897 136.812 648.897 135.696V132.06H647.877V135.936C647.877 137.256 648.465 138.168 649.857 138.168ZM656.856 138.168C658.356 138.168 659.22 137.46 659.22 136.344C659.22 134.988 657.816 134.628 657.216 134.508L656.532 134.376C655.68 134.208 655.488 133.968 655.488 133.572C655.488 133.14 655.872 132.732 656.7 132.732C657.708 132.732 658.044 133.368 658.188 133.764L659.112 133.428C658.872 132.648 658.176 131.892 656.7 131.892C655.536 131.892 654.528 132.612 654.528 133.68C654.528 134.808 655.392 135.18 656.376 135.372L657.06 135.504C657.924 135.672 658.2 135.984 658.2 136.428C658.2 136.992 657.72 137.292 656.856 137.292C655.92 137.292 655.44 136.848 655.26 136.14L654.276 136.464C654.54 137.604 655.644 138.168 656.856 138.168Z" fill="#F47C25"/>
<path d="M576.5 234L576.5 234.5L577.5 234.5L577.5 234L576.5 234ZM577.354 180.646C577.158 180.451 576.842 180.451 576.646 180.646L573.464 183.828C573.269 184.024 573.269 184.34 573.464 184.536C573.66 184.731 573.976 184.731 574.172 184.536L577 181.707L579.828 184.536C580.024 184.731 580.34 184.731 580.536 184.536C580.731 184.34 580.731 184.024 580.536 183.828L577.354 180.646ZM577.5 234L577.5 181L576.5 181L576.5 234L577.5 234Z" fill="#F47C25"/>
<path d="M507.676 229.26H508.576V228.156C510.28 228.024 511.216 227.04 511.216 225.672C511.216 224.4 510.268 223.68 508.936 223.344L508.576 223.248V220.464C509.548 220.656 509.932 221.4 510.088 221.844L511.084 221.352C510.868 220.644 510.088 219.624 508.576 219.456V218.34H507.676V219.456C506.248 219.624 505.3 220.548 505.3 221.784C505.3 223.176 506.164 223.788 507.4 224.052L507.676 224.112V227.136C506.74 226.932 506.176 226.248 505.9 225.408L504.88 225.9C505.252 227.076 506.2 227.964 507.676 228.144V229.26ZM507.676 223.044C506.74 222.804 506.332 222.444 506.332 221.724C506.332 221.04 506.836 220.524 507.676 220.428V221.976V223.044ZM508.576 227.184V225.636V224.316C509.62 224.556 510.124 225.024 510.124 225.768C510.124 226.548 509.56 227.088 508.576 227.184ZM514.739 228.168C516.239 228.168 517.103 227.46 517.103 226.344C517.103 224.988 515.699 224.628 515.099 224.508L514.415 224.376C513.563 224.208 513.371 223.968 513.371 223.572C513.371 223.14 513.755 222.732 514.583 222.732C515.591 222.732 515.927 223.368 516.071 223.764L516.995 223.428C516.755 222.648 516.059 221.892 514.583 221.892C513.419 221.892 512.411 222.612 512.411 223.68C512.411 224.808 513.275 225.18 514.259 225.372L514.943 225.504C515.807 225.672 516.083 225.984 516.083 226.428C516.083 226.992 515.603 227.292 514.739 227.292C513.803 227.292 513.323 226.848 513.143 226.14L512.159 226.464C512.423 227.604 513.527 228.168 514.739 228.168ZM518.629 230.34H519.649V228.24V227.076C519.937 227.58 520.489 228.168 521.533 228.168C522.901 228.168 523.945 226.98 523.945 225.024C523.945 223.068 522.901 221.892 521.533 221.892C520.489 221.892 519.913 222.468 519.625 222.972V222.06H518.629V230.34ZM521.269 227.268C520.297 227.268 519.589 226.512 519.589 225.012C519.589 223.512 520.297 222.792 521.269 222.792C522.217 222.792 522.901 223.356 522.901 225.012C522.901 226.668 522.217 227.268 521.269 227.268ZM527.056 228.168C527.98 228.168 528.544 227.772 528.988 227.1C529.06 227.592 529.192 228 530.092 228H530.872V227.1H530.248C529.972 227.1 529.9 227.028 529.9 226.752V223.932C529.9 222.708 529.168 221.892 527.584 221.892C526.036 221.892 525.22 222.732 525.004 223.524L526 223.884C526.156 223.44 526.48 222.792 527.572 222.792C528.484 222.792 528.88 223.224 528.88 223.944V224.112C526.948 224.268 525.136 224.832 525.136 226.464C525.136 227.52 525.88 228.168 527.056 228.168ZM527.296 227.304C526.552 227.304 526.192 226.944 526.192 226.38C526.192 225.408 527.428 225.036 528.88 224.88V225.54C528.88 226.776 528.076 227.304 527.296 227.304ZM534.329 228.168C535.661 228.168 536.525 227.388 536.909 226.284L535.949 225.948C535.757 226.596 535.313 227.268 534.329 227.268C533.345 227.268 532.577 226.548 532.577 225.024C532.577 223.536 533.369 222.792 534.317 222.792C535.181 222.792 535.613 223.356 535.805 223.92L536.753 223.608C536.477 222.684 535.661 221.892 534.317 221.892C532.673 221.892 531.509 223.188 531.509 225.024C531.509 226.944 532.613 228.168 534.329 228.168ZM538.234 220.896H539.314V219.6H538.234V220.896ZM538.27 228H539.29V222.06H538.27V228ZM541.305 228H542.325V225.48C542.325 224.604 542.361 222.792 543.993 222.792C544.785 222.792 545.301 223.248 545.301 224.364V228H546.321V224.124C546.321 222.804 545.721 221.892 544.245 221.892C542.961 221.892 542.385 222.804 542.301 223.068V222.06H541.305V228ZM549.214 230.34H551.986C552.994 230.34 553.846 229.812 553.846 228.708C553.846 227.712 553.102 227.064 551.962 227.064H549.37C548.95 227.064 548.866 226.848 548.866 226.656C548.866 226.44 549.082 226.212 549.406 226.068C549.73 226.26 550.102 226.296 550.51 226.296C551.83 226.296 552.73 225.42 552.826 224.076L552.85 223.752C552.898 223.056 553.102 222.924 553.642 222.924H554.098V222.06H553.462C552.886 222.06 552.61 222.456 552.49 222.912C552.238 222.492 551.614 221.892 550.51 221.892C549.142 221.892 548.146 222.864 548.146 224.1C548.146 224.844 548.47 225.384 548.806 225.684C548.422 225.96 547.93 226.356 547.93 226.944C547.93 227.412 548.122 227.688 548.458 227.892C548.098 228.096 547.666 228.54 547.666 229.14C547.666 229.836 548.074 230.34 549.214 230.34ZM550.51 225.456C549.706 225.456 549.178 224.916 549.178 224.1C549.178 223.284 549.706 222.732 550.51 222.732C551.314 222.732 551.842 223.284 551.842 224.1C551.842 224.916 551.314 225.456 550.51 225.456ZM549.562 229.428C548.938 229.428 548.602 229.296 548.602 228.804C548.602 228.396 548.866 228.132 549.07 228H551.878C552.346 228 552.814 228.096 552.814 228.708C552.814 229.32 552.346 229.428 551.878 229.428H549.562ZM554.965 224.832H558.277V223.752H554.965V224.832ZM562.117 228.168C563.617 228.168 564.481 227.46 564.481 226.344C564.481 224.988 563.077 224.628 562.477 224.508L561.793 224.376C560.941 224.208 560.749 223.968 560.749 223.572C560.749 223.14 561.133 222.732 561.961 222.732C562.969 222.732 563.305 223.368 563.449 223.764L564.373 223.428C564.133 222.648 563.437 221.892 561.961 221.892C560.797 221.892 559.789 222.612 559.789 223.68C559.789 224.808 560.653 225.18 561.637 225.372L562.321 225.504C563.185 225.672 563.461 225.984 563.461 226.428C563.461 226.992 562.981 227.292 562.117 227.292C561.181 227.292 560.701 226.848 560.521 226.14L559.537 226.464C559.801 227.604 560.905 228.168 562.117 228.168Z" fill="#F47C25"/>
<path d="M400.5 73L400.5 72.5L399.5 72.5L399.5 73L400.5 73ZM399.646 133.354C399.842 133.549 400.158 133.549 400.354 133.354L403.536 130.172C403.731 129.976 403.731 129.66 403.536 129.464C403.34 129.269 403.024 129.269 402.828 129.464L400 132.293L397.172 129.464C396.976 129.269 396.66 129.269 396.464 129.464C396.269 129.66 396.269 129.976 396.464 130.172L399.646 133.354ZM399.5 73L399.5 133L400.5 133L400.5 73L399.5 73Z" fill="#F47C25"/>
<path d="M339.733 88H340.813V79.6H339.949C339.385 80.596 338.449 81.208 337.465 81.472V82.612C338.389 82.456 339.277 81.832 339.733 81.064V82.24V88ZM345.902 88.168C347.822 88.168 348.818 86.8 348.818 85.252C348.818 83.812 347.834 82.576 346.142 82.576C345.11 82.576 344.21 83.152 343.85 84.076C343.838 81.592 345.146 80.488 346.85 80.488C347.402 80.488 347.894 80.596 348.326 80.752V79.672C347.894 79.516 347.246 79.432 346.826 79.432C344.066 79.432 342.77 81.508 342.77 84.088C342.77 86.8 344.066 88.168 345.902 88.168ZM345.914 87.208C344.918 87.208 344.15 86.488 344.15 85.372C344.15 84.256 344.918 83.536 345.914 83.536C346.886 83.536 347.678 84.256 347.678 85.372C347.678 86.488 346.886 87.208 345.914 87.208ZM350.406 90.34H351.426V88.24V87.076C351.714 87.58 352.266 88.168 353.31 88.168C354.678 88.168 355.722 86.98 355.722 85.024C355.722 83.068 354.678 81.892 353.31 81.892C352.266 81.892 351.69 82.468 351.402 82.972V82.06H350.406V90.34ZM353.046 87.268C352.074 87.268 351.366 86.512 351.366 85.012C351.366 83.512 352.074 82.792 353.046 82.792C353.994 82.792 354.678 83.356 354.678 85.012C354.678 86.668 353.994 87.268 353.046 87.268ZM356.435 88H357.551L358.307 86.872L359.063 85.732C359.231 85.996 359.363 86.2 359.807 86.872L360.551 88H361.775L359.711 84.976L361.655 82.06H360.527L359.879 83.08C359.423 83.788 359.279 84.004 359.111 84.244C358.967 84.004 358.835 83.788 358.391 83.08L357.743 82.06H356.555L358.475 84.964L356.435 88ZM366.085 80.896H367.165V79.6H366.085V80.896ZM366.121 88H367.141V82.06H366.121V88ZM371.52 88.168C372.852 88.168 373.716 87.388 374.1 86.284L373.14 85.948C372.948 86.596 372.504 87.268 371.52 87.268C370.536 87.268 369.768 86.548 369.768 85.024C369.768 83.536 370.56 82.792 371.508 82.792C372.372 82.792 372.804 83.356 372.996 83.92L373.944 83.608C373.668 82.684 372.852 81.892 371.508 81.892C369.864 81.892 368.7 83.188 368.7 85.024C368.7 86.944 369.804 88.168 371.52 88.168ZM377.753 88.168C379.313 88.168 380.513 86.824 380.513 85.036C380.513 83.248 379.361 81.892 377.753 81.892C376.145 81.892 374.993 83.248 374.993 85.036C374.993 86.824 376.193 88.168 377.753 88.168ZM377.753 87.268C376.745 87.268 376.049 86.548 376.049 85.048C376.049 83.548 376.745 82.792 377.753 82.792C378.761 82.792 379.457 83.548 379.457 85.048C379.457 86.548 378.761 87.268 377.753 87.268ZM382.059 88H383.079V85.48C383.079 84.604 383.115 82.792 384.747 82.792C385.539 82.792 386.055 83.248 386.055 84.364V88H387.075V84.124C387.075 82.804 386.475 81.892 384.999 81.892C383.715 81.892 383.139 82.804 383.055 83.068V82.06H382.059V88Z" fill="#F47C25"/>
</svg>
