<svg width="616" height="175" viewBox="0 0 616 175" fill="none" xmlns="http://www.w3.org/2000/svg">
<path d="M507.5 54.5L508 54.5L508 53.5L507.5 53.5L507.5 54.5ZM459.146 53.6465C458.951 53.8417 458.951 54.1583 459.146 54.3536L462.328 57.5355C462.524 57.7308 462.84 57.7308 463.036 57.5355C463.231 57.3403 463.231 57.0237 463.036 56.8284L460.207 54L463.036 51.1716C463.231 50.9763 463.231 50.6597 463.036 50.4645C462.84 50.2692 462.524 50.2692 462.328 50.4645L459.146 53.6465ZM507.5 53.5L459.5 53.5L459.5 54.5L507.5 54.5L507.5 53.5Z" fill="#2D8C9E"/>
<path d="M507.5 90.5L508 90.5L508 89.5L507.5 89.5L507.5 90.5ZM471.146 89.6464C470.951 89.8417 470.951 90.1583 471.146 90.3536L474.328 93.5355C474.524 93.7308 474.84 93.7308 475.036 93.5355C475.231 93.3403 475.231 93.0237 475.036 92.8284L472.207 90L475.036 87.1716C475.231 86.9763 475.231 86.6597 475.036 86.4645C474.84 86.2692 474.524 86.2692 474.328 86.4645L471.146 89.6464ZM507.5 89.5L471.5 89.5L471.5 90.5L507.5 90.5L507.5 89.5Z" fill="#2D8C9E"/>
<path d="M522.608 59H523.688V51.62H526.796V50.6H519.62V51.62H522.608V59ZM527.89 51.896H528.97V50.6H527.89V51.896ZM527.926 59H528.946V53.06H527.926V59ZM530.961 59H531.981V56.48C531.981 55.604 532.017 53.792 533.649 53.792C534.441 53.792 534.957 54.248 534.957 55.364V59H535.977V55.124C535.977 53.804 535.377 52.892 533.901 52.892C532.617 52.892 532.041 53.804 531.957 54.068V53.06H530.961V59ZM541.498 53.06L540.418 56.312C540.178 57.032 540.106 57.248 539.998 57.596C539.878 57.284 539.782 57.044 539.41 56.144L538.138 53.06H536.986L539.554 58.928L539.218 59.876C539.062 60.32 538.798 60.404 538.402 60.404H537.274V61.34H538.402C539.446 61.34 539.878 60.992 540.274 59.816L542.578 53.06H541.498ZM548.809 59.168C550.309 59.168 551.173 58.46 551.173 57.344C551.173 55.988 549.769 55.628 549.169 55.508L548.485 55.376C547.633 55.208 547.441 54.968 547.441 54.572C547.441 54.14 547.825 53.732 548.653 53.732C549.661 53.732 549.997 54.368 550.141 54.764L551.065 54.428C550.825 53.648 550.129 52.892 548.653 52.892C547.489 52.892 546.481 53.612 546.481 54.68C546.481 55.808 547.345 56.18 548.329 56.372L549.013 56.504C549.877 56.672 550.153 56.984 550.153 57.428C550.153 57.992 549.673 58.292 548.809 58.292C547.873 58.292 547.393 57.848 547.213 57.14L546.229 57.464C546.493 58.604 547.597 59.168 548.809 59.168ZM552.699 61.34H553.719V59.24V58.076C554.007 58.58 554.559 59.168 555.603 59.168C556.971 59.168 558.015 57.98 558.015 56.024C558.015 54.068 556.971 52.892 555.603 52.892C554.559 52.892 553.983 53.468 553.695 53.972V53.06H552.699V61.34ZM555.339 58.268C554.367 58.268 553.659 57.512 553.659 56.012C553.659 54.512 554.367 53.792 555.339 53.792C556.287 53.792 556.971 54.356 556.971 56.012C556.971 57.668 556.287 58.268 555.339 58.268ZM561.126 59.168C562.05 59.168 562.614 58.772 563.058 58.1C563.13 58.592 563.262 59 564.162 59H564.942V58.1H564.318C564.042 58.1 563.97 58.028 563.97 57.752V54.932C563.97 53.708 563.238 52.892 561.654 52.892C560.106 52.892 559.29 53.732 559.074 54.524L560.07 54.884C560.226 54.44 560.55 53.792 561.642 53.792C562.554 53.792 562.95 54.224 562.95 54.944V55.112C561.018 55.268 559.206 55.832 559.206 57.464C559.206 58.52 559.95 59.168 561.126 59.168ZM561.366 58.304C560.622 58.304 560.262 57.944 560.262 57.38C560.262 56.408 561.498 56.036 562.95 55.88V56.54C562.95 57.776 562.146 58.304 561.366 58.304ZM568.399 59.168C569.731 59.168 570.595 58.388 570.979 57.284L570.019 56.948C569.827 57.596 569.383 58.268 568.399 58.268C567.415 58.268 566.647 57.548 566.647 56.024C566.647 54.536 567.439 53.792 568.387 53.792C569.251 53.792 569.683 54.356 569.875 54.92L570.823 54.608C570.547 53.684 569.731 52.892 568.387 52.892C566.743 52.892 565.579 54.188 565.579 56.024C565.579 57.944 566.683 59.168 568.399 59.168ZM574.584 59.168C575.7 59.168 576.696 58.664 577.14 57.452L576.204 57.128C576.048 57.512 575.628 58.28 574.62 58.28C573.792 58.28 572.964 57.8 572.904 56.3H577.092C577.32 54.356 576.252 52.892 574.524 52.892C573.012 52.892 571.896 54.104 571.896 56.06C571.896 58.076 572.964 59.168 574.584 59.168ZM572.928 55.448C573.012 54.368 573.744 53.732 574.524 53.732C575.34 53.732 576.048 54.32 576.048 55.448H572.928Z" fill="#2D8C9E"/>
<path d="M523.268 95.168C525.212 95.168 526.28 94.124 526.28 92.66C526.28 91.388 525.32 90.608 523.976 90.296L522.8 90.02C521.852 89.792 521.42 89.456 521.42 88.736C521.42 87.98 522.044 87.44 523.076 87.44C524.444 87.44 524.936 88.352 525.116 88.868L526.148 88.364C525.908 87.584 524.996 86.432 523.208 86.432C521.504 86.432 520.352 87.428 520.352 88.796C520.352 90.2 521.216 90.812 522.464 91.1L523.592 91.364C524.636 91.604 525.152 92.024 525.152 92.756C525.152 93.596 524.492 94.16 523.34 94.16C522.02 94.16 521.324 93.356 520.988 92.372L519.932 92.888C520.34 94.196 521.48 95.168 523.268 95.168ZM529.896 95H531.264V94.1H530.028C529.608 94.1 529.428 93.92 529.428 93.5V89.924H531.048V89.06H529.428V87.2H528.408V89.06H527.028V89.924H528.408V93.56C528.408 94.544 528.912 95 529.896 95ZM534.091 95.168C535.015 95.168 535.579 94.772 536.023 94.1C536.095 94.592 536.227 95 537.127 95H537.907V94.1H537.283C537.007 94.1 536.935 94.028 536.935 93.752V90.932C536.935 89.708 536.203 88.892 534.619 88.892C533.071 88.892 532.255 89.732 532.039 90.524L533.035 90.884C533.191 90.44 533.515 89.792 534.607 89.792C535.519 89.792 535.915 90.224 535.915 90.944V91.112C533.983 91.268 532.171 91.832 532.171 93.464C532.171 94.52 532.915 95.168 534.091 95.168ZM534.331 94.304C533.587 94.304 533.227 93.944 533.227 93.38C533.227 92.408 534.463 92.036 535.915 91.88V92.54C535.915 93.776 535.111 94.304 534.331 94.304ZM540.982 95H542.35V94.1H541.114C540.694 94.1 540.514 93.92 540.514 93.5V89.924H542.134V89.06H540.514V87.2H539.494V89.06H538.114V89.924H539.494V93.56C539.494 94.544 539.998 95 540.982 95ZM545.537 95.168C546.773 95.168 547.337 94.292 547.517 93.968V95H548.513V89.06H547.493V91.58C547.493 92.492 547.469 94.268 545.861 94.268C545.081 94.268 544.577 93.812 544.577 92.696V89.06H543.557V92.936C543.557 94.256 544.145 95.168 545.537 95.168ZM552.535 95.168C554.035 95.168 554.899 94.46 554.899 93.344C554.899 91.988 553.495 91.628 552.895 91.508L552.211 91.376C551.359 91.208 551.167 90.968 551.167 90.572C551.167 90.14 551.551 89.732 552.379 89.732C553.387 89.732 553.723 90.368 553.867 90.764L554.791 90.428C554.551 89.648 553.855 88.892 552.379 88.892C551.215 88.892 550.207 89.612 550.207 90.68C550.207 91.808 551.071 92.18 552.055 92.372L552.739 92.504C553.603 92.672 553.879 92.984 553.879 93.428C553.879 93.992 553.399 94.292 552.535 94.292C551.599 94.292 551.119 93.848 550.939 93.14L549.955 93.464C550.219 94.604 551.323 95.168 552.535 95.168ZM561.499 95.168C562.543 95.168 563.119 94.592 563.407 94.088V95H564.403V86.6H563.383V88.82V89.984C563.095 89.48 562.543 88.892 561.499 88.892C560.131 88.892 559.087 90.08 559.087 92.036C559.087 93.992 560.131 95.168 561.499 95.168ZM561.763 94.268C560.815 94.268 560.131 93.704 560.131 92.048C560.131 90.392 560.815 89.792 561.763 89.792C562.735 89.792 563.443 90.548 563.443 92.048C563.443 93.548 562.735 94.268 561.763 94.268ZM568.666 95.168C569.782 95.168 570.778 94.664 571.222 93.452L570.286 93.128C570.13 93.512 569.71 94.28 568.702 94.28C567.874 94.28 567.046 93.8 566.986 92.3H571.174C571.402 90.356 570.334 88.892 568.606 88.892C567.094 88.892 565.978 90.104 565.978 92.06C565.978 94.076 567.046 95.168 568.666 95.168ZM567.01 91.448C567.094 90.368 567.826 89.732 568.606 89.732C569.422 89.732 570.13 90.32 570.13 91.448H567.01ZM574.813 95.168C576.313 95.168 577.177 94.46 577.177 93.344C577.177 91.988 575.773 91.628 575.173 91.508L574.489 91.376C573.637 91.208 573.445 90.968 573.445 90.572C573.445 90.14 573.829 89.732 574.657 89.732C575.665 89.732 576.001 90.368 576.145 90.764L577.069 90.428C576.829 89.648 576.133 88.892 574.657 88.892C573.493 88.892 572.485 89.612 572.485 90.68C572.485 91.808 573.349 92.18 574.333 92.372L575.017 92.504C575.881 92.672 576.157 92.984 576.157 93.428C576.157 93.992 575.677 94.292 574.813 94.292C573.877 94.292 573.397 93.848 573.217 93.14L572.233 93.464C572.497 94.604 573.601 95.168 574.813 95.168ZM581.067 95.168C582.399 95.168 583.263 94.388 583.647 93.284L582.687 92.948C582.495 93.596 582.051 94.268 581.067 94.268C580.083 94.268 579.315 93.548 579.315 92.024C579.315 90.536 580.107 89.792 581.055 89.792C581.919 89.792 582.351 90.356 582.543 90.92L583.491 90.608C583.215 89.684 582.399 88.892 581.055 88.892C579.411 88.892 578.247 90.188 578.247 92.024C578.247 93.944 579.351 95.168 581.067 95.168ZM585.008 95H586.028V92.276C586.028 90.884 586.58 90.032 587.924 90.032C588.164 90.032 588.368 90.056 588.56 90.092V89.048C588.416 89.012 588.236 88.976 587.948 88.976C586.82 88.976 586.208 89.852 586.016 90.296V89.06H585.008V95ZM589.73 87.896H590.81V86.6H589.73V87.896ZM589.766 95H590.786V89.06H589.766V95ZM592.801 97.34H593.821V95.24V94.076C594.109 94.58 594.661 95.168 595.705 95.168C597.073 95.168 598.117 93.98 598.117 92.024C598.117 90.068 597.073 88.892 595.705 88.892C594.661 88.892 594.085 89.468 593.797 89.972V89.06H592.801V97.34ZM595.441 94.268C594.469 94.268 593.761 93.512 593.761 92.012C593.761 90.512 594.469 89.792 595.441 89.792C596.389 89.792 597.073 90.356 597.073 92.012C597.073 93.668 596.389 94.268 595.441 94.268ZM601.709 95H603.077V94.1H601.841C601.421 94.1 601.241 93.92 601.241 93.5V89.924H602.861V89.06H601.241V87.2H600.221V89.06H598.841V89.924H600.221V93.56C600.221 94.544 600.725 95 601.709 95ZM606.601 95.168C608.161 95.168 609.361 93.824 609.361 92.036C609.361 90.248 608.209 88.892 606.601 88.892C604.993 88.892 603.841 90.248 603.841 92.036C603.841 93.824 605.041 95.168 606.601 95.168ZM606.601 94.268C605.593 94.268 604.897 93.548 604.897 92.048C604.897 90.548 605.593 89.792 606.601 89.792C607.609 89.792 608.305 90.548 608.305 92.048C608.305 93.548 607.609 94.268 606.601 94.268ZM610.906 95H611.926V92.276C611.926 90.884 612.478 90.032 613.822 90.032C614.062 90.032 614.266 90.056 614.458 90.092V89.048C614.314 89.012 614.134 88.976 613.846 88.976C612.718 88.976 612.106 89.852 611.914 90.296V89.06H610.906V95Z" fill="#2D8C9E"/>
<path d="M77.5 23.5H77V24.5H77.5V23.5ZM125.854 24.3536C126.049 24.1583 126.049 23.8417 125.854 23.6464L122.672 20.4645C122.476 20.2692 122.16 20.2692 121.964 20.4645C121.769 20.6597 121.769 20.9763 121.964 21.1716L124.793 24L121.964 26.8284C121.769 27.0237 121.769 27.3403 121.964 27.5355C122.16 27.7308 122.476 27.7308 122.672 27.5355L125.854 24.3536ZM77.5 24.5L125.5 24.5V23.5L77.5 23.5V24.5Z" fill="#2D8C9E"/>
<path d="M77.5 84.5H77V85.5H77.5V84.5ZM125.854 85.3536C126.049 85.1583 126.049 84.8417 125.854 84.6464L122.672 81.4645C122.476 81.2692 122.16 81.2692 121.964 81.4645C121.769 81.6597 121.769 81.9763 121.964 82.1716L124.793 85L121.964 87.8284C121.769 88.0237 121.769 88.3403 121.964 88.5355C122.16 88.7308 122.476 88.7308 122.672 88.5355L125.854 85.3536ZM77.5 85.5H125.5V84.5H77.5V85.5Z" fill="#2D8C9E"/>
<path d="M4.45159 29.168C6.39559 29.168 7.46359 28.124 7.46359 26.66C7.46359 25.388 6.50359 24.608 5.15959 24.296L3.98359 24.02C3.03559 23.792 2.60359 23.456 2.60359 22.736C2.60359 21.98 3.22759 21.44 4.25959 21.44C5.62759 21.44 6.11959 22.352 6.29959 22.868L7.33159 22.364C7.09159 21.584 6.17959 20.432 4.39159 20.432C2.68759 20.432 1.53559 21.428 1.53559 22.796C1.53559 24.2 2.39959 24.812 3.64759 25.1L4.77559 25.364C5.81959 25.604 6.33559 26.024 6.33559 26.756C6.33559 27.596 5.67559 28.16 4.52359 28.16C3.20359 28.16 2.50759 27.356 2.17159 26.372L1.11559 26.888C1.52359 28.196 2.66359 29.168 4.45159 29.168ZM11.0798 29H12.4478V28.1H11.2118C10.7918 28.1 10.6118 27.92 10.6118 27.5V23.924H12.2318V23.06H10.6118V21.2H9.59181V23.06H8.21181V23.924H9.59181V27.56C9.59181 28.544 10.0958 29 11.0798 29ZM15.2745 29.168C16.1985 29.168 16.7625 28.772 17.2065 28.1C17.2785 28.592 17.4105 29 18.3105 29H19.0905V28.1H18.4665C18.1905 28.1 18.1185 28.028 18.1185 27.752V24.932C18.1185 23.708 17.3865 22.892 15.8025 22.892C14.2545 22.892 13.4385 23.732 13.2225 24.524L14.2185 24.884C14.3745 24.44 14.6985 23.792 15.7905 23.792C16.7025 23.792 17.0985 24.224 17.0985 24.944V25.112C15.1665 25.268 13.3545 25.832 13.3545 27.464C13.3545 28.52 14.0985 29.168 15.2745 29.168ZM15.5145 28.304C14.7705 28.304 14.4105 27.944 14.4105 27.38C14.4105 26.408 15.6465 26.036 17.0985 25.88V26.54C17.0985 27.776 16.2945 28.304 15.5145 28.304ZM22.1658 29H23.5338V28.1H22.2978C21.8778 28.1 21.6978 27.92 21.6978 27.5V23.924H23.3178V23.06H21.6978V21.2H20.6777V23.06H19.2978V23.924H20.6777V27.56C20.6777 28.544 21.1818 29 22.1658 29ZM26.7204 29.168C27.9564 29.168 28.5204 28.292 28.7004 27.968V29H29.6964V23.06H28.6764V25.58C28.6764 26.492 28.6524 28.268 27.0444 28.268C26.2644 28.268 25.7604 27.812 25.7604 26.696V23.06H24.7404V26.936C24.7404 28.256 25.3284 29.168 26.7204 29.168ZM33.719 29.168C35.219 29.168 36.083 28.46 36.083 27.344C36.083 25.988 34.679 25.628 34.079 25.508L33.395 25.376C32.543 25.208 32.351 24.968 32.351 24.572C32.351 24.14 32.735 23.732 33.563 23.732C34.571 23.732 34.907 24.368 35.051 24.764L35.975 24.428C35.735 23.648 35.039 22.892 33.563 22.892C32.399 22.892 31.391 23.612 31.391 24.68C31.391 25.808 32.255 26.18 33.239 26.372L33.923 26.504C34.787 26.672 35.063 26.984 35.063 27.428C35.063 27.992 34.583 28.292 33.719 28.292C32.783 28.292 32.303 27.848 32.123 27.14L31.139 27.464C31.403 28.604 32.507 29.168 33.719 29.168ZM40.715 29H41.735V20.6H40.715V29ZM45.2862 29.168C46.2102 29.168 46.7742 28.772 47.2182 28.1C47.2902 28.592 47.4222 29 48.3222 29H49.1022V28.1H48.4782C48.2022 28.1 48.1302 28.028 48.1302 27.752V24.932C48.1302 23.708 47.3982 22.892 45.8142 22.892C44.2662 22.892 43.4502 23.732 43.2342 24.524L44.2302 24.884C44.3862 24.44 44.7102 23.792 45.8022 23.792C46.7142 23.792 47.1102 24.224 47.1102 24.944V25.112C45.1782 25.268 43.3662 25.832 43.3662 27.464C43.3662 28.52 44.1102 29.168 45.2862 29.168ZM45.5262 28.304C44.7822 28.304 44.4222 27.944 44.4222 27.38C44.4222 26.408 45.6582 26.036 47.1102 25.88V26.54C47.1102 27.776 46.3062 28.304 45.5262 28.304ZM53.0995 29.168C54.4675 29.168 55.5115 27.98 55.5115 26.024C55.5115 24.068 54.4675 22.892 53.0995 22.892C52.0555 22.892 51.5035 23.468 51.2155 23.972V22.82V20.6H50.1955V29H51.1915V28.076C51.4795 28.58 52.0555 29.168 53.0995 29.168ZM52.8355 28.268C51.8635 28.268 51.1555 27.512 51.1555 26.012C51.1555 24.512 51.8635 23.792 52.8355 23.792C53.7835 23.792 54.4675 24.356 54.4675 26.012C54.4675 27.668 53.7835 28.268 52.8355 28.268ZM59.3301 29.168C60.4461 29.168 61.4421 28.664 61.8861 27.452L60.9501 27.128C60.7941 27.512 60.3741 28.28 59.3661 28.28C58.5381 28.28 57.7101 27.8 57.6501 26.3H61.8381C62.0661 24.356 60.9981 22.892 59.2701 22.892C57.7581 22.892 56.6421 24.104 56.6421 26.06C56.6421 28.076 57.7101 29.168 59.3301 29.168ZM57.6741 25.448C57.7581 24.368 58.4901 23.732 59.2701 23.732C60.0861 23.732 60.7941 24.32 60.7941 25.448H57.6741ZM63.4728 29H64.4928V20.6H63.4728V29Z" fill="#2D8C9E"/>
<path d="M12.0922 90.168C14.0362 90.168 15.1042 89.124 15.1042 87.66C15.1042 86.388 14.1442 85.608 12.8002 85.296L11.6242 85.02C10.6762 84.792 10.2442 84.456 10.2442 83.736C10.2442 82.98 10.8682 82.44 11.9002 82.44C13.2682 82.44 13.7602 83.352 13.9402 83.868L14.9722 83.364C14.7322 82.584 13.8202 81.432 12.0322 81.432C10.3282 81.432 9.17622 82.428 9.17622 83.796C9.17622 85.2 10.0402 85.812 11.2882 86.1L12.4162 86.364C13.4602 86.604 13.9762 87.024 13.9762 87.756C13.9762 88.596 13.3162 89.16 12.1642 89.16C10.8442 89.16 10.1482 88.356 9.81222 87.372L8.75622 87.888C9.16422 89.196 10.3042 90.168 12.0922 90.168ZM18.7204 90H20.0884V89.1H18.8524C18.4324 89.1 18.2524 88.92 18.2524 88.5V84.924H19.8724V84.06H18.2524V82.2H17.2324V84.06H15.8524V84.924H17.2324V88.56C17.2324 89.544 17.7364 90 18.7204 90ZM22.9151 90.168C23.8391 90.168 24.4031 89.772 24.8471 89.1C24.9191 89.592 25.0511 90 25.9511 90H26.7311V89.1H26.1071C25.8311 89.1 25.7591 89.028 25.7591 88.752V85.932C25.7591 84.708 25.0271 83.892 23.4431 83.892C21.8951 83.892 21.0791 84.732 20.8631 85.524L21.8591 85.884C22.0151 85.44 22.3391 84.792 23.4311 84.792C24.3431 84.792 24.7391 85.224 24.7391 85.944V86.112C22.8071 86.268 20.9951 86.832 20.9951 88.464C20.9951 89.52 21.7391 90.168 22.9151 90.168ZM23.1551 89.304C22.4111 89.304 22.0511 88.944 22.0511 88.38C22.0511 87.408 23.2871 87.036 24.7391 86.88V87.54C24.7391 88.776 23.9351 89.304 23.1551 89.304ZM29.8064 90H31.1744V89.1H29.9384C29.5184 89.1 29.3384 88.92 29.3384 88.5V84.924H30.9584V84.06H29.3384V82.2H28.3184V84.06H26.9384V84.924H28.3184V88.56C28.3184 89.544 28.8224 90 29.8064 90ZM34.361 90.168C35.597 90.168 36.161 89.292 36.341 88.968V90H37.337V84.06H36.317V86.58C36.317 87.492 36.293 89.268 34.685 89.268C33.905 89.268 33.401 88.812 33.401 87.696V84.06H32.381V87.936C32.381 89.256 32.969 90.168 34.361 90.168ZM41.3597 90.168C42.8597 90.168 43.7237 89.46 43.7237 88.344C43.7237 86.988 42.3197 86.628 41.7197 86.508L41.0357 86.376C40.1837 86.208 39.9917 85.968 39.9917 85.572C39.9917 85.14 40.3757 84.732 41.2037 84.732C42.2117 84.732 42.5477 85.368 42.6917 85.764L43.6157 85.428C43.3757 84.648 42.6797 83.892 41.2037 83.892C40.0397 83.892 39.0317 84.612 39.0317 85.68C39.0317 86.808 39.8957 87.18 40.8797 87.372L41.5637 87.504C42.4277 87.672 42.7037 87.984 42.7037 88.428C42.7037 88.992 42.2237 89.292 41.3597 89.292C40.4237 89.292 39.9437 88.848 39.7637 88.14L38.7797 88.464C39.0437 89.604 40.1477 90.168 41.3597 90.168ZM50.3237 90.168C51.3677 90.168 51.9437 89.592 52.2317 89.088V90H53.2277V81.6H52.2077V83.82V84.984C51.9197 84.48 51.3677 83.892 50.3237 83.892C48.9557 83.892 47.9117 85.08 47.9117 87.036C47.9117 88.992 48.9557 90.168 50.3237 90.168ZM50.5877 89.268C49.6397 89.268 48.9557 88.704 48.9557 87.048C48.9557 85.392 49.6397 84.792 50.5877 84.792C51.5597 84.792 52.2677 85.548 52.2677 87.048C52.2677 88.548 51.5597 89.268 50.5877 89.268ZM57.5383 90.168C59.0983 90.168 60.2983 88.824 60.2983 87.036C60.2983 85.248 59.1463 83.892 57.5383 83.892C55.9303 83.892 54.7783 85.248 54.7783 87.036C54.7783 88.824 55.9783 90.168 57.5383 90.168ZM57.5383 89.268C56.5303 89.268 55.8343 88.548 55.8343 87.048C55.8343 85.548 56.5303 84.792 57.5383 84.792C58.5463 84.792 59.2423 85.548 59.2423 87.048C59.2423 88.548 58.5463 89.268 57.5383 89.268ZM63.8493 90H65.2173V89.1H63.9813C63.5613 89.1 63.3813 88.92 63.3813 88.5V84.924H65.0013V84.06H63.3813V82.2H62.3613V84.06H60.9813V84.924H62.3613V88.56C62.3613 89.544 62.8653 90 63.8493 90Z" fill="#2D8C9E"/>
<rect x="153.5" y="60" width="24" height="48" fill="#F3EAFE"/>
<rect x="137.5" y="48" width="309" height="12" fill="#F3EAFE"/>
<circle cx="145.5" cy="84" r="8" fill="#00B478"/>
<path d="M187.548 95.448C192.732 95.448 195.58 92.664 195.58 88.76C195.58 85.368 193.02 83.288 189.436 82.456L186.3 81.72C183.772 81.112 182.62 80.216 182.62 78.296C182.62 76.28 184.284 74.84 187.036 74.84C190.684 74.84 191.996 77.272 192.476 78.648L195.228 77.304C194.588 75.224 192.156 72.152 187.388 72.152C182.844 72.152 179.772 74.808 179.772 78.456C179.772 82.2 182.076 83.832 185.404 84.6L188.412 85.304C191.196 85.944 192.572 87.064 192.572 89.016C192.572 91.256 190.812 92.76 187.74 92.76C184.22 92.76 182.364 90.616 181.468 87.992L178.652 89.368C179.74 92.856 182.78 95.448 187.548 95.448ZM209.444 79.16L206.564 87.832C205.924 89.752 205.732 90.328 205.444 91.256C205.124 90.424 204.868 89.784 203.876 87.384L200.484 79.16H197.412L204.26 94.808L203.364 97.336C202.948 98.52 202.244 98.744 201.188 98.744H198.18V101.24H201.188C203.972 101.24 205.124 100.312 206.18 97.176L212.324 79.16H209.444ZM220.907 95.448C224.907 95.448 227.211 93.56 227.211 90.584C227.211 86.968 223.467 86.008 221.867 85.688L220.043 85.336C217.771 84.888 217.259 84.248 217.259 83.192C217.259 82.04 218.283 80.952 220.491 80.952C223.179 80.952 224.075 82.648 224.459 83.704L226.923 82.808C226.283 80.728 224.427 78.712 220.491 78.712C217.387 78.712 214.699 80.632 214.699 83.48C214.699 86.488 217.003 87.48 219.627 87.992L221.451 88.344C223.755 88.792 224.491 89.624 224.491 90.808C224.491 92.312 223.211 93.112 220.907 93.112C218.411 93.112 217.131 91.928 216.651 90.04L214.027 90.904C214.731 93.944 217.675 95.448 220.907 95.448ZM236.63 95H240.278V92.6H236.982C235.862 92.6 235.382 92.12 235.382 91V81.464H239.702V79.16H235.382V74.2H232.661V79.16H228.982V81.464H232.661V91.16C232.661 93.784 234.006 95 236.63 95ZM249.547 95.448C252.523 95.448 255.179 94.104 256.363 90.872L253.867 90.008C253.451 91.032 252.331 93.08 249.643 93.08C247.435 93.08 245.227 91.8 245.067 87.8H256.235C256.843 82.616 253.995 78.712 249.387 78.712C245.355 78.712 242.379 81.944 242.379 87.16C242.379 92.536 245.227 95.448 249.547 95.448ZM245.131 85.528C245.355 82.648 247.307 80.952 249.387 80.952C251.563 80.952 253.451 82.52 253.451 85.528H245.131ZM260.594 95H263.314V87.64C263.314 85.368 263.506 81.144 267.378 81.144C269.49 81.144 270.898 82.232 270.898 85.304V95H273.554V87.64C273.554 85.368 273.65 81.144 277.65 81.144C279.762 81.144 281.138 82.232 281.138 85.304V95H283.858V84.504C283.858 80.824 281.938 78.712 278.322 78.712C274.962 78.712 273.554 80.792 273.01 82.104C272.21 79.96 270.354 78.712 268.018 78.712C265.17 78.712 263.826 80.536 263.25 81.56V79.16H260.594V95ZM303.394 95.448C307.554 95.448 310.754 91.864 310.754 87.096C310.754 82.328 307.682 78.712 303.394 78.712C299.106 78.712 296.034 82.328 296.034 87.096C296.034 91.864 299.234 95.448 303.394 95.448ZM303.394 93.048C300.706 93.048 298.85 91.128 298.85 87.128C298.85 83.128 300.706 81.112 303.394 81.112C306.082 81.112 307.938 83.128 307.938 87.128C307.938 91.128 306.082 93.048 303.394 93.048ZM314.876 101.24H317.596V95.64V92.536C318.364 93.88 319.836 95.448 322.62 95.448C326.268 95.448 329.052 92.28 329.052 87.064C329.052 81.848 326.268 78.712 322.62 78.712C319.836 78.712 318.3 80.248 317.532 81.592V79.16H314.876V101.24ZM321.916 93.048C319.324 93.048 317.436 91.032 317.436 87.032C317.436 83.032 319.324 81.112 321.916 81.112C324.444 81.112 326.268 82.616 326.268 87.032C326.268 91.448 324.444 93.048 321.916 93.048ZM339.235 95.448C342.211 95.448 344.867 94.104 346.051 90.872L343.555 90.008C343.139 91.032 342.019 93.08 339.331 93.08C337.123 93.08 334.915 91.8 334.755 87.8H345.923C346.531 82.616 343.683 78.712 339.075 78.712C335.043 78.712 332.067 81.944 332.067 87.16C332.067 92.536 334.915 95.448 339.235 95.448ZM334.819 85.528C335.043 82.648 336.995 80.952 339.075 80.952C341.251 80.952 343.139 82.52 343.139 85.528H334.819ZM350.282 95H353.002V87.736C353.002 84.024 354.474 81.752 358.058 81.752C358.698 81.752 359.242 81.816 359.754 81.912V79.128C359.37 79.032 358.89 78.936 358.122 78.936C355.114 78.936 353.482 81.272 352.97 82.456V79.16H350.282V95ZM366.94 95.448C369.404 95.448 370.908 94.392 372.092 92.6C372.284 93.912 372.636 95 375.036 95H377.116V92.6H375.452C374.716 92.6 374.524 92.408 374.524 91.672V84.152C374.524 80.888 372.572 78.712 368.348 78.712C364.22 78.712 362.044 80.952 361.468 83.064L364.124 84.024C364.54 82.84 365.404 81.112 368.316 81.112C370.748 81.112 371.804 82.264 371.804 84.184V84.632C366.652 85.048 361.82 86.552 361.82 90.904C361.82 93.72 363.804 95.448 366.94 95.448ZM367.58 93.144C365.596 93.144 364.636 92.184 364.636 90.68C364.636 88.088 367.932 87.096 371.804 86.68V88.44C371.804 91.736 369.66 93.144 367.58 93.144ZM385.317 95H388.965V92.6H385.669C384.549 92.6 384.069 92.12 384.069 91V81.464H388.389V79.16H384.069V74.2H381.349V79.16H377.669V81.464H381.349V91.16C381.349 93.784 382.693 95 385.317 95ZM392.311 76.056H395.191V72.6H392.311V76.056ZM392.407 95H395.127V79.16H392.407V95ZM406.613 95.448C410.773 95.448 413.972 91.864 413.972 87.096C413.972 82.328 410.901 78.712 406.613 78.712C402.325 78.712 399.253 82.328 399.253 87.096C399.253 91.864 402.453 95.448 406.613 95.448ZM406.613 93.048C403.925 93.048 402.069 91.128 402.069 87.128C402.069 83.128 403.925 81.112 406.613 81.112C409.301 81.112 411.157 83.128 411.157 87.128C411.157 91.128 409.301 93.048 406.613 93.048ZM418.094 95H420.814V88.28C420.814 85.944 420.91 81.112 425.262 81.112C427.374 81.112 428.75 82.328 428.75 85.304V95H431.47V84.664C431.47 81.144 429.87 78.712 425.934 78.712C422.51 78.712 420.974 81.144 420.75 81.848V79.16H418.094V95ZM440.722 95.448C443.186 95.448 444.69 94.392 445.874 92.6C446.066 93.912 446.418 95 448.818 95H450.898V92.6H449.234C448.498 92.6 448.306 92.408 448.306 91.672V84.152C448.306 80.888 446.354 78.712 442.13 78.712C438.002 78.712 435.826 80.952 435.25 83.064L437.906 84.024C438.322 82.84 439.186 81.112 442.098 81.112C444.53 81.112 445.586 82.264 445.586 84.184V84.632C440.434 85.048 435.602 86.552 435.602 90.904C435.602 93.72 437.586 95.448 440.722 95.448ZM441.362 93.144C439.378 93.144 438.418 92.184 438.418 90.68C438.418 88.088 441.714 87.096 445.586 86.68V88.44C445.586 91.736 443.442 93.144 441.362 93.144ZM453.813 95H456.533V72.6H453.813V95Z" fill="#1D1D21"/>
<path d="M150.62 35.48C157.692 35.48 162.268 30.648 162.268 23.832C162.268 17.048 157.628 12.12 150.62 12.12C143.58 12.12 138.972 17.048 138.972 23.832C138.972 30.648 143.548 35.48 150.62 35.48ZM150.62 31.928C146.044 31.928 143.324 28.472 143.324 23.832C143.324 19.128 146.044 15.672 150.62 15.672C155.196 15.672 157.884 19.128 157.884 23.832C157.884 28.472 155.196 31.928 150.62 31.928ZM177.927 35H182.855L175.271 25.496L181.991 19.064H177.127L169.991 26.136V20.6V12.6H166.087V35H169.991V30.52L172.583 28.088L177.927 35ZM190.625 35H195.361V31.8H191.969C190.945 31.8 190.497 31.352 190.497 30.328V22.104H194.721V19.064H190.497V14.04H186.593V19.064H183.137V22.104H186.593V30.936C186.593 33.464 188.033 35 190.625 35ZM202.59 35.48C205.278 35.48 206.974 34.136 207.934 32.632C208.126 34.04 208.83 35 210.846 35H213.854V31.928H212.35C211.518 31.928 211.39 31.736 211.39 30.968V24.536C211.39 20.632 208.99 18.584 204.606 18.584C200.126 18.584 197.63 20.92 197.246 23.288L200.862 24.216C201.246 22.808 202.238 21.56 204.606 21.56C206.654 21.56 207.55 22.488 207.55 24.056V24.6C202.27 25.08 197.502 26.456 197.502 30.904C197.502 33.72 199.614 35.48 202.59 35.48ZM203.87 32.536C202.27 32.536 201.47 31.736 201.47 30.52C201.47 28.248 204.254 27.544 207.55 27.16V28.44C207.55 31.288 205.758 32.536 203.87 32.536ZM230.1 35.448C234.548 35.448 237.14 33.432 237.14 30.328C237.14 27.064 234.196 25.848 231.668 25.368L229.62 24.952C227.7 24.6 227.188 24.088 227.188 23.192C227.188 22.232 228.052 21.4 229.812 21.4C231.796 21.4 232.852 22.616 233.3 23.832L236.596 22.424C235.924 20.632 233.94 18.584 229.94 18.584C226.1 18.584 223.476 20.568 223.476 23.544C223.476 26.648 225.524 27.704 228.628 28.312L230.74 28.728C232.628 29.112 233.108 29.816 233.108 30.712C233.108 31.832 232.116 32.568 230.26 32.568C227.38 32.568 226.612 30.616 226.42 29.72L222.804 30.872C223.508 33.784 226.516 35.448 230.1 35.448ZM246 35H250.736V31.8H247.344C246.32 31.8 245.872 31.352 245.872 30.328V22.104H250.096V19.064H245.872V14.04H241.968V19.064H238.512V22.104H241.968V30.936C241.968 33.464 243.408 35 246 35ZM257.965 35.48C260.653 35.48 262.349 34.136 263.309 32.632C263.501 34.04 264.205 35 266.221 35H269.229V31.928H267.725C266.893 31.928 266.765 31.736 266.765 30.968V24.536C266.765 20.632 264.365 18.584 259.981 18.584C255.501 18.584 253.005 20.92 252.621 23.288L256.237 24.216C256.621 22.808 257.613 21.56 259.981 21.56C262.029 21.56 262.925 22.488 262.925 24.056V24.6C257.645 25.08 252.877 26.456 252.877 30.904C252.877 33.72 254.989 35.48 257.965 35.48ZM259.245 32.536C257.645 32.536 256.845 31.736 256.845 30.52C256.845 28.248 259.629 27.544 262.925 27.16V28.44C262.925 31.288 261.133 32.536 259.245 32.536ZM277.156 35H281.892V31.8H278.5C277.476 31.8 277.028 31.352 277.028 30.328V22.104H281.252V19.064H277.028V14.04H273.124V19.064H269.668V22.104H273.124V30.936C273.124 33.464 274.564 35 277.156 35ZM289.857 35.48C292.993 35.48 294.465 33.432 295.105 32.376V35H298.977V19.064H295.073V26.552C295.073 29.112 294.497 32.216 291.457 32.216C289.761 32.216 288.705 31.224 288.705 28.76V19.064H284.801V29.688C284.801 33.176 286.561 35.48 289.857 35.48ZM309.6 35.448C314.048 35.448 316.64 33.432 316.64 30.328C316.64 27.064 313.696 25.848 311.168 25.368L309.12 24.952C307.2 24.6 306.688 24.088 306.688 23.192C306.688 22.232 307.552 21.4 309.312 21.4C311.296 21.4 312.352 22.616 312.8 23.832L316.096 22.424C315.424 20.632 313.44 18.584 309.44 18.584C305.6 18.584 302.976 20.568 302.976 23.544C302.976 26.648 305.024 27.704 308.128 28.312L310.24 28.728C312.128 29.112 312.608 29.816 312.608 30.712C312.608 31.832 311.616 32.568 309.76 32.568C306.88 32.568 306.112 30.616 305.92 29.72L302.304 30.872C303.008 33.784 306.016 35.448 309.6 35.448Z" fill="#1D1D21"/>
<path d="M165 174L165 174.5L166 174.5L166 174L165 174ZM165.854 125.646C165.658 125.451 165.342 125.451 165.146 125.646L161.964 128.828C161.769 129.024 161.769 129.34 161.964 129.536C162.16 129.731 162.476 129.731 162.672 129.536L165.5 126.707L168.328 129.536C168.524 129.731 168.84 129.731 169.036 129.536C169.231 129.34 169.231 129.024 169.036 128.828L165.854 125.646ZM166 174L166 126L165 126L165 174L166 174Z" fill="#2D8C9E"/>
<path d="M75.1078 169.168C77.0518 169.168 78.1198 168.124 78.1198 166.66C78.1198 165.388 77.1598 164.608 75.8158 164.296L74.6398 164.02C73.6918 163.792 73.2598 163.456 73.2598 162.736C73.2598 161.98 73.8838 161.44 74.9158 161.44C76.2838 161.44 76.7758 162.352 76.9558 162.868L77.9878 162.364C77.7478 161.584 76.8358 160.432 75.0478 160.432C73.3438 160.432 72.1918 161.428 72.1918 162.796C72.1918 164.2 73.0558 164.812 74.3038 165.1L75.4318 165.364C76.4758 165.604 76.9918 166.024 76.9918 166.756C76.9918 167.596 76.3318 168.16 75.1798 168.16C73.8598 168.16 73.1638 167.356 72.8278 166.372L71.7718 166.888C72.1798 168.196 73.3198 169.168 75.1078 169.168ZM79.6721 169H80.6921V166.24C80.6921 165.388 80.7641 163.804 82.2161 163.804C83.0081 163.804 83.5361 164.212 83.5361 165.364V169H84.5321V166.24C84.5321 165.388 84.5681 163.804 86.0681 163.804C86.8601 163.804 87.3761 164.212 87.3761 165.364V169H88.3961V165.064C88.3961 163.684 87.6761 162.892 86.3201 162.892C85.0601 162.892 84.5321 163.672 84.3281 164.164C84.0281 163.36 83.3321 162.892 82.4561 162.892C81.3881 162.892 80.8841 163.576 80.6681 163.96V163.06H79.6721V169ZM91.8604 169.168C92.7844 169.168 93.3484 168.772 93.7924 168.1C93.8644 168.592 93.9964 169 94.8964 169H95.6764V168.1H95.0524C94.7764 168.1 94.7044 168.028 94.7044 167.752V164.932C94.7044 163.708 93.9724 162.892 92.3884 162.892C90.8404 162.892 90.0244 163.732 89.8084 164.524L90.8044 164.884C90.9604 164.44 91.2844 163.792 92.3764 163.792C93.2884 163.792 93.6844 164.224 93.6844 164.944V165.112C91.7524 165.268 89.9404 165.832 89.9404 167.464C89.9404 168.52 90.6844 169.168 91.8604 169.168ZM92.1004 168.304C91.3564 168.304 90.9964 167.944 90.9964 167.38C90.9964 166.408 92.2324 166.036 93.6844 165.88V166.54C93.6844 167.776 92.8804 168.304 92.1004 168.304ZM96.7697 169H97.7897V160.6H96.7697V169ZM99.8049 169H100.825V160.6H99.8049V169ZM107.95 169.168C109.45 169.168 110.314 168.46 110.314 167.344C110.314 165.988 108.91 165.628 108.31 165.508L107.626 165.376C106.774 165.208 106.582 164.968 106.582 164.572C106.582 164.14 106.966 163.732 107.794 163.732C108.802 163.732 109.138 164.368 109.282 164.764L110.206 164.428C109.966 163.648 109.27 162.892 107.794 162.892C106.63 162.892 105.622 163.612 105.622 164.68C105.622 165.808 106.486 166.18 107.47 166.372L108.154 166.504C109.018 166.672 109.294 166.984 109.294 167.428C109.294 167.992 108.814 168.292 107.95 168.292C107.014 168.292 106.534 167.848 106.354 167.14L105.37 167.464C105.634 168.604 106.738 169.168 107.95 169.168ZM111.84 171.34H112.86V169.24V168.076C113.148 168.58 113.7 169.168 114.744 169.168C116.112 169.168 117.156 167.98 117.156 166.024C117.156 164.068 116.112 162.892 114.744 162.892C113.7 162.892 113.124 163.468 112.836 163.972V163.06H111.84V171.34ZM114.48 168.268C113.508 168.268 112.8 167.512 112.8 166.012C112.8 164.512 113.508 163.792 114.48 163.792C115.428 163.792 116.112 164.356 116.112 166.012C116.112 167.668 115.428 168.268 114.48 168.268ZM120.267 169.168C121.191 169.168 121.755 168.772 122.199 168.1C122.271 168.592 122.403 169 123.303 169H124.083V168.1H123.459C123.183 168.1 123.111 168.028 123.111 167.752V164.932C123.111 163.708 122.379 162.892 120.795 162.892C119.247 162.892 118.431 163.732 118.215 164.524L119.211 164.884C119.367 164.44 119.691 163.792 120.783 163.792C121.695 163.792 122.091 164.224 122.091 164.944V165.112C120.159 165.268 118.347 165.832 118.347 167.464C118.347 168.52 119.091 169.168 120.267 169.168ZM120.507 168.304C119.763 168.304 119.403 167.944 119.403 167.38C119.403 166.408 120.639 166.036 122.091 165.88V166.54C122.091 167.776 121.287 168.304 120.507 168.304ZM127.54 169.168C128.872 169.168 129.736 168.388 130.12 167.284L129.16 166.948C128.968 167.596 128.524 168.268 127.54 168.268C126.556 168.268 125.788 167.548 125.788 166.024C125.788 164.536 126.58 163.792 127.528 163.792C128.392 163.792 128.824 164.356 129.016 164.92L129.964 164.608C129.688 163.684 128.872 162.892 127.528 162.892C125.884 162.892 124.72 164.188 124.72 166.024C124.72 167.944 125.824 169.168 127.54 169.168ZM131.445 161.896H132.525V160.6H131.445V161.896ZM131.481 169H132.501V163.06H131.481V169ZM134.516 169H135.536V166.48C135.536 165.604 135.572 163.792 137.204 163.792C137.996 163.792 138.512 164.248 138.512 165.364V169H139.532V165.124C139.532 163.804 138.932 162.892 137.456 162.892C136.172 162.892 135.596 163.804 135.512 164.068V163.06H134.516V169ZM142.425 171.34H145.197C146.205 171.34 147.057 170.812 147.057 169.708C147.057 168.712 146.313 168.064 145.173 168.064H142.581C142.161 168.064 142.077 167.848 142.077 167.656C142.077 167.44 142.293 167.212 142.617 167.068C142.941 167.26 143.313 167.296 143.721 167.296C145.041 167.296 145.941 166.42 146.037 165.076L146.061 164.752C146.109 164.056 146.313 163.924 146.853 163.924H147.309V163.06H146.673C146.097 163.06 145.821 163.456 145.701 163.912C145.449 163.492 144.825 162.892 143.721 162.892C142.353 162.892 141.357 163.864 141.357 165.1C141.357 165.844 141.681 166.384 142.017 166.684C141.633 166.96 141.141 167.356 141.141 167.944C141.141 168.412 141.333 168.688 141.669 168.892C141.309 169.096 140.877 169.54 140.877 170.14C140.877 170.836 141.285 171.34 142.425 171.34ZM143.721 166.456C142.917 166.456 142.389 165.916 142.389 165.1C142.389 164.284 142.917 163.732 143.721 163.732C144.525 163.732 145.053 164.284 145.053 165.1C145.053 165.916 144.525 166.456 143.721 166.456ZM142.773 170.428C142.149 170.428 141.813 170.296 141.813 169.804C141.813 169.396 142.077 169.132 142.281 169H145.089C145.557 169 146.025 169.096 146.025 169.708C146.025 170.32 145.557 170.428 145.089 170.428H142.773Z" fill="#2D8C9E"/>
</svg>
