<svg viewBox="0 0 958 346" fill="none" xmlns="http://www.w3.org/2000/svg"><path d="M271.912 140H280.008C286.536 140 291.496 135.808 291.496 128.672C291.496 121.792 286.504 117.6 280.104 117.6H271.912V140ZM276.072 136.448V121.152H279.912C284.808 121.152 287.176 124.192 287.176 128.736C287.176 133.792 284.744 136.448 279.688 136.448H276.072ZM302.025 140.48C306.217 140.48 308.457 138.304 309.481 135.84L305.961 134.528C305.385 135.872 304.329 137.408 302.057 137.408C300.009 137.408 298.281 136.224 298.121 132.992H309.385C309.897 127.712 307.049 123.584 301.961 123.584C297.545 123.584 294.249 126.944 294.249 132.032C294.249 137.344 297.321 140.48 302.025 140.48ZM298.249 130.112C298.537 127.808 300.041 126.496 301.961 126.496C303.977 126.496 305.385 127.776 305.513 130.112H298.249ZM319.037 140.448C323.485 140.448 326.077 138.432 326.077 135.328C326.077 132.064 323.133 130.848 320.605 130.368L318.557 129.952C316.637 129.6 316.125 129.088 316.125 128.192C316.125 127.232 316.989 126.4 318.749 126.4C320.733 126.4 321.789 127.616 322.237 128.832L325.533 127.424C324.861 125.632 322.877 123.584 318.877 123.584C315.037 123.584 312.413 125.568 312.413 128.544C312.413 131.648 314.461 132.704 317.565 133.312L319.677 133.728C321.565 134.112 322.045 134.816 322.045 135.712C322.045 136.832 321.053 137.568 319.197 137.568C316.317 137.568 315.549 135.616 315.357 134.72L311.741 135.872C312.445 138.784 315.453 140.448 319.037 140.448ZM329.396 121.536H333.556V117.568H329.396V121.536ZM329.556 140H333.428V124.064H329.556V140ZM338.118 140H342.022V133.28C342.022 129.376 343.462 127.744 346.854 127.744C347.43 127.744 348.006 127.776 348.582 127.872V123.872C348.294 123.808 347.974 123.776 347.526 123.776C343.974 123.776 342.47 126.304 341.958 127.584V124.064H338.118V140ZM357.9 140.48C362.092 140.48 364.332 138.304 365.356 135.84L361.836 134.528C361.26 135.872 360.204 137.408 357.932 137.408C355.884 137.408 354.156 136.224 353.996 132.992H365.26C365.772 127.712 362.924 123.584 357.836 123.584C353.42 123.584 350.124 126.944 350.124 132.032C350.124 137.344 353.196 140.48 357.9 140.48ZM354.124 130.112C354.412 127.808 355.916 126.496 357.836 126.496C359.852 126.496 361.26 127.776 361.388 130.112H354.124ZM374.72 140.48C377.472 140.48 379.2 138.944 379.936 137.76V140H383.744V117.6H379.84V123.424V126.304C379.104 125.12 377.44 123.584 374.72 123.584C370.688 123.584 367.968 126.912 367.968 132.032C367.968 137.152 370.688 140.48 374.72 140.48ZM376 137.408C373.728 137.408 372.032 136.032 372.032 132.032C372.032 128.064 373.728 126.656 376 126.656C378.368 126.656 380.032 128.448 380.032 132.032C380.032 135.648 378.368 137.408 376 137.408ZM402.194 140.448C406.642 140.448 409.234 138.432 409.234 135.328C409.234 132.064 406.29 130.848 403.762 130.368L401.714 129.952C399.794 129.6 399.282 129.088 399.282 128.192C399.282 127.232 400.146 126.4 401.906 126.4C403.89 126.4 404.946 127.616 405.394 128.832L408.69 127.424C408.018 125.632 406.034 123.584 402.034 123.584C398.194 123.584 395.57 125.568 395.57 128.544C395.57 131.648 397.618 132.704 400.722 133.312L402.834 133.728C404.722 134.112 405.202 134.816 405.202 135.712C405.202 136.832 404.21 137.568 402.354 137.568C399.474 137.568 398.706 135.616 398.514 134.72L394.898 135.872C395.602 138.784 398.61 140.448 402.194 140.448ZM412.712 146.24H416.616V140.64V137.728C417.352 138.976 419.016 140.48 421.736 140.48C425.8 140.48 428.52 137.12 428.52 132.032C428.52 126.912 425.8 123.552 421.736 123.552C418.984 123.552 417.256 125.152 416.52 126.304V124.064H412.712V146.24ZM420.456 137.408C418.088 137.408 416.424 135.616 416.424 132C416.424 128.416 418.088 126.624 420.456 126.624C422.728 126.624 424.456 128.032 424.456 132C424.456 136 422.728 137.408 420.456 137.408ZM438.869 140.48C443.061 140.48 445.301 138.304 446.325 135.84L442.805 134.528C442.229 135.872 441.173 137.408 438.901 137.408C436.853 137.408 435.125 136.224 434.965 132.992H446.229C446.741 127.712 443.893 123.584 438.805 123.584C434.389 123.584 431.093 126.944 431.093 132.032C431.093 137.344 434.165 140.48 438.869 140.48ZM435.093 130.112C435.381 127.808 436.885 126.496 438.805 126.496C440.821 126.496 442.229 127.776 442.357 130.112H435.093ZM456.681 140.48C460.873 140.48 463.113 138.304 464.137 135.84L460.617 134.528C460.041 135.872 458.985 137.408 456.713 137.408C454.665 137.408 452.937 136.224 452.777 132.992H464.041C464.553 127.712 461.705 123.584 456.617 123.584C452.201 123.584 448.905 126.944 448.905 132.032C448.905 137.344 451.977 140.48 456.681 140.48ZM452.905 130.112C453.193 127.808 454.697 126.496 456.617 126.496C458.633 126.496 460.041 127.776 460.169 130.112H452.905ZM473.502 140.48C476.254 140.48 477.982 138.944 478.718 137.76V140H482.526V117.6H478.622V123.424V126.304C477.886 125.12 476.222 123.584 473.502 123.584C469.47 123.584 466.75 126.912 466.75 132.032C466.75 137.152 469.47 140.48 473.502 140.48ZM474.782 137.408C472.51 137.408 470.814 136.032 470.814 132.032C470.814 128.064 472.51 126.656 474.782 126.656C477.15 126.656 478.814 128.448 478.814 132.032C478.814 135.648 477.15 137.408 474.782 137.408Z" fill="#1D1D21"/><rect x="269.5" y="165.5" width="419" height="75" rx="7.5" fill="#fff"/><path d="M298.684 212H302.1L305.6 199.792C306.356 197.188 306.58 196.376 306.748 195.732L307.84 199.792L311.116 212H314.476L319.488 192.4H316.856L314.056 203.936C313.132 207.716 312.964 208.36 312.768 209.088C312.544 208.36 312.376 207.744 311.76 205.42L308.288 192.4H305.292L301.932 204.16L300.532 209.088C300.364 208.388 300.168 207.548 299.384 204.076L296.752 192.4H294.12L298.684 212ZM325.651 212.392C327.807 212.392 329.123 211.468 330.159 209.9C330.327 211.048 330.635 212 332.735 212H334.555V209.9H333.099C332.455 209.9 332.287 209.732 332.287 209.088V202.508C332.287 199.652 330.579 197.748 326.883 197.748C323.271 197.748 321.367 199.708 320.863 201.556L323.187 202.396C323.551 201.36 324.307 199.848 326.855 199.848C328.983 199.848 329.907 200.856 329.907 202.536V202.928C325.399 203.292 321.171 204.608 321.171 208.416C321.171 210.88 322.907 212.392 325.651 212.392ZM326.211 210.376C324.475 210.376 323.635 209.536 323.635 208.22C323.635 205.952 326.519 205.084 329.907 204.72V206.26C329.907 209.144 328.031 210.376 326.211 210.376ZM337.106 212H339.486V205.644C339.486 202.396 340.774 200.408 343.91 200.408C344.47 200.408 344.946 200.464 345.394 200.548V198.112C345.058 198.028 344.638 197.944 343.966 197.944C341.334 197.944 339.906 199.988 339.458 201.024V198.14H337.106V212ZM348.207 217.46H350.587V212.56V209.844C351.259 211.02 352.547 212.392 354.983 212.392C358.175 212.392 360.611 209.62 360.611 205.056C360.611 200.492 358.175 197.748 354.983 197.748C352.547 197.748 351.203 199.092 350.531 200.268V198.14H348.207V217.46ZM354.367 210.292C352.099 210.292 350.447 208.528 350.447 205.028C350.447 201.528 352.099 199.848 354.367 199.848C356.579 199.848 358.175 201.164 358.175 205.028C358.175 208.892 356.579 210.292 354.367 210.292Z" fill="#1D1D21"/><path fill-rule="evenodd" clip-rule="evenodd" d="M649 205.667L638.49 195.657C638.103 195.289 637.497 195.289 637.11 195.657L635.76 196.943C635.347 197.337 635.347 197.997 635.76 198.391L649 211L662.222 198.232C662.642 197.827 662.627 197.15 662.191 196.764L660.888 195.609C660.499 195.265 659.911 195.275 659.535 195.634L649 205.667Z" fill="#1D1D21"/><rect x="269.5" y="165.5" width="419" height="75" rx="7.5" stroke="#C1C1C8"/><path opacity="0.2" fill="#DA372C" d="M269 153H689V165H269z"/><path d="M792 204.018C792.562 204.018 793.018 203.562 793.018 203C793.018 202.438 792.562 201.982 792 201.982L792 204.018ZM676.28 202.28C675.883 202.678 675.883 203.322 676.28 203.72L682.758 210.197C683.155 210.595 683.8 210.595 684.197 210.197C684.595 209.8 684.595 209.155 684.197 208.758L678.439 203L684.197 197.242C684.595 196.845 684.595 196.2 684.197 195.803C683.8 195.405 683.155 195.405 682.758 195.803L676.28 202.28ZM792 201.982L677 201.982L677 204.018L792 204.018L792 201.982Z" fill="#DA372C"/><path d="M809.728 208.224C812.544 208.224 813.968 206.576 813.968 203.68V196.8H812.528V203.472C812.528 205.52 811.664 206.848 809.728 206.848C807.792 206.848 806.928 205.536 806.928 203.472V196.8H805.488V203.68C805.488 206.816 807.136 208.224 809.728 208.224ZM817.101 208H818.541V196.8H817.101V208ZM825.624 198.528H827.064V196.8H825.624V198.528ZM825.672 208H827.032V200.08H825.672V208ZM829.719 208H831.079V204.64C831.079 203.472 831.127 201.056 833.303 201.056C834.359 201.056 835.047 201.664 835.047 203.152V208H836.407V202.832C836.407 201.072 835.607 199.856 833.639 199.856C831.927 199.856 831.159 201.072 831.047 201.424V200.08H829.719V208ZM841.609 208.224C843.001 208.224 843.769 207.456 844.153 206.784V208H845.481V196.8H844.121V199.76V201.312C843.737 200.64 843.001 199.856 841.609 199.856C839.785 199.856 838.393 201.44 838.393 204.048C838.393 206.656 839.785 208.224 841.609 208.224ZM841.961 207.024C840.697 207.024 839.785 206.272 839.785 204.064C839.785 201.856 840.697 201.056 841.961 201.056C843.257 201.056 844.201 202.064 844.201 204.064C844.201 206.064 843.257 207.024 841.961 207.024ZM848.124 198.528H849.564V196.8H848.124V198.528ZM848.172 208H849.532V200.08H848.172V208ZM855.371 208.224C857.147 208.224 858.299 207.184 858.811 205.712L857.531 205.264C857.275 206.128 856.683 207.024 855.371 207.024C854.059 207.024 853.035 206.064 853.035 204.032C853.035 202.048 854.091 201.056 855.355 201.056C856.507 201.056 857.083 201.808 857.339 202.56L858.603 202.144C858.235 200.912 857.147 199.856 855.355 199.856C853.163 199.856 851.611 201.584 851.611 204.032C851.611 206.592 853.083 208.224 855.371 208.224ZM863.249 208.224C864.641 208.224 865.409 207.456 865.793 206.784V208H867.121V200.08H865.761V201.312C865.377 200.64 864.641 199.856 863.249 199.856C861.425 199.856 860.033 201.44 860.033 204.048C860.033 206.656 861.425 208.224 863.249 208.224ZM863.601 207.024C862.337 207.024 861.425 206.272 861.425 204.064C861.425 201.856 862.337 201.056 863.601 201.056C864.897 201.056 865.841 202.064 865.841 204.064C865.841 206.064 864.897 207.024 863.601 207.024ZM872.565 208H874.389V206.8H872.741C872.181 206.8 871.941 206.56 871.941 206V201.232H874.101V200.08H871.941V197.6H870.581V200.08H868.741V201.232H870.581V206.08C870.581 207.392 871.253 208 872.565 208ZM879.088 208.224C881.168 208.224 882.767 206.432 882.767 204.048C882.767 201.664 881.232 199.856 879.088 199.856C876.944 199.856 875.408 201.664 875.408 204.048C875.408 206.432 877.008 208.224 879.088 208.224ZM879.088 207.024C877.744 207.024 876.816 206.064 876.816 204.064C876.816 202.064 877.744 201.056 879.088 201.056C880.432 201.056 881.36 202.064 881.36 204.064C881.36 206.064 880.432 207.024 879.088 207.024ZM884.828 208H886.188V204.368C886.188 202.512 886.924 201.376 888.716 201.376C889.036 201.376 889.308 201.408 889.564 201.456V200.064C889.372 200.016 889.132 199.968 888.748 199.968C887.244 199.968 886.428 201.136 886.172 201.728V200.08H884.828V208Z" fill="#6E6E78"/><path d="M792 160C792.552 160 793 159.552 793 159C793 158.448 792.552 158 792 158V160ZM704.293 158.293C703.902 158.683 703.902 159.317 704.293 159.707L710.657 166.071C711.047 166.462 711.681 166.462 712.071 166.071C712.462 165.681 712.462 165.047 712.071 164.657L706.414 159L712.071 153.343C712.462 152.953 712.462 152.319 712.071 151.929C711.681 151.538 711.047 151.538 710.657 151.929L704.293 158.293ZM792 158H705V160H792V158Z" fill="#DA372C"/><path d="M808.256 165.68H809.456V164.208C811.728 164.032 812.976 162.72 812.976 160.896C812.976 159.2 811.712 158.24 809.936 157.792L809.456 157.664V153.952C810.752 154.208 811.264 155.2 811.472 155.792L812.8 155.136C812.512 154.192 811.472 152.832 809.456 152.608V151.12H808.256V152.608C806.352 152.832 805.088 154.064 805.088 155.712C805.088 157.568 806.24 158.384 807.888 158.736L808.256 158.816V162.848C807.008 162.576 806.256 161.664 805.888 160.544L804.528 161.2C805.024 162.768 806.288 163.952 808.256 164.192V165.68ZM808.256 157.392C807.008 157.072 806.464 156.592 806.464 155.632C806.464 154.72 807.136 154.032 808.256 153.904V155.968V157.392ZM809.456 162.912V160.848V159.088C810.848 159.408 811.52 160.032 811.52 161.024C811.52 162.064 810.768 162.784 809.456 162.912ZM817.672 164.224C819.672 164.224 820.824 163.28 820.824 161.792C820.824 159.984 818.952 159.504 818.152 159.344L817.24 159.168C816.104 158.944 815.848 158.624 815.848 158.096C815.848 157.52 816.36 156.976 817.464 156.976C818.808 156.976 819.256 157.824 819.448 158.352L820.68 157.904C820.36 156.864 819.432 155.856 817.464 155.856C815.912 155.856 814.568 156.816 814.568 158.24C814.568 159.744 815.72 160.24 817.032 160.496L817.944 160.672C819.096 160.896 819.464 161.312 819.464 161.904C819.464 162.656 818.824 163.056 817.672 163.056C816.424 163.056 815.784 162.464 815.544 161.52L814.232 161.952C814.584 163.472 816.056 164.224 817.672 164.224ZM822.86 167.12H824.22V164.32V162.768C824.604 163.44 825.34 164.224 826.732 164.224C828.556 164.224 829.948 162.64 829.948 160.032C829.948 157.424 828.556 155.856 826.732 155.856C825.34 155.856 824.572 156.624 824.188 157.296V156.08H822.86V167.12ZM826.38 163.024C825.084 163.024 824.14 162.016 824.14 160.016C824.14 158.016 825.084 157.056 826.38 157.056C827.644 157.056 828.556 157.808 828.556 160.016C828.556 162.224 827.644 163.024 826.38 163.024ZM834.671 164.224C836.063 164.224 836.831 163.456 837.215 162.784V164H838.543V156.08H837.183V157.312C836.799 156.64 836.063 155.856 834.671 155.856C832.847 155.856 831.455 157.44 831.455 160.048C831.455 162.656 832.847 164.224 834.671 164.224ZM835.023 163.024C833.759 163.024 832.847 162.272 832.847 160.064C832.847 157.856 833.759 157.056 835.023 157.056C836.319 157.056 837.263 158.064 837.263 160.064C837.263 162.064 836.319 163.024 835.023 163.024ZM844.387 164.224C846.163 164.224 847.315 163.184 847.827 161.712L846.547 161.264C846.291 162.128 845.699 163.024 844.387 163.024C843.075 163.024 842.051 162.064 842.051 160.032C842.051 158.048 843.107 157.056 844.371 157.056C845.523 157.056 846.099 157.808 846.355 158.56L847.619 158.144C847.251 156.912 846.163 155.856 844.371 155.856C842.179 155.856 840.627 157.584 840.627 160.032C840.627 162.592 842.099 164.224 844.387 164.224ZM849.593 154.528H851.033V152.8H849.593V154.528ZM849.641 164H851.001V156.08H849.641V164ZM853.688 164H855.048V160.64C855.048 159.472 855.096 157.056 857.272 157.056C858.328 157.056 859.016 157.664 859.016 159.152V164H860.376V158.832C860.376 157.072 859.576 155.856 857.608 155.856C855.896 155.856 855.128 157.072 855.016 157.424V156.08H853.688V164ZM864.233 167.12H867.929C869.273 167.12 870.409 166.416 870.409 164.944C870.409 163.616 869.417 162.752 867.897 162.752H864.441C863.881 162.752 863.769 162.464 863.769 162.208C863.769 161.92 864.057 161.616 864.489 161.424C864.921 161.68 865.417 161.728 865.961 161.728C867.721 161.728 868.921 160.56 869.049 158.768L869.081 158.336C869.145 157.408 869.417 157.232 870.137 157.232H870.745V156.08H869.897C869.129 156.08 868.761 156.608 868.601 157.216C868.265 156.656 867.433 155.856 865.961 155.856C864.137 155.856 862.809 157.152 862.809 158.8C862.809 159.792 863.241 160.512 863.689 160.912C863.177 161.28 862.521 161.808 862.521 162.592C862.521 163.216 862.777 163.584 863.225 163.856C862.745 164.128 862.169 164.72 862.169 165.52C862.169 166.448 862.713 167.12 864.233 167.12ZM865.961 160.608C864.889 160.608 864.185 159.888 864.185 158.8C864.185 157.712 864.889 156.976 865.961 156.976C867.033 156.976 867.737 157.712 867.737 158.8C867.737 159.888 867.033 160.608 865.961 160.608ZM864.697 165.904C863.865 165.904 863.417 165.728 863.417 165.072C863.417 164.528 863.769 164.176 864.041 164H867.785C868.409 164 869.033 164.128 869.033 164.944C869.033 165.76 868.409 165.904 867.785 165.904H864.697ZM871.901 159.776H876.317V158.336H871.901V159.776ZM877.367 164H878.855L879.863 162.496L880.871 160.976C881.095 161.328 881.271 161.6 881.863 162.496L882.855 164H884.487L881.735 159.968L884.327 156.08H882.823L881.959 157.44C881.351 158.384 881.159 158.672 880.935 158.992C880.743 158.672 880.567 158.384 879.975 157.44L879.111 156.08H877.527L880.087 159.952L877.367 164ZM888.813 164.224C890.813 164.224 891.965 163.28 891.965 161.792C891.965 159.984 890.093 159.504 889.293 159.344L888.381 159.168C887.245 158.944 886.989 158.624 886.989 158.096C886.989 157.52 887.501 156.976 888.605 156.976C889.949 156.976 890.397 157.824 890.589 158.352L891.821 157.904C891.501 156.864 890.573 155.856 888.605 155.856C887.053 155.856 885.709 156.816 885.709 158.24C885.709 159.744 886.861 160.24 888.173 160.496L889.085 160.672C890.237 160.896 890.605 161.312 890.605 161.904C890.605 162.656 889.965 163.056 888.813 163.056C887.565 163.056 886.925 162.464 886.685 161.52L885.373 161.952C885.725 163.472 887.197 164.224 888.813 164.224Z" fill="#6E6E78"/><path d="M182 128C181.448 128 181 128.448 181 129C181 129.552 181.448 130 182 130V128ZM257.707 129.707C258.098 129.317 258.098 128.683 257.707 128.293L251.343 121.929C250.953 121.538 250.319 121.538 249.929 121.929C249.538 122.319 249.538 122.953 249.929 123.343L255.586 129L249.929 134.657C249.538 135.047 249.538 135.681 249.929 136.071C250.319 136.462 250.953 136.462 251.343 136.071L257.707 129.707ZM182 130H257V128H182V130Z" fill="#DA372C"/><path d="M131.429 134H138.901V132.608H132.869V122.8H131.429V134ZM143.031 134.224C144.423 134.224 145.191 133.456 145.575 132.784V134H146.903V126.08H145.543V127.312C145.159 126.64 144.423 125.856 143.031 125.856C141.207 125.856 139.815 127.44 139.815 130.048C139.815 132.656 141.207 134.224 143.031 134.224ZM143.383 133.024C142.119 133.024 141.207 132.272 141.207 130.064C141.207 127.856 142.119 127.056 143.383 127.056C144.679 127.056 145.623 128.064 145.623 130.064C145.623 132.064 144.679 133.024 143.383 133.024ZM153.466 134.224C155.29 134.224 156.682 132.64 156.682 130.032C156.682 127.424 155.29 125.856 153.466 125.856C152.074 125.856 151.338 126.624 150.954 127.296V125.76V122.8H149.594V134H150.922V132.768C151.306 133.44 152.074 134.224 153.466 134.224ZM153.114 133.024C151.818 133.024 150.874 132.016 150.874 130.016C150.874 128.016 151.818 127.056 153.114 127.056C154.378 127.056 155.29 127.808 155.29 130.016C155.29 132.224 154.378 133.024 153.114 133.024ZM161.774 134.224C163.262 134.224 164.59 133.552 165.182 131.936L163.934 131.504C163.726 132.016 163.166 133.04 161.822 133.04C160.718 133.04 159.614 132.4 159.534 130.4H165.118C165.422 127.808 163.998 125.856 161.694 125.856C159.678 125.856 158.19 127.472 158.19 130.08C158.19 132.768 159.614 134.224 161.774 134.224ZM159.566 129.264C159.678 127.824 160.654 126.976 161.694 126.976C162.782 126.976 163.726 127.76 163.726 129.264H159.566ZM167.297 134H168.657V122.8H167.297V134Z" fill="#6E6E78"/><path d="M182 202C181.448 202 181 202.448 181 203C181 203.552 181.448 204 182 204L182 202ZM283.707 203.707C284.098 203.317 284.098 202.683 283.707 202.293L277.343 195.929C276.953 195.538 276.319 195.538 275.929 195.929C275.538 196.319 275.538 196.953 275.929 197.343L281.586 203L275.929 208.657C275.538 209.047 275.538 209.681 275.929 210.071C276.319 210.462 276.953 210.462 277.343 210.071L283.707 203.707ZM182 204L283 204L283 202L182 202L182 204Z" fill="#DA372C"/><path d="M133.408 208H135.568L139.184 196.8H137.6L135.2 204.464L134.496 206.688L133.808 204.448L131.44 196.8H129.84L133.408 208ZM143.031 208.224C144.423 208.224 145.191 207.456 145.575 206.784V208H146.903V200.08H145.543V201.312C145.159 200.64 144.423 199.856 143.031 199.856C141.207 199.856 139.815 201.44 139.815 204.048C139.815 206.656 141.207 208.224 143.031 208.224ZM143.383 207.024C142.119 207.024 141.207 206.272 141.207 204.064C141.207 201.856 142.119 201.056 143.383 201.056C144.679 201.056 145.623 202.064 145.623 204.064C145.623 206.064 144.679 207.024 143.383 207.024ZM149.594 208H150.954V196.8H149.594V208ZM156.169 208.224C157.817 208.224 158.569 207.056 158.809 206.624V208H160.137V200.08H158.777V203.44C158.777 204.656 158.745 207.024 156.601 207.024C155.561 207.024 154.889 206.416 154.889 204.928V200.08H153.529V205.248C153.529 207.008 154.313 208.224 156.169 208.224ZM165.82 208.224C167.308 208.224 168.636 207.552 169.228 205.936L167.98 205.504C167.772 206.016 167.212 207.04 165.868 207.04C164.764 207.04 163.66 206.4 163.58 204.4H169.164C169.468 201.808 168.044 199.856 165.74 199.856C163.724 199.856 162.236 201.472 162.236 204.08C162.236 206.768 163.66 208.224 165.82 208.224ZM163.612 203.264C163.724 201.824 164.7 200.976 165.74 200.976C166.828 200.976 167.772 201.76 167.772 203.264H163.612Z" fill="#6E6E78"/></svg>