<svg width="958" height="346" viewBox="0 0 958 346" fill="none" xmlns="http://www.w3.org/2000/svg">
<rect x="410" y="111" width="137" height="72" rx="4" fill="#EBEBED"/>
<path d="M425.671 158H428.551V148.4H438.919V145.68H428.551V138.32H441.767V135.6H425.671V158ZM443.876 158H446.596V150.736C446.596 147.024 448.068 144.752 451.652 144.752C452.292 144.752 452.836 144.816 453.348 144.912V142.128C452.964 142.032 452.484 141.936 451.716 141.936C448.708 141.936 447.076 144.272 446.564 145.456V142.16H443.876V158ZM462.425 158.448C466.585 158.448 469.785 154.864 469.785 150.096C469.785 145.328 466.713 141.712 462.425 141.712C458.137 141.712 455.065 145.328 455.065 150.096C455.065 154.864 458.265 158.448 462.425 158.448ZM462.425 156.048C459.737 156.048 457.881 154.128 457.881 150.128C457.881 146.128 459.737 144.112 462.425 144.112C465.113 144.112 466.969 146.128 466.969 150.128C466.969 154.128 465.113 156.048 462.425 156.048ZM479.251 158.448C483.251 158.448 485.555 156.56 485.555 153.584C485.555 149.968 481.811 149.008 480.211 148.688L478.387 148.336C476.115 147.888 475.603 147.248 475.603 146.192C475.603 145.04 476.627 143.952 478.835 143.952C481.523 143.952 482.419 145.648 482.803 146.704L485.267 145.808C484.627 143.728 482.771 141.712 478.835 141.712C475.731 141.712 473.043 143.632 473.043 146.48C473.043 149.488 475.347 150.48 477.971 150.992L479.795 151.344C482.099 151.792 482.835 152.624 482.835 153.808C482.835 155.312 481.555 156.112 479.251 156.112C476.755 156.112 475.475 154.928 474.995 153.04L472.371 153.904C473.075 156.944 476.019 158.448 479.251 158.448ZM494.973 158H498.621V155.6H495.325C494.205 155.6 493.725 155.12 493.725 154V144.464H498.045V142.16H493.725V137.2H491.005V142.16H487.325V144.464H491.005V154.16C491.005 156.784 492.349 158 494.973 158ZM507.891 158.448C510.867 158.448 513.523 157.104 514.707 153.872L512.211 153.008C511.795 154.032 510.675 156.08 507.987 156.08C505.779 156.08 503.571 154.8 503.411 150.8H514.579C515.187 145.616 512.339 141.712 507.731 141.712C503.699 141.712 500.723 144.944 500.723 150.16C500.723 155.536 503.571 158.448 507.891 158.448ZM503.475 148.528C503.699 145.648 505.651 143.952 507.731 143.952C509.907 143.952 511.795 145.52 511.795 148.528H503.475ZM524.186 158.448C526.97 158.448 528.506 156.912 529.274 155.568V158H531.93V135.6H529.21V141.52V144.624C528.442 143.28 526.97 141.712 524.186 141.712C520.538 141.712 517.754 144.88 517.754 150.096C517.754 155.312 520.538 158.448 524.186 158.448ZM524.89 156.048C522.362 156.048 520.538 154.544 520.538 150.128C520.538 145.712 522.362 144.112 524.89 144.112C527.482 144.112 529.37 146.128 529.37 150.128C529.37 154.128 527.482 156.048 524.89 156.048Z" fill="#1D1D21"/>
<path d="M322 121C321.448 121 321 121.448 321 122C321 122.552 321.448 123 322 123L322 121ZM435.707 122.707C436.098 122.317 436.098 121.683 435.707 121.293L429.343 114.929C428.953 114.538 428.319 114.538 427.929 114.929C427.538 115.319 427.538 115.953 427.929 116.343L433.586 122L427.929 127.657C427.538 128.047 427.538 128.681 427.929 129.071C428.319 129.462 428.953 129.462 429.343 129.071L435.707 122.707ZM322 123L435 123L435 121L322 121L322 123Z" fill="#DA372C"/>
<path d="M242.881 127.224C245.649 127.224 247.265 125.608 247.761 123.816L246.305 123.272C245.889 124.616 245.089 125.864 242.881 125.864C240.561 125.864 239.009 123.976 239.009 121.272C239.009 118.568 240.577 116.936 242.881 116.936C245.137 116.936 245.969 118.472 246.257 119.384L247.745 118.872C247.297 117.384 245.777 115.576 242.881 115.576C239.649 115.576 237.457 118.04 237.457 121.288C237.457 124.536 239.377 127.224 242.881 127.224ZM252.759 127.224C254.839 127.224 256.439 125.432 256.439 123.048C256.439 120.664 254.903 118.856 252.759 118.856C250.615 118.856 249.079 120.664 249.079 123.048C249.079 125.432 250.679 127.224 252.759 127.224ZM252.759 126.024C251.415 126.024 250.487 125.064 250.487 123.064C250.487 121.064 251.415 120.056 252.759 120.056C254.103 120.056 255.031 121.064 255.031 123.064C255.031 125.064 254.103 126.024 252.759 126.024ZM258.5 127H259.86V123.64C259.86 122.472 259.908 120.056 262.084 120.056C263.14 120.056 263.828 120.664 263.828 122.152V127H265.188V121.832C265.188 120.072 264.388 118.856 262.42 118.856C260.708 118.856 259.94 120.072 259.828 120.424V119.08H258.5V127ZM270.518 127H272.342V125.8H270.694C270.134 125.8 269.894 125.56 269.894 125V120.232H272.054V119.08H269.894V116.6H268.534V119.08H266.694V120.232H268.534V125.08C268.534 126.392 269.206 127 270.518 127ZM276.609 127.224C278.001 127.224 278.769 126.456 279.153 125.784V127H280.481V119.08H279.121V120.312C278.737 119.64 278.001 118.856 276.609 118.856C274.785 118.856 273.393 120.44 273.393 123.048C273.393 125.656 274.785 127.224 276.609 127.224ZM276.961 126.024C275.697 126.024 274.785 125.272 274.785 123.064C274.785 120.856 275.697 120.056 276.961 120.056C278.257 120.056 279.201 121.064 279.201 123.064C279.201 125.064 278.257 126.024 276.961 126.024ZM283.124 117.528H284.564V115.8H283.124V117.528ZM283.172 127H284.532V119.08H283.172V127ZM287.219 127H288.579V123.64C288.579 122.472 288.627 120.056 290.803 120.056C291.859 120.056 292.547 120.664 292.547 122.152V127H293.907V121.832C293.907 120.072 293.107 118.856 291.139 118.856C289.427 118.856 288.659 120.072 288.547 120.424V119.08H287.219V127ZM299.477 127.224C300.965 127.224 302.293 126.552 302.885 124.936L301.637 124.504C301.429 125.016 300.869 126.04 299.525 126.04C298.421 126.04 297.317 125.4 297.237 123.4H302.821C303.125 120.808 301.701 118.856 299.397 118.856C297.381 118.856 295.893 120.472 295.893 123.08C295.893 125.768 297.317 127.224 299.477 127.224ZM297.269 122.264C297.381 120.824 298.357 119.976 299.397 119.976C300.485 119.976 301.429 120.76 301.429 122.264H297.269ZM305 127H306.36V123.368C306.36 121.512 307.096 120.376 308.888 120.376C309.208 120.376 309.48 120.408 309.736 120.456V119.064C309.544 119.016 309.304 118.968 308.92 118.968C307.416 118.968 306.6 120.136 306.344 120.728V119.08H305V127Z" fill="#6E6E78"/>
<path d="M633.648 152H637.408C640.784 152 642.816 149.888 642.816 146.368C642.816 143.04 640.72 140.8 637.52 140.8H633.648V152ZM635.088 150.64V142.16H637.264C639.984 142.16 641.296 143.84 641.296 146.368C641.296 149.168 639.952 150.64 637.152 150.64H635.088ZM648.024 152.224C649.512 152.224 650.84 151.552 651.432 149.936L650.184 149.504C649.976 150.016 649.416 151.04 648.072 151.04C646.968 151.04 645.864 150.4 645.784 148.4H651.368C651.672 145.808 650.248 143.856 647.944 143.856C645.928 143.856 644.44 145.472 644.44 148.08C644.44 150.768 645.864 152.224 648.024 152.224ZM645.816 147.264C645.928 145.824 646.904 144.976 647.944 144.976C649.032 144.976 649.976 145.76 649.976 147.264H645.816ZM656.219 152.224C658.219 152.224 659.371 151.28 659.371 149.792C659.371 147.984 657.499 147.504 656.699 147.344L655.787 147.168C654.651 146.944 654.395 146.624 654.395 146.096C654.395 145.52 654.907 144.976 656.011 144.976C657.355 144.976 657.803 145.824 657.995 146.352L659.227 145.904C658.907 144.864 657.979 143.856 656.011 143.856C654.459 143.856 653.115 144.816 653.115 146.24C653.115 147.744 654.267 148.24 655.579 148.496L656.491 148.672C657.643 148.896 658.011 149.312 658.011 149.904C658.011 150.656 657.371 151.056 656.219 151.056C654.971 151.056 654.331 150.464 654.091 149.52L652.779 149.952C653.131 151.472 654.603 152.224 656.219 152.224ZM664.559 152.224C666.335 152.224 667.487 151.184 667.999 149.712L666.719 149.264C666.463 150.128 665.871 151.024 664.559 151.024C663.247 151.024 662.223 150.064 662.223 148.032C662.223 146.048 663.279 145.056 664.543 145.056C665.695 145.056 666.271 145.808 666.527 146.56L667.791 146.144C667.423 144.912 666.335 143.856 664.543 143.856C662.351 143.856 660.799 145.584 660.799 148.032C660.799 150.592 662.271 152.224 664.559 152.224ZM669.813 152H671.173V148.368C671.173 146.512 671.909 145.376 673.701 145.376C674.021 145.376 674.293 145.408 674.549 145.456V144.064C674.357 144.016 674.117 143.968 673.733 143.968C672.229 143.968 671.413 145.136 671.157 145.728V144.08H669.813V152ZM676.109 142.528H677.549V140.8H676.109V142.528ZM676.157 152H677.517V144.08H676.157V152ZM680.203 155.12H681.563V152.32V150.768C681.947 151.44 682.683 152.224 684.075 152.224C685.899 152.224 687.291 150.64 687.291 148.032C687.291 145.424 685.899 143.856 684.075 143.856C682.683 143.856 681.915 144.624 681.531 145.296V144.08H680.203V155.12ZM683.723 151.024C682.427 151.024 681.483 150.016 681.483 148.016C681.483 146.016 682.427 145.056 683.723 145.056C684.987 145.056 685.899 145.808 685.899 148.016C685.899 150.224 684.987 151.024 683.723 151.024ZM692.08 152H693.904V150.8H692.256C691.696 150.8 691.456 150.56 691.456 150V145.232H693.616V144.08H691.456V141.6H690.096V144.08H688.256V145.232H690.096V150.08C690.096 151.392 690.768 152 692.08 152ZM698.603 152.224C700.683 152.224 702.283 150.432 702.283 148.048C702.283 145.664 700.747 143.856 698.603 143.856C696.459 143.856 694.923 145.664 694.923 148.048C694.923 150.432 696.523 152.224 698.603 152.224ZM698.603 151.024C697.259 151.024 696.331 150.064 696.331 148.064C696.331 146.064 697.259 145.056 698.603 145.056C699.947 145.056 700.875 146.064 700.875 148.064C700.875 150.064 699.947 151.024 698.603 151.024ZM704.344 152H705.704V148.368C705.704 146.512 706.44 145.376 708.232 145.376C708.552 145.376 708.824 145.408 709.08 145.456V144.064C708.888 144.016 708.648 143.968 708.264 143.968C706.76 143.968 705.944 145.136 705.688 145.728V144.08H704.344V152Z" fill="#6E6E78"/>
<path d="M620 148C620.552 148 621 147.552 621 147C621 146.448 620.552 146 620 146V148ZM537.293 146.293C536.902 146.683 536.902 147.317 537.293 147.707L543.657 154.071C544.047 154.462 544.681 154.462 545.071 154.071C545.462 153.681 545.462 153.047 545.071 152.657L539.414 147L545.071 141.343C545.462 140.953 545.462 140.319 545.071 139.929C544.681 139.538 544.047 139.538 543.657 139.929L537.293 146.293ZM620 146H538V148H620V146Z" fill="#DA372C"/>
<path opacity="0.4" d="M535 111H543C545.209 111 547 112.791 547 115V179C547 181.209 545.209 183 543 183H535V111Z" fill="#DA372C"/>
<path opacity="0.4" d="M410 115C410 112.791 411.791 111 414 111H422V183H414C411.791 183 410 181.209 410 179V115Z" fill="#DA372C"/>
<path d="M529.793 92.2929C529.402 92.6834 529.402 93.3166 529.793 93.7071L536.157 100.071C536.547 100.462 537.181 100.462 537.571 100.071C537.962 99.6805 537.962 99.0474 537.571 98.6569L531.914 93L537.571 87.3431C537.962 86.9526 537.962 86.3195 537.571 85.9289C537.181 85.5384 536.547 85.5384 536.157 85.9289L529.793 92.2929ZM564.293 127.707C564.683 128.098 565.317 128.098 565.707 127.707L572.071 121.343C572.462 120.953 572.462 120.319 572.071 119.929C571.681 119.538 571.047 119.538 570.657 119.929L565 125.586L559.343 119.929C558.953 119.538 558.319 119.538 557.929 119.929C557.538 120.319 557.538 120.953 557.929 121.343L564.293 127.707ZM549 92H530.5V94H549V92ZM564 109V127H566V109H564ZM549 94C557.284 94 564 100.716 564 109H566C566 99.6112 558.389 92 549 92V94Z" fill="#DA372C"/>
<path d="M582.713 112H584.137V108.896H585.769V107.648H584.137V100.8H581.913L577.481 107.504V108.896H582.713V112ZM582.713 107.648H581.065H578.937L582.713 101.936V104.384V107.648ZM587.689 115.12H589.049V112.32V110.768C589.433 111.44 590.169 112.224 591.561 112.224C593.385 112.224 594.777 110.64 594.777 108.032C594.777 105.424 593.385 103.856 591.561 103.856C590.169 103.856 589.401 104.624 589.017 105.296V104.08H587.689V115.12ZM591.209 111.024C589.913 111.024 588.969 110.016 588.969 108.016C588.969 106.016 589.913 105.056 591.209 105.056C592.473 105.056 593.385 105.808 593.385 108.016C593.385 110.224 592.473 111.024 591.209 111.024ZM595.727 112H597.215L598.223 110.496L599.231 108.976C599.455 109.328 599.631 109.6 600.223 110.496L601.215 112H602.847L600.095 107.968L602.687 104.08H601.183L600.319 105.44C599.711 106.384 599.519 106.672 599.295 106.992C599.103 106.672 598.927 106.384 598.335 105.44L597.471 104.08H595.887L598.447 107.952L595.727 112ZM611.794 112.224C613.57 112.224 614.722 111.184 615.234 109.712L613.954 109.264C613.698 110.128 613.106 111.024 611.794 111.024C610.482 111.024 609.458 110.064 609.458 108.032C609.458 106.048 610.514 105.056 611.778 105.056C612.93 105.056 613.506 105.808 613.762 106.56L615.026 106.144C614.658 104.912 613.57 103.856 611.778 103.856C609.586 103.856 608.034 105.584 608.034 108.032C608.034 110.592 609.506 112.224 611.794 112.224ZM620.104 112.224C622.184 112.224 623.784 110.432 623.784 108.048C623.784 105.664 622.248 103.856 620.104 103.856C617.96 103.856 616.424 105.664 616.424 108.048C616.424 110.432 618.024 112.224 620.104 112.224ZM620.104 111.024C618.76 111.024 617.832 110.064 617.832 108.064C617.832 106.064 618.76 105.056 620.104 105.056C621.448 105.056 622.376 106.064 622.376 108.064C622.376 110.064 621.448 111.024 620.104 111.024ZM625.845 112H627.205V108.368C627.205 106.512 627.941 105.376 629.733 105.376C630.053 105.376 630.325 105.408 630.581 105.456V104.064C630.389 104.016 630.149 103.968 629.765 103.968C628.261 103.968 627.445 105.136 627.189 105.728V104.08H625.845V112ZM632.189 112H633.549V108.64C633.549 107.472 633.597 105.056 635.773 105.056C636.829 105.056 637.517 105.664 637.517 107.152V112H638.877V106.832C638.877 105.072 638.077 103.856 636.109 103.856C634.397 103.856 633.629 105.072 633.517 105.424V104.08H632.189V112ZM644.446 112.224C645.934 112.224 647.262 111.552 647.854 109.936L646.606 109.504C646.398 110.016 645.838 111.04 644.494 111.04C643.39 111.04 642.286 110.4 642.206 108.4H647.79C648.094 105.808 646.67 103.856 644.366 103.856C642.35 103.856 640.862 105.472 640.862 108.08C640.862 110.768 642.286 112.224 644.446 112.224ZM642.238 107.264C642.35 105.824 643.326 104.976 644.366 104.976C645.454 104.976 646.398 105.76 646.398 107.264H642.238ZM649.97 112H651.33V108.368C651.33 106.512 652.066 105.376 653.858 105.376C654.178 105.376 654.45 105.408 654.706 105.456V104.064C654.514 104.016 654.274 103.968 653.89 103.968C652.386 103.968 651.57 105.136 651.314 105.728V104.08H649.97V112ZM660.017 112H661.377V108.368C661.377 106.512 662.113 105.376 663.905 105.376C664.225 105.376 664.497 105.408 664.753 105.456V104.064C664.561 104.016 664.321 103.968 663.937 103.968C662.433 103.968 661.617 105.136 661.361 105.728V104.08H660.017V112ZM668.86 112.224C670.252 112.224 671.02 111.456 671.404 110.784V112H672.732V104.08H671.372V105.312C670.988 104.64 670.252 103.856 668.86 103.856C667.036 103.856 665.644 105.44 665.644 108.048C665.644 110.656 667.036 112.224 668.86 112.224ZM669.212 111.024C667.948 111.024 667.036 110.272 667.036 108.064C667.036 105.856 667.948 105.056 669.212 105.056C670.508 105.056 671.452 106.064 671.452 108.064C671.452 110.064 670.508 111.024 669.212 111.024ZM678.047 112.224C679.439 112.224 680.207 111.456 680.591 110.784V112H681.919V100.8H680.559V103.76V105.312C680.175 104.64 679.439 103.856 678.047 103.856C676.223 103.856 674.831 105.44 674.831 108.048C674.831 110.656 676.223 112.224 678.047 112.224ZM678.399 111.024C677.135 111.024 676.223 110.272 676.223 108.064C676.223 105.856 677.135 105.056 678.399 105.056C679.695 105.056 680.639 106.064 680.639 108.064C680.639 110.064 679.695 111.024 678.399 111.024ZM684.563 102.528H686.003V100.8H684.563V102.528ZM684.611 112H685.971V104.08H684.611V112ZM691.185 112.224C692.833 112.224 693.585 111.056 693.825 110.624V112H695.153V104.08H693.793V107.44C693.793 108.656 693.761 111.024 691.617 111.024C690.577 111.024 689.905 110.416 689.905 108.928V104.08H688.545V109.248C688.545 111.008 689.329 112.224 691.185 112.224ZM700.517 112.224C702.517 112.224 703.669 111.28 703.669 109.792C703.669 107.984 701.797 107.504 700.997 107.344L700.085 107.168C698.949 106.944 698.693 106.624 698.693 106.096C698.693 105.52 699.205 104.976 700.309 104.976C701.653 104.976 702.101 105.824 702.293 106.352L703.525 105.904C703.205 104.864 702.277 103.856 700.309 103.856C698.757 103.856 697.413 104.816 697.413 106.24C697.413 107.744 698.565 108.24 699.877 108.496L700.789 108.672C701.941 108.896 702.309 109.312 702.309 109.904C702.309 110.656 701.669 111.056 700.517 111.056C699.269 111.056 698.629 110.464 698.389 109.52L697.077 109.952C697.429 111.472 698.901 112.224 700.517 112.224Z" fill="#6E6E78"/>
<path d="M415 262.5C415 263.052 415.448 263.5 416 263.5C416.552 263.5 417 263.052 417 262.5L415 262.5ZM416.707 192.293C416.317 191.902 415.683 191.902 415.293 192.293L408.929 198.657C408.538 199.047 408.538 199.681 408.929 200.071C409.319 200.462 409.953 200.462 410.343 200.071L416 194.414L421.657 200.071C422.047 200.462 422.681 200.462 423.071 200.071C423.462 199.681 423.462 199.047 423.071 198.657L416.707 192.293ZM417 262.5L417 193L415 193L415 262.5L417 262.5Z" fill="#DA372C"/>
<path d="M424 214.5L424 213.5L424 214.5ZM532 214.5L532 215.5L532 214.5ZM540 206.5L539 206.5L540 206.5ZM540.707 191.293C540.317 190.902 539.683 190.902 539.293 191.293L532.929 197.657C532.538 198.047 532.538 198.681 532.929 199.071C533.319 199.462 533.953 199.462 534.343 199.071L540 193.414L545.657 199.071C546.047 199.462 546.681 199.462 547.071 199.071C547.462 198.681 547.462 198.047 547.071 197.657L540.707 191.293ZM416 222.5L415 222.5L416 222.5ZM415 250L415 251L417 251L417 250H415ZM424 215.5L532 215.5L532 213.5L424 213.5L424 215.5ZM541 206.5L541 192L539 192L539 206.5L541 206.5ZM415 222.5L415 250H417L417 222.5L415 222.5ZM532 215.5C536.971 215.5 541 211.471 541 206.5L539 206.5C539 210.366 535.866 213.5 532 213.5L532 215.5ZM424 213.5C419.029 213.5 415 217.529 415 222.5L417 222.5C417 218.634 420.134 215.5 424 215.5L424 213.5Z" fill="#DA372C"/>
<path d="M432.256 264.68H433.456V263.208C435.728 263.032 436.976 261.72 436.976 259.896C436.976 258.2 435.712 257.24 433.936 256.792L433.456 256.664V252.952C434.752 253.208 435.264 254.2 435.472 254.792L436.8 254.136C436.512 253.192 435.472 251.832 433.456 251.608V250.12H432.256V251.608C430.352 251.832 429.088 253.064 429.088 254.712C429.088 256.568 430.24 257.384 431.888 257.736L432.256 257.816V261.848C431.008 261.576 430.256 260.664 429.888 259.544L428.528 260.2C429.024 261.768 430.288 262.952 432.256 263.192V264.68ZM432.256 256.392C431.008 256.072 430.464 255.592 430.464 254.632C430.464 253.72 431.136 253.032 432.256 252.904V254.968V256.392ZM433.456 261.912V259.848V258.088C434.848 258.408 435.52 259.032 435.52 260.024C435.52 261.064 434.768 261.784 433.456 261.912ZM441.672 263.224C443.672 263.224 444.824 262.28 444.824 260.792C444.824 258.984 442.952 258.504 442.152 258.344L441.24 258.168C440.104 257.944 439.848 257.624 439.848 257.096C439.848 256.52 440.36 255.976 441.464 255.976C442.808 255.976 443.256 256.824 443.448 257.352L444.68 256.904C444.36 255.864 443.432 254.856 441.464 254.856C439.912 254.856 438.568 255.816 438.568 257.24C438.568 258.744 439.72 259.24 441.032 259.496L441.944 259.672C443.096 259.896 443.464 260.312 443.464 260.904C443.464 261.656 442.824 262.056 441.672 262.056C440.424 262.056 439.784 261.464 439.544 260.52L438.232 260.952C438.584 262.472 440.056 263.224 441.672 263.224ZM446.86 266.12H448.22V263.32V261.768C448.604 262.44 449.34 263.224 450.732 263.224C452.556 263.224 453.948 261.64 453.948 259.032C453.948 256.424 452.556 254.856 450.732 254.856C449.34 254.856 448.572 255.624 448.188 256.296V255.08H446.86V266.12ZM450.38 262.024C449.084 262.024 448.14 261.016 448.14 259.016C448.14 257.016 449.084 256.056 450.38 256.056C451.644 256.056 452.556 256.808 452.556 259.016C452.556 261.224 451.644 262.024 450.38 262.024ZM458.671 263.224C460.063 263.224 460.831 262.456 461.215 261.784V263H462.543V255.08H461.183V256.312C460.799 255.64 460.063 254.856 458.671 254.856C456.847 254.856 455.455 256.44 455.455 259.048C455.455 261.656 456.847 263.224 458.671 263.224ZM459.023 262.024C457.759 262.024 456.847 261.272 456.847 259.064C456.847 256.856 457.759 256.056 459.023 256.056C460.319 256.056 461.263 257.064 461.263 259.064C461.263 261.064 460.319 262.024 459.023 262.024ZM468.387 263.224C470.163 263.224 471.315 262.184 471.827 260.712L470.547 260.264C470.291 261.128 469.699 262.024 468.387 262.024C467.075 262.024 466.051 261.064 466.051 259.032C466.051 257.048 467.107 256.056 468.371 256.056C469.523 256.056 470.099 256.808 470.355 257.56L471.619 257.144C471.251 255.912 470.163 254.856 468.371 254.856C466.179 254.856 464.627 256.584 464.627 259.032C464.627 261.592 466.099 263.224 468.387 263.224ZM473.593 253.528H475.033V251.8H473.593V253.528ZM473.641 263H475.001V255.08H473.641V263ZM477.688 263H479.048V259.64C479.048 258.472 479.096 256.056 481.272 256.056C482.328 256.056 483.016 256.664 483.016 258.152V263H484.376V257.832C484.376 256.072 483.576 254.856 481.608 254.856C479.896 254.856 479.128 256.072 479.016 256.424V255.08H477.688V263ZM488.233 266.12H491.929C493.273 266.12 494.409 265.416 494.409 263.944C494.409 262.616 493.417 261.752 491.897 261.752H488.441C487.881 261.752 487.769 261.464 487.769 261.208C487.769 260.92 488.057 260.616 488.489 260.424C488.921 260.68 489.417 260.728 489.961 260.728C491.721 260.728 492.921 259.56 493.049 257.768L493.081 257.336C493.145 256.408 493.417 256.232 494.137 256.232H494.745V255.08H493.897C493.129 255.08 492.761 255.608 492.601 256.216C492.265 255.656 491.433 254.856 489.961 254.856C488.137 254.856 486.809 256.152 486.809 257.8C486.809 258.792 487.241 259.512 487.689 259.912C487.177 260.28 486.521 260.808 486.521 261.592C486.521 262.216 486.777 262.584 487.225 262.856C486.745 263.128 486.169 263.72 486.169 264.52C486.169 265.448 486.713 266.12 488.233 266.12ZM489.961 259.608C488.889 259.608 488.185 258.888 488.185 257.8C488.185 256.712 488.889 255.976 489.961 255.976C491.033 255.976 491.737 256.712 491.737 257.8C491.737 258.888 491.033 259.608 489.961 259.608ZM488.697 264.904C487.865 264.904 487.417 264.728 487.417 264.072C487.417 263.528 487.769 263.176 488.041 263H491.785C492.409 263 493.033 263.128 493.033 263.944C493.033 264.76 492.409 264.904 491.785 264.904H488.697ZM495.901 258.776H500.317V257.336H495.901V258.776ZM501.367 263H502.855L503.863 261.496L504.871 259.976C505.095 260.328 505.271 260.6 505.863 261.496L506.855 263H508.487L505.735 258.968L508.327 255.08H506.823L505.959 256.44C505.351 257.384 505.159 257.672 504.935 257.992C504.743 257.672 504.567 257.384 503.975 256.44L503.111 255.08H501.527L504.087 258.952L501.367 263ZM512.813 263.224C514.813 263.224 515.965 262.28 515.965 260.792C515.965 258.984 514.093 258.504 513.293 258.344L512.381 258.168C511.245 257.944 510.989 257.624 510.989 257.096C510.989 256.52 511.501 255.976 512.605 255.976C513.949 255.976 514.397 256.824 514.589 257.352L515.821 256.904C515.501 255.864 514.573 254.856 512.605 254.856C511.053 254.856 509.709 255.816 509.709 257.24C509.709 258.744 510.861 259.24 512.173 259.496L513.085 259.672C514.237 259.896 514.605 260.312 514.605 260.904C514.605 261.656 513.965 262.056 512.813 262.056C511.565 262.056 510.925 261.464 510.685 260.52L509.373 260.952C509.725 262.472 511.197 263.224 512.813 263.224Z" fill="#6E6E78"/>
</svg>
