<svg viewBox="0 0 958 346" fill="none" xmlns="http://www.w3.org/2000/svg"><rect x="380" y="135" width="198" height="76" rx="8" fill="#1662DD"/><path d="M429.652 167.345C429.2 166.893 428.597 166.644 427.954 166.644C426.652 166.645 425.554 167.689 425.555 169.043C425.555 169.686 425.804 170.29 426.257 170.742C427.193 171.679 428.715 171.68 429.649 170.745C430.587 169.807 430.588 168.282 429.652 167.345V167.345Z" fill="#fff"/><path d="M440 157L439.062 157.001C432.353 157.007 425.779 159.832 421.025 164.753L411.706 174.074 422.925 185.297 432.243 175.976C434.588 173.716 436.531 170.928 437.863 167.915 440.387 162.203 439.945 157.586 440 157V157zM424.933 172.066C423.265 170.398 423.265 167.689 424.929 166.024 426.598 164.355 429.305 164.351 430.975 166.021 432.641 167.688 432.64 170.401 430.972 172.069 429.308 173.734 426.599 173.733 424.933 172.066zM408.04 187.635L412.912 182.763 414.236 184.086 409.363 188.959 408.04 187.635zM413.859 187.181L415.604 185.436 416.928 186.76 415.183 188.505 413.859 187.181zM408.493 181.814L410.228 180.078 411.551 181.402 409.817 183.138 408.493 181.814zM432.355 179.471L431.876 178.992 424.249 186.622 426.626 189 430.852 184.773 432.355 179.471zM412.226 166.139L408 170.367 410.382 172.75 418.009 165.121 417.531 164.642 412.226 166.139zM410.179 177.881L419.12 186.825 420.952 185.972 411.032 176.048 410.179 177.881zM454.548 182H468.744V178.808H458.188V162.4H454.548V182zM474.719 182.42C477.071 182.42 478.555 181.244 479.395 179.928 479.563 181.16 480.179 182 481.943 182H484.575V179.312H483.259C482.531 179.312 482.419 179.144 482.419 178.472V172.844C482.419 169.428 480.319 167.636 476.483 167.636 472.563 167.636 470.379 169.68 470.043 171.752L473.207 172.564C473.543 171.332 474.411 170.24 476.483 170.24 478.275 170.24 479.059 171.052 479.059 172.424V172.9C474.439 173.32 470.267 174.524 470.267 178.416 470.267 180.88 472.115 182.42 474.719 182.42zM475.839 179.844C474.439 179.844 473.739 179.144 473.739 178.08 473.739 176.092 476.175 175.476 479.059 175.14V176.26C479.059 178.752 477.491 179.844 475.839 179.844zM491.058 182.42C493.802 182.42 495.09 180.628 495.65 179.704V182H499.038V168.056H495.622V174.608C495.622 176.848 495.118 179.564 492.458 179.564 490.974 179.564 490.05 178.696 490.05 176.54V168.056H486.634V177.352C486.634 180.404 488.174 182.42 491.058 182.42zM503.181 182H506.597V175.644C506.597 173.936 506.653 170.492 509.789 170.492 511.329 170.492 512.309 171.388 512.309 173.488V182H515.725V172.732C515.725 169.68 514.353 167.636 511.021 167.636 508.305 167.636 506.961 169.456 506.513 170.268V168.056H503.181V182zM525.912 182.42C529.16 182.42 531.512 180.628 532.52 177.968L529.3 176.82C528.74 178.528 527.732 179.648 525.856 179.648 523.868 179.648 522.216 178.136 522.216 175 522.216 171.92 523.84 170.408 525.828 170.408 527.48 170.408 528.572 171.416 529.104 172.9L532.24 171.78C531.428 169.456 529.216 167.636 525.912 167.636 521.824 167.636 518.744 170.576 518.744 175 518.744 179.508 521.712 182.42 525.912 182.42zM535.228 182H538.644V175.644C538.644 173.936 538.7 170.492 541.836 170.492 543.376 170.492 544.356 171.388 544.356 173.488V182H547.772V172.732C547.772 169.68 546.344 167.636 543.236 167.636 540.352 167.636 539.092 169.456 538.644 170.268V167.496 162.4H535.228V182z" fill="#fff"/><path d="M163 172C162.448 172 162 172.448 162 173C162 173.552 162.448 174 163 174L163 172ZM392.707 173.707C393.098 173.317 393.098 172.683 392.707 172.293L386.343 165.929C385.953 165.538 385.319 165.538 384.929 165.929C384.538 166.319 384.538 166.953 384.929 167.343L390.586 173L384.929 178.657C384.538 179.047 384.538 179.681 384.929 180.071C385.319 180.462 385.953 180.462 386.343 180.071L392.707 173.707ZM163 174L392 174L392 172L163 172L163 174Z" fill="#DA372C"/><path d="M164.648 153H169.672C171.608 153 173.288 152.072 173.288 149.912C173.288 148.248 171.976 147.384 170.84 147.16C171.8 146.968 172.92 146.12 172.92 144.568C172.92 142.936 171.8 141.8 169.448 141.8H164.648V153ZM166.088 146.52V143.16H169.32C170.584 143.16 171.4 143.704 171.4 144.76C171.4 145.816 170.584 146.52 169.32 146.52H166.088ZM166.088 151.64V147.864H169.464C170.888 147.864 171.736 148.568 171.736 149.72C171.736 150.872 170.888 151.64 169.464 151.64H166.088ZM178.06 153.224C179.708 153.224 180.46 152.056 180.7 151.624V153H182.028V145.08H180.668V148.44C180.668 149.656 180.636 152.024 178.492 152.024C177.452 152.024 176.78 151.416 176.78 149.928V145.08H175.42V150.248C175.42 152.008 176.204 153.224 178.06 153.224ZM187.471 153H189.295V151.8H187.647C187.087 151.8 186.847 151.56 186.847 151V146.232H189.007V145.08H186.847V142.6H185.487V145.08H183.647V146.232H185.487V151.08C185.487 152.392 186.159 153 187.471 153ZM193.768 153H195.592V151.8H193.944C193.384 151.8 193.144 151.56 193.144 151V146.232H195.304V145.08H193.144V142.6H191.784V145.08H189.944V146.232H191.784V151.08C191.784 152.392 192.456 153 193.768 153ZM200.291 153.224C202.371 153.224 203.971 151.432 203.971 149.048C203.971 146.664 202.435 144.856 200.291 144.856C198.147 144.856 196.611 146.664 196.611 149.048C196.611 151.432 198.211 153.224 200.291 153.224ZM200.291 152.024C198.947 152.024 198.019 151.064 198.019 149.064C198.019 147.064 198.947 146.056 200.291 146.056C201.635 146.056 202.563 147.064 202.563 149.064C202.563 151.064 201.635 152.024 200.291 152.024ZM206.032 153H207.392V149.64C207.392 148.472 207.44 146.056 209.616 146.056C210.672 146.056 211.36 146.664 211.36 148.152V153H212.72V147.832C212.72 146.072 211.92 144.856 209.952 144.856C208.24 144.856 207.472 146.072 207.36 146.424V145.08H206.032V153ZM223.31 153.224C225.134 153.224 226.526 151.64 226.526 149.032C226.526 146.424 225.134 144.856 223.31 144.856C221.918 144.856 221.182 145.624 220.798 146.296V144.76V141.8H219.438V153H220.766V151.768C221.15 152.44 221.918 153.224 223.31 153.224ZM222.958 152.024C221.662 152.024 220.718 151.016 220.718 149.016C220.718 147.016 221.662 146.056 222.958 146.056C224.222 146.056 225.134 146.808 225.134 149.016C225.134 151.224 224.222 152.024 222.958 152.024ZM231.249 153.224C232.641 153.224 233.409 152.456 233.793 151.784V153H235.121V145.08H233.761V146.312C233.377 145.64 232.641 144.856 231.249 144.856C229.425 144.856 228.033 146.44 228.033 149.048C228.033 151.656 229.425 153.224 231.249 153.224ZM231.601 152.024C230.337 152.024 229.425 151.272 229.425 149.064C229.425 146.856 230.337 146.056 231.601 146.056C232.897 146.056 233.841 147.064 233.841 149.064C233.841 151.064 232.897 152.024 231.601 152.024ZM240.965 153.224C242.741 153.224 243.893 152.184 244.405 150.712L243.125 150.264C242.869 151.128 242.277 152.024 240.965 152.024C239.653 152.024 238.629 151.064 238.629 149.032C238.629 147.048 239.685 146.056 240.949 146.056C242.101 146.056 242.677 146.808 242.933 147.56L244.197 147.144C243.829 145.912 242.741 144.856 240.949 144.856C238.757 144.856 237.205 146.584 237.205 149.032C237.205 151.592 238.677 153.224 240.965 153.224ZM252.091 153H253.835L250.027 148.392L253.595 145.08H251.787L247.579 149.16V146.568V141.8H246.219V153H247.579V150.664L249.083 149.288L252.091 153ZM256.421 156.12H260.117C261.461 156.12 262.597 155.416 262.597 153.944C262.597 152.616 261.605 151.752 260.085 151.752H256.629C256.069 151.752 255.957 151.464 255.957 151.208C255.957 150.92 256.245 150.616 256.677 150.424C257.109 150.68 257.605 150.728 258.149 150.728C259.909 150.728 261.109 149.56 261.237 147.768L261.269 147.336C261.333 146.408 261.605 146.232 262.325 146.232H262.933V145.08H262.085C261.317 145.08 260.949 145.608 260.789 146.216C260.453 145.656 259.621 144.856 258.149 144.856C256.325 144.856 254.997 146.152 254.997 147.8C254.997 148.792 255.429 149.512 255.877 149.912C255.365 150.28 254.709 150.808 254.709 151.592C254.709 152.216 254.965 152.584 255.413 152.856C254.933 153.128 254.357 153.72 254.357 154.52C254.357 155.448 254.901 156.12 256.421 156.12ZM258.149 149.608C257.077 149.608 256.373 148.888 256.373 147.8C256.373 146.712 257.077 145.976 258.149 145.976C259.221 145.976 259.925 146.712 259.925 147.8C259.925 148.888 259.221 149.608 258.149 149.608ZM256.885 154.904C256.053 154.904 255.605 154.728 255.605 154.072C255.605 153.528 255.957 153.176 256.229 153H259.973C260.597 153 261.221 153.128 261.221 153.944C261.221 154.76 260.597 154.904 259.973 154.904H256.885ZM264.532 153H265.892V149.368C265.892 147.512 266.628 146.376 268.42 146.376C268.74 146.376 269.012 146.408 269.268 146.456V145.064C269.076 145.016 268.836 144.968 268.452 144.968C266.948 144.968 266.132 146.136 265.876 146.728V145.08H264.532V153ZM273.806 153.224C275.886 153.224 277.486 151.432 277.486 149.048C277.486 146.664 275.95 144.856 273.806 144.856C271.662 144.856 270.126 146.664 270.126 149.048C270.126 151.432 271.726 153.224 273.806 153.224ZM273.806 152.024C272.462 152.024 271.534 151.064 271.534 149.064C271.534 147.064 272.462 146.056 273.806 146.056C275.15 146.056 276.078 147.064 276.078 149.064C276.078 151.064 275.15 152.024 273.806 152.024ZM282.075 153.224C283.723 153.224 284.475 152.056 284.715 151.624V153H286.043V145.08H284.683V148.44C284.683 149.656 284.651 152.024 282.507 152.024C281.467 152.024 280.795 151.416 280.795 149.928V145.08H279.435V150.248C279.435 152.008 280.219 153.224 282.075 153.224ZM288.735 153H290.095V149.64C290.095 148.472 290.143 146.056 292.319 146.056C293.375 146.056 294.063 146.664 294.063 148.152V153H295.423V147.832C295.423 146.072 294.623 144.856 292.655 144.856C290.943 144.856 290.175 146.072 290.063 146.424V145.08H288.735V153ZM300.624 153.224C302.016 153.224 302.784 152.456 303.168 151.784V153H304.496V141.8H303.136V144.76V146.312C302.752 145.64 302.016 144.856 300.624 144.856C298.8 144.856 297.408 146.44 297.408 149.048C297.408 151.656 298.8 153.224 300.624 153.224ZM300.976 152.024C299.712 152.024 298.8 151.272 298.8 149.064C298.8 146.856 299.712 146.056 300.976 146.056C302.272 146.056 303.216 147.064 303.216 149.064C303.216 151.064 302.272 152.024 300.976 152.024Z" fill="#6E6E78"/><path d="M428 58C428 57.4477 427.552 57 427 57C426.448 57 426 57.4477 426 58L428 58ZM426.293 148.707C426.683 149.098 427.317 149.098 427.707 148.707L434.071 142.343C434.462 141.953 434.462 141.319 434.071 140.929C433.681 140.538 433.047 140.538 432.657 140.929L427 146.586L421.343 140.929C420.953 140.538 420.319 140.538 419.929 140.929C419.538 141.319 419.538 141.953 419.929 142.343L426.293 148.707ZM426 58L426 148L428 148L428 58L426 58Z" fill="#DA372C"/><path d="M346.066 69H347.506V57.8H346.354C345.602 59.128 344.354 59.944 343.042 60.296V61.816C344.274 61.608 345.458 60.776 346.066 59.752V61.32V69ZM354.9 69H356.324V65.896H357.956V64.648H356.324V57.8H354.1L349.668 64.504V65.896H354.9V69ZM354.9 64.648H353.252H351.124L354.9 58.936V61.384V64.648ZM359.875 72.12H361.235V69.32V67.768C361.619 68.44 362.355 69.224 363.747 69.224C365.571 69.224 366.963 67.64 366.963 65.032C366.963 62.424 365.571 60.856 363.747 60.856C362.355 60.856 361.587 61.624 361.203 62.296V61.08H359.875V72.12ZM363.395 68.024C362.099 68.024 361.155 67.016 361.155 65.016C361.155 63.016 362.099 62.056 363.395 62.056C364.659 62.056 365.571 62.808 365.571 65.016C365.571 67.224 364.659 68.024 363.395 68.024ZM367.913 69H369.401L370.409 67.496L371.417 65.976C371.641 66.328 371.817 66.6 372.409 67.496L373.401 69H375.033L372.281 64.968L374.873 61.08H373.369L372.505 62.44C371.897 63.384 371.705 63.672 371.481 63.992C371.289 63.672 371.113 63.384 370.521 62.44L369.657 61.08H368.073L370.633 64.952L367.913 69ZM380.78 59.528H382.22V57.8H380.78V59.528ZM380.828 69H382.188V61.08H380.828V69ZM388.027 69.224C389.803 69.224 390.955 68.184 391.467 66.712L390.187 66.264C389.931 67.128 389.339 68.024 388.027 68.024C386.715 68.024 385.691 67.064 385.691 65.032C385.691 63.048 386.747 62.056 388.011 62.056C389.163 62.056 389.739 62.808 389.995 63.56L391.259 63.144C390.891 61.912 389.803 60.856 388.011 60.856C385.819 60.856 384.267 62.584 384.267 65.032C384.267 67.592 385.739 69.224 388.027 69.224ZM396.338 69.224C398.418 69.224 400.017 67.432 400.017 65.048C400.017 62.664 398.482 60.856 396.338 60.856C394.194 60.856 392.658 62.664 392.658 65.048C392.658 67.432 394.258 69.224 396.338 69.224ZM396.338 68.024C394.994 68.024 394.066 67.064 394.066 65.064C394.066 63.064 394.994 62.056 396.338 62.056C397.682 62.056 398.61 63.064 398.61 65.064C398.61 67.064 397.682 68.024 396.338 68.024ZM402.078 69H403.438V65.64C403.438 64.472 403.486 62.056 405.662 62.056C406.718 62.056 407.406 62.664 407.406 64.152V69H408.766V63.832C408.766 62.072 407.966 60.856 405.998 60.856C404.286 60.856 403.518 62.072 403.406 62.424V61.08H402.078V69Z" fill="#6E6E78"/><path d="M478 58C478 57.4477 477.552 57 477 57C476.448 57 476 57.4477 476 58L478 58ZM476.293 155.707C476.683 156.098 477.317 156.098 477.707 155.707L484.071 149.343C484.462 148.953 484.462 148.319 484.071 147.929C483.681 147.538 483.047 147.538 482.657 147.929L477 153.586L471.343 147.929C470.953 147.538 470.319 147.538 469.929 147.929C469.538 148.319 469.538 148.953 469.929 149.343L476.293 155.707ZM476 58L476 155L478 155L478 58L476 58Z" fill="#DA372C"/><path d="M496.148 69H501.172C503.108 69 504.788 68.072 504.788 65.912C504.788 64.248 503.476 63.384 502.34 63.16C503.3 62.968 504.42 62.12 504.42 60.568C504.42 58.936 503.3 57.8 500.948 57.8H496.148V69ZM497.588 62.52V59.16H500.82C502.084 59.16 502.9 59.704 502.9 60.76C502.9 61.816 502.084 62.52 500.82 62.52H497.588ZM497.588 67.64V63.864H500.964C502.388 63.864 503.236 64.568 503.236 65.72C503.236 66.872 502.388 67.64 500.964 67.64H497.588ZM509.56 69.224C511.208 69.224 511.96 68.056 512.2 67.624V69H513.528V61.08H512.168V64.44C512.168 65.656 512.136 68.024 509.992 68.024C508.952 68.024 508.28 67.416 508.28 65.928V61.08H506.92V66.248C506.92 68.008 507.704 69.224 509.56 69.224ZM518.971 69H520.795V67.8H519.147C518.587 67.8 518.347 67.56 518.347 67V62.232H520.507V61.08H518.347V58.6H516.987V61.08H515.147V62.232H516.987V67.08C516.987 68.392 517.659 69 518.971 69ZM525.268 69H527.092V67.8H525.444C524.884 67.8 524.644 67.56 524.644 67V62.232H526.804V61.08H524.644V58.6H523.284V61.08H521.444V62.232H523.284V67.08C523.284 68.392 523.956 69 525.268 69ZM531.791 69.224C533.871 69.224 535.471 67.432 535.471 65.048C535.471 62.664 533.935 60.856 531.791 60.856C529.647 60.856 528.111 62.664 528.111 65.048C528.111 67.432 529.711 69.224 531.791 69.224ZM531.791 68.024C530.447 68.024 529.519 67.064 529.519 65.064C529.519 63.064 530.447 62.056 531.791 62.056C533.135 62.056 534.063 63.064 534.063 65.064C534.063 67.064 533.135 68.024 531.791 68.024ZM537.532 69H538.892V65.64C538.892 64.472 538.94 62.056 541.116 62.056C542.172 62.056 542.86 62.664 542.86 64.152V69H544.22V63.832C544.22 62.072 543.42 60.856 541.452 60.856C539.74 60.856 538.972 62.072 538.86 62.424V61.08H537.532V69ZM553.409 69H555.233V67.8H553.585C553.025 67.8 552.785 67.56 552.785 67V62.232H554.945V61.08H552.785V58.6H551.424V61.08H549.585V62.232H551.424V67.08C551.424 68.392 552.097 69 553.409 69ZM559.867 69.224C561.355 69.224 562.683 68.552 563.275 66.936L562.027 66.504C561.819 67.016 561.259 68.04 559.915 68.04C558.811 68.04 557.707 67.4 557.627 65.4H563.211C563.515 62.808 562.091 60.856 559.787 60.856C557.771 60.856 556.283 62.472 556.283 65.08C556.283 67.768 557.707 69.224 559.867 69.224ZM557.659 64.264C557.771 62.824 558.747 61.976 559.787 61.976C560.875 61.976 561.819 62.76 561.819 64.264H557.659ZM564.273 69H565.761L566.769 67.496L567.777 65.976C568.001 66.328 568.177 66.6 568.769 67.496L569.761 69H571.393L568.641 64.968L571.233 61.08H569.729L568.865 62.44C568.257 63.384 568.065 63.672 567.841 63.992C567.649 63.672 567.473 63.384 566.881 62.44L566.017 61.08H564.433L566.993 64.952L564.273 69ZM575.799 69H577.623V67.8H575.975C575.415 67.8 575.175 67.56 575.175 67V62.232H577.335V61.08H575.175V58.6H573.815V61.08H571.975V62.232H573.815V67.08C573.815 68.392 574.487 69 575.799 69Z" fill="#6E6E78"/><path d="M545.293 116.293C544.902 116.683 544.902 117.317 545.293 117.707L551.657 124.071C552.047 124.462 552.681 124.462 553.071 124.071C553.462 123.681 553.462 123.047 553.071 122.657L547.414 117L553.071 111.343C553.462 110.953 553.462 110.319 553.071 109.929C552.681 109.538 552.047 109.538 551.657 109.929L545.293 116.293ZM594 133H595H594ZM593.293 165.707C593.683 166.098 594.317 166.098 594.707 165.707L601.071 159.343C601.462 158.953 601.462 158.319 601.071 157.929C600.681 157.538 600.047 157.538 599.657 157.929L594 163.586L588.343 157.929C587.953 157.538 587.319 157.538 586.929 157.929C586.538 158.319 586.538 158.953 586.929 159.343L593.293 165.707ZM578 116H546V118H578V116ZM593 133L593 165H595L595 133H593ZM578 118C586.284 118 593 124.716 593 133H595C595 123.611 587.389 116 578 116V118Z" fill="#DA372C"/><path d="M623.712 136H625.136V132.896H626.768V131.648H625.136V124.8H622.912L618.48 131.504V132.896H623.712V136ZM623.712 131.648H622.064H619.936L623.712 125.936V128.384V131.648ZM628.688 139.12H630.048V136.32V134.768C630.432 135.44 631.168 136.224 632.56 136.224C634.384 136.224 635.776 134.64 635.776 132.032C635.776 129.424 634.384 127.856 632.56 127.856C631.168 127.856 630.4 128.624 630.016 129.296V128.08H628.688V139.12ZM632.208 135.024C630.912 135.024 629.968 134.016 629.968 132.016C629.968 130.016 630.912 129.056 632.208 129.056C633.472 129.056 634.384 129.808 634.384 132.016C634.384 134.224 633.472 135.024 632.208 135.024ZM636.726 136H638.214L639.222 134.496L640.23 132.976C640.454 133.328 640.63 133.6 641.222 134.496L642.214 136H643.846L641.094 131.968L643.686 128.08H642.182L641.318 129.44C640.71 130.384 640.518 130.672 640.294 130.992C640.102 130.672 639.926 130.384 639.334 129.44L638.47 128.08H636.886L639.446 131.952L636.726 136ZM652.793 136.224C654.569 136.224 655.721 135.184 656.233 133.712L654.953 133.264C654.697 134.128 654.105 135.024 652.793 135.024C651.481 135.024 650.457 134.064 650.457 132.032C650.457 130.048 651.513 129.056 652.777 129.056C653.929 129.056 654.505 129.808 654.761 130.56L656.025 130.144C655.657 128.912 654.569 127.856 652.777 127.856C650.585 127.856 649.033 129.584 649.033 132.032C649.033 134.592 650.505 136.224 652.793 136.224ZM661.103 136.224C663.183 136.224 664.783 134.432 664.783 132.048C664.783 129.664 663.247 127.856 661.103 127.856C658.959 127.856 657.423 129.664 657.423 132.048C657.423 134.432 659.023 136.224 661.103 136.224ZM661.103 135.024C659.759 135.024 658.831 134.064 658.831 132.064C658.831 130.064 659.759 129.056 661.103 129.056C662.447 129.056 663.375 130.064 663.375 132.064C663.375 134.064 662.447 135.024 661.103 135.024ZM666.844 136H668.204V132.368C668.204 130.512 668.94 129.376 670.732 129.376C671.052 129.376 671.324 129.408 671.58 129.456V128.064C671.388 128.016 671.148 127.968 670.764 127.968C669.26 127.968 668.444 129.136 668.188 129.728V128.08H666.844V136ZM673.188 136H674.548V132.64C674.548 131.472 674.596 129.056 676.772 129.056C677.828 129.056 678.516 129.664 678.516 131.152V136H679.876V130.832C679.876 129.072 679.076 127.856 677.108 127.856C675.396 127.856 674.628 129.072 674.516 129.424V128.08H673.188V136ZM685.445 136.224C686.933 136.224 688.261 135.552 688.853 133.936L687.605 133.504C687.397 134.016 686.837 135.04 685.493 135.04C684.389 135.04 683.285 134.4 683.205 132.4H688.789C689.093 129.808 687.669 127.856 685.365 127.856C683.349 127.856 681.861 129.472 681.861 132.08C681.861 134.768 683.285 136.224 685.445 136.224ZM683.237 131.264C683.349 129.824 684.325 128.976 685.365 128.976C686.453 128.976 687.397 129.76 687.397 131.264H683.237ZM690.969 136H692.329V132.368C692.329 130.512 693.065 129.376 694.857 129.376C695.177 129.376 695.449 129.408 695.705 129.456V128.064C695.513 128.016 695.273 127.968 694.889 127.968C693.385 127.968 692.569 129.136 692.313 129.728V128.08H690.969V136ZM701.016 136H702.376V132.368C702.376 130.512 703.112 129.376 704.904 129.376C705.224 129.376 705.496 129.408 705.752 129.456V128.064C705.56 128.016 705.32 127.968 704.936 127.968C703.432 127.968 702.616 129.136 702.36 129.728V128.08H701.016V136ZM709.859 136.224C711.251 136.224 712.019 135.456 712.403 134.784V136H713.731V128.08H712.371V129.312C711.987 128.64 711.251 127.856 709.859 127.856C708.035 127.856 706.643 129.44 706.643 132.048C706.643 134.656 708.035 136.224 709.859 136.224ZM710.211 135.024C708.947 135.024 708.035 134.272 708.035 132.064C708.035 129.856 708.947 129.056 710.211 129.056C711.507 129.056 712.451 130.064 712.451 132.064C712.451 134.064 711.507 135.024 710.211 135.024ZM719.046 136.224C720.438 136.224 721.206 135.456 721.59 134.784V136H722.918V124.8H721.558V127.76V129.312C721.174 128.64 720.438 127.856 719.046 127.856C717.222 127.856 715.83 129.44 715.83 132.048C715.83 134.656 717.222 136.224 719.046 136.224ZM719.398 135.024C718.134 135.024 717.222 134.272 717.222 132.064C717.222 129.856 718.134 129.056 719.398 129.056C720.694 129.056 721.638 130.064 721.638 132.064C721.638 134.064 720.694 135.024 719.398 135.024ZM725.562 126.528H727.002V124.8H725.562V126.528ZM725.61 136H726.97V128.08H725.61V136ZM732.185 136.224C733.833 136.224 734.585 135.056 734.825 134.624V136H736.153V128.08H734.793V131.44C734.793 132.656 734.761 135.024 732.617 135.024C731.577 135.024 730.905 134.416 730.905 132.928V128.08H729.545V133.248C729.545 135.008 730.329 136.224 732.185 136.224ZM741.516 136.224C743.516 136.224 744.668 135.28 744.668 133.792C744.668 131.984 742.796 131.504 741.996 131.344L741.084 131.168C739.948 130.944 739.692 130.624 739.692 130.096C739.692 129.52 740.204 128.976 741.308 128.976C742.652 128.976 743.1 129.824 743.292 130.352L744.524 129.904C744.204 128.864 743.276 127.856 741.308 127.856C739.756 127.856 738.412 128.816 738.412 130.24C738.412 131.744 739.564 132.24 740.876 132.496L741.788 132.672C742.94 132.896 743.308 133.312 743.308 133.904C743.308 134.656 742.668 135.056 741.516 135.056C740.268 135.056 739.628 134.464 739.388 133.52L738.076 133.952C738.428 135.472 739.9 136.224 741.516 136.224Z" fill="#6E6E78"/><path d="M507 271C507 271.552 507.448 272 508 272C508.552 272 509 271.552 509 271L507 271ZM508.707 198.293C508.317 197.902 507.683 197.902 507.293 198.293L500.929 204.657C500.538 205.047 500.538 205.681 500.929 206.071C501.319 206.462 501.953 206.462 502.343 206.071L508 200.414L513.657 206.071C514.047 206.462 514.681 206.462 515.071 206.071C515.462 205.681 515.462 205.047 515.071 204.657L508.707 198.293ZM509 271L509 199L507 199L507 271L509 271Z" fill="#DA372C"/><path d="M406.975 272.68H408.175V271.208C410.447 271.032 411.695 269.72 411.695 267.896C411.695 266.2 410.431 265.24 408.655 264.792L408.175 264.664V260.952C409.471 261.208 409.983 262.2 410.191 262.792L411.519 262.136C411.231 261.192 410.191 259.832 408.175 259.608V258.12H406.975V259.608C405.071 259.832 403.807 261.064 403.807 262.712C403.807 264.568 404.959 265.384 406.607 265.736L406.975 265.816V269.848C405.727 269.576 404.975 268.664 404.607 267.544L403.247 268.2C403.743 269.768 405.007 270.952 406.975 271.192V272.68ZM406.975 264.392C405.727 264.072 405.183 263.592 405.183 262.632C405.183 261.72 405.855 261.032 406.975 260.904V262.968V264.392ZM408.175 269.912V267.848V266.088C409.567 266.408 410.239 267.032 410.239 268.024C410.239 269.064 409.487 269.784 408.175 269.912ZM416.391 271.224C418.391 271.224 419.543 270.28 419.543 268.792C419.543 266.984 417.671 266.504 416.871 266.344L415.959 266.168C414.823 265.944 414.567 265.624 414.567 265.096C414.567 264.52 415.079 263.976 416.183 263.976C417.527 263.976 417.975 264.824 418.167 265.352L419.399 264.904C419.079 263.864 418.151 262.856 416.183 262.856C414.631 262.856 413.287 263.816 413.287 265.24C413.287 266.744 414.439 267.24 415.751 267.496L416.663 267.672C417.815 267.896 418.183 268.312 418.183 268.904C418.183 269.656 417.543 270.056 416.391 270.056C415.143 270.056 414.503 269.464 414.263 268.52L412.951 268.952C413.303 270.472 414.775 271.224 416.391 271.224ZM421.578 274.12H422.938V271.32V269.768C423.322 270.44 424.058 271.224 425.45 271.224C427.274 271.224 428.666 269.64 428.666 267.032C428.666 264.424 427.274 262.856 425.45 262.856C424.058 262.856 423.29 263.624 422.906 264.296V263.08H421.578V274.12ZM425.098 270.024C423.802 270.024 422.858 269.016 422.858 267.016C422.858 265.016 423.802 264.056 425.098 264.056C426.362 264.056 427.274 264.808 427.274 267.016C427.274 269.224 426.362 270.024 425.098 270.024ZM433.39 271.224C434.782 271.224 435.55 270.456 435.934 269.784V271H437.262V263.08H435.902V264.312C435.518 263.64 434.782 262.856 433.39 262.856C431.566 262.856 430.174 264.44 430.174 267.048C430.174 269.656 431.566 271.224 433.39 271.224ZM433.742 270.024C432.478 270.024 431.566 269.272 431.566 267.064C431.566 264.856 432.478 264.056 433.742 264.056C435.038 264.056 435.982 265.064 435.982 267.064C435.982 269.064 435.038 270.024 433.742 270.024ZM443.105 271.224C444.881 271.224 446.033 270.184 446.545 268.712L445.265 268.264C445.009 269.128 444.417 270.024 443.105 270.024C441.793 270.024 440.769 269.064 440.769 267.032C440.769 265.048 441.825 264.056 443.089 264.056C444.241 264.056 444.817 264.808 445.073 265.56L446.337 265.144C445.969 263.912 444.881 262.856 443.089 262.856C440.897 262.856 439.345 264.584 439.345 267.032C439.345 269.592 440.817 271.224 443.105 271.224ZM448.312 261.528H449.752V259.8H448.312V261.528ZM448.36 271H449.72V263.08H448.36V271ZM452.407 271H453.767V267.64C453.767 266.472 453.815 264.056 455.991 264.056C457.047 264.056 457.735 264.664 457.735 266.152V271H459.095V265.832C459.095 264.072 458.295 262.856 456.327 262.856C454.615 262.856 453.847 264.072 453.735 264.424V263.08H452.407V271ZM462.952 274.12H466.648C467.992 274.12 469.128 273.416 469.128 271.944C469.128 270.616 468.136 269.752 466.616 269.752H463.16C462.6 269.752 462.488 269.464 462.488 269.208C462.488 268.92 462.776 268.616 463.208 268.424C463.64 268.68 464.136 268.728 464.68 268.728C466.44 268.728 467.64 267.56 467.768 265.768L467.8 265.336C467.864 264.408 468.136 264.232 468.856 264.232H469.464V263.08H468.616C467.848 263.08 467.48 263.608 467.32 264.216C466.984 263.656 466.152 262.856 464.68 262.856C462.856 262.856 461.528 264.152 461.528 265.8C461.528 266.792 461.96 267.512 462.408 267.912C461.896 268.28 461.24 268.808 461.24 269.592C461.24 270.216 461.496 270.584 461.944 270.856C461.464 271.128 460.888 271.72 460.888 272.52C460.888 273.448 461.432 274.12 462.952 274.12ZM464.68 267.608C463.608 267.608 462.904 266.888 462.904 265.8C462.904 264.712 463.608 263.976 464.68 263.976C465.752 263.976 466.456 264.712 466.456 265.8C466.456 266.888 465.752 267.608 464.68 267.608ZM463.416 272.904C462.584 272.904 462.136 272.728 462.136 272.072C462.136 271.528 462.488 271.176 462.76 271H466.504C467.128 271 467.752 271.128 467.752 271.944C467.752 272.76 467.128 272.904 466.504 272.904H463.416ZM470.62 266.776H475.036V265.336H470.62V266.776ZM480.157 271.224C482.157 271.224 483.309 270.28 483.309 268.792C483.309 266.984 481.437 266.504 480.637 266.344L479.725 266.168C478.589 265.944 478.333 265.624 478.333 265.096C478.333 264.52 478.845 263.976 479.949 263.976C481.293 263.976 481.741 264.824 481.933 265.352L483.165 264.904C482.845 263.864 481.917 262.856 479.949 262.856C478.397 262.856 477.053 263.816 477.053 265.24C477.053 266.744 478.205 267.24 479.517 267.496L480.429 267.672C481.581 267.896 481.949 268.312 481.949 268.904C481.949 269.656 481.309 270.056 480.157 270.056C478.909 270.056 478.269 269.464 478.029 268.52L476.717 268.952C477.069 270.472 478.541 271.224 480.157 271.224Z" fill="#6E6E78"/></svg>