<svg width="958" height="347" viewBox="0 0 958 347" fill="none" xmlns="http://www.w3.org/2000/svg">
<path d="M211 173.5L210.5 173.5L210.5 174.5L211 174.5L211 173.5ZM353.354 174.354C353.549 174.158 353.549 173.842 353.354 173.646L350.172 170.464C349.976 170.269 349.66 170.269 349.464 170.464C349.269 170.66 349.269 170.976 349.464 171.172L352.293 174L349.464 176.828C349.269 177.024 349.269 177.34 349.464 177.536C349.66 177.731 349.976 177.731 350.172 177.536L353.354 174.354ZM211 174.5L353 174.5L353 173.5L211 173.5L211 174.5Z" fill="#2D8C9E"/>
<path d="M212.236 156H213.316V152.484H215.092C216.244 152.484 216.82 152.88 217.012 153.972L217.372 156H218.56L218.128 153.876C217.924 152.892 217.564 152.316 216.424 152.124C217.528 151.896 218.404 151.152 218.404 149.892C218.404 148.62 217.444 147.6 215.716 147.6H212.236V156ZM213.316 151.476V148.62H215.572C216.544 148.62 217.264 149.064 217.264 150.048C217.264 151.032 216.544 151.476 215.572 151.476H213.316ZM221.735 156.168C222.659 156.168 223.223 155.772 223.667 155.1C223.739 155.592 223.871 156 224.771 156H225.551V155.1H224.927C224.651 155.1 224.579 155.028 224.579 154.752V151.932C224.579 150.708 223.847 149.892 222.263 149.892C220.715 149.892 219.899 150.732 219.683 151.524L220.679 151.884C220.835 151.44 221.159 150.792 222.251 150.792C223.163 150.792 223.559 151.224 223.559 151.944V152.112C221.627 152.268 219.815 152.832 219.815 154.464C219.815 155.52 220.559 156.168 221.735 156.168ZM221.975 155.304C221.231 155.304 220.871 154.944 220.871 154.38C220.871 153.408 222.107 153.036 223.559 152.88V153.54C223.559 154.776 222.755 155.304 221.975 155.304ZM228.613 156.168C229.657 156.168 230.233 155.592 230.521 155.088V156H231.517V147.6H230.497V149.82V150.984C230.209 150.48 229.657 149.892 228.613 149.892C227.245 149.892 226.201 151.08 226.201 153.036C226.201 154.992 227.245 156.168 228.613 156.168ZM228.877 155.268C227.929 155.268 227.245 154.704 227.245 153.048C227.245 151.392 227.929 150.792 228.877 150.792C229.849 150.792 230.557 151.548 230.557 153.048C230.557 154.548 229.849 155.268 228.877 155.268ZM233.499 148.896H234.579V147.6H233.499V148.896ZM233.535 156H234.555V150.06H233.535V156ZM238.863 156.168C240.423 156.168 241.622 154.824 241.622 153.036C241.622 151.248 240.471 149.892 238.863 149.892C237.255 149.892 236.103 151.248 236.103 153.036C236.103 154.824 237.303 156.168 238.863 156.168ZM238.863 155.268C237.855 155.268 237.159 154.548 237.159 153.048C237.159 151.548 237.855 150.792 238.863 150.792C239.871 150.792 240.567 151.548 240.567 153.048C240.567 154.548 239.871 155.268 238.863 155.268ZM246.238 148.896H247.318V147.6H246.238V148.896ZM246.274 156H247.294V150.06H246.274V156ZM249.309 156H250.329V153.48C250.329 152.604 250.365 150.792 251.997 150.792C252.789 150.792 253.305 151.248 253.305 152.364V156H254.325V152.124C254.325 150.804 253.725 149.892 252.249 149.892C250.965 149.892 250.389 150.804 250.305 151.068V150.06H249.309V156ZM256.258 158.34H257.278V156.24V155.076C257.566 155.58 258.118 156.168 259.162 156.168C260.53 156.168 261.574 154.98 261.574 153.024C261.574 151.068 260.53 149.892 259.162 149.892C258.118 149.892 257.542 150.468 257.254 150.972V150.06H256.258V158.34ZM258.898 155.268C257.926 155.268 257.218 154.512 257.218 153.012C257.218 151.512 257.926 150.792 258.898 150.792C259.846 150.792 260.53 151.356 260.53 153.012C260.53 154.668 259.846 155.268 258.898 155.268ZM265.045 156.168C266.281 156.168 266.845 155.292 267.025 154.968V156H268.021V150.06H267.001V152.58C267.001 153.492 266.977 155.268 265.369 155.268C264.589 155.268 264.085 154.812 264.085 153.696V150.06H263.065V153.936C263.065 155.256 263.653 156.168 265.045 156.168ZM272.103 156H273.471V155.1H272.235C271.815 155.1 271.635 154.92 271.635 154.5V150.924H273.255V150.06H271.635V148.2H270.615V150.06H269.235V150.924H270.615V154.56C270.615 155.544 271.119 156 272.103 156Z" fill="#2D8C9E"/>
<path d="M515.5 96L515.5 95.5L514.5 95.5L514.5 96L515.5 96ZM514.646 150.354C514.842 150.549 515.158 150.549 515.354 150.354L518.536 147.172C518.731 146.976 518.731 146.66 518.536 146.464C518.34 146.269 518.024 146.269 517.828 146.464L515 149.293L512.172 146.464C511.976 146.269 511.66 146.269 511.464 146.464C511.269 146.66 511.269 146.976 511.464 147.172L514.646 150.354ZM514.5 96L514.5 150L515.5 150L515.5 96L514.5 96Z" fill="#2D8C9E"/>
<path d="M444.177 111H445.257V107.484H447.033C448.185 107.484 448.761 107.88 448.953 108.972L449.313 111H450.501L450.069 108.876C449.865 107.892 449.505 107.316 448.365 107.124C449.469 106.896 450.345 106.152 450.345 104.892C450.345 103.62 449.385 102.6 447.657 102.6H444.177V111ZM445.257 106.476V103.62H447.513C448.485 103.62 449.205 104.064 449.205 105.048C449.205 106.032 448.485 106.476 447.513 106.476H445.257ZM453.677 111.168C454.601 111.168 455.165 110.772 455.609 110.1C455.681 110.592 455.813 111 456.713 111H457.493V110.1H456.869C456.593 110.1 456.521 110.028 456.521 109.752V106.932C456.521 105.708 455.789 104.892 454.205 104.892C452.657 104.892 451.841 105.732 451.625 106.524L452.621 106.884C452.777 106.44 453.101 105.792 454.193 105.792C455.105 105.792 455.501 106.224 455.501 106.944V107.112C453.569 107.268 451.757 107.832 451.757 109.464C451.757 110.52 452.501 111.168 453.677 111.168ZM453.917 110.304C453.173 110.304 452.813 109.944 452.813 109.38C452.813 108.408 454.049 108.036 455.501 107.88V108.54C455.501 109.776 454.697 110.304 453.917 110.304ZM460.554 111.168C461.598 111.168 462.174 110.592 462.462 110.088V111H463.458V102.6H462.438V104.82V105.984C462.15 105.48 461.598 104.892 460.554 104.892C459.186 104.892 458.142 106.08 458.142 108.036C458.142 109.992 459.186 111.168 460.554 111.168ZM460.818 110.268C459.87 110.268 459.186 109.704 459.186 108.048C459.186 106.392 459.87 105.792 460.818 105.792C461.79 105.792 462.498 106.548 462.498 108.048C462.498 109.548 461.79 110.268 460.818 110.268ZM465.441 103.896H466.521V102.6H465.441V103.896ZM465.477 111H466.497V105.06H465.477V111ZM470.804 111.168C472.364 111.168 473.564 109.824 473.564 108.036C473.564 106.248 472.412 104.892 470.804 104.892C469.196 104.892 468.044 106.248 468.044 108.036C468.044 109.824 469.244 111.168 470.804 111.168ZM470.804 110.268C469.796 110.268 469.1 109.548 469.1 108.048C469.1 106.548 469.796 105.792 470.804 105.792C471.812 105.792 472.508 106.548 472.508 108.048C472.508 109.548 471.812 110.268 470.804 110.268ZM478.215 111H479.235V102.6H478.215V111ZM482.786 111.168C483.71 111.168 484.274 110.772 484.718 110.1C484.79 110.592 484.922 111 485.822 111H486.602V110.1H485.978C485.702 110.1 485.63 110.028 485.63 109.752V106.932C485.63 105.708 484.898 104.892 483.314 104.892C481.766 104.892 480.95 105.732 480.734 106.524L481.73 106.884C481.886 106.44 482.21 105.792 483.302 105.792C484.214 105.792 484.61 106.224 484.61 106.944V107.112C482.678 107.268 480.866 107.832 480.866 109.464C480.866 110.52 481.61 111.168 482.786 111.168ZM483.026 110.304C482.282 110.304 481.922 109.944 481.922 109.38C481.922 108.408 483.158 108.036 484.61 107.88V108.54C484.61 109.776 483.806 110.304 483.026 110.304ZM490.6 111.168C491.968 111.168 493.012 109.98 493.012 108.024C493.012 106.068 491.968 104.892 490.6 104.892C489.556 104.892 489.004 105.468 488.716 105.972V104.82V102.6H487.696V111H488.692V110.076C488.98 110.58 489.556 111.168 490.6 111.168ZM490.336 110.268C489.364 110.268 488.656 109.512 488.656 108.012C488.656 106.512 489.364 105.792 490.336 105.792C491.284 105.792 491.968 106.356 491.968 108.012C491.968 109.668 491.284 110.268 490.336 110.268ZM496.83 111.168C497.946 111.168 498.942 110.664 499.386 109.452L498.45 109.128C498.294 109.512 497.874 110.28 496.866 110.28C496.038 110.28 495.21 109.8 495.15 108.3H499.338C499.566 106.356 498.498 104.892 496.77 104.892C495.258 104.892 494.142 106.104 494.142 108.06C494.142 110.076 495.21 111.168 496.83 111.168ZM495.174 107.448C495.258 106.368 495.99 105.732 496.77 105.732C497.586 105.732 498.294 106.32 498.294 107.448H495.174ZM500.973 111H501.993V102.6H500.973V111Z" fill="#2D8C9E"/>
<path d="M409.5 263L409.5 263.5L410.5 263.5L410.5 263L409.5 263ZM410.354 209.646C410.158 209.451 409.842 209.451 409.646 209.646L406.464 212.828C406.269 213.024 406.269 213.34 406.464 213.536C406.66 213.731 406.976 213.731 407.172 213.536L410 210.707L412.828 213.536C413.024 213.731 413.34 213.731 413.536 213.536C413.731 213.34 413.731 213.024 413.536 212.828L410.354 209.646ZM410.5 263L410.5 210L409.5 210L409.5 263L410.5 263Z" fill="#2D8C9E"/>
<path d="M340.676 258.26H341.576V257.156C343.28 257.024 344.216 256.04 344.216 254.672C344.216 253.4 343.268 252.68 341.936 252.344L341.576 252.248V249.464C342.548 249.656 342.932 250.4 343.088 250.844L344.084 250.352C343.868 249.644 343.088 248.624 341.576 248.456V247.34H340.676V248.456C339.248 248.624 338.3 249.548 338.3 250.784C338.3 252.176 339.164 252.788 340.4 253.052L340.676 253.112V256.136C339.74 255.932 339.176 255.248 338.9 254.408L337.88 254.9C338.252 256.076 339.2 256.964 340.676 257.144V258.26ZM340.676 252.044C339.74 251.804 339.332 251.444 339.332 250.724C339.332 250.04 339.836 249.524 340.676 249.428V250.976V252.044ZM341.576 256.184V254.636V253.316C342.62 253.556 343.124 254.024 343.124 254.768C343.124 255.548 342.56 256.088 341.576 256.184ZM347.739 257.168C349.239 257.168 350.103 256.46 350.103 255.344C350.103 253.988 348.699 253.628 348.099 253.508L347.415 253.376C346.563 253.208 346.371 252.968 346.371 252.572C346.371 252.14 346.755 251.732 347.583 251.732C348.591 251.732 348.927 252.368 349.071 252.764L349.995 252.428C349.755 251.648 349.059 250.892 347.583 250.892C346.419 250.892 345.411 251.612 345.411 252.68C345.411 253.808 346.275 254.18 347.259 254.372L347.943 254.504C348.807 254.672 349.083 254.984 349.083 255.428C349.083 255.992 348.603 256.292 347.739 256.292C346.803 256.292 346.323 255.848 346.143 255.14L345.159 255.464C345.423 256.604 346.527 257.168 347.739 257.168ZM351.629 259.34H352.649V257.24V256.076C352.937 256.58 353.489 257.168 354.533 257.168C355.901 257.168 356.945 255.98 356.945 254.024C356.945 252.068 355.901 250.892 354.533 250.892C353.489 250.892 352.913 251.468 352.625 251.972V251.06H351.629V259.34ZM354.269 256.268C353.297 256.268 352.589 255.512 352.589 254.012C352.589 252.512 353.297 251.792 354.269 251.792C355.217 251.792 355.901 252.356 355.901 254.012C355.901 255.668 355.217 256.268 354.269 256.268ZM360.056 257.168C360.98 257.168 361.544 256.772 361.988 256.1C362.06 256.592 362.192 257 363.092 257H363.872V256.1H363.248C362.972 256.1 362.9 256.028 362.9 255.752V252.932C362.9 251.708 362.168 250.892 360.584 250.892C359.036 250.892 358.22 251.732 358.004 252.524L359 252.884C359.156 252.44 359.48 251.792 360.572 251.792C361.484 251.792 361.88 252.224 361.88 252.944V253.112C359.948 253.268 358.136 253.832 358.136 255.464C358.136 256.52 358.88 257.168 360.056 257.168ZM360.296 256.304C359.552 256.304 359.192 255.944 359.192 255.38C359.192 254.408 360.428 254.036 361.88 253.88V254.54C361.88 255.776 361.076 256.304 360.296 256.304ZM367.329 257.168C368.661 257.168 369.525 256.388 369.909 255.284L368.949 254.948C368.757 255.596 368.313 256.268 367.329 256.268C366.345 256.268 365.577 255.548 365.577 254.024C365.577 252.536 366.369 251.792 367.317 251.792C368.181 251.792 368.613 252.356 368.805 252.92L369.753 252.608C369.477 251.684 368.661 250.892 367.317 250.892C365.673 250.892 364.509 252.188 364.509 254.024C364.509 255.944 365.613 257.168 367.329 257.168ZM371.234 249.896H372.314V248.6H371.234V249.896ZM371.27 257H372.29V251.06H371.27V257ZM374.305 257H375.325V254.48C375.325 253.604 375.361 251.792 376.993 251.792C377.785 251.792 378.301 252.248 378.301 253.364V257H379.321V253.124C379.321 251.804 378.721 250.892 377.245 250.892C375.961 250.892 375.385 251.804 375.301 252.068V251.06H374.305V257ZM382.214 259.34H384.986C385.994 259.34 386.846 258.812 386.846 257.708C386.846 256.712 386.102 256.064 384.962 256.064H382.37C381.95 256.064 381.866 255.848 381.866 255.656C381.866 255.44 382.082 255.212 382.406 255.068C382.73 255.26 383.102 255.296 383.51 255.296C384.83 255.296 385.73 254.42 385.826 253.076L385.85 252.752C385.898 252.056 386.102 251.924 386.642 251.924H387.098V251.06H386.462C385.886 251.06 385.61 251.456 385.49 251.912C385.238 251.492 384.614 250.892 383.51 250.892C382.142 250.892 381.146 251.864 381.146 253.1C381.146 253.844 381.47 254.384 381.806 254.684C381.422 254.96 380.93 255.356 380.93 255.944C380.93 256.412 381.122 256.688 381.458 256.892C381.098 257.096 380.666 257.54 380.666 258.14C380.666 258.836 381.074 259.34 382.214 259.34ZM383.51 254.456C382.706 254.456 382.178 253.916 382.178 253.1C382.178 252.284 382.706 251.732 383.51 251.732C384.314 251.732 384.842 252.284 384.842 253.1C384.842 253.916 384.314 254.456 383.51 254.456ZM382.562 258.428C381.938 258.428 381.602 258.296 381.602 257.804C381.602 257.396 381.866 257.132 382.07 257H384.878C385.346 257 385.814 257.096 385.814 257.708C385.814 258.32 385.346 258.428 384.878 258.428H382.562ZM387.965 253.832H391.277V252.752H387.965V253.832ZM395.117 257.168C396.617 257.168 397.481 256.46 397.481 255.344C397.481 253.988 396.077 253.628 395.477 253.508L394.793 253.376C393.941 253.208 393.749 252.968 393.749 252.572C393.749 252.14 394.133 251.732 394.961 251.732C395.969 251.732 396.305 252.368 396.449 252.764L397.373 252.428C397.133 251.648 396.437 250.892 394.961 250.892C393.797 250.892 392.789 251.612 392.789 252.68C392.789 253.808 393.653 254.18 394.637 254.372L395.321 254.504C396.185 254.672 396.461 254.984 396.461 255.428C396.461 255.992 395.981 256.292 395.117 256.292C394.181 256.292 393.701 255.848 393.521 255.14L392.537 255.464C392.801 256.604 393.905 257.168 395.117 257.168Z" fill="#2D8C9E"/>
<rect opacity="0.2" x="398" y="150" width="24" height="48" fill="#2D8C9E"/>
<circle cx="382" cy="174" r="14" fill="#1662DD" stroke="#1662DD" stroke-width="4"/>
<circle cx="382" cy="174" r="4" fill="white" stroke="white" stroke-width="4"/>
<path d="M432.752 183.392C436.896 183.392 438.716 180.9 439.388 179.444V183H441.88V173.424H432.388V175.804H439.248C439.108 178.324 436.896 181.012 433.004 181.012C428.972 181.012 426.2 178.156 426.2 173.144C426.2 168.048 429.7 165.444 433.116 165.444C436.476 165.444 438.324 167.292 439.304 169.952L441.936 168.888C440.928 165.948 438.1 163.008 433.2 163.008C427.936 163.008 423.484 167.124 423.484 173.172C423.484 179.388 426.956 183.392 432.752 183.392ZM446.118 183H448.498V163.4H446.118V183ZM456.784 183.392C458.94 183.392 460.256 182.468 461.292 180.9C461.46 182.048 461.768 183 463.868 183H465.688V180.9H464.232C463.588 180.9 463.42 180.732 463.42 180.088V173.508C463.42 170.652 461.712 168.748 458.016 168.748C454.404 168.748 452.5 170.708 451.996 172.556L454.32 173.396C454.684 172.36 455.44 170.848 457.988 170.848C460.116 170.848 461.04 171.856 461.04 173.536V173.928C456.532 174.292 452.304 175.608 452.304 179.416C452.304 181.88 454.04 183.392 456.784 183.392ZM457.344 181.376C455.608 181.376 454.768 180.536 454.768 179.22C454.768 176.952 457.652 176.084 461.04 175.72V177.26C461.04 180.144 459.164 181.376 457.344 181.376ZM467.091 183H478.543V180.9H473.139H469.975L478.179 170.932V169.14H467.315V171.24H472.019H475.015L467.091 180.9V183ZM487.037 183.392C489.641 183.392 491.965 182.216 493.001 179.388L490.817 178.632C490.453 179.528 489.473 181.32 487.121 181.32C485.189 181.32 483.257 180.2 483.117 176.7H492.889C493.421 172.164 490.929 168.748 486.897 168.748C483.369 168.748 480.765 171.576 480.765 176.14C480.765 180.844 483.257 183.392 487.037 183.392ZM483.173 174.712C483.369 172.192 485.077 170.708 486.897 170.708C488.801 170.708 490.453 172.08 490.453 174.712H483.173ZM501.296 183.392C503.732 183.392 505.076 182.048 505.748 180.872V183H508.072V163.4H505.692V168.58V171.296C505.02 170.12 503.732 168.748 501.296 168.748C498.104 168.748 495.668 171.52 495.668 176.084C495.668 180.648 498.104 183.392 501.296 183.392ZM501.912 181.292C499.7 181.292 498.104 179.976 498.104 176.112C498.104 172.248 499.7 170.848 501.912 170.848C504.18 170.848 505.832 172.612 505.832 176.112C505.832 179.612 504.18 181.292 501.912 181.292ZM524.62 183.392C527.056 183.392 528.4 182.048 529.072 180.872V183H531.396V163.4H529.016V168.58V171.296C528.344 170.12 527.056 168.748 524.62 168.748C521.428 168.748 518.992 171.52 518.992 176.084C518.992 180.648 521.428 183.392 524.62 183.392ZM525.236 181.292C523.024 181.292 521.428 179.976 521.428 176.112C521.428 172.248 523.024 170.848 525.236 170.848C527.504 170.848 529.156 172.612 529.156 176.112C529.156 179.612 527.504 181.292 525.236 181.292ZM541.454 183.392C545.094 183.392 547.894 180.256 547.894 176.084C547.894 171.912 545.206 168.748 541.454 168.748C537.702 168.748 535.014 171.912 535.014 176.084C535.014 180.256 537.814 183.392 541.454 183.392ZM541.454 181.292C539.102 181.292 537.478 179.612 537.478 176.112C537.478 172.612 539.102 170.848 541.454 170.848C543.806 170.848 545.43 172.612 545.43 176.112C545.43 179.612 543.806 181.292 541.454 181.292ZM551.5 183H553.88V177.12C553.88 175.076 553.964 170.848 557.772 170.848C559.62 170.848 560.824 171.912 560.824 174.516V183H563.204V173.956C563.204 170.876 561.804 168.748 558.36 168.748C555.364 168.748 554.02 170.876 553.824 171.492V169.14H551.5V183ZM572.139 183.392C575.023 183.392 576.339 181.348 576.759 180.592V183H579.083V169.14H576.703V175.02C576.703 177.148 576.647 181.292 572.895 181.292C571.075 181.292 569.899 180.228 569.899 177.624V169.14H567.519V178.184C567.519 181.264 568.891 183.392 572.139 183.392ZM588.609 183H591.801V180.9H588.917C587.937 180.9 587.517 180.48 587.517 179.5V171.156H591.297V169.14H587.517V164.8H585.137V169.14H581.917V171.156H585.137V179.64C585.137 181.936 586.313 183 588.609 183Z" fill="#1D1D21"/>
</svg>
