<svg width="958" height="346" viewBox="0 0 958 346" fill="none" xmlns="http://www.w3.org/2000/svg">
<rect width="958" height="346" rx="8" fill="white"/>
<rect width="956" height="72" transform="translate(1 137)" fill="#A7B5EC"/>
<path fill-rule="evenodd" clip-rule="evenodd" d="M144 188C135.716 188 129 181.284 129 173C129 164.716 135.716 158 144 158C152.284 158 159 164.716 159 173C159 181.284 152.284 188 144 188ZM145.5 167C145.5 167.828 144.828 168.5 144 168.5C143.172 168.5 142.5 167.828 142.5 167C142.5 166.172 143.172 165.5 144 165.5C144.828 165.5 145.5 166.172 145.5 167ZM144 170C144.828 170 145.5 170.672 145.5 171.5V179C145.5 179.828 144.828 180.5 144 180.5C143.172 180.5 142.5 179.828 142.5 179V171.5C142.5 170.672 143.172 170 144 170Z" fill="#1D1D21"/>
<path d="M175.655 179.5H177.995V173.74V169.024L181.811 179.5H183.755L187.589 169.024V173.74V179.5H189.929V166.9H186.221L183.809 173.488C183.197 175.162 182.999 175.684 182.855 176.044C182.711 175.72 182.495 175.162 181.901 173.488L179.489 166.9H175.655V179.5ZM192.696 169.114H195.036V166.882H192.696V169.114ZM192.786 179.5H194.964V170.536H192.786V179.5ZM200.915 179.752C203.417 179.752 204.875 178.618 204.875 176.872C204.875 175.036 203.219 174.352 201.797 174.082L200.645 173.848C199.565 173.65 199.277 173.362 199.277 172.858C199.277 172.318 199.763 171.85 200.753 171.85C201.869 171.85 202.463 172.534 202.715 173.218L204.569 172.426C204.191 171.418 203.075 170.266 200.825 170.266C198.665 170.266 197.189 171.382 197.189 173.056C197.189 174.802 198.341 175.396 200.087 175.738L201.275 175.972C202.337 176.188 202.607 176.584 202.607 177.088C202.607 177.718 202.049 178.132 201.005 178.132C199.385 178.132 198.953 177.034 198.845 176.53L196.811 177.178C197.207 178.816 198.899 179.752 200.915 179.752ZM210.143 179.752C212.645 179.752 214.103 178.618 214.103 176.872C214.103 175.036 212.447 174.352 211.025 174.082L209.873 173.848C208.793 173.65 208.505 173.362 208.505 172.858C208.505 172.318 208.991 171.85 209.981 171.85C211.097 171.85 211.691 172.534 211.943 173.218L213.797 172.426C213.419 171.418 212.303 170.266 210.053 170.266C207.893 170.266 206.417 171.382 206.417 173.056C206.417 174.802 207.569 175.396 209.315 175.738L210.503 175.972C211.565 176.188 211.835 176.584 211.835 177.088C211.835 177.718 211.277 178.132 210.233 178.132C208.613 178.132 208.181 177.034 208.073 176.53L206.039 177.178C206.435 178.816 208.127 179.752 210.143 179.752ZM215.97 169.114H218.31V166.882H215.97V169.114ZM216.06 179.5H218.238V170.536H216.06V179.5ZM224.764 179.77C227.374 179.77 229.282 177.862 229.282 175.018C229.282 172.21 227.392 170.266 224.764 170.266C222.136 170.266 220.246 172.21 220.246 175.018C220.246 177.754 222.154 179.77 224.764 179.77ZM224.764 177.988C223.432 177.988 222.514 177.052 222.514 175.054C222.514 173.056 223.432 172.048 224.764 172.048C226.096 172.048 226.996 173.056 226.996 175.054C226.996 177.052 226.096 177.988 224.764 177.988ZM231.317 179.5H233.513V175.414C233.513 174.316 233.549 172.102 235.565 172.102C236.555 172.102 237.185 172.678 237.185 174.028V179.5H239.381V173.542C239.381 171.58 238.499 170.266 236.357 170.266C234.611 170.266 233.747 171.436 233.459 171.958V170.536H231.317V179.5ZM249.083 179.77C250.847 179.77 251.675 178.618 252.035 178.024V179.5H254.213V170.536H252.017V174.748C252.017 176.188 251.693 177.934 249.983 177.934C249.029 177.934 248.435 177.376 248.435 175.99V170.536H246.239V176.512C246.239 178.474 247.229 179.77 249.083 179.77ZM256.876 183.01H259.072V179.86V178.222C259.486 178.924 260.422 179.77 261.952 179.77C264.238 179.77 265.768 177.88 265.768 175.018C265.768 172.138 264.238 170.248 261.952 170.248C260.404 170.248 259.432 171.148 259.018 171.796V170.536H256.876V183.01ZM261.232 178.042C259.9 178.042 258.964 177.034 258.964 175C258.964 172.984 259.9 171.976 261.232 171.976C262.51 171.976 263.482 172.768 263.482 175C263.482 177.25 262.51 178.042 261.232 178.042ZM271.031 179.77C272.579 179.77 273.551 178.906 273.965 178.24V179.5H276.107V166.9H273.911V170.176V171.796C273.497 171.13 272.561 170.266 271.031 170.266C268.763 170.266 267.233 172.138 267.233 175.018C267.233 177.898 268.763 179.77 271.031 179.77ZM271.751 178.042C270.473 178.042 269.519 177.268 269.519 175.018C269.519 172.786 270.473 171.994 271.751 171.994C273.083 171.994 274.019 173.002 274.019 175.018C274.019 177.052 273.083 178.042 271.751 178.042ZM281.1 179.77C282.612 179.77 283.566 179.014 284.106 178.168C284.214 178.96 284.61 179.5 285.744 179.5H287.436V177.772H286.59C286.122 177.772 286.05 177.664 286.05 177.232V173.614C286.05 171.418 284.7 170.266 282.234 170.266C279.714 170.266 278.31 171.58 278.094 172.912L280.128 173.434C280.344 172.642 280.902 171.94 282.234 171.94C283.386 171.94 283.89 172.462 283.89 173.344V173.65C280.92 173.92 278.238 174.694 278.238 177.196C278.238 178.78 279.426 179.77 281.1 179.77ZM281.82 178.114C280.92 178.114 280.47 177.664 280.47 176.98C280.47 175.702 282.036 175.306 283.89 175.09V175.81C283.89 177.412 282.882 178.114 281.82 178.114ZM291.896 179.5H294.56V177.7H292.652C292.076 177.7 291.824 177.448 291.824 176.872V172.246H294.2V170.536H291.824V167.71H289.628V170.536H287.684V172.246H289.628V177.214C289.628 178.636 290.438 179.5 291.896 179.5ZM299.96 179.77C302.318 179.77 303.578 178.546 304.154 177.16L302.174 176.422C301.85 177.178 301.256 178.042 299.978 178.042C298.826 178.042 297.854 177.376 297.764 175.558H304.1C304.388 172.588 302.786 170.266 299.924 170.266C297.44 170.266 295.586 172.156 295.586 175.018C295.586 178.006 297.314 179.77 299.96 179.77ZM297.836 173.938C297.998 172.642 298.844 171.904 299.924 171.904C301.058 171.904 301.85 172.624 301.922 173.938H297.836ZM306.92 175.198H307.928L308.63 170.158V166.9H306.236V170.14L306.92 175.198ZM306.092 179.5H308.774V176.872H306.092V179.5Z" fill="#1D1D21"/>
<path d="M326.736 179.5H328.356V168.43H333.018V166.9H322.254V168.43H326.736V179.5ZM334.713 179.5H336.243V175.72C336.243 174.406 336.297 171.688 338.745 171.688C339.933 171.688 340.707 172.372 340.707 174.046V179.5H342.237V173.686C342.237 171.706 341.265 170.338 339.231 170.338C337.125 170.338 336.369 171.706 336.243 172.102V170.23V166.9H334.713V179.5ZM348.503 179.752C350.177 179.752 351.671 178.996 352.337 177.178L350.933 176.692C350.699 177.268 350.069 178.42 348.557 178.42C347.315 178.42 346.073 177.7 345.983 175.45H352.265C352.607 172.534 351.005 170.338 348.413 170.338C346.145 170.338 344.471 172.156 344.471 175.09C344.471 178.114 346.073 179.752 348.503 179.752ZM346.019 174.172C346.145 172.552 347.243 171.598 348.413 171.598C349.637 171.598 350.699 172.48 350.699 174.172H346.019ZM359.375 179.5H360.905V175.36C360.905 174.082 361.013 171.706 363.191 171.706C364.379 171.706 365.171 172.318 365.171 174.046V179.5H366.665V175.36C366.665 174.082 366.719 171.706 368.969 171.706C370.157 171.706 370.931 172.318 370.931 174.046V179.5H372.461V173.596C372.461 171.526 371.381 170.338 369.347 170.338C367.457 170.338 366.665 171.508 366.359 172.246C365.909 171.04 364.865 170.338 363.551 170.338C361.949 170.338 361.193 171.364 360.869 171.94V170.59H359.375V179.5ZM375.3 168.844H376.92V166.9H375.3V168.844ZM375.354 179.5H376.884V170.59H375.354V179.5ZM382.913 179.752C385.163 179.752 386.459 178.69 386.459 177.016C386.459 174.982 384.353 174.442 383.453 174.262L382.427 174.064C381.149 173.812 380.861 173.452 380.861 172.858C380.861 172.21 381.437 171.598 382.679 171.598C384.191 171.598 384.695 172.552 384.911 173.146L386.297 172.642C385.937 171.472 384.893 170.338 382.679 170.338C380.933 170.338 379.421 171.418 379.421 173.02C379.421 174.712 380.717 175.27 382.193 175.558L383.219 175.756C384.515 176.008 384.929 176.476 384.929 177.142C384.929 177.988 384.209 178.438 382.913 178.438C381.509 178.438 380.789 177.772 380.519 176.71L379.043 177.196C379.439 178.906 381.095 179.752 382.913 179.752ZM391.754 179.752C394.004 179.752 395.3 178.69 395.3 177.016C395.3 174.982 393.194 174.442 392.294 174.262L391.268 174.064C389.99 173.812 389.702 173.452 389.702 172.858C389.702 172.21 390.278 171.598 391.52 171.598C393.032 171.598 393.536 172.552 393.752 173.146L395.138 172.642C394.778 171.472 393.734 170.338 391.52 170.338C389.774 170.338 388.262 171.418 388.262 173.02C388.262 174.712 389.558 175.27 391.034 175.558L392.06 175.756C393.356 176.008 393.77 176.476 393.77 177.142C393.77 177.988 393.05 178.438 391.754 178.438C390.35 178.438 389.63 177.772 389.36 176.71L387.884 177.196C388.28 178.906 389.936 179.752 391.754 179.752ZM397.536 168.844H399.156V166.9H397.536V168.844ZM397.59 179.5H399.12V170.59H397.59V179.5ZM405.581 179.752C407.921 179.752 409.721 177.736 409.721 175.054C409.721 172.372 407.993 170.338 405.581 170.338C403.169 170.338 401.441 172.372 401.441 175.054C401.441 177.736 403.241 179.752 405.581 179.752ZM405.581 178.402C404.069 178.402 403.025 177.322 403.025 175.072C403.025 172.822 404.069 171.688 405.581 171.688C407.093 171.688 408.137 172.822 408.137 175.072C408.137 177.322 407.093 178.402 405.581 178.402ZM412.039 179.5H413.569V175.72C413.569 174.406 413.623 171.688 416.071 171.688C417.259 171.688 418.033 172.372 418.033 174.046V179.5H419.563V173.686C419.563 171.706 418.663 170.338 416.449 170.338C414.523 170.338 413.659 171.706 413.533 172.102V170.59H412.039V179.5ZM429.901 179.5H431.953V178.15H430.099C429.469 178.15 429.199 177.88 429.199 177.25V171.886H431.629V170.59H429.199V167.8H427.669V170.59H425.599V171.886H427.669V177.34C427.669 178.816 428.425 179.5 429.901 179.5ZM437.239 179.752C439.579 179.752 441.379 177.736 441.379 175.054C441.379 172.372 439.651 170.338 437.239 170.338C434.827 170.338 433.099 172.372 433.099 175.054C433.099 177.736 434.899 179.752 437.239 179.752ZM437.239 178.402C435.727 178.402 434.683 177.322 434.683 175.072C434.683 172.822 435.727 171.688 437.239 171.688C438.751 171.688 439.795 172.822 439.795 175.072C439.795 177.322 438.751 178.402 437.239 178.402ZM452.496 179.752C455.412 179.752 457.014 178.186 457.014 175.99C457.014 174.082 455.574 172.912 453.558 172.444L451.794 172.03C450.372 171.688 449.724 171.184 449.724 170.104C449.724 168.97 450.66 168.16 452.208 168.16C454.26 168.16 454.998 169.528 455.268 170.302L456.816 169.546C456.456 168.376 455.088 166.648 452.406 166.648C449.85 166.648 448.122 168.142 448.122 170.194C448.122 172.3 449.418 173.218 451.29 173.65L452.982 174.046C454.548 174.406 455.322 175.036 455.322 176.134C455.322 177.394 454.332 178.24 452.604 178.24C450.624 178.24 449.58 177.034 449.076 175.558L447.492 176.332C448.104 178.294 449.814 179.752 452.496 179.752ZM462.382 179.752C463.948 179.752 464.812 178.888 465.244 178.132V179.5H466.738V170.59H465.208V171.976C464.776 171.22 463.948 170.338 462.382 170.338C460.33 170.338 458.764 172.12 458.764 175.054C458.764 177.988 460.33 179.752 462.382 179.752ZM462.778 178.402C461.356 178.402 460.33 177.556 460.33 175.072C460.33 172.588 461.356 171.688 462.778 171.688C464.236 171.688 465.298 172.822 465.298 175.072C465.298 177.322 464.236 178.402 462.778 178.402ZM471.206 183.01H475.364C476.876 183.01 478.154 182.218 478.154 180.562C478.154 179.068 477.038 178.096 475.328 178.096H471.44C470.81 178.096 470.684 177.772 470.684 177.484C470.684 177.16 471.008 176.818 471.494 176.602C471.98 176.89 472.538 176.944 473.15 176.944C475.13 176.944 476.48 175.63 476.624 173.614L476.66 173.128C476.732 172.084 477.038 171.886 477.848 171.886H478.532V170.59H477.578C476.714 170.59 476.3 171.184 476.12 171.868C475.742 171.238 474.806 170.338 473.15 170.338C471.098 170.338 469.604 171.796 469.604 173.65C469.604 174.766 470.09 175.576 470.594 176.026C470.018 176.44 469.28 177.034 469.28 177.916C469.28 178.618 469.568 179.032 470.072 179.338C469.532 179.644 468.884 180.31 468.884 181.21C468.884 182.254 469.496 183.01 471.206 183.01ZM473.15 175.684C471.944 175.684 471.152 174.874 471.152 173.65C471.152 172.426 471.944 171.598 473.15 171.598C474.356 171.598 475.148 172.426 475.148 173.65C475.148 174.874 474.356 175.684 473.15 175.684ZM471.728 181.642C470.792 181.642 470.288 181.444 470.288 180.706C470.288 180.094 470.684 179.698 470.99 179.5H475.202C475.904 179.5 476.606 179.644 476.606 180.562C476.606 181.48 475.904 181.642 475.202 181.642H471.728ZM480.276 168.844H481.896V166.9H480.276V168.844ZM480.33 179.5H481.86V170.59H480.33V179.5ZM487.979 179.5H490.031V178.15H488.177C487.547 178.15 487.277 177.88 487.277 177.25V171.886H489.707V170.59H487.277V167.8H485.747V170.59H483.677V171.886H485.747V177.34C485.747 178.816 486.503 179.5 487.979 179.5ZM494.831 179.752C496.397 179.752 497.261 178.888 497.693 178.132V179.5H499.187V170.59H497.657V171.976C497.225 171.22 496.397 170.338 494.831 170.338C492.779 170.338 491.213 172.12 491.213 175.054C491.213 177.988 492.779 179.752 494.831 179.752ZM495.227 178.402C493.805 178.402 492.779 177.556 492.779 175.072C492.779 172.588 493.805 171.688 495.227 171.688C496.685 171.688 497.747 172.822 497.747 175.072C497.747 177.322 496.685 178.402 495.227 178.402ZM502.215 179.5H503.745V175.414C503.745 173.326 504.573 172.048 506.589 172.048C506.949 172.048 507.255 172.084 507.543 172.138V170.572C507.327 170.518 507.057 170.464 506.625 170.464C504.933 170.464 504.015 171.778 503.727 172.444V170.59H502.215V179.5ZM509.298 168.844H510.918V166.9H509.298V168.844ZM509.352 179.5H510.882V170.59H509.352V179.5ZM516.749 179.752C518.603 179.752 519.449 178.438 519.719 177.952V179.5H521.213V170.59H519.683V174.37C519.683 175.738 519.647 178.402 517.235 178.402C516.065 178.402 515.309 177.718 515.309 176.044V170.59H513.779V176.404C513.779 178.384 514.661 179.752 516.749 179.752ZM527.247 179.752C529.497 179.752 530.793 178.69 530.793 177.016C530.793 174.982 528.687 174.442 527.787 174.262L526.761 174.064C525.483 173.812 525.195 173.452 525.195 172.858C525.195 172.21 525.771 171.598 527.013 171.598C528.525 171.598 529.029 172.552 529.245 173.146L530.631 172.642C530.271 171.472 529.227 170.338 527.013 170.338C525.267 170.338 523.755 171.418 523.755 173.02C523.755 174.712 525.051 175.27 526.527 175.558L527.553 175.756C528.849 176.008 529.263 176.476 529.263 177.142C529.263 177.988 528.543 178.438 527.247 178.438C525.843 178.438 525.123 177.772 524.853 176.71L523.377 177.196C523.773 178.906 525.429 179.752 527.247 179.752ZM545.887 179.5H547.705L543.097 166.9H540.811L536.095 179.5H537.841L539.065 176.098H544.681L545.887 179.5ZM539.623 174.568L540.901 171.004L541.891 168.25C542.089 168.79 542.377 169.582 542.881 171.004L544.141 174.568H539.623ZM553.789 179.5H555.319V175.72C555.319 174.406 555.373 171.688 557.821 171.688C559.009 171.688 559.783 172.372 559.783 174.046V179.5H561.313V173.686C561.313 171.706 560.341 170.338 558.307 170.338C556.201 170.338 555.445 171.706 555.319 172.102V170.23V166.9H553.789V179.5ZM567.165 179.752C568.731 179.752 569.595 178.888 570.027 178.132V179.5H571.521V170.59H569.991V171.976C569.559 171.22 568.731 170.338 567.165 170.338C565.113 170.338 563.547 172.12 563.547 175.054C563.547 177.988 565.113 179.752 567.165 179.752ZM567.561 178.402C566.139 178.402 565.113 177.556 565.113 175.072C565.113 172.588 566.139 171.688 567.561 171.688C569.019 171.688 570.081 172.822 570.081 175.072C570.081 177.322 569.019 178.402 567.561 178.402ZM577.555 179.752C579.805 179.752 581.101 178.69 581.101 177.016C581.101 174.982 578.995 174.442 578.095 174.262L577.069 174.064C575.791 173.812 575.503 173.452 575.503 172.858C575.503 172.21 576.079 171.598 577.321 171.598C578.833 171.598 579.337 172.552 579.553 173.146L580.939 172.642C580.579 171.472 579.535 170.338 577.321 170.338C575.575 170.338 574.063 171.418 574.063 173.02C574.063 174.712 575.359 175.27 576.835 175.558L577.861 175.756C579.157 176.008 579.571 176.476 579.571 177.142C579.571 177.988 578.851 178.438 577.555 178.438C576.151 178.438 575.431 177.772 575.161 176.71L573.685 177.196C574.081 178.906 575.737 179.752 577.555 179.752ZM592.405 179.752C594.457 179.752 596.023 177.97 596.023 175.036C596.023 172.102 594.457 170.338 592.405 170.338C590.839 170.338 590.011 171.202 589.579 171.958V170.23V166.9H588.049V179.5H589.543V178.114C589.975 178.87 590.839 179.752 592.405 179.752ZM592.009 178.402C590.551 178.402 589.489 177.268 589.489 175.018C589.489 172.768 590.551 171.688 592.009 171.688C593.431 171.688 594.457 172.534 594.457 175.018C594.457 177.502 593.431 178.402 592.009 178.402ZM601.751 179.752C603.425 179.752 604.919 178.996 605.585 177.178L604.181 176.692C603.947 177.268 603.317 178.42 601.805 178.42C600.563 178.42 599.321 177.7 599.231 175.45H605.513C605.855 172.534 604.253 170.338 601.661 170.338C599.393 170.338 597.719 172.156 597.719 175.09C597.719 178.114 599.321 179.752 601.751 179.752ZM599.267 174.172C599.393 172.552 600.491 171.598 601.661 171.598C602.885 171.598 603.947 172.48 603.947 174.172H599.267ZM611.331 179.752C613.005 179.752 614.499 178.996 615.165 177.178L613.761 176.692C613.527 177.268 612.897 178.42 611.385 178.42C610.143 178.42 608.901 177.7 608.811 175.45H615.093C615.435 172.534 613.833 170.338 611.241 170.338C608.973 170.338 607.299 172.156 607.299 175.09C607.299 178.114 608.901 179.752 611.331 179.752ZM608.847 174.172C608.973 172.552 610.071 171.598 611.241 171.598C612.465 171.598 613.527 172.48 613.527 174.172H608.847ZM617.545 179.5H619.075V175.72C619.075 174.406 619.129 171.688 621.577 171.688C622.765 171.688 623.539 172.372 623.539 174.046V179.5H625.069V173.686C625.069 171.706 624.169 170.338 621.955 170.338C620.029 170.338 619.165 171.706 619.039 172.102V170.59H617.545V179.5ZM635.633 179.752C637.883 179.752 639.179 178.69 639.179 177.016C639.179 174.982 637.073 174.442 636.173 174.262L635.147 174.064C633.869 173.812 633.581 173.452 633.581 172.858C633.581 172.21 634.157 171.598 635.399 171.598C636.911 171.598 637.415 172.552 637.631 173.146L639.017 172.642C638.657 171.472 637.613 170.338 635.399 170.338C633.653 170.338 632.141 171.418 632.141 173.02C632.141 174.712 633.437 175.27 634.913 175.558L635.939 175.756C637.235 176.008 637.649 176.476 637.649 177.142C637.649 177.988 636.929 178.438 635.633 178.438C634.229 178.438 633.509 177.772 633.239 176.71L631.763 177.196C632.159 178.906 633.815 179.752 635.633 179.752ZM644.835 179.752C646.509 179.752 648.003 178.996 648.669 177.178L647.265 176.692C647.031 177.268 646.401 178.42 644.889 178.42C643.647 178.42 642.405 177.7 642.315 175.45H648.597C648.939 172.534 647.337 170.338 644.745 170.338C642.477 170.338 640.803 172.156 640.803 175.09C640.803 178.114 642.405 179.752 644.835 179.752ZM642.351 174.172C642.477 172.552 643.575 171.598 644.745 171.598C645.969 171.598 647.031 172.48 647.031 174.172H642.351ZM654.057 179.5H656.109V178.15H654.255C653.625 178.15 653.355 177.88 653.355 177.25V171.886H655.785V170.59H653.355V167.8H651.825V170.59H649.755V171.886H651.825V177.34C651.825 178.816 652.581 179.5 654.057 179.5ZM663.232 179.5H664.762V171.886H667.102V170.59H664.762V169.15C664.762 168.52 665.032 168.25 665.662 168.25H667.426V166.9H665.482C664.006 166.9 663.232 167.602 663.232 169.258V170.59H661.252V171.886H663.232V179.5ZM672.241 179.752C674.581 179.752 676.381 177.736 676.381 175.054C676.381 172.372 674.653 170.338 672.241 170.338C669.829 170.338 668.101 172.372 668.101 175.054C668.101 177.736 669.901 179.752 672.241 179.752ZM672.241 178.402C670.729 178.402 669.685 177.322 669.685 175.072C669.685 172.822 670.729 171.688 672.241 171.688C673.753 171.688 674.797 172.822 674.797 175.072C674.797 177.322 673.753 178.402 672.241 178.402ZM678.7 179.5H680.23V175.414C680.23 173.326 681.058 172.048 683.074 172.048C683.434 172.048 683.74 172.084 684.028 172.138V170.572C683.812 170.518 683.542 170.464 683.11 170.464C681.418 170.464 680.5 171.778 680.212 172.444V170.59H678.7V179.5ZM691.691 179.752C694.013 179.752 695.129 178.402 695.129 175.558V166.9H693.509V175.432C693.509 177.34 692.951 178.276 691.691 178.276C690.431 178.276 689.909 177.322 689.909 175.378L688.235 175.792C688.271 178.276 689.495 179.752 691.691 179.752ZM701.181 179.752C702.747 179.752 703.611 178.888 704.043 178.132V179.5H705.537V170.59H704.007V171.976C703.575 171.22 702.747 170.338 701.181 170.338C699.129 170.338 697.563 172.12 697.563 175.054C697.563 177.988 699.129 179.752 701.181 179.752ZM701.577 178.402C700.155 178.402 699.129 177.556 699.129 175.072C699.129 172.588 700.155 171.688 701.577 171.688C703.035 171.688 704.097 172.822 704.097 175.072C704.097 177.322 703.035 178.402 701.577 178.402ZM708.565 179.5H710.095V175.72C710.095 174.406 710.149 171.688 712.597 171.688C713.785 171.688 714.559 172.372 714.559 174.046V179.5H716.089V173.686C716.089 171.706 715.189 170.338 712.975 170.338C711.049 170.338 710.185 171.706 710.059 172.102V170.59H708.565V179.5ZM721.833 179.752C723.687 179.752 724.533 178.438 724.803 177.952V179.5H726.297V170.59H724.767V174.37C724.767 175.738 724.731 178.402 722.319 178.402C721.149 178.402 720.393 177.718 720.393 176.044V170.59H718.863V176.404C718.863 178.384 719.745 179.752 721.833 179.752ZM732.277 179.752C733.843 179.752 734.707 178.888 735.139 178.132V179.5H736.633V170.59H735.103V171.976C734.671 171.22 733.843 170.338 732.277 170.338C730.225 170.338 728.659 172.12 728.659 175.054C728.659 177.988 730.225 179.752 732.277 179.752ZM732.673 178.402C731.251 178.402 730.225 177.556 730.225 175.072C730.225 172.588 731.251 171.688 732.673 171.688C734.131 171.688 735.193 172.822 735.193 175.072C735.193 177.322 734.131 178.402 732.673 178.402ZM739.66 179.5H741.19V175.414C741.19 173.326 742.018 172.048 744.034 172.048C744.394 172.048 744.7 172.084 744.988 172.138V170.572C744.772 170.518 744.502 170.464 744.07 170.464C742.378 170.464 741.46 171.778 741.172 172.444V170.59H739.66V179.5ZM752.179 170.59L750.559 175.468C750.199 176.548 750.091 176.872 749.929 177.394C749.749 176.926 749.605 176.566 749.047 175.216L747.139 170.59H745.411L749.263 179.392L748.759 180.814C748.525 181.48 748.129 181.606 747.535 181.606H745.843V183.01H747.535C749.101 183.01 749.749 182.488 750.343 180.724L753.799 170.59H752.179ZM760.985 179.5H762.839C762.839 175.288 763.595 172.048 767.555 168.682V166.9H759.095V168.43H763.379H766.079C762.785 171.148 760.985 174.874 760.985 179.5Z" fill="#1D1D21"/>
<path d="M796.59 179.5H799.02L803.088 166.9H801.306L798.606 175.522L797.814 178.024L797.04 175.504L794.376 166.9H792.576L796.59 179.5ZM804.937 168.844H806.557V166.9H804.937V168.844ZM804.991 179.5H806.521V170.59H804.991V179.5ZM812.909 179.752C814.583 179.752 816.077 178.996 816.743 177.178L815.339 176.692C815.105 177.268 814.475 178.42 812.963 178.42C811.721 178.42 810.479 177.7 810.389 175.45H816.671C817.013 172.534 815.411 170.338 812.819 170.338C810.551 170.338 808.877 172.156 808.877 175.09C808.877 178.114 810.479 179.752 812.909 179.752ZM810.425 174.172C810.551 172.552 811.649 171.598 812.819 171.598C814.043 171.598 815.105 172.48 815.105 174.172H810.425ZM820.995 179.5H822.723L824.127 175.108C824.667 173.416 824.847 172.858 825.027 172.318L825.909 175.108L827.277 179.5H829.059L832.083 170.59H830.463L829.059 175.036C828.537 176.674 828.303 177.394 828.159 177.808L827.457 175.522L825.927 170.59H824.163L822.777 175.036L821.913 177.808C821.769 177.322 821.589 176.746 821.049 175.036L819.663 170.59H818.061L820.995 179.5Z" fill="#1D1D21"/>
<path d="M792 181.3H832.479V182.2H792V181.3Z" fill="#1D1D21"/>
<path d="M921.655 172.564C921.163 173.056 921.163 173.853 921.655 174.345C922.147 174.837 922.944 174.837 923.436 174.345L927 170.782L930.564 174.345C931.056 174.837 931.853 174.837 932.345 174.345C932.837 173.853 932.837 173.056 932.345 172.564L928.782 169L932.345 165.436C932.837 164.944 932.837 164.147 932.345 163.655C931.853 163.163 931.056 163.163 930.564 163.655L927 167.218L923.436 163.655C922.944 163.163 922.147 163.163 921.655 163.655C921.163 164.147 921.163 164.944 921.655 165.436L925.218 169L921.655 172.564Z" fill="#1D1D21"/>
<path d="M925 82C925 81.4477 925.448 81 926 81C926.552 81 927 81.4477 927 82L925 82ZM926.707 152.207C926.317 152.598 925.683 152.598 925.293 152.207L918.929 145.843C918.538 145.453 918.538 144.819 918.929 144.429C919.319 144.038 919.953 144.038 920.343 144.429L926 150.086L931.657 144.429C932.047 144.038 932.681 144.038 933.071 144.429C933.462 144.819 933.462 145.453 933.071 145.843L926.707 152.207ZM927 82L927 151.5L925 151.5L925 82L927 82Z" fill="#DA372C"/>
<path d="M858.086 93H861.846C865.222 93 867.254 90.888 867.254 87.368C867.254 84.04 865.158 81.8 861.958 81.8H858.086V93ZM859.526 91.64V83.16H861.702C864.422 83.16 865.734 84.84 865.734 87.368C865.734 90.168 864.39 91.64 861.59 91.64H859.526ZM869.421 83.528H870.861V81.8H869.421V83.528ZM869.469 93H870.829V85.08H869.469V93ZM876.188 93.224C878.188 93.224 879.34 92.28 879.34 90.792C879.34 88.984 877.468 88.504 876.668 88.344L875.756 88.168C874.62 87.944 874.364 87.624 874.364 87.096C874.364 86.52 874.876 85.976 875.98 85.976C877.324 85.976 877.772 86.824 877.964 87.352L879.196 86.904C878.876 85.864 877.948 84.856 875.98 84.856C874.428 84.856 873.084 85.816 873.084 87.24C873.084 88.744 874.236 89.24 875.548 89.496L876.46 89.672C877.612 89.896 877.98 90.312 877.98 90.904C877.98 91.656 877.34 92.056 876.188 92.056C874.94 92.056 874.3 91.464 874.06 90.52L872.748 90.952C873.1 92.472 874.572 93.224 876.188 93.224ZM881.375 93H882.735V89.32C882.735 88.184 882.831 86.072 884.767 86.072C885.823 86.072 886.527 86.616 886.527 88.152V93H887.855V89.32C887.855 88.184 887.903 86.072 889.903 86.072C890.959 86.072 891.647 86.616 891.647 88.152V93H893.007V87.752C893.007 85.912 892.047 84.856 890.239 84.856C888.559 84.856 887.855 85.896 887.583 86.552C887.183 85.48 886.255 84.856 885.087 84.856C883.663 84.856 882.991 85.768 882.703 86.28V85.08H881.375V93ZM895.53 83.528H896.97V81.8H895.53V83.528ZM895.578 93H896.938V85.08H895.578V93ZM902.297 93.224C904.297 93.224 905.449 92.28 905.449 90.792C905.449 88.984 903.577 88.504 902.777 88.344L901.865 88.168C900.729 87.944 900.473 87.624 900.473 87.096C900.473 86.52 900.985 85.976 902.089 85.976C903.433 85.976 903.881 86.824 904.073 87.352L905.305 86.904C904.985 85.864 904.057 84.856 902.089 84.856C900.537 84.856 899.193 85.816 899.193 87.24C899.193 88.744 900.345 89.24 901.657 89.496L902.569 89.672C903.721 89.896 904.089 90.312 904.089 90.904C904.089 91.656 903.449 92.056 902.297 92.056C901.049 92.056 900.409 91.464 900.169 90.52L898.857 90.952C899.209 92.472 900.681 93.224 902.297 93.224ZM910.157 93.224C912.157 93.224 913.309 92.28 913.309 90.792C913.309 88.984 911.437 88.504 910.637 88.344L909.725 88.168C908.589 87.944 908.333 87.624 908.333 87.096C908.333 86.52 908.845 85.976 909.949 85.976C911.293 85.976 911.741 86.824 911.933 87.352L913.165 86.904C912.845 85.864 911.917 84.856 909.949 84.856C908.397 84.856 907.053 85.816 907.053 87.24C907.053 88.744 908.205 89.24 909.517 89.496L910.429 89.672C911.581 89.896 911.949 90.312 911.949 90.904C911.949 91.656 911.309 92.056 910.157 92.056C908.909 92.056 908.269 91.464 908.029 90.52L906.717 90.952C907.069 92.472 908.541 93.224 910.157 93.224Z" fill="#6E6E78"/>
<path d="M808 82C808 81.4477 808.448 81 809 81C809.552 81 810 81.4477 810 82L808 82ZM809.707 152.207C809.317 152.598 808.683 152.598 808.293 152.207L801.929 145.843C801.538 145.453 801.538 144.819 801.929 144.429C802.319 144.038 802.953 144.038 803.343 144.429L809 150.086L814.657 144.429C815.047 144.038 815.681 144.038 816.071 144.429C816.462 144.819 816.462 145.453 816.071 145.843L809.707 152.207ZM810 82L810 151.5L808 151.5L808 82L810 82Z" fill="#DA372C"/>
<path d="M727.82 93H729.436L725.34 81.8H723.308L719.116 93H720.668L721.756 89.976H726.748L727.82 93ZM722.252 88.616L723.388 85.448L724.268 83C724.444 83.48 724.7 84.184 725.148 85.448L726.268 88.616H722.252ZM734.168 93.224C735.944 93.224 737.096 92.184 737.608 90.712L736.328 90.264C736.072 91.128 735.48 92.024 734.168 92.024C732.856 92.024 731.832 91.064 731.832 89.032C731.832 87.048 732.888 86.056 734.152 86.056C735.304 86.056 735.88 86.808 736.136 87.56L737.4 87.144C737.032 85.912 735.944 84.856 734.152 84.856C731.96 84.856 730.408 86.584 730.408 89.032C730.408 91.592 731.88 93.224 734.168 93.224ZM742.174 93H743.998V91.8H742.35C741.79 91.8 741.55 91.56 741.55 91V86.232H743.71V85.08H741.55V82.6H740.19V85.08H738.35V86.232H740.19V91.08C740.19 92.392 740.862 93 742.174 93ZM745.671 83.528H747.111V81.8H745.671V83.528ZM745.719 93H747.079V85.08H745.719V93ZM752.822 93.224C754.902 93.224 756.502 91.432 756.502 89.048C756.502 86.664 754.966 84.856 752.822 84.856C750.678 84.856 749.142 86.664 749.142 89.048C749.142 91.432 750.742 93.224 752.822 93.224ZM752.822 92.024C751.478 92.024 750.55 91.064 750.55 89.064C750.55 87.064 751.478 86.056 752.822 86.056C754.166 86.056 755.094 87.064 755.094 89.064C755.094 91.064 754.166 92.024 752.822 92.024ZM758.563 93H759.923V89.64C759.923 88.472 759.971 86.056 762.147 86.056C763.203 86.056 763.891 86.664 763.891 88.152V93H765.251V87.832C765.251 86.072 764.451 84.856 762.483 84.856C760.771 84.856 760.003 86.072 759.891 86.424V85.08H758.563V93ZM771.969 93H773.329V81.8H771.969V93ZM775.968 83.528H777.408V81.8H775.968V83.528ZM776.016 93H777.376V85.08H776.016V93ZM780.063 93H781.423V89.64C781.423 88.472 781.471 86.056 783.647 86.056C784.703 86.056 785.391 86.664 785.391 88.152V93H786.751V87.832C786.751 86.072 785.951 84.856 783.983 84.856C782.271 84.856 781.503 86.072 781.391 86.424V85.08H780.063V93ZM795.2 93H796.944L793.136 88.392L796.704 85.08H794.896L790.688 89.16V86.568V81.8H789.328V93H790.688V90.664L792.192 89.288L795.2 93Z" fill="#6E6E78"/>
<path d="M624 82C624 81.4477 624.448 81 625 81C625.552 81 626 81.4477 626 82L624 82ZM625.707 152.207C625.317 152.598 624.683 152.598 624.293 152.207L617.929 145.843C617.538 145.453 617.538 144.819 617.929 144.429C618.319 144.038 618.953 144.038 619.343 144.429L625 150.086L630.657 144.429C631.047 144.038 631.681 144.038 632.071 144.429C632.462 144.819 632.462 145.453 632.071 145.843L625.707 152.207ZM626 82L626 151.5L624 151.5L624 82L626 82Z" fill="#DA372C"/>
<path d="M516.367 93H517.807V86.936V83.352L521.775 93H522.719L526.623 83.352V86.936V93H528.063V81.8H525.759L523.119 88.392C522.575 89.752 522.383 90.2 522.271 90.456C522.159 90.2 521.983 89.768 521.423 88.392L518.719 81.8H516.367V93ZM533.562 93.224C534.954 93.224 535.722 92.456 536.106 91.784V93H537.434V85.08H536.074V86.312C535.69 85.64 534.954 84.856 533.562 84.856C531.738 84.856 530.346 86.44 530.346 89.048C530.346 91.656 531.738 93.224 533.562 93.224ZM533.914 92.024C532.65 92.024 531.738 91.272 531.738 89.064C531.738 86.856 532.65 86.056 533.914 86.056C535.21 86.056 536.154 87.064 536.154 89.064C536.154 91.064 535.21 92.024 533.914 92.024ZM540.077 83.528H541.517V81.8H540.077V83.528ZM540.125 93H541.485V85.08H540.125V93ZM544.172 93H545.532V89.64C545.532 88.472 545.58 86.056 547.756 86.056C548.812 86.056 549.5 86.664 549.5 88.152V93H550.86V87.832C550.86 86.072 550.06 84.856 548.092 84.856C546.38 84.856 545.612 86.072 545.5 86.424V85.08H544.172V93ZM560.73 93.224C562.506 93.224 563.658 92.184 564.17 90.712L562.89 90.264C562.634 91.128 562.042 92.024 560.73 92.024C559.418 92.024 558.394 91.064 558.394 89.032C558.394 87.048 559.45 86.056 560.714 86.056C561.866 86.056 562.442 86.808 562.698 87.56L563.962 87.144C563.594 85.912 562.506 84.856 560.714 84.856C558.522 84.856 556.97 86.584 556.97 89.032C556.97 91.592 558.442 93.224 560.73 93.224ZM569.041 93.224C571.121 93.224 572.721 91.432 572.721 89.048C572.721 86.664 571.185 84.856 569.041 84.856C566.897 84.856 565.361 86.664 565.361 89.048C565.361 91.432 566.961 93.224 569.041 93.224ZM569.041 92.024C567.697 92.024 566.769 91.064 566.769 89.064C566.769 87.064 567.697 86.056 569.041 86.056C570.385 86.056 571.313 87.064 571.313 89.064C571.313 91.064 570.385 92.024 569.041 92.024ZM574.782 93H576.142V89.64C576.142 88.472 576.19 86.056 578.366 86.056C579.422 86.056 580.11 86.664 580.11 88.152V93H581.47V87.832C581.47 86.072 580.67 84.856 578.702 84.856C576.99 84.856 576.222 86.072 576.11 86.424V85.08H574.782V93ZM586.799 93H588.623V91.8H586.975C586.415 91.8 586.175 91.56 586.175 91V86.232H588.335V85.08H586.175V82.6H584.815V85.08H582.975V86.232H584.815V91.08C584.815 92.392 585.487 93 586.799 93ZM593.258 93.224C594.746 93.224 596.074 92.552 596.666 90.936L595.418 90.504C595.21 91.016 594.65 92.04 593.306 92.04C592.202 92.04 591.098 91.4 591.018 89.4H596.602C596.906 86.808 595.482 84.856 593.178 84.856C591.162 84.856 589.674 86.472 589.674 89.08C589.674 91.768 591.098 93.224 593.258 93.224ZM591.05 88.264C591.162 86.824 592.138 85.976 593.178 85.976C594.266 85.976 595.21 86.76 595.21 88.264H591.05ZM598.782 93H600.142V89.64C600.142 88.472 600.19 86.056 602.366 86.056C603.422 86.056 604.11 86.664 604.11 88.152V93H605.47V87.832C605.47 86.072 604.67 84.856 602.702 84.856C600.99 84.856 600.222 86.072 600.11 86.424V85.08H598.782V93ZM610.799 93H612.623V91.8H610.975C610.415 91.8 610.175 91.56 610.175 91V86.232H612.335V85.08H610.175V82.6H608.815V85.08H606.975V86.232H608.815V91.08C608.815 92.392 609.487 93 610.799 93Z" fill="#6E6E78"/>
<path d="M245 82C245 81.4477 245.448 81 246 81C246.552 81 247 81.4477 247 82L245 82ZM246.707 152.207C246.317 152.598 245.683 152.598 245.293 152.207L238.929 145.843C238.538 145.453 238.538 144.819 238.929 144.429C239.319 144.038 239.953 144.038 240.343 144.429L246 150.086L251.657 144.429C252.047 144.038 252.681 144.038 253.071 144.429C253.462 144.819 253.462 145.453 253.071 145.843L246.707 152.207ZM247 82L247 151.5L245 151.5L245 82L247 82Z" fill="#DA372C"/>
<path d="M262.144 93H263.584V83.16H267.728V81.8H258.16V83.16H262.144V93ZM269.187 83.528H270.627V81.8H269.187V83.528ZM269.235 93H270.595V85.08H269.235V93ZM276.034 93H277.858V91.8H276.21C275.65 91.8 275.41 91.56 275.41 91V86.232H277.57V85.08H275.41V82.6H274.049V85.08H272.21V86.232H274.049V91.08C274.049 92.392 274.722 93 276.034 93ZM279.578 93H280.938V81.8H279.578V93ZM286.617 93.224C288.105 93.224 289.433 92.552 290.025 90.936L288.777 90.504C288.569 91.016 288.009 92.04 286.665 92.04C285.561 92.04 284.457 91.4 284.377 89.4H289.961C290.265 86.808 288.841 84.856 286.537 84.856C284.521 84.856 283.033 86.472 283.033 89.08C283.033 91.768 284.457 93.224 286.617 93.224ZM284.409 88.264C284.521 86.824 285.497 85.976 286.537 85.976C287.625 85.976 288.569 86.76 288.569 88.264H284.409Z" fill="#6E6E78"/>
<path d="M143 82C143 81.4477 143.448 81 144 81C144.552 81 145 81.4477 145 82L143 82ZM144.707 152.207C144.317 152.598 143.683 152.598 143.293 152.207L136.929 145.843C136.538 145.453 136.538 144.819 136.929 144.429C137.319 144.038 137.953 144.038 138.343 144.429L144 150.086L149.657 144.429C150.047 144.038 150.681 144.038 151.071 144.429C151.462 144.819 151.462 145.453 151.071 145.843L144.707 152.207ZM145 82L145 151.5L143 151.5L143 82L145 82Z" fill="#DA372C"/>
<path d="M158.57 93H160.01V81.8H158.57V93ZM166.027 93.224C167.803 93.224 168.955 92.184 169.467 90.712L168.187 90.264C167.931 91.128 167.339 92.024 166.027 92.024C164.715 92.024 163.691 91.064 163.691 89.032C163.691 87.048 164.747 86.056 166.011 86.056C167.163 86.056 167.739 86.808 167.995 87.56L169.259 87.144C168.891 85.912 167.803 84.856 166.011 84.856C163.819 84.856 162.267 86.584 162.267 89.032C162.267 91.592 163.739 93.224 166.027 93.224ZM174.338 93.224C176.418 93.224 178.017 91.432 178.017 89.048C178.017 86.664 176.482 84.856 174.338 84.856C172.194 84.856 170.658 86.664 170.658 89.048C170.658 91.432 172.258 93.224 174.338 93.224ZM174.338 92.024C172.994 92.024 172.066 91.064 172.066 89.064C172.066 87.064 172.994 86.056 174.338 86.056C175.682 86.056 176.61 87.064 176.61 89.064C176.61 91.064 175.682 92.024 174.338 92.024ZM180.078 93H181.438V89.64C181.438 88.472 181.486 86.056 183.662 86.056C184.718 86.056 185.406 86.664 185.406 88.152V93H186.766V87.832C186.766 86.072 185.966 84.856 183.998 84.856C182.286 84.856 181.518 86.072 181.406 86.424V85.08H180.078V93Z" fill="#6E6E78"/>
<path d="M206.975 227.68H208.175V226.208C210.447 226.032 211.695 224.72 211.695 222.896C211.695 221.2 210.431 220.24 208.655 219.792L208.175 219.664V215.952C209.471 216.208 209.983 217.2 210.191 217.792L211.519 217.136C211.231 216.192 210.191 214.832 208.175 214.608V213.12H206.975V214.608C205.071 214.832 203.807 216.064 203.807 217.712C203.807 219.568 204.959 220.384 206.607 220.736L206.975 220.816V224.848C205.727 224.576 204.975 223.664 204.607 222.544L203.247 223.2C203.743 224.768 205.007 225.952 206.975 226.192V227.68ZM206.975 219.392C205.727 219.072 205.183 218.592 205.183 217.632C205.183 216.72 205.855 216.032 206.975 215.904V217.968V219.392ZM208.175 224.912V222.848V221.088C209.567 221.408 210.239 222.032 210.239 223.024C210.239 224.064 209.487 224.784 208.175 224.912ZM216.391 226.224C218.391 226.224 219.543 225.28 219.543 223.792C219.543 221.984 217.671 221.504 216.871 221.344L215.959 221.168C214.823 220.944 214.567 220.624 214.567 220.096C214.567 219.52 215.079 218.976 216.183 218.976C217.527 218.976 217.975 219.824 218.167 220.352L219.399 219.904C219.079 218.864 218.151 217.856 216.183 217.856C214.631 217.856 213.287 218.816 213.287 220.24C213.287 221.744 214.439 222.24 215.751 222.496L216.663 222.672C217.815 222.896 218.183 223.312 218.183 223.904C218.183 224.656 217.543 225.056 216.391 225.056C215.143 225.056 214.503 224.464 214.263 223.52L212.951 223.952C213.303 225.472 214.775 226.224 216.391 226.224ZM221.578 229.12H222.938V226.32V224.768C223.322 225.44 224.058 226.224 225.45 226.224C227.274 226.224 228.666 224.64 228.666 222.032C228.666 219.424 227.274 217.856 225.45 217.856C224.058 217.856 223.29 218.624 222.906 219.296V218.08H221.578V229.12ZM225.098 225.024C223.802 225.024 222.858 224.016 222.858 222.016C222.858 220.016 223.802 219.056 225.098 219.056C226.362 219.056 227.274 219.808 227.274 222.016C227.274 224.224 226.362 225.024 225.098 225.024ZM233.39 226.224C234.782 226.224 235.55 225.456 235.934 224.784V226H237.262V218.08H235.902V219.312C235.518 218.64 234.782 217.856 233.39 217.856C231.566 217.856 230.174 219.44 230.174 222.048C230.174 224.656 231.566 226.224 233.39 226.224ZM233.742 225.024C232.478 225.024 231.566 224.272 231.566 222.064C231.566 219.856 232.478 219.056 233.742 219.056C235.038 219.056 235.982 220.064 235.982 222.064C235.982 224.064 235.038 225.024 233.742 225.024ZM243.105 226.224C244.881 226.224 246.033 225.184 246.545 223.712L245.265 223.264C245.009 224.128 244.417 225.024 243.105 225.024C241.793 225.024 240.769 224.064 240.769 222.032C240.769 220.048 241.825 219.056 243.089 219.056C244.241 219.056 244.817 219.808 245.073 220.56L246.337 220.144C245.969 218.912 244.881 217.856 243.089 217.856C240.897 217.856 239.345 219.584 239.345 222.032C239.345 224.592 240.817 226.224 243.105 226.224ZM248.312 216.528H249.752V214.8H248.312V216.528ZM248.36 226H249.72V218.08H248.36V226ZM252.407 226H253.767V222.64C253.767 221.472 253.815 219.056 255.991 219.056C257.047 219.056 257.735 219.664 257.735 221.152V226H259.095V220.832C259.095 219.072 258.295 217.856 256.327 217.856C254.615 217.856 253.847 219.072 253.735 219.424V218.08H252.407V226ZM262.952 229.12H266.648C267.992 229.12 269.128 228.416 269.128 226.944C269.128 225.616 268.136 224.752 266.616 224.752H263.16C262.6 224.752 262.488 224.464 262.488 224.208C262.488 223.92 262.776 223.616 263.208 223.424C263.64 223.68 264.136 223.728 264.68 223.728C266.44 223.728 267.64 222.56 267.768 220.768L267.8 220.336C267.864 219.408 268.136 219.232 268.856 219.232H269.464V218.08H268.616C267.848 218.08 267.48 218.608 267.32 219.216C266.984 218.656 266.152 217.856 264.68 217.856C262.856 217.856 261.528 219.152 261.528 220.8C261.528 221.792 261.96 222.512 262.408 222.912C261.896 223.28 261.24 223.808 261.24 224.592C261.24 225.216 261.496 225.584 261.944 225.856C261.464 226.128 260.888 226.72 260.888 227.52C260.888 228.448 261.432 229.12 262.952 229.12ZM264.68 222.608C263.608 222.608 262.904 221.888 262.904 220.8C262.904 219.712 263.608 218.976 264.68 218.976C265.752 218.976 266.456 219.712 266.456 220.8C266.456 221.888 265.752 222.608 264.68 222.608ZM263.416 227.904C262.584 227.904 262.136 227.728 262.136 227.072C262.136 226.528 262.488 226.176 262.76 226H266.504C267.128 226 267.752 226.128 267.752 226.944C267.752 227.76 267.128 227.904 266.504 227.904H263.416ZM270.62 221.776H275.036V220.336H270.62V221.776ZM280.157 226.224C282.157 226.224 283.309 225.28 283.309 223.792C283.309 221.984 281.437 221.504 280.637 221.344L279.725 221.168C278.589 220.944 278.333 220.624 278.333 220.096C278.333 219.52 278.845 218.976 279.949 218.976C281.293 218.976 281.741 219.824 281.933 220.352L283.165 219.904C282.845 218.864 281.917 217.856 279.949 217.856C278.397 217.856 277.053 218.816 277.053 220.24C277.053 221.744 278.205 222.24 279.517 222.496L280.429 222.672C281.581 222.896 281.949 223.312 281.949 223.904C281.949 224.656 281.309 225.056 280.157 225.056C278.909 225.056 278.269 224.464 278.029 223.52L276.717 223.952C277.069 225.472 278.541 226.224 280.157 226.224Z" fill="#6E6E78"/>
<path d="M202 200C201.448 200 201 200.448 201 201C201 201.552 201.448 202 202 202L202 200ZM262.707 201.707C263.098 201.317 263.098 200.683 262.707 200.293L256.343 193.929C255.953 193.538 255.319 193.538 254.929 193.929C254.538 194.319 254.538 194.953 254.929 195.343L260.586 201L254.929 206.657C254.538 207.047 254.538 207.681 254.929 208.071C255.319 208.462 255.953 208.462 256.343 208.071L262.707 201.707ZM202 202L262 202L262 200L202 200L202 202Z" fill="#DA372C"/>
</svg>
