<svg width="959" height="306" viewBox="0 0 959 306" fill="none" xmlns="http://www.w3.org/2000/svg">
<rect x="210" y="115" width="540" height="74" rx="7" fill="white"/>
<path d="M241.792 161.392C246.328 161.392 248.82 158.956 248.82 155.54C248.82 152.572 246.58 150.752 243.444 150.024L240.7 149.38C238.488 148.848 237.48 148.064 237.48 146.384C237.48 144.62 238.936 143.36 241.344 143.36C244.536 143.36 245.684 145.488 246.104 146.692L248.512 145.516C247.952 143.696 245.824 141.008 241.652 141.008C237.676 141.008 234.988 143.332 234.988 146.524C234.988 149.8 237.004 151.228 239.916 151.9L242.548 152.516C244.984 153.076 246.188 154.056 246.188 155.764C246.188 157.724 244.648 159.04 241.96 159.04C238.88 159.04 237.256 157.164 236.472 154.868L234.008 156.072C234.96 159.124 237.62 161.392 241.792 161.392ZM256.163 161.392C258.319 161.392 259.635 160.468 260.671 158.9C260.839 160.048 261.147 161 263.247 161H265.067V158.9H263.611C262.967 158.9 262.799 158.732 262.799 158.088V151.508C262.799 148.652 261.091 146.748 257.395 146.748C253.783 146.748 251.879 148.708 251.375 150.556L253.699 151.396C254.063 150.36 254.819 148.848 257.367 148.848C259.495 148.848 260.419 149.856 260.419 151.536V151.928C255.911 152.292 251.683 153.608 251.683 157.416C251.683 159.88 253.419 161.392 256.163 161.392ZM256.723 159.376C254.987 159.376 254.147 158.536 254.147 157.22C254.147 154.952 257.031 154.084 260.419 153.72V155.26C260.419 158.144 258.543 159.376 256.723 159.376ZM267.618 161H269.998V141.4H267.618V161ZM274.7 161H277.08V141.4H274.7V161ZM290.154 147.14L287.634 154.728C287.074 156.408 286.906 156.912 286.654 157.724C286.374 156.996 286.15 156.436 285.282 154.336L282.314 147.14H279.626L285.618 160.832L284.834 163.044C284.47 164.08 283.854 164.276 282.93 164.276H280.298V166.46H282.93C285.366 166.46 286.374 165.648 287.298 162.904L292.674 147.14H290.154Z" fill="#1D1D21"/>
<rect x="210" y="115" width="540" height="74" rx="7" stroke="#C1C1C8" stroke-width="2"/>
<path d="M211.548 87H215.188V79.216H223.98V76.08H215.188V70.508H226.248V67.4H211.548V87ZM228.842 70.844H232.482V67.372H228.842V70.844ZM228.982 87H232.37V73.056H228.982V87ZM236.474 87H239.89V81.12C239.89 77.704 241.15 76.276 244.118 76.276C244.622 76.276 245.126 76.304 245.63 76.388V72.888C245.378 72.832 245.098 72.804 244.706 72.804C241.598 72.804 240.282 75.016 239.834 76.136V73.056H236.474V87ZM253.22 87.392C257.112 87.392 259.38 85.628 259.38 82.912C259.38 80.056 256.804 78.992 254.592 78.572L252.8 78.208C251.12 77.9 250.672 77.452 250.672 76.668C250.672 75.828 251.428 75.1 252.968 75.1C254.704 75.1 255.628 76.164 256.02 77.228L258.904 75.996C258.316 74.428 256.58 72.636 253.08 72.636C249.72 72.636 247.424 74.372 247.424 76.976C247.424 79.692 249.216 80.616 251.932 81.148L253.78 81.512C255.432 81.848 255.852 82.464 255.852 83.248C255.852 84.228 254.984 84.872 253.36 84.872C250.84 84.872 250.168 83.164 250 82.38L246.836 83.388C247.452 85.936 250.084 87.392 253.22 87.392ZM267.133 87H271.277V84.2H268.309C267.413 84.2 267.021 83.808 267.021 82.912V75.716H270.717V73.056H267.021V68.66H263.605V73.056H260.581V75.716H263.605V83.444C263.605 85.656 264.865 87 267.133 87ZM280.826 87H284.242V80.644C284.242 78.936 284.298 75.492 287.434 75.492C288.974 75.492 289.954 76.388 289.954 78.488V87H293.37V77.732C293.37 74.68 291.998 72.636 288.666 72.636C285.95 72.636 284.606 74.456 284.158 75.268V73.056H280.826V87ZM300.981 87.42C303.333 87.42 304.817 86.244 305.657 84.928C305.825 86.16 306.441 87 308.205 87H310.837V84.312H309.521C308.793 84.312 308.681 84.144 308.681 83.472V77.844C308.681 74.428 306.581 72.636 302.745 72.636C298.825 72.636 296.641 74.68 296.305 76.752L299.469 77.564C299.805 76.332 300.673 75.24 302.745 75.24C304.537 75.24 305.321 76.052 305.321 77.424V77.9C300.701 78.32 296.529 79.524 296.529 83.416C296.529 85.88 298.377 87.42 300.981 87.42ZM302.101 84.844C300.701 84.844 300.001 84.144 300.001 83.08C300.001 81.092 302.437 80.476 305.321 80.14V81.26C305.321 83.752 303.753 84.844 302.101 84.844ZM313.064 87H316.48V80.112C316.48 78.488 316.592 75.52 319.42 75.52C320.904 75.52 321.912 76.332 321.912 78.488V87H325.272V80.112C325.272 78.488 325.328 75.52 328.184 75.52C329.696 75.52 330.676 76.332 330.676 78.488V87H334.092V77.704C334.092 74.204 332.188 72.636 329.388 72.636C327.176 72.636 325.72 73.672 324.712 75.268C323.928 73.672 322.528 72.636 320.568 72.636C318.58 72.636 317.152 73.7 316.396 75.1V73.056H313.064V87ZM343.936 87.42C347.604 87.42 349.564 85.516 350.46 83.36L347.38 82.212C346.876 83.388 345.952 84.732 343.964 84.732C342.172 84.732 340.66 83.696 340.52 80.868H350.376C350.824 76.248 348.332 72.636 343.88 72.636C340.016 72.636 337.132 75.576 337.132 80.028C337.132 84.676 339.82 87.42 343.936 87.42ZM340.632 78.348C340.884 76.332 342.2 75.184 343.88 75.184C345.644 75.184 346.876 76.304 346.988 78.348H340.632Z" fill="#1D1D21"/>
<path d="M282.5 266L282.5 266.5L283.5 266.5L283.5 266L282.5 266ZM283.354 168.646C283.158 168.451 282.842 168.451 282.646 168.646L279.464 171.828C279.269 172.024 279.269 172.34 279.464 172.536C279.66 172.731 279.976 172.731 280.172 172.536L283 169.707L285.828 172.536C286.024 172.731 286.34 172.731 286.536 172.536C286.731 172.34 286.731 172.024 286.536 171.828L283.354 168.646ZM283.5 266L283.5 169L282.5 169L282.5 266L283.5 266Z" fill="#E97107"/>
<path d="M296.236 260H297.316V251.6H296.236V260ZM299.559 260H300.579V257.48C300.579 256.604 300.615 254.792 302.247 254.792C303.039 254.792 303.555 255.248 303.555 256.364V260H304.575V256.124C304.575 254.804 303.975 253.892 302.499 253.892C301.215 253.892 300.639 254.804 300.555 255.068V254.06H299.559V260ZM306.508 262.34H307.528V260.24V259.076C307.816 259.58 308.368 260.168 309.412 260.168C310.78 260.168 311.824 258.98 311.824 257.024C311.824 255.068 310.78 253.892 309.412 253.892C308.368 253.892 307.792 254.468 307.504 254.972V254.06H306.508V262.34ZM309.148 259.268C308.176 259.268 307.468 258.512 307.468 257.012C307.468 255.512 308.176 254.792 309.148 254.792C310.096 254.792 310.78 255.356 310.78 257.012C310.78 258.668 310.096 259.268 309.148 259.268ZM315.295 260.168C316.531 260.168 317.095 259.292 317.275 258.968V260H318.271V254.06H317.251V256.58C317.251 257.492 317.227 259.268 315.619 259.268C314.839 259.268 314.335 258.812 314.335 257.696V254.06H313.315V257.936C313.315 259.256 313.903 260.168 315.295 260.168ZM322.353 260H323.721V259.1H322.485C322.065 259.1 321.885 258.92 321.885 258.5V254.924H323.505V254.06H321.885V252.2H320.865V254.06H319.485V254.924H320.865V258.56C320.865 259.544 321.369 260 322.353 260ZM329.97 260H331.338V259.1H330.102C329.682 259.1 329.502 258.92 329.502 258.5V254.924H331.122V254.06H329.502V252.2H328.482V254.06H327.102V254.924H328.482V258.56C328.482 259.544 328.986 260 329.97 260ZM334.815 260.168C335.931 260.168 336.927 259.664 337.371 258.452L336.435 258.128C336.279 258.512 335.859 259.28 334.851 259.28C334.023 259.28 333.195 258.8 333.135 257.3H337.323C337.551 255.356 336.483 253.892 334.755 253.892C333.243 253.892 332.127 255.104 332.127 257.06C332.127 259.076 333.195 260.168 334.815 260.168ZM333.159 256.448C333.243 255.368 333.975 254.732 334.755 254.732C335.571 254.732 336.279 255.32 336.279 256.448H333.159ZM338.119 260H339.235L339.991 258.872L340.747 257.732C340.915 257.996 341.047 258.2 341.491 258.872L342.235 260H343.459L341.395 256.976L343.339 254.06H342.211L341.563 255.08C341.107 255.788 340.963 256.004 340.795 256.244C340.651 256.004 340.519 255.788 340.075 255.08L339.427 254.06H338.239L340.159 256.964L338.119 260ZM346.763 260H348.131V259.1H346.895C346.475 259.1 346.295 258.92 346.295 258.5V254.924H347.915V254.06H346.295V252.2H345.275V254.06H343.895V254.924H345.275V258.56C345.275 259.544 345.779 260 346.763 260Z" fill="#E97107"/>
<path d="M68 180.5L67.5 180.5L67.5 181.5L68 181.5L68 180.5ZM233.354 181.354C233.549 181.158 233.549 180.842 233.354 180.646L230.172 177.464C229.976 177.269 229.66 177.269 229.464 177.464C229.269 177.66 229.269 177.976 229.464 178.172L232.293 181L229.464 183.828C229.269 184.024 229.269 184.34 229.464 184.536C229.66 184.731 229.976 184.731 230.172 184.536L233.354 181.354ZM68 181.5L233 181.5L233 180.5L68 180.5L68 181.5Z" fill="#E97107"/>
<path d="M69.236 163H70.316V154.6H69.236V163ZM72.5588 163H73.5788V160.48C73.5788 159.604 73.6148 157.792 75.2468 157.792C76.0388 157.792 76.5548 158.248 76.5548 159.364V163H77.5748V159.124C77.5748 157.804 76.9748 156.892 75.4988 156.892C74.2148 156.892 73.6388 157.804 73.5548 158.068V157.06H72.5588V163ZM79.508 165.34H80.528V163.24V162.076C80.816 162.58 81.368 163.168 82.412 163.168C83.78 163.168 84.824 161.98 84.824 160.024C84.824 158.068 83.78 156.892 82.412 156.892C81.368 156.892 80.792 157.468 80.504 157.972V157.06H79.508V165.34ZM82.148 162.268C81.176 162.268 80.468 161.512 80.468 160.012C80.468 158.512 81.176 157.792 82.148 157.792C83.096 157.792 83.78 158.356 83.78 160.012C83.78 161.668 83.096 162.268 82.148 162.268ZM88.2946 163.168C89.5306 163.168 90.0946 162.292 90.2746 161.968V163H91.2706V157.06H90.2506V159.58C90.2506 160.492 90.2266 162.268 88.6186 162.268C87.8386 162.268 87.3346 161.812 87.3346 160.696V157.06H86.3146V160.936C86.3146 162.256 86.9026 163.168 88.2946 163.168ZM95.3533 163H96.7213V162.1H95.4853C95.0653 162.1 94.8853 161.92 94.8853 161.5V157.924H96.5053V157.06H94.8853V155.2H93.8652V157.06H92.4853V157.924H93.8652V161.56C93.8652 162.544 94.3693 163 95.3533 163ZM106.33 157.06H102.49V156.1C102.49 155.68 102.67 155.5 103.09 155.5H104.266V154.6H102.97C101.986 154.6 101.47 155.068 101.47 156.172V157.06H100.15V157.924H101.47V163H102.49V157.924H105.31V163H106.33V157.06ZM105.274 154.6V155.896H106.354V154.6H105.274ZM110.592 163.168C111.708 163.168 112.704 162.664 113.148 161.452L112.212 161.128C112.056 161.512 111.636 162.28 110.628 162.28C109.8 162.28 108.972 161.8 108.912 160.3H113.1C113.328 158.356 112.26 156.892 110.532 156.892C109.02 156.892 107.904 158.104 107.904 160.06C107.904 162.076 108.972 163.168 110.592 163.168ZM108.936 159.448C109.02 158.368 109.752 157.732 110.532 157.732C111.348 157.732 112.056 158.32 112.056 159.448H108.936ZM114.735 163H115.755V154.6H114.735V163ZM119.738 163.168C120.782 163.168 121.358 162.592 121.646 162.088V163H122.642V154.6H121.622V156.82V157.984C121.334 157.48 120.782 156.892 119.738 156.892C118.37 156.892 117.326 158.08 117.326 160.036C117.326 161.992 118.37 163.168 119.738 163.168ZM120.002 162.268C119.054 162.268 118.37 161.704 118.37 160.048C118.37 158.392 119.054 157.792 120.002 157.792C120.974 157.792 121.682 158.548 121.682 160.048C121.682 161.548 120.974 162.268 120.002 162.268Z" fill="#E97107"/>
<path d="M70 74.5L69.5 74.5L69.5 75.5L70 75.5L70 74.5ZM201.354 75.3535C201.549 75.1583 201.549 74.8417 201.354 74.6464L198.172 71.4645C197.976 71.2692 197.66 71.2692 197.464 71.4645C197.269 71.6597 197.269 71.9763 197.464 72.1716L200.293 75L197.464 77.8284C197.269 78.0237 197.269 78.3403 197.464 78.5355C197.66 78.7308 197.976 78.7308 198.172 78.5355L201.354 75.3535ZM70 75.5L201 75.5L201 74.5L70 74.5L70 75.5Z" fill="#E97107"/>
<path d="M894 107.5L894.5 107.5L894.5 108.5L894 108.5L894 107.5ZM762.646 108.354C762.451 108.158 762.451 107.842 762.646 107.646L765.828 104.464C766.024 104.269 766.34 104.269 766.536 104.464C766.731 104.66 766.731 104.976 766.536 105.172L763.707 108L766.536 110.828C766.731 111.024 766.731 111.34 766.536 111.536C766.34 111.731 766.024 111.731 765.828 111.536L762.646 108.354ZM894 108.5L763 108.5L763 107.5L894 107.5L894 108.5Z" fill="#E97107"/>
<path d="M71.236 57H72.316V48.6H71.236V57ZM74.5588 57H75.5788V54.48C75.5788 53.604 75.6148 51.792 77.2468 51.792C78.0388 51.792 78.5548 52.248 78.5548 53.364V57H79.5748V53.124C79.5748 51.804 78.9748 50.892 77.4988 50.892C76.2148 50.892 75.6388 51.804 75.5548 52.068V51.06H74.5588V57ZM81.508 59.34H82.528V57.24V56.076C82.816 56.58 83.368 57.168 84.412 57.168C85.78 57.168 86.824 55.98 86.824 54.024C86.824 52.068 85.78 50.892 84.412 50.892C83.368 50.892 82.792 51.468 82.504 51.972V51.06H81.508V59.34ZM84.148 56.268C83.176 56.268 82.468 55.512 82.468 54.012C82.468 52.512 83.176 51.792 84.148 51.792C85.096 51.792 85.78 52.356 85.78 54.012C85.78 55.668 85.096 56.268 84.148 56.268ZM90.2946 57.168C91.5306 57.168 92.0946 56.292 92.2746 55.968V57H93.2706V51.06H92.2506V53.58C92.2506 54.492 92.2266 56.268 90.6186 56.268C89.8386 56.268 89.3346 55.812 89.3346 54.696V51.06H88.3146V54.936C88.3146 56.256 88.9026 57.168 90.2946 57.168ZM97.3533 57H98.7213V56.1H97.4853C97.0653 56.1 96.8853 55.92 96.8853 55.5V51.924H98.5053V51.06H96.8853V49.2H95.8652V51.06H94.4853V51.924H95.8652V55.56C95.8652 56.544 96.3693 57 97.3533 57ZM103.117 57H104.137V48.6H103.117V57ZM107.689 57.168C108.613 57.168 109.177 56.772 109.621 56.1C109.693 56.592 109.825 57 110.725 57H111.505V56.1H110.881C110.605 56.1 110.533 56.028 110.533 55.752V52.932C110.533 51.708 109.801 50.892 108.217 50.892C106.669 50.892 105.853 51.732 105.637 52.524L106.633 52.884C106.789 52.44 107.113 51.792 108.205 51.792C109.117 51.792 109.513 52.224 109.513 52.944V53.112C107.581 53.268 105.769 53.832 105.769 55.464C105.769 56.52 106.513 57.168 107.689 57.168ZM107.929 56.304C107.185 56.304 106.825 55.944 106.825 55.38C106.825 54.408 108.061 54.036 109.513 53.88V54.54C109.513 55.776 108.709 56.304 107.929 56.304ZM115.502 57.168C116.87 57.168 117.914 55.98 117.914 54.024C117.914 52.068 116.87 50.892 115.502 50.892C114.458 50.892 113.906 51.468 113.618 51.972V50.82V48.6H112.598V57H113.594V56.076C113.882 56.58 114.458 57.168 115.502 57.168ZM115.238 56.268C114.266 56.268 113.558 55.512 113.558 54.012C113.558 52.512 114.266 51.792 115.238 51.792C116.186 51.792 116.87 52.356 116.87 54.012C116.87 55.668 116.186 56.268 115.238 56.268ZM121.732 57.168C122.848 57.168 123.844 56.664 124.288 55.452L123.352 55.128C123.196 55.512 122.776 56.28 121.768 56.28C120.94 56.28 120.112 55.8 120.052 54.3H124.24C124.468 52.356 123.4 50.892 121.672 50.892C120.16 50.892 119.044 52.104 119.044 54.06C119.044 56.076 120.112 57.168 121.732 57.168ZM120.076 53.448C120.16 52.368 120.892 51.732 121.672 51.732C122.488 51.732 123.196 52.32 123.196 53.448H120.076ZM125.875 57H126.895V48.6H125.875V57Z" fill="#E97107"/>
<path d="M792.108 90H793.188V82.62H796.296V81.6H789.12V82.62H792.108V90ZM797.39 82.896H798.47V81.6H797.39V82.896ZM797.426 90H798.446V84.06H797.426V90ZM800.461 90H801.481V87.48C801.481 86.604 801.517 84.792 803.149 84.792C803.941 84.792 804.457 85.248 804.457 86.364V90H805.477V86.124C805.477 84.804 804.877 83.892 803.401 83.892C802.117 83.892 801.541 84.804 801.457 85.068V84.06H800.461V90ZM810.998 84.06L809.918 87.312C809.678 88.032 809.606 88.248 809.498 88.596C809.378 88.284 809.282 88.044 808.91 87.144L807.638 84.06H806.486L809.054 89.928L808.718 90.876C808.562 91.32 808.298 91.404 807.902 91.404H806.774V92.34H807.902C808.946 92.34 809.378 91.992 809.774 90.816L812.078 84.06H810.998ZM818.309 90.168C819.809 90.168 820.673 89.46 820.673 88.344C820.673 86.988 819.269 86.628 818.669 86.508L817.985 86.376C817.133 86.208 816.941 85.968 816.941 85.572C816.941 85.14 817.325 84.732 818.153 84.732C819.161 84.732 819.497 85.368 819.641 85.764L820.565 85.428C820.325 84.648 819.629 83.892 818.153 83.892C816.989 83.892 815.981 84.612 815.981 85.68C815.981 86.808 816.845 87.18 817.829 87.372L818.513 87.504C819.377 87.672 819.653 87.984 819.653 88.428C819.653 88.992 819.173 89.292 818.309 89.292C817.373 89.292 816.893 88.848 816.713 88.14L815.729 88.464C815.993 89.604 817.097 90.168 818.309 90.168ZM822.199 92.34H823.219V90.24V89.076C823.507 89.58 824.059 90.168 825.103 90.168C826.471 90.168 827.515 88.98 827.515 87.024C827.515 85.068 826.471 83.892 825.103 83.892C824.059 83.892 823.483 84.468 823.195 84.972V84.06H822.199V92.34ZM824.839 89.268C823.867 89.268 823.159 88.512 823.159 87.012C823.159 85.512 823.867 84.792 824.839 84.792C825.787 84.792 826.471 85.356 826.471 87.012C826.471 88.668 825.787 89.268 824.839 89.268ZM830.626 90.168C831.55 90.168 832.114 89.772 832.558 89.1C832.63 89.592 832.762 90 833.662 90H834.442V89.1H833.818C833.542 89.1 833.47 89.028 833.47 88.752V85.932C833.47 84.708 832.738 83.892 831.154 83.892C829.606 83.892 828.79 84.732 828.574 85.524L829.57 85.884C829.726 85.44 830.05 84.792 831.142 84.792C832.054 84.792 832.45 85.224 832.45 85.944V86.112C830.518 86.268 828.706 86.832 828.706 88.464C828.706 89.52 829.45 90.168 830.626 90.168ZM830.866 89.304C830.122 89.304 829.762 88.944 829.762 88.38C829.762 87.408 830.998 87.036 832.45 86.88V87.54C832.45 88.776 831.646 89.304 830.866 89.304ZM837.899 90.168C839.231 90.168 840.095 89.388 840.479 88.284L839.519 87.948C839.327 88.596 838.883 89.268 837.899 89.268C836.915 89.268 836.147 88.548 836.147 87.024C836.147 85.536 836.939 84.792 837.887 84.792C838.751 84.792 839.183 85.356 839.375 85.92L840.323 85.608C840.047 84.684 839.231 83.892 837.887 83.892C836.243 83.892 835.079 85.188 835.079 87.024C835.079 88.944 836.183 90.168 837.899 90.168ZM841.804 82.896H842.884V81.6H841.804V82.896ZM841.84 90H842.86V84.06H841.84V90ZM844.875 90H845.895V87.48C845.895 86.604 845.931 84.792 847.563 84.792C848.355 84.792 848.871 85.248 848.871 86.364V90H849.891V86.124C849.891 84.804 849.291 83.892 847.815 83.892C846.531 83.892 845.955 84.804 845.871 85.068V84.06H844.875V90ZM852.784 92.34H855.556C856.564 92.34 857.416 91.812 857.416 90.708C857.416 89.712 856.672 89.064 855.532 89.064H852.94C852.52 89.064 852.436 88.848 852.436 88.656C852.436 88.44 852.652 88.212 852.976 88.068C853.3 88.26 853.672 88.296 854.08 88.296C855.4 88.296 856.3 87.42 856.396 86.076L856.42 85.752C856.468 85.056 856.672 84.924 857.212 84.924H857.668V84.06H857.032C856.456 84.06 856.18 84.456 856.06 84.912C855.808 84.492 855.184 83.892 854.08 83.892C852.712 83.892 851.716 84.864 851.716 86.1C851.716 86.844 852.04 87.384 852.376 87.684C851.992 87.96 851.5 88.356 851.5 88.944C851.5 89.412 851.692 89.688 852.028 89.892C851.668 90.096 851.236 90.54 851.236 91.14C851.236 91.836 851.644 92.34 852.784 92.34ZM854.08 87.456C853.276 87.456 852.748 86.916 852.748 86.1C852.748 85.284 853.276 84.732 854.08 84.732C854.884 84.732 855.412 85.284 855.412 86.1C855.412 86.916 854.884 87.456 854.08 87.456ZM853.132 91.428C852.508 91.428 852.172 91.296 852.172 90.804C852.172 90.396 852.436 90.132 852.64 90H855.448C855.916 90 856.384 90.096 856.384 90.708C856.384 91.32 855.916 91.428 855.448 91.428H853.132ZM864.793 90.168C866.713 90.168 867.709 88.8 867.709 87.252C867.709 85.812 866.725 84.576 865.033 84.576C864.001 84.576 863.101 85.152 862.741 86.076C862.729 83.592 864.037 82.488 865.741 82.488C866.293 82.488 866.785 82.596 867.217 82.752V81.672C866.785 81.516 866.137 81.432 865.717 81.432C862.957 81.432 861.661 83.508 861.661 86.088C861.661 88.8 862.957 90.168 864.793 90.168ZM864.805 89.208C863.809 89.208 863.041 88.488 863.041 87.372C863.041 86.256 863.809 85.536 864.805 85.536C865.777 85.536 866.569 86.256 866.569 87.372C866.569 88.488 865.777 89.208 864.805 89.208ZM869.297 92.34H870.317V90.24V89.076C870.605 89.58 871.157 90.168 872.201 90.168C873.569 90.168 874.613 88.98 874.613 87.024C874.613 85.068 873.569 83.892 872.201 83.892C871.157 83.892 870.581 84.468 870.293 84.972V84.06H869.297V92.34ZM871.937 89.268C870.965 89.268 870.257 88.512 870.257 87.012C870.257 85.512 870.965 84.792 871.937 84.792C872.885 84.792 873.569 85.356 873.569 87.012C873.569 88.668 872.885 89.268 871.937 89.268ZM875.326 90H876.442L877.198 88.872L877.954 87.732C878.122 87.996 878.254 88.2 878.698 88.872L879.442 90H880.666L878.602 86.976L880.546 84.06H879.418L878.77 85.08C878.314 85.788 878.17 86.004 878.002 86.244C877.858 86.004 877.726 85.788 877.282 85.08L876.634 84.06H875.446L877.366 86.964L875.326 90Z" fill="#E97107"/>
<rect opacity="0.2" x="209" y="102" width="542" height="12" fill="#E97107"/>
</svg>
