<svg width="959" height="307" viewBox="0 0 959 307" fill="none" xmlns="http://www.w3.org/2000/svg">
<rect x="376" y="115" width="207" height="76" rx="8" fill="#1662DD"/>
<path d="M406.548 162H415.732C419.596 162 422.62 160.096 422.62 156.568C422.62 154.02 420.716 152.2 418.196 151.752C420.38 151.164 421.976 149.568 421.976 147.16C421.976 144.332 419.82 142.4 415.564 142.4H406.548V162ZM410.188 150.324V145.508H415.088C417.048 145.508 418.28 146.208 418.28 147.86C418.28 149.512 417.048 150.324 415.088 150.324H410.188ZM410.188 158.892V153.376H415.2C417.384 153.376 418.812 154.272 418.812 156.12C418.812 157.996 417.384 158.892 415.2 158.892H410.188ZM430.262 162.42C433.006 162.42 434.294 160.628 434.854 159.704V162H438.242V148.056H434.826V154.608C434.826 156.848 434.322 159.564 431.662 159.564C430.178 159.564 429.254 158.696 429.254 156.54V148.056H425.838V157.352C425.838 160.404 427.378 162.42 430.262 162.42ZM451.317 148.056L449.385 154.02L448.153 157.772C447.901 157.184 447.565 156.484 446.557 154.048L443.981 148.056H440.284L446.781 161.888L446.361 163.148C445.941 164.296 445.465 164.632 444.513 164.632H441.209V167.46H444.849C447.285 167.46 448.405 166.48 449.217 164.1L454.901 148.056H451.317ZM468.779 162.42C471.187 162.42 472.699 161.076 473.343 160.04V162H476.675V142.4H473.259V147.496V150.016C472.615 148.98 471.159 147.636 468.779 147.636C465.251 147.636 462.871 150.548 462.871 155.028C462.871 159.508 465.251 162.42 468.779 162.42ZM469.899 159.732C467.911 159.732 466.427 158.528 466.427 155.028C466.427 151.556 467.911 150.324 469.899 150.324C471.971 150.324 473.427 151.892 473.427 155.028C473.427 158.192 471.971 159.732 469.899 159.732ZM486.878 162.42C490.938 162.42 493.906 159.452 493.906 155.028C493.906 150.66 490.966 147.636 486.878 147.636C482.79 147.636 479.85 150.66 479.85 155.028C479.85 159.284 482.818 162.42 486.878 162.42ZM486.878 159.648C484.806 159.648 483.378 158.192 483.378 155.084C483.378 151.976 484.806 150.408 486.878 150.408C488.95 150.408 490.35 151.976 490.35 155.084C490.35 158.192 488.95 159.648 486.878 159.648ZM497.072 162H500.488V155.644C500.488 153.936 500.544 150.492 503.68 150.492C505.22 150.492 506.2 151.388 506.2 153.488V162H509.616V152.732C509.616 149.68 508.244 147.636 504.912 147.636C502.196 147.636 500.852 149.456 500.404 150.268V148.056H497.072V162ZM517.871 162.42C520.615 162.42 521.903 160.628 522.463 159.704V162H525.851V148.056H522.435V154.608C522.435 156.848 521.931 159.564 519.271 159.564C517.787 159.564 516.863 158.696 516.863 156.54V148.056H513.447V157.352C513.447 160.404 514.987 162.42 517.871 162.42ZM534.922 162H539.066V159.2H536.098C535.202 159.2 534.81 158.808 534.81 157.912V150.716H538.506V148.056H534.81V143.66H531.394V148.056H528.37V150.716H531.394V158.444C531.394 160.656 532.654 162 534.922 162ZM546.931 162.392C550.823 162.392 553.091 160.628 553.091 157.912C553.091 155.056 550.515 153.992 548.303 153.572L546.511 153.208C544.831 152.9 544.383 152.452 544.383 151.668C544.383 150.828 545.139 150.1 546.679 150.1C548.415 150.1 549.339 151.164 549.731 152.228L552.615 150.996C552.027 149.428 550.291 147.636 546.791 147.636C543.431 147.636 541.135 149.372 541.135 151.976C541.135 154.692 542.927 155.616 545.643 156.148L547.491 156.512C549.143 156.848 549.563 157.464 549.563 158.248C549.563 159.228 548.695 159.872 547.071 159.872C544.551 159.872 543.879 158.164 543.711 157.38L540.547 158.388C541.163 160.936 543.795 162.392 546.931 162.392Z" fill="white"/>
<path d="M256 176.5L255.5 176.5L255.5 177.5L256 177.5L256 176.5ZM391.354 177.354C391.549 177.158 391.549 176.842 391.354 176.646L388.172 173.464C387.976 173.269 387.66 173.269 387.464 173.464C387.269 173.66 387.269 173.976 387.464 174.172L390.293 177L387.464 179.828C387.269 180.024 387.269 180.34 387.464 180.536C387.66 180.731 387.976 180.731 388.172 180.536L391.354 177.354ZM256 177.5L391 177.5L391 176.5L256 176.5L256 177.5Z" fill="#F47C25"/>
<path d="M257.236 138H261.004C262.456 138 263.716 137.304 263.716 135.684C263.716 134.436 262.732 133.788 261.88 133.62C262.6 133.476 263.44 132.84 263.44 131.676C263.44 130.452 262.6 129.6 260.836 129.6H257.236V138ZM258.316 133.14V130.62H260.74C261.688 130.62 262.3 131.028 262.3 131.82C262.3 132.612 261.688 133.14 260.74 133.14H258.316ZM258.316 136.98V134.148H260.848C261.916 134.148 262.552 134.676 262.552 135.54C262.552 136.404 261.916 136.98 260.848 136.98H258.316ZM267.295 138.168C268.531 138.168 269.095 137.292 269.275 136.968V138H270.271V132.06H269.251V134.58C269.251 135.492 269.227 137.268 267.619 137.268C266.839 137.268 266.335 136.812 266.335 135.696V132.06H265.315V135.936C265.315 137.256 265.903 138.168 267.295 138.168ZM274.353 138H275.721V137.1H274.485C274.065 137.1 273.885 136.92 273.885 136.5V132.924H275.505V132.06H273.885V130.2H272.865V132.06H271.485V132.924H272.865V136.56C272.865 137.544 273.369 138 274.353 138ZM279.076 138H280.444V137.1H279.208C278.788 137.1 278.608 136.92 278.608 136.5V132.924H280.228V132.06H278.608V130.2H277.588V132.06H276.208V132.924H277.588V136.56C277.588 137.544 278.092 138 279.076 138ZM283.968 138.168C285.528 138.168 286.728 136.824 286.728 135.036C286.728 133.248 285.576 131.892 283.968 131.892C282.36 131.892 281.208 133.248 281.208 135.036C281.208 136.824 282.408 138.168 283.968 138.168ZM283.968 137.268C282.96 137.268 282.264 136.548 282.264 135.048C282.264 133.548 282.96 132.792 283.968 132.792C284.976 132.792 285.672 133.548 285.672 135.048C285.672 136.548 284.976 137.268 283.968 137.268ZM288.274 138H289.294V135.48C289.294 134.604 289.33 132.792 290.962 132.792C291.754 132.792 292.27 133.248 292.27 134.364V138H293.29V134.124C293.29 132.804 292.69 131.892 291.214 131.892C289.93 131.892 289.354 132.804 289.27 133.068V132.06H288.274V138ZM259.912 159.168C261.28 159.168 262.324 157.98 262.324 156.024C262.324 154.068 261.28 152.892 259.912 152.892C258.868 152.892 258.316 153.468 258.028 153.972V152.82V150.6H257.008V159H258.004V158.076C258.292 158.58 258.868 159.168 259.912 159.168ZM259.648 158.268C258.676 158.268 257.968 157.512 257.968 156.012C257.968 154.512 258.676 153.792 259.648 153.792C260.596 153.792 261.28 154.356 261.28 156.012C261.28 157.668 260.596 158.268 259.648 158.268ZM265.435 159.168C266.359 159.168 266.923 158.772 267.367 158.1C267.439 158.592 267.571 159 268.471 159H269.251V158.1H268.627C268.351 158.1 268.279 158.028 268.279 157.752V154.932C268.279 153.708 267.547 152.892 265.963 152.892C264.415 152.892 263.599 153.732 263.383 154.524L264.379 154.884C264.535 154.44 264.859 153.792 265.951 153.792C266.863 153.792 267.259 154.224 267.259 154.944V155.112C265.327 155.268 263.515 155.832 263.515 157.464C263.515 158.52 264.259 159.168 265.435 159.168ZM265.675 158.304C264.931 158.304 264.571 157.944 264.571 157.38C264.571 156.408 265.807 156.036 267.259 155.88V156.54C267.259 157.776 266.455 158.304 265.675 158.304ZM272.708 159.168C274.04 159.168 274.904 158.388 275.288 157.284L274.328 156.948C274.136 157.596 273.692 158.268 272.708 158.268C271.724 158.268 270.956 157.548 270.956 156.024C270.956 154.536 271.748 153.792 272.696 153.792C273.56 153.792 273.992 154.356 274.184 154.92L275.132 154.608C274.856 153.684 274.04 152.892 272.696 152.892C271.052 152.892 269.888 154.188 269.888 156.024C269.888 157.944 270.992 159.168 272.708 159.168ZM281.053 159H282.361L279.505 155.544L282.181 153.06H280.825L277.669 156.12V154.176V150.6H276.649V159H277.669V157.248L278.797 156.216L281.053 159ZM284.3 161.34H287.072C288.08 161.34 288.932 160.812 288.932 159.708C288.932 158.712 288.188 158.064 287.048 158.064H284.456C284.036 158.064 283.952 157.848 283.952 157.656C283.952 157.44 284.168 157.212 284.492 157.068C284.816 157.26 285.188 157.296 285.596 157.296C286.916 157.296 287.816 156.42 287.912 155.076L287.936 154.752C287.984 154.056 288.188 153.924 288.728 153.924H289.184V153.06H288.548C287.972 153.06 287.696 153.456 287.576 153.912C287.324 153.492 286.7 152.892 285.596 152.892C284.228 152.892 283.232 153.864 283.232 155.1C283.232 155.844 283.556 156.384 283.892 156.684C283.508 156.96 283.016 157.356 283.016 157.944C283.016 158.412 283.208 158.688 283.544 158.892C283.184 159.096 282.752 159.54 282.752 160.14C282.752 160.836 283.16 161.34 284.3 161.34ZM285.596 156.456C284.792 156.456 284.264 155.916 284.264 155.1C284.264 154.284 284.792 153.732 285.596 153.732C286.4 153.732 286.928 154.284 286.928 155.1C286.928 155.916 286.4 156.456 285.596 156.456ZM284.648 160.428C284.024 160.428 283.688 160.296 283.688 159.804C283.688 159.396 283.952 159.132 284.156 159H286.964C287.432 159 287.9 159.096 287.9 159.708C287.9 160.32 287.432 160.428 286.964 160.428H284.648ZM290.383 159H291.403V156.276C291.403 154.884 291.955 154.032 293.299 154.032C293.539 154.032 293.743 154.056 293.935 154.092V153.048C293.791 153.012 293.611 152.976 293.323 152.976C292.195 152.976 291.583 153.852 291.391 154.296V153.06H290.383V159ZM297.339 159.168C298.899 159.168 300.099 157.824 300.099 156.036C300.099 154.248 298.947 152.892 297.339 152.892C295.731 152.892 294.579 154.248 294.579 156.036C294.579 157.824 295.779 159.168 297.339 159.168ZM297.339 158.268C296.331 158.268 295.635 157.548 295.635 156.048C295.635 154.548 296.331 153.792 297.339 153.792C298.347 153.792 299.043 154.548 299.043 156.048C299.043 157.548 298.347 158.268 297.339 158.268ZM303.541 159.168C304.777 159.168 305.341 158.292 305.521 157.968V159H306.517V153.06H305.497V155.58C305.497 156.492 305.473 158.268 303.865 158.268C303.085 158.268 302.581 157.812 302.581 156.696V153.06H301.561V156.936C301.561 158.256 302.149 159.168 303.541 159.168ZM308.535 159H309.555V156.48C309.555 155.604 309.591 153.792 311.223 153.792C312.015 153.792 312.531 154.248 312.531 155.364V159H313.551V155.124C313.551 153.804 312.951 152.892 311.475 152.892C310.191 152.892 309.615 153.804 309.531 154.068V153.06H308.535V159ZM317.453 159.168C318.497 159.168 319.073 158.592 319.361 158.088V159H320.357V150.6H319.337V152.82V153.984C319.049 153.48 318.497 152.892 317.453 152.892C316.085 152.892 315.041 154.08 315.041 156.036C315.041 157.992 316.085 159.168 317.453 159.168ZM317.717 158.268C316.769 158.268 316.085 157.704 316.085 156.048C316.085 154.392 316.769 153.792 317.717 153.792C318.689 153.792 319.397 154.548 319.397 156.048C319.397 157.548 318.689 158.268 317.717 158.268Z" fill="#F47C25"/>
<path d="M449.129 73L449.129 72.5L448.129 72.5L448.129 73L449.129 73ZM448.275 141.354C448.471 141.549 448.787 141.549 448.982 141.354L452.164 138.172C452.36 137.976 452.36 137.66 452.164 137.464C451.969 137.269 451.653 137.269 451.457 137.464L448.629 140.293L445.8 137.464C445.605 137.269 445.289 137.269 445.093 137.464C444.898 137.66 444.898 137.976 445.093 138.172L448.275 141.354ZM448.129 73L448.129 141L449.129 141L449.129 73L448.129 73Z" fill="#F47C25"/>
<path d="M375.611 88H379.379C380.831 88 382.091 87.304 382.091 85.684C382.091 84.436 381.107 83.788 380.255 83.62C380.975 83.476 381.815 82.84 381.815 81.676C381.815 80.452 380.975 79.6 379.211 79.6H375.611V88ZM376.691 83.14V80.62H379.115C380.063 80.62 380.675 81.028 380.675 81.82C380.675 82.612 380.063 83.14 379.115 83.14H376.691ZM376.691 86.98V84.148H379.223C380.291 84.148 380.927 84.676 380.927 85.54C380.927 86.404 380.291 86.98 379.223 86.98H376.691ZM385.67 88.168C386.906 88.168 387.47 87.292 387.65 86.968V88H388.646V82.06H387.626V84.58C387.626 85.492 387.602 87.268 385.994 87.268C385.214 87.268 384.71 86.812 384.71 85.696V82.06H383.69V85.936C383.69 87.256 384.278 88.168 385.67 88.168ZM392.728 88H394.096V87.1H392.86C392.44 87.1 392.26 86.92 392.26 86.5V82.924H393.88V82.06H392.26V80.2H391.24V82.06H389.86V82.924H391.24V86.56C391.24 87.544 391.744 88 392.728 88ZM397.451 88H398.819V87.1H397.583C397.163 87.1 396.983 86.92 396.983 86.5V82.924H398.603V82.06H396.983V80.2H395.963V82.06H394.583V82.924H395.963V86.56C395.963 87.544 396.467 88 397.451 88ZM402.343 88.168C403.903 88.168 405.103 86.824 405.103 85.036C405.103 83.248 403.951 81.892 402.343 81.892C400.735 81.892 399.583 83.248 399.583 85.036C399.583 86.824 400.783 88.168 402.343 88.168ZM402.343 87.268C401.335 87.268 400.639 86.548 400.639 85.048C400.639 83.548 401.335 82.792 402.343 82.792C403.351 82.792 404.047 83.548 404.047 85.048C404.047 86.548 403.351 87.268 402.343 87.268ZM406.649 88H407.669V85.48C407.669 84.604 407.705 82.792 409.337 82.792C410.129 82.792 410.645 83.248 410.645 84.364V88H411.665V84.124C411.665 82.804 411.065 81.892 409.589 81.892C408.305 81.892 407.729 82.804 407.645 83.068V82.06H406.649V88ZM418.556 88H419.924V87.1H418.688C418.268 87.1 418.088 86.92 418.088 86.5V82.924H419.708V82.06H418.088V80.2H417.068V82.06H415.688V82.924H417.068V86.56C417.068 87.544 417.572 88 418.556 88ZM423.4 88.168C424.516 88.168 425.512 87.664 425.956 86.452L425.02 86.128C424.864 86.512 424.444 87.28 423.436 87.28C422.608 87.28 421.78 86.8 421.72 85.3H425.908C426.136 83.356 425.068 81.892 423.34 81.892C421.828 81.892 420.712 83.104 420.712 85.06C420.712 87.076 421.78 88.168 423.4 88.168ZM421.744 84.448C421.828 83.368 422.56 82.732 423.34 82.732C424.156 82.732 424.864 83.32 424.864 84.448H421.744ZM426.705 88H427.821L428.577 86.872L429.333 85.732C429.501 85.996 429.633 86.2 430.077 86.872L430.821 88H432.045L429.981 84.976L431.925 82.06H430.797L430.149 83.08C429.693 83.788 429.549 84.004 429.381 84.244C429.237 84.004 429.105 83.788 428.661 83.08L428.013 82.06H426.825L428.745 84.964L426.705 88ZM435.349 88H436.717V87.1H435.481C435.061 87.1 434.881 86.92 434.881 86.5V82.924H436.501V82.06H434.881V80.2H433.861V82.06H432.481V82.924H433.861V86.56C433.861 87.544 434.365 88 435.349 88Z" fill="#F47C25"/>
<path d="M546.646 101.646C546.451 101.842 546.451 102.158 546.646 102.354L549.828 105.536C550.024 105.731 550.34 105.731 550.536 105.536C550.731 105.34 550.731 105.024 550.536 104.828L547.707 102L550.536 99.1716C550.731 98.9763 550.731 98.6597 550.536 98.4645C550.34 98.2692 550.024 98.2692 549.828 98.4645L546.646 101.646ZM595 118L595.5 118V118L595 118ZM594.646 150.354C594.842 150.549 595.158 150.549 595.354 150.354L598.536 147.172C598.731 146.976 598.731 146.66 598.536 146.464C598.34 146.269 598.024 146.269 597.828 146.464L595 149.293L592.172 146.464C591.976 146.269 591.66 146.269 591.464 146.464C591.269 146.66 591.269 146.976 591.464 147.172L594.646 150.354ZM579 101.5H547V102.5H579V101.5ZM594.5 118L594.5 150L595.5 150L595.5 118L594.5 118ZM579 102.5C587.56 102.5 594.5 109.44 594.5 118L595.5 118C595.5 108.887 588.113 101.5 579 101.5V102.5Z" fill="#F47C25"/>
<path d="M606.155 117H607.223V114.672H608.447V113.736H607.223V108.6H605.555L602.231 113.628V114.672H606.155V117ZM606.155 113.736H604.919H603.323L606.155 109.452V111.288V113.736ZM609.887 119.34H610.907V117.24V116.076C611.195 116.58 611.747 117.168 612.791 117.168C614.159 117.168 615.203 115.98 615.203 114.024C615.203 112.068 614.159 110.892 612.791 110.892C611.747 110.892 611.171 111.468 610.883 111.972V111.06H609.887V119.34ZM612.527 116.268C611.555 116.268 610.847 115.512 610.847 114.012C610.847 112.512 611.555 111.792 612.527 111.792C613.475 111.792 614.159 112.356 614.159 114.012C614.159 115.668 613.475 116.268 612.527 116.268ZM615.916 117H617.032L617.788 115.872L618.544 114.732C618.712 114.996 618.844 115.2 619.288 115.872L620.032 117H621.256L619.192 113.976L621.136 111.06H620.008L619.36 112.08C618.904 112.788 618.76 113.004 618.592 113.244C618.448 113.004 618.316 112.788 617.872 112.08L617.224 111.06H616.036L617.956 113.964L615.916 117ZM627.966 117.168C629.298 117.168 630.162 116.388 630.546 115.284L629.586 114.948C629.394 115.596 628.95 116.268 627.966 116.268C626.982 116.268 626.214 115.548 626.214 114.024C626.214 112.536 627.006 111.792 627.954 111.792C628.818 111.792 629.25 112.356 629.442 112.92L630.39 112.608C630.114 111.684 629.298 110.892 627.954 110.892C626.31 110.892 625.146 112.188 625.146 114.024C625.146 115.944 626.25 117.168 627.966 117.168ZM634.198 117.168C635.758 117.168 636.958 115.824 636.958 114.036C636.958 112.248 635.806 110.892 634.198 110.892C632.59 110.892 631.438 112.248 631.438 114.036C631.438 115.824 632.638 117.168 634.198 117.168ZM634.198 116.268C633.19 116.268 632.494 115.548 632.494 114.048C632.494 112.548 633.19 111.792 634.198 111.792C635.206 111.792 635.902 112.548 635.902 114.048C635.902 115.548 635.206 116.268 634.198 116.268ZM638.504 117H639.524V114.276C639.524 112.884 640.076 112.032 641.42 112.032C641.66 112.032 641.864 112.056 642.056 112.092V111.048C641.912 111.012 641.732 110.976 641.444 110.976C640.316 110.976 639.704 111.852 639.512 112.296V111.06H638.504V117ZM643.262 117H644.282V114.48C644.282 113.604 644.318 111.792 645.95 111.792C646.742 111.792 647.258 112.248 647.258 113.364V117H648.278V113.124C648.278 111.804 647.678 110.892 646.202 110.892C644.918 110.892 644.342 111.804 644.258 112.068V111.06H643.262V117ZM652.455 117.168C653.571 117.168 654.567 116.664 655.011 115.452L654.075 115.128C653.919 115.512 653.499 116.28 652.491 116.28C651.663 116.28 650.835 115.8 650.775 114.3H654.963C655.191 112.356 654.123 110.892 652.395 110.892C650.883 110.892 649.767 112.104 649.767 114.06C649.767 116.076 650.835 117.168 652.455 117.168ZM650.799 113.448C650.883 112.368 651.615 111.732 652.395 111.732C653.211 111.732 653.919 112.32 653.919 113.448H650.799ZM656.598 117H657.618V114.276C657.618 112.884 658.17 112.032 659.514 112.032C659.754 112.032 659.958 112.056 660.15 112.092V111.048C660.006 111.012 659.826 110.976 659.538 110.976C658.41 110.976 657.798 111.852 657.606 112.296V111.06H656.598V117ZM602.879 138H603.899V135.276C603.899 133.884 604.451 133.032 605.795 133.032C606.035 133.032 606.239 133.056 606.431 133.092V132.048C606.287 132.012 606.107 131.976 605.819 131.976C604.691 131.976 604.079 132.852 603.887 133.296V132.06H602.879V138ZM609.126 138.168C610.05 138.168 610.614 137.772 611.058 137.1C611.13 137.592 611.262 138 612.162 138H612.942V137.1H612.318C612.042 137.1 611.97 137.028 611.97 136.752V133.932C611.97 132.708 611.238 131.892 609.654 131.892C608.106 131.892 607.29 132.732 607.074 133.524L608.07 133.884C608.226 133.44 608.55 132.792 609.642 132.792C610.554 132.792 610.95 133.224 610.95 133.944V134.112C609.018 134.268 607.206 134.832 607.206 136.464C607.206 137.52 607.95 138.168 609.126 138.168ZM609.366 137.304C608.622 137.304 608.262 136.944 608.262 136.38C608.262 135.408 609.498 135.036 610.95 134.88V135.54C610.95 136.776 610.146 137.304 609.366 137.304ZM616.003 138.168C617.047 138.168 617.623 137.592 617.911 137.088V138H618.907V129.6H617.887V131.82V132.984C617.599 132.48 617.047 131.892 616.003 131.892C614.635 131.892 613.591 133.08 613.591 135.036C613.591 136.992 614.635 138.168 616.003 138.168ZM616.267 137.268C615.319 137.268 614.635 136.704 614.635 135.048C614.635 133.392 615.319 132.792 616.267 132.792C617.239 132.792 617.947 133.548 617.947 135.048C617.947 136.548 617.239 137.268 616.267 137.268ZM620.89 130.896H621.97V129.6H620.89V130.896ZM620.926 138H621.946V132.06H620.926V138ZM625.857 138.168C627.093 138.168 627.657 137.292 627.837 136.968V138H628.833V132.06H627.813V134.58C627.813 135.492 627.789 137.268 626.181 137.268C625.401 137.268 624.897 136.812 624.897 135.696V132.06H623.877V135.936C623.877 137.256 624.465 138.168 625.857 138.168ZM632.856 138.168C634.356 138.168 635.22 137.46 635.22 136.344C635.22 134.988 633.816 134.628 633.216 134.508L632.532 134.376C631.68 134.208 631.488 133.968 631.488 133.572C631.488 133.14 631.872 132.732 632.7 132.732C633.708 132.732 634.044 133.368 634.188 133.764L635.112 133.428C634.872 132.648 634.176 131.892 632.7 131.892C631.536 131.892 630.528 132.612 630.528 133.68C630.528 134.808 631.392 135.18 632.376 135.372L633.06 135.504C633.924 135.672 634.2 135.984 634.2 136.428C634.2 136.992 633.72 137.292 632.856 137.292C631.92 137.292 631.44 136.848 631.26 136.14L630.276 136.464C630.54 137.604 631.644 138.168 632.856 138.168Z" fill="#F47C25"/>
<path d="M502.5 234L502.5 234.5L503.5 234.5L503.5 234L502.5 234ZM503.354 180.646C503.158 180.451 502.842 180.451 502.646 180.646L499.464 183.828C499.269 184.024 499.269 184.34 499.464 184.536C499.66 184.731 499.976 184.731 500.172 184.536L503 181.707L505.828 184.536C506.024 184.731 506.34 184.731 506.536 184.536C506.731 184.34 506.731 184.024 506.536 183.828L503.354 180.646ZM503.5 234L503.5 181L502.5 181L502.5 234L503.5 234Z" fill="#F47C25"/>
<path d="M433.676 229.26H434.576V228.156C436.28 228.024 437.216 227.04 437.216 225.672C437.216 224.4 436.268 223.68 434.936 223.344L434.576 223.248V220.464C435.548 220.656 435.932 221.4 436.088 221.844L437.084 221.352C436.868 220.644 436.088 219.624 434.576 219.456V218.34H433.676V219.456C432.248 219.624 431.3 220.548 431.3 221.784C431.3 223.176 432.164 223.788 433.4 224.052L433.676 224.112V227.136C432.74 226.932 432.176 226.248 431.9 225.408L430.88 225.9C431.252 227.076 432.2 227.964 433.676 228.144V229.26ZM433.676 223.044C432.74 222.804 432.332 222.444 432.332 221.724C432.332 221.04 432.836 220.524 433.676 220.428V221.976V223.044ZM434.576 227.184V225.636V224.316C435.62 224.556 436.124 225.024 436.124 225.768C436.124 226.548 435.56 227.088 434.576 227.184ZM440.739 228.168C442.239 228.168 443.103 227.46 443.103 226.344C443.103 224.988 441.699 224.628 441.099 224.508L440.415 224.376C439.563 224.208 439.371 223.968 439.371 223.572C439.371 223.14 439.755 222.732 440.583 222.732C441.591 222.732 441.927 223.368 442.071 223.764L442.995 223.428C442.755 222.648 442.059 221.892 440.583 221.892C439.419 221.892 438.411 222.612 438.411 223.68C438.411 224.808 439.275 225.18 440.259 225.372L440.943 225.504C441.807 225.672 442.083 225.984 442.083 226.428C442.083 226.992 441.603 227.292 440.739 227.292C439.803 227.292 439.323 226.848 439.143 226.14L438.159 226.464C438.423 227.604 439.527 228.168 440.739 228.168ZM444.629 230.34H445.649V228.24V227.076C445.937 227.58 446.489 228.168 447.533 228.168C448.901 228.168 449.945 226.98 449.945 225.024C449.945 223.068 448.901 221.892 447.533 221.892C446.489 221.892 445.913 222.468 445.625 222.972V222.06H444.629V230.34ZM447.269 227.268C446.297 227.268 445.589 226.512 445.589 225.012C445.589 223.512 446.297 222.792 447.269 222.792C448.217 222.792 448.901 223.356 448.901 225.012C448.901 226.668 448.217 227.268 447.269 227.268ZM453.056 228.168C453.98 228.168 454.544 227.772 454.988 227.1C455.06 227.592 455.192 228 456.092 228H456.872V227.1H456.248C455.972 227.1 455.9 227.028 455.9 226.752V223.932C455.9 222.708 455.168 221.892 453.584 221.892C452.036 221.892 451.22 222.732 451.004 223.524L452 223.884C452.156 223.44 452.48 222.792 453.572 222.792C454.484 222.792 454.88 223.224 454.88 223.944V224.112C452.948 224.268 451.136 224.832 451.136 226.464C451.136 227.52 451.88 228.168 453.056 228.168ZM453.296 227.304C452.552 227.304 452.192 226.944 452.192 226.38C452.192 225.408 453.428 225.036 454.88 224.88V225.54C454.88 226.776 454.076 227.304 453.296 227.304ZM460.329 228.168C461.661 228.168 462.525 227.388 462.909 226.284L461.949 225.948C461.757 226.596 461.313 227.268 460.329 227.268C459.345 227.268 458.577 226.548 458.577 225.024C458.577 223.536 459.369 222.792 460.317 222.792C461.181 222.792 461.613 223.356 461.805 223.92L462.753 223.608C462.477 222.684 461.661 221.892 460.317 221.892C458.673 221.892 457.509 223.188 457.509 225.024C457.509 226.944 458.613 228.168 460.329 228.168ZM464.234 220.896H465.314V219.6H464.234V220.896ZM464.27 228H465.29V222.06H464.27V228ZM467.305 228H468.325V225.48C468.325 224.604 468.361 222.792 469.993 222.792C470.785 222.792 471.301 223.248 471.301 224.364V228H472.321V224.124C472.321 222.804 471.721 221.892 470.245 221.892C468.961 221.892 468.385 222.804 468.301 223.068V222.06H467.305V228ZM475.214 230.34H477.986C478.994 230.34 479.846 229.812 479.846 228.708C479.846 227.712 479.102 227.064 477.962 227.064H475.37C474.95 227.064 474.866 226.848 474.866 226.656C474.866 226.44 475.082 226.212 475.406 226.068C475.73 226.26 476.102 226.296 476.51 226.296C477.83 226.296 478.73 225.42 478.826 224.076L478.85 223.752C478.898 223.056 479.102 222.924 479.642 222.924H480.098V222.06H479.462C478.886 222.06 478.61 222.456 478.49 222.912C478.238 222.492 477.614 221.892 476.51 221.892C475.142 221.892 474.146 222.864 474.146 224.1C474.146 224.844 474.47 225.384 474.806 225.684C474.422 225.96 473.93 226.356 473.93 226.944C473.93 227.412 474.122 227.688 474.458 227.892C474.098 228.096 473.666 228.54 473.666 229.14C473.666 229.836 474.074 230.34 475.214 230.34ZM476.51 225.456C475.706 225.456 475.178 224.916 475.178 224.1C475.178 223.284 475.706 222.732 476.51 222.732C477.314 222.732 477.842 223.284 477.842 224.1C477.842 224.916 477.314 225.456 476.51 225.456ZM475.562 229.428C474.938 229.428 474.602 229.296 474.602 228.804C474.602 228.396 474.866 228.132 475.07 228H477.878C478.346 228 478.814 228.096 478.814 228.708C478.814 229.32 478.346 229.428 477.878 229.428H475.562ZM480.965 224.832H484.277V223.752H480.965V224.832ZM488.117 228.168C489.617 228.168 490.481 227.46 490.481 226.344C490.481 224.988 489.077 224.628 488.477 224.508L487.793 224.376C486.941 224.208 486.749 223.968 486.749 223.572C486.749 223.14 487.133 222.732 487.961 222.732C488.969 222.732 489.305 223.368 489.449 223.764L490.373 223.428C490.133 222.648 489.437 221.892 487.961 221.892C486.797 221.892 485.789 222.612 485.789 223.68C485.789 224.808 486.653 225.18 487.637 225.372L488.321 225.504C489.185 225.672 489.461 225.984 489.461 226.428C489.461 226.992 488.981 227.292 488.117 227.292C487.181 227.292 486.701 226.848 486.521 226.14L485.537 226.464C485.801 227.604 486.905 228.168 488.117 228.168Z" fill="#F47C25"/>
</svg>
