<svg width="958" height="347" viewBox="0 0 958 347" fill="none" xmlns="http://www.w3.org/2000/svg">
<path d="M271.912 108H276.072V98.24H286.568V108H290.728V85.6H286.568V94.656H276.072V85.6H271.912V108ZM302.686 108.48C307.326 108.48 310.718 105.088 310.718 100.032C310.718 95.04 307.358 91.584 302.686 91.584C298.014 91.584 294.654 95.04 294.654 100.032C294.654 104.896 298.046 108.48 302.686 108.48ZM302.686 105.312C300.318 105.312 298.686 103.648 298.686 100.096C298.686 96.544 300.318 94.752 302.686 94.752C305.054 94.752 306.654 96.544 306.654 100.096C306.654 103.648 305.054 105.312 302.686 105.312ZM317.633 108H322.017L324.065 100.736C324.865 97.984 325.153 96.992 325.409 95.968C325.665 96.928 325.985 97.984 326.753 100.768L328.801 108H333.441L338.657 92.064H334.657L333.057 97.568C331.841 101.984 331.457 103.36 331.265 104.16C331.009 103.36 330.625 101.952 329.761 98.752L327.841 92.064H323.233L321.409 98.464C320.449 101.888 320.065 103.36 319.841 104.192C319.585 103.328 319.201 101.824 318.145 97.92L316.513 92.064H312.481L317.633 108ZM348.806 108H352.71V100.128C352.71 98.272 352.838 94.88 356.07 94.88C357.766 94.88 358.918 95.808 358.918 98.272V108H362.758V100.128C362.758 98.272 362.822 94.88 366.086 94.88C367.814 94.88 368.934 95.808 368.934 98.272V108H372.838V97.376C372.838 93.376 370.662 91.584 367.462 91.584C364.934 91.584 363.27 92.768 362.118 94.592C361.222 92.768 359.622 91.584 357.382 91.584C355.11 91.584 353.478 92.8 352.614 94.4V92.064H348.806V108ZM381.527 108.48C384.215 108.48 385.911 107.136 386.871 105.632C387.063 107.04 387.767 108 389.783 108H392.791V104.928H391.287C390.455 104.928 390.327 104.736 390.327 103.968V97.536C390.327 93.632 387.927 91.584 383.543 91.584C379.063 91.584 376.567 93.92 376.183 96.288L379.799 97.216C380.183 95.808 381.175 94.56 383.543 94.56C385.591 94.56 386.487 95.488 386.487 97.056V97.6C381.207 98.08 376.439 99.456 376.439 103.904C376.439 106.72 378.551 108.48 381.527 108.48ZM382.807 105.536C381.207 105.536 380.407 104.736 380.407 103.52C380.407 101.248 383.191 100.544 386.487 100.16V101.44C386.487 104.288 384.695 105.536 382.807 105.536ZM395.337 108H399.241V100.736C399.241 98.784 399.305 94.848 402.889 94.848C404.649 94.848 405.769 95.872 405.769 98.272V108H409.673V97.408C409.673 93.92 408.105 91.584 404.297 91.584C401.193 91.584 399.657 93.664 399.145 94.592V92.064H395.337V108ZM424.357 92.064L422.149 98.88L420.741 103.168C420.453 102.496 420.069 101.696 418.917 98.912L415.973 92.064H411.749L419.173 107.872L418.693 109.312C418.213 110.624 417.669 111.008 416.581 111.008H412.805V114.24H416.965C419.749 114.24 421.029 113.12 421.957 110.4L428.453 92.064H424.357ZM444.314 108.48C447.066 108.48 448.794 106.944 449.53 105.76V108H453.338V85.6H449.434V91.424V94.304C448.698 93.12 447.034 91.584 444.314 91.584C440.282 91.584 437.562 94.912 437.562 100.032C437.562 105.152 440.282 108.48 444.314 108.48ZM445.594 105.408C443.322 105.408 441.626 104.032 441.626 100.032C441.626 96.064 443.322 94.656 445.594 94.656C447.962 94.656 449.626 96.448 449.626 100.032C449.626 103.648 447.962 105.408 445.594 105.408ZM464.999 108.48C469.639 108.48 473.031 105.088 473.031 100.032C473.031 95.04 469.671 91.584 464.999 91.584C460.327 91.584 456.967 95.04 456.967 100.032C456.967 104.896 460.359 108.48 464.999 108.48ZM464.999 105.312C462.631 105.312 460.999 103.648 460.999 100.096C460.999 96.544 462.631 94.752 464.999 94.752C467.367 94.752 468.967 96.544 468.967 100.096C468.967 103.648 467.367 105.312 464.999 105.312ZM476.649 108H480.553V100.736C480.553 98.784 480.617 94.848 484.201 94.848C485.961 94.848 487.081 95.872 487.081 98.272V108H490.985V97.408C490.985 93.92 489.417 91.584 485.609 91.584C482.505 91.584 480.969 93.664 480.457 94.592V92.064H476.649V108ZM500.42 108.48C503.556 108.48 505.028 106.432 505.668 105.376V108H509.54V92.064H505.636V99.552C505.636 102.112 505.06 105.216 502.02 105.216C500.324 105.216 499.268 104.224 499.268 101.76V92.064H495.364V102.688C495.364 106.176 497.124 108.48 500.42 108.48ZM519.906 108H524.642V104.8H521.25C520.226 104.8 519.778 104.352 519.778 103.328V95.104H524.002V92.064H519.778V87.04H515.874V92.064H512.418V95.104H515.874V103.936C515.874 106.464 517.314 108 519.906 108ZM533.631 108.448C538.079 108.448 540.671 106.432 540.671 103.328C540.671 100.064 537.727 98.848 535.199 98.368L533.151 97.952C531.231 97.6 530.719 97.088 530.719 96.192C530.719 95.232 531.583 94.4 533.343 94.4C535.327 94.4 536.383 95.616 536.831 96.832L540.127 95.424C539.455 93.632 537.471 91.584 533.471 91.584C529.631 91.584 527.007 93.568 527.007 96.544C527.007 99.648 529.055 100.704 532.159 101.312L534.271 101.728C536.159 102.112 536.639 102.816 536.639 103.712C536.639 104.832 535.647 105.568 533.791 105.568C530.911 105.568 530.143 103.616 529.951 102.72L526.335 103.872C527.039 106.784 530.047 108.448 533.631 108.448ZM547.706 100.352H551.386C551.386 98.944 552.026 98.048 553.306 97.024C555.45 95.392 557.082 93.824 557.082 91.072C557.082 87.808 554.522 85.152 549.978 85.152C545.402 85.152 542.746 87.808 542.618 92.192L546.49 92.8C546.586 89.92 547.77 88.512 549.882 88.512C551.738 88.512 552.954 89.6 552.954 91.36C552.954 92.928 551.834 93.92 550.65 94.848C548.858 96.256 547.706 97.344 547.706 100.352ZM547.194 108H551.962V103.328H547.194V108Z" fill="#1D1D21"/>
<rect x="269.5" y="133.5" width="419" height="75" rx="7.5" fill="white"/>
<path d="M294.736 180H307.644V177.62H301.988H297.648C301.036 175.464 303.556 173.616 305.236 171.684C306.608 170.088 307.392 168.24 307.392 166.084C307.392 162.612 305.012 160.008 301.008 160.008C297.116 160.008 294.568 162.556 294.568 166.364L297.144 166.7C297.144 163.76 298.964 162.332 301.008 162.332C303.024 162.332 304.704 163.704 304.704 166.364C304.704 170.564 299.608 174.092 294.736 177.172V180ZM311.007 183.78H312.631L314.703 180V176.5H311.343V180H313.107L311.007 183.78ZM325.515 180.392C330.163 180.392 333.271 176.836 333.271 170.116C333.271 163.368 329.715 160.008 325.515 160.008C321.287 160.008 317.703 163.368 317.703 170.116C317.703 176.836 320.839 180.392 325.515 180.392ZM325.515 178.096C322.295 178.096 320.363 175.184 320.363 170.116C320.363 165.496 322.351 162.304 325.515 162.304C328.651 162.304 330.611 165.496 330.611 170.116C330.611 175.184 328.707 178.096 325.515 178.096ZM344.382 180.392C349.03 180.392 352.138 176.836 352.138 170.116C352.138 163.368 348.582 160.008 344.382 160.008C340.154 160.008 336.57 163.368 336.57 170.116C336.57 176.836 339.706 180.392 344.382 180.392ZM344.382 178.096C341.162 178.096 339.23 175.184 339.23 170.116C339.23 165.496 341.218 162.304 344.382 162.304C347.518 162.304 349.478 165.496 349.478 170.116C349.478 175.184 347.574 178.096 344.382 178.096ZM363.249 180.392C367.897 180.392 371.005 176.836 371.005 170.116C371.005 163.368 367.449 160.008 363.249 160.008C359.021 160.008 355.437 163.368 355.437 170.116C355.437 176.836 358.573 180.392 363.249 180.392ZM363.249 178.096C360.029 178.096 358.097 175.184 358.097 170.116C358.097 165.496 360.085 162.304 363.249 162.304C366.385 162.304 368.345 165.496 368.345 170.116C368.345 175.184 366.441 178.096 363.249 178.096Z" fill="#1D1D21"/>
<path fill-rule="evenodd" clip-rule="evenodd" d="M649 173.667L638.49 163.657C638.103 163.289 637.497 163.289 637.11 163.657L635.76 164.943C635.347 165.337 635.347 165.997 635.76 166.391L649 179L662.222 166.232C662.642 165.827 662.627 165.15 662.191 164.764L660.888 163.609C660.499 163.265 659.911 163.275 659.535 163.634L649 173.667Z" fill="#1D1D21"/>
<rect x="269.5" y="133.5" width="419" height="75" rx="7.5" stroke="#C1C1C8"/>
<rect x="269" y="121" width="420" height="12" fill="#F3EAFE"/>
<path d="M760 173.5L760.5 173.5L760.5 172.5L760 172.5L760 173.5ZM673.646 172.646C673.451 172.842 673.451 173.158 673.646 173.354L676.828 176.536C677.024 176.731 677.34 176.731 677.536 176.536C677.731 176.34 677.731 176.024 677.536 175.828L674.707 173L677.536 170.172C677.731 169.976 677.731 169.66 677.536 169.464C677.34 169.269 677.024 169.269 676.828 169.464L673.646 172.646ZM760 172.5L674 172.5L674 173.5L760 173.5L760 172.5Z" fill="#2D8C9E"/>
<path d="M772.296 178.168C774.408 178.168 775.476 176.932 775.476 174.76V169.6H774.396V174.604C774.396 176.14 773.748 177.136 772.296 177.136C770.844 177.136 770.196 176.152 770.196 174.604V169.6H769.116V174.76C769.116 177.112 770.352 178.168 772.296 178.168ZM777.826 178H778.906V169.6H777.826V178ZM784.218 170.896H785.298V169.6H784.218V170.896ZM784.254 178H785.274V172.06H784.254V178ZM787.289 178H788.309V175.48C788.309 174.604 788.345 172.792 789.977 172.792C790.769 172.792 791.285 173.248 791.285 174.364V178H792.305V174.124C792.305 172.804 791.705 171.892 790.229 171.892C788.945 171.892 788.369 172.804 788.285 173.068V172.06H787.289V178ZM796.206 178.168C797.25 178.168 797.826 177.592 798.114 177.088V178H799.11V169.6H798.09V171.82V172.984C797.802 172.48 797.25 171.892 796.206 171.892C794.838 171.892 793.794 173.08 793.794 175.036C793.794 176.992 794.838 178.168 796.206 178.168ZM796.47 177.268C795.522 177.268 794.838 176.704 794.838 175.048C794.838 173.392 795.522 172.792 796.47 172.792C797.442 172.792 798.15 173.548 798.15 175.048C798.15 176.548 797.442 177.268 796.47 177.268ZM801.093 170.896H802.173V169.6H801.093V170.896ZM801.129 178H802.149V172.06H801.129V178ZM806.528 178.168C807.86 178.168 808.724 177.388 809.108 176.284L808.148 175.948C807.956 176.596 807.512 177.268 806.528 177.268C805.544 177.268 804.776 176.548 804.776 175.024C804.776 173.536 805.568 172.792 806.516 172.792C807.38 172.792 807.812 173.356 808.004 173.92L808.952 173.608C808.676 172.684 807.86 171.892 806.516 171.892C804.872 171.892 803.708 173.188 803.708 175.024C803.708 176.944 804.812 178.168 806.528 178.168ZM812.005 178.168C812.929 178.168 813.493 177.772 813.937 177.1C814.009 177.592 814.141 178 815.041 178H815.821V177.1H815.197C814.921 177.1 814.849 177.028 814.849 176.752V173.932C814.849 172.708 814.117 171.892 812.533 171.892C810.985 171.892 810.169 172.732 809.953 173.524L810.949 173.884C811.105 173.44 811.429 172.792 812.521 172.792C813.433 172.792 813.829 173.224 813.829 173.944V174.112C811.897 174.268 810.085 174.832 810.085 176.464C810.085 177.52 810.829 178.168 812.005 178.168ZM812.245 177.304C811.501 177.304 811.141 176.944 811.141 176.38C811.141 175.408 812.377 175.036 813.829 174.88V175.54C813.829 176.776 813.025 177.304 812.245 177.304ZM818.896 178H820.264V177.1H819.028C818.608 177.1 818.428 176.92 818.428 176.5V172.924H820.048V172.06H818.428V170.2H817.408V172.06H816.028V172.924H817.408V176.56C817.408 177.544 817.912 178 818.896 178ZM823.788 178.168C825.348 178.168 826.548 176.824 826.548 175.036C826.548 173.248 825.396 171.892 823.788 171.892C822.18 171.892 821.028 173.248 821.028 175.036C821.028 176.824 822.228 178.168 823.788 178.168ZM823.788 177.268C822.78 177.268 822.084 176.548 822.084 175.048C822.084 173.548 822.78 172.792 823.788 172.792C824.796 172.792 825.492 173.548 825.492 175.048C825.492 176.548 824.796 177.268 823.788 177.268ZM828.094 178H829.114V175.276C829.114 173.884 829.666 173.032 831.01 173.032C831.25 173.032 831.454 173.056 831.646 173.092V172.048C831.502 172.012 831.322 171.976 831.034 171.976C829.906 171.976 829.294 172.852 829.102 173.296V172.06H828.094V178Z" fill="#2D8C9E"/>
<path d="M760 127.5H760.5V126.5H760V127.5ZM700.646 126.646C700.451 126.842 700.451 127.158 700.646 127.354L703.828 130.536C704.024 130.731 704.34 130.731 704.536 130.536C704.731 130.34 704.731 130.024 704.536 129.828L701.707 127L704.536 124.172C704.731 123.976 704.731 123.66 704.536 123.464C704.34 123.269 704.024 123.269 703.828 123.464L700.646 126.646ZM760 126.5L701 126.5V127.5L760 127.5V126.5Z" fill="#2D8C9E"/>
<path d="M769.192 133.26H770.092V132.156C771.796 132.024 772.732 131.04 772.732 129.672C772.732 128.4 771.784 127.68 770.452 127.344L770.092 127.248V124.464C771.064 124.656 771.448 125.4 771.604 125.844L772.6 125.352C772.384 124.644 771.604 123.624 770.092 123.456V122.34H769.192V123.456C767.764 123.624 766.816 124.548 766.816 125.784C766.816 127.176 767.68 127.788 768.916 128.052L769.192 128.112V131.136C768.256 130.932 767.692 130.248 767.416 129.408L766.396 129.9C766.768 131.076 767.716 131.964 769.192 132.144V133.26ZM769.192 127.044C768.256 126.804 767.848 126.444 767.848 125.724C767.848 125.04 768.352 124.524 769.192 124.428V125.976V127.044ZM770.092 131.184V129.636V128.316C771.136 128.556 771.64 129.024 771.64 129.768C771.64 130.548 771.076 131.088 770.092 131.184ZM776.254 132.168C777.754 132.168 778.618 131.46 778.618 130.344C778.618 128.988 777.214 128.628 776.614 128.508L775.93 128.376C775.078 128.208 774.886 127.968 774.886 127.572C774.886 127.14 775.27 126.732 776.098 126.732C777.106 126.732 777.442 127.368 777.586 127.764L778.51 127.428C778.27 126.648 777.574 125.892 776.098 125.892C774.934 125.892 773.926 126.612 773.926 127.68C773.926 128.808 774.79 129.18 775.774 129.372L776.458 129.504C777.322 129.672 777.598 129.984 777.598 130.428C777.598 130.992 777.118 131.292 776.254 131.292C775.318 131.292 774.838 130.848 774.658 130.14L773.674 130.464C773.938 131.604 775.042 132.168 776.254 132.168ZM780.145 134.34H781.165V132.24V131.076C781.453 131.58 782.005 132.168 783.049 132.168C784.417 132.168 785.461 130.98 785.461 129.024C785.461 127.068 784.417 125.892 783.049 125.892C782.005 125.892 781.429 126.468 781.141 126.972V126.06H780.145V134.34ZM782.785 131.268C781.813 131.268 781.105 130.512 781.105 129.012C781.105 127.512 781.813 126.792 782.785 126.792C783.733 126.792 784.417 127.356 784.417 129.012C784.417 130.668 783.733 131.268 782.785 131.268ZM788.571 132.168C789.495 132.168 790.059 131.772 790.503 131.1C790.575 131.592 790.707 132 791.607 132H792.387V131.1H791.763C791.487 131.1 791.415 131.028 791.415 130.752V127.932C791.415 126.708 790.683 125.892 789.099 125.892C787.551 125.892 786.735 126.732 786.519 127.524L787.515 127.884C787.671 127.44 787.995 126.792 789.087 126.792C789.999 126.792 790.395 127.224 790.395 127.944V128.112C788.463 128.268 786.651 128.832 786.651 130.464C786.651 131.52 787.395 132.168 788.571 132.168ZM788.811 131.304C788.067 131.304 787.707 130.944 787.707 130.38C787.707 129.408 788.943 129.036 790.395 128.88V129.54C790.395 130.776 789.591 131.304 788.811 131.304ZM795.845 132.168C797.177 132.168 798.041 131.388 798.425 130.284L797.465 129.948C797.273 130.596 796.829 131.268 795.845 131.268C794.861 131.268 794.093 130.548 794.093 129.024C794.093 127.536 794.885 126.792 795.833 126.792C796.697 126.792 797.129 127.356 797.321 127.92L798.269 127.608C797.993 126.684 797.177 125.892 795.833 125.892C794.189 125.892 793.025 127.188 793.025 129.024C793.025 130.944 794.129 132.168 795.845 132.168ZM799.749 124.896H800.829V123.6H799.749V124.896ZM799.785 132H800.805V126.06H799.785V132ZM802.821 132H803.841V129.48C803.841 128.604 803.877 126.792 805.509 126.792C806.301 126.792 806.817 127.248 806.817 128.364V132H807.837V128.124C807.837 126.804 807.237 125.892 805.761 125.892C804.477 125.892 803.901 126.804 803.817 127.068V126.06H802.821V132ZM810.73 134.34H813.502C814.51 134.34 815.362 133.812 815.362 132.708C815.362 131.712 814.618 131.064 813.478 131.064H810.886C810.466 131.064 810.382 130.848 810.382 130.656C810.382 130.44 810.598 130.212 810.922 130.068C811.246 130.26 811.618 130.296 812.026 130.296C813.346 130.296 814.246 129.42 814.342 128.076L814.366 127.752C814.414 127.056 814.618 126.924 815.158 126.924H815.614V126.06H814.978C814.402 126.06 814.126 126.456 814.006 126.912C813.754 126.492 813.13 125.892 812.026 125.892C810.658 125.892 809.662 126.864 809.662 128.1C809.662 128.844 809.986 129.384 810.322 129.684C809.938 129.96 809.446 130.356 809.446 130.944C809.446 131.412 809.638 131.688 809.974 131.892C809.614 132.096 809.182 132.54 809.182 133.14C809.182 133.836 809.59 134.34 810.73 134.34ZM812.026 129.456C811.222 129.456 810.694 128.916 810.694 128.1C810.694 127.284 811.222 126.732 812.026 126.732C812.83 126.732 813.358 127.284 813.358 128.1C813.358 128.916 812.83 129.456 812.026 129.456ZM811.078 133.428C810.454 133.428 810.118 133.296 810.118 132.804C810.118 132.396 810.382 132.132 810.586 132H813.394C813.862 132 814.33 132.096 814.33 132.708C814.33 133.32 813.862 133.428 813.394 133.428H811.078ZM816.48 128.832H819.792V127.752H816.48V128.832ZM820.58 132H821.696L822.452 130.872L823.208 129.732C823.376 129.996 823.508 130.2 823.952 130.872L824.696 132H825.92L823.856 128.976L825.8 126.06H824.672L824.024 127.08C823.568 127.788 823.424 128.004 823.256 128.244C823.112 128.004 822.98 127.788 822.536 127.08L821.888 126.06H820.7L822.62 128.964L820.58 132ZM829.164 132.168C830.664 132.168 831.528 131.46 831.528 130.344C831.528 128.988 830.124 128.628 829.524 128.508L828.84 128.376C827.988 128.208 827.796 127.968 827.796 127.572C827.796 127.14 828.18 126.732 829.008 126.732C830.016 126.732 830.352 127.368 830.496 127.764L831.42 127.428C831.18 126.648 830.484 125.892 829.008 125.892C827.844 125.892 826.836 126.612 826.836 127.68C826.836 128.808 827.7 129.18 828.684 129.372L829.368 129.504C830.232 129.672 830.508 129.984 830.508 130.428C830.508 130.992 830.028 131.292 829.164 131.292C828.228 131.292 827.748 130.848 827.568 130.14L826.584 130.464C826.848 131.604 827.952 132.168 829.164 132.168Z" fill="#2D8C9E"/>
<path d="M203 96.5H202.5V97.5H203V96.5ZM251.354 97.3536C251.549 97.1583 251.549 96.8417 251.354 96.6464L248.172 93.4645C247.976 93.2692 247.66 93.2692 247.464 93.4645C247.269 93.6597 247.269 93.9763 247.464 94.1716L250.293 97L247.464 99.8284C247.269 100.024 247.269 100.34 247.464 100.536C247.66 100.731 247.976 100.731 248.172 100.536L251.354 97.3536ZM203 97.5H251V96.5H203V97.5Z" fill="#2D8C9E"/>
<path d="M162.517 102H168.121V100.956H163.597V93.6H162.517V102ZM170.786 102.168C171.71 102.168 172.274 101.772 172.718 101.1C172.79 101.592 172.922 102 173.822 102H174.602V101.1H173.978C173.702 101.1 173.63 101.028 173.63 100.752V97.932C173.63 96.708 172.898 95.892 171.314 95.892C169.766 95.892 168.95 96.732 168.734 97.524L169.73 97.884C169.886 97.44 170.21 96.792 171.302 96.792C172.214 96.792 172.61 97.224 172.61 97.944V98.112C170.678 98.268 168.866 98.832 168.866 100.464C168.866 101.52 169.61 102.168 170.786 102.168ZM171.026 101.304C170.282 101.304 169.922 100.944 169.922 100.38C169.922 99.408 171.158 99.036 172.61 98.88V99.54C172.61 100.776 171.806 101.304 171.026 101.304ZM178.6 102.168C179.968 102.168 181.012 100.98 181.012 99.024C181.012 97.068 179.968 95.892 178.6 95.892C177.556 95.892 177.004 96.468 176.716 96.972V95.82V93.6H175.696V102H176.692V101.076C176.98 101.58 177.556 102.168 178.6 102.168ZM178.336 101.268C177.364 101.268 176.656 100.512 176.656 99.012C176.656 97.512 177.364 96.792 178.336 96.792C179.284 96.792 179.968 97.356 179.968 99.012C179.968 100.668 179.284 101.268 178.336 101.268ZM184.83 102.168C185.946 102.168 186.942 101.664 187.386 100.452L186.45 100.128C186.294 100.512 185.874 101.28 184.866 101.28C184.038 101.28 183.21 100.8 183.15 99.3H187.338C187.566 97.356 186.498 95.892 184.77 95.892C183.258 95.892 182.142 97.104 182.142 99.06C182.142 101.076 183.21 102.168 184.83 102.168ZM183.174 98.448C183.258 97.368 183.99 96.732 184.77 96.732C185.586 96.732 186.294 97.32 186.294 98.448H183.174ZM188.973 102H189.993V93.6H188.973V102Z" fill="#2D8C9E"/>
<path d="M203 172.5L202.5 172.5L202.5 173.5L203 173.5L203 172.5ZM282.354 173.354C282.549 173.158 282.549 172.842 282.354 172.646L279.172 169.464C278.976 169.269 278.66 169.269 278.464 169.464C278.269 169.66 278.269 169.976 278.464 170.172L281.293 173L278.464 175.828C278.269 176.024 278.269 176.34 278.464 176.536C278.66 176.731 278.976 176.731 279.172 176.536L282.354 173.354ZM203 173.5L282 173.5L282 172.5L203 172.5L203 173.5Z" fill="#2D8C9E"/>
<path d="M164.013 178H165.633L168.345 169.6H167.157L165.357 175.348L164.829 177.016L164.313 175.336L162.537 169.6H161.337L164.013 178ZM170.786 178.168C171.71 178.168 172.274 177.772 172.718 177.1C172.79 177.592 172.922 178 173.822 178H174.602V177.1H173.978C173.702 177.1 173.63 177.028 173.63 176.752V173.932C173.63 172.708 172.898 171.892 171.314 171.892C169.766 171.892 168.95 172.732 168.734 173.524L169.73 173.884C169.886 173.44 170.21 172.792 171.302 172.792C172.214 172.792 172.61 173.224 172.61 173.944V174.112C170.678 174.268 168.866 174.832 168.866 176.464C168.866 177.52 169.61 178.168 170.786 178.168ZM171.026 177.304C170.282 177.304 169.922 176.944 169.922 176.38C169.922 175.408 171.158 175.036 172.61 174.88V175.54C172.61 176.776 171.806 177.304 171.026 177.304ZM175.696 178H176.716V169.6H175.696V178ZM180.627 178.168C181.863 178.168 182.427 177.292 182.607 176.968V178H183.603V172.06H182.583V174.58C182.583 175.492 182.559 177.268 180.951 177.268C180.171 177.268 179.667 176.812 179.667 175.696V172.06H178.647V175.936C178.647 177.256 179.235 178.168 180.627 178.168ZM187.865 178.168C188.981 178.168 189.977 177.664 190.421 176.452L189.485 176.128C189.329 176.512 188.909 177.28 187.901 177.28C187.073 177.28 186.245 176.8 186.185 175.3H190.373C190.601 173.356 189.533 171.892 187.805 171.892C186.293 171.892 185.177 173.104 185.177 175.06C185.177 177.076 186.245 178.168 187.865 178.168ZM186.209 174.448C186.293 173.368 187.025 172.732 187.805 172.732C188.621 172.732 189.329 173.32 189.329 174.448H186.209Z" fill="#2D8C9E"/>
</svg>
