<svg viewBox="0 0 958 346" fill="none" xmlns="http://www.w3.org/2000/svg"><g filter="url(#filter0_d)"><rect x="266" y="108" width="426" height="130" rx="4" fill="#008055"/><path fill-rule="evenodd" clip-rule="evenodd" d="M290 154C295.523 154 300 149.523 300 144C300 138.477 295.523 134 290 134C284.477 134 280 138.477 280 144C280 149.523 284.477 154 290 154ZM293.75 138.64L289.458 146.8L285.837 144.117C285.339 143.747 284.639 143.84 284.253 144.327C283.859 144.821 283.933 145.542 284.418 145.946L288.991 149.752C289.511 150.185 290.296 150.033 290.62 149.436L295.854 139.778C296.178 139.18 295.944 138.431 295.34 138.127C294.759 137.835 294.054 138.063 293.75 138.64Z" fill="#fff"/><path d="M319.376 151.24C322.416 151.24 323.84 149.704 323.84 147.784 323.84 145.848 322.352 144.776 320.224 144.424L318.768 144.168C317.728 143.976 317.184 143.544 317.184 142.776 317.184 141.976 317.792 141.288 319.2 141.288 320.768 141.288 321.472 142.232 321.776 143.144L323.712 142.392C323.28 141.032 321.952 139.56 319.264 139.56 316.576 139.56 315.056 141.064 315.056 142.872 315.056 144.872 316.352 145.8 318.336 146.136L319.76 146.376C321.12 146.616 321.68 147.128 321.68 147.928 321.68 148.84 320.976 149.512 319.408 149.512 317.648 149.512 316.768 148.376 316.464 147.192L314.496 147.944C314.96 149.736 316.512 151.24 319.376 151.24zM325.715 154.12H327.667V151.32 149.864C328.035 150.488 328.867 151.24 330.227 151.24 332.259 151.24 333.619 149.56 333.619 147.016 333.619 144.456 332.259 142.776 330.227 142.776 328.851 142.776 327.987 143.576 327.619 144.152V143.032H325.715V154.12zM329.587 149.704C328.403 149.704 327.571 148.808 327.571 147 327.571 145.208 328.403 144.312 329.587 144.312 330.723 144.312 331.587 145.016 331.587 147 331.587 149 330.723 149.704 329.587 149.704zM338.794 151.24C340.89 151.24 342.01 150.152 342.522 148.92L340.762 148.264C340.474 148.936 339.946 149.704 338.81 149.704 337.786 149.704 336.922 149.112 336.842 147.496H342.474C342.73 144.856 341.306 142.792 338.762 142.792 336.554 142.792 334.906 144.472 334.906 147.016 334.906 149.672 336.442 151.24 338.794 151.24zM336.906 146.056C337.05 144.904 337.802 144.248 338.762 144.248 339.77 144.248 340.474 144.888 340.538 146.056H336.906zM347.7 151.24C349.796 151.24 350.916 150.152 351.428 148.92L349.668 148.264C349.38 148.936 348.852 149.704 347.716 149.704 346.692 149.704 345.828 149.112 345.748 147.496H351.38C351.636 144.856 350.212 142.792 347.668 142.792 345.46 142.792 343.812 144.472 343.812 147.016 343.812 149.672 345.348 151.24 347.7 151.24zM345.812 146.056C345.956 144.904 346.708 144.248 347.668 144.248 348.676 144.248 349.38 144.888 349.444 146.056H345.812zM356.11 151.24C357.486 151.24 358.35 150.472 358.718 149.88V151H360.622V139.8H358.67V142.712 144.152C358.302 143.56 357.47 142.792 356.11 142.792 354.094 142.792 352.734 144.456 352.734 147.016 352.734 149.576 354.094 151.24 356.11 151.24zM356.75 149.704C355.614 149.704 354.766 149.016 354.766 147.016 354.766 145.032 355.614 144.328 356.75 144.328 357.934 144.328 358.766 145.224 358.766 147.016 358.766 148.824 357.934 149.704 356.75 149.704zM366.903 151H368.855V147.368C368.855 146.392 368.887 144.424 370.679 144.424 371.559 144.424 372.119 144.936 372.119 146.136V151H374.071V145.704C374.071 143.96 373.255 142.792 371.479 142.792 369.831 142.792 369.111 143.832 368.855 144.296V142.712 139.8H366.903V151zM378.42 151.24C379.764 151.24 380.612 150.568 381.092 149.816 381.188 150.52 381.54 151 382.548 151H384.052V149.464H383.3C382.884 149.464 382.82 149.368 382.82 148.984V145.768C382.82 143.816 381.62 142.792 379.428 142.792 377.188 142.792 375.94 143.96 375.748 145.144L377.556 145.608C377.748 144.904 378.244 144.28 379.428 144.28 380.452 144.28 380.9 144.744 380.9 145.528V145.8C378.26 146.04 375.876 146.728 375.876 148.952 375.876 150.36 376.932 151.24 378.42 151.24zM379.06 149.768C378.26 149.768 377.86 149.368 377.86 148.76 377.86 147.624 379.252 147.272 380.9 147.08V147.72C380.9 149.144 380.004 149.768 379.06 149.768zM388.269 151.224C390.493 151.224 391.789 150.216 391.789 148.664 391.789 147.032 390.317 146.424 389.053 146.184L388.029 145.976C387.069 145.8 386.813 145.544 386.813 145.096 386.813 144.616 387.245 144.2 388.125 144.2 389.117 144.2 389.645 144.808 389.869 145.416L391.517 144.712C391.181 143.816 390.189 142.792 388.189 142.792 386.269 142.792 384.957 143.784 384.957 145.272 384.957 146.824 385.981 147.352 387.533 147.656L388.589 147.864C389.533 148.056 389.773 148.408 389.773 148.856 389.773 149.416 389.277 149.784 388.349 149.784 386.909 149.784 386.525 148.808 386.429 148.36L384.621 148.936C384.973 150.392 386.477 151.224 388.269 151.224zM401.946 151.24C403.978 151.24 405.338 149.56 405.338 147.016 405.338 144.456 403.978 142.792 401.962 142.792 400.586 142.792 399.754 143.576 399.386 144.152V142.712 139.8H397.434V151H399.338V149.864C399.722 150.488 400.57 151.24 401.946 151.24zM401.322 149.704C400.138 149.704 399.29 148.808 399.29 147 399.29 145.208 400.138 144.328 401.322 144.328 402.458 144.328 403.306 145.016 403.306 147 403.306 149 402.458 149.704 401.322 149.704zM410.512 151.24C412.608 151.24 413.728 150.152 414.24 148.92L412.48 148.264C412.192 148.936 411.664 149.704 410.528 149.704 409.504 149.704 408.64 149.112 408.56 147.496H414.192C414.448 144.856 413.024 142.792 410.48 142.792 408.272 142.792 406.624 144.472 406.624 147.016 406.624 149.672 408.16 151.24 410.512 151.24zM408.624 146.056C408.768 144.904 409.52 144.248 410.48 144.248 411.488 144.248 412.192 144.888 412.256 146.056H408.624zM419.419 151.24C421.515 151.24 422.635 150.152 423.147 148.92L421.387 148.264C421.099 148.936 420.571 149.704 419.435 149.704 418.411 149.704 417.547 149.112 417.467 147.496H423.099C423.355 144.856 421.931 142.792 419.387 142.792 417.179 142.792 415.531 144.472 415.531 147.016 415.531 149.672 417.067 151.24 419.419 151.24zM417.531 146.056C417.675 144.904 418.427 144.248 419.387 144.248 420.395 144.248 421.099 144.888 421.163 146.056H417.531zM424.981 151H426.933V147.368C426.933 146.392 426.965 144.424 428.757 144.424 429.637 144.424 430.197 144.936 430.197 146.136V151H432.149V145.704C432.149 143.96 431.365 142.792 429.461 142.792 427.909 142.792 427.141 143.832 426.885 144.296V143.032H424.981V151zM440.772 151.24C442.34 151.24 443.076 150.216 443.396 149.688V151H445.332V143.032H443.38V146.776C443.38 148.056 443.092 149.608 441.572 149.608 440.724 149.608 440.196 149.112 440.196 147.88V143.032H438.244V148.344C438.244 150.088 439.124 151.24 440.772 151.24zM447.7 154.12H449.652V151.32 149.864C450.02 150.488 450.852 151.24 452.212 151.24 454.244 151.24 455.604 149.56 455.604 147.016 455.604 144.456 454.244 142.776 452.212 142.776 450.836 142.776 449.972 143.576 449.604 144.152V143.032H447.7V154.12zM451.572 149.704C450.388 149.704 449.556 148.808 449.556 147 449.556 145.208 450.388 144.312 451.572 144.312 452.708 144.312 453.572 145.016 453.572 147 453.572 149 452.708 149.704 451.572 149.704zM460.282 151.24C461.658 151.24 462.522 150.472 462.89 149.88V151H464.794V139.8H462.842V142.712 144.152C462.474 143.56 461.642 142.792 460.282 142.792 458.266 142.792 456.906 144.456 456.906 147.016 456.906 149.576 458.266 151.24 460.282 151.24zM460.922 149.704C459.786 149.704 458.938 149.016 458.938 147.016 458.938 145.032 459.786 144.328 460.922 144.328 462.106 144.328 462.938 145.224 462.938 147.016 462.938 148.824 462.106 149.704 460.922 149.704zM469.232 151.24C470.576 151.24 471.424 150.568 471.904 149.816 472 150.52 472.352 151 473.36 151H474.864V149.464H474.112C473.696 149.464 473.632 149.368 473.632 148.984V145.768C473.632 143.816 472.432 142.792 470.24 142.792 468 142.792 466.752 143.96 466.56 145.144L468.368 145.608C468.56 144.904 469.056 144.28 470.24 144.28 471.264 144.28 471.712 144.744 471.712 145.528V145.8C469.072 146.04 466.688 146.728 466.688 148.952 466.688 150.36 467.744 151.24 469.232 151.24zM469.872 149.768C469.072 149.768 468.672 149.368 468.672 148.76 468.672 147.624 470.064 147.272 471.712 147.08V147.72C471.712 149.144 470.816 149.768 469.872 149.768zM478.828 151H481.196V149.4H479.5C478.988 149.4 478.764 149.176 478.764 148.664V144.552H480.876V143.032H478.764V140.52H476.812V143.032H475.084V144.552H476.812V148.968C476.812 150.232 477.532 151 478.828 151zM485.997 151.24C488.093 151.24 489.213 150.152 489.725 148.92L487.965 148.264C487.677 148.936 487.149 149.704 486.013 149.704 484.989 149.704 484.125 149.112 484.045 147.496H489.677C489.933 144.856 488.509 142.792 485.965 142.792 483.757 142.792 482.109 144.472 482.109 147.016 482.109 149.672 483.645 151.24 485.997 151.24zM484.109 146.056C484.253 144.904 485.005 144.248 485.965 144.248 486.973 144.248 487.677 144.888 487.741 146.056H484.109zM494.407 151.24C495.783 151.24 496.647 150.472 497.015 149.88V151H498.919V139.8H496.967V142.712 144.152C496.599 143.56 495.767 142.792 494.407 142.792 492.391 142.792 491.031 144.456 491.031 147.016 491.031 149.576 492.391 151.24 494.407 151.24zM495.047 149.704C493.911 149.704 493.063 149.016 493.063 147.016 493.063 145.032 493.911 144.328 495.047 144.328 496.231 144.328 497.063 145.224 497.063 147.016 497.063 148.824 496.231 149.704 495.047 149.704zM318.432 179H319.872V174.216L323.808 167.8H322.064L320.032 171.368 319.168 172.856 318.272 171.368 316.112 167.8H314.368L318.432 174.28V179zM327.213 179.224C329.293 179.224 330.892 177.432 330.892 175.048 330.892 172.664 329.357 170.856 327.213 170.856 325.069 170.856 323.533 172.664 323.533 175.048 323.533 177.432 325.133 179.224 327.213 179.224zM327.213 178.024C325.869 178.024 324.941 177.064 324.941 175.064 324.941 173.064 325.869 172.056 327.213 172.056 328.557 172.056 329.485 173.064 329.485 175.064 329.485 177.064 328.557 178.024 327.213 178.024zM335.481 179.224C337.129 179.224 337.881 178.056 338.121 177.624V179H339.449V171.08H338.089V174.44C338.089 175.656 338.057 178.024 335.913 178.024 334.873 178.024 334.201 177.416 334.201 175.928V171.08H332.841V176.248C332.841 178.008 333.625 179.224 335.481 179.224zM346.282 179H347.642V175.64C347.642 174.472 347.69 172.056 349.866 172.056 350.922 172.056 351.61 172.664 351.61 174.152V179H352.97V173.832C352.97 172.072 352.106 170.856 350.298 170.856 348.426 170.856 347.754 172.072 347.642 172.424V170.76 167.8H346.282V179zM358.171 179.224C359.563 179.224 360.331 178.456 360.715 177.784V179H362.043V171.08H360.683V172.312C360.299 171.64 359.563 170.856 358.171 170.856 356.347 170.856 354.955 172.44 354.955 175.048 354.955 177.656 356.347 179.224 358.171 179.224zM358.523 178.024C357.259 178.024 356.347 177.272 356.347 175.064 356.347 172.856 357.259 172.056 358.523 172.056 359.819 172.056 360.763 173.064 360.763 175.064 360.763 177.064 359.819 178.024 358.523 178.024zM366.447 179H368.143L370.703 171.08H369.311L367.951 175.64 367.311 177.752C367.199 177.384 366.911 176.44 366.655 175.64L365.231 171.08H363.807L366.447 179zM375.43 179.224C376.918 179.224 378.246 178.552 378.838 176.936L377.59 176.504C377.382 177.016 376.822 178.04 375.478 178.04 374.374 178.04 373.27 177.4 373.19 175.4H378.774C379.078 172.808 377.654 170.856 375.35 170.856 373.334 170.856 371.846 172.472 371.846 175.08 371.846 177.768 373.27 179.224 375.43 179.224zM373.222 174.264C373.334 172.824 374.31 171.976 375.35 171.976 376.438 171.976 377.382 172.76 377.382 174.264H373.222zM385.094 179H386.454V175.64C386.454 174.472 386.502 172.056 388.678 172.056 389.734 172.056 390.422 172.664 390.422 174.152V179H391.782V173.832C391.782 172.072 390.982 170.856 389.014 170.856 387.302 170.856 386.534 172.072 386.422 172.424V171.08H385.094V179zM397.416 179.224C399.496 179.224 401.096 177.432 401.096 175.048 401.096 172.664 399.56 170.856 397.416 170.856 395.272 170.856 393.736 172.664 393.736 175.048 393.736 177.432 395.336 179.224 397.416 179.224zM397.416 178.024C396.072 178.024 395.144 177.064 395.144 175.064 395.144 173.064 396.072 172.056 397.416 172.056 398.76 172.056 399.688 173.064 399.688 175.064 399.688 177.064 398.76 178.024 397.416 178.024zM404.821 179H406.357L407.605 175.096C408.085 173.592 408.245 173.096 408.405 172.616L409.189 175.096 410.405 179H411.989L414.677 171.08H413.237L411.989 175.032C411.525 176.488 411.317 177.128 411.189 177.496L410.565 175.464 409.205 171.08H407.637L406.405 175.032 405.637 177.496C405.509 177.064 405.349 176.552 404.869 175.032L403.637 171.08H402.213L404.821 179zM422.938 179.224C424.938 179.224 426.09 178.28 426.09 176.792 426.09 174.984 424.218 174.504 423.418 174.344L422.506 174.168C421.37 173.944 421.114 173.624 421.114 173.096 421.114 172.52 421.626 171.976 422.73 171.976 424.074 171.976 424.522 172.824 424.714 173.352L425.946 172.904C425.626 171.864 424.698 170.856 422.73 170.856 421.178 170.856 419.834 171.816 419.834 173.24 419.834 174.744 420.986 175.24 422.298 175.496L423.21 175.672C424.362 175.896 424.73 176.312 424.73 176.904 424.73 177.656 424.09 178.056 422.938 178.056 421.69 178.056 421.05 177.464 420.81 176.52L419.498 176.952C419.85 178.472 421.322 179.224 422.938 179.224zM430.653 179.224C432.301 179.224 433.053 178.056 433.293 177.624V179H434.621V171.08H433.261V174.44C433.261 175.656 433.229 178.024 431.085 178.024 430.045 178.024 429.373 177.416 429.373 175.928V171.08H428.013V176.248C428.013 178.008 428.797 179.224 430.653 179.224zM440.465 179.224C442.241 179.224 443.393 178.184 443.905 176.712L442.625 176.264C442.369 177.128 441.777 178.024 440.465 178.024 439.153 178.024 438.129 177.064 438.129 175.032 438.129 173.048 439.185 172.056 440.449 172.056 441.601 172.056 442.177 172.808 442.433 173.56L443.697 173.144C443.329 171.912 442.241 170.856 440.449 170.856 438.257 170.856 436.705 172.584 436.705 175.032 436.705 177.592 438.177 179.224 440.465 179.224zM448.871 179.224C450.647 179.224 451.799 178.184 452.311 176.712L451.031 176.264C450.775 177.128 450.183 178.024 448.871 178.024 447.559 178.024 446.535 177.064 446.535 175.032 446.535 173.048 447.591 172.056 448.855 172.056 450.007 172.056 450.583 172.808 450.839 173.56L452.103 173.144C451.735 171.912 450.647 170.856 448.855 170.856 446.663 170.856 445.111 172.584 445.111 175.032 445.111 177.592 446.583 179.224 448.871 179.224zM457.117 179.224C458.605 179.224 459.933 178.552 460.525 176.936L459.277 176.504C459.069 177.016 458.509 178.04 457.165 178.04 456.061 178.04 454.957 177.4 454.877 175.4H460.461C460.765 172.808 459.341 170.856 457.037 170.856 455.021 170.856 453.533 172.472 453.533 175.08 453.533 177.768 454.957 179.224 457.117 179.224zM454.909 174.264C455.021 172.824 455.997 171.976 457.037 171.976 458.125 171.976 459.069 172.76 459.069 174.264H454.909zM465.313 179.224C467.313 179.224 468.465 178.28 468.465 176.792 468.465 174.984 466.593 174.504 465.793 174.344L464.881 174.168C463.745 173.944 463.489 173.624 463.489 173.096 463.489 172.52 464.001 171.976 465.105 171.976 466.449 171.976 466.897 172.824 467.089 173.352L468.321 172.904C468.001 171.864 467.073 170.856 465.105 170.856 463.553 170.856 462.209 171.816 462.209 173.24 462.209 174.744 463.361 175.24 464.673 175.496L465.585 175.672C466.737 175.896 467.105 176.312 467.105 176.904 467.105 177.656 466.465 178.056 465.313 178.056 464.065 178.056 463.425 177.464 463.185 176.52L461.873 176.952C462.225 178.472 463.697 179.224 465.313 179.224zM473.172 179.224C475.172 179.224 476.324 178.28 476.324 176.792 476.324 174.984 474.452 174.504 473.652 174.344L472.74 174.168C471.604 173.944 471.348 173.624 471.348 173.096 471.348 172.52 471.86 171.976 472.964 171.976 474.308 171.976 474.756 172.824 474.948 173.352L476.18 172.904C475.86 171.864 474.932 170.856 472.964 170.856 471.412 170.856 470.068 171.816 470.068 173.24 470.068 174.744 471.22 175.24 472.532 175.496L473.444 175.672C474.596 175.896 474.964 176.312 474.964 176.904 474.964 177.656 474.324 178.056 473.172 178.056 471.924 178.056 471.284 177.464 471.044 176.52L469.732 176.952C470.084 178.472 471.556 179.224 473.172 179.224zM479.002 179H480.362V172.232H482.442V171.08H480.362V169.8C480.362 169.24 480.602 169 481.161 169H482.73V167.8H481.002C479.69 167.8 479.002 168.424 479.002 169.896V171.08H477.242V172.232H479.002V179zM486.575 179.224C488.223 179.224 488.975 178.056 489.215 177.624V179H490.543V171.08H489.183V174.44C489.183 175.656 489.151 178.024 487.007 178.024 485.967 178.024 485.295 177.416 485.295 175.928V171.08H483.935V176.248C483.935 178.008 484.719 179.224 486.575 179.224zM493.235 179H494.595V167.8H493.235V179zM497.282 179H498.642V167.8H497.282V179zM506.112 171.08L504.672 175.416C504.352 176.376 504.256 176.664 504.112 177.128 503.952 176.712 503.824 176.392 503.328 175.192L501.632 171.08H500.096L503.52 178.904 503.072 180.168C502.864 180.76 502.512 180.872 501.984 180.872H500.48V182.12H501.984C503.376 182.12 503.952 181.656 504.48 180.088L507.552 171.08H506.112zM515.812 179.224C517.204 179.224 517.972 178.456 518.356 177.784V179H519.684V171.08H518.324V172.312C517.94 171.64 517.204 170.856 515.812 170.856 513.988 170.856 512.596 172.44 512.596 175.048 512.596 177.656 513.988 179.224 515.812 179.224zM516.164 178.024C514.9 178.024 513.988 177.272 513.988 175.064 513.988 172.856 514.9 172.056 516.164 172.056 517.46 172.056 518.404 173.064 518.404 175.064 518.404 177.064 517.46 178.024 516.164 178.024zM525.527 179.224C527.303 179.224 528.455 178.184 528.967 176.712L527.687 176.264C527.431 177.128 526.839 178.024 525.527 178.024 524.215 178.024 523.191 177.064 523.191 175.032 523.191 173.048 524.247 172.056 525.511 172.056 526.663 172.056 527.239 172.808 527.495 173.56L528.759 173.144C528.391 171.912 527.303 170.856 525.511 170.856 523.319 170.856 521.767 172.584 521.767 175.032 521.767 177.592 523.239 179.224 525.527 179.224zM533.534 179H535.358V177.8H533.71C533.15 177.8 532.91 177.56 532.91 177V172.232H535.07V171.08H532.91V168.6H531.549V171.08H529.71V172.232H531.549V177.08C531.549 178.392 532.222 179 533.534 179zM537.03 169.528H538.47V167.8H537.03V169.528zM537.078 179H538.438V171.08H537.078V179zM542.837 179H544.533L547.093 171.08H545.701L544.341 175.64 543.701 177.752C543.589 177.384 543.301 176.44 543.045 175.64L541.621 171.08H540.197L542.837 179zM551.468 179.224C552.86 179.224 553.628 178.456 554.012 177.784V179H555.34V171.08H553.98V172.312C553.596 171.64 552.86 170.856 551.468 170.856 549.644 170.856 548.252 172.44 548.252 175.048 548.252 177.656 549.644 179.224 551.468 179.224zM551.82 178.024C550.556 178.024 549.644 177.272 549.644 175.064 549.644 172.856 550.556 172.056 551.82 172.056 553.116 172.056 554.06 173.064 554.06 175.064 554.06 177.064 553.116 178.024 551.82 178.024zM560.784 179H562.608V177.8H560.96C560.4 177.8 560.16 177.56 560.16 177V172.232H562.32V171.08H560.16V168.6H558.799V171.08H556.96V172.232H558.799V177.08C558.799 178.392 559.472 179 560.784 179zM567.242 179.224C568.73 179.224 570.058 178.552 570.65 176.936L569.402 176.504C569.194 177.016 568.634 178.04 567.29 178.04 566.186 178.04 565.082 177.4 565.002 175.4H570.586C570.89 172.808 569.466 170.856 567.162 170.856 565.146 170.856 563.658 172.472 563.658 175.08 563.658 177.768 565.082 179.224 567.242 179.224zM565.034 174.264C565.146 172.824 566.122 171.976 567.162 171.976 568.25 171.976 569.194 172.76 569.194 174.264H565.034zM575.39 179.224C576.782 179.224 577.55 178.456 577.934 177.784V179H579.262V167.8H577.902V170.76 172.312C577.518 171.64 576.782 170.856 575.39 170.856 573.566 170.856 572.174 172.44 572.174 175.048 572.174 177.656 573.566 179.224 575.39 179.224zM575.742 178.024C574.478 178.024 573.566 177.272 573.566 175.064 573.566 172.856 574.478 172.056 575.742 172.056 577.038 172.056 577.982 173.064 577.982 175.064 577.982 177.064 577.038 178.024 575.742 178.024zM587.508 179H589.044L590.292 175.096C590.772 173.592 590.932 173.096 591.092 172.616L591.876 175.096 593.092 179H594.676L597.364 171.08H595.924L594.676 175.032C594.212 176.488 594.004 177.128 593.876 177.496L593.252 175.464 591.892 171.08H590.324L589.092 175.032 588.324 177.496C588.196 177.064 588.036 176.552 587.556 175.032L586.324 171.08H584.9L587.508 179zM601.687 179.224C603.079 179.224 603.847 178.456 604.231 177.784V179H605.559V171.08H604.199V172.312C603.815 171.64 603.079 170.856 601.687 170.856 599.863 170.856 598.471 172.44 598.471 175.048 598.471 177.656 599.863 179.224 601.687 179.224zM602.039 178.024C600.775 178.024 599.863 177.272 599.863 175.064 599.863 172.856 600.775 172.056 602.039 172.056 603.335 172.056 604.279 173.064 604.279 175.064 604.279 177.064 603.335 178.024 602.039 178.024zM608.25 179H609.61V175.368C609.61 173.512 610.346 172.376 612.138 172.376 612.458 172.376 612.73 172.408 612.986 172.456V171.064C612.794 171.016 612.554 170.968 612.17 170.968 610.666 170.968 609.85 172.136 609.594 172.728V171.08H608.25V179zM614.594 182.12H615.954V179.32 177.768C616.338 178.44 617.074 179.224 618.466 179.224 620.29 179.224 621.682 177.64 621.682 175.032 621.682 172.424 620.29 170.856 618.466 170.856 617.074 170.856 616.306 171.624 615.922 172.296V171.08H614.594V182.12zM618.114 178.024C616.818 178.024 615.874 177.016 615.874 175.016 615.874 173.016 616.818 172.056 618.114 172.056 619.378 172.056 620.29 172.808 620.29 175.016 620.29 177.224 619.378 178.024 618.114 178.024zM318.016 206.224C320.016 206.224 321.168 205.28 321.168 203.792 321.168 201.984 319.296 201.504 318.496 201.344L317.584 201.168C316.448 200.944 316.192 200.624 316.192 200.096 316.192 199.52 316.704 198.976 317.808 198.976 319.152 198.976 319.6 199.824 319.792 200.352L321.024 199.904C320.704 198.864 319.776 197.856 317.808 197.856 316.256 197.856 314.912 198.816 314.912 200.24 314.912 201.744 316.064 202.24 317.376 202.496L318.288 202.672C319.44 202.896 319.808 203.312 319.808 203.904 319.808 204.656 319.168 205.056 318.016 205.056 316.768 205.056 316.128 204.464 315.888 203.52L314.576 203.952C314.928 205.472 316.4 206.224 318.016 206.224zM323.203 209.12H324.563V206.32 204.768C324.947 205.44 325.683 206.224 327.075 206.224 328.899 206.224 330.291 204.64 330.291 202.032 330.291 199.424 328.899 197.856 327.075 197.856 325.683 197.856 324.915 198.624 324.531 199.296V198.08H323.203V209.12zM326.723 205.024C325.427 205.024 324.483 204.016 324.483 202.016 324.483 200.016 325.427 199.056 326.723 199.056 327.987 199.056 328.899 199.808 328.899 202.016 328.899 204.224 327.987 205.024 326.723 205.024zM335.383 206.224C336.871 206.224 338.199 205.552 338.791 203.936L337.543 203.504C337.335 204.016 336.775 205.04 335.431 205.04 334.327 205.04 333.223 204.4 333.143 202.4H338.727C339.031 199.808 337.607 197.856 335.303 197.856 333.287 197.856 331.799 199.472 331.799 202.08 331.799 204.768 333.223 206.224 335.383 206.224zM333.175 201.264C333.287 199.824 334.263 198.976 335.303 198.976 336.391 198.976 337.335 199.76 337.335 201.264H333.175zM343.899 206.224C345.387 206.224 346.715 205.552 347.307 203.936L346.059 203.504C345.851 204.016 345.291 205.04 343.947 205.04 342.843 205.04 341.739 204.4 341.659 202.4H347.243C347.547 199.808 346.123 197.856 343.819 197.856 341.803 197.856 340.315 199.472 340.315 202.08 340.315 204.768 341.739 206.224 343.899 206.224zM341.691 201.264C341.803 199.824 342.779 198.976 343.819 198.976 344.907 198.976 345.851 199.76 345.851 201.264H341.691zM352.046 206.224C353.438 206.224 354.206 205.456 354.59 204.784V206H355.918V194.8H354.558V197.76 199.312C354.174 198.64 353.438 197.856 352.046 197.856 350.222 197.856 348.83 199.44 348.83 202.048 348.83 204.656 350.222 206.224 352.046 206.224zM352.398 205.024C351.134 205.024 350.222 204.272 350.222 202.064 350.222 199.856 351.134 199.056 352.398 199.056 353.694 199.056 354.638 200.064 354.638 202.064 354.638 204.064 353.694 205.024 352.398 205.024zM358.37 206H360.29V204H358.37V206zM367.179 206H368.619V201.552H371.611C373.979 201.552 375.307 200.16 375.307 198.176 375.307 196.192 373.995 194.8 371.627 194.8H367.179V206zM368.619 200.272V196.16H371.355C373.035 196.16 373.787 196.992 373.787 198.176 373.787 199.36 373.003 200.272 371.355 200.272H368.619zM377.157 206H378.517V194.8H377.157V206zM384.195 206.224C385.683 206.224 387.011 205.552 387.603 203.936L386.355 203.504C386.147 204.016 385.587 205.04 384.243 205.04 383.139 205.04 382.035 204.4 381.955 202.4H387.539C387.843 199.808 386.419 197.856 384.115 197.856 382.099 197.856 380.611 199.472 380.611 202.08 380.611 204.768 382.035 206.224 384.195 206.224zM381.987 201.264C382.099 199.824 383.075 198.976 384.115 198.976 385.203 198.976 386.147 199.76 386.147 201.264H381.987zM392.343 206.224C393.735 206.224 394.503 205.456 394.887 204.784V206H396.215V198.08H394.855V199.312C394.471 198.64 393.735 197.856 392.343 197.856 390.519 197.856 389.127 199.44 389.127 202.048 389.127 204.656 390.519 206.224 392.343 206.224zM392.695 205.024C391.431 205.024 390.519 204.272 390.519 202.064 390.519 199.856 391.431 199.056 392.695 199.056 393.991 199.056 394.935 200.064 394.935 202.064 394.935 204.064 393.991 205.024 392.695 205.024zM401.579 206.224C403.579 206.224 404.731 205.28 404.731 203.792 404.731 201.984 402.859 201.504 402.059 201.344L401.147 201.168C400.011 200.944 399.755 200.624 399.755 200.096 399.755 199.52 400.267 198.976 401.371 198.976 402.715 198.976 403.163 199.824 403.355 200.352L404.587 199.904C404.267 198.864 403.339 197.856 401.371 197.856 399.819 197.856 398.475 198.816 398.475 200.24 398.475 201.744 399.627 202.24 400.939 202.496L401.851 202.672C403.003 202.896 403.371 203.312 403.371 203.904 403.371 204.656 402.731 205.056 401.579 205.056 400.331 205.056 399.691 204.464 399.451 203.52L398.139 203.952C398.491 205.472 399.963 206.224 401.579 206.224zM409.758 206.224C411.246 206.224 412.574 205.552 413.166 203.936L411.918 203.504C411.71 204.016 411.15 205.04 409.806 205.04 408.702 205.04 407.598 204.4 407.518 202.4H413.102C413.406 199.808 411.982 197.856 409.678 197.856 407.662 197.856 406.174 199.472 406.174 202.08 406.174 204.768 407.598 206.224 409.758 206.224zM407.55 201.264C407.662 199.824 408.638 198.976 409.678 198.976 410.766 198.976 411.71 199.76 411.71 201.264H407.55zM423.294 206.224C425.118 206.224 426.51 204.64 426.51 202.032 426.51 199.424 425.118 197.856 423.294 197.856 421.902 197.856 421.166 198.624 420.782 199.296V197.76 194.8H419.422V206H420.75V204.768C421.134 205.44 421.902 206.224 423.294 206.224zM422.942 205.024C421.646 205.024 420.702 204.016 420.702 202.016 420.702 200.016 421.646 199.056 422.942 199.056 424.206 199.056 425.118 199.808 425.118 202.016 425.118 204.224 424.206 205.024 422.942 205.024zM431.138 206.224C432.786 206.224 433.538 205.056 433.778 204.624V206H435.106V198.08H433.746V201.44C433.746 202.656 433.714 205.024 431.57 205.024 430.53 205.024 429.858 204.416 429.858 202.928V198.08H428.498V203.248C428.498 205.008 429.282 206.224 431.138 206.224zM440.949 206.224C442.725 206.224 443.877 205.184 444.389 203.712L443.109 203.264C442.853 204.128 442.261 205.024 440.949 205.024 439.637 205.024 438.613 204.064 438.613 202.032 438.613 200.048 439.669 199.056 440.933 199.056 442.085 199.056 442.661 199.808 442.917 200.56L444.181 200.144C443.813 198.912 442.725 197.856 440.933 197.856 438.741 197.856 437.189 199.584 437.189 202.032 437.189 204.592 438.661 206.224 440.949 206.224zM452.075 206H453.819L450.011 201.392 453.579 198.08H451.771L447.563 202.16V199.568 194.8H446.203V206H447.563V203.664L449.067 202.288 452.075 206zM455.219 206H456.579V194.8H455.219V206zM462.258 206.224C463.746 206.224 465.074 205.552 465.666 203.936L464.418 203.504C464.21 204.016 463.65 205.04 462.306 205.04 461.202 205.04 460.098 204.4 460.018 202.4H465.602C465.906 199.808 464.482 197.856 462.178 197.856 460.162 197.856 458.674 199.472 458.674 202.08 458.674 204.768 460.098 206.224 462.258 206.224zM460.05 201.264C460.162 199.824 461.138 198.976 462.178 198.976 463.266 198.976 464.21 199.76 464.21 201.264H460.05zM476.425 198.08L474.985 202.416C474.665 203.376 474.569 203.664 474.425 204.128 474.265 203.712 474.137 203.392 473.641 202.192L471.945 198.08H470.409L473.833 205.904 473.385 207.168C473.177 207.76 472.825 207.872 472.297 207.872H470.793V209.12H472.297C473.689 209.12 474.265 208.656 474.793 207.088L477.865 198.08H476.425zM482.572 206.224C484.652 206.224 486.252 204.432 486.252 202.048 486.252 199.664 484.716 197.856 482.572 197.856 480.428 197.856 478.892 199.664 478.892 202.048 478.892 204.432 480.492 206.224 482.572 206.224zM482.572 205.024C481.228 205.024 480.3 204.064 480.3 202.064 480.3 200.064 481.228 199.056 482.572 199.056 483.916 199.056 484.844 200.064 484.844 202.064 484.844 204.064 483.916 205.024 482.572 205.024zM490.841 206.224C492.489 206.224 493.241 205.056 493.481 204.624V206H494.809V198.08H493.449V201.44C493.449 202.656 493.417 205.024 491.273 205.024 490.233 205.024 489.561 204.416 489.561 202.928V198.08H488.201V203.248C488.201 205.008 488.985 206.224 490.841 206.224zM497.5 206H498.86V202.368C498.86 200.512 499.596 199.376 501.388 199.376 501.708 199.376 501.98 199.408 502.236 199.456V198.064C502.044 198.016 501.804 197.968 501.42 197.968 499.916 197.968 499.1 199.136 498.844 199.728V198.08H497.5V206zM510.219 206.224C512.219 206.224 513.371 205.28 513.371 203.792 513.371 201.984 511.499 201.504 510.699 201.344L509.787 201.168C508.651 200.944 508.395 200.624 508.395 200.096 508.395 199.52 508.907 198.976 510.011 198.976 511.355 198.976 511.803 199.824 511.995 200.352L513.227 199.904C512.907 198.864 511.979 197.856 510.011 197.856 508.459 197.856 507.115 198.816 507.115 200.24 507.115 201.744 508.267 202.24 509.579 202.496L510.491 202.672C511.643 202.896 512.011 203.312 512.011 203.904 512.011 204.656 511.371 205.056 510.219 205.056 508.971 205.056 508.331 204.464 508.091 203.52L506.779 203.952C507.131 205.472 508.603 206.224 510.219 206.224zM518.399 206.224C519.887 206.224 521.215 205.552 521.807 203.936L520.559 203.504C520.351 204.016 519.791 205.04 518.447 205.04 517.343 205.04 516.239 204.4 516.159 202.4H521.743C522.047 199.808 520.623 197.856 518.319 197.856 516.303 197.856 514.815 199.472 514.815 202.08 514.815 204.768 516.239 206.224 518.399 206.224zM516.191 201.264C516.303 199.824 517.279 198.976 518.319 198.976 519.407 198.976 520.351 199.76 520.351 201.264H516.191zM526.546 206.224C527.938 206.224 528.706 205.456 529.09 204.784V206H530.418V198.08H529.058V199.312C528.674 198.64 527.938 197.856 526.546 197.856 524.722 197.856 523.33 199.44 523.33 202.048 523.33 204.656 524.722 206.224 526.546 206.224zM526.898 205.024C525.634 205.024 524.722 204.272 524.722 202.064 524.722 199.856 525.634 199.056 526.898 199.056 528.194 199.056 529.138 200.064 529.138 202.064 529.138 204.064 528.194 205.024 526.898 205.024zM535.862 206H537.686V204.8H536.038C535.478 204.8 535.238 204.56 535.238 204V199.232H537.398V198.08H535.238V195.6H533.878V198.08H532.038V199.232H533.878V204.08C533.878 205.392 534.55 206 535.862 206zM543.279 206.224C545.103 206.224 546.495 204.64 546.495 202.032 546.495 199.424 545.103 197.856 543.279 197.856 541.887 197.856 541.151 198.624 540.767 199.296V197.76 194.8H539.407V206H540.735V204.768C541.119 205.44 541.887 206.224 543.279 206.224zM542.927 205.024C541.631 205.024 540.687 204.016 540.687 202.016 540.687 200.016 541.631 199.056 542.927 199.056 544.191 199.056 545.103 199.808 545.103 202.016 545.103 204.224 544.191 205.024 542.927 205.024zM551.586 206.224C553.074 206.224 554.402 205.552 554.994 203.936L553.746 203.504C553.538 204.016 552.978 205.04 551.634 205.04 550.53 205.04 549.426 204.4 549.346 202.4H554.93C555.234 199.808 553.81 197.856 551.506 197.856 549.49 197.856 548.002 199.472 548.002 202.08 548.002 204.768 549.426 206.224 551.586 206.224zM549.378 201.264C549.49 199.824 550.466 198.976 551.506 198.976 552.594 198.976 553.538 199.76 553.538 201.264H549.378zM557.11 206H558.47V194.8H557.11V206zM563.909 206H565.733V204.8H564.085C563.525 204.8 563.285 204.56 563.285 204V199.232H565.445V198.08H563.285V195.6H561.924V198.08H560.085V199.232H561.924V204.08C561.924 205.392 562.597 206 563.909 206zM567.213 206H569.133V204H567.213V206zM668.323 130.118C667.892 130.549 667.892 131.247 668.323 131.677 668.753 132.108 669.451 132.108 669.882 131.677L673 128.559 676.118 131.677C676.549 132.108 677.247 132.108 677.677 131.677 678.108 131.247 678.108 130.549 677.677 130.118L674.559 127 677.677 123.882C678.108 123.451 678.108 122.753 677.677 122.323 677.247 121.892 676.549 121.892 676.118 122.323L673 125.441 669.882 122.323C669.451 121.892 668.753 121.892 668.323 122.323 667.892 122.753 667.892 123.451 668.323 123.882L671.441 127 668.323 130.118z" fill="#fff"/></g><path d="M291 49C291 48.4477 290.552 48 290 48 289.448 48 289 48.4477 289 49L291 49zM289.293 129.707C289.683 130.098 290.317 130.098 290.707 129.707L297.071 123.343C297.462 122.953 297.462 122.319 297.071 121.929 296.681 121.538 296.047 121.538 295.657 121.929L290 127.586 284.343 121.929C283.953 121.538 283.319 121.538 282.929 121.929 282.538 122.319 282.538 122.953 282.929 123.343L289.293 129.707zM289 49L289 129 291 129 291 49 289 49zM373 49C373 48.4477 372.552 48 372 48 371.448 48 371 48.4477 371 49L373 49zM371.293 129.707C371.683 130.098 372.317 130.098 372.707 129.707L379.071 123.343C379.462 122.953 379.462 122.319 379.071 121.929 378.681 121.538 378.047 121.538 377.657 121.929L372 127.586 366.343 121.929C365.953 121.538 365.319 121.538 364.929 121.929 364.538 122.319 364.538 122.953 364.929 123.343L371.293 129.707zM371 49L371 129 373 129 373 49 371 49z" fill="#DA372C"/><path d="M248.57 60H250.01V48.8H248.57V60zM256.027 60.224C257.803 60.224 258.955 59.184 259.467 57.712L258.187 57.264C257.931 58.128 257.339 59.024 256.027 59.024 254.715 59.024 253.691 58.064 253.691 56.032 253.691 54.048 254.747 53.056 256.011 53.056 257.163 53.056 257.739 53.808 257.995 54.56L259.259 54.144C258.891 52.912 257.803 51.856 256.011 51.856 253.819 51.856 252.267 53.584 252.267 56.032 252.267 58.592 253.739 60.224 256.027 60.224zM264.338 60.224C266.418 60.224 268.017 58.432 268.017 56.048 268.017 53.664 266.482 51.856 264.338 51.856 262.194 51.856 260.658 53.664 260.658 56.048 260.658 58.432 262.258 60.224 264.338 60.224zM264.338 59.024C262.994 59.024 262.066 58.064 262.066 56.064 262.066 54.064 262.994 53.056 264.338 53.056 265.682 53.056 266.61 54.064 266.61 56.064 266.61 58.064 265.682 59.024 264.338 59.024zM270.078 60H271.438V56.64C271.438 55.472 271.486 53.056 273.662 53.056 274.718 53.056 275.406 53.664 275.406 55.152V60H276.766V54.832C276.766 53.072 275.966 51.856 273.998 51.856 272.286 51.856 271.518 53.072 271.406 53.424V52.08H270.078V60zM331.347 60H332.787V50.16H336.931V48.8H327.363V50.16H331.347V60zM338.39 50.528H339.83V48.8H338.39V50.528zM338.438 60H339.798V52.08H338.438V60zM345.237 60H347.061V58.8H345.413C344.853 58.8 344.613 58.56 344.613 58V53.232H346.773V52.08H344.613V49.6H343.253V52.08H341.413V53.232H343.253V58.08C343.253 59.392 343.925 60 345.237 60zM348.782 60H350.142V48.8H348.782V60zM355.82 60.224C357.308 60.224 358.636 59.552 359.228 57.936L357.98 57.504C357.772 58.016 357.212 59.04 355.868 59.04 354.764 59.04 353.66 58.4 353.58 56.4H359.164C359.468 53.808 358.044 51.856 355.74 51.856 353.724 51.856 352.236 53.472 352.236 56.08 352.236 58.768 353.66 60.224 355.82 60.224zM353.612 55.264C353.724 53.824 354.7 52.976 355.74 52.976 356.828 52.976 357.772 53.76 357.772 55.264H353.612z" fill="#6E6E78"/><path d="M405 300L405 301L407 301L407 300L405 300ZM406.707 222.293C406.317 221.902 405.683 221.902 405.293 222.293L398.929 228.657C398.538 229.047 398.538 229.681 398.929 230.071C399.319 230.462 399.953 230.462 400.343 230.071L406 224.414L411.657 230.071C412.047 230.462 412.681 230.462 413.071 230.071C413.462 229.681 413.462 229.047 413.071 228.657L406.707 222.293ZM407 300L407 223L405 223L405 300L407 300Z" fill="#DA372C"/><path d="M326.211 301H331.235C333.171 301 334.851 300.072 334.851 297.912C334.851 296.248 333.539 295.384 332.403 295.16C333.363 294.968 334.483 294.12 334.483 292.568C334.483 290.936 333.363 289.8 331.011 289.8H326.211V301ZM327.651 294.52V291.16H330.883C332.147 291.16 332.963 291.704 332.963 292.76C332.963 293.816 332.147 294.52 330.883 294.52H327.651ZM327.651 299.64V295.864H331.027C332.451 295.864 333.299 296.568 333.299 297.72C333.299 298.872 332.451 299.64 331.027 299.64H327.651ZM340.15 301.224C342.23 301.224 343.83 299.432 343.83 297.048C343.83 294.664 342.294 292.856 340.15 292.856C338.006 292.856 336.47 294.664 336.47 297.048C336.47 299.432 338.07 301.224 340.15 301.224ZM340.15 300.024C338.806 300.024 337.878 299.064 337.878 297.064C337.878 295.064 338.806 294.056 340.15 294.056C341.494 294.056 342.422 295.064 342.422 297.064C342.422 299.064 341.494 300.024 340.15 300.024ZM348.515 301.224C349.907 301.224 350.675 300.456 351.059 299.784V301H352.387V289.8H351.027V292.76V294.312C350.643 293.64 349.907 292.856 348.515 292.856C346.691 292.856 345.299 294.44 345.299 297.048C345.299 299.656 346.691 301.224 348.515 301.224ZM348.867 300.024C347.603 300.024 346.691 299.272 346.691 297.064C346.691 294.856 347.603 294.056 348.867 294.056C350.163 294.056 351.107 295.064 351.107 297.064C351.107 299.064 350.163 300.024 348.867 300.024ZM359.862 293.08L358.422 297.416C358.102 298.376 358.006 298.664 357.862 299.128C357.702 298.712 357.574 298.392 357.078 297.192L355.382 293.08H353.846L357.27 300.904L356.822 302.168C356.614 302.76 356.262 302.872 355.734 302.872H354.23V304.12H355.734C357.126 304.12 357.702 303.656 358.23 302.088L361.302 293.08H359.862ZM369.409 301H371.233V299.8H369.585C369.025 299.8 368.785 299.56 368.785 299V294.232H370.945V293.08H368.785V290.6H367.424V293.08H365.585V294.232H367.424V299.08C367.424 300.392 368.097 301 369.409 301ZM375.867 301.224C377.355 301.224 378.683 300.552 379.275 298.936L378.027 298.504C377.819 299.016 377.259 300.04 375.915 300.04C374.811 300.04 373.707 299.4 373.627 297.4H379.211C379.515 294.808 378.091 292.856 375.787 292.856C373.771 292.856 372.283 294.472 372.283 297.08C372.283 299.768 373.707 301.224 375.867 301.224ZM373.659 296.264C373.771 294.824 374.747 293.976 375.787 293.976C376.875 293.976 377.819 294.76 377.819 296.264H373.659ZM380.273 301H381.761L382.769 299.496L383.777 297.976C384.001 298.328 384.177 298.6 384.769 299.496L385.761 301H387.393L384.641 296.968L387.233 293.08H385.729L384.865 294.44C384.257 295.384 384.065 295.672 383.841 295.992C383.649 295.672 383.473 295.384 382.881 294.44L382.017 293.08H380.433L382.993 296.952L380.273 301ZM391.799 301H393.623V299.8H391.975C391.415 299.8 391.175 299.56 391.175 299V294.232H393.335V293.08H391.175V290.6H389.815V293.08H387.975V294.232H389.815V299.08C389.815 300.392 390.487 301 391.799 301Z" fill="#6E6E78"/><path d="M674 49C674 48.4477 673.552 48 673 48C672.448 48 672 48.4477 672 49L674 49ZM672.293 118.707C672.683 119.098 673.317 119.098 673.707 118.707L680.071 112.343C680.462 111.953 680.462 111.319 680.071 110.929C679.681 110.538 679.047 110.538 678.657 110.929L673 116.586L667.343 110.929C666.953 110.538 666.319 110.538 665.929 110.929C665.538 111.319 665.538 111.953 665.929 112.343L672.293 118.707ZM672 49L672 118L674 118L674 49L672 49Z" fill="#DA372C"/><path d="M605.086 60H608.846C612.222 60 614.254 57.888 614.254 54.368C614.254 51.04 612.158 48.8 608.958 48.8H605.086V60ZM606.526 58.64V50.16H608.702C611.422 50.16 612.734 51.84 612.734 54.368C612.734 57.168 611.39 58.64 608.59 58.64H606.526ZM616.421 50.528H617.861V48.8H616.421V50.528ZM616.469 60H617.829V52.08H616.469V60ZM623.188 60.224C625.188 60.224 626.34 59.28 626.34 57.792C626.34 55.984 624.468 55.504 623.668 55.344L622.756 55.168C621.62 54.944 621.364 54.624 621.364 54.096C621.364 53.52 621.876 52.976 622.98 52.976C624.324 52.976 624.772 53.824 624.964 54.352L626.196 53.904C625.876 52.864 624.948 51.856 622.98 51.856C621.428 51.856 620.084 52.816 620.084 54.24C620.084 55.744 621.236 56.24 622.548 56.496L623.46 56.672C624.612 56.896 624.98 57.312 624.98 57.904C624.98 58.656 624.34 59.056 623.188 59.056C621.94 59.056 621.3 58.464 621.06 57.52L619.748 57.952C620.1 59.472 621.572 60.224 623.188 60.224ZM628.375 60H629.735V56.32C629.735 55.184 629.831 53.072 631.767 53.072C632.823 53.072 633.527 53.616 633.527 55.152V60H634.855V56.32C634.855 55.184 634.903 53.072 636.903 53.072C637.959 53.072 638.647 53.616 638.647 55.152V60H640.007V54.752C640.007 52.912 639.047 51.856 637.239 51.856C635.559 51.856 634.855 52.896 634.583 53.552C634.183 52.48 633.255 51.856 632.087 51.856C630.663 51.856 629.991 52.768 629.703 53.28V52.08H628.375V60ZM642.53 50.528H643.97V48.8H642.53V50.528ZM642.578 60H643.938V52.08H642.578V60ZM649.297 60.224C651.297 60.224 652.449 59.28 652.449 57.792C652.449 55.984 650.577 55.504 649.777 55.344L648.865 55.168C647.729 54.944 647.473 54.624 647.473 54.096C647.473 53.52 647.985 52.976 649.089 52.976C650.433 52.976 650.881 53.824 651.073 54.352L652.305 53.904C651.985 52.864 651.057 51.856 649.089 51.856C647.537 51.856 646.193 52.816 646.193 54.24C646.193 55.744 647.345 56.24 648.657 56.496L649.569 56.672C650.721 56.896 651.089 57.312 651.089 57.904C651.089 58.656 650.449 59.056 649.297 59.056C648.049 59.056 647.409 58.464 647.169 57.52L645.857 57.952C646.209 59.472 647.681 60.224 649.297 60.224ZM657.157 60.224C659.157 60.224 660.309 59.28 660.309 57.792C660.309 55.984 658.437 55.504 657.637 55.344L656.725 55.168C655.589 54.944 655.333 54.624 655.333 54.096C655.333 53.52 655.845 52.976 656.949 52.976C658.293 52.976 658.741 53.824 658.933 54.352L660.165 53.904C659.845 52.864 658.917 51.856 656.949 51.856C655.397 51.856 654.053 52.816 654.053 54.24C654.053 55.744 655.205 56.24 656.517 56.496L657.429 56.672C658.581 56.896 658.949 57.312 658.949 57.904C658.949 58.656 658.309 59.056 657.157 59.056C655.909 59.056 655.269 58.464 655.029 57.52L653.717 57.952C654.069 59.472 655.541 60.224 657.157 60.224Z" fill="#6E6E78"/><path d="M708.707 205.293C708.317 204.902 707.683 204.902 707.293 205.293L700.929 211.657C700.538 212.047 700.538 212.681 700.929 213.071C701.319 213.462 701.953 213.462 702.343 213.071L708 207.414L713.657 213.071C714.047 213.462 714.681 213.462 715.071 213.071C715.462 212.681 715.462 212.047 715.071 211.657L708.707 205.293ZM692 254L692 255L692 254ZM659.293 253.293C658.902 253.683 658.902 254.317 659.293 254.707L665.657 261.071C666.047 261.462 666.681 261.462 667.071 261.071C667.462 260.681 667.462 260.047 667.071 259.657L661.414 254L667.071 248.343C667.462 247.953 667.462 247.319 667.071 246.929C666.681 246.538 666.047 246.538 665.657 246.929L659.293 253.293ZM709 238L709 206L707 206L707 238L709 238ZM692 253L660 253L660 255L692 255L692 253ZM707 238C707 246.284 700.284 253 692 253L692 255C701.389 255 709 247.389 709 238L707 238Z" fill="#DA372C"/><path d="M725.712 254H727.136V250.896H728.768V249.648H727.136V242.8H724.912L720.48 249.504V250.896H725.712V254ZM725.712 249.648H724.064H721.936L725.712 243.936V246.384V249.648ZM730.688 257.12H732.048V254.32V252.768C732.432 253.44 733.168 254.224 734.56 254.224C736.384 254.224 737.776 252.64 737.776 250.032C737.776 247.424 736.384 245.856 734.56 245.856C733.168 245.856 732.4 246.624 732.016 247.296V246.08H730.688V257.12ZM734.208 253.024C732.912 253.024 731.968 252.016 731.968 250.016C731.968 248.016 732.912 247.056 734.208 247.056C735.472 247.056 736.384 247.808 736.384 250.016C736.384 252.224 735.472 253.024 734.208 253.024ZM738.726 254H740.214L741.222 252.496L742.23 250.976C742.454 251.328 742.63 251.6 743.222 252.496L744.214 254H745.846L743.094 249.968L745.686 246.08H744.182L743.318 247.44C742.71 248.384 742.518 248.672 742.294 248.992C742.102 248.672 741.926 248.384 741.334 247.44L740.47 246.08H738.886L741.446 249.952L738.726 254ZM754.793 254.224C756.569 254.224 757.721 253.184 758.233 251.712L756.953 251.264C756.697 252.128 756.105 253.024 754.793 253.024C753.481 253.024 752.457 252.064 752.457 250.032C752.457 248.048 753.513 247.056 754.777 247.056C755.929 247.056 756.505 247.808 756.761 248.56L758.025 248.144C757.657 246.912 756.569 245.856 754.777 245.856C752.585 245.856 751.033 247.584 751.033 250.032C751.033 252.592 752.505 254.224 754.793 254.224ZM763.103 254.224C765.183 254.224 766.783 252.432 766.783 250.048C766.783 247.664 765.247 245.856 763.103 245.856C760.959 245.856 759.423 247.664 759.423 250.048C759.423 252.432 761.023 254.224 763.103 254.224ZM763.103 253.024C761.759 253.024 760.831 252.064 760.831 250.064C760.831 248.064 761.759 247.056 763.103 247.056C764.447 247.056 765.375 248.064 765.375 250.064C765.375 252.064 764.447 253.024 763.103 253.024ZM768.844 254H770.204V250.368C770.204 248.512 770.94 247.376 772.732 247.376C773.052 247.376 773.324 247.408 773.58 247.456V246.064C773.388 246.016 773.148 245.968 772.764 245.968C771.26 245.968 770.444 247.136 770.188 247.728V246.08H768.844V254ZM775.188 254H776.548V250.64C776.548 249.472 776.596 247.056 778.772 247.056C779.828 247.056 780.516 247.664 780.516 249.152V254H781.876V248.832C781.876 247.072 781.076 245.856 779.108 245.856C777.396 245.856 776.628 247.072 776.516 247.424V246.08H775.188V254ZM787.445 254.224C788.933 254.224 790.261 253.552 790.853 251.936L789.605 251.504C789.397 252.016 788.837 253.04 787.493 253.04C786.389 253.04 785.285 252.4 785.205 250.4H790.789C791.093 247.808 789.669 245.856 787.365 245.856C785.349 245.856 783.861 247.472 783.861 250.08C783.861 252.768 785.285 254.224 787.445 254.224ZM785.237 249.264C785.349 247.824 786.325 246.976 787.365 246.976C788.453 246.976 789.397 247.76 789.397 249.264H785.237ZM792.969 254H794.329V250.368C794.329 248.512 795.065 247.376 796.857 247.376C797.177 247.376 797.449 247.408 797.705 247.456V246.064C797.513 246.016 797.273 245.968 796.889 245.968C795.385 245.968 794.569 247.136 794.313 247.728V246.08H792.969V254ZM803.016 254H804.376V250.368C804.376 248.512 805.112 247.376 806.904 247.376C807.224 247.376 807.496 247.408 807.752 247.456V246.064C807.56 246.016 807.32 245.968 806.936 245.968C805.432 245.968 804.616 247.136 804.36 247.728V246.08H803.016V254ZM811.859 254.224C813.251 254.224 814.019 253.456 814.403 252.784V254H815.731V246.08H814.371V247.312C813.987 246.64 813.251 245.856 811.859 245.856C810.035 245.856 808.643 247.44 808.643 250.048C808.643 252.656 810.035 254.224 811.859 254.224ZM812.211 253.024C810.947 253.024 810.035 252.272 810.035 250.064C810.035 247.856 810.947 247.056 812.211 247.056C813.507 247.056 814.451 248.064 814.451 250.064C814.451 252.064 813.507 253.024 812.211 253.024ZM821.046 254.224C822.438 254.224 823.206 253.456 823.59 252.784V254H824.918V242.8H823.558V245.76V247.312C823.174 246.64 822.438 245.856 821.046 245.856C819.222 245.856 817.83 247.44 817.83 250.048C817.83 252.656 819.222 254.224 821.046 254.224ZM821.398 253.024C820.134 253.024 819.222 252.272 819.222 250.064C819.222 247.856 820.134 247.056 821.398 247.056C822.694 247.056 823.638 248.064 823.638 250.064C823.638 252.064 822.694 253.024 821.398 253.024ZM827.562 244.528H829.002V242.8H827.562V244.528ZM827.61 254H828.97V246.08H827.61V254ZM834.185 254.224C835.833 254.224 836.585 253.056 836.825 252.624V254H838.153V246.08H836.793V249.44C836.793 250.656 836.761 253.024 834.617 253.024C833.577 253.024 832.905 252.416 832.905 250.928V246.08H831.545V251.248C831.545 253.008 832.329 254.224 834.185 254.224ZM843.516 254.224C845.516 254.224 846.668 253.28 846.668 251.792C846.668 249.984 844.796 249.504 843.996 249.344L843.084 249.168C841.948 248.944 841.692 248.624 841.692 248.096C841.692 247.52 842.204 246.976 843.308 246.976C844.652 246.976 845.1 247.824 845.292 248.352L846.524 247.904C846.204 246.864 845.276 245.856 843.308 245.856C841.756 245.856 840.412 246.816 840.412 248.24C840.412 249.744 841.564 250.24 842.876 250.496L843.788 250.672C844.94 250.896 845.308 251.312 845.308 251.904C845.308 252.656 844.668 253.056 843.516 253.056C842.268 253.056 841.628 252.464 841.388 251.52L840.076 251.952C840.428 253.472 841.9 254.224 843.516 254.224Z" fill="#6E6E78"/><defs><filter id="filter0_d" x="254" y="104" width="450" height="154" filterUnits="userSpaceOnUse" color-interpolation-filters="sRGB"><feFlood flood-opacity="0" result="BackgroundImageFix"/><feColorMatrix in="SourceAlpha" values="0 0 0 0 0 0 0 0 0 0 0 0 0 0 0 0 0 0 127 0"/><feOffset dy="8"/><feGaussianBlur stdDeviation="6"/><feColorMatrix values="0 0 0 0 0.129412 0 0 0 0 0.129412 0 0 0 0 0.14902 0 0 0 0.12 0"/><feBlend in2="BackgroundImageFix" result="effect1_dropShadow"/><feBlend in="SourceGraphic" in2="effect1_dropShadow" result="shape"/></filter></defs></svg>