<svg width="958" height="347" viewBox="0 0 958 347" fill="none" xmlns="http://www.w3.org/2000/svg">
<g filter="url(#filter0_d)">
<path d="M267 113C267 110.791 268.791 109 271 109H689C691.209 109 693 110.791 693 113V235C693 237.209 691.209 239 689 239H271C268.791 239 267 237.209 267 235V113Z" fill="#008055"/>
<path fill-rule="evenodd" clip-rule="evenodd" d="M291 155C296.523 155 301 150.523 301 145C301 139.477 296.523 135 291 135C285.477 135 281 139.477 281 145C281 150.523 285.477 155 291 155ZM294.75 139.64L290.458 147.8L286.837 145.117C286.339 144.747 285.639 144.84 285.253 145.327C284.859 145.821 284.933 146.542 285.418 146.946L289.991 150.752C290.511 151.185 291.296 151.033 291.62 150.436L296.854 140.778C297.178 140.18 296.944 139.431 296.34 139.127C295.759 138.835 295.054 139.063 294.75 139.64Z" fill="white"/>
<path d="M319.288 152H321.368V147.36L325.336 140.8H322.952L321.464 143.456L320.376 145.392L319.24 143.472L317.656 140.8H315.224L319.288 147.376V152ZM328.781 152.24C331.101 152.24 332.797 150.544 332.797 148.016C332.797 145.52 331.117 143.792 328.781 143.792C326.445 143.792 324.765 145.52 324.765 148.016C324.765 150.448 326.461 152.24 328.781 152.24ZM328.781 150.656C327.597 150.656 326.781 149.824 326.781 148.048C326.781 146.272 327.597 145.376 328.781 145.376C329.965 145.376 330.765 146.272 330.765 148.048C330.765 149.824 329.965 150.656 328.781 150.656ZM337.038 152.24C338.606 152.24 339.342 151.216 339.662 150.688V152H341.598V144.032H339.646V147.776C339.646 149.056 339.358 150.608 337.838 150.608C336.99 150.608 336.462 150.112 336.462 148.88V144.032H334.51V149.344C334.51 151.088 335.39 152.24 337.038 152.24ZM343.965 152H345.917V148.64C345.917 146.688 346.637 145.872 348.333 145.872C348.621 145.872 348.909 145.888 349.197 145.936V143.936C349.053 143.904 348.893 143.888 348.669 143.888C346.893 143.888 346.141 145.152 345.885 145.792V144.032H343.965V152ZM357.001 152.24C358.377 152.24 359.241 151.472 359.609 150.88V152H361.513V140.8H359.561V143.712V145.152C359.193 144.56 358.361 143.792 357.001 143.792C354.985 143.792 353.625 145.456 353.625 148.016C353.625 150.576 354.985 152.24 357.001 152.24ZM357.641 150.704C356.505 150.704 355.657 150.016 355.657 148.016C355.657 146.032 356.505 145.328 357.641 145.328C358.825 145.328 359.657 146.224 359.657 148.016C359.657 149.824 358.825 150.704 357.641 150.704ZM367.343 152.24C369.663 152.24 371.359 150.544 371.359 148.016C371.359 145.52 369.679 143.792 367.343 143.792C365.007 143.792 363.327 145.52 363.327 148.016C363.327 150.448 365.023 152.24 367.343 152.24ZM367.343 150.656C366.159 150.656 365.343 149.824 365.343 148.048C365.343 146.272 366.159 145.376 367.343 145.376C368.527 145.376 369.327 146.272 369.327 148.048C369.327 149.824 368.527 150.656 367.343 150.656ZM373.168 152H375.12V148.368C375.12 147.392 375.152 145.424 376.944 145.424C377.824 145.424 378.384 145.936 378.384 147.136V152H380.336V146.704C380.336 144.96 379.552 143.792 377.648 143.792C376.096 143.792 375.328 144.832 375.072 145.296V144.032H373.168V152ZM385.054 152.24C386.622 152.24 387.358 151.216 387.678 150.688V152H389.614V144.032H387.662V147.776C387.662 149.056 387.374 150.608 385.854 150.608C385.006 150.608 384.478 150.112 384.478 148.88V144.032H382.526V149.344C382.526 151.088 383.406 152.24 385.054 152.24ZM394.797 152H397.165V150.4H395.469C394.957 150.4 394.733 150.176 394.733 149.664V145.552H396.845V144.032H394.733V141.52H392.781V144.032H391.053V145.552H392.781V149.968C392.781 151.232 393.501 152 394.797 152ZM401.659 152.224C403.883 152.224 405.179 151.216 405.179 149.664C405.179 148.032 403.707 147.424 402.443 147.184L401.419 146.976C400.459 146.8 400.203 146.544 400.203 146.096C400.203 145.616 400.635 145.2 401.515 145.2C402.507 145.2 403.035 145.808 403.259 146.416L404.907 145.712C404.571 144.816 403.579 143.792 401.579 143.792C399.659 143.792 398.347 144.784 398.347 146.272C398.347 147.824 399.371 148.352 400.923 148.656L401.979 148.864C402.923 149.056 403.163 149.408 403.163 149.856C403.163 150.416 402.667 150.784 401.739 150.784C400.299 150.784 399.915 149.808 399.819 149.36L398.011 149.936C398.363 151.392 399.867 152.224 401.659 152.224ZM410.825 152H412.777V148.368C412.777 147.392 412.809 145.424 414.601 145.424C415.481 145.424 416.041 145.936 416.041 147.136V152H417.993V146.704C417.993 144.96 417.177 143.792 415.401 143.792C413.753 143.792 413.033 144.832 412.777 145.296V143.712V140.8H410.825V152ZM422.342 152.24C423.686 152.24 424.534 151.568 425.014 150.816C425.11 151.52 425.462 152 426.47 152H427.974V150.464H427.222C426.806 150.464 426.742 150.368 426.742 149.984V146.768C426.742 144.816 425.542 143.792 423.35 143.792C421.11 143.792 419.862 144.96 419.67 146.144L421.478 146.608C421.67 145.904 422.166 145.28 423.35 145.28C424.374 145.28 424.822 145.744 424.822 146.528V146.8C422.182 147.04 419.798 147.728 419.798 149.952C419.798 151.36 420.854 152.24 422.342 152.24ZM422.982 150.768C422.182 150.768 421.782 150.368 421.782 149.76C421.782 148.624 423.174 148.272 424.822 148.08V148.72C424.822 150.144 423.926 150.768 422.982 150.768ZM430.949 152H433.301L436.085 144.032H434.101L432.933 147.76C432.501 149.152 432.245 149.92 432.133 150.304C432.005 149.936 431.765 149.184 431.285 147.76L430.069 144.032H428.021L430.949 152ZM440.794 152.24C442.89 152.24 444.01 151.152 444.522 149.92L442.762 149.264C442.474 149.936 441.946 150.704 440.81 150.704C439.786 150.704 438.922 150.112 438.842 148.496H444.474C444.73 145.856 443.306 143.792 440.762 143.792C438.554 143.792 436.906 145.472 436.906 148.016C436.906 150.672 438.442 152.24 440.794 152.24ZM438.906 147.056C439.05 145.904 439.802 145.248 440.762 145.248C441.77 145.248 442.474 145.888 442.538 147.056H438.906ZM454.774 152.24C456.806 152.24 458.166 150.56 458.166 148.016C458.166 145.456 456.806 143.792 454.79 143.792C453.414 143.792 452.582 144.576 452.214 145.152V143.712V140.8H450.262V152H452.166V150.864C452.55 151.488 453.398 152.24 454.774 152.24ZM454.15 150.704C452.966 150.704 452.118 149.808 452.118 148C452.118 146.208 452.966 145.328 454.15 145.328C455.286 145.328 456.134 146.016 456.134 148C456.134 150 455.286 150.704 454.15 150.704ZM463.341 152.24C465.437 152.24 466.557 151.152 467.069 149.92L465.309 149.264C465.021 149.936 464.493 150.704 463.357 150.704C462.333 150.704 461.469 150.112 461.389 148.496H467.021C467.277 145.856 465.853 143.792 463.309 143.792C461.101 143.792 459.453 145.472 459.453 148.016C459.453 150.672 460.989 152.24 463.341 152.24ZM461.453 147.056C461.597 145.904 462.349 145.248 463.309 145.248C464.317 145.248 465.021 145.888 465.085 147.056H461.453ZM472.247 152.24C474.343 152.24 475.463 151.152 475.975 149.92L474.215 149.264C473.927 149.936 473.399 150.704 472.263 150.704C471.239 150.704 470.375 150.112 470.295 148.496H475.927C476.183 145.856 474.759 143.792 472.215 143.792C470.007 143.792 468.359 145.472 468.359 148.016C468.359 150.672 469.895 152.24 472.247 152.24ZM470.359 147.056C470.503 145.904 471.255 145.248 472.215 145.248C473.223 145.248 473.927 145.888 473.991 147.056H470.359ZM477.809 152H479.761V148.368C479.761 147.392 479.793 145.424 481.585 145.424C482.465 145.424 483.025 145.936 483.025 147.136V152H484.977V146.704C484.977 144.96 484.193 143.792 482.289 143.792C480.737 143.792 479.969 144.832 479.713 145.296V144.032H477.809V152ZM494.624 152.24C496.944 152.24 498.64 150.544 498.64 148.016C498.64 145.52 496.96 143.792 494.624 143.792C492.288 143.792 490.608 145.52 490.608 148.016C490.608 150.448 492.304 152.24 494.624 152.24ZM494.624 150.656C493.44 150.656 492.624 149.824 492.624 148.048C492.624 146.272 493.44 145.376 494.624 145.376C495.808 145.376 496.608 146.272 496.608 148.048C496.608 149.824 495.808 150.656 494.624 150.656ZM500.45 152H502.402V148.64C502.402 146.688 503.122 145.872 504.818 145.872C505.106 145.872 505.394 145.888 505.682 145.936V143.936C505.538 143.904 505.378 143.888 505.154 143.888C503.378 143.888 502.626 145.152 502.37 145.792V144.032H500.45V152ZM509.845 152.24C511.221 152.24 512.085 151.472 512.453 150.88V152H514.357V140.8H512.405V143.712V145.152C512.037 144.56 511.205 143.792 509.845 143.792C507.829 143.792 506.469 145.456 506.469 148.016C506.469 150.576 507.829 152.24 509.845 152.24ZM510.485 150.704C509.349 150.704 508.501 150.016 508.501 148.016C508.501 146.032 509.349 145.328 510.485 145.328C511.669 145.328 512.501 146.224 512.501 148.016C512.501 149.824 511.669 150.704 510.485 150.704ZM520.075 152.24C522.171 152.24 523.291 151.152 523.803 149.92L522.043 149.264C521.755 149.936 521.227 150.704 520.091 150.704C519.067 150.704 518.203 150.112 518.123 148.496H523.755C524.011 145.856 522.587 143.792 520.043 143.792C517.835 143.792 516.187 145.472 516.187 148.016C516.187 150.672 517.723 152.24 520.075 152.24ZM518.187 147.056C518.331 145.904 519.083 145.248 520.043 145.248C521.051 145.248 521.755 145.888 521.819 147.056H518.187ZM525.637 152H527.589V148.64C527.589 146.688 528.309 145.872 530.005 145.872C530.293 145.872 530.581 145.888 530.869 145.936V143.936C530.725 143.904 530.565 143.888 530.341 143.888C528.565 143.888 527.813 145.152 527.557 145.792V144.032H525.637V152ZM535.528 152.24C537.624 152.24 538.744 151.152 539.256 149.92L537.496 149.264C537.208 149.936 536.68 150.704 535.544 150.704C534.52 150.704 533.656 150.112 533.576 148.496H539.208C539.464 145.856 538.04 143.792 535.496 143.792C533.288 143.792 531.64 145.472 531.64 148.016C531.64 150.672 533.176 152.24 535.528 152.24ZM533.64 147.056C533.784 145.904 534.536 145.248 535.496 145.248C536.504 145.248 537.208 145.888 537.272 147.056H533.64ZM543.938 152.24C545.314 152.24 546.178 151.472 546.546 150.88V152H548.45V140.8H546.498V143.712V145.152C546.13 144.56 545.298 143.792 543.938 143.792C541.922 143.792 540.562 145.456 540.562 148.016C540.562 150.576 541.922 152.24 543.938 152.24ZM544.578 150.704C543.442 150.704 542.594 150.016 542.594 148.016C542.594 146.032 543.442 145.328 544.578 145.328C545.762 145.328 546.594 146.224 546.594 148.016C546.594 149.824 545.762 150.704 544.578 150.704ZM551.449 148.176H552.345L552.969 143.696V140.8H550.841V143.68L551.449 148.176ZM550.713 152H553.097V149.664H550.713V152Z" fill="white"/>
<path d="M324.056 180H325.976L320.616 173.456L325.128 168.8H323.176L318.088 174.208V171.616V168.8H316.648V180H318.088V176.016L319.608 174.464L324.056 180ZM329.867 180.224C331.355 180.224 332.683 179.552 333.275 177.936L332.027 177.504C331.819 178.016 331.259 179.04 329.915 179.04C328.811 179.04 327.707 178.4 327.627 176.4H333.211C333.515 173.808 332.091 171.856 329.787 171.856C327.771 171.856 326.283 173.472 326.283 176.08C326.283 178.768 327.707 180.224 329.867 180.224ZM327.659 175.264C327.771 173.824 328.747 172.976 329.787 172.976C330.875 172.976 331.819 173.76 331.819 175.264H327.659ZM338.383 180.224C339.871 180.224 341.199 179.552 341.791 177.936L340.543 177.504C340.335 178.016 339.775 179.04 338.431 179.04C337.327 179.04 336.223 178.4 336.143 176.4H341.727C342.031 173.808 340.607 171.856 338.303 171.856C336.287 171.856 334.799 173.472 334.799 176.08C334.799 178.768 336.223 180.224 338.383 180.224ZM336.175 175.264C336.287 173.824 337.263 172.976 338.303 172.976C339.391 172.976 340.335 173.76 340.335 175.264H336.175ZM343.907 183.12H345.267V180.32V178.768C345.651 179.44 346.387 180.224 347.779 180.224C349.603 180.224 350.995 178.64 350.995 176.032C350.995 173.424 349.603 171.856 347.779 171.856C346.387 171.856 345.619 172.624 345.235 173.296V172.08H343.907V183.12ZM347.427 179.024C346.131 179.024 345.187 178.016 345.187 176.016C345.187 174.016 346.131 173.056 347.427 173.056C348.691 173.056 349.603 173.808 349.603 176.016C349.603 178.224 348.691 179.024 347.427 179.024ZM359.859 180.224C361.251 180.224 362.019 179.456 362.403 178.784V180H363.731V172.08H362.371V173.312C361.987 172.64 361.251 171.856 359.859 171.856C358.035 171.856 356.643 173.44 356.643 176.048C356.643 178.656 358.035 180.224 359.859 180.224ZM360.211 179.024C358.947 179.024 358.035 178.272 358.035 176.064C358.035 173.856 358.947 173.056 360.211 173.056C361.507 173.056 362.451 174.064 362.451 176.064C362.451 178.064 361.507 179.024 360.211 179.024ZM366.422 180H367.782V176.64C367.782 175.472 367.83 173.056 370.006 173.056C371.062 173.056 371.75 173.664 371.75 175.152V180H373.11V174.832C373.11 173.072 372.31 171.856 370.342 171.856C368.63 171.856 367.862 173.072 367.75 173.424V172.08H366.422V180ZM382.82 180.224C384.308 180.224 385.636 179.552 386.228 177.936L384.98 177.504C384.772 178.016 384.212 179.04 382.868 179.04C381.764 179.04 380.66 178.4 380.58 176.4H386.164C386.468 173.808 385.044 171.856 382.74 171.856C380.724 171.856 379.236 173.472 379.236 176.08C379.236 178.768 380.66 180.224 382.82 180.224ZM380.612 175.264C380.724 173.824 381.7 172.976 382.74 172.976C383.828 172.976 384.772 173.76 384.772 175.264H380.612ZM393.128 172.08L391.688 176.416C391.368 177.376 391.272 177.664 391.128 178.128C390.968 177.712 390.84 177.392 390.344 176.192L388.648 172.08H387.112L390.536 179.904L390.088 181.168C389.88 181.76 389.528 181.872 389 181.872H387.496V183.12H389C390.392 183.12 390.968 182.656 391.496 181.088L394.568 172.08H393.128ZM399.211 180.224C400.699 180.224 402.027 179.552 402.619 177.936L401.371 177.504C401.163 178.016 400.603 179.04 399.259 179.04C398.155 179.04 397.051 178.4 396.971 176.4H402.555C402.859 173.808 401.435 171.856 399.131 171.856C397.115 171.856 395.627 173.472 395.627 176.08C395.627 178.768 397.051 180.224 399.211 180.224ZM397.003 175.264C397.115 173.824 398.091 172.976 399.131 172.976C400.219 172.976 401.163 173.76 401.163 175.264H397.003ZM411.931 180.224C414.011 180.224 415.611 178.432 415.611 176.048C415.611 173.664 414.075 171.856 411.931 171.856C409.787 171.856 408.251 173.664 408.251 176.048C408.251 178.432 409.851 180.224 411.931 180.224ZM411.931 179.024C410.587 179.024 409.659 178.064 409.659 176.064C409.659 174.064 410.587 173.056 411.931 173.056C413.275 173.056 414.203 174.064 414.203 176.064C414.203 178.064 413.275 179.024 411.931 179.024ZM420.2 180.224C421.848 180.224 422.6 179.056 422.84 178.624V180H424.168V172.08H422.808V175.44C422.808 176.656 422.776 179.024 420.632 179.024C419.592 179.024 418.92 178.416 418.92 176.928V172.08H417.56V177.248C417.56 179.008 418.344 180.224 420.2 180.224ZM429.612 180H431.436V178.8H429.788C429.228 178.8 428.988 178.56 428.988 178V173.232H431.148V172.08H428.988V169.6H427.628V172.08H425.788V173.232H427.628V178.08C427.628 179.392 428.3 180 429.612 180ZM437.767 180H439.127V173.232H441.207V172.08H439.127V170.8C439.127 170.24 439.367 170 439.927 170H441.495V168.8H439.767C438.455 168.8 437.767 169.424 437.767 170.896V172.08H436.007V173.232H437.767V180ZM445.775 180.224C447.855 180.224 449.455 178.432 449.455 176.048C449.455 173.664 447.919 171.856 445.775 171.856C443.631 171.856 442.095 173.664 442.095 176.048C442.095 178.432 443.695 180.224 445.775 180.224ZM445.775 179.024C444.431 179.024 443.503 178.064 443.503 176.064C443.503 174.064 444.431 173.056 445.775 173.056C447.119 173.056 448.047 174.064 448.047 176.064C448.047 178.064 447.119 179.024 445.775 179.024ZM451.516 180H452.876V176.368C452.876 174.512 453.612 173.376 455.404 173.376C455.724 173.376 455.996 173.408 456.252 173.456V172.064C456.06 172.016 455.82 171.968 455.436 171.968C453.932 171.968 453.116 173.136 452.86 173.728V172.08H451.516V180ZM464.187 180.224C465.579 180.224 466.347 179.456 466.731 178.784V180H468.059V172.08H466.699V173.312C466.315 172.64 465.579 171.856 464.187 171.856C462.363 171.856 460.971 173.44 460.971 176.048C460.971 178.656 462.363 180.224 464.187 180.224ZM464.539 179.024C463.275 179.024 462.363 178.272 462.363 176.064C462.363 173.856 463.275 173.056 464.539 173.056C465.835 173.056 466.779 174.064 466.779 176.064C466.779 178.064 465.835 179.024 464.539 179.024ZM470.75 180H472.11V176.64C472.11 175.472 472.158 173.056 474.334 173.056C475.39 173.056 476.078 173.664 476.078 175.152V180H477.438V174.832C477.438 173.072 476.638 171.856 474.67 171.856C472.958 171.856 472.19 173.072 472.078 173.424V172.08H470.75V180ZM487.149 180.224C488.637 180.224 489.965 179.552 490.557 177.936L489.309 177.504C489.101 178.016 488.541 179.04 487.197 179.04C486.093 179.04 484.989 178.4 484.909 176.4H490.493C490.797 173.808 489.373 171.856 487.069 171.856C485.053 171.856 483.565 173.472 483.565 176.08C483.565 178.768 484.989 180.224 487.149 180.224ZM484.941 175.264C485.053 173.824 486.029 172.976 487.069 172.976C488.157 172.976 489.101 173.76 489.101 175.264H484.941ZM492.672 180H494.032V176.32C494.032 175.184 494.128 173.072 496.064 173.072C497.12 173.072 497.824 173.616 497.824 175.152V180H499.152V176.32C499.152 175.184 499.2 173.072 501.2 173.072C502.256 173.072 502.944 173.616 502.944 175.152V180H504.304V174.752C504.304 172.912 503.344 171.856 501.536 171.856C499.856 171.856 499.152 172.896 498.88 173.552C498.48 172.48 497.552 171.856 496.384 171.856C494.96 171.856 494.288 172.768 494 173.28V172.08H492.672V180ZM509.499 180.224C510.891 180.224 511.659 179.456 512.043 178.784V180H513.371V172.08H512.011V173.312C511.627 172.64 510.891 171.856 509.499 171.856C507.675 171.856 506.283 173.44 506.283 176.048C506.283 178.656 507.675 180.224 509.499 180.224ZM509.851 179.024C508.587 179.024 507.675 178.272 507.675 176.064C507.675 173.856 508.587 173.056 509.851 173.056C511.147 173.056 512.091 174.064 512.091 176.064C512.091 178.064 511.147 179.024 509.851 179.024ZM516.015 170.528H517.455V168.8H516.015V170.528ZM516.063 180H517.423V172.08H516.063V180ZM520.11 180H521.47V168.8H520.11V180ZM529.711 180H531.247L532.495 176.096C532.975 174.592 533.135 174.096 533.295 173.616L534.079 176.096L535.295 180H536.879L539.567 172.08H538.127L536.879 176.032C536.415 177.488 536.207 178.128 536.079 178.496L535.455 176.464L534.095 172.08H532.527L531.295 176.032L530.527 178.496C530.399 178.064 530.239 177.552 529.759 176.032L528.527 172.08H527.103L529.711 180ZM541.218 170.528H542.658V168.8H541.218V170.528ZM541.266 180H542.626V172.08H541.266V180ZM548.065 180H549.889V178.8H548.241C547.681 178.8 547.441 178.56 547.441 178V173.232H549.601V172.08H547.441V169.6H546.081V172.08H544.241V173.232H546.081V178.08C546.081 179.392 546.753 180 548.065 180ZM551.61 180H552.97V176.64C552.97 175.472 553.018 173.056 555.194 173.056C556.25 173.056 556.938 173.664 556.938 175.152V180H558.298V174.832C558.298 173.072 557.434 171.856 555.626 171.856C553.754 171.856 553.082 173.072 552.97 173.424V171.76V168.8H551.61V180ZM569.519 172.08L568.079 176.416C567.759 177.376 567.663 177.664 567.519 178.128C567.359 177.712 567.231 177.392 566.735 176.192L565.039 172.08H563.503L566.927 179.904L566.479 181.168C566.271 181.76 565.919 181.872 565.391 181.872H563.887V183.12H565.391C566.783 183.12 567.359 182.656 567.887 181.088L570.959 172.08H569.519ZM575.666 180.224C577.746 180.224 579.346 178.432 579.346 176.048C579.346 173.664 577.81 171.856 575.666 171.856C573.522 171.856 571.986 173.664 571.986 176.048C571.986 178.432 573.586 180.224 575.666 180.224ZM575.666 179.024C574.322 179.024 573.394 178.064 573.394 176.064C573.394 174.064 574.322 173.056 575.666 173.056C577.01 173.056 577.938 174.064 577.938 176.064C577.938 178.064 577.01 179.024 575.666 179.024ZM583.935 180.224C585.583 180.224 586.335 179.056 586.575 178.624V180H587.903V172.08H586.543V175.44C586.543 176.656 586.511 179.024 584.367 179.024C583.327 179.024 582.655 178.416 582.655 176.928V172.08H581.295V177.248C581.295 179.008 582.079 180.224 583.935 180.224ZM590.594 180H591.954V176.368C591.954 174.512 592.69 173.376 594.482 173.376C594.802 173.376 595.074 173.408 595.33 173.456V172.064C595.138 172.016 594.898 171.968 594.514 171.968C593.01 171.968 592.194 173.136 591.938 173.728V172.08H590.594V180ZM319.496 207.224C321.272 207.224 322.424 206.184 322.936 204.712L321.656 204.264C321.4 205.128 320.808 206.024 319.496 206.024C318.184 206.024 317.16 205.064 317.16 203.032C317.16 201.048 318.216 200.056 319.48 200.056C320.632 200.056 321.208 200.808 321.464 201.56L322.728 201.144C322.36 199.912 321.272 198.856 319.48 198.856C317.288 198.856 315.736 200.584 315.736 203.032C315.736 205.592 317.208 207.224 319.496 207.224ZM327.806 207.224C329.886 207.224 331.486 205.432 331.486 203.048C331.486 200.664 329.95 198.856 327.806 198.856C325.662 198.856 324.126 200.664 324.126 203.048C324.126 205.432 325.726 207.224 327.806 207.224ZM327.806 206.024C326.462 206.024 325.534 205.064 325.534 203.064C325.534 201.064 326.462 200.056 327.806 200.056C329.15 200.056 330.078 201.064 330.078 203.064C330.078 205.064 329.15 206.024 327.806 206.024ZM333.547 207H334.907V203.64C334.907 202.472 334.955 200.056 337.131 200.056C338.187 200.056 338.875 200.664 338.875 202.152V207H340.235V201.832C340.235 200.072 339.435 198.856 337.467 198.856C335.755 198.856 334.987 200.072 334.875 200.424V199.08H333.547V207ZM350.013 199.08H344.893V197.8C344.893 197.24 345.133 197 345.693 197H347.261V195.8H345.533C344.221 195.8 343.533 196.424 343.533 197.896V199.08H341.773V200.232H343.533V207H344.893V200.232H348.653V207H350.013V199.08ZM348.605 195.8V197.528H350.045V195.8H348.605ZM352.703 207H354.063V203.368C354.063 201.512 354.799 200.376 356.591 200.376C356.911 200.376 357.183 200.408 357.439 200.456V199.064C357.247 199.016 357.007 198.968 356.623 198.968C355.119 198.968 354.303 200.136 354.047 200.728V199.08H352.703V207ZM359.047 207H360.407V203.32C360.407 202.184 360.503 200.072 362.439 200.072C363.495 200.072 364.199 200.616 364.199 202.152V207H365.527V203.32C365.527 202.184 365.575 200.072 367.575 200.072C368.631 200.072 369.319 200.616 369.319 202.152V207H370.679V201.752C370.679 199.912 369.719 198.856 367.911 198.856C366.231 198.856 365.527 199.896 365.255 200.552C364.855 199.48 363.927 198.856 362.759 198.856C361.335 198.856 360.663 199.768 360.375 200.28V199.08H359.047V207ZM375.874 207.224C377.266 207.224 378.034 206.456 378.418 205.784V207H379.746V199.08H378.386V200.312C378.002 199.64 377.266 198.856 375.874 198.856C374.05 198.856 372.658 200.44 372.658 203.048C372.658 205.656 374.05 207.224 375.874 207.224ZM376.226 206.024C374.962 206.024 374.05 205.272 374.05 203.064C374.05 200.856 374.962 200.056 376.226 200.056C377.522 200.056 378.466 201.064 378.466 203.064C378.466 205.064 377.522 206.024 376.226 206.024ZM385.19 207H387.014V205.8H385.366C384.806 205.8 384.566 205.56 384.566 205V200.232H386.726V199.08H384.566V196.6H383.206V199.08H381.366V200.232H383.206V205.08C383.206 206.392 383.878 207 385.19 207ZM388.687 197.528H390.127V195.8H388.687V197.528ZM388.735 207H390.095V199.08H388.735V207ZM395.838 207.224C397.918 207.224 399.517 205.432 399.517 203.048C399.517 200.664 397.982 198.856 395.838 198.856C393.694 198.856 392.158 200.664 392.158 203.048C392.158 205.432 393.758 207.224 395.838 207.224ZM395.838 206.024C394.494 206.024 393.566 205.064 393.566 203.064C393.566 201.064 394.494 200.056 395.838 200.056C397.182 200.056 398.11 201.064 398.11 203.064C398.11 205.064 397.182 206.024 395.838 206.024ZM401.578 207H402.938V203.64C402.938 202.472 402.986 200.056 405.162 200.056C406.218 200.056 406.906 200.664 406.906 202.152V207H408.266V201.832C408.266 200.072 407.466 198.856 405.498 198.856C403.786 198.856 403.018 200.072 402.906 200.424V199.08H401.578V207ZM414.985 207H416.345V203.64C416.345 202.472 416.393 200.056 418.569 200.056C419.625 200.056 420.313 200.664 420.313 202.152V207H421.673V201.832C421.673 200.072 420.873 198.856 418.905 198.856C417.193 198.856 416.425 200.072 416.313 200.424V199.08H414.985V207ZM426.778 207.224C428.426 207.224 429.178 206.056 429.418 205.624V207H430.746V199.08H429.386V202.44C429.386 203.656 429.354 206.024 427.21 206.024C426.17 206.024 425.498 205.416 425.498 203.928V199.08H424.138V204.248C424.138 206.008 424.922 207.224 426.778 207.224ZM433.438 207H434.798V203.32C434.798 202.184 434.894 200.072 436.83 200.072C437.886 200.072 438.59 200.616 438.59 202.152V207H439.918V203.32C439.918 202.184 439.966 200.072 441.966 200.072C443.022 200.072 443.71 200.616 443.71 202.152V207H445.07V201.752C445.07 199.912 444.11 198.856 442.302 198.856C440.622 198.856 439.918 199.896 439.646 200.552C439.246 199.48 438.318 198.856 437.15 198.856C435.726 198.856 435.054 199.768 434.766 200.28V199.08H433.438V207ZM451.513 207.224C453.337 207.224 454.729 205.64 454.729 203.032C454.729 200.424 453.337 198.856 451.513 198.856C450.121 198.856 449.385 199.624 449.001 200.296V198.76V195.8H447.641V207H448.969V205.768C449.353 206.44 450.121 207.224 451.513 207.224ZM451.161 206.024C449.865 206.024 448.921 205.016 448.921 203.016C448.921 201.016 449.865 200.056 451.161 200.056C452.425 200.056 453.337 200.808 453.337 203.016C453.337 205.224 452.425 206.024 451.161 206.024ZM459.82 207.224C461.308 207.224 462.636 206.552 463.228 204.936L461.98 204.504C461.772 205.016 461.212 206.04 459.868 206.04C458.764 206.04 457.66 205.4 457.58 203.4H463.164C463.468 200.808 462.044 198.856 459.74 198.856C457.724 198.856 456.236 200.472 456.236 203.08C456.236 205.768 457.66 207.224 459.82 207.224ZM457.612 202.264C457.724 200.824 458.7 199.976 459.74 199.976C460.828 199.976 461.772 200.76 461.772 202.264H457.612ZM465.344 207H466.704V203.368C466.704 201.512 467.44 200.376 469.232 200.376C469.552 200.376 469.824 200.408 470.08 200.456V199.064C469.888 199.016 469.648 198.968 469.264 198.968C467.76 198.968 466.944 200.136 466.688 200.728V199.08H465.344V207Z" fill="white"/>
<path d="M669.323 143.118C668.892 143.549 668.892 144.247 669.323 144.677C669.753 145.108 670.451 145.108 670.882 144.677L674 141.559L677.118 144.677C677.549 145.108 678.247 145.108 678.677 144.677C679.108 144.247 679.108 143.549 678.677 143.118L675.559 140L678.677 136.882C679.108 136.451 679.108 135.753 678.677 135.323C678.247 134.892 677.549 134.892 677.118 135.323L674 138.441L670.882 135.323C670.451 134.892 669.753 134.892 669.323 135.323C668.892 135.753 668.892 136.451 669.323 136.882L672.441 140L669.323 143.118Z" fill="white"/>
</g>
<path d="M291.5 74L291.5 73.5L290.5 73.5L290.5 74L291.5 74ZM290.646 128.354C290.842 128.549 291.158 128.549 291.354 128.354L294.536 125.172C294.731 124.976 294.731 124.66 294.536 124.464C294.34 124.269 294.024 124.269 293.828 124.464L291 127.293L288.172 124.464C287.976 124.269 287.66 124.269 287.464 124.464C287.269 124.66 287.269 124.976 287.464 125.172L290.646 128.354ZM290.5 74L290.5 128L291.5 128L291.5 74L290.5 74Z" fill="#F47C25"/>
<path d="M373.5 74L373.5 73.5L372.5 73.5L372.5 74L373.5 74ZM372.646 128.354C372.842 128.549 373.158 128.549 373.354 128.354L376.536 125.172C376.731 124.976 376.731 124.66 376.536 124.464C376.34 124.269 376.024 124.269 375.828 124.464L373 127.293L370.172 124.464C369.976 124.269 369.66 124.269 369.464 124.464C369.269 124.66 369.269 124.976 369.464 125.172L372.646 128.354ZM372.5 74L372.5 128L373.5 128L373.5 74L372.5 74Z" fill="#F47C25"/>
<path d="M261.266 88V79.3291H262.79V88H261.266ZM264.205 84.8516C264.205 83.8994 264.508 83.1144 265.113 82.4966C265.722 81.8745 266.503 81.5635 267.455 81.5635C268.505 81.5635 269.306 81.9359 269.861 82.6807L268.959 83.5122C268.612 83.0213 268.132 82.7759 267.519 82.7759C266.951 82.7759 266.492 82.9684 266.141 83.3535C265.794 83.7386 265.621 84.238 265.621 84.8516C265.621 85.4694 265.794 85.973 266.141 86.3623C266.492 86.7516 266.951 86.9463 267.519 86.9463C268.119 86.9463 268.6 86.6987 268.959 86.2036L269.861 87.0352C269.302 87.7842 268.5 88.1587 267.455 88.1587C266.503 88.1587 265.722 87.8477 265.113 87.2256C264.508 86.6035 264.205 85.8122 264.205 84.8516ZM270.667 84.8516C270.667 84.403 270.743 83.9798 270.896 83.582C271.048 83.18 271.259 82.8309 271.53 82.5347C271.805 82.2342 272.146 81.9972 272.552 81.8237C272.958 81.6502 273.405 81.5635 273.892 81.5635C274.543 81.5635 275.117 81.7137 275.612 82.0142C276.111 82.3146 276.488 82.7124 276.742 83.2075C277 83.6984 277.129 84.2464 277.129 84.8516C277.129 85.4609 277 86.0153 276.742 86.5146C276.488 87.0098 276.111 87.4076 275.612 87.708C275.117 88.0085 274.543 88.1587 273.892 88.1587C273.405 88.1587 272.958 88.0719 272.552 87.8984C272.146 87.7207 271.805 87.4837 271.53 87.1875C271.259 86.887 271.048 86.5358 270.896 86.1338C270.743 85.7318 270.667 85.3044 270.667 84.8516ZM272.083 84.8516C272.083 85.4355 272.245 85.9307 272.571 86.3369C272.897 86.7432 273.337 86.9463 273.892 86.9463C274.454 86.9463 274.897 86.7453 275.218 86.3433C275.544 85.937 275.707 85.4398 275.707 84.8516C275.707 84.2718 275.544 83.7809 275.218 83.3789C274.897 82.9769 274.454 82.7759 273.892 82.7759C273.337 82.7759 272.897 82.9769 272.571 83.3789C272.245 83.7809 272.083 84.2718 272.083 84.8516ZM278.506 88V81.7222H279.871V82.5791C280.108 82.2998 280.421 82.0607 280.811 81.8618C281.2 81.6629 281.623 81.5635 282.08 81.5635C282.749 81.5635 283.254 81.737 283.597 82.084C283.94 82.431 284.111 82.9303 284.111 83.582V88H282.747V84.0771C282.747 83.6117 282.637 83.2795 282.417 83.0806C282.201 82.8774 281.89 82.7759 281.483 82.7759C281.153 82.7759 280.844 82.8584 280.557 83.0234C280.269 83.1842 280.04 83.3831 279.871 83.6201V88H278.506Z" fill="#F47C25"/>
<path d="M342.2 80.6685V79.3291H348.973V80.6685H346.351V88H344.828V80.6685H342.2ZM350.306 80.7065C350.141 80.5415 350.058 80.3426 350.058 80.1099C350.058 79.8771 350.141 79.6782 350.306 79.5132C350.475 79.3481 350.674 79.2656 350.902 79.2656C351.139 79.2656 351.338 79.3481 351.499 79.5132C351.664 79.6782 351.747 79.8771 351.747 80.1099C351.747 80.3426 351.664 80.5415 351.499 80.7065C351.338 80.8716 351.139 80.9541 350.902 80.9541C350.674 80.9541 350.475 80.8716 350.306 80.7065ZM350.223 88V81.7222H351.588V88H350.223ZM352.591 82.9155V81.7222H353.632V80.002H354.997V81.7222H356.272V82.9155H354.997V86.2036C354.997 86.4237 355.049 86.6035 355.155 86.7432C355.261 86.8786 355.409 86.9463 355.6 86.9463C355.722 86.9463 355.841 86.9251 355.955 86.8828C356.069 86.8363 356.154 86.7834 356.209 86.7241L356.533 87.7524C356.249 88.0233 355.82 88.1587 355.244 88.1587C354.719 88.1587 354.319 88.0212 354.044 87.7461C353.769 87.4668 353.632 87.0669 353.632 86.5464V82.9155H352.591ZM357.51 88V79.3291H358.875V88H357.51ZM360.259 84.8516C360.259 84.2507 360.392 83.7005 360.659 83.2012C360.93 82.6976 361.31 82.2998 361.801 82.0078C362.292 81.7116 362.84 81.5635 363.445 81.5635C364.376 81.5635 365.123 81.8851 365.686 82.5283C366.253 83.1673 366.537 83.9862 366.537 84.9849V85.3086H361.687C361.742 85.8037 361.945 86.2163 362.296 86.5464C362.652 86.8722 363.115 87.0352 363.687 87.0352C364.004 87.0352 364.326 86.9759 364.651 86.8574C364.981 86.7347 365.254 86.5654 365.47 86.3496L366.092 87.2446C365.783 87.5409 365.409 87.7673 364.969 87.9238C364.529 88.0804 364.055 88.1587 363.547 88.1587C362.595 88.1587 361.808 87.854 361.186 87.2446C360.568 86.631 360.259 85.8333 360.259 84.8516ZM361.674 84.3501H365.21C365.201 84.1554 365.161 83.965 365.089 83.7788C365.022 83.5884 364.92 83.4085 364.785 83.2393C364.649 83.07 364.465 82.9346 364.232 82.833C364.004 82.7314 363.742 82.6807 363.445 82.6807C363.166 82.6807 362.912 82.7314 362.684 82.833C362.459 82.9303 362.277 83.0636 362.138 83.2329C362.002 83.3979 361.894 83.5757 361.814 83.7661C361.738 83.9523 361.691 84.147 361.674 84.3501Z" fill="#F47C25"/>
<path d="M406.5 299L406.5 299.5L407.5 299.5L407.5 299L406.5 299ZM407.354 221.646C407.158 221.451 406.842 221.451 406.646 221.646L403.464 224.828C403.269 225.024 403.269 225.34 403.464 225.536C403.66 225.731 403.976 225.731 404.172 225.536L407 222.707L409.828 225.536C410.024 225.731 410.34 225.731 410.536 225.536C410.731 225.34 410.731 225.024 410.536 224.828L407.354 221.646ZM407.5 299L407.5 222L406.5 222L406.5 299L407.5 299Z" fill="#F47C25"/>
<path d="M346.62 293V284.329H350.885C351.655 284.329 352.258 284.539 352.694 284.958C353.134 285.376 353.354 285.903 353.354 286.538C353.354 287.063 353.208 287.503 352.917 287.858C352.629 288.214 352.273 288.436 351.85 288.525C352.316 288.597 352.711 288.838 353.037 289.249C353.363 289.659 353.526 290.129 353.526 290.658C353.526 291.347 353.304 291.91 352.859 292.346C352.415 292.782 351.797 293 351.006 293H346.62ZM348.143 291.661H350.638C351.052 291.661 351.376 291.555 351.609 291.343C351.846 291.127 351.964 290.831 351.964 290.455C351.964 290.112 351.848 289.826 351.615 289.598C351.382 289.369 351.057 289.255 350.638 289.255H348.143V291.661ZM348.143 287.916H350.574C350.955 287.916 351.253 287.812 351.469 287.604C351.689 287.397 351.799 287.128 351.799 286.798C351.799 286.464 351.689 286.193 351.469 285.986C351.253 285.774 350.955 285.668 350.574 285.668H348.143V287.916ZM354.624 289.852C354.624 289.403 354.7 288.98 354.853 288.582C355.005 288.18 355.216 287.831 355.487 287.535C355.762 287.234 356.103 286.997 356.509 286.824C356.916 286.65 357.362 286.563 357.849 286.563C358.5 286.563 359.074 286.714 359.569 287.014C360.068 287.315 360.445 287.712 360.699 288.208C360.957 288.698 361.086 289.246 361.086 289.852C361.086 290.461 360.957 291.015 360.699 291.515C360.445 292.01 360.068 292.408 359.569 292.708C359.074 293.008 358.5 293.159 357.849 293.159C357.362 293.159 356.916 293.072 356.509 292.898C356.103 292.721 355.762 292.484 355.487 292.188C355.216 291.887 355.005 291.536 354.853 291.134C354.7 290.732 354.624 290.304 354.624 289.852ZM356.04 289.852C356.04 290.436 356.202 290.931 356.528 291.337C356.854 291.743 357.294 291.946 357.849 291.946C358.411 291.946 358.854 291.745 359.175 291.343C359.501 290.937 359.664 290.44 359.664 289.852C359.664 289.272 359.501 288.781 359.175 288.379C358.854 287.977 358.411 287.776 357.849 287.776C357.294 287.776 356.854 287.977 356.528 288.379C356.202 288.781 356.04 289.272 356.04 289.852ZM362.076 289.864C362.076 288.866 362.334 288.066 362.851 287.465C363.371 286.864 364.044 286.563 364.869 286.563C365.258 286.563 365.629 286.652 365.98 286.83C366.331 287.008 366.634 287.262 366.888 287.592V284.329H368.252V293H366.888V292.143C366.642 292.46 366.344 292.71 365.993 292.892C365.641 293.07 365.267 293.159 364.869 293.159C364.044 293.159 363.371 292.865 362.851 292.276C362.334 291.684 362.076 290.88 362.076 289.864ZM363.492 289.864C363.492 290.474 363.653 290.973 363.974 291.362C364.3 291.752 364.729 291.946 365.263 291.946C365.58 291.946 365.891 291.868 366.196 291.711C366.5 291.551 366.731 291.352 366.888 291.115V288.62C366.727 288.379 366.494 288.178 366.189 288.017C365.889 287.856 365.58 287.776 365.263 287.776C364.729 287.776 364.3 287.971 363.974 288.36C363.653 288.745 363.492 289.246 363.492 289.864ZM369.109 286.722H370.563L372.397 291.426L374.232 286.722H375.698L372.67 294.13C372.463 294.638 372.182 294.997 371.826 295.209C371.471 295.425 371.033 295.537 370.512 295.545C370.229 295.545 369.973 295.516 369.744 295.457L369.954 294.238C370.11 294.306 370.284 294.339 370.474 294.339C370.698 294.339 370.88 294.299 371.02 294.219C371.164 294.138 371.28 293.997 371.369 293.793L371.68 293.076L369.109 286.722ZM379.126 287.916V286.722H380.167V285.002H381.532V286.722H382.808V287.916H381.532V291.204C381.532 291.424 381.585 291.604 381.69 291.743C381.796 291.879 381.944 291.946 382.135 291.946C382.257 291.946 382.376 291.925 382.49 291.883C382.604 291.836 382.689 291.783 382.744 291.724L383.068 292.752C382.784 293.023 382.355 293.159 381.779 293.159C381.255 293.159 380.855 293.021 380.58 292.746C380.305 292.467 380.167 292.067 380.167 291.546V287.916H379.126ZM383.658 289.852C383.658 289.251 383.792 288.701 384.058 288.201C384.329 287.698 384.71 287.3 385.201 287.008C385.692 286.712 386.24 286.563 386.845 286.563C387.776 286.563 388.523 286.885 389.085 287.528C389.653 288.167 389.936 288.986 389.936 289.985V290.309H385.086C385.141 290.804 385.345 291.216 385.696 291.546C386.051 291.872 386.515 292.035 387.086 292.035C387.403 292.035 387.725 291.976 388.051 291.857C388.381 291.735 388.654 291.565 388.87 291.35L389.492 292.245C389.183 292.541 388.808 292.767 388.368 292.924C387.928 293.08 387.454 293.159 386.946 293.159C385.994 293.159 385.207 292.854 384.585 292.245C383.967 291.631 383.658 290.833 383.658 289.852ZM385.074 289.35H388.609C388.601 289.155 388.561 288.965 388.489 288.779C388.421 288.588 388.319 288.409 388.184 288.239C388.049 288.07 387.865 287.935 387.632 287.833C387.403 287.731 387.141 287.681 386.845 287.681C386.565 287.681 386.312 287.731 386.083 287.833C385.859 287.93 385.677 288.064 385.537 288.233C385.402 288.398 385.294 288.576 385.213 288.766C385.137 288.952 385.091 289.147 385.074 289.35ZM390.463 293L392.767 289.775L390.596 286.722H392.126L393.624 288.855L395.103 286.722H396.639L394.468 289.775L396.785 293H395.249L393.624 290.683L391.986 293H390.463ZM396.963 287.916V286.722H398.004V285.002H399.369V286.722H400.645V287.916H399.369V291.204C399.369 291.424 399.422 291.604 399.527 291.743C399.633 291.879 399.781 291.946 399.972 291.946C400.094 291.946 400.213 291.925 400.327 291.883C400.441 291.836 400.526 291.783 400.581 291.724L400.905 292.752C400.621 293.023 400.192 293.159 399.616 293.159C399.091 293.159 398.692 293.021 398.417 292.746C398.141 292.467 398.004 292.067 398.004 291.546V287.916H396.963Z" fill="#F47C25"/>
<path d="M674.5 74L674.5 73.5L673.5 73.5L673.5 74L674.5 74ZM673.646 122.354C673.842 122.549 674.158 122.549 674.354 122.354L677.536 119.172C677.731 118.976 677.731 118.66 677.536 118.464C677.34 118.269 677.024 118.269 676.828 118.464L674 121.293L671.172 118.464C670.976 118.269 670.66 118.269 670.464 118.464C670.269 118.66 670.269 118.976 670.464 119.172L673.646 122.354ZM673.5 74L673.5 122L674.5 122L674.5 74L673.5 74Z" fill="#F47C25"/>
<path d="M624.195 88V79.3291H627.419C628.308 79.3291 629.097 79.5132 629.787 79.8813C630.477 80.2495 631.01 80.7637 631.387 81.4238C631.768 82.0798 631.958 82.8288 631.958 83.6709C631.958 84.513 631.768 85.262 631.387 85.918C631.01 86.5739 630.477 87.0859 629.787 87.4541C629.097 87.818 628.308 88 627.419 88H624.195ZM625.718 86.6606H627.419C628.029 86.6606 628.562 86.5252 629.019 86.2544C629.476 85.9793 629.819 85.6175 630.047 85.1689C630.28 84.7204 630.396 84.221 630.396 83.6709C630.396 82.7992 630.134 82.0819 629.609 81.519C629.085 80.952 628.355 80.6685 627.419 80.6685H625.718V86.6606ZM633.469 80.7065C633.304 80.5415 633.221 80.3426 633.221 80.1099C633.221 79.8771 633.304 79.6782 633.469 79.5132C633.638 79.3481 633.837 79.2656 634.065 79.2656C634.302 79.2656 634.501 79.3481 634.662 79.5132C634.827 79.6782 634.91 79.8771 634.91 80.1099C634.91 80.3426 634.827 80.5415 634.662 80.7065C634.501 80.8716 634.302 80.9541 634.065 80.9541C633.837 80.9541 633.638 80.8716 633.469 80.7065ZM633.386 88V81.7222H634.751V88H633.386ZM635.976 87.1812L636.604 86.1909C636.841 86.4321 637.157 86.6416 637.55 86.8193C637.948 86.9928 638.342 87.0796 638.731 87.0796C639.129 87.0796 639.433 87.0013 639.645 86.8447C639.861 86.6882 639.969 86.4829 639.969 86.229C639.969 86.064 639.899 85.9264 639.759 85.8164C639.62 85.7064 639.438 85.6217 639.213 85.5625C638.993 85.499 638.748 85.4398 638.477 85.3848C638.206 85.3298 637.935 85.2599 637.665 85.1753C637.394 85.0907 637.146 84.9849 636.922 84.8579C636.702 84.731 636.522 84.5511 636.382 84.3184C636.243 84.0814 636.173 83.8 636.173 83.4741C636.173 82.9367 636.393 82.4839 636.833 82.1157C637.273 81.7476 637.876 81.5635 638.642 81.5635C639.603 81.5635 640.417 81.8597 641.086 82.4521L640.515 83.4106C640.32 83.1864 640.056 83.0044 639.721 82.8647C639.391 82.7251 639.036 82.6553 638.655 82.6553C638.299 82.6553 638.016 82.7272 637.804 82.8711C637.593 83.015 637.487 83.1991 637.487 83.4233C637.487 83.5545 637.54 83.6667 637.646 83.7598C637.756 83.8529 637.899 83.9248 638.077 83.9756C638.255 84.0264 638.458 84.0814 638.687 84.1406C638.915 84.1956 639.148 84.2485 639.385 84.2993C639.622 84.3459 639.854 84.4199 640.083 84.5215C640.312 84.623 640.515 84.7415 640.692 84.877C640.87 85.0081 641.012 85.188 641.118 85.4165C641.228 85.645 641.283 85.9074 641.283 86.2036C641.283 86.7749 641.052 87.2446 640.591 87.6128C640.13 87.9767 639.488 88.1587 638.667 88.1587C638.13 88.1587 637.626 88.0741 637.157 87.9048C636.691 87.7355 636.298 87.4943 635.976 87.1812ZM642.654 88V81.7222H644.019V82.5791C644.175 82.3421 644.446 82.1136 644.831 81.8936C645.22 81.6735 645.631 81.5635 646.062 81.5635C646.515 81.5635 646.886 81.6672 647.173 81.8745C647.465 82.0819 647.666 82.3654 647.776 82.7251C647.975 82.4119 648.269 82.1411 648.659 81.9126C649.052 81.6799 649.469 81.5635 649.909 81.5635C650.493 81.5635 650.94 81.7222 651.249 82.0396C651.562 82.3569 651.718 82.8309 651.718 83.4614V88H650.354V83.9058C650.354 83.5545 650.269 83.2795 650.1 83.0806C649.935 82.8774 649.676 82.7759 649.325 82.7759C649.042 82.7759 648.767 82.8605 648.5 83.0298C648.233 83.1948 648.024 83.3874 647.872 83.6074V88H646.5V83.9058C646.5 83.1525 646.156 82.7759 645.466 82.7759C645.187 82.7759 644.914 82.8605 644.647 83.0298C644.385 83.1948 644.175 83.3916 644.019 83.6201V88H642.654ZM653.565 80.7065C653.4 80.5415 653.318 80.3426 653.318 80.1099C653.318 79.8771 653.4 79.6782 653.565 79.5132C653.735 79.3481 653.934 79.2656 654.162 79.2656C654.399 79.2656 654.598 79.3481 654.759 79.5132C654.924 79.6782 655.006 79.8771 655.006 80.1099C655.006 80.3426 654.924 80.5415 654.759 80.7065C654.598 80.8716 654.399 80.9541 654.162 80.9541C653.934 80.9541 653.735 80.8716 653.565 80.7065ZM653.483 88V81.7222H654.848V88H653.483ZM656.073 87.1812L656.701 86.1909C656.938 86.4321 657.253 86.6416 657.647 86.8193C658.045 86.9928 658.438 87.0796 658.828 87.0796C659.225 87.0796 659.53 87.0013 659.742 86.8447C659.958 86.6882 660.065 86.4829 660.065 86.229C660.065 86.064 659.996 85.9264 659.856 85.8164C659.716 85.7064 659.534 85.6217 659.31 85.5625C659.09 85.499 658.845 85.4398 658.574 85.3848C658.303 85.3298 658.032 85.2599 657.761 85.1753C657.49 85.0907 657.243 84.9849 657.019 84.8579C656.799 84.731 656.619 84.5511 656.479 84.3184C656.339 84.0814 656.27 83.8 656.27 83.4741C656.27 82.9367 656.49 82.4839 656.93 82.1157C657.37 81.7476 657.973 81.5635 658.739 81.5635C659.699 81.5635 660.514 81.8597 661.183 82.4521L660.611 83.4106C660.417 83.1864 660.152 83.0044 659.818 82.8647C659.488 82.7251 659.132 82.6553 658.751 82.6553C658.396 82.6553 658.112 82.7272 657.901 82.8711C657.689 83.015 657.583 83.1991 657.583 83.4233C657.583 83.5545 657.636 83.6667 657.742 83.7598C657.852 83.8529 657.996 83.9248 658.174 83.9756C658.352 84.0264 658.555 84.0814 658.783 84.1406C659.012 84.1956 659.244 84.2485 659.481 84.2993C659.718 84.3459 659.951 84.4199 660.18 84.5215C660.408 84.623 660.611 84.7415 660.789 84.877C660.967 85.0081 661.109 85.188 661.214 85.4165C661.324 85.645 661.379 85.9074 661.379 86.2036C661.379 86.7749 661.149 87.2446 660.688 87.6128C660.226 87.9767 659.585 88.1587 658.764 88.1587C658.227 88.1587 657.723 88.0741 657.253 87.9048C656.788 87.7355 656.394 87.4943 656.073 87.1812ZM662.205 87.1812L662.833 86.1909C663.07 86.4321 663.385 86.6416 663.779 86.8193C664.177 86.9928 664.57 87.0796 664.959 87.0796C665.357 87.0796 665.662 87.0013 665.874 86.8447C666.089 86.6882 666.197 86.4829 666.197 86.229C666.197 86.064 666.127 85.9264 665.988 85.8164C665.848 85.7064 665.666 85.6217 665.442 85.5625C665.222 85.499 664.976 85.4398 664.706 85.3848C664.435 85.3298 664.164 85.2599 663.893 85.1753C663.622 85.0907 663.375 84.9849 663.15 84.8579C662.93 84.731 662.75 84.5511 662.611 84.3184C662.471 84.0814 662.401 83.8 662.401 83.4741C662.401 82.9367 662.621 82.4839 663.062 82.1157C663.502 81.7476 664.105 81.5635 664.871 81.5635C665.831 81.5635 666.646 81.8597 667.314 82.4521L666.743 83.4106C666.549 83.1864 666.284 83.0044 665.95 82.8647C665.62 82.7251 665.264 82.6553 664.883 82.6553C664.528 82.6553 664.244 82.7272 664.033 82.8711C663.821 83.015 663.715 83.1991 663.715 83.4233C663.715 83.5545 663.768 83.6667 663.874 83.7598C663.984 83.8529 664.128 83.9248 664.306 83.9756C664.483 84.0264 664.687 84.0814 664.915 84.1406C665.144 84.1956 665.376 84.2485 665.613 84.2993C665.85 84.3459 666.083 84.4199 666.312 84.5215C666.54 84.623 666.743 84.7415 666.921 84.877C667.099 85.0081 667.24 85.188 667.346 85.4165C667.456 85.645 667.511 85.9074 667.511 86.2036C667.511 86.7749 667.281 87.2446 666.819 87.6128C666.358 87.9767 665.717 88.1587 664.896 88.1587C664.359 88.1587 663.855 88.0741 663.385 87.9048C662.92 87.7355 662.526 87.4943 662.205 87.1812Z" fill="#F47C25"/>
<defs>
<filter id="filter0_d" x="255" y="105" width="450" height="154" filterUnits="userSpaceOnUse" color-interpolation-filters="sRGB">
<feFlood flood-opacity="0" result="BackgroundImageFix"/>
<feColorMatrix in="SourceAlpha" type="matrix" values="0 0 0 0 0 0 0 0 0 0 0 0 0 0 0 0 0 0 127 0"/>
<feOffset dy="8"/>
<feGaussianBlur stdDeviation="6"/>
<feColorMatrix type="matrix" values="0 0 0 0 0.129412 0 0 0 0 0.129412 0 0 0 0 0.14902 0 0 0 0.12 0"/>
<feBlend mode="normal" in2="BackgroundImageFix" result="effect1_dropShadow"/>
<feBlend mode="normal" in="SourceGraphic" in2="effect1_dropShadow" result="shape"/>
</filter>
</defs>
</svg>
