<svg width="958" height="346" viewBox="0 0 958 346" fill="none" xmlns="http://www.w3.org/2000/svg">
<path d="M329.652 201H349.392C367.116 201 377.784 189.912 377.784 171.432C377.784 153.96 366.78 142.2 349.98 142.2H329.652V201ZM337.212 193.86V149.34H348.636C362.916 149.34 369.804 158.16 369.804 171.432C369.804 186.132 362.748 193.86 348.048 193.86H337.212ZM405.459 202.176C416.379 202.176 424.779 192.768 424.779 180.252C424.779 167.736 416.715 158.244 405.459 158.244C394.203 158.244 386.139 167.736 386.139 180.252C386.139 192.768 394.539 202.176 405.459 202.176ZM405.459 195.876C398.403 195.876 393.531 190.836 393.531 180.336C393.531 169.836 398.403 164.544 405.459 164.544C412.515 164.544 417.387 169.836 417.387 180.336C417.387 190.836 412.515 195.876 405.459 195.876ZM435.599 201H442.739V183.36C442.739 177.228 442.991 164.544 454.415 164.544C459.959 164.544 463.571 167.736 463.571 175.548V201H470.711V173.868C470.711 164.628 466.511 158.244 456.179 158.244C447.191 158.244 443.159 164.628 442.571 166.476V159.42H435.599V201ZM497.516 202.176C506.168 202.176 510.116 196.044 511.376 193.776V201H518.348V159.42H511.208V177.06C511.208 183.444 511.04 195.876 499.784 195.876C494.324 195.876 490.796 192.684 490.796 184.872V159.42H483.656V186.552C483.656 195.792 487.772 202.176 497.516 202.176ZM546.926 201H556.502V194.7H547.85C544.91 194.7 543.65 193.44 543.65 190.5V165.468H554.99V159.42H543.65V146.4H536.51V159.42H526.85V165.468H536.51V190.92C536.51 197.808 540.038 201 546.926 201ZM587.275 201H594.415V183.36C594.415 177.228 594.667 164.544 606.091 164.544C611.635 164.544 615.247 167.736 615.247 175.548V201H622.387V173.868C622.387 164.628 617.851 158.244 608.359 158.244C598.531 158.244 595.003 164.628 594.415 166.476V157.74V142.2H587.275V201ZM635.667 151.272H643.227V142.2H635.667V151.272ZM635.919 201H643.059V159.42H635.919V201ZM671.193 202.176C681.693 202.176 687.741 197.22 687.741 189.408C687.741 179.916 677.913 177.396 673.713 176.556L668.925 175.632C662.961 174.456 661.617 172.776 661.617 170.004C661.617 166.98 664.305 164.124 670.101 164.124C677.157 164.124 679.509 168.576 680.517 171.348L686.985 168.996C685.305 163.536 680.433 158.244 670.101 158.244C661.953 158.244 654.897 163.284 654.897 170.76C654.897 178.656 660.945 181.26 667.833 182.604L672.621 183.528C678.669 184.704 680.601 186.888 680.601 189.996C680.601 193.944 677.241 196.044 671.193 196.044C664.641 196.044 661.281 192.936 660.021 187.98L653.133 190.248C654.981 198.228 662.709 202.176 671.193 202.176ZM712.465 201H722.041V194.7H713.389C710.449 194.7 709.189 193.44 709.189 190.5V165.468H720.529V159.42H709.189V146.4H702.049V159.42H692.389V165.468H702.049V190.92C702.049 197.808 705.577 201 712.465 201ZM746.709 202.176C757.629 202.176 766.029 192.768 766.029 180.252C766.029 167.736 757.965 158.244 746.709 158.244C735.453 158.244 727.389 167.736 727.389 180.252C727.389 192.768 735.789 202.176 746.709 202.176ZM746.709 195.876C739.653 195.876 734.781 190.836 734.781 180.336C734.781 169.836 739.653 164.544 746.709 164.544C753.765 164.544 758.637 169.836 758.637 180.336C758.637 190.836 753.765 195.876 746.709 195.876ZM776.849 201H783.989V181.932C783.989 172.188 787.853 166.224 797.261 166.224C798.941 166.224 800.369 166.392 801.713 166.644V159.336C800.705 159.084 799.445 158.832 797.429 158.832C789.533 158.832 785.249 164.964 783.905 168.072V159.42H776.849V201ZM835.27 159.42L827.71 182.184C826.03 187.224 825.526 188.736 824.77 191.172C823.93 188.988 823.258 187.308 820.654 181.008L811.75 159.42H803.686L821.662 200.496L819.31 207.132C818.218 210.24 816.37 210.828 813.598 210.828H805.702V217.38H813.598C820.906 217.38 823.93 214.944 826.702 206.712L842.83 159.42H835.27Z" fill="#1662DD"/>
<path d="M225 155C225 151.686 222.314 149 219 149H201C197.686 149 195 151.686 195 155V203C195 206.314 197.686 209 201 209H249C252.314 209 255 206.314 255 203V185C255 181.686 252.314 179 249 179C245.686 179 243 181.686 243 185V197H207V161H219C222.314 161 225 158.314 225 155Z" fill="#1662DD"/>
<path d="M246.273 149L237 149C233.686 149 231 146.314 231 143C231 139.686 233.686 137 237 137H261C264.314 137 267 139.686 267 143V167C267 170.314 264.314 173 261 173C257.686 173 255 170.314 255 167V157.727L224.485 188C222.142 190.343 218.343 190.343 216 188L215.758 187.758C213.415 185.415 213.415 181.616 215.758 179.273L246.273 149Z" fill="#1662DD"/>
<rect opacity="0.2" x="273" y="118" width="48" height="109" fill="#DA372C"/>
<path d="M128 173C127.448 173 127 173.448 127 174C127 174.552 127.448 175 128 175L128 173ZM189.707 174.707C190.098 174.317 190.098 173.683 189.707 173.293L183.343 166.929C182.953 166.538 182.319 166.538 181.929 166.929C181.538 167.319 181.538 167.953 181.929 168.343L187.586 174L181.929 179.657C181.538 180.047 181.538 180.681 181.929 181.071C182.319 181.462 182.953 181.462 183.343 181.071L189.707 174.707ZM128 175L189 175L189 173L128 173L128 175Z" fill="#DA372C"/>
<path d="M56.0855 166H63.8935V164.64H57.5255V160.864H62.2295V159.52H57.5255V156.16H63.8935V154.8H56.0855V166ZM64.9915 166H66.4795L67.4875 164.496L68.4955 162.976C68.7195 163.328 68.8955 163.6 69.4875 164.496L70.4795 166H72.1115L69.3595 161.968L71.9515 158.08H70.4475L69.5835 159.44C68.9755 160.384 68.7835 160.672 68.5595 160.992C68.3675 160.672 68.1915 160.384 67.5995 159.44L66.7355 158.08H65.1515L67.7115 161.952L64.9915 166ZM76.5179 166H78.3419V164.8H76.6939C76.1339 164.8 75.8939 164.56 75.8939 164V159.232H78.0539V158.08H75.8939V155.6H74.5339V158.08H72.6939V159.232H74.5339V164.08C74.5339 165.392 75.2059 166 76.5179 166ZM82.9766 166.224C84.4646 166.224 85.7926 165.552 86.3846 163.936L85.1366 163.504C84.9286 164.016 84.3686 165.04 83.0246 165.04C81.9206 165.04 80.8166 164.4 80.7366 162.4H86.3206C86.6246 159.808 85.2006 157.856 82.8966 157.856C80.8806 157.856 79.3926 159.472 79.3926 162.08C79.3926 164.768 80.8166 166.224 82.9766 166.224ZM80.7686 161.264C80.8806 159.824 81.8566 158.976 82.8966 158.976C83.9846 158.976 84.9286 159.76 84.9286 161.264H80.7686ZM88.5003 166H89.8603V162.368C89.8603 160.512 90.5963 159.376 92.3883 159.376C92.7083 159.376 92.9803 159.408 93.2363 159.456V158.064C93.0443 158.016 92.8043 157.968 92.4203 157.968C90.9163 157.968 90.1003 159.136 89.8443 159.728V158.08H88.5003V166ZM94.844 166H96.204V162.64C96.204 161.472 96.252 159.056 98.428 159.056C99.484 159.056 100.172 159.664 100.172 161.152V166H101.532V160.832C101.532 159.072 100.732 157.856 98.764 157.856C97.052 157.856 96.284 159.072 96.172 159.424V158.08H94.844V166ZM106.734 166.224C108.126 166.224 108.894 165.456 109.278 164.784V166H110.606V158.08H109.246V159.312C108.862 158.64 108.126 157.856 106.734 157.856C104.91 157.856 103.518 159.44 103.518 162.048C103.518 164.656 104.91 166.224 106.734 166.224ZM107.086 165.024C105.822 165.024 104.91 164.272 104.91 162.064C104.91 159.856 105.822 159.056 107.086 159.056C108.382 159.056 109.326 160.064 109.326 162.064C109.326 164.064 108.382 165.024 107.086 165.024ZM113.297 166H114.657V154.8H113.297V166ZM56.5628 192H57.9228V180.8H56.5628V192ZM60.5616 182.528H62.0016V180.8H60.5616V182.528ZM60.6096 192H61.9696V184.08H60.6096V192ZM64.6565 192H66.0165V188.64C66.0165 187.472 66.0645 185.056 68.2405 185.056C69.2965 185.056 69.9845 185.664 69.9845 187.152V192H71.3445V186.832C71.3445 185.072 70.5445 183.856 68.5765 183.856C66.8645 183.856 66.0965 185.072 65.9845 185.424V184.08H64.6565V192ZM79.7941 192H81.5381L77.7301 187.392L81.2981 184.08H79.4901L75.2821 188.16V185.568V180.8H73.9221V192H75.2821V189.664L76.7861 188.288L79.7941 192ZM86.7804 182.528H88.2204V180.8H86.7804V182.528ZM86.8284 192H88.1884V184.08H86.8284V192ZM94.0273 192.224C95.8033 192.224 96.9553 191.184 97.4673 189.712L96.1873 189.264C95.9313 190.128 95.3393 191.024 94.0273 191.024C92.7153 191.024 91.6913 190.064 91.6913 188.032C91.6913 186.048 92.7473 185.056 94.0113 185.056C95.1633 185.056 95.7393 185.808 95.9953 186.56L97.2593 186.144C96.8913 184.912 95.8033 183.856 94.0113 183.856C91.8193 183.856 90.2673 185.584 90.2673 188.032C90.2673 190.592 91.7393 192.224 94.0273 192.224ZM102.338 192.224C104.418 192.224 106.017 190.432 106.017 188.048C106.017 185.664 104.482 183.856 102.338 183.856C100.194 183.856 98.6575 185.664 98.6575 188.048C98.6575 190.432 100.258 192.224 102.338 192.224ZM102.338 191.024C100.994 191.024 100.066 190.064 100.066 188.064C100.066 186.064 100.994 185.056 102.338 185.056C103.682 185.056 104.61 186.064 104.61 188.064C104.61 190.064 103.682 191.024 102.338 191.024ZM108.078 192H109.438V188.64C109.438 187.472 109.486 185.056 111.662 185.056C112.718 185.056 113.406 185.664 113.406 187.152V192H114.766V186.832C114.766 185.072 113.966 183.856 111.998 183.856C110.286 183.856 109.518 185.072 109.406 185.424V184.08H108.078V192Z" fill="#6E6E78"/>
<path d="M296 61C296 60.4477 296.448 60 297 60C297.552 60 298 60.4477 298 61L296 61ZM297.707 131.207C297.317 131.598 296.683 131.598 296.293 131.207L289.929 124.843C289.538 124.453 289.538 123.819 289.929 123.429C290.319 123.038 290.953 123.038 291.343 123.429L297 129.086L302.657 123.429C303.047 123.038 303.681 123.038 304.071 123.429C304.462 123.819 304.462 124.453 304.071 124.843L297.707 131.207ZM298 61L298 130.5L296 130.5L296 61L298 61Z" fill="#DA372C"/>
<path d="M313.256 73.68H314.456V72.208C316.728 72.032 317.976 70.72 317.976 68.896C317.976 67.2 316.712 66.24 314.936 65.792L314.456 65.664V61.952C315.752 62.208 316.264 63.2 316.472 63.792L317.8 63.136C317.512 62.192 316.472 60.832 314.456 60.608V59.12H313.256V60.608C311.352 60.832 310.088 62.064 310.088 63.712C310.088 65.568 311.24 66.384 312.888 66.736L313.256 66.816V70.848C312.008 70.576 311.256 69.664 310.888 68.544L309.528 69.2C310.024 70.768 311.288 71.952 313.256 72.192V73.68ZM313.256 65.392C312.008 65.072 311.464 64.592 311.464 63.632C311.464 62.72 312.136 62.032 313.256 61.904V63.968V65.392ZM314.456 70.912V68.848V67.088C315.848 67.408 316.52 68.032 316.52 69.024C316.52 70.064 315.768 70.784 314.456 70.912ZM322.672 72.224C324.672 72.224 325.824 71.28 325.824 69.792C325.824 67.984 323.952 67.504 323.152 67.344L322.24 67.168C321.104 66.944 320.848 66.624 320.848 66.096C320.848 65.52 321.36 64.976 322.464 64.976C323.808 64.976 324.256 65.824 324.448 66.352L325.68 65.904C325.36 64.864 324.432 63.856 322.464 63.856C320.912 63.856 319.568 64.816 319.568 66.24C319.568 67.744 320.72 68.24 322.032 68.496L322.944 68.672C324.096 68.896 324.464 69.312 324.464 69.904C324.464 70.656 323.824 71.056 322.672 71.056C321.424 71.056 320.784 70.464 320.544 69.52L319.232 69.952C319.584 71.472 321.056 72.224 322.672 72.224ZM327.86 75.12H329.22V72.32V70.768C329.604 71.44 330.34 72.224 331.732 72.224C333.556 72.224 334.948 70.64 334.948 68.032C334.948 65.424 333.556 63.856 331.732 63.856C330.34 63.856 329.572 64.624 329.188 65.296V64.08H327.86V75.12ZM331.38 71.024C330.084 71.024 329.14 70.016 329.14 68.016C329.14 66.016 330.084 65.056 331.38 65.056C332.644 65.056 333.556 65.808 333.556 68.016C333.556 70.224 332.644 71.024 331.38 71.024ZM339.671 72.224C341.063 72.224 341.831 71.456 342.215 70.784V72H343.543V64.08H342.183V65.312C341.799 64.64 341.063 63.856 339.671 63.856C337.847 63.856 336.455 65.44 336.455 68.048C336.455 70.656 337.847 72.224 339.671 72.224ZM340.023 71.024C338.759 71.024 337.847 70.272 337.847 68.064C337.847 65.856 338.759 65.056 340.023 65.056C341.319 65.056 342.263 66.064 342.263 68.064C342.263 70.064 341.319 71.024 340.023 71.024ZM349.387 72.224C351.163 72.224 352.315 71.184 352.827 69.712L351.547 69.264C351.291 70.128 350.699 71.024 349.387 71.024C348.075 71.024 347.051 70.064 347.051 68.032C347.051 66.048 348.107 65.056 349.371 65.056C350.523 65.056 351.099 65.808 351.355 66.56L352.619 66.144C352.251 64.912 351.163 63.856 349.371 63.856C347.179 63.856 345.627 65.584 345.627 68.032C345.627 70.592 347.099 72.224 349.387 72.224ZM354.593 62.528H356.033V60.8H354.593V62.528ZM354.641 72H356.001V64.08H354.641V72ZM358.688 72H360.048V68.64C360.048 67.472 360.096 65.056 362.272 65.056C363.328 65.056 364.016 65.664 364.016 67.152V72H365.376V66.832C365.376 65.072 364.576 63.856 362.608 63.856C360.896 63.856 360.128 65.072 360.016 65.424V64.08H358.688V72ZM369.233 75.12H372.929C374.273 75.12 375.409 74.416 375.409 72.944C375.409 71.616 374.417 70.752 372.897 70.752H369.441C368.881 70.752 368.769 70.464 368.769 70.208C368.769 69.92 369.057 69.616 369.489 69.424C369.921 69.68 370.417 69.728 370.961 69.728C372.721 69.728 373.921 68.56 374.049 66.768L374.081 66.336C374.145 65.408 374.417 65.232 375.137 65.232H375.745V64.08H374.897C374.129 64.08 373.761 64.608 373.601 65.216C373.265 64.656 372.433 63.856 370.961 63.856C369.137 63.856 367.809 65.152 367.809 66.8C367.809 67.792 368.241 68.512 368.689 68.912C368.177 69.28 367.521 69.808 367.521 70.592C367.521 71.216 367.777 71.584 368.225 71.856C367.745 72.128 367.169 72.72 367.169 73.52C367.169 74.448 367.713 75.12 369.233 75.12ZM370.961 68.608C369.889 68.608 369.185 67.888 369.185 66.8C369.185 65.712 369.889 64.976 370.961 64.976C372.033 64.976 372.737 65.712 372.737 66.8C372.737 67.888 372.033 68.608 370.961 68.608ZM369.697 73.904C368.865 73.904 368.417 73.728 368.417 73.072C368.417 72.528 368.769 72.176 369.041 72H372.785C373.409 72 374.033 72.128 374.033 72.944C374.033 73.76 373.409 73.904 372.785 73.904H369.697ZM376.901 67.776H381.317V66.336H376.901V67.776ZM382.367 72H383.855L384.863 70.496L385.871 68.976C386.095 69.328 386.271 69.6 386.863 70.496L387.855 72H389.487L386.735 67.968L389.327 64.08H387.823L386.959 65.44C386.351 66.384 386.159 66.672 385.935 66.992C385.743 66.672 385.567 66.384 384.975 65.44L384.111 64.08H382.527L385.087 67.952L382.367 72ZM393.813 72.224C395.813 72.224 396.965 71.28 396.965 69.792C396.965 67.984 395.093 67.504 394.293 67.344L393.381 67.168C392.245 66.944 391.989 66.624 391.989 66.096C391.989 65.52 392.501 64.976 393.605 64.976C394.949 64.976 395.397 65.824 395.589 66.352L396.821 65.904C396.501 64.864 395.573 63.856 393.605 63.856C392.053 63.856 390.709 64.816 390.709 66.24C390.709 67.744 391.861 68.24 393.173 68.496L394.085 68.672C395.237 68.896 395.605 69.312 395.605 69.904C395.605 70.656 394.965 71.056 393.813 71.056C392.565 71.056 391.925 70.464 391.685 69.52L390.373 69.952C390.725 71.472 392.197 72.224 393.813 72.224Z" fill="#6E6E78"/>
<path d="M502 298C502 298.552 502.448 299 503 299C503.552 299 504 298.552 504 298L502 298ZM503.707 227.793C503.317 227.402 502.683 227.402 502.293 227.793L495.929 234.157C495.538 234.547 495.538 235.181 495.929 235.571C496.319 235.962 496.953 235.962 497.343 235.571L503 229.914L508.657 235.571C509.047 235.962 509.681 235.962 510.071 235.571C510.462 235.181 510.462 234.547 510.071 234.157L503.707 227.793ZM504 298L504 228.5L502 228.5L502 298L504 298Z" fill="#DA372C"/>
<path d="M516.648 298H524.12V296.608H518.088V286.8H516.648V298ZM525.577 288.528H527.017V286.8H525.577V288.528ZM525.625 298H526.985V290.08H525.625V298ZM529.672 298H531.032V294.64C531.032 293.472 531.08 291.056 533.256 291.056C534.312 291.056 535 291.664 535 293.152V298H536.36V292.832C536.36 291.072 535.56 289.856 533.592 289.856C531.88 289.856 531.112 291.072 531 291.424V290.08H529.672V298ZM544.81 298H546.554L542.746 293.392L546.314 290.08H544.506L540.298 294.16V291.568V286.8H538.938V298H540.298V295.664L541.802 294.288L544.81 298ZM554.315 298H556.139V296.8H554.491C553.931 296.8 553.691 296.56 553.691 296V291.232H555.851V290.08H553.691V287.6H552.331V290.08H550.491V291.232H552.331V296.08C552.331 297.392 553.003 298 554.315 298ZM560.774 298.224C562.262 298.224 563.59 297.552 564.182 295.936L562.934 295.504C562.726 296.016 562.166 297.04 560.822 297.04C559.718 297.04 558.614 296.4 558.534 294.4H564.118C564.422 291.808 562.998 289.856 560.694 289.856C558.678 289.856 557.19 291.472 557.19 294.08C557.19 296.768 558.614 298.224 560.774 298.224ZM558.566 293.264C558.678 291.824 559.654 290.976 560.694 290.976C561.782 290.976 562.726 291.76 562.726 293.264H558.566ZM565.179 298H566.667L567.675 296.496L568.683 294.976C568.907 295.328 569.083 295.6 569.675 296.496L570.667 298H572.299L569.547 293.968L572.139 290.08H570.635L569.771 291.44C569.163 292.384 568.971 292.672 568.747 292.992C568.555 292.672 568.379 292.384 567.787 291.44L566.923 290.08H565.339L567.899 293.952L565.179 298ZM576.705 298H578.529V296.8H576.881C576.321 296.8 576.081 296.56 576.081 296V291.232H578.241V290.08H576.081V287.6H574.721V290.08H572.881V291.232H574.721V296.08C574.721 297.392 575.393 298 576.705 298Z" fill="#6E6E78"/>
</svg>
