<svg width="766" height="306" viewBox="0 0 766 306" fill="none" xmlns="http://www.w3.org/2000/svg">
<rect x="307" y="104" width="137" height="72" rx="4" fill="#EBEBED"/>
<path d="M322.671 151H325.551V141.4H335.919V138.68H325.551V131.32H338.767V128.6H322.671V151ZM340.876 151H343.596V143.736C343.596 140.024 345.068 137.752 348.652 137.752C349.292 137.752 349.836 137.816 350.348 137.912V135.128C349.964 135.032 349.484 134.936 348.716 134.936C345.708 134.936 344.076 137.272 343.564 138.456V135.16H340.876V151ZM359.425 151.448C363.585 151.448 366.785 147.864 366.785 143.096C366.785 138.328 363.713 134.712 359.425 134.712C355.137 134.712 352.065 138.328 352.065 143.096C352.065 147.864 355.265 151.448 359.425 151.448ZM359.425 149.048C356.737 149.048 354.881 147.128 354.881 143.128C354.881 139.128 356.737 137.112 359.425 137.112C362.113 137.112 363.969 139.128 363.969 143.128C363.969 147.128 362.113 149.048 359.425 149.048ZM376.251 151.448C380.251 151.448 382.555 149.56 382.555 146.584C382.555 142.968 378.811 142.008 377.211 141.688L375.387 141.336C373.115 140.888 372.603 140.248 372.603 139.192C372.603 138.04 373.627 136.952 375.835 136.952C378.523 136.952 379.419 138.648 379.803 139.704L382.267 138.808C381.627 136.728 379.771 134.712 375.835 134.712C372.731 134.712 370.043 136.632 370.043 139.48C370.043 142.488 372.347 143.48 374.971 143.992L376.795 144.344C379.099 144.792 379.835 145.624 379.835 146.808C379.835 148.312 378.555 149.112 376.251 149.112C373.755 149.112 372.475 147.928 371.995 146.04L369.371 146.904C370.075 149.944 373.019 151.448 376.251 151.448ZM391.973 151H395.621V148.6H392.325C391.205 148.6 390.725 148.12 390.725 147V137.464H395.045V135.16H390.725V130.2H388.005V135.16H384.325V137.464H388.005V147.16C388.005 149.784 389.349 151 391.973 151ZM404.891 151.448C407.867 151.448 410.523 150.104 411.707 146.872L409.211 146.008C408.795 147.032 407.675 149.08 404.987 149.08C402.779 149.08 400.571 147.8 400.411 143.8H411.579C412.187 138.616 409.339 134.712 404.731 134.712C400.699 134.712 397.723 137.944 397.723 143.16C397.723 148.536 400.571 151.448 404.891 151.448ZM400.475 141.528C400.699 138.648 402.651 136.952 404.731 136.952C406.907 136.952 408.795 138.52 408.795 141.528H400.475ZM421.186 151.448C423.97 151.448 425.506 149.912 426.274 148.568V151H428.93V128.6H426.21V134.52V137.624C425.442 136.28 423.97 134.712 421.186 134.712C417.538 134.712 414.754 137.88 414.754 143.096C414.754 148.312 417.538 151.448 421.186 151.448ZM421.89 149.048C419.362 149.048 417.538 147.544 417.538 143.128C417.538 138.712 419.362 137.112 421.89 137.112C424.482 137.112 426.37 139.128 426.37 143.128C426.37 147.128 424.482 149.048 421.89 149.048Z" fill="#1D1D21"/>
<path d="M212 114.5L211.5 114.5L211.5 115.5L212 115.5L212 114.5ZM325.354 115.354C325.549 115.158 325.549 114.842 325.354 114.646L322.172 111.464C321.976 111.269 321.66 111.269 321.464 111.464C321.269 111.66 321.269 111.976 321.464 112.172L324.293 115L321.464 117.828C321.269 118.024 321.269 118.34 321.464 118.536C321.66 118.731 321.976 118.731 322.172 118.536L325.354 115.354ZM212 115.5L325 115.5L325 114.5L212 114.5L212 115.5Z" fill="#2D8C9E"/>
<path d="M134.143 117H135.223V109.62H138.331V108.6H131.155V109.62H134.143V117ZM139.802 117.168C140.726 117.168 141.29 116.772 141.734 116.1C141.806 116.592 141.938 117 142.838 117H143.618V116.1H142.994C142.718 116.1 142.646 116.028 142.646 115.752V112.932C142.646 111.708 141.914 110.892 140.33 110.892C138.782 110.892 137.966 111.732 137.75 112.524L138.746 112.884C138.902 112.44 139.226 111.792 140.318 111.792C141.23 111.792 141.626 112.224 141.626 112.944V113.112C139.694 113.268 137.882 113.832 137.882 115.464C137.882 116.52 138.626 117.168 139.802 117.168ZM140.042 116.304C139.298 116.304 138.938 115.944 138.938 115.38C138.938 114.408 140.174 114.036 141.626 113.88V114.54C141.626 115.776 140.822 116.304 140.042 116.304ZM145.671 119.34H148.443C149.451 119.34 150.303 118.812 150.303 117.708C150.303 116.712 149.559 116.064 148.419 116.064H145.827C145.407 116.064 145.323 115.848 145.323 115.656C145.323 115.44 145.539 115.212 145.863 115.068C146.187 115.26 146.559 115.296 146.967 115.296C148.287 115.296 149.187 114.42 149.283 113.076L149.307 112.752C149.355 112.056 149.559 111.924 150.099 111.924H150.555V111.06H149.919C149.343 111.06 149.067 111.456 148.947 111.912C148.695 111.492 148.071 110.892 146.967 110.892C145.599 110.892 144.603 111.864 144.603 113.1C144.603 113.844 144.927 114.384 145.263 114.684C144.879 114.96 144.387 115.356 144.387 115.944C144.387 116.412 144.579 116.688 144.915 116.892C144.555 117.096 144.123 117.54 144.123 118.14C144.123 118.836 144.531 119.34 145.671 119.34ZM146.967 114.456C146.163 114.456 145.635 113.916 145.635 113.1C145.635 112.284 146.163 111.732 146.967 111.732C147.771 111.732 148.299 112.284 148.299 113.1C148.299 113.916 147.771 114.456 146.967 114.456ZM146.019 118.428C145.395 118.428 145.059 118.296 145.059 117.804C145.059 117.396 145.323 117.132 145.527 117H148.335C148.803 117 149.271 117.096 149.271 117.708C149.271 118.32 148.803 118.428 148.335 118.428H146.019ZM157.224 117.168C158.556 117.168 159.42 116.388 159.804 115.284L158.844 114.948C158.652 115.596 158.208 116.268 157.224 116.268C156.24 116.268 155.472 115.548 155.472 114.024C155.472 112.536 156.264 111.792 157.212 111.792C158.076 111.792 158.508 112.356 158.7 112.92L159.648 112.608C159.372 111.684 158.556 110.892 157.212 110.892C155.568 110.892 154.404 112.188 154.404 114.024C154.404 115.944 155.508 117.168 157.224 117.168ZM163.456 117.168C165.016 117.168 166.216 115.824 166.216 114.036C166.216 112.248 165.064 110.892 163.456 110.892C161.848 110.892 160.696 112.248 160.696 114.036C160.696 115.824 161.896 117.168 163.456 117.168ZM163.456 116.268C162.448 116.268 161.752 115.548 161.752 114.048C161.752 112.548 162.448 111.792 163.456 111.792C164.464 111.792 165.16 112.548 165.16 114.048C165.16 115.548 164.464 116.268 163.456 116.268ZM167.762 117H168.782V114.48C168.782 113.604 168.818 111.792 170.45 111.792C171.242 111.792 171.758 112.248 171.758 113.364V117H172.778V113.124C172.778 111.804 172.178 110.892 170.702 110.892C169.418 110.892 168.842 111.804 168.758 112.068V111.06H167.762V117ZM176.775 117H178.143V116.1H176.907C176.487 116.1 176.307 115.92 176.307 115.5V111.924H177.927V111.06H176.307V109.2H175.287V111.06H173.907V111.924H175.287V115.56C175.287 116.544 175.791 117 176.775 117ZM180.97 117.168C181.894 117.168 182.458 116.772 182.902 116.1C182.974 116.592 183.106 117 184.006 117H184.786V116.1H184.162C183.886 116.1 183.814 116.028 183.814 115.752V112.932C183.814 111.708 183.082 110.892 181.498 110.892C179.95 110.892 179.134 111.732 178.918 112.524L179.914 112.884C180.07 112.44 180.394 111.792 181.486 111.792C182.398 111.792 182.794 112.224 182.794 112.944V113.112C180.862 113.268 179.05 113.832 179.05 115.464C179.05 116.52 179.794 117.168 180.97 117.168ZM181.21 116.304C180.466 116.304 180.106 115.944 180.106 115.38C180.106 114.408 181.342 114.036 182.794 113.88V114.54C182.794 115.776 181.99 116.304 181.21 116.304ZM185.843 109.896H186.923V108.6H185.843V109.896ZM185.879 117H186.899V111.06H185.879V117ZM188.914 117H189.934V114.48C189.934 113.604 189.97 111.792 191.602 111.792C192.394 111.792 192.91 112.248 192.91 113.364V117H193.93V113.124C193.93 111.804 193.33 110.892 191.854 110.892C190.57 110.892 189.994 111.804 189.91 112.068V111.06H188.914V117ZM198.107 117.168C199.223 117.168 200.219 116.664 200.663 115.452L199.727 115.128C199.571 115.512 199.151 116.28 198.143 116.28C197.315 116.28 196.487 115.8 196.427 114.3H200.615C200.843 112.356 199.775 110.892 198.047 110.892C196.535 110.892 195.419 112.104 195.419 114.06C195.419 116.076 196.487 117.168 198.107 117.168ZM196.451 113.448C196.535 112.368 197.267 111.732 198.047 111.732C198.863 111.732 199.571 112.32 199.571 113.448H196.451ZM202.25 117H203.27V114.276C203.27 112.884 203.822 112.032 205.166 112.032C205.406 112.032 205.61 112.056 205.802 112.092V111.048C205.658 111.012 205.478 110.976 205.19 110.976C204.062 110.976 203.45 111.852 203.258 112.296V111.06H202.25V117ZM151.959 136.6H151.299L150.459 138.136V139.564H151.827V138.136H151.107L151.959 136.6ZM157.299 145.168C159.075 145.168 159.855 144.1 160.143 143.476V145H161.211V140.896H157.143V141.916H160.083C160.023 142.996 159.075 144.148 157.407 144.148C155.679 144.148 154.491 142.924 154.491 140.776C154.491 138.592 155.991 137.476 157.455 137.476C158.895 137.476 159.687 138.268 160.107 139.408L161.235 138.952C160.803 137.692 159.591 136.432 157.491 136.432C155.235 136.432 153.327 138.196 153.327 140.788C153.327 143.452 154.815 145.168 157.299 145.168ZM163.028 145H164.048V142.276C164.048 140.884 164.6 140.032 165.944 140.032C166.184 140.032 166.388 140.056 166.58 140.092V139.048C166.436 139.012 166.256 138.976 165.968 138.976C164.84 138.976 164.228 139.852 164.036 140.296V139.06H163.028V145ZM169.936 145.168C171.052 145.168 172.048 144.664 172.492 143.452L171.556 143.128C171.4 143.512 170.98 144.28 169.972 144.28C169.144 144.28 168.316 143.8 168.256 142.3H172.444C172.672 140.356 171.604 138.892 169.876 138.892C168.364 138.892 167.248 140.104 167.248 142.06C167.248 144.076 168.316 145.168 169.936 145.168ZM168.28 141.448C168.364 140.368 169.096 139.732 169.876 139.732C170.692 139.732 171.4 140.32 171.4 141.448H168.28ZM177.666 139.06L176.586 142.312C176.346 143.032 176.274 143.248 176.166 143.596C176.046 143.284 175.95 143.044 175.578 142.144L174.306 139.06H173.154L175.722 144.928L175.386 145.876C175.23 146.32 174.966 146.404 174.57 146.404H173.442V147.34H174.57C175.614 147.34 176.046 146.992 176.442 145.816L178.746 139.06H177.666ZM184.581 145H185.661V136.6H184.797C184.233 137.596 183.297 138.208 182.313 138.472V139.612C183.237 139.456 184.125 138.832 184.581 138.064V139.24V145ZM190.978 145.168C192.97 145.168 194.302 143.644 194.302 140.764C194.302 137.872 192.778 136.432 190.978 136.432C189.166 136.432 187.63 137.872 187.63 140.764C187.63 143.644 188.974 145.168 190.978 145.168ZM190.978 144.184C189.598 144.184 188.77 142.936 188.77 140.764C188.77 138.784 189.622 137.416 190.978 137.416C192.322 137.416 193.162 138.784 193.162 140.764C193.162 142.936 192.346 144.184 190.978 144.184ZM199.064 145.168C201.056 145.168 202.388 143.644 202.388 140.764C202.388 137.872 200.864 136.432 199.064 136.432C197.252 136.432 195.716 137.872 195.716 140.764C195.716 143.644 197.06 145.168 199.064 145.168ZM199.064 144.184C197.684 144.184 196.856 142.936 196.856 140.764C196.856 138.784 197.708 137.416 199.064 137.416C200.408 137.416 201.248 138.784 201.248 140.764C201.248 142.936 200.432 144.184 199.064 144.184ZM203.874 139.552H204.534L205.374 138.016V136.588H204.006V138.016H204.726L203.874 139.552Z" fill="#2D8C9E"/>
<path d="M549 140.5L549.5 140.5L549.5 139.5L549 139.5L549 140.5ZM436.646 139.646C436.451 139.842 436.451 140.158 436.646 140.354L439.828 143.536C440.024 143.731 440.34 143.731 440.536 143.536C440.731 143.34 440.731 143.024 440.536 142.828L437.707 140L440.536 137.172C440.731 136.976 440.731 136.66 440.536 136.464C440.34 136.269 440.024 136.269 439.828 136.464L436.646 139.646ZM549 139.5L437 139.5L437 140.5L549 140.5L549 139.5Z" fill="#2D8C9E"/>
<path d="M558.108 144H559.188V136.62H562.296V135.6H555.12V136.62H558.108V144ZM563.767 144.168C564.691 144.168 565.255 143.772 565.699 143.1C565.771 143.592 565.903 144 566.803 144H567.583V143.1H566.959C566.683 143.1 566.611 143.028 566.611 142.752V139.932C566.611 138.708 565.879 137.892 564.295 137.892C562.747 137.892 561.931 138.732 561.715 139.524L562.711 139.884C562.867 139.44 563.191 138.792 564.283 138.792C565.195 138.792 565.591 139.224 565.591 139.944V140.112C563.659 140.268 561.847 140.832 561.847 142.464C561.847 143.52 562.591 144.168 563.767 144.168ZM564.007 143.304C563.263 143.304 562.903 142.944 562.903 142.38C562.903 141.408 564.139 141.036 565.591 140.88V141.54C565.591 142.776 564.787 143.304 564.007 143.304ZM569.636 146.34H572.408C573.416 146.34 574.268 145.812 574.268 144.708C574.268 143.712 573.524 143.064 572.384 143.064H569.792C569.372 143.064 569.288 142.848 569.288 142.656C569.288 142.44 569.504 142.212 569.828 142.068C570.152 142.26 570.524 142.296 570.932 142.296C572.252 142.296 573.152 141.42 573.248 140.076L573.272 139.752C573.32 139.056 573.524 138.924 574.064 138.924H574.52V138.06H573.884C573.308 138.06 573.032 138.456 572.912 138.912C572.66 138.492 572.036 137.892 570.932 137.892C569.564 137.892 568.568 138.864 568.568 140.1C568.568 140.844 568.892 141.384 569.228 141.684C568.844 141.96 568.352 142.356 568.352 142.944C568.352 143.412 568.544 143.688 568.88 143.892C568.52 144.096 568.088 144.54 568.088 145.14C568.088 145.836 568.496 146.34 569.636 146.34ZM570.932 141.456C570.128 141.456 569.6 140.916 569.6 140.1C569.6 139.284 570.128 138.732 570.932 138.732C571.736 138.732 572.264 139.284 572.264 140.1C572.264 140.916 571.736 141.456 570.932 141.456ZM569.984 145.428C569.36 145.428 569.024 145.296 569.024 144.804C569.024 144.396 569.288 144.132 569.492 144H572.3C572.768 144 573.236 144.096 573.236 144.708C573.236 145.32 572.768 145.428 572.3 145.428H569.984ZM580.792 144.168C581.836 144.168 582.412 143.592 582.7 143.088V144H583.696V135.6H582.676V137.82V138.984C582.388 138.48 581.836 137.892 580.792 137.892C579.424 137.892 578.38 139.08 578.38 141.036C578.38 142.992 579.424 144.168 580.792 144.168ZM581.056 143.268C580.108 143.268 579.424 142.704 579.424 141.048C579.424 139.392 580.108 138.792 581.056 138.792C582.028 138.792 582.736 139.548 582.736 141.048C582.736 142.548 582.028 143.268 581.056 143.268ZM587.959 144.168C589.075 144.168 590.071 143.664 590.515 142.452L589.579 142.128C589.423 142.512 589.003 143.28 587.995 143.28C587.167 143.28 586.339 142.8 586.279 141.3H590.467C590.695 139.356 589.627 137.892 587.899 137.892C586.387 137.892 585.271 139.104 585.271 141.06C585.271 143.076 586.339 144.168 587.959 144.168ZM586.303 140.448C586.387 139.368 587.119 138.732 587.899 138.732C588.715 138.732 589.423 139.32 589.423 140.448H586.303ZM594.106 144.168C595.606 144.168 596.47 143.46 596.47 142.344C596.47 140.988 595.066 140.628 594.466 140.508L593.782 140.376C592.93 140.208 592.738 139.968 592.738 139.572C592.738 139.14 593.122 138.732 593.95 138.732C594.958 138.732 595.294 139.368 595.438 139.764L596.362 139.428C596.122 138.648 595.426 137.892 593.95 137.892C592.786 137.892 591.778 138.612 591.778 139.68C591.778 140.808 592.642 141.18 593.626 141.372L594.31 141.504C595.174 141.672 595.45 141.984 595.45 142.428C595.45 142.992 594.97 143.292 594.106 143.292C593.17 143.292 592.69 142.848 592.51 142.14L591.526 142.464C591.79 143.604 592.894 144.168 594.106 144.168ZM600.36 144.168C601.692 144.168 602.556 143.388 602.94 142.284L601.98 141.948C601.788 142.596 601.344 143.268 600.36 143.268C599.376 143.268 598.608 142.548 598.608 141.024C598.608 139.536 599.4 138.792 600.348 138.792C601.212 138.792 601.644 139.356 601.836 139.92L602.784 139.608C602.508 138.684 601.692 137.892 600.348 137.892C598.704 137.892 597.54 139.188 597.54 141.024C597.54 142.944 598.644 144.168 600.36 144.168ZM604.301 144H605.321V141.276C605.321 139.884 605.873 139.032 607.217 139.032C607.457 139.032 607.661 139.056 607.853 139.092V138.048C607.709 138.012 607.529 137.976 607.241 137.976C606.113 137.976 605.501 138.852 605.309 139.296V138.06H604.301V144ZM609.023 136.896H610.103V135.6H609.023V136.896ZM609.059 144H610.079V138.06H609.059V144ZM612.094 146.34H613.114V144.24V143.076C613.402 143.58 613.954 144.168 614.998 144.168C616.366 144.168 617.41 142.98 617.41 141.024C617.41 139.068 616.366 137.892 614.998 137.892C613.954 137.892 613.378 138.468 613.09 138.972V138.06H612.094V146.34ZM614.734 143.268C613.762 143.268 613.054 142.512 613.054 141.012C613.054 139.512 613.762 138.792 614.734 138.792C615.682 138.792 616.366 139.356 616.366 141.012C616.366 142.668 615.682 143.268 614.734 143.268ZM621.002 144H622.37V143.1H621.134C620.714 143.1 620.534 142.92 620.534 142.5V138.924H622.154V138.06H620.534V136.2H619.514V138.06H618.134V138.924H619.514V142.56C619.514 143.544 620.018 144 621.002 144ZM625.894 144.168C627.454 144.168 628.654 142.824 628.654 141.036C628.654 139.248 627.502 137.892 625.894 137.892C624.286 137.892 623.134 139.248 623.134 141.036C623.134 142.824 624.334 144.168 625.894 144.168ZM625.894 143.268C624.886 143.268 624.19 142.548 624.19 141.048C624.19 139.548 624.886 138.792 625.894 138.792C626.902 138.792 627.598 139.548 627.598 141.048C627.598 142.548 626.902 143.268 625.894 143.268ZM630.199 144H631.219V141.276C631.219 139.884 631.771 139.032 633.115 139.032C633.355 139.032 633.559 139.056 633.751 139.092V138.048C633.607 138.012 633.427 137.976 633.139 137.976C632.011 137.976 631.399 138.852 631.207 139.296V138.06H630.199V144ZM556.236 172H560.004C561.456 172 562.716 171.304 562.716 169.684C562.716 168.436 561.732 167.788 560.88 167.62C561.6 167.476 562.44 166.84 562.44 165.676C562.44 164.452 561.6 163.6 559.836 163.6H556.236V172ZM557.316 167.14V164.62H559.74C560.688 164.62 561.3 165.028 561.3 165.82C561.3 166.612 560.688 167.14 559.74 167.14H557.316ZM557.316 170.98V168.148H559.848C560.916 168.148 561.552 168.676 561.552 169.54C561.552 170.404 560.916 170.98 559.848 170.98H557.316ZM566.691 172.168C568.251 172.168 569.451 170.824 569.451 169.036C569.451 167.248 568.299 165.892 566.691 165.892C565.083 165.892 563.931 167.248 563.931 169.036C563.931 170.824 565.131 172.168 566.691 172.168ZM566.691 171.268C565.683 171.268 564.987 170.548 564.987 169.048C564.987 167.548 565.683 166.792 566.691 166.792C567.699 166.792 568.395 167.548 568.395 169.048C568.395 170.548 567.699 171.268 566.691 171.268ZM572.964 172.168C574.008 172.168 574.584 171.592 574.872 171.088V172H575.868V163.6H574.848V165.82V166.984C574.56 166.48 574.008 165.892 572.964 165.892C571.596 165.892 570.552 167.08 570.552 169.036C570.552 170.992 571.596 172.168 572.964 172.168ZM573.228 171.268C572.28 171.268 571.596 170.704 571.596 169.048C571.596 167.392 572.28 166.792 573.228 166.792C574.2 166.792 574.908 167.548 574.908 169.048C574.908 170.548 574.2 171.268 573.228 171.268ZM581.475 166.06L580.395 169.312C580.155 170.032 580.083 170.248 579.975 170.596C579.855 170.284 579.759 170.044 579.387 169.144L578.115 166.06H576.963L579.531 171.928L579.195 172.876C579.039 173.32 578.775 173.404 578.379 173.404H577.251V174.34H578.379C579.423 174.34 579.855 173.992 580.251 172.816L582.555 166.06H581.475ZM588.635 172H590.003V171.1H588.767C588.347 171.1 588.167 170.92 588.167 170.5V166.924H589.787V166.06H588.167V164.2H587.146V166.06H585.767V166.924H587.146V170.56C587.146 171.544 587.651 172 588.635 172ZM593.479 172.168C594.595 172.168 595.591 171.664 596.035 170.452L595.099 170.128C594.943 170.512 594.523 171.28 593.515 171.28C592.687 171.28 591.859 170.8 591.799 169.3H595.987C596.215 167.356 595.147 165.892 593.419 165.892C591.907 165.892 590.791 167.104 590.791 169.06C590.791 171.076 591.859 172.168 593.479 172.168ZM591.823 168.448C591.907 167.368 592.639 166.732 593.419 166.732C594.235 166.732 594.943 167.32 594.943 168.448H591.823ZM596.783 172H597.899L598.655 170.872L599.411 169.732C599.579 169.996 599.711 170.2 600.155 170.872L600.899 172H602.123L600.059 168.976L602.003 166.06H600.875L600.227 167.08C599.771 167.788 599.627 168.004 599.459 168.244C599.315 168.004 599.183 167.788 598.739 167.08L598.091 166.06H596.903L598.823 168.964L596.783 172ZM605.427 172H606.795V171.1H605.559C605.139 171.1 604.959 170.92 604.959 170.5V166.924H606.579V166.06H604.959V164.2H603.939V166.06H602.559V166.924H603.939V170.56C603.939 171.544 604.443 172 605.427 172ZM612.8 172H613.88V163.6H613.016C612.452 164.596 611.516 165.208 610.532 165.472V166.612C611.456 166.456 612.344 165.832 612.8 165.064V166.24V172Z" fill="#2D8C9E"/>
<path opacity="0.4" d="M432 104H440C442.209 104 444 105.791 444 108V172C444 174.209 442.209 176 440 176H432V104Z" fill="#2D8C9E"/>
<path opacity="0.4" d="M307 108C307 105.791 308.791 104 311 104H319V176H311C308.791 176 307 174.209 307 172V108Z" fill="#2D8C9E"/>
<path d="M312.5 244L312.5 244.5L313.5 244.5L313.5 244L312.5 244ZM313.354 183.646C313.158 183.451 312.842 183.451 312.646 183.646L309.464 186.828C309.269 187.024 309.269 187.34 309.464 187.536C309.66 187.731 309.976 187.731 310.172 187.536L313 184.707L315.828 187.536C316.024 187.731 316.34 187.731 316.536 187.536C316.731 187.34 316.731 187.024 316.536 186.828L313.354 183.646ZM313.5 244L313.5 184L312.5 184L312.5 244L313.5 244Z" fill="#2D8C9E"/>
<path d="M321 201L321 200.5L321 201ZM429 201L429 201.5L429 201ZM437 193L436.5 193L436.5 193L437 193ZM437.354 183.646C437.158 183.451 436.842 183.451 436.646 183.646L433.464 186.828C433.269 187.024 433.269 187.34 433.464 187.536C433.66 187.731 433.976 187.731 434.172 187.536L437 184.707L439.828 187.536C440.024 187.731 440.34 187.731 440.536 187.536C440.731 187.34 440.731 187.024 440.536 186.828L437.354 183.646ZM312.5 214L312.5 214.5L313.5 214.5L313.5 214L312.5 214ZM321 201.5L429 201.5L429 200.5L321 200.5L321 201.5ZM437.5 193L437.5 184L436.5 184L436.5 193L437.5 193ZM312.5 209L312.5 214L313.5 214L313.5 209L312.5 209ZM429 201.5C433.694 201.5 437.5 197.694 437.5 193L436.5 193C436.5 197.142 433.142 200.5 429 200.5L429 201.5ZM321 200.5C316.306 200.5 312.5 204.306 312.5 209L313.5 209C313.5 204.858 316.858 201.5 321 201.5L321 200.5Z" fill="#2D8C9E"/>
<path d="M323.108 238H324.188V230.62H327.296V229.6H320.12V230.62H323.108V238ZM328.39 230.896H329.47V229.6H328.39V230.896ZM328.426 238H329.446V232.06H328.426V238ZM331.461 238H332.481V235.48C332.481 234.604 332.517 232.792 334.149 232.792C334.941 232.792 335.457 233.248 335.457 234.364V238H336.477V234.124C336.477 232.804 335.877 231.892 334.401 231.892C333.117 231.892 332.541 232.804 332.457 233.068V232.06H331.461V238ZM341.998 232.06L340.918 235.312C340.678 236.032 340.606 236.248 340.498 236.596C340.378 236.284 340.282 236.044 339.91 235.144L338.638 232.06H337.486L340.054 237.928L339.718 238.876C339.562 239.32 339.298 239.404 338.902 239.404H337.774V240.34H338.902C339.946 240.34 340.378 239.992 340.774 238.816L343.078 232.06H341.998ZM349.309 238.168C350.809 238.168 351.673 237.46 351.673 236.344C351.673 234.988 350.269 234.628 349.669 234.508L348.985 234.376C348.133 234.208 347.941 233.968 347.941 233.572C347.941 233.14 348.325 232.732 349.153 232.732C350.161 232.732 350.497 233.368 350.641 233.764L351.565 233.428C351.325 232.648 350.629 231.892 349.153 231.892C347.989 231.892 346.981 232.612 346.981 233.68C346.981 234.808 347.845 235.18 348.829 235.372L349.513 235.504C350.377 235.672 350.653 235.984 350.653 236.428C350.653 236.992 350.173 237.292 349.309 237.292C348.373 237.292 347.893 236.848 347.713 236.14L346.729 236.464C346.993 237.604 348.097 238.168 349.309 238.168ZM353.199 240.34H354.219V238.24V237.076C354.507 237.58 355.059 238.168 356.103 238.168C357.471 238.168 358.515 236.98 358.515 235.024C358.515 233.068 357.471 231.892 356.103 231.892C355.059 231.892 354.483 232.468 354.195 232.972V232.06H353.199V240.34ZM355.839 237.268C354.867 237.268 354.159 236.512 354.159 235.012C354.159 233.512 354.867 232.792 355.839 232.792C356.787 232.792 357.471 233.356 357.471 235.012C357.471 236.668 356.787 237.268 355.839 237.268ZM361.626 238.168C362.55 238.168 363.114 237.772 363.558 237.1C363.63 237.592 363.762 238 364.662 238H365.442V237.1H364.818C364.542 237.1 364.47 237.028 364.47 236.752V233.932C364.47 232.708 363.738 231.892 362.154 231.892C360.606 231.892 359.79 232.732 359.574 233.524L360.57 233.884C360.726 233.44 361.05 232.792 362.142 232.792C363.054 232.792 363.45 233.224 363.45 233.944V234.112C361.518 234.268 359.706 234.832 359.706 236.464C359.706 237.52 360.45 238.168 361.626 238.168ZM361.866 237.304C361.122 237.304 360.762 236.944 360.762 236.38C360.762 235.408 361.998 235.036 363.45 234.88V235.54C363.45 236.776 362.646 237.304 361.866 237.304ZM368.899 238.168C370.231 238.168 371.095 237.388 371.479 236.284L370.519 235.948C370.327 236.596 369.883 237.268 368.899 237.268C367.915 237.268 367.147 236.548 367.147 235.024C367.147 233.536 367.939 232.792 368.887 232.792C369.751 232.792 370.183 233.356 370.375 233.92L371.323 233.608C371.047 232.684 370.231 231.892 368.887 231.892C367.243 231.892 366.079 233.188 366.079 235.024C366.079 236.944 367.183 238.168 368.899 238.168ZM372.804 230.896H373.884V229.6H372.804V230.896ZM372.84 238H373.86V232.06H372.84V238ZM375.875 238H376.895V235.48C376.895 234.604 376.931 232.792 378.563 232.792C379.355 232.792 379.871 233.248 379.871 234.364V238H380.891V234.124C380.891 232.804 380.291 231.892 378.815 231.892C377.531 231.892 376.955 232.804 376.871 233.068V232.06H375.875V238ZM383.784 240.34H386.556C387.564 240.34 388.416 239.812 388.416 238.708C388.416 237.712 387.672 237.064 386.532 237.064H383.94C383.52 237.064 383.436 236.848 383.436 236.656C383.436 236.44 383.652 236.212 383.976 236.068C384.3 236.26 384.672 236.296 385.08 236.296C386.4 236.296 387.3 235.42 387.396 234.076L387.42 233.752C387.468 233.056 387.672 232.924 388.212 232.924H388.668V232.06H388.032C387.456 232.06 387.18 232.456 387.06 232.912C386.808 232.492 386.184 231.892 385.08 231.892C383.712 231.892 382.716 232.864 382.716 234.1C382.716 234.844 383.04 235.384 383.376 235.684C382.992 235.96 382.5 236.356 382.5 236.944C382.5 237.412 382.692 237.688 383.028 237.892C382.668 238.096 382.236 238.54 382.236 239.14C382.236 239.836 382.644 240.34 383.784 240.34ZM385.08 235.456C384.276 235.456 383.748 234.916 383.748 234.1C383.748 233.284 384.276 232.732 385.08 232.732C385.884 232.732 386.412 233.284 386.412 234.1C386.412 234.916 385.884 235.456 385.08 235.456ZM384.132 239.428C383.508 239.428 383.172 239.296 383.172 238.804C383.172 238.396 383.436 238.132 383.64 238H386.448C386.916 238 387.384 238.096 387.384 238.708C387.384 239.32 386.916 239.428 386.448 239.428H384.132ZM398.55 239.92V238.996C397.194 238.6 396.642 236.548 396.63 234.412C396.618 232.264 397.194 230.14 398.55 229.756V228.82C396.39 229.312 395.682 231.988 395.682 234.412C395.682 236.824 396.39 239.44 398.55 239.92ZM402.379 238.168C404.299 238.168 405.295 236.8 405.295 235.252C405.295 233.812 404.311 232.576 402.619 232.576C401.587 232.576 400.687 233.152 400.327 234.076C400.315 231.592 401.623 230.488 403.327 230.488C403.879 230.488 404.371 230.596 404.803 230.752V229.672C404.371 229.516 403.723 229.432 403.303 229.432C400.543 229.432 399.247 231.508 399.247 234.088C399.247 236.8 400.543 238.168 402.379 238.168ZM402.391 237.208C401.395 237.208 400.627 236.488 400.627 235.372C400.627 234.256 401.395 233.536 402.391 233.536C403.363 233.536 404.155 234.256 404.155 235.372C404.155 236.488 403.363 237.208 402.391 237.208ZM406.883 240.34H407.903V238.24V237.076C408.191 237.58 408.743 238.168 409.787 238.168C411.155 238.168 412.199 236.98 412.199 235.024C412.199 233.068 411.155 231.892 409.787 231.892C408.743 231.892 408.167 232.468 407.879 232.972V232.06H406.883V240.34ZM409.523 237.268C408.551 237.268 407.843 236.512 407.843 235.012C407.843 233.512 408.551 232.792 409.523 232.792C410.471 232.792 411.155 233.356 411.155 235.012C411.155 236.668 410.471 237.268 409.523 237.268ZM412.912 238H414.028L414.784 236.872L415.54 235.732C415.708 235.996 415.84 236.2 416.284 236.872L417.028 238H418.252L416.188 234.976L418.132 232.06H417.004L416.356 233.08C415.9 233.788 415.756 234.004 415.588 234.244C415.444 234.004 415.312 233.788 414.868 233.08L414.22 232.06H413.032L414.952 234.964L412.912 238ZM418.808 228.82V229.744C420.164 230.14 420.716 232.192 420.728 234.328C420.74 236.476 420.164 238.6 418.808 238.984V239.92C420.968 239.428 421.676 236.752 421.676 234.328C421.676 231.916 420.968 229.3 418.808 228.82Z" fill="#2D8C9E"/>
<path d="M465.284 109H466.352V106.672H467.576V105.736H466.352V100.6H464.684L461.36 105.628V106.672H465.284V109ZM465.284 105.736H464.048H462.452L465.284 101.452V103.288V105.736ZM469.016 111.34H470.036V109.24V108.076C470.324 108.58 470.876 109.168 471.92 109.168C473.288 109.168 474.332 107.98 474.332 106.024C474.332 104.068 473.288 102.892 471.92 102.892C470.876 102.892 470.3 103.468 470.012 103.972V103.06H469.016V111.34ZM471.656 108.268C470.684 108.268 469.976 107.512 469.976 106.012C469.976 104.512 470.684 103.792 471.656 103.792C472.604 103.792 473.288 104.356 473.288 106.012C473.288 107.668 472.604 108.268 471.656 108.268ZM475.044 109H476.16L476.916 107.872L477.672 106.732C477.84 106.996 477.972 107.2 478.416 107.872L479.16 109H480.384L478.32 105.976L480.264 103.06H479.136L478.488 104.08C478.032 104.788 477.888 105.004 477.72 105.244C477.576 105.004 477.444 104.788 477 104.08L476.352 103.06H475.164L477.084 105.964L475.044 109ZM487.095 109.168C488.427 109.168 489.291 108.388 489.675 107.284L488.715 106.948C488.523 107.596 488.079 108.268 487.095 108.268C486.111 108.268 485.343 107.548 485.343 106.024C485.343 104.536 486.135 103.792 487.083 103.792C487.947 103.792 488.379 104.356 488.571 104.92L489.519 104.608C489.243 103.684 488.427 102.892 487.083 102.892C485.439 102.892 484.275 104.188 484.275 106.024C484.275 107.944 485.379 109.168 487.095 109.168ZM493.327 109.168C494.887 109.168 496.087 107.824 496.087 106.036C496.087 104.248 494.935 102.892 493.327 102.892C491.719 102.892 490.567 104.248 490.567 106.036C490.567 107.824 491.767 109.168 493.327 109.168ZM493.327 108.268C492.319 108.268 491.623 107.548 491.623 106.048C491.623 104.548 492.319 103.792 493.327 103.792C494.335 103.792 495.031 104.548 495.031 106.048C495.031 107.548 494.335 108.268 493.327 108.268ZM497.633 109H498.653V106.276C498.653 104.884 499.205 104.032 500.549 104.032C500.789 104.032 500.993 104.056 501.185 104.092V103.048C501.041 103.012 500.861 102.976 500.573 102.976C499.445 102.976 498.833 103.852 498.641 104.296V103.06H497.633V109ZM502.391 109H503.411V106.48C503.411 105.604 503.447 103.792 505.079 103.792C505.871 103.792 506.387 104.248 506.387 105.364V109H507.407V105.124C507.407 103.804 506.807 102.892 505.331 102.892C504.047 102.892 503.471 103.804 503.387 104.068V103.06H502.391V109ZM511.584 109.168C512.7 109.168 513.696 108.664 514.14 107.452L513.204 107.128C513.048 107.512 512.628 108.28 511.62 108.28C510.792 108.28 509.964 107.8 509.904 106.3H514.092C514.32 104.356 513.252 102.892 511.524 102.892C510.012 102.892 508.896 104.104 508.896 106.06C508.896 108.076 509.964 109.168 511.584 109.168ZM509.928 105.448C510.012 104.368 510.744 103.732 511.524 103.732C512.34 103.732 513.048 104.32 513.048 105.448H509.928ZM515.727 109H516.747V106.276C516.747 104.884 517.299 104.032 518.643 104.032C518.883 104.032 519.087 104.056 519.279 104.092V103.048C519.135 103.012 518.955 102.976 518.667 102.976C517.539 102.976 516.927 103.852 516.735 104.296V103.06H515.727V109ZM523.262 109H524.282V106.276C524.282 104.884 524.834 104.032 526.178 104.032C526.418 104.032 526.622 104.056 526.814 104.092V103.048C526.67 103.012 526.49 102.976 526.202 102.976C525.074 102.976 524.462 103.852 524.27 104.296V103.06H523.262V109ZM529.509 109.168C530.433 109.168 530.997 108.772 531.441 108.1C531.513 108.592 531.645 109 532.545 109H533.325V108.1H532.701C532.425 108.1 532.353 108.028 532.353 107.752V104.932C532.353 103.708 531.621 102.892 530.037 102.892C528.489 102.892 527.673 103.732 527.457 104.524L528.453 104.884C528.609 104.44 528.933 103.792 530.025 103.792C530.937 103.792 531.333 104.224 531.333 104.944V105.112C529.401 105.268 527.589 105.832 527.589 107.464C527.589 108.52 528.333 109.168 529.509 109.168ZM529.749 108.304C529.005 108.304 528.645 107.944 528.645 107.38C528.645 106.408 529.881 106.036 531.333 105.88V106.54C531.333 107.776 530.529 108.304 529.749 108.304ZM536.386 109.168C537.43 109.168 538.006 108.592 538.294 108.088V109H539.29V100.6H538.27V102.82V103.984C537.982 103.48 537.43 102.892 536.386 102.892C535.018 102.892 533.974 104.08 533.974 106.036C533.974 107.992 535.018 109.168 536.386 109.168ZM536.65 108.268C535.702 108.268 535.018 107.704 535.018 106.048C535.018 104.392 535.702 103.792 536.65 103.792C537.622 103.792 538.33 104.548 538.33 106.048C538.33 107.548 537.622 108.268 536.65 108.268ZM541.273 101.896H542.353V100.6H541.273V101.896ZM541.309 109H542.329V103.06H541.309V109ZM546.24 109.168C547.476 109.168 548.04 108.292 548.22 107.968V109H549.216V103.06H548.196V105.58C548.196 106.492 548.172 108.268 546.564 108.268C545.784 108.268 545.28 107.812 545.28 106.696V103.06H544.26V106.936C544.26 108.256 544.848 109.168 546.24 109.168ZM553.239 109.168C554.739 109.168 555.603 108.46 555.603 107.344C555.603 105.988 554.199 105.628 553.599 105.508L552.915 105.376C552.063 105.208 551.871 104.968 551.871 104.572C551.871 104.14 552.255 103.732 553.083 103.732C554.091 103.732 554.427 104.368 554.571 104.764L555.495 104.428C555.255 103.648 554.559 102.892 553.083 102.892C551.919 102.892 550.911 103.612 550.911 104.68C550.911 105.808 551.775 106.18 552.759 106.372L553.443 106.504C554.307 106.672 554.583 106.984 554.583 107.428C554.583 107.992 554.103 108.292 553.239 108.292C552.303 108.292 551.823 107.848 551.643 107.14L550.659 107.464C550.923 108.604 552.027 109.168 553.239 109.168Z" fill="#2D8C9E"/>
<path d="M429 94H441C447.627 94 453 99.3726 453 106V118" stroke="#2D8C9E"/>
</svg>
