<svg width="958" height="347" viewBox="0 0 958 347" fill="none" xmlns="http://www.w3.org/2000/svg">
<path d="M211 173.5L210.5 173.5L210.5 174.5L211 174.5L211 173.5ZM353.354 174.354C353.549 174.158 353.549 173.842 353.354 173.646L350.172 170.464C349.976 170.269 349.66 170.269 349.464 170.464C349.269 170.66 349.269 170.976 349.464 171.172L352.293 174L349.464 176.828C349.269 177.024 349.269 177.34 349.464 177.536C349.66 177.731 349.976 177.731 350.172 177.536L353.354 174.354ZM211 174.5L353 174.5L353 173.5L211 173.5L211 174.5Z" fill="#2D8C9E"/>
<path d="M215.692 156.168C217.768 156.168 218.98 154.956 219.352 153.612L218.26 153.204C217.948 154.212 217.348 155.148 215.692 155.148C213.952 155.148 212.788 153.732 212.788 151.704C212.788 149.676 213.964 148.452 215.692 148.452C217.384 148.452 218.008 149.604 218.224 150.288L219.34 149.904C219.004 148.788 217.864 147.432 215.692 147.432C213.268 147.432 211.624 149.28 211.624 151.716C211.624 154.152 213.064 156.168 215.692 156.168ZM220.809 156H221.829V153.48C221.829 152.604 221.865 150.792 223.497 150.792C224.289 150.792 224.805 151.248 224.805 152.364V156H225.825V152.124C225.825 150.804 225.177 149.892 223.821 149.892C222.417 149.892 221.913 150.804 221.829 151.068V149.82V147.6H220.809V156ZM230.002 156.168C231.118 156.168 232.114 155.664 232.558 154.452L231.622 154.128C231.466 154.512 231.046 155.28 230.038 155.28C229.21 155.28 228.382 154.8 228.322 153.3H232.51C232.738 151.356 231.67 149.892 229.942 149.892C228.43 149.892 227.314 151.104 227.314 153.06C227.314 155.076 228.382 156.168 230.002 156.168ZM228.346 152.448C228.43 151.368 229.162 150.732 229.942 150.732C230.758 150.732 231.466 151.32 231.466 152.448H228.346ZM236.509 156.168C237.841 156.168 238.705 155.388 239.089 154.284L238.129 153.948C237.937 154.596 237.493 155.268 236.509 155.268C235.525 155.268 234.757 154.548 234.757 153.024C234.757 151.536 235.549 150.792 236.497 150.792C237.361 150.792 237.793 151.356 237.985 151.92L238.933 151.608C238.657 150.684 237.841 149.892 236.497 149.892C234.853 149.892 233.689 151.188 233.689 153.024C233.689 154.944 234.793 156.168 236.509 156.168ZM244.853 156H246.161L243.305 152.544L245.981 150.06H244.625L241.469 153.12V151.176V147.6H240.449V156H241.469V154.248L242.597 153.216L244.853 156ZM250.115 156.168C251.483 156.168 252.527 154.98 252.527 153.024C252.527 151.068 251.483 149.892 250.115 149.892C249.071 149.892 248.519 150.468 248.231 150.972V149.82V147.6H247.211V156H248.207V155.076C248.495 155.58 249.071 156.168 250.115 156.168ZM249.851 155.268C248.879 155.268 248.171 154.512 248.171 153.012C248.171 151.512 248.879 150.792 249.851 150.792C250.799 150.792 251.483 151.356 251.483 153.012C251.483 154.668 250.799 155.268 249.851 155.268ZM256.394 156.168C257.954 156.168 259.154 154.824 259.154 153.036C259.154 151.248 258.002 149.892 256.394 149.892C254.786 149.892 253.634 151.248 253.634 153.036C253.634 154.824 254.834 156.168 256.394 156.168ZM256.394 155.268C255.386 155.268 254.69 154.548 254.69 153.048C254.69 151.548 255.386 150.792 256.394 150.792C257.402 150.792 258.098 151.548 258.098 153.048C258.098 154.548 257.402 155.268 256.394 155.268ZM259.814 156H260.93L261.686 154.872L262.442 153.732C262.61 153.996 262.742 154.2 263.186 154.872L263.93 156H265.154L263.09 152.976L265.034 150.06H263.906L263.258 151.08C262.802 151.788 262.658 152.004 262.49 152.244C262.346 152.004 262.214 151.788 261.77 151.08L261.122 150.06H259.934L261.854 152.964L259.814 156ZM269.464 148.896H270.544V147.6H269.464V148.896ZM269.5 156H270.52V150.06H269.5V156ZM272.535 156H273.555V153.48C273.555 152.604 273.591 150.792 275.223 150.792C276.015 150.792 276.531 151.248 276.531 152.364V156H277.551V152.124C277.551 150.804 276.951 149.892 275.475 149.892C274.191 149.892 273.615 150.804 273.531 151.068V150.06H272.535V156ZM279.485 158.34H280.505V156.24V155.076C280.793 155.58 281.345 156.168 282.389 156.168C283.757 156.168 284.801 154.98 284.801 153.024C284.801 151.068 283.757 149.892 282.389 149.892C281.345 149.892 280.769 150.468 280.481 150.972V150.06H279.485V158.34ZM282.125 155.268C281.153 155.268 280.445 154.512 280.445 153.012C280.445 151.512 281.153 150.792 282.125 150.792C283.073 150.792 283.757 151.356 283.757 153.012C283.757 154.668 283.073 155.268 282.125 155.268ZM288.271 156.168C289.507 156.168 290.071 155.292 290.251 154.968V156H291.247V150.06H290.227V152.58C290.227 153.492 290.203 155.268 288.595 155.268C287.815 155.268 287.311 154.812 287.311 153.696V150.06H286.291V153.936C286.291 155.256 286.879 156.168 288.271 156.168ZM295.33 156H296.698V155.1H295.462C295.042 155.1 294.862 154.92 294.862 154.5V150.924H296.482V150.06H294.862V148.2H293.842V150.06H292.462V150.924H293.842V154.56C293.842 155.544 294.346 156 295.33 156Z" fill="#2D8C9E"/>
<path d="M515.5 96L515.5 95.5L514.5 95.5L514.5 96L515.5 96ZM514.646 150.354C514.842 150.549 515.158 150.549 515.354 150.354L518.536 147.172C518.731 146.976 518.731 146.66 518.536 146.464C518.34 146.269 518.024 146.269 517.828 146.464L515 149.293L512.172 146.464C511.976 146.269 511.66 146.269 511.464 146.464C511.269 146.66 511.269 146.976 511.464 147.172L514.646 150.354ZM514.5 96L514.5 150L515.5 150L515.5 96L514.5 96Z" fill="#2D8C9E"/>
<path d="M424.407 111.168C426.483 111.168 427.695 109.956 428.067 108.612L426.975 108.204C426.663 109.212 426.063 110.148 424.407 110.148C422.667 110.148 421.503 108.732 421.503 106.704C421.503 104.676 422.679 103.452 424.407 103.452C426.099 103.452 426.723 104.604 426.939 105.288L428.055 104.904C427.719 103.788 426.579 102.432 424.407 102.432C421.983 102.432 420.339 104.28 420.339 106.716C420.339 109.152 421.779 111.168 424.407 111.168ZM429.524 111H430.544V108.48C430.544 107.604 430.58 105.792 432.212 105.792C433.004 105.792 433.52 106.248 433.52 107.364V111H434.54V107.124C434.54 105.804 433.892 104.892 432.536 104.892C431.132 104.892 430.628 105.804 430.544 106.068V104.82V102.6H429.524V111ZM438.717 111.168C439.833 111.168 440.829 110.664 441.273 109.452L440.337 109.128C440.181 109.512 439.761 110.28 438.753 110.28C437.925 110.28 437.097 109.8 437.037 108.3H441.225C441.453 106.356 440.385 104.892 438.657 104.892C437.145 104.892 436.029 106.104 436.029 108.06C436.029 110.076 437.097 111.168 438.717 111.168ZM437.061 107.448C437.145 106.368 437.877 105.732 438.657 105.732C439.473 105.732 440.181 106.32 440.181 107.448H437.061ZM445.224 111.168C446.556 111.168 447.42 110.388 447.804 109.284L446.844 108.948C446.652 109.596 446.208 110.268 445.224 110.268C444.24 110.268 443.472 109.548 443.472 108.024C443.472 106.536 444.264 105.792 445.212 105.792C446.076 105.792 446.508 106.356 446.7 106.92L447.648 106.608C447.372 105.684 446.556 104.892 445.212 104.892C443.568 104.892 442.404 106.188 442.404 108.024C442.404 109.944 443.508 111.168 445.224 111.168ZM453.568 111H454.876L452.02 107.544L454.696 105.06H453.34L450.184 108.12V106.176V102.6H449.164V111H450.184V109.248L451.312 108.216L453.568 111ZM458.83 111.168C460.198 111.168 461.242 109.98 461.242 108.024C461.242 106.068 460.198 104.892 458.83 104.892C457.786 104.892 457.234 105.468 456.946 105.972V104.82V102.6H455.926V111H456.922V110.076C457.21 110.58 457.786 111.168 458.83 111.168ZM458.566 110.268C457.594 110.268 456.886 109.512 456.886 108.012C456.886 106.512 457.594 105.792 458.566 105.792C459.514 105.792 460.198 106.356 460.198 108.012C460.198 109.668 459.514 110.268 458.566 110.268ZM465.109 111.168C466.669 111.168 467.869 109.824 467.869 108.036C467.869 106.248 466.717 104.892 465.109 104.892C463.501 104.892 462.349 106.248 462.349 108.036C462.349 109.824 463.549 111.168 465.109 111.168ZM465.109 110.268C464.101 110.268 463.405 109.548 463.405 108.048C463.405 106.548 464.101 105.792 465.109 105.792C466.117 105.792 466.813 106.548 466.813 108.048C466.813 109.548 466.117 110.268 465.109 110.268ZM468.529 111H469.645L470.401 109.872L471.157 108.732C471.325 108.996 471.457 109.2 471.901 109.872L472.645 111H473.869L471.805 107.976L473.749 105.06H472.621L471.973 106.08C471.517 106.788 471.373 107.004 471.205 107.244C471.061 107.004 470.929 106.788 470.485 106.08L469.837 105.06H468.649L470.569 107.964L468.529 111ZM478.215 111H479.235V102.6H478.215V111ZM482.786 111.168C483.71 111.168 484.274 110.772 484.718 110.1C484.79 110.592 484.922 111 485.822 111H486.602V110.1H485.978C485.702 110.1 485.63 110.028 485.63 109.752V106.932C485.63 105.708 484.898 104.892 483.314 104.892C481.766 104.892 480.95 105.732 480.734 106.524L481.73 106.884C481.886 106.44 482.21 105.792 483.302 105.792C484.214 105.792 484.61 106.224 484.61 106.944V107.112C482.678 107.268 480.866 107.832 480.866 109.464C480.866 110.52 481.61 111.168 482.786 111.168ZM483.026 110.304C482.282 110.304 481.922 109.944 481.922 109.38C481.922 108.408 483.158 108.036 484.61 107.88V108.54C484.61 109.776 483.806 110.304 483.026 110.304ZM490.6 111.168C491.968 111.168 493.012 109.98 493.012 108.024C493.012 106.068 491.968 104.892 490.6 104.892C489.556 104.892 489.004 105.468 488.716 105.972V104.82V102.6H487.696V111H488.692V110.076C488.98 110.58 489.556 111.168 490.6 111.168ZM490.336 110.268C489.364 110.268 488.656 109.512 488.656 108.012C488.656 106.512 489.364 105.792 490.336 105.792C491.284 105.792 491.968 106.356 491.968 108.012C491.968 109.668 491.284 110.268 490.336 110.268ZM496.83 111.168C497.946 111.168 498.942 110.664 499.386 109.452L498.45 109.128C498.294 109.512 497.874 110.28 496.866 110.28C496.038 110.28 495.21 109.8 495.15 108.3H499.338C499.566 106.356 498.498 104.892 496.77 104.892C495.258 104.892 494.142 106.104 494.142 108.06C494.142 110.076 495.21 111.168 496.83 111.168ZM495.174 107.448C495.258 106.368 495.99 105.732 496.77 105.732C497.586 105.732 498.294 106.32 498.294 107.448H495.174ZM500.973 111H501.993V102.6H500.973V111Z" fill="#2D8C9E"/>
<path d="M409.5 263L409.5 263.5L410.5 263.5L410.5 263L409.5 263ZM410.354 209.646C410.158 209.451 409.842 209.451 409.646 209.646L406.464 212.828C406.269 213.024 406.269 213.34 406.464 213.536C406.66 213.731 406.976 213.731 407.172 213.536L410 210.707L412.828 213.536C413.024 213.731 413.34 213.731 413.536 213.536C413.731 213.34 413.731 213.024 413.536 212.828L410.354 209.646ZM410.5 263L410.5 210L409.5 210L409.5 263L410.5 263Z" fill="#2D8C9E"/>
<path d="M340.676 258.26H341.576V257.156C343.28 257.024 344.216 256.04 344.216 254.672C344.216 253.4 343.268 252.68 341.936 252.344L341.576 252.248V249.464C342.548 249.656 342.932 250.4 343.088 250.844L344.084 250.352C343.868 249.644 343.088 248.624 341.576 248.456V247.34H340.676V248.456C339.248 248.624 338.3 249.548 338.3 250.784C338.3 252.176 339.164 252.788 340.4 253.052L340.676 253.112V256.136C339.74 255.932 339.176 255.248 338.9 254.408L337.88 254.9C338.252 256.076 339.2 256.964 340.676 257.144V258.26ZM340.676 252.044C339.74 251.804 339.332 251.444 339.332 250.724C339.332 250.04 339.836 249.524 340.676 249.428V250.976V252.044ZM341.576 256.184V254.636V253.316C342.62 253.556 343.124 254.024 343.124 254.768C343.124 255.548 342.56 256.088 341.576 256.184ZM347.739 257.168C349.239 257.168 350.103 256.46 350.103 255.344C350.103 253.988 348.699 253.628 348.099 253.508L347.415 253.376C346.563 253.208 346.371 252.968 346.371 252.572C346.371 252.14 346.755 251.732 347.583 251.732C348.591 251.732 348.927 252.368 349.071 252.764L349.995 252.428C349.755 251.648 349.059 250.892 347.583 250.892C346.419 250.892 345.411 251.612 345.411 252.68C345.411 253.808 346.275 254.18 347.259 254.372L347.943 254.504C348.807 254.672 349.083 254.984 349.083 255.428C349.083 255.992 348.603 256.292 347.739 256.292C346.803 256.292 346.323 255.848 346.143 255.14L345.159 255.464C345.423 256.604 346.527 257.168 347.739 257.168ZM351.629 259.34H352.649V257.24V256.076C352.937 256.58 353.489 257.168 354.533 257.168C355.901 257.168 356.945 255.98 356.945 254.024C356.945 252.068 355.901 250.892 354.533 250.892C353.489 250.892 352.913 251.468 352.625 251.972V251.06H351.629V259.34ZM354.269 256.268C353.297 256.268 352.589 255.512 352.589 254.012C352.589 252.512 353.297 251.792 354.269 251.792C355.217 251.792 355.901 252.356 355.901 254.012C355.901 255.668 355.217 256.268 354.269 256.268ZM360.056 257.168C360.98 257.168 361.544 256.772 361.988 256.1C362.06 256.592 362.192 257 363.092 257H363.872V256.1H363.248C362.972 256.1 362.9 256.028 362.9 255.752V252.932C362.9 251.708 362.168 250.892 360.584 250.892C359.036 250.892 358.22 251.732 358.004 252.524L359 252.884C359.156 252.44 359.48 251.792 360.572 251.792C361.484 251.792 361.88 252.224 361.88 252.944V253.112C359.948 253.268 358.136 253.832 358.136 255.464C358.136 256.52 358.88 257.168 360.056 257.168ZM360.296 256.304C359.552 256.304 359.192 255.944 359.192 255.38C359.192 254.408 360.428 254.036 361.88 253.88V254.54C361.88 255.776 361.076 256.304 360.296 256.304ZM367.329 257.168C368.661 257.168 369.525 256.388 369.909 255.284L368.949 254.948C368.757 255.596 368.313 256.268 367.329 256.268C366.345 256.268 365.577 255.548 365.577 254.024C365.577 252.536 366.369 251.792 367.317 251.792C368.181 251.792 368.613 252.356 368.805 252.92L369.753 252.608C369.477 251.684 368.661 250.892 367.317 250.892C365.673 250.892 364.509 252.188 364.509 254.024C364.509 255.944 365.613 257.168 367.329 257.168ZM371.234 249.896H372.314V248.6H371.234V249.896ZM371.27 257H372.29V251.06H371.27V257ZM374.305 257H375.325V254.48C375.325 253.604 375.361 251.792 376.993 251.792C377.785 251.792 378.301 252.248 378.301 253.364V257H379.321V253.124C379.321 251.804 378.721 250.892 377.245 250.892C375.961 250.892 375.385 251.804 375.301 252.068V251.06H374.305V257ZM382.214 259.34H384.986C385.994 259.34 386.846 258.812 386.846 257.708C386.846 256.712 386.102 256.064 384.962 256.064H382.37C381.95 256.064 381.866 255.848 381.866 255.656C381.866 255.44 382.082 255.212 382.406 255.068C382.73 255.26 383.102 255.296 383.51 255.296C384.83 255.296 385.73 254.42 385.826 253.076L385.85 252.752C385.898 252.056 386.102 251.924 386.642 251.924H387.098V251.06H386.462C385.886 251.06 385.61 251.456 385.49 251.912C385.238 251.492 384.614 250.892 383.51 250.892C382.142 250.892 381.146 251.864 381.146 253.1C381.146 253.844 381.47 254.384 381.806 254.684C381.422 254.96 380.93 255.356 380.93 255.944C380.93 256.412 381.122 256.688 381.458 256.892C381.098 257.096 380.666 257.54 380.666 258.14C380.666 258.836 381.074 259.34 382.214 259.34ZM383.51 254.456C382.706 254.456 382.178 253.916 382.178 253.1C382.178 252.284 382.706 251.732 383.51 251.732C384.314 251.732 384.842 252.284 384.842 253.1C384.842 253.916 384.314 254.456 383.51 254.456ZM382.562 258.428C381.938 258.428 381.602 258.296 381.602 257.804C381.602 257.396 381.866 257.132 382.07 257H384.878C385.346 257 385.814 257.096 385.814 257.708C385.814 258.32 385.346 258.428 384.878 258.428H382.562ZM387.965 253.832H391.277V252.752H387.965V253.832ZM395.117 257.168C396.617 257.168 397.481 256.46 397.481 255.344C397.481 253.988 396.077 253.628 395.477 253.508L394.793 253.376C393.941 253.208 393.749 252.968 393.749 252.572C393.749 252.14 394.133 251.732 394.961 251.732C395.969 251.732 396.305 252.368 396.449 252.764L397.373 252.428C397.133 251.648 396.437 250.892 394.961 250.892C393.797 250.892 392.789 251.612 392.789 252.68C392.789 253.808 393.653 254.18 394.637 254.372L395.321 254.504C396.185 254.672 396.461 254.984 396.461 255.428C396.461 255.992 395.981 256.292 395.117 256.292C394.181 256.292 393.701 255.848 393.521 255.14L392.537 255.464C392.801 256.604 393.905 257.168 395.117 257.168Z" fill="#2D8C9E"/>
<rect opacity="0.2" x="398" y="150" width="24" height="48" fill="#2D8C9E"/>
<rect x="366" y="158" width="32" height="32" rx="8" fill="#1662DD"/>
<path d="M369.911 174.678L369.824 174.766L369.912 174.854L378.13 183.088L378.219 183.177L378.307 183.088L394.088 167.323L394.177 167.234L394.088 167.145L391.822 164.911L391.734 164.824L391.646 164.911L378.219 178.323L372.323 172.427L372.234 172.338L372.146 172.427L369.911 174.678Z" fill="white" stroke="white" stroke-width="0.25"/>
<path d="M432.948 183.392C437.792 183.392 440.62 180.564 441.488 177.428L438.94 176.476C438.212 178.828 436.812 181.012 432.948 181.012C428.888 181.012 426.172 177.708 426.172 172.976C426.172 168.244 428.916 165.388 432.948 165.388C436.896 165.388 438.352 168.076 438.856 169.672L441.46 168.776C440.676 166.172 438.016 163.008 432.948 163.008C427.292 163.008 423.456 167.32 423.456 173.004C423.456 178.688 426.816 183.392 432.948 183.392ZM444.887 183H447.267V176.644C447.267 173.396 448.555 171.408 451.691 171.408C452.251 171.408 452.727 171.464 453.175 171.548V169.112C452.839 169.028 452.419 168.944 451.747 168.944C449.115 168.944 447.687 170.988 447.239 172.024V169.14H444.887V183ZM460.413 183.392C463.297 183.392 464.613 181.348 465.033 180.592V183H467.357V169.14H464.977V175.02C464.977 177.148 464.921 181.292 461.169 181.292C459.349 181.292 458.173 180.228 458.173 177.624V169.14H455.793V178.184C455.793 181.264 457.165 183.392 460.413 183.392ZM472.067 183H474.447V176.56C474.447 174.572 474.615 170.876 478.003 170.876C479.851 170.876 481.083 171.828 481.083 174.516V183H483.407V176.56C483.407 174.572 483.491 170.876 486.991 170.876C488.839 170.876 490.043 171.828 490.043 174.516V183H492.423V173.816C492.423 170.596 490.743 168.748 487.579 168.748C484.639 168.748 483.407 170.568 482.931 171.716C482.231 169.84 480.607 168.748 478.563 168.748C476.071 168.748 474.895 170.344 474.391 171.24V169.14H472.067V183ZM503.698 183.392C506.89 183.392 509.326 180.62 509.326 176.056C509.326 171.492 506.89 168.748 503.698 168.748C501.262 168.748 499.974 170.092 499.302 171.268V168.58V163.4H496.922V183H499.246V180.844C499.918 182.02 501.262 183.392 503.698 183.392ZM503.082 181.292C500.814 181.292 499.162 179.528 499.162 176.028C499.162 172.528 500.814 170.848 503.082 170.848C505.294 170.848 506.89 172.164 506.89 176.028C506.89 179.892 505.294 181.292 503.082 181.292ZM524.839 183.392C527.275 183.392 528.619 182.048 529.291 180.872V183H531.615V163.4H529.235V168.58V171.296C528.563 170.12 527.275 168.748 524.839 168.748C521.647 168.748 519.211 171.52 519.211 176.084C519.211 180.648 521.647 183.392 524.839 183.392ZM525.455 181.292C523.243 181.292 521.647 179.976 521.647 176.112C521.647 172.248 523.243 170.848 525.455 170.848C527.723 170.848 529.375 172.612 529.375 176.112C529.375 179.612 527.723 181.292 525.455 181.292ZM541.673 183.392C545.313 183.392 548.113 180.256 548.113 176.084C548.113 171.912 545.425 168.748 541.673 168.748C537.921 168.748 535.233 171.912 535.233 176.084C535.233 180.256 538.033 183.392 541.673 183.392ZM541.673 181.292C539.321 181.292 537.697 179.612 537.697 176.112C537.697 172.612 539.321 170.848 541.673 170.848C544.025 170.848 545.649 172.612 545.649 176.112C545.649 179.612 544.025 181.292 541.673 181.292ZM551.719 183H554.099V177.12C554.099 175.076 554.183 170.848 557.991 170.848C559.839 170.848 561.043 171.912 561.043 174.516V183H563.423V173.956C563.423 170.876 562.023 168.748 558.579 168.748C555.583 168.748 554.239 170.876 554.043 171.492V169.14H551.719V183ZM572.358 183.392C575.242 183.392 576.558 181.348 576.978 180.592V183H579.302V169.14H576.922V175.02C576.922 177.148 576.866 181.292 573.114 181.292C571.294 181.292 570.118 180.228 570.118 177.624V169.14H567.738V178.184C567.738 181.264 569.11 183.392 572.358 183.392ZM588.828 183H592.02V180.9H589.136C588.156 180.9 587.736 180.48 587.736 179.5V171.156H591.516V169.14H587.736V164.8H585.356V169.14H582.136V171.156H585.356V179.64C585.356 181.936 586.532 183 588.828 183Z" fill="#1D1D21"/>
</svg>
