<svg width="958" height="346" viewBox="0 0 958 346" fill="none" xmlns="http://www.w3.org/2000/svg">
<path fill-rule="evenodd" clip-rule="evenodd" d="M958 184H190V186H958V184Z" fill="#C1C1C8"/>
<g clip-path="url(#clip0)">
<path d="M216.548 159H220.188V150.04V142.704L226.124 159H229.148L235.112 142.704V150.04V159H238.752V139.4H232.984L229.232 149.648C228.28 152.252 227.972 153.064 227.748 153.624C227.524 153.12 227.188 152.252 226.264 149.648L222.512 139.4H216.548V159ZM243.057 142.844H246.697V139.372H243.057V142.844ZM243.197 159H246.585V145.056H243.197V159ZM255.841 159.392C259.733 159.392 262.001 157.628 262.001 154.912C262.001 152.056 259.425 150.992 257.213 150.572L255.421 150.208C253.741 149.9 253.293 149.452 253.293 148.668C253.293 147.828 254.049 147.1 255.589 147.1C257.325 147.1 258.249 148.164 258.641 149.228L261.525 147.996C260.937 146.428 259.201 144.636 255.701 144.636C252.341 144.636 250.045 146.372 250.045 148.976C250.045 151.692 251.837 152.616 254.553 153.148L256.401 153.512C258.053 153.848 258.473 154.464 258.473 155.248C258.473 156.228 257.605 156.872 255.981 156.872C253.461 156.872 252.789 155.164 252.621 154.38L249.457 155.388C250.073 157.936 252.705 159.392 255.841 159.392ZM270.197 159.392C274.089 159.392 276.357 157.628 276.357 154.912C276.357 152.056 273.781 150.992 271.569 150.572L269.777 150.208C268.097 149.9 267.649 149.452 267.649 148.668C267.649 147.828 268.405 147.1 269.945 147.1C271.681 147.1 272.605 148.164 272.997 149.228L275.881 147.996C275.293 146.428 273.557 144.636 270.057 144.636C266.697 144.636 264.401 146.372 264.401 148.976C264.401 151.692 266.193 152.616 268.909 153.148L270.757 153.512C272.409 153.848 272.829 154.464 272.829 155.248C272.829 156.228 271.961 156.872 270.337 156.872C267.817 156.872 267.145 155.164 266.977 154.38L263.813 155.388C264.429 157.936 267.061 159.392 270.197 159.392ZM279.26 142.844H282.9V139.372H279.26V142.844ZM279.4 159H282.788V145.056H279.4V159ZM292.94 159.42C297 159.42 299.968 156.452 299.968 152.028C299.968 147.66 297.028 144.636 292.94 144.636C288.852 144.636 285.912 147.66 285.912 152.028C285.912 156.284 288.88 159.42 292.94 159.42ZM292.94 156.648C290.868 156.648 289.44 155.192 289.44 152.084C289.44 148.976 290.868 147.408 292.94 147.408C295.012 147.408 296.412 148.976 296.412 152.084C296.412 155.192 295.012 156.648 292.94 156.648ZM303.135 159H306.551V152.644C306.551 150.936 306.607 147.492 309.743 147.492C311.283 147.492 312.263 148.388 312.263 150.488V159H315.679V149.732C315.679 146.68 314.307 144.636 310.975 144.636C308.258 144.636 306.915 146.456 306.467 147.268V145.056H303.135V159Z" fill="#1D1D21"/>
<path d="M190 182H330V186H190V182Z" fill="#1662DD"/>
</g>
<path d="M368.548 159H382.744V155.808H372.188V139.4H368.548V159ZM388.719 159.42C391.071 159.42 392.555 158.244 393.395 156.928C393.563 158.16 394.179 159 395.943 159H398.575V156.312H397.259C396.531 156.312 396.419 156.144 396.419 155.472V149.844C396.419 146.428 394.319 144.636 390.483 144.636C386.563 144.636 384.379 146.68 384.043 148.752L387.207 149.564C387.543 148.332 388.411 147.24 390.483 147.24C392.275 147.24 393.059 148.052 393.059 149.424V149.9C388.439 150.32 384.267 151.524 384.267 155.416C384.267 157.88 386.115 159.42 388.719 159.42ZM389.839 156.844C388.439 156.844 387.739 156.144 387.739 155.08C387.739 153.092 390.175 152.476 393.059 152.14V153.26C393.059 155.752 391.491 156.844 389.839 156.844ZM405.058 159.42C407.802 159.42 409.09 157.628 409.65 156.704V159H413.038V145.056H409.622V151.608C409.622 153.848 409.118 156.564 406.458 156.564C404.974 156.564 404.05 155.696 404.05 153.54V145.056H400.634V154.352C400.634 157.404 402.174 159.42 405.058 159.42ZM417.181 159H420.597V152.644C420.597 150.936 420.653 147.492 423.789 147.492C425.329 147.492 426.309 148.388 426.309 150.488V159H429.725V149.732C429.725 146.68 428.353 144.636 425.021 144.636C422.305 144.636 420.961 146.456 420.513 147.268V145.056H417.181V159ZM439.912 159.42C443.16 159.42 445.512 157.628 446.52 154.968L443.3 153.82C442.74 155.528 441.732 156.648 439.856 156.648C437.868 156.648 436.216 155.136 436.216 152C436.216 148.92 437.84 147.408 439.828 147.408C441.48 147.408 442.572 148.416 443.104 149.9L446.24 148.78C445.428 146.456 443.216 144.636 439.912 144.636C435.824 144.636 432.744 147.576 432.744 152C432.744 156.508 435.712 159.42 439.912 159.42ZM449.228 159H452.644V152.644C452.644 150.936 452.7 147.492 455.836 147.492C457.376 147.492 458.356 148.388 458.356 150.488V159H461.772V149.732C461.772 146.68 460.344 144.636 457.236 144.636C454.352 144.636 453.092 146.456 452.644 147.268V144.496V139.4H449.228V159Z" fill="#1D1D21"/>
<path d="M342 184H488V186H342V184Z" fill="#C1C1C8"/>
<path d="M526.548 159H540.744V155.808H530.188V139.4H526.548V159ZM546.719 159.42C549.071 159.42 550.555 158.244 551.395 156.928C551.563 158.16 552.179 159 553.943 159H556.575V156.312H555.259C554.531 156.312 554.419 156.144 554.419 155.472V149.844C554.419 146.428 552.319 144.636 548.483 144.636C544.563 144.636 542.379 146.68 542.043 148.752L545.207 149.564C545.543 148.332 546.411 147.24 548.483 147.24C550.275 147.24 551.059 148.052 551.059 149.424V149.9C546.439 150.32 542.267 151.524 542.267 155.416C542.267 157.88 544.115 159.42 546.719 159.42ZM547.839 156.844C546.439 156.844 545.739 156.144 545.739 155.08C545.739 153.092 548.175 152.476 551.059 152.14V153.26C551.059 155.752 549.491 156.844 547.839 156.844ZM558.802 159H562.218V152.644C562.218 150.936 562.274 147.492 565.41 147.492C566.95 147.492 567.93 148.388 567.93 150.488V159H571.346V149.732C571.346 146.68 569.974 144.636 566.642 144.636C563.926 144.636 562.582 146.456 562.134 147.268V145.056H558.802V159ZM580.329 159.42C582.737 159.42 584.249 158.076 584.893 157.04V159H588.225V139.4H584.809V144.496V147.016C584.165 145.98 582.709 144.636 580.329 144.636C576.801 144.636 574.421 147.548 574.421 152.028C574.421 156.508 576.801 159.42 580.329 159.42ZM581.449 156.732C579.461 156.732 577.977 155.528 577.977 152.028C577.977 148.556 579.461 147.324 581.449 147.324C583.521 147.324 584.977 148.892 584.977 152.028C584.977 155.192 583.521 156.732 581.449 156.732ZM592.241 142.844H595.881V139.372H592.241V142.844ZM592.381 159H595.769V145.056H592.381V159ZM599.873 159H603.289V152.644C603.289 150.936 603.345 147.492 606.481 147.492C608.021 147.492 609.001 148.388 609.001 150.488V159H612.417V149.732C612.417 146.68 611.045 144.636 607.713 144.636C604.997 144.636 603.653 146.456 603.205 147.268V145.056H599.873V159ZM619.16 164.46H625.628C628.232 164.46 630.332 163.06 630.332 160.316C630.332 158.02 628.484 156.228 625.628 156.228H619.58C618.712 156.228 618.264 156.032 618.264 155.472C618.264 155.024 618.628 154.632 619.412 154.352C620.224 154.772 621.176 154.856 622.184 154.856C625.404 154.856 627.728 152.952 628.008 149.872L628.064 149.452C628.204 147.94 628.512 147.716 629.52 147.716H630.892V145.056H629.688C627.98 145.056 627.42 145.728 627.28 147.296C626.468 145.868 624.648 144.636 622.1 144.636C618.684 144.636 616.22 146.792 616.22 149.844C616.22 151.328 616.864 152.588 617.76 153.316C616.696 153.96 615.604 154.94 615.604 156.34C615.604 157.544 616.08 158.244 616.892 158.776C616.052 159.308 615.156 160.316 615.156 161.604C615.156 163.34 616.304 164.46 619.16 164.46ZM622.184 152.476C620.56 152.476 619.496 151.412 619.496 149.816C619.496 148.22 620.56 147.072 622.184 147.072C623.808 147.072 624.872 148.22 624.872 149.816C624.872 151.412 623.808 152.476 622.184 152.476ZM619.608 161.856C618.6 161.856 617.9 161.464 617.9 160.484C617.9 159.784 618.376 159.224 618.768 159H625.04C626.272 159 626.944 159.476 626.944 160.4C626.944 161.408 626.272 161.856 625.04 161.856H619.608Z" fill="#1D1D21"/>
<path d="M500 184H656V186H500V184Z" fill="#C1C1C8"/>
<path d="M694.548 159H701.632C707.344 159 711.684 155.332 711.684 149.088C711.684 143.068 707.316 139.4 701.716 139.4H694.548V159ZM698.188 155.892V142.508H701.548C705.832 142.508 707.904 145.168 707.904 149.144C707.904 153.568 705.776 155.892 701.352 155.892H698.188ZM720.897 159.42C724.565 159.42 726.525 157.516 727.421 155.36L724.341 154.212C723.837 155.388 722.913 156.732 720.925 156.732C719.133 156.732 717.621 155.696 717.481 152.868H727.337C727.785 148.248 725.293 144.636 720.841 144.636C716.977 144.636 714.093 147.576 714.093 152.028C714.093 156.676 716.781 159.42 720.897 159.42ZM717.593 150.348C717.845 148.332 719.161 147.184 720.841 147.184C722.605 147.184 723.837 148.304 723.949 150.348H717.593ZM730.631 164.46H734.047V159.56V157.012C734.691 158.104 736.147 159.42 738.527 159.42C742.083 159.42 744.463 156.48 744.463 152.028C744.463 147.548 742.083 144.608 738.527 144.608C736.119 144.608 734.607 146.008 733.963 147.016V145.056H730.631V164.46ZM737.407 156.732C735.335 156.732 733.879 155.164 733.879 152C733.879 148.864 735.335 147.296 737.407 147.296C739.395 147.296 740.907 148.528 740.907 152C740.907 155.5 739.395 156.732 737.407 156.732ZM747.666 159H751.082V139.4H747.666V159ZM761.261 159.42C765.321 159.42 768.289 156.452 768.289 152.028C768.289 147.66 765.349 144.636 761.261 144.636C757.173 144.636 754.233 147.66 754.233 152.028C754.233 156.284 757.201 159.42 761.261 159.42ZM761.261 156.648C759.189 156.648 757.761 155.192 757.761 152.084C757.761 148.976 759.189 147.408 761.261 147.408C763.333 147.408 764.733 148.976 764.733 152.084C764.733 155.192 763.333 156.648 761.261 156.648ZM780.223 145.056L778.291 151.02L777.059 154.772C776.807 154.184 776.471 153.484 775.463 151.048L772.887 145.056H769.191L775.687 158.888L775.267 160.148C774.847 161.296 774.371 161.632 773.419 161.632H770.115V164.46H773.755C776.191 164.46 777.311 163.48 778.123 161.1L783.807 145.056H780.223ZM786.357 159H789.773V152.112C789.773 150.488 789.885 147.52 792.713 147.52C794.197 147.52 795.205 148.332 795.205 150.488V159H798.565V152.112C798.565 150.488 798.621 147.52 801.477 147.52C802.989 147.52 803.969 148.332 803.969 150.488V159H807.385V149.704C807.385 146.204 805.481 144.636 802.681 144.636C800.469 144.636 799.013 145.672 798.005 147.268C797.221 145.672 795.821 144.636 793.861 144.636C791.873 144.636 790.445 145.7 789.689 147.1V145.056H786.357V159ZM817.229 159.42C820.897 159.42 822.857 157.516 823.753 155.36L820.673 154.212C820.169 155.388 819.245 156.732 817.257 156.732C815.465 156.732 813.953 155.696 813.813 152.868H823.669C824.117 148.248 821.625 144.636 817.173 144.636C813.309 144.636 810.425 147.576 810.425 152.028C810.425 156.676 813.113 159.42 817.229 159.42ZM813.925 150.348C814.177 148.332 815.493 147.184 817.173 147.184C818.937 147.184 820.169 148.304 820.281 150.348H813.925ZM826.963 159H830.379V152.644C830.379 150.936 830.435 147.492 833.571 147.492C835.111 147.492 836.091 148.388 836.091 150.488V159H839.507V149.732C839.507 146.68 838.135 144.636 834.803 144.636C832.087 144.636 830.743 146.456 830.295 147.268V145.056H826.963V159ZM848.434 159H852.578V156.2H849.61C848.714 156.2 848.322 155.808 848.322 154.912V147.716H852.018V145.056H848.322V140.66H844.906V145.056H841.882V147.716H844.906V155.444C844.906 157.656 846.166 159 848.434 159Z" fill="#1D1D21"/>
<path d="M668 184H878V186H668V184Z" fill="#C1C1C8"/>
<rect x="190" y="186" width="16" height="16" fill="#F6F6F7"/>
<rect x="206" y="186" width="16" height="16" fill="white"/>
<rect x="190" y="218" width="16" height="16" fill="#F6F6F7"/>
<rect x="206" y="218" width="16" height="16" fill="white"/>
<rect x="190" y="250" width="16" height="16" fill="#F6F6F7"/>
<rect x="206" y="250" width="16" height="16" fill="white"/>
<rect x="190" y="282" width="16" height="16" fill="#F6F6F7"/>
<rect x="206" y="282" width="16" height="16" fill="white"/>
<rect x="190" y="314" width="16" height="16" fill="#F6F6F7"/>
<rect x="206" y="314" width="16" height="16" fill="white"/>
<rect x="206" y="202" width="16" height="16" fill="#F6F6F7"/>
<rect x="190" y="202" width="16" height="16" fill="white"/>
<rect x="206" y="234" width="16" height="16" fill="#F6F6F7"/>
<rect x="190" y="234" width="16" height="16" fill="white"/>
<rect x="206" y="266" width="16" height="16" fill="#F6F6F7"/>
<rect x="190" y="266" width="16" height="16" fill="white"/>
<rect x="206" y="298" width="16" height="16" fill="#F6F6F7"/>
<rect x="190" y="298" width="16" height="16" fill="white"/>
<rect x="206" y="330" width="16" height="16" fill="#F6F6F7"/>
<rect x="190" y="330" width="16" height="16" fill="white"/>
<rect x="270" y="202" width="16" height="16" fill="#F6F6F7"/>
<rect x="254" y="202" width="16" height="16" fill="white"/>
<rect x="270" y="234" width="16" height="16" fill="#F6F6F7"/>
<rect x="254" y="234" width="16" height="16" fill="white"/>
<rect x="270" y="266" width="16" height="16" fill="#F6F6F7"/>
<rect x="254" y="266" width="16" height="16" fill="white"/>
<rect x="270" y="298" width="16" height="16" fill="#F6F6F7"/>
<rect x="254" y="298" width="16" height="16" fill="white"/>
<rect x="270" y="330" width="16" height="16" fill="#F6F6F7"/>
<rect x="254" y="330" width="16" height="16" fill="white"/>
<rect x="334" y="202" width="16" height="16" fill="#F6F6F7"/>
<rect x="318" y="202" width="16" height="16" fill="white"/>
<rect x="334" y="234" width="16" height="16" fill="#F6F6F7"/>
<rect x="318" y="234" width="16" height="16" fill="white"/>
<rect x="334" y="266" width="16" height="16" fill="#F6F6F7"/>
<rect x="318" y="266" width="16" height="16" fill="white"/>
<rect x="334" y="298" width="16" height="16" fill="#F6F6F7"/>
<rect x="318" y="298" width="16" height="16" fill="white"/>
<rect x="334" y="330" width="16" height="16" fill="#F6F6F7"/>
<rect x="318" y="330" width="16" height="16" fill="white"/>
<rect x="398" y="202" width="16" height="16" fill="#F6F6F7"/>
<rect x="382" y="202" width="16" height="16" fill="white"/>
<rect x="398" y="234" width="16" height="16" fill="#F6F6F7"/>
<rect x="382" y="234" width="16" height="16" fill="white"/>
<rect x="398" y="266" width="16" height="16" fill="#F6F6F7"/>
<rect x="382" y="266" width="16" height="16" fill="white"/>
<rect x="398" y="298" width="16" height="16" fill="#F6F6F7"/>
<rect x="382" y="298" width="16" height="16" fill="white"/>
<rect x="398" y="330" width="16" height="16" fill="#F6F6F7"/>
<rect x="382" y="330" width="16" height="16" fill="white"/>
<rect x="462" y="202" width="16" height="16" fill="#F6F6F7"/>
<rect x="446" y="202" width="16" height="16" fill="white"/>
<rect x="462" y="234" width="16" height="16" fill="#F6F6F7"/>
<rect x="446" y="234" width="16" height="16" fill="white"/>
<rect x="462" y="266" width="16" height="16" fill="#F6F6F7"/>
<rect x="446" y="266" width="16" height="16" fill="white"/>
<rect x="462" y="298" width="16" height="16" fill="#F6F6F7"/>
<rect x="446" y="298" width="16" height="16" fill="white"/>
<rect x="462" y="330" width="16" height="16" fill="#F6F6F7"/>
<rect x="446" y="330" width="16" height="16" fill="white"/>
<rect x="526" y="202" width="16" height="16" fill="#F6F6F7"/>
<rect x="510" y="202" width="16" height="16" fill="white"/>
<rect x="526" y="234" width="16" height="16" fill="#F6F6F7"/>
<rect x="510" y="234" width="16" height="16" fill="white"/>
<rect x="526" y="266" width="16" height="16" fill="#F6F6F7"/>
<rect x="510" y="266" width="16" height="16" fill="white"/>
<rect x="526" y="298" width="16" height="16" fill="#F6F6F7"/>
<rect x="510" y="298" width="16" height="16" fill="white"/>
<rect x="526" y="330" width="16" height="16" fill="#F6F6F7"/>
<rect x="510" y="330" width="16" height="16" fill="white"/>
<rect x="590" y="202" width="16" height="16" fill="#F6F6F7"/>
<rect x="574" y="202" width="16" height="16" fill="white"/>
<rect x="590" y="234" width="16" height="16" fill="#F6F6F7"/>
<rect x="574" y="234" width="16" height="16" fill="white"/>
<rect x="590" y="266" width="16" height="16" fill="#F6F6F7"/>
<rect x="574" y="266" width="16" height="16" fill="white"/>
<rect x="590" y="298" width="16" height="16" fill="#F6F6F7"/>
<rect x="574" y="298" width="16" height="16" fill="white"/>
<rect x="590" y="330" width="16" height="16" fill="#F6F6F7"/>
<rect x="574" y="330" width="16" height="16" fill="white"/>
<rect x="654" y="202" width="16" height="16" fill="#F6F6F7"/>
<rect x="638" y="202" width="16" height="16" fill="white"/>
<rect x="654" y="234" width="16" height="16" fill="#F6F6F7"/>
<rect x="638" y="234" width="16" height="16" fill="white"/>
<rect x="654" y="266" width="16" height="16" fill="#F6F6F7"/>
<rect x="638" y="266" width="16" height="16" fill="white"/>
<rect x="654" y="298" width="16" height="16" fill="#F6F6F7"/>
<rect x="638" y="298" width="16" height="16" fill="white"/>
<rect x="654" y="330" width="16" height="16" fill="#F6F6F7"/>
<rect x="638" y="330" width="16" height="16" fill="white"/>
<rect x="718" y="202" width="16" height="16" fill="#F6F6F7"/>
<rect x="702" y="202" width="16" height="16" fill="white"/>
<rect x="718" y="234" width="16" height="16" fill="#F6F6F7"/>
<rect x="702" y="234" width="16" height="16" fill="white"/>
<rect x="718" y="266" width="16" height="16" fill="#F6F6F7"/>
<rect x="702" y="266" width="16" height="16" fill="white"/>
<rect x="718" y="298" width="16" height="16" fill="#F6F6F7"/>
<rect x="702" y="298" width="16" height="16" fill="white"/>
<rect x="718" y="330" width="16" height="16" fill="#F6F6F7"/>
<rect x="702" y="330" width="16" height="16" fill="white"/>
<rect x="782" y="202" width="16" height="16" fill="#F6F6F7"/>
<rect x="766" y="202" width="16" height="16" fill="white"/>
<rect x="782" y="234" width="16" height="16" fill="#F6F6F7"/>
<rect x="766" y="234" width="16" height="16" fill="white"/>
<rect x="782" y="266" width="16" height="16" fill="#F6F6F7"/>
<rect x="766" y="266" width="16" height="16" fill="white"/>
<rect x="782" y="298" width="16" height="16" fill="#F6F6F7"/>
<rect x="766" y="298" width="16" height="16" fill="white"/>
<rect x="782" y="330" width="16" height="16" fill="#F6F6F7"/>
<rect x="766" y="330" width="16" height="16" fill="white"/>
<rect x="846" y="202" width="16" height="16" fill="#F6F6F7"/>
<rect x="830" y="202" width="16" height="16" fill="white"/>
<rect x="846" y="234" width="16" height="16" fill="#F6F6F7"/>
<rect x="830" y="234" width="16" height="16" fill="white"/>
<rect x="846" y="266" width="16" height="16" fill="#F6F6F7"/>
<rect x="830" y="266" width="16" height="16" fill="white"/>
<rect x="846" y="298" width="16" height="16" fill="#F6F6F7"/>
<rect x="830" y="298" width="16" height="16" fill="white"/>
<rect x="846" y="330" width="16" height="16" fill="#F6F6F7"/>
<rect x="830" y="330" width="16" height="16" fill="white"/>
<rect x="910" y="202" width="16" height="16" fill="#F6F6F7"/>
<rect x="894" y="202" width="16" height="16" fill="white"/>
<rect x="910" y="234" width="16" height="16" fill="#F6F6F7"/>
<rect x="894" y="234" width="16" height="16" fill="white"/>
<rect x="910" y="266" width="16" height="16" fill="#F6F6F7"/>
<rect x="894" y="266" width="16" height="16" fill="white"/>
<rect x="910" y="298" width="16" height="16" fill="#F6F6F7"/>
<rect x="894" y="298" width="16" height="16" fill="white"/>
<rect x="910" y="330" width="16" height="16" fill="#F6F6F7"/>
<rect x="894" y="330" width="16" height="16" fill="white"/>
<rect x="238" y="202" width="16" height="16" fill="#F6F6F7"/>
<rect x="222" y="202" width="16" height="16" fill="white"/>
<rect x="238" y="234" width="16" height="16" fill="#F6F6F7"/>
<rect x="222" y="234" width="16" height="16" fill="white"/>
<rect x="238" y="266" width="16" height="16" fill="#F6F6F7"/>
<rect x="222" y="266" width="16" height="16" fill="white"/>
<rect x="238" y="298" width="16" height="16" fill="#F6F6F7"/>
<rect x="222" y="298" width="16" height="16" fill="white"/>
<rect x="238" y="330" width="16" height="16" fill="#F6F6F7"/>
<rect x="222" y="330" width="16" height="16" fill="white"/>
<rect x="302" y="202" width="16" height="16" fill="#F6F6F7"/>
<rect x="286" y="202" width="16" height="16" fill="white"/>
<rect x="302" y="234" width="16" height="16" fill="#F6F6F7"/>
<rect x="286" y="234" width="16" height="16" fill="white"/>
<rect x="302" y="266" width="16" height="16" fill="#F6F6F7"/>
<rect x="286" y="266" width="16" height="16" fill="white"/>
<rect x="302" y="298" width="16" height="16" fill="#F6F6F7"/>
<rect x="286" y="298" width="16" height="16" fill="white"/>
<rect x="302" y="330" width="16" height="16" fill="#F6F6F7"/>
<rect x="286" y="330" width="16" height="16" fill="white"/>
<rect x="366" y="202" width="16" height="16" fill="#F6F6F7"/>
<rect x="350" y="202" width="16" height="16" fill="white"/>
<rect x="366" y="234" width="16" height="16" fill="#F6F6F7"/>
<rect x="350" y="234" width="16" height="16" fill="white"/>
<rect x="366" y="266" width="16" height="16" fill="#F6F6F7"/>
<rect x="350" y="266" width="16" height="16" fill="white"/>
<rect x="366" y="298" width="16" height="16" fill="#F6F6F7"/>
<rect x="350" y="298" width="16" height="16" fill="white"/>
<rect x="366" y="330" width="16" height="16" fill="#F6F6F7"/>
<rect x="350" y="330" width="16" height="16" fill="white"/>
<rect x="430" y="202" width="16" height="16" fill="#F6F6F7"/>
<rect x="414" y="202" width="16" height="16" fill="white"/>
<rect x="430" y="234" width="16" height="16" fill="#F6F6F7"/>
<rect x="414" y="234" width="16" height="16" fill="white"/>
<rect x="430" y="266" width="16" height="16" fill="#F6F6F7"/>
<rect x="414" y="266" width="16" height="16" fill="white"/>
<rect x="430" y="298" width="16" height="16" fill="#F6F6F7"/>
<rect x="414" y="298" width="16" height="16" fill="white"/>
<rect x="430" y="330" width="16" height="16" fill="#F6F6F7"/>
<rect x="414" y="330" width="16" height="16" fill="white"/>
<rect x="494" y="202" width="16" height="16" fill="#F6F6F7"/>
<rect x="478" y="202" width="16" height="16" fill="white"/>
<rect x="494" y="234" width="16" height="16" fill="#F6F6F7"/>
<rect x="478" y="234" width="16" height="16" fill="white"/>
<rect x="494" y="266" width="16" height="16" fill="#F6F6F7"/>
<rect x="478" y="266" width="16" height="16" fill="white"/>
<rect x="494" y="298" width="16" height="16" fill="#F6F6F7"/>
<rect x="478" y="298" width="16" height="16" fill="white"/>
<rect x="494" y="330" width="16" height="16" fill="#F6F6F7"/>
<rect x="478" y="330" width="16" height="16" fill="white"/>
<rect x="558" y="202" width="16" height="16" fill="#F6F6F7"/>
<rect x="542" y="202" width="16" height="16" fill="white"/>
<rect x="558" y="234" width="16" height="16" fill="#F6F6F7"/>
<rect x="542" y="234" width="16" height="16" fill="white"/>
<rect x="558" y="266" width="16" height="16" fill="#F6F6F7"/>
<rect x="542" y="266" width="16" height="16" fill="white"/>
<rect x="558" y="298" width="16" height="16" fill="#F6F6F7"/>
<rect x="542" y="298" width="16" height="16" fill="white"/>
<rect x="558" y="330" width="16" height="16" fill="#F6F6F7"/>
<rect x="542" y="330" width="16" height="16" fill="white"/>
<rect x="622" y="202" width="16" height="16" fill="#F6F6F7"/>
<rect x="606" y="202" width="16" height="16" fill="white"/>
<rect x="622" y="234" width="16" height="16" fill="#F6F6F7"/>
<rect x="606" y="234" width="16" height="16" fill="white"/>
<rect x="622" y="266" width="16" height="16" fill="#F6F6F7"/>
<rect x="606" y="266" width="16" height="16" fill="white"/>
<rect x="622" y="298" width="16" height="16" fill="#F6F6F7"/>
<rect x="606" y="298" width="16" height="16" fill="white"/>
<rect x="622" y="330" width="16" height="16" fill="#F6F6F7"/>
<rect x="606" y="330" width="16" height="16" fill="white"/>
<rect x="686" y="202" width="16" height="16" fill="#F6F6F7"/>
<rect x="670" y="202" width="16" height="16" fill="white"/>
<rect x="686" y="234" width="16" height="16" fill="#F6F6F7"/>
<rect x="670" y="234" width="16" height="16" fill="white"/>
<rect x="686" y="266" width="16" height="16" fill="#F6F6F7"/>
<rect x="670" y="266" width="16" height="16" fill="white"/>
<rect x="686" y="298" width="16" height="16" fill="#F6F6F7"/>
<rect x="670" y="298" width="16" height="16" fill="white"/>
<rect x="686" y="330" width="16" height="16" fill="#F6F6F7"/>
<rect x="670" y="330" width="16" height="16" fill="white"/>
<rect x="750" y="202" width="16" height="16" fill="#F6F6F7"/>
<rect x="734" y="202" width="16" height="16" fill="white"/>
<rect x="750" y="234" width="16" height="16" fill="#F6F6F7"/>
<rect x="734" y="234" width="16" height="16" fill="white"/>
<rect x="750" y="266" width="16" height="16" fill="#F6F6F7"/>
<rect x="734" y="266" width="16" height="16" fill="white"/>
<rect x="750" y="298" width="16" height="16" fill="#F6F6F7"/>
<rect x="734" y="298" width="16" height="16" fill="white"/>
<rect x="750" y="330" width="16" height="16" fill="#F6F6F7"/>
<rect x="734" y="330" width="16" height="16" fill="white"/>
<rect x="814" y="202" width="16" height="16" fill="#F6F6F7"/>
<rect x="798" y="202" width="16" height="16" fill="white"/>
<rect x="814" y="234" width="16" height="16" fill="#F6F6F7"/>
<rect x="798" y="234" width="16" height="16" fill="white"/>
<rect x="814" y="266" width="16" height="16" fill="#F6F6F7"/>
<rect x="798" y="266" width="16" height="16" fill="white"/>
<rect x="814" y="298" width="16" height="16" fill="#F6F6F7"/>
<rect x="798" y="298" width="16" height="16" fill="white"/>
<rect x="814" y="330" width="16" height="16" fill="#F6F6F7"/>
<rect x="798" y="330" width="16" height="16" fill="white"/>
<rect x="878" y="202" width="16" height="16" fill="#F6F6F7"/>
<rect x="862" y="202" width="16" height="16" fill="white"/>
<rect x="878" y="234" width="16" height="16" fill="#F6F6F7"/>
<rect x="862" y="234" width="16" height="16" fill="white"/>
<rect x="878" y="266" width="16" height="16" fill="#F6F6F7"/>
<rect x="862" y="266" width="16" height="16" fill="white"/>
<rect x="878" y="298" width="16" height="16" fill="#F6F6F7"/>
<rect x="862" y="298" width="16" height="16" fill="white"/>
<rect x="878" y="330" width="16" height="16" fill="#F6F6F7"/>
<rect x="862" y="330" width="16" height="16" fill="white"/>
<rect x="942" y="202" width="16" height="16" fill="#F6F6F7"/>
<rect x="926" y="202" width="16" height="16" fill="white"/>
<rect x="942" y="234" width="16" height="16" fill="#F6F6F7"/>
<rect x="926" y="234" width="16" height="16" fill="white"/>
<rect x="942" y="266" width="16" height="16" fill="#F6F6F7"/>
<rect x="926" y="266" width="16" height="16" fill="white"/>
<rect x="942" y="298" width="16" height="16" fill="#F6F6F7"/>
<rect x="926" y="298" width="16" height="16" fill="white"/>
<rect x="942" y="330" width="16" height="16" fill="#F6F6F7"/>
<rect x="926" y="330" width="16" height="16" fill="white"/>
<rect x="318" y="186" width="16" height="16" fill="#F6F6F7"/>
<rect x="334" y="186" width="16" height="16" fill="white"/>
<rect x="318" y="218" width="16" height="16" fill="#F6F6F7"/>
<rect x="334" y="218" width="16" height="16" fill="white"/>
<rect x="318" y="250" width="16" height="16" fill="#F6F6F7"/>
<rect x="334" y="250" width="16" height="16" fill="white"/>
<rect x="318" y="282" width="16" height="16" fill="#F6F6F7"/>
<rect x="334" y="282" width="16" height="16" fill="white"/>
<rect x="318" y="314" width="16" height="16" fill="#F6F6F7"/>
<rect x="334" y="314" width="16" height="16" fill="white"/>
<rect x="446" y="186" width="16" height="16" fill="#F6F6F7"/>
<rect x="462" y="186" width="16" height="16" fill="white"/>
<rect x="446" y="218" width="16" height="16" fill="#F6F6F7"/>
<rect x="462" y="218" width="16" height="16" fill="white"/>
<rect x="446" y="250" width="16" height="16" fill="#F6F6F7"/>
<rect x="462" y="250" width="16" height="16" fill="white"/>
<rect x="446" y="282" width="16" height="16" fill="#F6F6F7"/>
<rect x="462" y="282" width="16" height="16" fill="white"/>
<rect x="446" y="314" width="16" height="16" fill="#F6F6F7"/>
<rect x="462" y="314" width="16" height="16" fill="white"/>
<rect x="574" y="186" width="16" height="16" fill="#F6F6F7"/>
<rect x="590" y="186" width="16" height="16" fill="white"/>
<rect x="574" y="218" width="16" height="16" fill="#F6F6F7"/>
<rect x="590" y="218" width="16" height="16" fill="white"/>
<rect x="574" y="250" width="16" height="16" fill="#F6F6F7"/>
<rect x="590" y="250" width="16" height="16" fill="white"/>
<rect x="574" y="282" width="16" height="16" fill="#F6F6F7"/>
<rect x="590" y="282" width="16" height="16" fill="white"/>
<rect x="574" y="314" width="16" height="16" fill="#F6F6F7"/>
<rect x="590" y="314" width="16" height="16" fill="white"/>
<rect x="702" y="186" width="16" height="16" fill="#F6F6F7"/>
<rect x="718" y="186" width="16" height="16" fill="white"/>
<rect x="702" y="218" width="16" height="16" fill="#F6F6F7"/>
<rect x="718" y="218" width="16" height="16" fill="white"/>
<rect x="702" y="250" width="16" height="16" fill="#F6F6F7"/>
<rect x="718" y="250" width="16" height="16" fill="white"/>
<rect x="702" y="282" width="16" height="16" fill="#F6F6F7"/>
<rect x="718" y="282" width="16" height="16" fill="white"/>
<rect x="702" y="314" width="16" height="16" fill="#F6F6F7"/>
<rect x="718" y="314" width="16" height="16" fill="white"/>
<rect x="830" y="186" width="16" height="16" fill="#F6F6F7"/>
<rect x="846" y="186" width="16" height="16" fill="white"/>
<rect x="830" y="218" width="16" height="16" fill="#F6F6F7"/>
<rect x="846" y="218" width="16" height="16" fill="white"/>
<rect x="830" y="250" width="16" height="16" fill="#F6F6F7"/>
<rect x="846" y="250" width="16" height="16" fill="white"/>
<rect x="830" y="282" width="16" height="16" fill="#F6F6F7"/>
<rect x="846" y="282" width="16" height="16" fill="white"/>
<rect x="830" y="314" width="16" height="16" fill="#F6F6F7"/>
<rect x="846" y="314" width="16" height="16" fill="white"/>
<rect x="254" y="186" width="16" height="16" fill="#F6F6F7"/>
<rect x="270" y="186" width="16" height="16" fill="white"/>
<rect x="254" y="218" width="16" height="16" fill="#F6F6F7"/>
<rect x="270" y="218" width="16" height="16" fill="white"/>
<rect x="254" y="250" width="16" height="16" fill="#F6F6F7"/>
<rect x="270" y="250" width="16" height="16" fill="white"/>
<rect x="254" y="282" width="16" height="16" fill="#F6F6F7"/>
<rect x="270" y="282" width="16" height="16" fill="white"/>
<rect x="254" y="314" width="16" height="16" fill="#F6F6F7"/>
<rect x="270" y="314" width="16" height="16" fill="white"/>
<rect x="382" y="186" width="16" height="16" fill="#F6F6F7"/>
<rect x="398" y="186" width="16" height="16" fill="white"/>
<rect x="382" y="218" width="16" height="16" fill="#F6F6F7"/>
<rect x="398" y="218" width="16" height="16" fill="white"/>
<rect x="382" y="250" width="16" height="16" fill="#F6F6F7"/>
<rect x="398" y="250" width="16" height="16" fill="white"/>
<rect x="382" y="282" width="16" height="16" fill="#F6F6F7"/>
<rect x="398" y="282" width="16" height="16" fill="white"/>
<rect x="382" y="314" width="16" height="16" fill="#F6F6F7"/>
<rect x="398" y="314" width="16" height="16" fill="white"/>
<rect x="510" y="186" width="16" height="16" fill="#F6F6F7"/>
<rect x="526" y="186" width="16" height="16" fill="white"/>
<rect x="510" y="218" width="16" height="16" fill="#F6F6F7"/>
<rect x="526" y="218" width="16" height="16" fill="white"/>
<rect x="510" y="250" width="16" height="16" fill="#F6F6F7"/>
<rect x="526" y="250" width="16" height="16" fill="white"/>
<rect x="510" y="282" width="16" height="16" fill="#F6F6F7"/>
<rect x="526" y="282" width="16" height="16" fill="white"/>
<rect x="510" y="314" width="16" height="16" fill="#F6F6F7"/>
<rect x="526" y="314" width="16" height="16" fill="white"/>
<rect x="638" y="186" width="16" height="16" fill="#F6F6F7"/>
<rect x="654" y="186" width="16" height="16" fill="white"/>
<rect x="638" y="218" width="16" height="16" fill="#F6F6F7"/>
<rect x="654" y="218" width="16" height="16" fill="white"/>
<rect x="638" y="250" width="16" height="16" fill="#F6F6F7"/>
<rect x="654" y="250" width="16" height="16" fill="white"/>
<rect x="638" y="282" width="16" height="16" fill="#F6F6F7"/>
<rect x="654" y="282" width="16" height="16" fill="white"/>
<rect x="638" y="314" width="16" height="16" fill="#F6F6F7"/>
<rect x="654" y="314" width="16" height="16" fill="white"/>
<rect x="766" y="186" width="16" height="16" fill="#F6F6F7"/>
<rect x="782" y="186" width="16" height="16" fill="white"/>
<rect x="766" y="218" width="16" height="16" fill="#F6F6F7"/>
<rect x="782" y="218" width="16" height="16" fill="white"/>
<rect x="766" y="250" width="16" height="16" fill="#F6F6F7"/>
<rect x="782" y="250" width="16" height="16" fill="white"/>
<rect x="766" y="282" width="16" height="16" fill="#F6F6F7"/>
<rect x="782" y="282" width="16" height="16" fill="white"/>
<rect x="766" y="314" width="16" height="16" fill="#F6F6F7"/>
<rect x="782" y="314" width="16" height="16" fill="white"/>
<rect x="894" y="186" width="16" height="16" fill="#F6F6F7"/>
<rect x="910" y="186" width="16" height="16" fill="white"/>
<rect x="894" y="218" width="16" height="16" fill="#F6F6F7"/>
<rect x="910" y="218" width="16" height="16" fill="white"/>
<rect x="894" y="250" width="16" height="16" fill="#F6F6F7"/>
<rect x="910" y="250" width="16" height="16" fill="white"/>
<rect x="894" y="282" width="16" height="16" fill="#F6F6F7"/>
<rect x="910" y="282" width="16" height="16" fill="white"/>
<rect x="894" y="314" width="16" height="16" fill="#F6F6F7"/>
<rect x="910" y="314" width="16" height="16" fill="white"/>
<rect x="222" y="186" width="16" height="16" fill="#F6F6F7"/>
<rect x="238" y="186" width="16" height="16" fill="white"/>
<rect x="222" y="218" width="16" height="16" fill="#F6F6F7"/>
<rect x="238" y="218" width="16" height="16" fill="white"/>
<rect x="222" y="250" width="16" height="16" fill="#F6F6F7"/>
<rect x="238" y="250" width="16" height="16" fill="white"/>
<rect x="222" y="282" width="16" height="16" fill="#F6F6F7"/>
<rect x="238" y="282" width="16" height="16" fill="white"/>
<rect x="222" y="314" width="16" height="16" fill="#F6F6F7"/>
<rect x="238" y="314" width="16" height="16" fill="white"/>
<rect x="350" y="186" width="16" height="16" fill="#F6F6F7"/>
<rect x="366" y="186" width="16" height="16" fill="white"/>
<rect x="350" y="218" width="16" height="16" fill="#F6F6F7"/>
<rect x="366" y="218" width="16" height="16" fill="white"/>
<rect x="350" y="250" width="16" height="16" fill="#F6F6F7"/>
<rect x="366" y="250" width="16" height="16" fill="white"/>
<rect x="350" y="282" width="16" height="16" fill="#F6F6F7"/>
<rect x="366" y="282" width="16" height="16" fill="white"/>
<rect x="350" y="314" width="16" height="16" fill="#F6F6F7"/>
<rect x="366" y="314" width="16" height="16" fill="white"/>
<rect x="478" y="186" width="16" height="16" fill="#F6F6F7"/>
<rect x="494" y="186" width="16" height="16" fill="white"/>
<rect x="478" y="218" width="16" height="16" fill="#F6F6F7"/>
<rect x="494" y="218" width="16" height="16" fill="white"/>
<rect x="478" y="250" width="16" height="16" fill="#F6F6F7"/>
<rect x="494" y="250" width="16" height="16" fill="white"/>
<rect x="478" y="282" width="16" height="16" fill="#F6F6F7"/>
<rect x="494" y="282" width="16" height="16" fill="white"/>
<rect x="478" y="314" width="16" height="16" fill="#F6F6F7"/>
<rect x="494" y="314" width="16" height="16" fill="white"/>
<rect x="606" y="186" width="16" height="16" fill="#F6F6F7"/>
<rect x="622" y="186" width="16" height="16" fill="white"/>
<rect x="606" y="218" width="16" height="16" fill="#F6F6F7"/>
<rect x="622" y="218" width="16" height="16" fill="white"/>
<rect x="606" y="250" width="16" height="16" fill="#F6F6F7"/>
<rect x="622" y="250" width="16" height="16" fill="white"/>
<rect x="606" y="282" width="16" height="16" fill="#F6F6F7"/>
<rect x="622" y="282" width="16" height="16" fill="white"/>
<rect x="606" y="314" width="16" height="16" fill="#F6F6F7"/>
<rect x="622" y="314" width="16" height="16" fill="white"/>
<rect x="734" y="186" width="16" height="16" fill="#F6F6F7"/>
<rect x="750" y="186" width="16" height="16" fill="white"/>
<rect x="734" y="218" width="16" height="16" fill="#F6F6F7"/>
<rect x="750" y="218" width="16" height="16" fill="white"/>
<rect x="734" y="250" width="16" height="16" fill="#F6F6F7"/>
<rect x="750" y="250" width="16" height="16" fill="white"/>
<rect x="734" y="282" width="16" height="16" fill="#F6F6F7"/>
<rect x="750" y="282" width="16" height="16" fill="white"/>
<rect x="734" y="314" width="16" height="16" fill="#F6F6F7"/>
<rect x="750" y="314" width="16" height="16" fill="white"/>
<rect x="862" y="186" width="16" height="16" fill="#F6F6F7"/>
<rect x="878" y="186" width="16" height="16" fill="white"/>
<rect x="862" y="218" width="16" height="16" fill="#F6F6F7"/>
<rect x="878" y="218" width="16" height="16" fill="white"/>
<rect x="862" y="250" width="16" height="16" fill="#F6F6F7"/>
<rect x="878" y="250" width="16" height="16" fill="white"/>
<rect x="862" y="282" width="16" height="16" fill="#F6F6F7"/>
<rect x="878" y="282" width="16" height="16" fill="white"/>
<rect x="862" y="314" width="16" height="16" fill="#F6F6F7"/>
<rect x="878" y="314" width="16" height="16" fill="white"/>
<rect x="286" y="186" width="16" height="16" fill="#F6F6F7"/>
<rect x="302" y="186" width="16" height="16" fill="white"/>
<rect x="286" y="218" width="16" height="16" fill="#F6F6F7"/>
<rect x="302" y="218" width="16" height="16" fill="white"/>
<rect x="286" y="250" width="16" height="16" fill="#F6F6F7"/>
<rect x="302" y="250" width="16" height="16" fill="white"/>
<rect x="286" y="282" width="16" height="16" fill="#F6F6F7"/>
<rect x="302" y="282" width="16" height="16" fill="white"/>
<rect x="286" y="314" width="16" height="16" fill="#F6F6F7"/>
<rect x="302" y="314" width="16" height="16" fill="white"/>
<rect x="414" y="186" width="16" height="16" fill="#F6F6F7"/>
<rect x="430" y="186" width="16" height="16" fill="white"/>
<rect x="414" y="218" width="16" height="16" fill="#F6F6F7"/>
<rect x="430" y="218" width="16" height="16" fill="white"/>
<rect x="414" y="250" width="16" height="16" fill="#F6F6F7"/>
<rect x="430" y="250" width="16" height="16" fill="white"/>
<rect x="414" y="282" width="16" height="16" fill="#F6F6F7"/>
<rect x="430" y="282" width="16" height="16" fill="white"/>
<rect x="414" y="314" width="16" height="16" fill="#F6F6F7"/>
<rect x="430" y="314" width="16" height="16" fill="white"/>
<rect x="542" y="186" width="16" height="16" fill="#F6F6F7"/>
<rect x="558" y="186" width="16" height="16" fill="white"/>
<rect x="542" y="218" width="16" height="16" fill="#F6F6F7"/>
<rect x="558" y="218" width="16" height="16" fill="white"/>
<rect x="542" y="250" width="16" height="16" fill="#F6F6F7"/>
<rect x="558" y="250" width="16" height="16" fill="white"/>
<rect x="542" y="282" width="16" height="16" fill="#F6F6F7"/>
<rect x="558" y="282" width="16" height="16" fill="white"/>
<rect x="542" y="314" width="16" height="16" fill="#F6F6F7"/>
<rect x="558" y="314" width="16" height="16" fill="white"/>
<rect x="670" y="186" width="16" height="16" fill="#F6F6F7"/>
<rect x="686" y="186" width="16" height="16" fill="white"/>
<rect x="670" y="218" width="16" height="16" fill="#F6F6F7"/>
<rect x="686" y="218" width="16" height="16" fill="white"/>
<rect x="670" y="250" width="16" height="16" fill="#F6F6F7"/>
<rect x="686" y="250" width="16" height="16" fill="white"/>
<rect x="670" y="282" width="16" height="16" fill="#F6F6F7"/>
<rect x="686" y="282" width="16" height="16" fill="white"/>
<rect x="670" y="314" width="16" height="16" fill="#F6F6F7"/>
<rect x="686" y="314" width="16" height="16" fill="white"/>
<rect x="798" y="186" width="16" height="16" fill="#F6F6F7"/>
<rect x="814" y="186" width="16" height="16" fill="white"/>
<rect x="798" y="218" width="16" height="16" fill="#F6F6F7"/>
<rect x="814" y="218" width="16" height="16" fill="white"/>
<rect x="798" y="250" width="16" height="16" fill="#F6F6F7"/>
<rect x="814" y="250" width="16" height="16" fill="white"/>
<rect x="798" y="282" width="16" height="16" fill="#F6F6F7"/>
<rect x="814" y="282" width="16" height="16" fill="white"/>
<rect x="798" y="314" width="16" height="16" fill="#F6F6F7"/>
<rect x="814" y="314" width="16" height="16" fill="white"/>
<rect x="926" y="186" width="16" height="16" fill="#F6F6F7"/>
<rect x="942" y="186" width="16" height="16" fill="white"/>
<rect x="926" y="218" width="16" height="16" fill="#F6F6F7"/>
<rect x="942" y="218" width="16" height="16" fill="white"/>
<rect x="926" y="250" width="16" height="16" fill="#F6F6F7"/>
<rect x="942" y="250" width="16" height="16" fill="white"/>
<rect x="926" y="282" width="16" height="16" fill="#F6F6F7"/>
<rect x="942" y="282" width="16" height="16" fill="white"/>
<rect x="926" y="314" width="16" height="16" fill="#F6F6F7"/>
<rect x="942" y="314" width="16" height="16" fill="white"/>
<path d="M542.199 275H543.639V265.16H547.783V263.8H538.215V265.16H542.199V275ZM550.195 275.224C551.587 275.224 552.355 274.456 552.739 273.784V275H554.067V267.08H552.707V268.312C552.323 267.64 551.587 266.856 550.195 266.856C548.371 266.856 546.979 268.44 546.979 271.048C546.979 273.656 548.371 275.224 550.195 275.224ZM550.547 274.024C549.283 274.024 548.371 273.272 548.371 271.064C548.371 268.856 549.283 268.056 550.547 268.056C551.843 268.056 552.787 269.064 552.787 271.064C552.787 273.064 551.843 274.024 550.547 274.024ZM560.63 275.224C562.454 275.224 563.846 273.64 563.846 271.032C563.846 268.424 562.454 266.856 560.63 266.856C559.238 266.856 558.502 267.624 558.118 268.296V266.76V263.8H556.758V275H558.086V273.768C558.47 274.44 559.238 275.224 560.63 275.224ZM560.278 274.024C558.982 274.024 558.038 273.016 558.038 271.016C558.038 269.016 558.982 268.056 560.278 268.056C561.542 268.056 562.454 268.808 562.454 271.016C562.454 273.224 561.542 274.024 560.278 274.024ZM570.086 278.12H571.446V275.32V273.768C571.83 274.44 572.566 275.224 573.958 275.224C575.782 275.224 577.174 273.64 577.174 271.032C577.174 268.424 575.782 266.856 573.958 266.856C572.566 266.856 571.798 267.624 571.414 268.296V267.08H570.086V278.12ZM573.606 274.024C572.31 274.024 571.366 273.016 571.366 271.016C571.366 269.016 572.31 268.056 573.606 268.056C574.87 268.056 575.782 268.808 575.782 271.016C575.782 273.224 574.87 274.024 573.606 274.024ZM581.898 275.224C583.29 275.224 584.058 274.456 584.442 273.784V275H585.77V267.08H584.41V268.312C584.026 267.64 583.29 266.856 581.898 266.856C580.074 266.856 578.682 268.44 578.682 271.048C578.682 273.656 580.074 275.224 581.898 275.224ZM582.25 274.024C580.986 274.024 580.074 273.272 580.074 271.064C580.074 268.856 580.986 268.056 582.25 268.056C583.546 268.056 584.49 269.064 584.49 271.064C584.49 273.064 583.546 274.024 582.25 274.024ZM588.461 275H589.821V271.64C589.821 270.472 589.869 268.056 592.045 268.056C593.101 268.056 593.789 268.664 593.789 270.152V275H595.149V269.832C595.149 268.072 594.349 266.856 592.381 266.856C590.669 266.856 589.901 268.072 589.789 268.424V267.08H588.461V275ZM600.719 275.224C602.207 275.224 603.535 274.552 604.127 272.936L602.879 272.504C602.671 273.016 602.111 274.04 600.767 274.04C599.663 274.04 598.559 273.4 598.479 271.4H604.063C604.367 268.808 602.943 266.856 600.639 266.856C598.623 266.856 597.135 268.472 597.135 271.08C597.135 273.768 598.559 275.224 600.719 275.224ZM598.511 270.264C598.623 268.824 599.599 267.976 600.639 267.976C601.727 267.976 602.671 268.76 602.671 270.264H598.511ZM606.242 275H607.602V263.8H606.242V275Z" fill="#6E6E78"/>
<path d="M530 267C530.552 267 531 267.448 531 268C531 268.552 530.552 269 530 269L530 267ZM343.293 268.707C342.902 268.317 342.902 267.683 343.293 267.293L349.657 260.929C350.047 260.538 350.681 260.538 351.071 260.929C351.462 261.319 351.462 261.953 351.071 262.343L345.414 268L351.071 273.657C351.462 274.047 351.462 274.681 351.071 275.071C350.681 275.462 350.047 275.462 349.657 275.071L343.293 268.707ZM530 269L344 269L344 267L530 267L530 269Z" fill="#DA372C"/>
<path d="M616 267C615.448 267 615 267.448 615 268C615 268.552 615.448 269 616 269L616 267ZM802.707 268.707C803.098 268.317 803.098 267.683 802.707 267.293L796.343 260.929C795.953 260.538 795.319 260.538 794.929 260.929C794.538 261.319 794.538 261.953 794.929 262.343L800.586 268L794.929 273.657C794.538 274.047 794.538 274.681 794.929 275.071C795.319 275.462 795.953 275.462 796.343 275.071L802.707 268.707ZM616 269L802 269L802 267L616 267L616 269Z" fill="#DA372C"/>
<path d="M572 250C572 250.552 572.448 251 573 251C573.552 251 574 250.552 574 250L572 250ZM573.707 209.293C573.317 208.902 572.683 208.902 572.293 209.293L565.929 215.657C565.538 216.047 565.538 216.681 565.929 217.071C566.319 217.462 566.953 217.462 567.343 217.071L573 211.414L578.657 217.071C579.047 217.462 579.681 217.462 580.071 217.071C580.462 216.681 580.462 216.047 580.071 215.657L573.707 209.293ZM574 250L574 210L572 210L572 250L574 250Z" fill="#DA372C"/>
<path d="M572 286C572 285.448 572.448 285 573 285C573.552 285 574 285.448 574 286L572 286ZM573.707 326.707C573.317 327.098 572.683 327.098 572.293 326.707L565.929 320.343C565.538 319.953 565.538 319.319 565.929 318.929C566.319 318.538 566.953 318.538 567.343 318.929L573 324.586L578.657 318.929C579.047 318.538 579.681 318.538 580.071 318.929C580.462 319.319 580.462 319.953 580.071 320.343L573.707 326.707ZM574 286L574 326L572 326L572 286L574 286Z" fill="#DA372C"/>
<path d="M130 183C129.448 183 129 183.448 129 184C129 184.552 129.448 185 130 185L130 183ZM178.707 184.707C179.098 184.317 179.098 183.683 178.707 183.293L172.343 176.929C171.953 176.538 171.319 176.538 170.929 176.929C170.538 177.319 170.538 177.953 170.929 178.343L176.586 184L170.929 189.657C170.538 190.047 170.538 190.681 170.929 191.071C171.319 191.462 171.953 191.462 172.343 191.071L178.707 184.707ZM130 185L178 185L178 183L130 183L130 185Z" fill="#DA372C"/>
<path d="M53.4605 189H54.9005V177.8H53.4605V189ZM57.8909 189H59.2509V185.64C59.2509 184.472 59.2989 182.056 61.4749 182.056C62.5309 182.056 63.2189 182.664 63.2189 184.152V189H64.5789V183.832C64.5789 182.072 63.7789 180.856 61.8109 180.856C60.0989 180.856 59.3309 182.072 59.2189 182.424V181.08H57.8909V189ZM69.7805 189.224C71.1725 189.224 71.9405 188.456 72.3245 187.784V189H73.6525V177.8H72.2925V180.76V182.312C71.9085 181.64 71.1725 180.856 69.7805 180.856C67.9565 180.856 66.5645 182.44 66.5645 185.048C66.5645 187.656 67.9565 189.224 69.7805 189.224ZM70.1325 188.024C68.8685 188.024 67.9565 187.272 67.9565 185.064C67.9565 182.856 68.8685 182.056 70.1325 182.056C71.4285 182.056 72.3725 183.064 72.3725 185.064C72.3725 187.064 71.4285 188.024 70.1325 188.024ZM76.296 179.528H77.736V177.8H76.296V179.528ZM76.344 189H77.704V181.08H76.344V189ZM83.5429 189.224C85.3189 189.224 86.4709 188.184 86.9829 186.712L85.7029 186.264C85.4469 187.128 84.8549 188.024 83.5429 188.024C82.2309 188.024 81.2069 187.064 81.2069 185.032C81.2069 183.048 82.2629 182.056 83.5269 182.056C84.6789 182.056 85.2549 182.808 85.5109 183.56L86.7749 183.144C86.4069 181.912 85.3189 180.856 83.5269 180.856C81.3349 180.856 79.7829 182.584 79.7829 185.032C79.7829 187.592 81.2549 189.224 83.5429 189.224ZM91.4211 189.224C92.8131 189.224 93.5811 188.456 93.9651 187.784V189H95.2931V181.08H93.9331V182.312C93.5491 181.64 92.8131 180.856 91.4211 180.856C89.5971 180.856 88.2051 182.44 88.2051 185.048C88.2051 187.656 89.5971 189.224 91.4211 189.224ZM91.7731 188.024C90.5091 188.024 89.5971 187.272 89.5971 185.064C89.5971 182.856 90.5091 182.056 91.7731 182.056C93.0691 182.056 94.0131 183.064 94.0131 185.064C94.0131 187.064 93.0691 188.024 91.7731 188.024ZM100.737 189H102.561V187.8H100.913C100.353 187.8 100.113 187.56 100.113 187V182.232H102.273V181.08H100.113V178.6H98.7526V181.08H96.9126V182.232H98.7526V187.08C98.7526 188.392 99.4246 189 100.737 189ZM107.259 189.224C109.339 189.224 110.939 187.432 110.939 185.048C110.939 182.664 109.403 180.856 107.259 180.856C105.115 180.856 103.579 182.664 103.579 185.048C103.579 187.432 105.179 189.224 107.259 189.224ZM107.259 188.024C105.915 188.024 104.987 187.064 104.987 185.064C104.987 183.064 105.915 182.056 107.259 182.056C108.603 182.056 109.531 183.064 109.531 185.064C109.531 187.064 108.603 188.024 107.259 188.024ZM113 189H114.36V185.368C114.36 183.512 115.096 182.376 116.888 182.376C117.208 182.376 117.48 182.408 117.736 182.456V181.064C117.544 181.016 117.304 180.968 116.92 180.968C115.416 180.968 114.6 182.136 114.344 182.728V181.08H113V189Z" fill="#6E6E78"/>
<path d="M259 75C259 74.4477 259.448 74 260 74C260.552 74 261 74.4477 261 75L259 75ZM260.707 123.707C260.317 124.098 259.683 124.098 259.293 123.707L252.929 117.343C252.538 116.953 252.538 116.319 252.929 115.929C253.319 115.538 253.953 115.538 254.343 115.929L260 121.586L265.657 115.929C266.047 115.538 266.681 115.538 267.071 115.929C267.462 116.319 267.462 116.953 267.071 117.343L260.707 123.707ZM261 75L261 123L259 123L259 75L261 75Z" fill="#DA372C"/>
<path d="M225.597 86H227.037V76.16H231.181V74.8H221.613V76.16H225.597V86ZM233.593 86.224C234.985 86.224 235.753 85.456 236.137 84.784V86H237.465V78.08H236.105V79.312C235.721 78.64 234.985 77.856 233.593 77.856C231.769 77.856 230.377 79.44 230.377 82.048C230.377 84.656 231.769 86.224 233.593 86.224ZM233.945 85.024C232.681 85.024 231.769 84.272 231.769 82.064C231.769 79.856 232.681 79.056 233.945 79.056C235.241 79.056 236.185 80.064 236.185 82.064C236.185 84.064 235.241 85.024 233.945 85.024ZM244.029 86.224C245.853 86.224 247.245 84.64 247.245 82.032C247.245 79.424 245.853 77.856 244.029 77.856C242.637 77.856 241.901 78.624 241.517 79.296V77.76V74.8H240.157V86H241.485V84.768C241.869 85.44 242.637 86.224 244.029 86.224ZM243.677 85.024C242.381 85.024 241.437 84.016 241.437 82.016C241.437 80.016 242.381 79.056 243.677 79.056C244.941 79.056 245.853 79.808 245.853 82.016C245.853 84.224 244.941 85.024 243.677 85.024Z" fill="#6E6E78"/>
<path d="M894 75C894 74.4477 894.448 74 895 74C895.552 74 896 74.4477 896 75L894 75ZM895.707 178.707C895.317 179.098 894.683 179.098 894.293 178.707L887.929 172.343C887.538 171.953 887.538 171.319 887.929 170.929C888.319 170.538 888.953 170.538 889.343 170.929L895 176.586L900.657 170.929C901.047 170.538 901.681 170.538 902.071 170.929C902.462 171.319 902.462 171.953 902.071 172.343L895.707 178.707ZM896 75L896 178L894 178L894 75L896 75Z" fill="#DA372C"/>
<path d="M807.347 86H808.787V76.16H812.931V74.8H803.363V76.16H807.347V86ZM815.343 86.224C816.735 86.224 817.503 85.456 817.887 84.784V86H819.215V78.08H817.855V79.312C817.471 78.64 816.735 77.856 815.343 77.856C813.519 77.856 812.127 79.44 812.127 82.048C812.127 84.656 813.519 86.224 815.343 86.224ZM815.695 85.024C814.431 85.024 813.519 84.272 813.519 82.064C813.519 79.856 814.431 79.056 815.695 79.056C816.991 79.056 817.935 80.064 817.935 82.064C817.935 84.064 816.991 85.024 815.695 85.024ZM825.779 86.224C827.603 86.224 828.995 84.64 828.995 82.032C828.995 79.424 827.603 77.856 825.779 77.856C824.387 77.856 823.651 78.624 823.267 79.296V77.76V74.8H821.907V86H823.235V84.768C823.619 85.44 824.387 86.224 825.779 86.224ZM825.427 85.024C824.131 85.024 823.187 84.016 823.187 82.016C823.187 80.016 824.131 79.056 825.427 79.056C826.691 79.056 827.603 79.808 827.603 82.016C827.603 84.224 826.691 85.024 825.427 85.024ZM837.859 86.224C839.251 86.224 840.019 85.456 840.403 84.784V86H841.731V74.8H840.371V77.76V79.312C839.987 78.64 839.251 77.856 837.859 77.856C836.035 77.856 834.643 79.44 834.643 82.048C834.643 84.656 836.035 86.224 837.859 86.224ZM838.211 85.024C836.947 85.024 836.035 84.272 836.035 82.064C836.035 79.856 836.947 79.056 838.211 79.056C839.507 79.056 840.451 80.064 840.451 82.064C840.451 84.064 839.507 85.024 838.211 85.024ZM844.374 76.528H845.814V74.8H844.374V76.528ZM844.422 86H845.782V78.08H844.422V86ZM850.181 86H851.877L854.437 78.08H853.045L851.685 82.64L851.045 84.752C850.933 84.384 850.645 83.44 850.389 82.64L848.965 78.08H847.541L850.181 86ZM856.202 76.528H857.642V74.8H856.202V76.528ZM856.25 86H857.61V78.08H856.25V86ZM862.921 86.224C864.313 86.224 865.081 85.456 865.465 84.784V86H866.793V74.8H865.433V77.76V79.312C865.049 78.64 864.313 77.856 862.921 77.856C861.097 77.856 859.705 79.44 859.705 82.048C859.705 84.656 861.097 86.224 862.921 86.224ZM863.273 85.024C862.009 85.024 861.097 84.272 861.097 82.064C861.097 79.856 862.009 79.056 863.273 79.056C864.569 79.056 865.513 80.064 865.513 82.064C865.513 84.064 864.569 85.024 863.273 85.024ZM872.477 86.224C873.965 86.224 875.293 85.552 875.885 83.936L874.637 83.504C874.429 84.016 873.869 85.04 872.525 85.04C871.421 85.04 870.317 84.4 870.237 82.4H875.821C876.125 79.808 874.701 77.856 872.397 77.856C870.381 77.856 868.893 79.472 868.893 82.08C868.893 84.768 870.317 86.224 872.477 86.224ZM870.269 81.264C870.381 79.824 871.357 78.976 872.397 78.976C873.485 78.976 874.429 79.76 874.429 81.264H870.269ZM878 86H879.36V82.368C879.36 80.512 880.096 79.376 881.888 79.376C882.208 79.376 882.48 79.408 882.736 79.456V78.064C882.544 78.016 882.304 77.968 881.92 77.968C880.416 77.968 879.6 79.136 879.344 79.728V78.08H878V86Z" fill="#6E6E78"/>
<defs>
<clipPath id="clip0">
<rect width="140" height="56" fill="white" transform="translate(190 132)"/>
</clipPath>
</defs>
</svg>
