<svg width="539" height="146" viewBox="0 0 539 146" fill="none" xmlns="http://www.w3.org/2000/svg">
<path d="M1 127.5L0.5 127.5L0.5 128.5L1 128.5L1 127.5ZM143.354 128.354C143.549 128.158 143.549 127.842 143.354 127.646L140.172 124.464C139.976 124.269 139.66 124.269 139.464 124.464C139.269 124.66 139.269 124.976 139.464 125.172L142.293 128L139.464 130.828C139.269 131.024 139.269 131.34 139.464 131.536C139.66 131.731 139.976 131.731 140.172 131.536L143.354 128.354ZM1 128.5L143 128.5L143 127.5L1 127.5L1 128.5Z" fill="#F47C25"/>
<path d="M405.646 61.6464C405.451 61.8417 405.451 62.1583 405.646 62.3536L408.828 65.5355C409.024 65.7308 409.34 65.7308 409.536 65.5355C409.731 65.3403 409.731 65.0237 409.536 64.8284L406.707 62L409.536 59.1716C409.731 58.9763 409.731 58.6597 409.536 58.4645C409.34 58.2692 409.024 58.2692 408.828 58.4645L405.646 61.6464ZM444 70H443.5H444ZM443.646 100.354C443.842 100.549 444.158 100.549 444.354 100.354L447.536 97.1716C447.731 96.9763 447.731 96.6597 447.536 96.4645C447.34 96.2692 447.024 96.2692 446.828 96.4645L444 99.2929L441.172 96.4645C440.976 96.2692 440.66 96.2692 440.464 96.4645C440.269 96.6597 440.269 96.9763 440.464 97.1716L443.646 100.354ZM436 61.5H406V62.5H436V61.5ZM443.5 70L443.5 100H444.5L444.5 70H443.5ZM436 62.5C440.142 62.5 443.5 65.8579 443.5 70H444.5C444.5 65.3056 440.694 61.5 436 61.5V62.5Z" fill="#F47C25"/>
<path d="M2.236 89H6.004C7.456 89 8.716 88.304 8.716 86.684C8.716 85.436 7.732 84.788 6.88 84.62C7.6 84.476 8.44 83.84 8.44 82.676C8.44 81.452 7.6 80.6 5.836 80.6H2.236V89ZM3.316 84.14V81.62H5.74C6.688 81.62 7.3 82.028 7.3 82.82C7.3 83.612 6.688 84.14 5.74 84.14H3.316ZM3.316 87.98V85.148H5.848C6.916 85.148 7.552 85.676 7.552 86.54C7.552 87.404 6.916 87.98 5.848 87.98H3.316ZM12.2946 89.168C13.5306 89.168 14.0946 88.292 14.2746 87.968V89H15.2706V83.06H14.2506V85.58C14.2506 86.492 14.2266 88.268 12.6186 88.268C11.8386 88.268 11.3346 87.812 11.3346 86.696V83.06H10.3146V86.936C10.3146 88.256 10.9026 89.168 12.2946 89.168ZM19.3533 89H20.7213V88.1H19.4853C19.0653 88.1 18.8853 87.92 18.8853 87.5V83.924H20.5053V83.06H18.8853V81.2H17.8652V83.06H16.4853V83.924H17.8652V87.56C17.8652 88.544 18.3693 89 19.3533 89ZM24.0759 89H25.4439V88.1H24.2079C23.7879 88.1 23.6079 87.92 23.6079 87.5V83.924H25.2279V83.06H23.6079V81.2H22.5879V83.06H21.2079V83.924H22.5879V87.56C22.5879 88.544 23.0919 89 24.0759 89ZM28.968 89.168C30.528 89.168 31.728 87.824 31.728 86.036C31.728 84.248 30.576 82.892 28.968 82.892C27.36 82.892 26.208 84.248 26.208 86.036C26.208 87.824 27.408 89.168 28.968 89.168ZM28.968 88.268C27.96 88.268 27.264 87.548 27.264 86.048C27.264 84.548 27.96 83.792 28.968 83.792C29.976 83.792 30.672 84.548 30.672 86.048C30.672 87.548 29.976 88.268 28.968 88.268ZM33.2736 89H34.2936V86.48C34.2936 85.604 34.3296 83.792 35.9616 83.792C36.7536 83.792 37.2696 84.248 37.2696 85.364V89H38.2896V85.124C38.2896 83.804 37.6896 82.892 36.2136 82.892C34.9296 82.892 34.3536 83.804 34.2696 84.068V83.06H33.2736V89ZM4.912 110.168C6.28 110.168 7.324 108.98 7.324 107.024C7.324 105.068 6.28 103.892 4.912 103.892C3.868 103.892 3.316 104.468 3.028 104.972V103.82V101.6H2.008V110H3.004V109.076C3.292 109.58 3.868 110.168 4.912 110.168ZM4.648 109.268C3.676 109.268 2.968 108.512 2.968 107.012C2.968 105.512 3.676 104.792 4.648 104.792C5.596 104.792 6.28 105.356 6.28 107.012C6.28 108.668 5.596 109.268 4.648 109.268ZM10.4346 110.168C11.3586 110.168 11.9226 109.772 12.3666 109.1C12.4386 109.592 12.5706 110 13.4706 110H14.2506V109.1H13.6266C13.3506 109.1 13.2786 109.028 13.2786 108.752V105.932C13.2786 104.708 12.5466 103.892 10.9626 103.892C9.41463 103.892 8.59863 104.732 8.38263 105.524L9.37863 105.884C9.53463 105.44 9.85863 104.792 10.9506 104.792C11.8626 104.792 12.2586 105.224 12.2586 105.944V106.112C10.3266 106.268 8.51463 106.832 8.51463 108.464C8.51463 109.52 9.25863 110.168 10.4346 110.168ZM10.6746 109.304C9.93063 109.304 9.57063 108.944 9.57063 108.38C9.57063 107.408 10.8066 107.036 12.2586 106.88V107.54C12.2586 108.776 11.4546 109.304 10.6746 109.304ZM17.7079 110.168C19.0399 110.168 19.9039 109.388 20.2879 108.284L19.3279 107.948C19.1359 108.596 18.6919 109.268 17.7079 109.268C16.7239 109.268 15.9559 108.548 15.9559 107.024C15.9559 105.536 16.7479 104.792 17.6959 104.792C18.5599 104.792 18.9919 105.356 19.1839 105.92L20.1319 105.608C19.8559 104.684 19.0399 103.892 17.6959 103.892C16.0519 103.892 14.8879 105.188 14.8879 107.024C14.8879 108.944 15.9919 110.168 17.7079 110.168ZM26.0526 110H27.3606L24.5046 106.544L27.1806 104.06H25.8246L22.6686 107.12V105.176V101.6H21.6486V110H22.6686V108.248L23.7966 107.216L26.0526 110ZM29.3 112.34H32.072C33.08 112.34 33.932 111.812 33.932 110.708C33.932 109.712 33.188 109.064 32.048 109.064H29.456C29.036 109.064 28.952 108.848 28.952 108.656C28.952 108.44 29.168 108.212 29.492 108.068C29.816 108.26 30.188 108.296 30.596 108.296C31.916 108.296 32.816 107.42 32.912 106.076L32.936 105.752C32.984 105.056 33.188 104.924 33.728 104.924H34.184V104.06H33.548C32.972 104.06 32.696 104.456 32.576 104.912C32.324 104.492 31.7 103.892 30.596 103.892C29.228 103.892 28.232 104.864 28.232 106.1C28.232 106.844 28.556 107.384 28.892 107.684C28.508 107.96 28.016 108.356 28.016 108.944C28.016 109.412 28.208 109.688 28.544 109.892C28.184 110.096 27.752 110.54 27.752 111.14C27.752 111.836 28.16 112.34 29.3 112.34ZM30.596 107.456C29.792 107.456 29.264 106.916 29.264 106.1C29.264 105.284 29.792 104.732 30.596 104.732C31.4 104.732 31.928 105.284 31.928 106.1C31.928 106.916 31.4 107.456 30.596 107.456ZM29.648 111.428C29.024 111.428 28.688 111.296 28.688 110.804C28.688 110.396 28.952 110.132 29.156 110H31.964C32.432 110 32.9 110.096 32.9 110.708C32.9 111.32 32.432 111.428 31.964 111.428H29.648ZM35.383 110H36.403V107.276C36.403 105.884 36.955 105.032 38.299 105.032C38.539 105.032 38.743 105.056 38.935 105.092V104.048C38.791 104.012 38.611 103.976 38.323 103.976C37.195 103.976 36.583 104.852 36.391 105.296V104.06H35.383V110ZM42.3391 110.168C43.8991 110.168 45.0991 108.824 45.0991 107.036C45.0991 105.248 43.9471 103.892 42.3391 103.892C40.7311 103.892 39.5791 105.248 39.5791 107.036C39.5791 108.824 40.7791 110.168 42.3391 110.168ZM42.3391 109.268C41.3311 109.268 40.6351 108.548 40.6351 107.048C40.6351 105.548 41.3311 104.792 42.3391 104.792C43.3471 104.792 44.0431 105.548 44.0431 107.048C44.0431 108.548 43.3471 109.268 42.3391 109.268ZM48.5407 110.168C49.7767 110.168 50.3407 109.292 50.5207 108.968V110H51.5167V104.06H50.4967V106.58C50.4967 107.492 50.4727 109.268 48.8647 109.268C48.0847 109.268 47.5807 108.812 47.5807 107.696V104.06H46.5607V107.936C46.5607 109.256 47.1487 110.168 48.5407 110.168ZM53.5353 110H54.5553V107.48C54.5553 106.604 54.5913 104.792 56.2233 104.792C57.0153 104.792 57.5313 105.248 57.5313 106.364V110H58.5513V106.124C58.5513 104.804 57.9513 103.892 56.4753 103.892C55.1913 103.892 54.6153 104.804 54.5313 105.068V104.06H53.5353V110ZM62.4526 110.168C63.4966 110.168 64.0726 109.592 64.3606 109.088V110H65.3566V101.6H64.3366V103.82V104.984C64.0486 104.48 63.4966 103.892 62.4526 103.892C61.0846 103.892 60.0406 105.08 60.0406 107.036C60.0406 108.992 61.0846 110.168 62.4526 110.168ZM62.7166 109.268C61.7686 109.268 61.0846 108.704 61.0846 107.048C61.0846 105.392 61.7686 104.792 62.7166 104.792C63.6886 104.792 64.3966 105.548 64.3966 107.048C64.3966 108.548 63.6886 109.268 62.7166 109.268Z" fill="#F47C25"/>
<rect x="151" y="74" width="281" height="72" rx="8" fill="#1662DD"/>
<path d="M181.548 119H188.632C194.344 119 198.684 115.332 198.684 109.088C198.684 103.068 194.316 99.4 188.716 99.4H181.548V119ZM185.188 115.892V102.508H188.548C192.832 102.508 194.904 105.168 194.904 109.144C194.904 113.568 192.776 115.892 188.352 115.892H185.188ZM208.093 119.42C212.153 119.42 215.121 116.452 215.121 112.028C215.121 107.66 212.181 104.636 208.093 104.636C204.005 104.636 201.065 107.66 201.065 112.028C201.065 116.284 204.033 119.42 208.093 119.42ZM208.093 116.648C206.021 116.648 204.593 115.192 204.593 112.084C204.593 108.976 206.021 107.408 208.093 107.408C210.165 107.408 211.565 108.976 211.565 112.084C211.565 115.192 210.165 116.648 208.093 116.648ZM221.171 119H225.007L226.799 112.644C227.499 110.236 227.751 109.368 227.975 108.472C228.199 109.312 228.479 110.236 229.151 112.672L230.943 119H235.003L239.567 105.056H236.067L234.667 109.872C233.603 113.736 233.267 114.94 233.099 115.64C232.875 114.94 232.539 113.708 231.783 110.908L230.103 105.056H226.071L224.475 110.656C223.635 113.652 223.299 114.94 223.103 115.668C222.879 114.912 222.543 113.596 221.619 110.18L220.191 105.056H216.663L221.171 119ZM242.049 119H245.465V112.644C245.465 110.936 245.521 107.492 248.657 107.492C250.197 107.492 251.177 108.388 251.177 110.488V119H254.593V109.732C254.593 106.68 253.221 104.636 249.889 104.636C247.173 104.636 245.829 106.456 245.381 107.268V105.056H242.049V119ZM258.592 119H262.008V99.4H258.592V119ZM272.186 119.42C276.246 119.42 279.214 116.452 279.214 112.028C279.214 107.66 276.274 104.636 272.186 104.636C268.098 104.636 265.158 107.66 265.158 112.028C265.158 116.284 268.126 119.42 272.186 119.42ZM272.186 116.648C270.114 116.648 268.686 115.192 268.686 112.084C268.686 108.976 270.114 107.408 272.186 107.408C274.258 107.408 275.658 108.976 275.658 112.084C275.658 115.192 274.258 116.648 272.186 116.648ZM285.993 119.42C288.345 119.42 289.829 118.244 290.669 116.928C290.837 118.16 291.453 119 293.217 119H295.849V116.312H294.533C293.805 116.312 293.693 116.144 293.693 115.472V109.844C293.693 106.428 291.593 104.636 287.757 104.636C283.837 104.636 281.653 106.68 281.317 108.752L284.481 109.564C284.817 108.332 285.685 107.24 287.757 107.24C289.549 107.24 290.333 108.052 290.333 109.424V109.9C285.713 110.32 281.541 111.524 281.541 115.416C281.541 117.88 283.389 119.42 285.993 119.42ZM287.113 116.844C285.713 116.844 285.013 116.144 285.013 115.08C285.013 113.092 287.449 112.476 290.333 112.14V113.26C290.333 115.752 288.765 116.844 287.113 116.844ZM303.06 119.42C305.468 119.42 306.98 118.076 307.624 117.04V119H310.956V99.4H307.54V104.496V107.016C306.896 105.98 305.44 104.636 303.06 104.636C299.532 104.636 297.152 107.548 297.152 112.028C297.152 116.508 299.532 119.42 303.06 119.42ZM304.18 116.732C302.192 116.732 300.708 115.528 300.708 112.028C300.708 108.556 302.192 107.324 304.18 107.324C306.252 107.324 307.708 108.892 307.708 112.028C307.708 115.192 306.252 116.732 304.18 116.732ZM321.947 119H325.363V113.12C325.363 109.704 326.623 108.276 329.591 108.276C330.095 108.276 330.599 108.304 331.103 108.388V104.888C330.851 104.832 330.571 104.804 330.179 104.804C327.071 104.804 325.755 107.016 325.307 108.136V105.056H321.947V119ZM339.256 119.42C342.924 119.42 344.884 117.516 345.78 115.36L342.7 114.212C342.196 115.388 341.272 116.732 339.284 116.732C337.492 116.732 335.98 115.696 335.84 112.868H345.696C346.144 108.248 343.652 104.636 339.2 104.636C335.336 104.636 332.452 107.576 332.452 112.028C332.452 116.676 335.14 119.42 339.256 119.42ZM335.952 110.348C336.204 108.332 337.52 107.184 339.2 107.184C340.964 107.184 342.196 108.304 342.308 110.348H335.952ZM348.99 124.46H352.406V119.56V117.012C353.05 118.104 354.506 119.42 356.886 119.42C360.442 119.42 362.822 116.48 362.822 112.028C362.822 107.548 360.442 104.608 356.886 104.608C354.478 104.608 352.966 106.008 352.322 107.016V105.056H348.99V124.46ZM355.766 116.732C353.694 116.732 352.238 115.164 352.238 112C352.238 108.864 353.694 107.296 355.766 107.296C357.754 107.296 359.266 108.528 359.266 112C359.266 115.5 357.754 116.732 355.766 116.732ZM372.073 119.42C376.133 119.42 379.101 116.452 379.101 112.028C379.101 107.66 376.161 104.636 372.073 104.636C367.985 104.636 365.045 107.66 365.045 112.028C365.045 116.284 368.013 119.42 372.073 119.42ZM372.073 116.648C370.001 116.648 368.573 115.192 368.573 112.084C368.573 108.976 370.001 107.408 372.073 107.408C374.145 107.408 375.545 108.976 375.545 112.084C375.545 115.192 374.145 116.648 372.073 116.648ZM382.267 119H385.683V113.12C385.683 109.704 386.943 108.276 389.911 108.276C390.415 108.276 390.919 108.304 391.423 108.388V104.888C391.171 104.832 390.891 104.804 390.499 104.804C387.391 104.804 386.075 107.016 385.627 108.136V105.056H382.267V119ZM398.898 119H403.042V116.2H400.074C399.178 116.2 398.786 115.808 398.786 114.912V107.716H402.482V105.056H398.786V100.66H395.37V105.056H392.346V107.716H395.37V115.444C395.37 117.656 396.63 119 398.898 119Z" fill="white"/>
<path d="M292.5 1L292.5 0.5L291.5 0.5L291.5 1L292.5 1ZM291.646 95.3536C291.842 95.5488 292.158 95.5488 292.354 95.3536L295.536 92.1716C295.731 91.9763 295.731 91.6597 295.536 91.4645C295.34 91.2692 295.024 91.2692 294.828 91.4645L292 94.2929L289.172 91.4645C288.976 91.2692 288.66 91.2692 288.464 91.4645C288.269 91.6597 288.269 91.9763 288.464 92.1716L291.646 95.3536ZM291.5 1L291.5 95L292.5 95L292.5 1L291.5 1Z" fill="#F47C25"/>
<path d="M218.611 16H222.379C223.831 16 225.091 15.304 225.091 13.684C225.091 12.436 224.107 11.788 223.255 11.62C223.975 11.476 224.815 10.84 224.815 9.676C224.815 8.452 223.975 7.6 222.211 7.6H218.611V16ZM219.691 11.14V8.62H222.115C223.063 8.62 223.675 9.028 223.675 9.82C223.675 10.612 223.063 11.14 222.115 11.14H219.691ZM219.691 14.98V12.148H222.223C223.291 12.148 223.927 12.676 223.927 13.54C223.927 14.404 223.291 14.98 222.223 14.98H219.691ZM228.67 16.168C229.906 16.168 230.47 15.292 230.65 14.968V16H231.646V10.06H230.626V12.58C230.626 13.492 230.602 15.268 228.994 15.268C228.214 15.268 227.71 14.812 227.71 13.696V10.06H226.69V13.936C226.69 15.256 227.278 16.168 228.67 16.168ZM235.728 16H237.096V15.1H235.86C235.44 15.1 235.26 14.92 235.26 14.5V10.924H236.88V10.06H235.26V8.2H234.24V10.06H232.86V10.924H234.24V14.56C234.24 15.544 234.744 16 235.728 16ZM240.451 16H241.819V15.1H240.583C240.163 15.1 239.983 14.92 239.983 14.5V10.924H241.603V10.06H239.983V8.2H238.963V10.06H237.583V10.924H238.963V14.56C238.963 15.544 239.467 16 240.451 16ZM245.343 16.168C246.903 16.168 248.103 14.824 248.103 13.036C248.103 11.248 246.951 9.892 245.343 9.892C243.735 9.892 242.583 11.248 242.583 13.036C242.583 14.824 243.783 16.168 245.343 16.168ZM245.343 15.268C244.335 15.268 243.639 14.548 243.639 13.048C243.639 11.548 244.335 10.792 245.343 10.792C246.351 10.792 247.047 11.548 247.047 13.048C247.047 14.548 246.351 15.268 245.343 15.268ZM249.649 16H250.669V13.48C250.669 12.604 250.705 10.792 252.337 10.792C253.129 10.792 253.645 11.248 253.645 12.364V16H254.665V12.124C254.665 10.804 254.065 9.892 252.589 9.892C251.305 9.892 250.729 10.804 250.645 11.068V10.06H249.649V16ZM261.556 16H262.924V15.1H261.688C261.268 15.1 261.088 14.92 261.088 14.5V10.924H262.708V10.06H261.088V8.2H260.068V10.06H258.688V10.924H260.068V14.56C260.068 15.544 260.572 16 261.556 16ZM266.4 16.168C267.516 16.168 268.512 15.664 268.956 14.452L268.02 14.128C267.864 14.512 267.444 15.28 266.436 15.28C265.608 15.28 264.78 14.8 264.72 13.3H268.908C269.136 11.356 268.068 9.892 266.34 9.892C264.828 9.892 263.712 11.104 263.712 13.06C263.712 15.076 264.78 16.168 266.4 16.168ZM264.744 12.448C264.828 11.368 265.56 10.732 266.34 10.732C267.156 10.732 267.864 11.32 267.864 12.448H264.744ZM269.705 16H270.821L271.577 14.872L272.333 13.732C272.501 13.996 272.633 14.2 273.077 14.872L273.821 16H275.045L272.981 12.976L274.925 10.06H273.797L273.149 11.08C272.693 11.788 272.549 12.004 272.381 12.244C272.237 12.004 272.105 11.788 271.661 11.08L271.013 10.06H269.825L271.745 12.964L269.705 16ZM278.349 16H279.717V15.1H278.481C278.061 15.1 277.881 14.92 277.881 14.5V10.924H279.501V10.06H277.881V8.2H276.861V10.06H275.481V10.924H276.861V14.56C276.861 15.544 277.365 16 278.349 16Z" fill="#F47C25"/>
<path d="M456.284 77H457.352V74.672H458.576V73.736H457.352V68.6H455.684L452.36 73.628V74.672H456.284V77ZM456.284 73.736H455.048H453.452L456.284 69.452V71.288V73.736ZM460.016 79.34H461.036V77.24V76.076C461.324 76.58 461.876 77.168 462.92 77.168C464.288 77.168 465.332 75.98 465.332 74.024C465.332 72.068 464.288 70.892 462.92 70.892C461.876 70.892 461.3 71.468 461.012 71.972V71.06H460.016V79.34ZM462.656 76.268C461.684 76.268 460.976 75.512 460.976 74.012C460.976 72.512 461.684 71.792 462.656 71.792C463.604 71.792 464.288 72.356 464.288 74.012C464.288 75.668 463.604 76.268 462.656 76.268ZM466.044 77H467.16L467.916 75.872L468.672 74.732C468.84 74.996 468.972 75.2 469.416 75.872L470.16 77H471.384L469.32 73.976L471.264 71.06H470.136L469.488 72.08C469.032 72.788 468.888 73.004 468.72 73.244C468.576 73.004 468.444 72.788 468 72.08L467.352 71.06H466.164L468.084 73.964L466.044 77ZM478.095 77.168C479.427 77.168 480.291 76.388 480.675 75.284L479.715 74.948C479.523 75.596 479.079 76.268 478.095 76.268C477.111 76.268 476.343 75.548 476.343 74.024C476.343 72.536 477.135 71.792 478.083 71.792C478.947 71.792 479.379 72.356 479.571 72.92L480.519 72.608C480.243 71.684 479.427 70.892 478.083 70.892C476.439 70.892 475.275 72.188 475.275 74.024C475.275 75.944 476.379 77.168 478.095 77.168ZM484.327 77.168C485.887 77.168 487.087 75.824 487.087 74.036C487.087 72.248 485.935 70.892 484.327 70.892C482.719 70.892 481.567 72.248 481.567 74.036C481.567 75.824 482.767 77.168 484.327 77.168ZM484.327 76.268C483.319 76.268 482.623 75.548 482.623 74.048C482.623 72.548 483.319 71.792 484.327 71.792C485.335 71.792 486.031 72.548 486.031 74.048C486.031 75.548 485.335 76.268 484.327 76.268ZM488.633 77H489.653V74.276C489.653 72.884 490.205 72.032 491.549 72.032C491.789 72.032 491.993 72.056 492.185 72.092V71.048C492.041 71.012 491.861 70.976 491.573 70.976C490.445 70.976 489.833 71.852 489.641 72.296V71.06H488.633V77ZM493.391 77H494.411V74.48C494.411 73.604 494.447 71.792 496.079 71.792C496.871 71.792 497.387 72.248 497.387 73.364V77H498.407V73.124C498.407 71.804 497.807 70.892 496.331 70.892C495.047 70.892 494.471 71.804 494.387 72.068V71.06H493.391V77ZM502.584 77.168C503.7 77.168 504.696 76.664 505.14 75.452L504.204 75.128C504.048 75.512 503.628 76.28 502.62 76.28C501.792 76.28 500.964 75.8 500.904 74.3H505.092C505.32 72.356 504.252 70.892 502.524 70.892C501.012 70.892 499.896 72.104 499.896 74.06C499.896 76.076 500.964 77.168 502.584 77.168ZM500.928 73.448C501.012 72.368 501.744 71.732 502.524 71.732C503.34 71.732 504.048 72.32 504.048 73.448H500.928ZM506.727 77H507.747V74.276C507.747 72.884 508.299 72.032 509.643 72.032C509.883 72.032 510.087 72.056 510.279 72.092V71.048C510.135 71.012 509.955 70.976 509.667 70.976C508.539 70.976 507.927 71.852 507.735 72.296V71.06H506.727V77ZM453.008 98H454.028V95.276C454.028 93.884 454.58 93.032 455.924 93.032C456.164 93.032 456.368 93.056 456.56 93.092V92.048C456.416 92.012 456.236 91.976 455.948 91.976C454.82 91.976 454.208 92.852 454.016 93.296V92.06H453.008V98ZM459.255 98.168C460.179 98.168 460.743 97.772 461.187 97.1C461.259 97.592 461.391 98 462.291 98H463.071V97.1H462.447C462.171 97.1 462.099 97.028 462.099 96.752V93.932C462.099 92.708 461.367 91.892 459.783 91.892C458.235 91.892 457.419 92.732 457.203 93.524L458.199 93.884C458.355 93.44 458.679 92.792 459.771 92.792C460.683 92.792 461.079 93.224 461.079 93.944V94.112C459.147 94.268 457.335 94.832 457.335 96.464C457.335 97.52 458.079 98.168 459.255 98.168ZM459.495 97.304C458.751 97.304 458.391 96.944 458.391 96.38C458.391 95.408 459.627 95.036 461.079 94.88V95.54C461.079 96.776 460.275 97.304 459.495 97.304ZM466.132 98.168C467.176 98.168 467.752 97.592 468.04 97.088V98H469.036V89.6H468.016V91.82V92.984C467.728 92.48 467.176 91.892 466.132 91.892C464.764 91.892 463.72 93.08 463.72 95.036C463.72 96.992 464.764 98.168 466.132 98.168ZM466.396 97.268C465.448 97.268 464.764 96.704 464.764 95.048C464.764 93.392 465.448 92.792 466.396 92.792C467.368 92.792 468.076 93.548 468.076 95.048C468.076 96.548 467.368 97.268 466.396 97.268ZM471.019 90.896H472.099V89.6H471.019V90.896ZM471.055 98H472.075V92.06H471.055V98ZM475.986 98.168C477.222 98.168 477.786 97.292 477.966 96.968V98H478.962V92.06H477.942V94.58C477.942 95.492 477.918 97.268 476.31 97.268C475.53 97.268 475.026 96.812 475.026 95.696V92.06H474.006V95.936C474.006 97.256 474.594 98.168 475.986 98.168ZM482.985 98.168C484.485 98.168 485.349 97.46 485.349 96.344C485.349 94.988 483.945 94.628 483.345 94.508L482.661 94.376C481.809 94.208 481.617 93.968 481.617 93.572C481.617 93.14 482.001 92.732 482.829 92.732C483.837 92.732 484.173 93.368 484.317 93.764L485.241 93.428C485.001 92.648 484.305 91.892 482.829 91.892C481.665 91.892 480.657 92.612 480.657 93.68C480.657 94.808 481.521 95.18 482.505 95.372L483.189 95.504C484.053 95.672 484.329 95.984 484.329 96.428C484.329 96.992 483.849 97.292 482.985 97.292C482.049 97.292 481.569 96.848 481.389 96.14L480.405 96.464C480.669 97.604 481.773 98.168 482.985 98.168Z" fill="#F47C25"/>
</svg>
