<svg width="958" height="347" viewBox="0 0 958 347" fill="none" xmlns="http://www.w3.org/2000/svg">
<rect x="242" y="113" width="451" height="120" rx="12" fill="#1D1D21"/>
<path d="M313.273 192.84C325.649 192.84 333.657 184.384 333.657 172.456C333.657 160.584 325.537 151.96 313.273 151.96C300.953 151.96 292.889 160.584 292.889 172.456C292.889 184.384 300.897 192.84 313.273 192.84ZM313.273 186.624C305.265 186.624 300.505 180.576 300.505 172.456C300.505 164.224 305.265 158.176 313.273 158.176C321.281 158.176 325.985 164.224 325.985 172.456C325.985 180.576 321.281 186.624 313.273 186.624ZM340.339 192H347.171V180.24C347.171 173.408 349.691 170.552 355.627 170.552C356.635 170.552 357.643 170.608 358.651 170.776V163.776C358.147 163.664 357.587 163.608 356.803 163.608C350.587 163.608 347.955 168.032 347.059 170.272V164.112H340.339V192ZM373.221 192.84C378.037 192.84 381.061 190.152 382.349 188.08V192H389.013V152.8H382.181V162.992V168.032C380.893 165.96 377.981 163.272 373.221 163.272C366.165 163.272 361.405 169.096 361.405 178.056C361.405 187.016 366.165 192.84 373.221 192.84ZM375.461 187.464C371.485 187.464 368.517 185.056 368.517 178.056C368.517 171.112 371.485 168.648 375.461 168.648C379.605 168.648 382.517 171.784 382.517 178.056C382.517 184.384 379.605 187.464 375.461 187.464ZM409.028 192.84C416.364 192.84 420.284 189.032 422.076 184.72L415.916 182.424C414.908 184.776 413.06 187.464 409.084 187.464C405.5 187.464 402.476 185.392 402.196 179.736H421.908C422.804 170.496 417.82 163.272 408.916 163.272C401.188 163.272 395.42 169.152 395.42 178.056C395.42 187.352 400.796 192.84 409.028 192.84ZM402.42 174.696C402.924 170.664 405.556 168.368 408.916 168.368C412.444 168.368 414.908 170.608 415.132 174.696H402.42ZM428.496 192H435.328V180.24C435.328 173.408 437.848 170.552 443.784 170.552C444.792 170.552 445.8 170.608 446.808 170.776V163.776C446.304 163.664 445.744 163.608 444.96 163.608C438.744 163.608 436.112 168.032 435.216 170.272V164.112H428.496V192ZM474.12 192.84C478.936 192.84 481.96 190.152 483.248 188.08V192H489.912V152.8H483.08V162.992V168.032C481.792 165.96 478.88 163.272 474.12 163.272C467.064 163.272 462.304 169.096 462.304 178.056C462.304 187.016 467.064 192.84 474.12 192.84ZM476.36 187.464C472.384 187.464 469.416 185.056 469.416 178.056C469.416 171.112 472.384 168.648 476.36 168.648C480.504 168.648 483.416 171.784 483.416 178.056C483.416 184.384 480.504 187.464 476.36 187.464ZM510.318 192.84C518.438 192.84 524.374 186.904 524.374 178.056C524.374 169.32 518.494 163.272 510.318 163.272C502.142 163.272 496.262 169.32 496.262 178.056C496.262 186.568 502.198 192.84 510.318 192.84ZM510.318 187.296C506.174 187.296 503.318 184.384 503.318 178.168C503.318 171.952 506.174 168.816 510.318 168.816C514.462 168.816 517.262 171.952 517.262 178.168C517.262 184.384 514.462 187.296 510.318 187.296ZM530.707 192H537.539V179.288C537.539 175.872 537.651 168.984 543.923 168.984C547.003 168.984 548.963 170.776 548.963 174.976V192H555.795V173.464C555.795 167.36 553.051 163.272 546.387 163.272C540.954 163.272 538.267 166.912 537.371 168.536V164.112H530.707V192ZM572.304 192.84C577.792 192.84 580.368 189.256 581.488 187.408V192H588.264V164.112H581.432V177.216C581.432 181.696 580.424 187.128 575.104 187.128C572.136 187.128 570.288 185.392 570.288 181.08V164.112H563.456V182.704C563.456 188.808 566.536 192.84 572.304 192.84ZM606.406 192H614.694V186.4H608.758C606.966 186.4 606.182 185.616 606.182 183.824V169.432H613.574V164.112H606.182V155.32H599.35V164.112H593.302V169.432H599.35V184.888C599.35 189.312 601.87 192 606.406 192ZM630.425 192.784C638.209 192.784 642.745 189.256 642.745 183.824C642.745 178.112 637.593 175.984 633.169 175.144L629.585 174.416C626.225 173.8 625.329 172.904 625.329 171.336C625.329 169.656 626.841 168.2 629.921 168.2C633.393 168.2 635.241 170.328 636.025 172.456L641.793 169.992C640.617 166.856 637.145 163.272 630.145 163.272C623.425 163.272 618.833 166.744 618.833 171.952C618.833 177.384 622.417 179.232 627.849 180.296L631.545 181.024C634.849 181.696 635.689 182.928 635.689 184.496C635.689 186.456 633.953 187.744 630.705 187.744C625.665 187.744 624.321 184.328 623.985 182.76L617.657 184.776C618.889 189.872 624.153 192.784 630.425 192.784Z" fill="white"/>
<path d="M712.733 169.8C714.867 171.4 714.867 174.6 712.733 176.2L693 191L693 155L712.733 169.8Z" fill="#1D1D21"/>
<path d="M515.87 73H516.95V65.62H520.058V64.6H512.882V65.62H515.87V73ZM522.167 73.168C523.727 73.168 524.927 71.824 524.927 70.036C524.927 68.248 523.775 66.892 522.167 66.892C520.559 66.892 519.407 68.248 519.407 70.036C519.407 71.824 520.607 73.168 522.167 73.168ZM522.167 72.268C521.159 72.268 520.463 71.548 520.463 70.048C520.463 68.548 521.159 67.792 522.167 67.792C523.175 67.792 523.871 68.548 523.871 70.048C523.871 71.548 523.175 72.268 522.167 72.268ZM528.765 73.168C530.325 73.168 531.525 71.824 531.525 70.036C531.525 68.248 530.373 66.892 528.765 66.892C527.157 66.892 526.005 68.248 526.005 70.036C526.005 71.824 527.205 73.168 528.765 73.168ZM528.765 72.268C527.757 72.268 527.061 71.548 527.061 70.048C527.061 68.548 527.757 67.792 528.765 67.792C529.773 67.792 530.469 68.548 530.469 70.048C530.469 71.548 529.773 72.268 528.765 72.268ZM533.071 73H534.091V64.6H533.071V73ZM538.17 73H539.538V72.1H538.302C537.882 72.1 537.702 71.92 537.702 71.5V67.924H539.322V67.06H537.702V65.2H536.682V67.06H535.302V67.924H536.682V71.56C536.682 72.544 537.186 73 538.17 73ZM540.792 65.896H541.872V64.6H540.792V65.896ZM540.828 73H541.848V67.06H540.828V73ZM543.863 75.34H544.883V73.24V72.076C545.171 72.58 545.723 73.168 546.767 73.168C548.135 73.168 549.179 71.98 549.179 70.024C549.179 68.068 548.135 66.892 546.767 66.892C545.723 66.892 545.147 67.468 544.859 67.972V67.06H543.863V75.34ZM546.503 72.268C545.531 72.268 544.823 71.512 544.823 70.012C544.823 68.512 545.531 67.792 546.503 67.792C547.451 67.792 548.135 68.356 548.135 70.012C548.135 71.668 547.451 72.268 546.503 72.268ZM556.224 73.168C557.556 73.168 558.42 72.388 558.804 71.284L557.844 70.948C557.652 71.596 557.208 72.268 556.224 72.268C555.24 72.268 554.472 71.548 554.472 70.024C554.472 68.536 555.264 67.792 556.212 67.792C557.076 67.792 557.508 68.356 557.7 68.92L558.648 68.608C558.372 67.684 557.556 66.892 556.212 66.892C554.568 66.892 553.404 68.188 553.404 70.024C553.404 71.944 554.508 73.168 556.224 73.168ZM562.456 73.168C564.016 73.168 565.216 71.824 565.216 70.036C565.216 68.248 564.064 66.892 562.456 66.892C560.848 66.892 559.696 68.248 559.696 70.036C559.696 71.824 560.896 73.168 562.456 73.168ZM562.456 72.268C561.448 72.268 560.752 71.548 560.752 70.048C560.752 68.548 561.448 67.792 562.456 67.792C563.464 67.792 564.16 68.548 564.16 70.048C564.16 71.548 563.464 72.268 562.456 72.268ZM566.762 73H567.782V70.48C567.782 69.604 567.818 67.792 569.45 67.792C570.242 67.792 570.758 68.248 570.758 69.364V73H571.778V69.124C571.778 67.804 571.178 66.892 569.702 66.892C568.418 66.892 567.842 67.804 567.758 68.068V67.06H566.762V73ZM575.775 73H577.143V72.1H575.907C575.487 72.1 575.307 71.92 575.307 71.5V67.924H576.927V67.06H575.307V65.2H574.287V67.06H572.907V67.924H574.287V71.56C574.287 72.544 574.791 73 575.775 73ZM579.97 73.168C580.894 73.168 581.458 72.772 581.902 72.1C581.974 72.592 582.106 73 583.006 73H583.786V72.1H583.162C582.886 72.1 582.814 72.028 582.814 71.752V68.932C582.814 67.708 582.082 66.892 580.498 66.892C578.95 66.892 578.134 67.732 577.918 68.524L578.914 68.884C579.07 68.44 579.394 67.792 580.486 67.792C581.398 67.792 581.794 68.224 581.794 68.944V69.112C579.862 69.268 578.05 69.832 578.05 71.464C578.05 72.52 578.794 73.168 579.97 73.168ZM580.21 72.304C579.466 72.304 579.106 71.944 579.106 71.38C579.106 70.408 580.342 70.036 581.794 69.88V70.54C581.794 71.776 580.99 72.304 580.21 72.304ZM584.843 65.896H585.923V64.6H584.843V65.896ZM584.879 73H585.899V67.06H584.879V73ZM587.914 73H588.934V70.48C588.934 69.604 588.97 67.792 590.602 67.792C591.394 67.792 591.91 68.248 591.91 69.364V73H592.93V69.124C592.93 67.804 592.33 66.892 590.854 66.892C589.57 66.892 588.994 67.804 588.91 68.068V67.06H587.914V73ZM597.107 73.168C598.223 73.168 599.219 72.664 599.663 71.452L598.727 71.128C598.571 71.512 598.151 72.28 597.143 72.28C596.315 72.28 595.487 71.8 595.427 70.3H599.615C599.843 68.356 598.775 66.892 597.047 66.892C595.535 66.892 594.419 68.104 594.419 70.06C594.419 72.076 595.487 73.168 597.107 73.168ZM595.451 69.448C595.535 68.368 596.267 67.732 597.047 67.732C597.863 67.732 598.571 68.32 598.571 69.448H595.451ZM601.25 73H602.27V70.276C602.27 68.884 602.822 68.032 604.166 68.032C604.406 68.032 604.61 68.056 604.802 68.092V67.048C604.658 67.012 604.478 66.976 604.19 66.976C603.062 66.976 602.45 67.852 602.258 68.296V67.06H601.25V73Z" fill="#F47C25"/>
<path d="M617.5 58L617.5 57.5L616.5 57.5L616.5 58L617.5 58ZM616.646 134.354C616.842 134.549 617.158 134.549 617.354 134.354L620.536 131.172C620.731 130.976 620.731 130.66 620.536 130.464C620.34 130.269 620.024 130.269 619.828 130.464L617 133.293L614.172 130.464C613.976 130.269 613.66 130.269 613.464 130.464C613.269 130.66 613.269 130.976 613.464 131.172L616.646 134.354ZM616.5 58L616.5 134L617.5 134L617.5 58L616.5 58Z" fill="#F47C25"/>
<path d="M799.108 194H800.188V186.62H803.296V185.6H796.12V186.62H799.108V194ZM805.405 194.168C806.965 194.168 808.165 192.824 808.165 191.036C808.165 189.248 807.013 187.892 805.405 187.892C803.797 187.892 802.645 189.248 802.645 191.036C802.645 192.824 803.845 194.168 805.405 194.168ZM805.405 193.268C804.397 193.268 803.701 192.548 803.701 191.048C803.701 189.548 804.397 188.792 805.405 188.792C806.413 188.792 807.109 189.548 807.109 191.048C807.109 192.548 806.413 193.268 805.405 193.268ZM812.003 194.168C813.563 194.168 814.763 192.824 814.763 191.036C814.763 189.248 813.611 187.892 812.003 187.892C810.395 187.892 809.243 189.248 809.243 191.036C809.243 192.824 810.443 194.168 812.003 194.168ZM812.003 193.268C810.995 193.268 810.299 192.548 810.299 191.048C810.299 189.548 810.995 188.792 812.003 188.792C813.011 188.792 813.707 189.548 813.707 191.048C813.707 192.548 813.011 193.268 812.003 193.268ZM816.309 194H817.329V185.6H816.309V194ZM821.408 194H822.776V193.1H821.54C821.12 193.1 820.94 192.92 820.94 192.5V188.924H822.56V188.06H820.94V186.2H819.92V188.06H818.54V188.924H819.92V192.56C819.92 193.544 820.424 194 821.408 194ZM824.031 186.896H825.111V185.6H824.031V186.896ZM824.067 194H825.087V188.06H824.067V194ZM827.102 196.34H828.122V194.24V193.076C828.41 193.58 828.962 194.168 830.006 194.168C831.374 194.168 832.418 192.98 832.418 191.024C832.418 189.068 831.374 187.892 830.006 187.892C828.962 187.892 828.386 188.468 828.098 188.972V188.06H827.102V196.34ZM829.742 193.268C828.77 193.268 828.062 192.512 828.062 191.012C828.062 189.512 828.77 188.792 829.742 188.792C830.69 188.792 831.374 189.356 831.374 191.012C831.374 192.668 830.69 193.268 829.742 193.268ZM839.462 194.168C840.794 194.168 841.658 193.388 842.042 192.284L841.082 191.948C840.89 192.596 840.446 193.268 839.462 193.268C838.478 193.268 837.71 192.548 837.71 191.024C837.71 189.536 838.502 188.792 839.45 188.792C840.314 188.792 840.746 189.356 840.938 189.92L841.886 189.608C841.61 188.684 840.794 187.892 839.45 187.892C837.806 187.892 836.642 189.188 836.642 191.024C836.642 192.944 837.746 194.168 839.462 194.168ZM844.939 194.168C845.863 194.168 846.427 193.772 846.871 193.1C846.943 193.592 847.075 194 847.975 194H848.755V193.1H848.131C847.855 193.1 847.783 193.028 847.783 192.752V189.932C847.783 188.708 847.051 187.892 845.467 187.892C843.919 187.892 843.103 188.732 842.887 189.524L843.883 189.884C844.039 189.44 844.363 188.792 845.455 188.792C846.367 188.792 846.763 189.224 846.763 189.944V190.112C844.831 190.268 843.019 190.832 843.019 192.464C843.019 193.52 843.763 194.168 844.939 194.168ZM845.179 193.304C844.435 193.304 844.075 192.944 844.075 192.38C844.075 191.408 845.311 191.036 846.763 190.88V191.54C846.763 192.776 845.959 193.304 845.179 193.304ZM849.848 194H850.868V191.276C850.868 189.884 851.42 189.032 852.764 189.032C853.004 189.032 853.208 189.056 853.4 189.092V188.048C853.256 188.012 853.076 187.976 852.788 187.976C851.66 187.976 851.048 188.852 850.856 189.296V188.06H849.848V194ZM856.756 194.168C857.872 194.168 858.868 193.664 859.312 192.452L858.376 192.128C858.22 192.512 857.8 193.28 856.792 193.28C855.964 193.28 855.136 192.8 855.076 191.3H859.264C859.492 189.356 858.424 187.892 856.696 187.892C855.184 187.892 854.068 189.104 854.068 191.06C854.068 193.076 855.136 194.168 856.756 194.168ZM855.1 190.448C855.184 189.368 855.916 188.732 856.696 188.732C857.512 188.732 858.22 189.32 858.22 190.448H855.1ZM862.904 194H864.272V193.1H863.036C862.616 193.1 862.436 192.92 862.436 192.5V188.924H864.056V188.06H862.436V186.2H861.416V188.06H860.036V188.924H861.416V192.56C861.416 193.544 861.92 194 862.904 194Z" fill="#F47C25"/>
<path d="M865 173.5H865.5V172.5H865V173.5ZM728.646 172.646C728.451 172.842 728.451 173.158 728.646 173.354L731.828 176.536C732.024 176.731 732.34 176.731 732.536 176.536C732.731 176.34 732.731 176.024 732.536 175.828L729.707 173L732.536 170.172C732.731 169.976 732.731 169.66 732.536 169.464C732.34 169.269 732.024 169.269 731.828 169.464L728.646 172.646ZM865 172.5L729 172.5V173.5L865 173.5V172.5Z" fill="#F47C25"/>
<path d="M78.192 242.26H79.092V241.156C80.796 241.024 81.732 240.04 81.732 238.672C81.732 237.4 80.784 236.68 79.452 236.344L79.092 236.248V233.464C80.064 233.656 80.448 234.4 80.604 234.844L81.6 234.352C81.384 233.644 80.604 232.624 79.092 232.456V231.34H78.192V232.456C76.764 232.624 75.816 233.548 75.816 234.784C75.816 236.176 76.68 236.788 77.916 237.052L78.192 237.112V240.136C77.256 239.932 76.692 239.248 76.416 238.408L75.396 238.9C75.768 240.076 76.716 240.964 78.192 241.144V242.26ZM78.192 236.044C77.256 235.804 76.848 235.444 76.848 234.724C76.848 234.04 77.352 233.524 78.192 233.428V234.976V236.044ZM79.092 240.184V238.636V237.316C80.136 237.556 80.64 238.024 80.64 238.768C80.64 239.548 80.076 240.088 79.092 240.184ZM85.2542 241.168C86.7542 241.168 87.6182 240.46 87.6182 239.344C87.6182 237.988 86.2142 237.628 85.6142 237.508L84.9302 237.376C84.0782 237.208 83.8862 236.968 83.8862 236.572C83.8862 236.14 84.2702 235.732 85.0982 235.732C86.1062 235.732 86.4422 236.368 86.5862 236.764L87.5102 236.428C87.2702 235.648 86.5742 234.892 85.0982 234.892C83.9342 234.892 82.9262 235.612 82.9262 236.68C82.9262 237.808 83.7902 238.18 84.7742 238.372L85.4582 238.504C86.3222 238.672 86.5982 238.984 86.5982 239.428C86.5982 239.992 86.1182 240.292 85.2542 240.292C84.3182 240.292 83.8382 239.848 83.6582 239.14L82.6742 239.464C82.9382 240.604 84.0422 241.168 85.2542 241.168ZM89.1447 243.34H90.1647V241.24V240.076C90.4527 240.58 91.0047 241.168 92.0487 241.168C93.4167 241.168 94.4607 239.98 94.4607 238.024C94.4607 236.068 93.4167 234.892 92.0487 234.892C91.0047 234.892 90.4287 235.468 90.1407 235.972V235.06H89.1447V243.34ZM91.7847 240.268C90.8127 240.268 90.1047 239.512 90.1047 238.012C90.1047 236.512 90.8127 235.792 91.7847 235.792C92.7327 235.792 93.4167 236.356 93.4167 238.012C93.4167 239.668 92.7327 240.268 91.7847 240.268ZM97.5713 241.168C98.4953 241.168 99.0593 240.772 99.5033 240.1C99.5753 240.592 99.7073 241 100.607 241H101.387V240.1H100.763C100.487 240.1 100.415 240.028 100.415 239.752V236.932C100.415 235.708 99.6833 234.892 98.0993 234.892C96.5513 234.892 95.7353 235.732 95.5193 236.524L96.5153 236.884C96.6713 236.44 96.9953 235.792 98.0873 235.792C98.9993 235.792 99.3953 236.224 99.3953 236.944V237.112C97.4633 237.268 95.6513 237.832 95.6513 239.464C95.6513 240.52 96.3953 241.168 97.5713 241.168ZM97.8113 240.304C97.0673 240.304 96.7073 239.944 96.7073 239.38C96.7073 238.408 97.9433 238.036 99.3953 237.88V238.54C99.3953 239.776 98.5913 240.304 97.8113 240.304ZM104.845 241.168C106.177 241.168 107.041 240.388 107.425 239.284L106.465 238.948C106.273 239.596 105.829 240.268 104.845 240.268C103.861 240.268 103.093 239.548 103.093 238.024C103.093 236.536 103.885 235.792 104.833 235.792C105.697 235.792 106.129 236.356 106.321 236.92L107.269 236.608C106.993 235.684 106.177 234.892 104.833 234.892C103.189 234.892 102.025 236.188 102.025 238.024C102.025 239.944 103.129 241.168 104.845 241.168ZM108.749 233.896H109.829V232.6H108.749V233.896ZM108.785 241H109.805V235.06H108.785V241ZM111.821 241H112.841V238.48C112.841 237.604 112.877 235.792 114.509 235.792C115.301 235.792 115.817 236.248 115.817 237.364V241H116.837V237.124C116.837 235.804 116.237 234.892 114.761 234.892C113.477 234.892 112.901 235.804 112.817 236.068V235.06H111.821V241ZM119.73 243.34H122.502C123.51 243.34 124.362 242.812 124.362 241.708C124.362 240.712 123.618 240.064 122.478 240.064H119.886C119.466 240.064 119.382 239.848 119.382 239.656C119.382 239.44 119.598 239.212 119.922 239.068C120.246 239.26 120.618 239.296 121.026 239.296C122.346 239.296 123.246 238.42 123.342 237.076L123.366 236.752C123.414 236.056 123.618 235.924 124.158 235.924H124.614V235.06H123.978C123.402 235.06 123.126 235.456 123.006 235.912C122.754 235.492 122.13 234.892 121.026 234.892C119.658 234.892 118.662 235.864 118.662 237.1C118.662 237.844 118.986 238.384 119.322 238.684C118.938 238.96 118.446 239.356 118.446 239.944C118.446 240.412 118.638 240.688 118.974 240.892C118.614 241.096 118.182 241.54 118.182 242.14C118.182 242.836 118.59 243.34 119.73 243.34ZM121.026 238.456C120.222 238.456 119.694 237.916 119.694 237.1C119.694 236.284 120.222 235.732 121.026 235.732C121.83 235.732 122.358 236.284 122.358 237.1C122.358 237.916 121.83 238.456 121.026 238.456ZM120.078 242.428C119.454 242.428 119.118 242.296 119.118 241.804C119.118 241.396 119.382 241.132 119.586 241H122.394C122.862 241 123.33 241.096 123.33 241.708C123.33 242.32 122.862 242.428 122.394 242.428H120.078ZM125.48 237.832H128.792V236.752H125.48V237.832ZM129.58 241H130.696L131.452 239.872L132.208 238.732C132.376 238.996 132.508 239.2 132.952 239.872L133.696 241H134.92L132.856 237.976L134.8 235.06H133.672L133.024 236.08C132.568 236.788 132.424 237.004 132.256 237.244C132.112 237.004 131.98 236.788 131.536 236.08L130.888 235.06H129.7L131.62 237.964L129.58 241ZM138.164 241.168C139.664 241.168 140.528 240.46 140.528 239.344C140.528 237.988 139.124 237.628 138.524 237.508L137.84 237.376C136.988 237.208 136.796 236.968 136.796 236.572C136.796 236.14 137.18 235.732 138.008 235.732C139.016 235.732 139.352 236.368 139.496 236.764L140.42 236.428C140.18 235.648 139.484 234.892 138.008 234.892C136.844 234.892 135.836 235.612 135.836 236.68C135.836 237.808 136.7 238.18 137.684 238.372L138.368 238.504C139.232 238.672 139.508 238.984 139.508 239.428C139.508 239.992 139.028 240.292 138.164 240.292C137.228 240.292 136.748 239.848 136.568 239.14L135.584 239.464C135.848 240.604 136.952 241.168 138.164 241.168Z" fill="#F47C25"/>
<path d="M75 219.5L74.5 219.5L74.5 220.5L75 220.5L75 219.5ZM282.354 220.354C282.549 220.158 282.549 219.842 282.354 219.646L279.172 216.464C278.976 216.269 278.66 216.269 278.464 216.464C278.269 216.66 278.269 216.976 278.464 217.172L281.293 220L278.464 222.828C278.269 223.024 278.269 223.34 278.464 223.536C278.66 223.731 278.976 223.731 279.172 223.536L282.354 220.354ZM75 220.5L282 220.5L282 219.5L75 219.5L75 220.5Z" fill="#F47C25"/>
<path d="M269.5 61L269.5 60.5L268.5 60.5L268.5 61L269.5 61ZM268.646 134.354C268.842 134.549 269.158 134.549 269.354 134.354L272.536 131.172C272.731 130.976 272.731 130.66 272.536 130.464C272.34 130.269 272.024 130.269 271.828 130.464L269 133.293L266.172 130.464C265.976 130.269 265.66 130.269 265.464 130.464C265.269 130.66 265.269 130.976 265.464 131.172L268.646 134.354ZM268.5 61L268.5 134L269.5 134L269.5 61L268.5 61Z" fill="#F47C25"/>
<path d="M194.919 77.26H195.819V76.156C197.523 76.024 198.459 75.04 198.459 73.672C198.459 72.4 197.511 71.68 196.179 71.344L195.819 71.248V68.464C196.791 68.656 197.175 69.4 197.331 69.844L198.327 69.352C198.111 68.644 197.331 67.624 195.819 67.456V66.34H194.919V67.456C193.491 67.624 192.543 68.548 192.543 69.784C192.543 71.176 193.407 71.788 194.643 72.052L194.919 72.112V75.136C193.983 74.932 193.419 74.248 193.143 73.408L192.123 73.9C192.495 75.076 193.443 75.964 194.919 76.144V77.26ZM194.919 71.044C193.983 70.804 193.575 70.444 193.575 69.724C193.575 69.04 194.079 68.524 194.919 68.428V69.976V71.044ZM195.819 75.184V73.636V72.316C196.863 72.556 197.367 73.024 197.367 73.768C197.367 74.548 196.803 75.088 195.819 75.184ZM201.981 76.168C203.481 76.168 204.345 75.46 204.345 74.344C204.345 72.988 202.941 72.628 202.341 72.508L201.657 72.376C200.805 72.208 200.613 71.968 200.613 71.572C200.613 71.14 200.997 70.732 201.825 70.732C202.833 70.732 203.169 71.368 203.313 71.764L204.237 71.428C203.997 70.648 203.301 69.892 201.825 69.892C200.661 69.892 199.653 70.612 199.653 71.68C199.653 72.808 200.517 73.18 201.501 73.372L202.185 73.504C203.049 73.672 203.325 73.984 203.325 74.428C203.325 74.992 202.845 75.292 201.981 75.292C201.045 75.292 200.565 74.848 200.385 74.14L199.401 74.464C199.665 75.604 200.769 76.168 201.981 76.168ZM205.871 78.34H206.891V76.24V75.076C207.179 75.58 207.731 76.168 208.775 76.168C210.143 76.168 211.187 74.98 211.187 73.024C211.187 71.068 210.143 69.892 208.775 69.892C207.731 69.892 207.155 70.468 206.867 70.972V70.06H205.871V78.34ZM208.511 75.268C207.539 75.268 206.831 74.512 206.831 73.012C206.831 71.512 207.539 70.792 208.511 70.792C209.459 70.792 210.143 71.356 210.143 73.012C210.143 74.668 209.459 75.268 208.511 75.268ZM214.298 76.168C215.222 76.168 215.786 75.772 216.23 75.1C216.302 75.592 216.434 76 217.334 76H218.114V75.1H217.49C217.214 75.1 217.142 75.028 217.142 74.752V71.932C217.142 70.708 216.41 69.892 214.826 69.892C213.278 69.892 212.462 70.732 212.246 71.524L213.242 71.884C213.398 71.44 213.722 70.792 214.814 70.792C215.726 70.792 216.122 71.224 216.122 71.944V72.112C214.19 72.268 212.378 72.832 212.378 74.464C212.378 75.52 213.122 76.168 214.298 76.168ZM214.538 75.304C213.794 75.304 213.434 74.944 213.434 74.38C213.434 73.408 214.67 73.036 216.122 72.88V73.54C216.122 74.776 215.318 75.304 214.538 75.304ZM221.571 76.168C222.903 76.168 223.767 75.388 224.151 74.284L223.191 73.948C222.999 74.596 222.555 75.268 221.571 75.268C220.587 75.268 219.819 74.548 219.819 73.024C219.819 71.536 220.611 70.792 221.559 70.792C222.423 70.792 222.855 71.356 223.047 71.92L223.995 71.608C223.719 70.684 222.903 69.892 221.559 69.892C219.915 69.892 218.751 71.188 218.751 73.024C218.751 74.944 219.855 76.168 221.571 76.168ZM225.476 68.896H226.556V67.6H225.476V68.896ZM225.512 76H226.532V70.06H225.512V76ZM228.547 76H229.567V73.48C229.567 72.604 229.603 70.792 231.235 70.792C232.027 70.792 232.543 71.248 232.543 72.364V76H233.563V72.124C233.563 70.804 232.963 69.892 231.487 69.892C230.203 69.892 229.627 70.804 229.543 71.068V70.06H228.547V76ZM236.456 78.34H239.228C240.236 78.34 241.088 77.812 241.088 76.708C241.088 75.712 240.344 75.064 239.204 75.064H236.612C236.192 75.064 236.108 74.848 236.108 74.656C236.108 74.44 236.324 74.212 236.648 74.068C236.972 74.26 237.344 74.296 237.752 74.296C239.072 74.296 239.972 73.42 240.068 72.076L240.092 71.752C240.14 71.056 240.344 70.924 240.884 70.924H241.34V70.06H240.704C240.128 70.06 239.852 70.456 239.732 70.912C239.48 70.492 238.856 69.892 237.752 69.892C236.384 69.892 235.388 70.864 235.388 72.1C235.388 72.844 235.712 73.384 236.048 73.684C235.664 73.96 235.172 74.356 235.172 74.944C235.172 75.412 235.364 75.688 235.7 75.892C235.34 76.096 234.908 76.54 234.908 77.14C234.908 77.836 235.316 78.34 236.456 78.34ZM237.752 73.456C236.948 73.456 236.42 72.916 236.42 72.1C236.42 71.284 236.948 70.732 237.752 70.732C238.556 70.732 239.084 71.284 239.084 72.1C239.084 72.916 238.556 73.456 237.752 73.456ZM236.804 77.428C236.18 77.428 235.844 77.296 235.844 76.804C235.844 76.396 236.108 76.132 236.312 76H239.12C239.588 76 240.056 76.096 240.056 76.708C240.056 77.32 239.588 77.428 239.12 77.428H236.804ZM242.207 72.832H245.519V71.752H242.207V72.832ZM247.356 76H248.376V73.24C248.376 72.388 248.448 70.804 249.9 70.804C250.692 70.804 251.22 71.212 251.22 72.364V76H252.216V73.24C252.216 72.388 252.252 70.804 253.752 70.804C254.544 70.804 255.06 71.212 255.06 72.364V76H256.08V72.064C256.08 70.684 255.36 69.892 254.004 69.892C252.744 69.892 252.216 70.672 252.012 71.164C251.712 70.36 251.016 69.892 250.14 69.892C249.072 69.892 248.568 70.576 248.352 70.96V70.06H247.356V76Z" fill="#F47C25"/>
<path d="M487.5 58L487.5 57.5L486.5 57.5L486.5 58L487.5 58ZM486.646 144.354C486.842 144.549 487.158 144.549 487.354 144.354L490.536 141.172C490.731 140.976 490.731 140.66 490.536 140.464C490.34 140.269 490.024 140.269 489.828 140.464L487 143.293L484.172 140.464C483.976 140.269 483.66 140.269 483.464 140.464C483.269 140.66 483.269 140.976 483.464 141.172L486.646 144.354ZM486.5 58L486.5 144L487.5 144L487.5 58L486.5 58Z" fill="#F47C25"/>
<path d="M395.444 73H396.524V65.62H399.632V64.6H392.456V65.62H395.444V73ZM401.741 73.168C403.301 73.168 404.501 71.824 404.501 70.036C404.501 68.248 403.349 66.892 401.741 66.892C400.133 66.892 398.981 68.248 398.981 70.036C398.981 71.824 400.181 73.168 401.741 73.168ZM401.741 72.268C400.733 72.268 400.037 71.548 400.037 70.048C400.037 68.548 400.733 67.792 401.741 67.792C402.749 67.792 403.445 68.548 403.445 70.048C403.445 71.548 402.749 72.268 401.741 72.268ZM408.339 73.168C409.899 73.168 411.099 71.824 411.099 70.036C411.099 68.248 409.947 66.892 408.339 66.892C406.731 66.892 405.579 68.248 405.579 70.036C405.579 71.824 406.779 73.168 408.339 73.168ZM408.339 72.268C407.331 72.268 406.635 71.548 406.635 70.048C406.635 68.548 407.331 67.792 408.339 67.792C409.347 67.792 410.043 68.548 410.043 70.048C410.043 71.548 409.347 72.268 408.339 72.268ZM412.645 73H413.665V64.6H412.645V73ZM417.744 73H419.112V72.1H417.876C417.456 72.1 417.276 71.92 417.276 71.5V67.924H418.896V67.06H417.276V65.2H416.256V67.06H414.876V67.924H416.256V71.56C416.256 72.544 416.76 73 417.744 73ZM420.367 65.896H421.447V64.6H420.367V65.896ZM420.403 73H421.423V67.06H420.403V73ZM423.438 75.34H424.458V73.24V72.076C424.746 72.58 425.298 73.168 426.342 73.168C427.71 73.168 428.754 71.98 428.754 70.024C428.754 68.068 427.71 66.892 426.342 66.892C425.298 66.892 424.722 67.468 424.434 67.972V67.06H423.438V75.34ZM426.078 72.268C425.106 72.268 424.398 71.512 424.398 70.012C424.398 68.512 425.106 67.792 426.078 67.792C427.026 67.792 427.71 68.356 427.71 70.012C427.71 71.668 427.026 72.268 426.078 72.268ZM435.798 73.168C437.13 73.168 437.994 72.388 438.378 71.284L437.418 70.948C437.226 71.596 436.782 72.268 435.798 72.268C434.814 72.268 434.046 71.548 434.046 70.024C434.046 68.536 434.838 67.792 435.786 67.792C436.65 67.792 437.082 68.356 437.274 68.92L438.222 68.608C437.946 67.684 437.13 66.892 435.786 66.892C434.142 66.892 432.978 68.188 432.978 70.024C432.978 71.944 434.082 73.168 435.798 73.168ZM442.03 73.168C443.59 73.168 444.79 71.824 444.79 70.036C444.79 68.248 443.638 66.892 442.03 66.892C440.422 66.892 439.27 68.248 439.27 70.036C439.27 71.824 440.47 73.168 442.03 73.168ZM442.03 72.268C441.022 72.268 440.326 71.548 440.326 70.048C440.326 68.548 441.022 67.792 442.03 67.792C443.038 67.792 443.734 68.548 443.734 70.048C443.734 71.548 443.038 72.268 442.03 72.268ZM446.336 73H447.356V70.48C447.356 69.604 447.392 67.792 449.024 67.792C449.816 67.792 450.332 68.248 450.332 69.364V73H451.352V69.124C451.352 67.804 450.752 66.892 449.276 66.892C447.992 66.892 447.416 67.804 447.332 68.068V67.06H446.336V73ZM455.349 73H456.717V72.1H455.481C455.061 72.1 454.881 71.92 454.881 71.5V67.924H456.501V67.06H454.881V65.2H453.861V67.06H452.481V67.924H453.861V71.56C453.861 72.544 454.365 73 455.349 73ZM460.193 73.168C461.309 73.168 462.305 72.664 462.749 71.452L461.813 71.128C461.657 71.512 461.237 72.28 460.229 72.28C459.401 72.28 458.573 71.8 458.513 70.3H462.701C462.929 68.356 461.861 66.892 460.133 66.892C458.621 66.892 457.505 68.104 457.505 70.06C457.505 72.076 458.573 73.168 460.193 73.168ZM458.537 69.448C458.621 68.368 459.353 67.732 460.133 67.732C460.949 67.732 461.657 68.32 461.657 69.448H458.537ZM464.336 73H465.356V70.48C465.356 69.604 465.392 67.792 467.024 67.792C467.816 67.792 468.332 68.248 468.332 69.364V73H469.352V69.124C469.352 67.804 468.752 66.892 467.276 66.892C465.992 66.892 465.416 67.804 465.332 68.068V67.06H464.336V73ZM473.349 73H474.717V72.1H473.481C473.061 72.1 472.881 71.92 472.881 71.5V67.924H474.501V67.06H472.881V65.2H471.861V67.06H470.481V67.924H471.861V71.56C471.861 72.544 472.365 73 473.349 73Z" fill="#F47C25"/>
</svg>
