<svg width="958" height="346" viewBox="0 0 958 346" fill="none" xmlns="http://www.w3.org/2000/svg">
<rect x="242" y="113" width="451" height="120" rx="12" fill="#1D1D21"/>
<path d="M313.273 192.84C325.649 192.84 333.657 184.384 333.657 172.456C333.657 160.584 325.537 151.96 313.273 151.96C300.953 151.96 292.889 160.584 292.889 172.456C292.889 184.384 300.897 192.84 313.273 192.84ZM313.273 186.624C305.265 186.624 300.505 180.576 300.505 172.456C300.505 164.224 305.265 158.176 313.273 158.176C321.281 158.176 325.985 164.224 325.985 172.456C325.985 180.576 321.281 186.624 313.273 186.624ZM340.339 192H347.171V180.24C347.171 173.408 349.691 170.552 355.627 170.552C356.635 170.552 357.643 170.608 358.651 170.776V163.776C358.147 163.664 357.587 163.608 356.803 163.608C350.587 163.608 347.955 168.032 347.059 170.272V164.112H340.339V192ZM373.221 192.84C378.037 192.84 381.061 190.152 382.349 188.08V192H389.013V152.8H382.181V162.992V168.032C380.893 165.96 377.981 163.272 373.221 163.272C366.165 163.272 361.405 169.096 361.405 178.056C361.405 187.016 366.165 192.84 373.221 192.84ZM375.461 187.464C371.485 187.464 368.517 185.056 368.517 178.056C368.517 171.112 371.485 168.648 375.461 168.648C379.605 168.648 382.517 171.784 382.517 178.056C382.517 184.384 379.605 187.464 375.461 187.464ZM409.028 192.84C416.364 192.84 420.284 189.032 422.076 184.72L415.916 182.424C414.908 184.776 413.06 187.464 409.084 187.464C405.5 187.464 402.476 185.392 402.196 179.736H421.908C422.804 170.496 417.82 163.272 408.916 163.272C401.188 163.272 395.42 169.152 395.42 178.056C395.42 187.352 400.796 192.84 409.028 192.84ZM402.42 174.696C402.924 170.664 405.556 168.368 408.916 168.368C412.444 168.368 414.908 170.608 415.132 174.696H402.42ZM428.496 192H435.328V180.24C435.328 173.408 437.848 170.552 443.784 170.552C444.792 170.552 445.8 170.608 446.808 170.776V163.776C446.304 163.664 445.744 163.608 444.96 163.608C438.744 163.608 436.112 168.032 435.216 170.272V164.112H428.496V192ZM474.12 192.84C478.936 192.84 481.96 190.152 483.248 188.08V192H489.912V152.8H483.08V162.992V168.032C481.792 165.96 478.88 163.272 474.12 163.272C467.064 163.272 462.304 169.096 462.304 178.056C462.304 187.016 467.064 192.84 474.12 192.84ZM476.36 187.464C472.384 187.464 469.416 185.056 469.416 178.056C469.416 171.112 472.384 168.648 476.36 168.648C480.504 168.648 483.416 171.784 483.416 178.056C483.416 184.384 480.504 187.464 476.36 187.464ZM510.318 192.84C518.438 192.84 524.374 186.904 524.374 178.056C524.374 169.32 518.494 163.272 510.318 163.272C502.142 163.272 496.262 169.32 496.262 178.056C496.262 186.568 502.198 192.84 510.318 192.84ZM510.318 187.296C506.174 187.296 503.318 184.384 503.318 178.168C503.318 171.952 506.174 168.816 510.318 168.816C514.462 168.816 517.262 171.952 517.262 178.168C517.262 184.384 514.462 187.296 510.318 187.296ZM530.707 192H537.539V179.288C537.539 175.872 537.651 168.984 543.923 168.984C547.003 168.984 548.963 170.776 548.963 174.976V192H555.795V173.464C555.795 167.36 553.051 163.272 546.387 163.272C540.954 163.272 538.267 166.912 537.371 168.536V164.112H530.707V192ZM572.304 192.84C577.792 192.84 580.368 189.256 581.488 187.408V192H588.264V164.112H581.432V177.216C581.432 181.696 580.424 187.128 575.104 187.128C572.136 187.128 570.288 185.392 570.288 181.08V164.112H563.456V182.704C563.456 188.808 566.536 192.84 572.304 192.84ZM606.406 192H614.694V186.4H608.758C606.966 186.4 606.182 185.616 606.182 183.824V169.432H613.574V164.112H606.182V155.32H599.35V164.112H593.302V169.432H599.35V184.888C599.35 189.312 601.87 192 606.406 192ZM630.425 192.784C638.209 192.784 642.745 189.256 642.745 183.824C642.745 178.112 637.593 175.984 633.169 175.144L629.585 174.416C626.225 173.8 625.329 172.904 625.329 171.336C625.329 169.656 626.841 168.2 629.921 168.2C633.393 168.2 635.241 170.328 636.025 172.456L641.793 169.992C640.617 166.856 637.145 163.272 630.145 163.272C623.425 163.272 618.833 166.744 618.833 171.952C618.833 177.384 622.417 179.232 627.849 180.296L631.545 181.024C634.849 181.696 635.689 182.928 635.689 184.496C635.689 186.456 633.953 187.744 630.705 187.744C625.665 187.744 624.321 184.328 623.985 182.76L617.657 184.776C618.889 189.872 624.153 192.784 630.425 192.784Z" fill="white"/>
<path d="M712.733 169.8C714.867 171.4 714.867 174.6 712.733 176.2L693 191L693 155L712.733 169.8Z" fill="#1D1D21"/>
<path d="M792 216C792.552 216 793 215.552 793 215C793 214.448 792.552 214 792 214L792 216ZM662.293 214.293C661.902 214.683 661.902 215.317 662.293 215.707L668.657 222.071C669.047 222.462 669.681 222.462 670.071 222.071C670.462 221.681 670.462 221.047 670.071 220.657L664.414 215L670.071 209.343C670.462 208.953 670.462 208.319 670.071 207.929C669.681 207.538 669.047 207.538 668.657 207.929L662.293 214.293ZM792 214L663 214L663 216L792 216L792 214Z" fill="#DA372C"/>
<path d="M802.256 221.68H803.456V220.208C805.728 220.032 806.976 218.72 806.976 216.896C806.976 215.2 805.712 214.24 803.936 213.792L803.456 213.664V209.952C804.752 210.208 805.264 211.2 805.472 211.792L806.8 211.136C806.512 210.192 805.472 208.832 803.456 208.608V207.12H802.256V208.608C800.352 208.832 799.088 210.064 799.088 211.712C799.088 213.568 800.24 214.384 801.888 214.736L802.256 214.816V218.848C801.008 218.576 800.256 217.664 799.888 216.544L798.528 217.2C799.024 218.768 800.288 219.952 802.256 220.192V221.68ZM802.256 213.392C801.008 213.072 800.464 212.592 800.464 211.632C800.464 210.72 801.136 210.032 802.256 209.904V211.968V213.392ZM803.456 218.912V216.848V215.088C804.848 215.408 805.52 216.032 805.52 217.024C805.52 218.064 804.768 218.784 803.456 218.912ZM811.672 220.224C813.672 220.224 814.824 219.28 814.824 217.792C814.824 215.984 812.952 215.504 812.152 215.344L811.24 215.168C810.104 214.944 809.848 214.624 809.848 214.096C809.848 213.52 810.36 212.976 811.464 212.976C812.808 212.976 813.256 213.824 813.448 214.352L814.68 213.904C814.36 212.864 813.432 211.856 811.464 211.856C809.912 211.856 808.568 212.816 808.568 214.24C808.568 215.744 809.72 216.24 811.032 216.496L811.944 216.672C813.096 216.896 813.464 217.312 813.464 217.904C813.464 218.656 812.824 219.056 811.672 219.056C810.424 219.056 809.784 218.464 809.544 217.52L808.232 217.952C808.584 219.472 810.056 220.224 811.672 220.224ZM816.86 223.12H818.22V220.32V218.768C818.604 219.44 819.34 220.224 820.732 220.224C822.556 220.224 823.948 218.64 823.948 216.032C823.948 213.424 822.556 211.856 820.732 211.856C819.34 211.856 818.572 212.624 818.188 213.296V212.08H816.86V223.12ZM820.38 219.024C819.084 219.024 818.14 218.016 818.14 216.016C818.14 214.016 819.084 213.056 820.38 213.056C821.644 213.056 822.556 213.808 822.556 216.016C822.556 218.224 821.644 219.024 820.38 219.024ZM828.671 220.224C830.063 220.224 830.831 219.456 831.215 218.784V220H832.543V212.08H831.183V213.312C830.799 212.64 830.063 211.856 828.671 211.856C826.847 211.856 825.455 213.44 825.455 216.048C825.455 218.656 826.847 220.224 828.671 220.224ZM829.023 219.024C827.759 219.024 826.847 218.272 826.847 216.064C826.847 213.856 827.759 213.056 829.023 213.056C830.319 213.056 831.263 214.064 831.263 216.064C831.263 218.064 830.319 219.024 829.023 219.024ZM838.387 220.224C840.163 220.224 841.315 219.184 841.827 217.712L840.547 217.264C840.291 218.128 839.699 219.024 838.387 219.024C837.075 219.024 836.051 218.064 836.051 216.032C836.051 214.048 837.107 213.056 838.371 213.056C839.523 213.056 840.099 213.808 840.355 214.56L841.619 214.144C841.251 212.912 840.163 211.856 838.371 211.856C836.179 211.856 834.627 213.584 834.627 216.032C834.627 218.592 836.099 220.224 838.387 220.224ZM843.593 210.528H845.033V208.8H843.593V210.528ZM843.641 220H845.001V212.08H843.641V220ZM847.688 220H849.048V216.64C849.048 215.472 849.096 213.056 851.272 213.056C852.328 213.056 853.016 213.664 853.016 215.152V220H854.376V214.832C854.376 213.072 853.576 211.856 851.608 211.856C849.896 211.856 849.128 213.072 849.016 213.424V212.08H847.688V220ZM858.233 223.12H861.929C863.273 223.12 864.409 222.416 864.409 220.944C864.409 219.616 863.417 218.752 861.897 218.752H858.441C857.881 218.752 857.769 218.464 857.769 218.208C857.769 217.92 858.057 217.616 858.489 217.424C858.921 217.68 859.417 217.728 859.961 217.728C861.721 217.728 862.921 216.56 863.049 214.768L863.081 214.336C863.145 213.408 863.417 213.232 864.137 213.232H864.745V212.08H863.897C863.129 212.08 862.761 212.608 862.601 213.216C862.265 212.656 861.433 211.856 859.961 211.856C858.137 211.856 856.809 213.152 856.809 214.8C856.809 215.792 857.241 216.512 857.689 216.912C857.177 217.28 856.521 217.808 856.521 218.592C856.521 219.216 856.777 219.584 857.225 219.856C856.745 220.128 856.169 220.72 856.169 221.52C856.169 222.448 856.713 223.12 858.233 223.12ZM859.961 216.608C858.889 216.608 858.185 215.888 858.185 214.8C858.185 213.712 858.889 212.976 859.961 212.976C861.033 212.976 861.737 213.712 861.737 214.8C861.737 215.888 861.033 216.608 859.961 216.608ZM858.697 221.904C857.865 221.904 857.417 221.728 857.417 221.072C857.417 220.528 857.769 220.176 858.041 220H861.785C862.409 220 863.033 220.128 863.033 220.944C863.033 221.76 862.409 221.904 861.785 221.904H858.697ZM865.901 215.776H870.317V214.336H865.901V215.776ZM871.367 220H872.855L873.863 218.496L874.871 216.976C875.095 217.328 875.271 217.6 875.863 218.496L876.855 220H878.487L875.735 215.968L878.327 212.08H876.823L875.959 213.44C875.351 214.384 875.159 214.672 874.935 214.992C874.743 214.672 874.567 214.384 873.975 213.44L873.111 212.08H871.527L874.087 215.952L871.367 220ZM882.813 220.224C884.813 220.224 885.965 219.28 885.965 217.792C885.965 215.984 884.093 215.504 883.293 215.344L882.381 215.168C881.245 214.944 880.989 214.624 880.989 214.096C880.989 213.52 881.501 212.976 882.605 212.976C883.949 212.976 884.397 213.824 884.589 214.352L885.821 213.904C885.501 212.864 884.573 211.856 882.605 211.856C881.053 211.856 879.709 212.816 879.709 214.24C879.709 215.744 880.861 216.24 882.173 216.496L883.085 216.672C884.237 216.896 884.605 217.312 884.605 217.904C884.605 218.656 883.965 219.056 882.813 219.056C881.565 219.056 880.925 218.464 880.685 217.52L879.373 217.952C879.725 219.472 881.197 220.224 882.813 220.224Z" fill="#6E6E78"/>
<path d="M792 174C792.552 174 793 173.552 793 173C793 172.448 792.552 172 792 172L792 174ZM720.293 172.293C719.902 172.683 719.902 173.317 720.293 173.707L726.657 180.071C727.047 180.462 727.681 180.462 728.071 180.071C728.462 179.681 728.462 179.047 728.071 178.657L722.414 173L728.071 167.343C728.462 166.953 728.462 166.319 728.071 165.929C727.681 165.538 727.047 165.538 726.657 165.929L720.293 172.293ZM792 172L721 172L721 174L792 174L792 172Z" fill="#DA372C"/>
<path d="M802.144 178H803.584V168.16H807.728V166.8H798.16V168.16H802.144V178ZM810.541 178.224C812.621 178.224 814.221 176.432 814.221 174.048C814.221 171.664 812.685 169.856 810.541 169.856C808.397 169.856 806.861 171.664 806.861 174.048C806.861 176.432 808.461 178.224 810.541 178.224ZM810.541 177.024C809.197 177.024 808.269 176.064 808.269 174.064C808.269 172.064 809.197 171.056 810.541 171.056C811.885 171.056 812.813 172.064 812.813 174.064C812.813 176.064 811.885 177.024 810.541 177.024ZM819.338 178.224C821.418 178.224 823.017 176.432 823.017 174.048C823.017 171.664 821.482 169.856 819.338 169.856C817.194 169.856 815.658 171.664 815.658 174.048C815.658 176.432 817.258 178.224 819.338 178.224ZM819.338 177.024C817.994 177.024 817.066 176.064 817.066 174.064C817.066 172.064 817.994 171.056 819.338 171.056C820.682 171.056 821.61 172.064 821.61 174.064C821.61 176.064 820.682 177.024 819.338 177.024ZM825.078 178H826.438V166.8H825.078V178ZM831.877 178H833.701V176.8H832.053C831.493 176.8 831.253 176.56 831.253 176V171.232H833.413V170.08H831.253V167.6H829.893V170.08H828.053V171.232H829.893V176.08C829.893 177.392 830.565 178 831.877 178ZM835.374 168.528H836.814V166.8H835.374V168.528ZM835.422 178H836.782V170.08H835.422V178ZM839.469 181.12H840.829V178.32V176.768C841.213 177.44 841.949 178.224 843.341 178.224C845.165 178.224 846.557 176.64 846.557 174.032C846.557 171.424 845.165 169.856 843.341 169.856C841.949 169.856 841.181 170.624 840.797 171.296V170.08H839.469V181.12ZM842.989 177.024C841.693 177.024 840.749 176.016 840.749 174.016C840.749 172.016 841.693 171.056 842.989 171.056C844.253 171.056 845.165 171.808 845.165 174.016C845.165 176.224 844.253 177.024 842.989 177.024ZM852.797 178H854.157V174.64C854.157 173.472 854.205 171.056 856.381 171.056C857.437 171.056 858.125 171.664 858.125 173.152V178H859.485V172.832C859.485 171.072 858.685 169.856 856.717 169.856C855.005 169.856 854.237 171.072 854.125 171.424V170.08H852.797V178ZM864.591 178.224C866.239 178.224 866.991 177.056 867.231 176.624V178H868.559V170.08H867.199V173.44C867.199 174.656 867.167 177.024 865.023 177.024C863.983 177.024 863.311 176.416 863.311 174.928V170.08H861.951V175.248C861.951 177.008 862.735 178.224 864.591 178.224ZM875.122 178.224C876.946 178.224 878.338 176.64 878.338 174.032C878.338 171.424 876.946 169.856 875.122 169.856C873.73 169.856 872.994 170.624 872.61 171.296V169.76V166.8H871.25V178H872.578V176.768C872.962 177.44 873.73 178.224 875.122 178.224ZM874.77 177.024C873.474 177.024 872.53 176.016 872.53 174.016C872.53 172.016 873.474 171.056 874.77 171.056C876.034 171.056 876.946 171.808 876.946 174.016C876.946 176.224 876.034 177.024 874.77 177.024Z" fill="#6E6E78"/>
<path d="M182 172C181.448 172 181 172.448 181 173C181 173.552 181.448 174 182 174L182 172ZM296.707 173.707C297.098 173.317 297.098 172.683 296.707 172.293L290.343 165.929C289.953 165.538 289.319 165.538 288.929 165.929C288.538 166.319 288.538 166.953 288.929 167.343L294.586 173L288.929 178.657C288.538 179.047 288.538 179.681 288.929 180.071C289.319 180.462 289.953 180.462 290.343 180.071L296.707 173.707ZM182 174L296 174L296 172L182 172L182 174Z" fill="#DA372C"/>
<path d="M116.162 178.224C118.93 178.224 120.546 176.608 121.042 174.816L119.586 174.272C119.17 175.616 118.37 176.864 116.162 176.864C113.842 176.864 112.29 174.976 112.29 172.272C112.29 169.568 113.858 167.936 116.162 167.936C118.418 167.936 119.25 169.472 119.538 170.384L121.026 169.872C120.578 168.384 119.058 166.576 116.162 166.576C112.93 166.576 110.738 169.04 110.738 172.288C110.738 175.536 112.658 178.224 116.162 178.224ZM126.041 178.224C128.121 178.224 129.721 176.432 129.721 174.048C129.721 171.664 128.185 169.856 126.041 169.856C123.897 169.856 122.361 171.664 122.361 174.048C122.361 176.432 123.961 178.224 126.041 178.224ZM126.041 177.024C124.697 177.024 123.769 176.064 123.769 174.064C123.769 172.064 124.697 171.056 126.041 171.056C127.385 171.056 128.313 172.064 128.313 174.064C128.313 176.064 127.385 177.024 126.041 177.024ZM131.782 178H133.142V174.64C133.142 173.472 133.19 171.056 135.366 171.056C136.422 171.056 137.11 171.664 137.11 173.152V178H138.47V172.832C138.47 171.072 137.67 169.856 135.702 169.856C133.99 169.856 133.222 171.072 133.11 171.424V170.08H131.782V178ZM143.799 178H145.623V176.8H143.975C143.415 176.8 143.175 176.56 143.175 176V171.232H145.335V170.08H143.175V167.6H141.815V170.08H139.975V171.232H141.815V176.08C141.815 177.392 142.487 178 143.799 178ZM150.258 178.224C151.746 178.224 153.074 177.552 153.666 175.936L152.418 175.504C152.21 176.016 151.65 177.04 150.306 177.04C149.202 177.04 148.098 176.4 148.018 174.4H153.602C153.906 171.808 152.482 169.856 150.178 169.856C148.162 169.856 146.674 171.472 146.674 174.08C146.674 176.768 148.098 178.224 150.258 178.224ZM148.05 173.264C148.162 171.824 149.138 170.976 150.178 170.976C151.266 170.976 152.21 171.76 152.21 173.264H148.05ZM155.782 178H157.142V174.64C157.142 173.472 157.19 171.056 159.366 171.056C160.422 171.056 161.11 171.664 161.11 173.152V178H162.47V172.832C162.47 171.072 161.67 169.856 159.702 169.856C157.99 169.856 157.222 171.072 157.11 171.424V170.08H155.782V178ZM167.799 178H169.623V176.8H167.975C167.415 176.8 167.175 176.56 167.175 176V171.232H169.335V170.08H167.175V167.6H165.815V170.08H163.975V171.232H165.815V176.08C165.815 177.392 166.487 178 167.799 178Z" fill="#6E6E78"/>
<path d="M496.644 64H498.084V54.16H502.228V52.8H492.66V54.16H496.644V64ZM505.041 64.224C507.121 64.224 508.721 62.432 508.721 60.048C508.721 57.664 507.185 55.856 505.041 55.856C502.897 55.856 501.361 57.664 501.361 60.048C501.361 62.432 502.961 64.224 505.041 64.224ZM505.041 63.024C503.697 63.024 502.769 62.064 502.769 60.064C502.769 58.064 503.697 57.056 505.041 57.056C506.385 57.056 507.313 58.064 507.313 60.064C507.313 62.064 506.385 63.024 505.041 63.024ZM513.838 64.224C515.918 64.224 517.517 62.432 517.517 60.048C517.517 57.664 515.982 55.856 513.838 55.856C511.694 55.856 510.158 57.664 510.158 60.048C510.158 62.432 511.758 64.224 513.838 64.224ZM513.838 63.024C512.494 63.024 511.566 62.064 511.566 60.064C511.566 58.064 512.494 57.056 513.838 57.056C515.182 57.056 516.11 58.064 516.11 60.064C516.11 62.064 515.182 63.024 513.838 63.024ZM519.578 64H520.938V52.8H519.578V64ZM526.377 64H528.201V62.8H526.553C525.993 62.8 525.753 62.56 525.753 62V57.232H527.913V56.08H525.753V53.6H524.393V56.08H522.553V57.232H524.393V62.08C524.393 63.392 525.065 64 526.377 64ZM529.874 54.528H531.314V52.8H529.874V54.528ZM529.922 64H531.282V56.08H529.922V64ZM533.969 67.12H535.329V64.32V62.768C535.713 63.44 536.449 64.224 537.841 64.224C539.665 64.224 541.057 62.64 541.057 60.032C541.057 57.424 539.665 55.856 537.841 55.856C536.449 55.856 535.681 56.624 535.297 57.296V56.08H533.969V67.12ZM537.489 63.024C536.193 63.024 535.249 62.016 535.249 60.016C535.249 58.016 536.193 57.056 537.489 57.056C538.753 57.056 539.665 57.808 539.665 60.016C539.665 62.224 538.753 63.024 537.489 63.024ZM550.449 64.224C552.225 64.224 553.377 63.184 553.889 61.712L552.609 61.264C552.353 62.128 551.761 63.024 550.449 63.024C549.137 63.024 548.113 62.064 548.113 60.032C548.113 58.048 549.169 57.056 550.433 57.056C551.585 57.056 552.161 57.808 552.417 58.56L553.681 58.144C553.313 56.912 552.225 55.856 550.433 55.856C548.241 55.856 546.689 57.584 546.689 60.032C546.689 62.592 548.161 64.224 550.449 64.224ZM558.759 64.224C560.839 64.224 562.439 62.432 562.439 60.048C562.439 57.664 560.903 55.856 558.759 55.856C556.615 55.856 555.079 57.664 555.079 60.048C555.079 62.432 556.679 64.224 558.759 64.224ZM558.759 63.024C557.415 63.024 556.487 62.064 556.487 60.064C556.487 58.064 557.415 57.056 558.759 57.056C560.103 57.056 561.031 58.064 561.031 60.064C561.031 62.064 560.103 63.024 558.759 63.024ZM564.5 64H565.86V60.64C565.86 59.472 565.908 57.056 568.084 57.056C569.14 57.056 569.828 57.664 569.828 59.152V64H571.188V58.832C571.188 57.072 570.388 55.856 568.42 55.856C566.708 55.856 565.94 57.072 565.828 57.424V56.08H564.5V64ZM576.518 64H578.342V62.8H576.694C576.134 62.8 575.894 62.56 575.894 62V57.232H578.054V56.08H575.894V53.6H574.534V56.08H572.694V57.232H574.534V62.08C574.534 63.392 575.206 64 576.518 64ZM582.609 64.224C584.001 64.224 584.769 63.456 585.153 62.784V64H586.481V56.08H585.121V57.312C584.737 56.64 584.001 55.856 582.609 55.856C580.785 55.856 579.393 57.44 579.393 60.048C579.393 62.656 580.785 64.224 582.609 64.224ZM582.961 63.024C581.697 63.024 580.785 62.272 580.785 60.064C580.785 57.856 581.697 57.056 582.961 57.056C584.257 57.056 585.201 58.064 585.201 60.064C585.201 62.064 584.257 63.024 582.961 63.024ZM589.124 54.528H590.564V52.8H589.124V54.528ZM589.172 64H590.532V56.08H589.172V64ZM593.219 64H594.579V60.64C594.579 59.472 594.627 57.056 596.803 57.056C597.859 57.056 598.547 57.664 598.547 59.152V64H599.907V58.832C599.907 57.072 599.107 55.856 597.139 55.856C595.427 55.856 594.659 57.072 594.547 57.424V56.08H593.219V64ZM605.477 64.224C606.965 64.224 608.293 63.552 608.885 61.936L607.637 61.504C607.429 62.016 606.869 63.04 605.525 63.04C604.421 63.04 603.317 62.4 603.237 60.4H608.821C609.125 57.808 607.701 55.856 605.397 55.856C603.381 55.856 601.893 57.472 601.893 60.08C601.893 62.768 603.317 64.224 605.477 64.224ZM603.269 59.264C603.381 57.824 604.357 56.976 605.397 56.976C606.485 56.976 607.429 57.76 607.429 59.264H603.269ZM611 64H612.36V60.368C612.36 58.512 613.096 57.376 614.888 57.376C615.208 57.376 615.48 57.408 615.736 57.456V56.064C615.544 56.016 615.304 55.968 614.92 55.968C613.416 55.968 612.6 57.136 612.344 57.728V56.08H611V64Z" fill="#6E6E78"/>
<path d="M629 53C629 52.4477 628.552 52 628 52C627.448 52 627 52.4477 627 53L629 53ZM627.293 129.707C627.683 130.098 628.317 130.098 628.707 129.707L635.071 123.343C635.462 122.953 635.462 122.319 635.071 121.929C634.681 121.538 634.047 121.538 633.657 121.929L628 127.586L622.343 121.929C621.953 121.538 621.319 121.538 620.929 121.929C620.538 122.319 620.538 122.953 620.929 123.343L627.293 129.707ZM627 53L627 129L629 129L629 53L627 53Z" fill="#DA372C"/>
<path d="M265 53C265 52.4477 264.552 52 264 52C263.448 52 263 52.4477 263 53L265 53ZM263.293 128.707C263.683 129.098 264.317 129.098 264.707 128.707L271.071 122.343C271.462 121.953 271.462 121.319 271.071 120.929C270.681 120.538 270.047 120.538 269.657 120.929L264 126.586L258.343 120.929C257.953 120.538 257.319 120.538 256.929 120.929C256.538 121.319 256.538 121.953 256.929 122.343L263.293 128.707ZM263 53L263 128L265 128L265 53L263 53Z" fill="#DA372C"/>
<path d="M168.631 65.68H169.831V64.208C172.103 64.032 173.351 62.72 173.351 60.896C173.351 59.2 172.087 58.24 170.311 57.792L169.831 57.664V53.952C171.127 54.208 171.639 55.2 171.847 55.792L173.175 55.136C172.887 54.192 171.847 52.832 169.831 52.608V51.12H168.631V52.608C166.727 52.832 165.463 54.064 165.463 55.712C165.463 57.568 166.615 58.384 168.263 58.736L168.631 58.816V62.848C167.383 62.576 166.631 61.664 166.263 60.544L164.903 61.2C165.399 62.768 166.663 63.952 168.631 64.192V65.68ZM168.631 57.392C167.383 57.072 166.839 56.592 166.839 55.632C166.839 54.72 167.511 54.032 168.631 53.904V55.968V57.392ZM169.831 62.912V60.848V59.088C171.223 59.408 171.895 60.032 171.895 61.024C171.895 62.064 171.143 62.784 169.831 62.912ZM178.047 64.224C180.047 64.224 181.199 63.28 181.199 61.792C181.199 59.984 179.327 59.504 178.527 59.344L177.615 59.168C176.479 58.944 176.223 58.624 176.223 58.096C176.223 57.52 176.735 56.976 177.839 56.976C179.183 56.976 179.631 57.824 179.823 58.352L181.055 57.904C180.735 56.864 179.807 55.856 177.839 55.856C176.287 55.856 174.943 56.816 174.943 58.24C174.943 59.744 176.095 60.24 177.407 60.496L178.319 60.672C179.471 60.896 179.839 61.312 179.839 61.904C179.839 62.656 179.199 63.056 178.047 63.056C176.799 63.056 176.159 62.464 175.919 61.52L174.607 61.952C174.959 63.472 176.431 64.224 178.047 64.224ZM183.235 67.12H184.595V64.32V62.768C184.979 63.44 185.715 64.224 187.107 64.224C188.931 64.224 190.323 62.64 190.323 60.032C190.323 57.424 188.931 55.856 187.107 55.856C185.715 55.856 184.947 56.624 184.563 57.296V56.08H183.235V67.12ZM186.755 63.024C185.459 63.024 184.515 62.016 184.515 60.016C184.515 58.016 185.459 57.056 186.755 57.056C188.019 57.056 188.931 57.808 188.931 60.016C188.931 62.224 188.019 63.024 186.755 63.024ZM195.046 64.224C196.438 64.224 197.206 63.456 197.59 62.784V64H198.918V56.08H197.558V57.312C197.174 56.64 196.438 55.856 195.046 55.856C193.222 55.856 191.83 57.44 191.83 60.048C191.83 62.656 193.222 64.224 195.046 64.224ZM195.398 63.024C194.134 63.024 193.222 62.272 193.222 60.064C193.222 57.856 194.134 57.056 195.398 57.056C196.694 57.056 197.638 58.064 197.638 60.064C197.638 62.064 196.694 63.024 195.398 63.024ZM204.762 64.224C206.538 64.224 207.69 63.184 208.202 61.712L206.922 61.264C206.666 62.128 206.074 63.024 204.762 63.024C203.45 63.024 202.426 62.064 202.426 60.032C202.426 58.048 203.482 57.056 204.746 57.056C205.898 57.056 206.474 57.808 206.73 58.56L207.994 58.144C207.626 56.912 206.538 55.856 204.746 55.856C202.554 55.856 201.002 57.584 201.002 60.032C201.002 62.592 202.474 64.224 204.762 64.224ZM209.968 54.528H211.408V52.8H209.968V54.528ZM210.016 64H211.376V56.08H210.016V64ZM214.063 64H215.423V60.64C215.423 59.472 215.471 57.056 217.647 57.056C218.703 57.056 219.391 57.664 219.391 59.152V64H220.751V58.832C220.751 57.072 219.951 55.856 217.983 55.856C216.271 55.856 215.503 57.072 215.391 57.424V56.08H214.063V64ZM224.608 67.12H228.304C229.648 67.12 230.784 66.416 230.784 64.944C230.784 63.616 229.792 62.752 228.272 62.752H224.816C224.256 62.752 224.144 62.464 224.144 62.208C224.144 61.92 224.432 61.616 224.864 61.424C225.296 61.68 225.792 61.728 226.336 61.728C228.096 61.728 229.296 60.56 229.424 58.768L229.456 58.336C229.52 57.408 229.792 57.232 230.512 57.232H231.12V56.08H230.272C229.504 56.08 229.136 56.608 228.976 57.216C228.64 56.656 227.808 55.856 226.336 55.856C224.512 55.856 223.184 57.152 223.184 58.8C223.184 59.792 223.616 60.512 224.064 60.912C223.552 61.28 222.896 61.808 222.896 62.592C222.896 63.216 223.152 63.584 223.6 63.856C223.12 64.128 222.544 64.72 222.544 65.52C222.544 66.448 223.088 67.12 224.608 67.12ZM226.336 60.608C225.264 60.608 224.56 59.888 224.56 58.8C224.56 57.712 225.264 56.976 226.336 56.976C227.408 56.976 228.112 57.712 228.112 58.8C228.112 59.888 227.408 60.608 226.336 60.608ZM225.072 65.904C224.24 65.904 223.792 65.728 223.792 65.072C223.792 64.528 224.144 64.176 224.416 64H228.16C228.784 64 229.408 64.128 229.408 64.944C229.408 65.76 228.784 65.904 228.16 65.904H225.072ZM232.276 59.776H236.692V58.336H232.276V59.776ZM239.141 64H240.501V60.32C240.501 59.184 240.597 57.072 242.533 57.072C243.589 57.072 244.293 57.616 244.293 59.152V64H245.621V60.32C245.621 59.184 245.669 57.072 247.669 57.072C248.725 57.072 249.413 57.616 249.413 59.152V64H250.773V58.752C250.773 56.912 249.813 55.856 248.005 55.856C246.325 55.856 245.621 56.896 245.349 57.552C244.949 56.48 244.021 55.856 242.853 55.856C241.429 55.856 240.757 56.768 240.469 57.28V56.08H239.141V64Z" fill="#6E6E78"/>
</svg>
