<svg viewBox="0 0 958 346" fill="none" xmlns="http://www.w3.org/2000/svg"><rect x="254" y="113" width="414" height="120" rx="12" fill="#1D1D21"/><path d="M266 113C259.373 113 254 118.373 254 125V221C254 227.627 259.373 233 266 233H656C662.627 233 668 227.627 668 221V191L687.733 176.2C689.867 174.6 689.867 171.4 687.733 169.8L668 155V125C668 118.373 662.627 113 656 113H266Z" fill="#1D1D21"/><path d="M313.641 192H322.321L328.313 170.608C330.105 164.168 330.665 162.152 331.057 160.528C331.561 162.208 332.121 164.112 333.857 170.608L339.513 192H348.081L358.553 152.8H350.881L346.681 171C344.609 180.128 344.273 181.584 343.825 183.432C343.377 181.64 342.873 179.792 341.417 174.248L335.761 152.8H326.465L320.865 173.352C319.073 180.016 318.625 181.64 318.177 183.432L315.433 171.112L311.401 152.8H303.561L313.641 192ZM369.528 192.84C374.232 192.84 377.2 190.488 378.88 187.856C379.216 190.32 380.448 192 383.976 192H389.24V186.624H386.608C385.152 186.624 384.928 186.288 384.928 184.944V173.688C384.928 166.856 380.728 163.272 373.056 163.272C365.216 163.272 360.848 167.36 360.176 171.504L366.504 173.128C367.176 170.664 368.912 168.48 373.056 168.48C376.64 168.48 378.208 170.104 378.208 172.848V173.8C368.968 174.64 360.624 177.048 360.624 184.832C360.624 189.76 364.32 192.84 369.528 192.84ZM371.768 187.688C368.968 187.688 367.568 186.288 367.568 184.16C367.568 180.184 372.44 178.952 378.208 178.28V180.52C378.208 185.504 375.072 187.688 371.768 187.688ZM393.695 192H400.527V180.24C400.527 173.408 403.047 170.552 408.983 170.552C409.991 170.552 410.999 170.608 412.007 170.776V163.776C411.503 163.664 410.943 163.608 410.159 163.608C403.943 163.608 401.311 168.032 400.415 170.272V164.112H393.695V192ZM417.101 202.92H423.933V193.12V188.024C425.221 190.208 428.133 192.84 432.893 192.84C440.005 192.84 444.765 186.96 444.765 178.056C444.765 169.096 440.005 163.216 432.893 163.216C428.077 163.216 425.053 166.016 423.765 168.032V164.112H417.101V202.92ZM430.653 187.464C426.509 187.464 423.597 184.328 423.597 178C423.597 171.728 426.509 168.592 430.653 168.592C434.629 168.592 437.653 171.056 437.653 178C437.653 185 434.629 187.464 430.653 187.464ZM475.147 192.784C482.931 192.784 487.467 189.256 487.467 183.824C487.467 178.112 482.315 175.984 477.891 175.144L474.307 174.416C470.947 173.8 470.051 172.904 470.051 171.336C470.051 169.656 471.563 168.2 474.643 168.2C478.115 168.2 479.963 170.328 480.747 172.456L486.515 169.992C485.339 166.856 481.867 163.272 474.867 163.272C468.147 163.272 463.555 166.744 463.555 171.952C463.555 177.384 467.139 179.232 472.571 180.296L476.267 181.024C479.571 181.696 480.411 182.928 480.411 184.496C480.411 186.456 478.675 187.744 475.427 187.744C470.387 187.744 469.043 184.328 468.707 182.76L462.379 184.776C463.611 189.872 468.875 192.784 475.147 192.784ZM493.554 202.92H500.386V193.12V188.024C501.674 190.208 504.586 192.84 509.346 192.84C516.458 192.84 521.218 186.96 521.218 178.056C521.218 169.096 516.458 163.216 509.346 163.216C504.53 163.216 501.506 166.016 500.218 168.032V164.112H493.554V202.92ZM507.106 187.464C502.962 187.464 500.05 184.328 500.05 178C500.05 171.728 502.962 168.592 507.106 168.592C511.082 168.592 514.106 171.056 514.106 178C514.106 185 511.082 187.464 507.106 187.464ZM539.328 192.84C546.664 192.84 550.584 189.032 552.376 184.72L546.216 182.424C545.208 184.776 543.36 187.464 539.384 187.464C535.8 187.464 532.776 185.392 532.496 179.736H552.208C553.104 170.496 548.12 163.272 539.216 163.272C531.488 163.272 525.72 169.152 525.72 178.056C525.72 187.352 531.096 192.84 539.328 192.84ZM532.72 174.696C533.224 170.664 535.856 168.368 539.216 168.368C542.744 168.368 545.208 170.608 545.432 174.696H532.72ZM570.5 192.84C577.836 192.84 581.756 189.032 583.548 184.72L577.388 182.424C576.38 184.776 574.532 187.464 570.556 187.464C566.972 187.464 563.948 185.392 563.668 179.736H583.38C584.276 170.496 579.292 163.272 570.388 163.272C562.66 163.272 556.892 169.152 556.892 178.056C556.892 187.352 562.268 192.84 570.5 192.84ZM563.892 174.696C564.396 170.664 567.028 168.368 570.388 168.368C573.916 168.368 576.38 170.608 576.604 174.696H563.892ZM599.936 192.84C604.752 192.84 607.776 190.152 609.064 188.08V192H615.728V152.8H608.896V162.992V168.032C607.608 165.96 604.696 163.272 599.936 163.272C592.88 163.272 588.12 169.096 588.12 178.056C588.12 187.016 592.88 192.84 599.936 192.84ZM602.176 187.464C598.2 187.464 595.232 185.056 595.232 178.056C595.232 171.112 598.2 168.648 602.176 168.648C606.32 168.648 609.232 171.784 609.232 178.056C609.232 184.384 606.32 187.464 602.176 187.464Z" fill="#fff"/><path d="M792 216C792.552 216 793 215.552 793 215C793 214.448 792.552 214 792 214L792 216ZM647.293 214.293C646.902 214.683 646.902 215.317 647.293 215.707L653.657 222.071C654.047 222.462 654.681 222.462 655.071 222.071C655.462 221.681 655.462 221.047 655.071 220.657L649.414 215L655.071 209.343C655.462 208.953 655.462 208.319 655.071 207.929C654.681 207.538 654.047 207.538 653.657 207.929L647.293 214.293ZM792 214L648 214L648 216L792 216L792 214Z" fill="#DA372C"/><path d="M802.256 221.68H803.456V220.208C805.728 220.032 806.976 218.72 806.976 216.896C806.976 215.2 805.712 214.24 803.936 213.792L803.456 213.664V209.952C804.752 210.208 805.264 211.2 805.472 211.792L806.8 211.136C806.512 210.192 805.472 208.832 803.456 208.608V207.12H802.256V208.608C800.352 208.832 799.088 210.064 799.088 211.712C799.088 213.568 800.24 214.384 801.888 214.736L802.256 214.816V218.848C801.008 218.576 800.256 217.664 799.888 216.544L798.528 217.2C799.024 218.768 800.288 219.952 802.256 220.192V221.68ZM802.256 213.392C801.008 213.072 800.464 212.592 800.464 211.632C800.464 210.72 801.136 210.032 802.256 209.904V211.968V213.392ZM803.456 218.912V216.848V215.088C804.848 215.408 805.52 216.032 805.52 217.024C805.52 218.064 804.768 218.784 803.456 218.912ZM811.672 220.224C813.672 220.224 814.824 219.28 814.824 217.792C814.824 215.984 812.952 215.504 812.152 215.344L811.24 215.168C810.104 214.944 809.848 214.624 809.848 214.096C809.848 213.52 810.36 212.976 811.464 212.976C812.808 212.976 813.256 213.824 813.448 214.352L814.68 213.904C814.36 212.864 813.432 211.856 811.464 211.856C809.912 211.856 808.568 212.816 808.568 214.24C808.568 215.744 809.72 216.24 811.032 216.496L811.944 216.672C813.096 216.896 813.464 217.312 813.464 217.904C813.464 218.656 812.824 219.056 811.672 219.056C810.424 219.056 809.784 218.464 809.544 217.52L808.232 217.952C808.584 219.472 810.056 220.224 811.672 220.224ZM816.859 223.12H818.219V220.32V218.768C818.603 219.44 819.339 220.224 820.731 220.224C822.555 220.224 823.947 218.64 823.947 216.032C823.947 213.424 822.555 211.856 820.731 211.856C819.339 211.856 818.571 212.624 818.187 213.296V212.08H816.859V223.12ZM820.379 219.024C819.083 219.024 818.139 218.016 818.139 216.016C818.139 214.016 819.083 213.056 820.379 213.056C821.643 213.056 822.555 213.808 822.555 216.016C822.555 218.224 821.643 219.024 820.379 219.024ZM828.671 220.224C830.063 220.224 830.831 219.456 831.215 218.784V220H832.543V212.08H831.183V213.312C830.799 212.64 830.063 211.856 828.671 211.856C826.847 211.856 825.455 213.44 825.455 216.048C825.455 218.656 826.847 220.224 828.671 220.224ZM829.023 219.024C827.759 219.024 826.847 218.272 826.847 216.064C826.847 213.856 827.759 213.056 829.023 213.056C830.319 213.056 831.263 214.064 831.263 216.064C831.263 218.064 830.319 219.024 829.023 219.024ZM838.386 220.224C840.162 220.224 841.314 219.184 841.826 217.712L840.546 217.264C840.29 218.128 839.698 219.024 838.386 219.024C837.074 219.024 836.05 218.064 836.05 216.032C836.05 214.048 837.106 213.056 838.37 213.056C839.522 213.056 840.098 213.808 840.354 214.56L841.618 214.144C841.25 212.912 840.162 211.856 838.37 211.856C836.178 211.856 834.626 213.584 834.626 216.032C834.626 218.592 836.098 220.224 838.386 220.224ZM843.592 210.528H845.032V208.8H843.592V210.528ZM843.64 220H845V212.08H843.64V220ZM847.687 220H849.047V216.64C849.047 215.472 849.095 213.056 851.271 213.056C852.327 213.056 853.015 213.664 853.015 215.152V220H854.375V214.832C854.375 213.072 853.575 211.856 851.607 211.856C849.895 211.856 849.127 213.072 849.015 213.424V212.08H847.687V220ZM858.233 223.12H861.929C863.273 223.12 864.409 222.416 864.409 220.944C864.409 219.616 863.417 218.752 861.897 218.752H858.441C857.881 218.752 857.769 218.464 857.769 218.208C857.769 217.92 858.057 217.616 858.489 217.424C858.921 217.68 859.417 217.728 859.961 217.728C861.721 217.728 862.921 216.56 863.049 214.768L863.081 214.336C863.145 213.408 863.417 213.232 864.137 213.232H864.745V212.08H863.897C863.129 212.08 862.761 212.608 862.601 213.216C862.265 212.656 861.433 211.856 859.961 211.856C858.137 211.856 856.809 213.152 856.809 214.8C856.809 215.792 857.241 216.512 857.689 216.912C857.177 217.28 856.521 217.808 856.521 218.592C856.521 219.216 856.777 219.584 857.225 219.856C856.745 220.128 856.169 220.72 856.169 221.52C856.169 222.448 856.713 223.12 858.233 223.12ZM859.961 216.608C858.889 216.608 858.185 215.888 858.185 214.8C858.185 213.712 858.889 212.976 859.961 212.976C861.033 212.976 861.737 213.712 861.737 214.8C861.737 215.888 861.033 216.608 859.961 216.608ZM858.697 221.904C857.865 221.904 857.417 221.728 857.417 221.072C857.417 220.528 857.769 220.176 858.041 220H861.785C862.409 220 863.033 220.128 863.033 220.944C863.033 221.76 862.409 221.904 861.785 221.904H858.697ZM865.9 215.776H870.316V214.336H865.9V215.776ZM871.366 220H872.854L873.862 218.496L874.87 216.976C875.094 217.328 875.27 217.6 875.862 218.496L876.854 220H878.486L875.734 215.968L878.326 212.08H876.822L875.958 213.44C875.35 214.384 875.158 214.672 874.934 214.992C874.742 214.672 874.566 214.384 873.974 213.44L873.11 212.08H871.526L874.086 215.952L871.366 220ZM882.812 220.224C884.812 220.224 885.964 219.28 885.964 217.792C885.964 215.984 884.092 215.504 883.292 215.344L882.38 215.168C881.244 214.944 880.988 214.624 880.988 214.096C880.988 213.52 881.5 212.976 882.604 212.976C883.948 212.976 884.396 213.824 884.588 214.352L885.82 213.904C885.5 212.864 884.572 211.856 882.604 211.856C881.052 211.856 879.708 212.816 879.708 214.24C879.708 215.744 880.86 216.24 882.172 216.496L883.084 216.672C884.236 216.896 884.604 217.312 884.604 217.904C884.604 218.656 883.964 219.056 882.812 219.056C881.564 219.056 880.924 218.464 880.684 217.52L879.372 217.952C879.724 219.472 881.196 220.224 882.812 220.224Z" fill="#6E6E78"/><path d="M792 174C792.552 174 793 173.552 793 173C793 172.448 792.552 172 792 172L792 174ZM698.293 172.293C697.902 172.683 697.902 173.317 698.293 173.707L704.657 180.071C705.047 180.462 705.681 180.462 706.071 180.071C706.462 179.681 706.462 179.047 706.071 178.657L700.414 173L706.071 167.343C706.462 166.953 706.462 166.319 706.071 165.929C705.681 165.538 705.047 165.538 704.657 165.929L698.293 172.293ZM792 172L699 172L699 174L792 174L792 172Z" fill="#DA372C"/><path d="M802.144 178H803.584V168.16H807.728V166.8H798.16V168.16H802.144V178ZM810.54 178.224C812.62 178.224 814.22 176.432 814.22 174.048C814.22 171.664 812.684 169.856 810.54 169.856C808.396 169.856 806.86 171.664 806.86 174.048C806.86 176.432 808.46 178.224 810.54 178.224ZM810.54 177.024C809.196 177.024 808.268 176.064 808.268 174.064C808.268 172.064 809.196 171.056 810.54 171.056C811.884 171.056 812.812 172.064 812.812 174.064C812.812 176.064 811.884 177.024 810.54 177.024ZM819.337 178.224C821.417 178.224 823.017 176.432 823.017 174.048C823.017 171.664 821.481 169.856 819.337 169.856C817.193 169.856 815.657 171.664 815.657 174.048C815.657 176.432 817.257 178.224 819.337 178.224ZM819.337 177.024C817.993 177.024 817.065 176.064 817.065 174.064C817.065 172.064 817.993 171.056 819.337 171.056C820.681 171.056 821.609 172.064 821.609 174.064C821.609 176.064 820.681 177.024 819.337 177.024ZM825.078 178H826.438V166.8H825.078V178ZM831.877 178H833.701V176.8H832.053C831.493 176.8 831.253 176.56 831.253 176V171.232H833.413V170.08H831.253V167.6H829.893V170.08H828.053V171.232H829.893V176.08C829.893 177.392 830.565 178 831.877 178ZM835.374 168.528H836.814V166.8H835.374V168.528ZM835.422 178H836.782V170.08H835.422V178ZM839.469 181.12H840.829V178.32V176.768C841.213 177.44 841.949 178.224 843.341 178.224C845.165 178.224 846.557 176.64 846.557 174.032C846.557 171.424 845.165 169.856 843.341 169.856C841.949 169.856 841.181 170.624 840.797 171.296V170.08H839.469V181.12ZM842.989 177.024C841.693 177.024 840.749 176.016 840.749 174.016C840.749 172.016 841.693 171.056 842.989 171.056C844.253 171.056 845.165 171.808 845.165 174.016C845.165 176.224 844.253 177.024 842.989 177.024ZM852.797 178H854.157V174.64C854.157 173.472 854.205 171.056 856.381 171.056C857.437 171.056 858.125 171.664 858.125 173.152V178H859.485V172.832C859.485 171.072 858.685 169.856 856.717 169.856C855.005 169.856 854.237 171.072 854.125 171.424V170.08H852.797V178ZM864.59 178.224C866.238 178.224 866.99 177.056 867.23 176.624V178H868.558V170.08H867.198V173.44C867.198 174.656 867.166 177.024 865.022 177.024C863.982 177.024 863.31 176.416 863.31 174.928V170.08H861.95V175.248C861.95 177.008 862.734 178.224 864.59 178.224ZM875.122 178.224C876.946 178.224 878.338 176.64 878.338 174.032C878.338 171.424 876.946 169.856 875.122 169.856C873.73 169.856 872.994 170.624 872.61 171.296V169.76V166.8H871.25V178H872.578V176.768C872.962 177.44 873.73 178.224 875.122 178.224ZM874.77 177.024C873.474 177.024 872.53 176.016 872.53 174.016C872.53 172.016 873.474 171.056 874.77 171.056C876.034 171.056 876.946 171.808 876.946 174.016C876.946 176.224 876.034 177.024 874.77 177.024Z" fill="#6E6E78"/><path d="M182 172C181.448 172 181 172.448 181 173C181 173.552 181.448 174 182 174L182 172ZM296.707 173.707C297.098 173.317 297.098 172.683 296.707 172.293L290.343 165.929C289.953 165.538 289.319 165.538 288.929 165.929C288.538 166.319 288.538 166.953 288.929 167.343L294.586 173L288.929 178.657C288.538 179.047 288.538 179.681 288.929 180.071C289.319 180.462 289.953 180.462 290.343 180.071L296.707 173.707ZM182 174L296 174L296 172L182 172L182 174Z" fill="#DA372C"/><path d="M116.162 178.224C118.93 178.224 120.546 176.608 121.042 174.816L119.586 174.272C119.17 175.616 118.37 176.864 116.162 176.864 113.842 176.864 112.29 174.976 112.29 172.272 112.29 169.568 113.858 167.936 116.162 167.936 118.418 167.936 119.25 169.472 119.538 170.384L121.026 169.872C120.578 168.384 119.058 166.576 116.162 166.576 112.93 166.576 110.738 169.04 110.738 172.288 110.738 175.536 112.658 178.224 116.162 178.224zM126.041 178.224C128.121 178.224 129.721 176.432 129.721 174.048 129.721 171.664 128.185 169.856 126.041 169.856 123.897 169.856 122.361 171.664 122.361 174.048 122.361 176.432 123.961 178.224 126.041 178.224zM126.041 177.024C124.697 177.024 123.769 176.064 123.769 174.064 123.769 172.064 124.697 171.056 126.041 171.056 127.385 171.056 128.313 172.064 128.313 174.064 128.313 176.064 127.385 177.024 126.041 177.024zM131.782 178H133.142V174.64C133.142 173.472 133.19 171.056 135.366 171.056 136.422 171.056 137.11 171.664 137.11 173.152V178H138.47V172.832C138.47 171.072 137.67 169.856 135.702 169.856 133.99 169.856 133.222 171.072 133.11 171.424V170.08H131.782V178zM143.799 178H145.623V176.8H143.975C143.415 176.8 143.175 176.56 143.175 176V171.232H145.335V170.08H143.175V167.6H141.815V170.08H139.975V171.232H141.815V176.08C141.815 177.392 142.487 178 143.799 178zM150.258 178.224C151.746 178.224 153.074 177.552 153.666 175.936L152.418 175.504C152.21 176.016 151.65 177.04 150.306 177.04 149.202 177.04 148.098 176.4 148.018 174.4H153.602C153.906 171.808 152.482 169.856 150.178 169.856 148.162 169.856 146.674 171.472 146.674 174.08 146.674 176.768 148.098 178.224 150.258 178.224zM148.05 173.264C148.162 171.824 149.138 170.976 150.178 170.976 151.266 170.976 152.21 171.76 152.21 173.264H148.05zM155.782 178H157.142V174.64C157.142 173.472 157.19 171.056 159.366 171.056 160.422 171.056 161.11 171.664 161.11 173.152V178H162.47V172.832C162.47 171.072 161.67 169.856 159.702 169.856 157.99 169.856 157.222 171.072 157.11 171.424V170.08H155.782V178zM167.799 178H169.623V176.8H167.975C167.415 176.8 167.175 176.56 167.175 176V171.232H169.335V170.08H167.175V167.6H165.815V170.08H163.975V171.232H165.815V176.08C165.815 177.392 166.487 178 167.799 178zM496.644 64H498.084V54.16H502.228V52.8H492.66V54.16H496.644V64zM505.041 64.224C507.121 64.224 508.721 62.432 508.721 60.048 508.721 57.664 507.185 55.856 505.041 55.856 502.897 55.856 501.361 57.664 501.361 60.048 501.361 62.432 502.961 64.224 505.041 64.224zM505.041 63.024C503.697 63.024 502.769 62.064 502.769 60.064 502.769 58.064 503.697 57.056 505.041 57.056 506.385 57.056 507.313 58.064 507.313 60.064 507.313 62.064 506.385 63.024 505.041 63.024zM513.838 64.224C515.918 64.224 517.517 62.432 517.517 60.048 517.517 57.664 515.982 55.856 513.838 55.856 511.694 55.856 510.158 57.664 510.158 60.048 510.158 62.432 511.758 64.224 513.838 64.224zM513.838 63.024C512.494 63.024 511.566 62.064 511.566 60.064 511.566 58.064 512.494 57.056 513.838 57.056 515.182 57.056 516.11 58.064 516.11 60.064 516.11 62.064 515.182 63.024 513.838 63.024zM519.578 64H520.938V52.8H519.578V64zM526.377 64H528.201V62.8H526.553C525.993 62.8 525.753 62.56 525.753 62V57.232H527.913V56.08H525.753V53.6H524.393V56.08H522.553V57.232H524.393V62.08C524.393 63.392 525.065 64 526.377 64zM529.874 54.528H531.314V52.8H529.874V54.528zM529.922 64H531.282V56.08H529.922V64zM533.969 67.12H535.329V64.32 62.768C535.713 63.44 536.449 64.224 537.841 64.224 539.665 64.224 541.057 62.64 541.057 60.032 541.057 57.424 539.665 55.856 537.841 55.856 536.449 55.856 535.681 56.624 535.297 57.296V56.08H533.969V67.12zM537.489 63.024C536.193 63.024 535.249 62.016 535.249 60.016 535.249 58.016 536.193 57.056 537.489 57.056 538.753 57.056 539.665 57.808 539.665 60.016 539.665 62.224 538.753 63.024 537.489 63.024zM550.449 64.224C552.225 64.224 553.377 63.184 553.889 61.712L552.609 61.264C552.353 62.128 551.761 63.024 550.449 63.024 549.137 63.024 548.113 62.064 548.113 60.032 548.113 58.048 549.169 57.056 550.433 57.056 551.585 57.056 552.161 57.808 552.417 58.56L553.681 58.144C553.313 56.912 552.225 55.856 550.433 55.856 548.241 55.856 546.689 57.584 546.689 60.032 546.689 62.592 548.161 64.224 550.449 64.224zM558.759 64.224C560.839 64.224 562.439 62.432 562.439 60.048 562.439 57.664 560.903 55.856 558.759 55.856 556.615 55.856 555.079 57.664 555.079 60.048 555.079 62.432 556.679 64.224 558.759 64.224zM558.759 63.024C557.415 63.024 556.487 62.064 556.487 60.064 556.487 58.064 557.415 57.056 558.759 57.056 560.103 57.056 561.031 58.064 561.031 60.064 561.031 62.064 560.103 63.024 558.759 63.024zM564.5 64H565.86V60.64C565.86 59.472 565.908 57.056 568.084 57.056 569.14 57.056 569.828 57.664 569.828 59.152V64H571.188V58.832C571.188 57.072 570.388 55.856 568.42 55.856 566.708 55.856 565.94 57.072 565.828 57.424V56.08H564.5V64zM576.518 64H578.342V62.8H576.694C576.134 62.8 575.894 62.56 575.894 62V57.232H578.054V56.08H575.894V53.6H574.534V56.08H572.694V57.232H574.534V62.08C574.534 63.392 575.206 64 576.518 64zM582.609 64.224C584.001 64.224 584.769 63.456 585.153 62.784V64H586.481V56.08H585.121V57.312C584.737 56.64 584.001 55.856 582.609 55.856 580.785 55.856 579.393 57.44 579.393 60.048 579.393 62.656 580.785 64.224 582.609 64.224zM582.961 63.024C581.697 63.024 580.785 62.272 580.785 60.064 580.785 57.856 581.697 57.056 582.961 57.056 584.257 57.056 585.201 58.064 585.201 60.064 585.201 62.064 584.257 63.024 582.961 63.024zM589.124 54.528H590.564V52.8H589.124V54.528zM589.172 64H590.532V56.08H589.172V64zM593.219 64H594.579V60.64C594.579 59.472 594.627 57.056 596.803 57.056 597.859 57.056 598.547 57.664 598.547 59.152V64H599.907V58.832C599.907 57.072 599.107 55.856 597.139 55.856 595.427 55.856 594.659 57.072 594.547 57.424V56.08H593.219V64zM605.477 64.224C606.965 64.224 608.293 63.552 608.885 61.936L607.637 61.504C607.429 62.016 606.869 63.04 605.525 63.04 604.421 63.04 603.317 62.4 603.237 60.4H608.821C609.125 57.808 607.701 55.856 605.397 55.856 603.381 55.856 601.893 57.472 601.893 60.08 601.893 62.768 603.317 64.224 605.477 64.224zM603.269 59.264C603.381 57.824 604.357 56.976 605.397 56.976 606.485 56.976 607.429 57.76 607.429 59.264H603.269zM611 64H612.36V60.368C612.36 58.512 613.096 57.376 614.888 57.376 615.208 57.376 615.48 57.408 615.736 57.456V56.064C615.544 56.016 615.304 55.968 614.92 55.968 613.416 55.968 612.6 57.136 612.344 57.728V56.08H611V64z" fill="#6E6E78"/><path d="M629 53C629 52.4477 628.552 52 628 52 627.448 52 627 52.4477 627 53L629 53zM627.293 129.707C627.683 130.098 628.317 130.098 628.707 129.707L635.071 123.343C635.462 122.953 635.462 122.319 635.071 121.929 634.681 121.538 634.047 121.538 633.657 121.929L628 127.586 622.343 121.929C621.953 121.538 621.319 121.538 620.929 121.929 620.538 122.319 620.538 122.953 620.929 123.343L627.293 129.707zM627 53L627 129 629 129 629 53 627 53zM278 54C278 53.4477 277.552 53 277 53 276.448 53 276 53.4477 276 54L278 54zM276.293 129.707C276.683 130.098 277.317 130.098 277.707 129.707L284.071 123.343C284.462 122.953 284.462 122.319 284.071 121.929 283.681 121.538 283.047 121.538 282.657 121.929L277 127.586 271.343 121.929C270.953 121.538 270.319 121.538 269.929 121.929 269.538 122.319 269.538 122.953 269.929 123.343L276.293 129.707zM276 54L276 129 278 129 278 54 276 54z" fill="#DA372C"/><path d="M181.631 66.68H182.831V65.208C185.103 65.032 186.351 63.72 186.351 61.896C186.351 60.2 185.087 59.24 183.311 58.792L182.831 58.664V54.952C184.127 55.208 184.639 56.2 184.847 56.792L186.175 56.136C185.887 55.192 184.847 53.832 182.831 53.608V52.12H181.631V53.608C179.727 53.832 178.463 55.064 178.463 56.712C178.463 58.568 179.615 59.384 181.263 59.736L181.631 59.816V63.848C180.383 63.576 179.631 62.664 179.263 61.544L177.903 62.2C178.399 63.768 179.663 64.952 181.631 65.192V66.68ZM181.631 58.392C180.383 58.072 179.839 57.592 179.839 56.632C179.839 55.72 180.511 55.032 181.631 54.904V56.968V58.392ZM182.831 63.912V61.848V60.088C184.223 60.408 184.895 61.032 184.895 62.024C184.895 63.064 184.143 63.784 182.831 63.912ZM191.047 65.224C193.047 65.224 194.199 64.28 194.199 62.792C194.199 60.984 192.327 60.504 191.527 60.344L190.615 60.168C189.479 59.944 189.223 59.624 189.223 59.096C189.223 58.52 189.735 57.976 190.839 57.976C192.183 57.976 192.631 58.824 192.823 59.352L194.055 58.904C193.735 57.864 192.807 56.856 190.839 56.856C189.287 56.856 187.943 57.816 187.943 59.24C187.943 60.744 189.095 61.24 190.407 61.496L191.319 61.672C192.471 61.896 192.839 62.312 192.839 62.904C192.839 63.656 192.199 64.056 191.047 64.056C189.799 64.056 189.159 63.464 188.919 62.52L187.607 62.952C187.959 64.472 189.431 65.224 191.047 65.224ZM196.235 68.12H197.595V65.32V63.768C197.979 64.44 198.715 65.224 200.107 65.224C201.931 65.224 203.323 63.64 203.323 61.032C203.323 58.424 201.931 56.856 200.107 56.856C198.715 56.856 197.947 57.624 197.563 58.296V57.08H196.235V68.12ZM199.755 64.024C198.459 64.024 197.515 63.016 197.515 61.016C197.515 59.016 198.459 58.056 199.755 58.056C201.019 58.056 201.931 58.808 201.931 61.016C201.931 63.224 201.019 64.024 199.755 64.024ZM208.046 65.224C209.438 65.224 210.206 64.456 210.59 63.784V65H211.918V57.08H210.558V58.312C210.174 57.64 209.438 56.856 208.046 56.856C206.222 56.856 204.83 58.44 204.83 61.048C204.83 63.656 206.222 65.224 208.046 65.224ZM208.398 64.024C207.134 64.024 206.222 63.272 206.222 61.064C206.222 58.856 207.134 58.056 208.398 58.056C209.694 58.056 210.638 59.064 210.638 61.064C210.638 63.064 209.694 64.024 208.398 64.024ZM217.762 65.224C219.538 65.224 220.69 64.184 221.202 62.712L219.922 62.264C219.666 63.128 219.074 64.024 217.762 64.024C216.45 64.024 215.426 63.064 215.426 61.032C215.426 59.048 216.482 58.056 217.746 58.056C218.898 58.056 219.474 58.808 219.73 59.56L220.994 59.144C220.626 57.912 219.538 56.856 217.746 56.856C215.554 56.856 214.002 58.584 214.002 61.032C214.002 63.592 215.474 65.224 217.762 65.224ZM222.968 55.528H224.408V53.8H222.968V55.528ZM223.016 65H224.376V57.08H223.016V65ZM227.063 65H228.423V61.64C228.423 60.472 228.471 58.056 230.647 58.056C231.703 58.056 232.391 58.664 232.391 60.152V65H233.751V59.832C233.751 58.072 232.951 56.856 230.983 56.856C229.271 56.856 228.503 58.072 228.391 58.424V57.08H227.063V65ZM237.608 68.12H241.304C242.648 68.12 243.784 67.416 243.784 65.944C243.784 64.616 242.792 63.752 241.272 63.752H237.816C237.256 63.752 237.144 63.464 237.144 63.208C237.144 62.92 237.432 62.616 237.864 62.424C238.296 62.68 238.792 62.728 239.336 62.728C241.096 62.728 242.296 61.56 242.424 59.768L242.456 59.336C242.52 58.408 242.792 58.232 243.512 58.232H244.12V57.08H243.272C242.504 57.08 242.136 57.608 241.976 58.216C241.64 57.656 240.808 56.856 239.336 56.856C237.512 56.856 236.184 58.152 236.184 59.8C236.184 60.792 236.616 61.512 237.064 61.912C236.552 62.28 235.896 62.808 235.896 63.592C235.896 64.216 236.152 64.584 236.6 64.856C236.12 65.128 235.544 65.72 235.544 66.52C235.544 67.448 236.088 68.12 237.608 68.12ZM239.336 61.608C238.264 61.608 237.56 60.888 237.56 59.8C237.56 58.712 238.264 57.976 239.336 57.976C240.408 57.976 241.112 58.712 241.112 59.8C241.112 60.888 240.408 61.608 239.336 61.608ZM238.072 66.904C237.24 66.904 236.792 66.728 236.792 66.072C236.792 65.528 237.144 65.176 237.416 65H241.16C241.784 65 242.408 65.128 242.408 65.944C242.408 66.76 241.784 66.904 241.16 66.904H238.072ZM245.276 60.776H249.692V59.336H245.276V60.776ZM252.141 65H253.501V61.32C253.501 60.184 253.597 58.072 255.533 58.072C256.589 58.072 257.293 58.616 257.293 60.152V65H258.621V61.32C258.621 60.184 258.669 58.072 260.669 58.072C261.725 58.072 262.413 58.616 262.413 60.152V65H263.773V59.752C263.773 57.912 262.813 56.856 261.005 56.856C259.325 56.856 258.621 57.896 258.349 58.552C257.949 57.48 257.021 56.856 255.853 56.856C254.429 56.856 253.757 57.768 253.469 58.28V57.08H252.141V65Z" fill="#6E6E78"/></svg>