<svg viewBox="0 0 958 346" fill="none" xmlns="http://www.w3.org/2000/svg"><rect x="390" y="111" width="167" height="72" rx="4" fill="#EBEBED"/><path d="M405.53 158H413.05C419.802 158 423.866 153.776 423.866 146.736C423.866 140.08 419.674 135.6 413.274 135.6H405.53V158ZM408.41 155.28V138.32H412.762C418.202 138.32 420.826 141.68 420.826 146.736C420.826 152.336 418.138 155.28 412.538 155.28H408.41ZM428.201 139.056H431.081V135.6H428.201V139.056ZM428.297 158H431.017V142.16H428.297V158ZM441.735 158.448C445.735 158.448 448.039 156.56 448.039 153.584C448.039 149.968 444.295 149.008 442.695 148.688L440.871 148.336C438.599 147.888 438.087 147.248 438.087 146.192C438.087 145.04 439.111 143.952 441.319 143.952C444.007 143.952 444.903 145.648 445.287 146.704L447.751 145.808C447.111 143.728 445.255 141.712 441.319 141.712C438.215 141.712 435.527 143.632 435.527 146.48C435.527 149.488 437.831 150.48 440.455 150.992L442.279 151.344C444.583 151.792 445.319 152.624 445.319 153.808C445.319 155.312 444.039 156.112 441.735 156.112C439.239 156.112 437.959 154.928 437.479 153.04L434.855 153.904C435.559 156.944 438.503 158.448 441.735 158.448ZM458.414 158.448C461.966 158.448 464.27 156.368 465.294 153.424L462.734 152.528C462.222 154.256 461.038 156.048 458.414 156.048C455.79 156.048 453.742 154.128 453.742 150.064C453.742 146.096 455.854 144.112 458.382 144.112C460.686 144.112 461.838 145.616 462.35 147.12L464.878 146.288C464.142 143.824 461.966 141.712 458.382 141.712C453.998 141.712 450.894 145.168 450.894 150.064C450.894 155.184 453.838 158.448 458.414 158.448ZM475.034 158.448C479.194 158.448 482.394 154.864 482.394 150.096C482.394 145.328 479.322 141.712 475.034 141.712C470.746 141.712 467.674 145.328 467.674 150.096C467.674 154.864 470.874 158.448 475.034 158.448ZM475.034 156.048C472.346 156.048 470.49 154.128 470.49 150.128C470.49 146.128 472.346 144.112 475.034 144.112C477.722 144.112 479.578 146.128 479.578 150.128C479.578 154.128 477.722 156.048 475.034 156.048ZM489.784 158H493.176L498.296 142.16H495.512L492.792 151.28L491.512 155.504C491.288 154.768 490.712 152.88 490.2 151.28L487.352 142.16H484.504L489.784 158ZM507.75 158.448C510.726 158.448 513.382 157.104 514.566 153.872L512.07 153.008C511.654 154.032 510.534 156.08 507.846 156.08C505.638 156.08 503.43 154.8 503.27 150.8H514.438C515.046 145.616 512.198 141.712 507.59 141.712C503.558 141.712 500.582 144.944 500.582 150.16C500.582 155.536 503.43 158.448 507.75 158.448ZM503.334 148.528C503.558 145.648 505.51 143.952 507.59 143.952C509.766 143.952 511.654 145.52 511.654 148.528H503.334ZM518.797 158H521.517V150.736C521.517 147.024 522.989 144.752 526.573 144.752C527.213 144.752 527.757 144.816 528.269 144.912V142.128C527.885 142.032 527.405 141.936 526.637 141.936C523.629 141.936 521.997 144.272 521.485 145.456V142.16H518.797V158ZM541.053 142.16L538.173 150.832C537.533 152.752 537.341 153.328 537.053 154.256C536.733 153.424 536.477 152.784 535.485 150.384L532.093 142.16H529.021L535.869 157.808L534.973 160.336C534.557 161.52 533.853 161.744 532.797 161.744H529.789V164.24H532.797C535.581 164.24 536.733 163.312 537.789 160.176L543.933 142.16H541.053Z" fill="#1D1D21"/><path d="M322 121C321.448 121 321 121.448 321 122C321 122.552 321.448 123 322 123L322 121ZM435.707 122.707C436.098 122.317 436.098 121.683 435.707 121.293L429.343 114.929C428.953 114.538 428.319 114.538 427.929 114.929C427.538 115.319 427.538 115.953 427.929 116.343L433.586 122L427.929 127.657C427.538 128.047 427.538 128.681 427.929 129.071C428.319 129.462 428.953 129.462 429.343 129.071L435.707 122.707ZM322 123L435 123L435 121L322 121L322 123Z" fill="#DA372C"/><path d="M242.881 127.224C245.649 127.224 247.265 125.608 247.761 123.816L246.305 123.272C245.889 124.616 245.089 125.864 242.881 125.864 240.561 125.864 239.009 123.976 239.009 121.272 239.009 118.568 240.577 116.936 242.881 116.936 245.137 116.936 245.969 118.472 246.257 119.384L247.745 118.872C247.297 117.384 245.777 115.576 242.881 115.576 239.649 115.576 237.457 118.04 237.457 121.288 237.457 124.536 239.377 127.224 242.881 127.224zM252.759 127.224C254.839 127.224 256.439 125.432 256.439 123.048 256.439 120.664 254.903 118.856 252.759 118.856 250.615 118.856 249.079 120.664 249.079 123.048 249.079 125.432 250.679 127.224 252.759 127.224zM252.759 126.024C251.415 126.024 250.487 125.064 250.487 123.064 250.487 121.064 251.415 120.056 252.759 120.056 254.103 120.056 255.031 121.064 255.031 123.064 255.031 125.064 254.103 126.024 252.759 126.024zM258.5 127H259.86V123.64C259.86 122.472 259.908 120.056 262.084 120.056 263.14 120.056 263.828 120.664 263.828 122.152V127H265.188V121.832C265.188 120.072 264.388 118.856 262.42 118.856 260.708 118.856 259.94 120.072 259.828 120.424V119.08H258.5V127zM270.518 127H272.342V125.8H270.694C270.134 125.8 269.894 125.56 269.894 125V120.232H272.054V119.08H269.894V116.6H268.534V119.08H266.694V120.232H268.534V125.08C268.534 126.392 269.206 127 270.518 127zM276.609 127.224C278.001 127.224 278.769 126.456 279.153 125.784V127H280.481V119.08H279.121V120.312C278.737 119.64 278.001 118.856 276.609 118.856 274.785 118.856 273.393 120.44 273.393 123.048 273.393 125.656 274.785 127.224 276.609 127.224zM276.961 126.024C275.697 126.024 274.785 125.272 274.785 123.064 274.785 120.856 275.697 120.056 276.961 120.056 278.257 120.056 279.201 121.064 279.201 123.064 279.201 125.064 278.257 126.024 276.961 126.024zM283.124 117.528H284.564V115.8H283.124V117.528zM283.172 127H284.532V119.08H283.172V127zM287.219 127H288.579V123.64C288.579 122.472 288.627 120.056 290.803 120.056 291.859 120.056 292.547 120.664 292.547 122.152V127H293.907V121.832C293.907 120.072 293.107 118.856 291.139 118.856 289.427 118.856 288.659 120.072 288.547 120.424V119.08H287.219V127zM299.477 127.224C300.965 127.224 302.293 126.552 302.885 124.936L301.637 124.504C301.429 125.016 300.869 126.04 299.525 126.04 298.421 126.04 297.317 125.4 297.237 123.4H302.821C303.125 120.808 301.701 118.856 299.397 118.856 297.381 118.856 295.893 120.472 295.893 123.08 295.893 125.768 297.317 127.224 299.477 127.224zM297.269 122.264C297.381 120.824 298.357 119.976 299.397 119.976 300.485 119.976 301.429 120.76 301.429 122.264H297.269zM305 127H306.36V123.368C306.36 121.512 307.096 120.376 308.888 120.376 309.208 120.376 309.48 120.408 309.736 120.456V119.064C309.544 119.016 309.304 118.968 308.92 118.968 307.416 118.968 306.6 120.136 306.344 120.728V119.08H305V127zM633.648 152H637.408C640.784 152 642.816 149.888 642.816 146.368 642.816 143.04 640.72 140.8 637.52 140.8H633.648V152zM635.088 150.64V142.16H637.264C639.984 142.16 641.296 143.84 641.296 146.368 641.296 149.168 639.952 150.64 637.152 150.64H635.088zM648.024 152.224C649.512 152.224 650.84 151.552 651.432 149.936L650.184 149.504C649.976 150.016 649.416 151.04 648.072 151.04 646.968 151.04 645.864 150.4 645.784 148.4H651.368C651.672 145.808 650.248 143.856 647.944 143.856 645.928 143.856 644.44 145.472 644.44 148.08 644.44 150.768 645.864 152.224 648.024 152.224zM645.816 147.264C645.928 145.824 646.904 144.976 647.944 144.976 649.032 144.976 649.976 145.76 649.976 147.264H645.816zM656.219 152.224C658.219 152.224 659.371 151.28 659.371 149.792 659.371 147.984 657.499 147.504 656.699 147.344L655.787 147.168C654.651 146.944 654.395 146.624 654.395 146.096 654.395 145.52 654.907 144.976 656.011 144.976 657.355 144.976 657.803 145.824 657.995 146.352L659.227 145.904C658.907 144.864 657.979 143.856 656.011 143.856 654.459 143.856 653.115 144.816 653.115 146.24 653.115 147.744 654.267 148.24 655.579 148.496L656.491 148.672C657.643 148.896 658.011 149.312 658.011 149.904 658.011 150.656 657.371 151.056 656.219 151.056 654.971 151.056 654.331 150.464 654.091 149.52L652.779 149.952C653.131 151.472 654.603 152.224 656.219 152.224zM664.559 152.224C666.335 152.224 667.487 151.184 667.999 149.712L666.719 149.264C666.463 150.128 665.871 151.024 664.559 151.024 663.247 151.024 662.223 150.064 662.223 148.032 662.223 146.048 663.279 145.056 664.543 145.056 665.695 145.056 666.271 145.808 666.527 146.56L667.791 146.144C667.423 144.912 666.335 143.856 664.543 143.856 662.351 143.856 660.799 145.584 660.799 148.032 660.799 150.592 662.271 152.224 664.559 152.224zM669.813 152H671.173V148.368C671.173 146.512 671.909 145.376 673.701 145.376 674.021 145.376 674.293 145.408 674.549 145.456V144.064C674.357 144.016 674.117 143.968 673.733 143.968 672.229 143.968 671.413 145.136 671.157 145.728V144.08H669.813V152zM676.109 142.528H677.549V140.8H676.109V142.528zM676.157 152H677.517V144.08H676.157V152zM680.203 155.12H681.563V152.32 150.768C681.947 151.44 682.683 152.224 684.075 152.224 685.899 152.224 687.291 150.64 687.291 148.032 687.291 145.424 685.899 143.856 684.075 143.856 682.683 143.856 681.915 144.624 681.531 145.296V144.08H680.203V155.12zM683.723 151.024C682.427 151.024 681.483 150.016 681.483 148.016 681.483 146.016 682.427 145.056 683.723 145.056 684.987 145.056 685.899 145.808 685.899 148.016 685.899 150.224 684.987 151.024 683.723 151.024zM692.08 152H693.904V150.8H692.256C691.696 150.8 691.456 150.56 691.456 150V145.232H693.616V144.08H691.456V141.6H690.096V144.08H688.256V145.232H690.096V150.08C690.096 151.392 690.768 152 692.08 152zM698.603 152.224C700.683 152.224 702.283 150.432 702.283 148.048 702.283 145.664 700.747 143.856 698.603 143.856 696.459 143.856 694.923 145.664 694.923 148.048 694.923 150.432 696.523 152.224 698.603 152.224zM698.603 151.024C697.259 151.024 696.331 150.064 696.331 148.064 696.331 146.064 697.259 145.056 698.603 145.056 699.947 145.056 700.875 146.064 700.875 148.064 700.875 150.064 699.947 151.024 698.603 151.024zM704.344 152H705.704V148.368C705.704 146.512 706.44 145.376 708.232 145.376 708.552 145.376 708.824 145.408 709.08 145.456V144.064C708.888 144.016 708.648 143.968 708.264 143.968 706.76 143.968 705.944 145.136 705.688 145.728V144.08H704.344V152z" fill="#6E6E78"/><path d="M620 148C620.552 148 621 147.552 621 147C621 146.448 620.552 146 620 146V148ZM544.293 146.293C543.902 146.683 543.902 147.317 544.293 147.707L550.657 154.071C551.047 154.462 551.681 154.462 552.071 154.071C552.462 153.681 552.462 153.047 552.071 152.657L546.414 147L552.071 141.343C552.462 140.953 552.462 140.319 552.071 139.929C551.681 139.538 551.047 139.538 550.657 139.929L544.293 146.293ZM620 146H545V148H620V146Z" fill="#DA372C"/><path opacity="0.4" d="M545 111H553C555.209 111 557 112.791 557 115V179C557 181.209 555.209 183 553 183H545V111zM390 115C390 112.791 391.791 111 394 111H402V183H394C391.791 183 390 181.209 390 179V115z" fill="#DA372C"/><path d="M539.293 92.2929C538.902 92.6834 538.902 93.3166 539.293 93.7071L545.657 100.071C546.047 100.462 546.681 100.462 547.071 100.071C547.462 99.6805 547.462 99.0474 547.071 98.6569L541.414 93L547.071 87.3431C547.462 86.9526 547.462 86.3195 547.071 85.9289C546.681 85.5384 546.047 85.5384 545.657 85.9289L539.293 92.2929ZM573.793 127.707C574.183 128.098 574.817 128.098 575.207 127.707L581.571 121.343C581.962 120.953 581.962 120.319 581.571 119.929C581.181 119.538 580.547 119.538 580.157 119.929L574.5 125.586L568.843 119.929C568.453 119.538 567.819 119.538 567.429 119.929C567.038 120.319 567.038 120.953 567.429 121.343L573.793 127.707ZM558.5 92H540V94H558.5V92ZM573.5 109V127H575.5V109H573.5ZM558.5 94C566.784 94 573.5 100.716 573.5 109H575.5C575.5 99.6112 567.889 92 558.5 92V94Z" fill="#DA372C"/><path d="M592.212 112H593.636V108.896H595.268V107.648H593.636V100.8H591.412L586.98 107.504V108.896H592.212V112ZM592.212 107.648H590.564H588.436L592.212 101.936V104.384V107.648ZM597.188 115.12H598.548V112.32V110.768C598.932 111.44 599.668 112.224 601.06 112.224C602.884 112.224 604.276 110.64 604.276 108.032C604.276 105.424 602.884 103.856 601.06 103.856C599.668 103.856 598.9 104.624 598.516 105.296V104.08H597.188V115.12ZM600.708 111.024C599.412 111.024 598.468 110.016 598.468 108.016C598.468 106.016 599.412 105.056 600.708 105.056C601.972 105.056 602.884 105.808 602.884 108.016C602.884 110.224 601.972 111.024 600.708 111.024ZM605.226 112H606.714L607.722 110.496L608.73 108.976C608.954 109.328 609.13 109.6 609.722 110.496L610.714 112H612.346L609.594 107.968L612.186 104.08H610.682L609.818 105.44C609.21 106.384 609.018 106.672 608.794 106.992C608.602 106.672 608.426 106.384 607.834 105.44L606.97 104.08H605.386L607.946 107.952L605.226 112ZM621.293 112.224C623.069 112.224 624.221 111.184 624.733 109.712L623.453 109.264C623.197 110.128 622.605 111.024 621.293 111.024C619.981 111.024 618.957 110.064 618.957 108.032C618.957 106.048 620.013 105.056 621.277 105.056C622.429 105.056 623.005 105.808 623.261 106.56L624.525 106.144C624.157 104.912 623.069 103.856 621.277 103.856C619.085 103.856 617.533 105.584 617.533 108.032C617.533 110.592 619.005 112.224 621.293 112.224ZM629.604 112.224C631.684 112.224 633.284 110.432 633.284 108.048C633.284 105.664 631.748 103.856 629.604 103.856C627.46 103.856 625.924 105.664 625.924 108.048C625.924 110.432 627.524 112.224 629.604 112.224ZM629.604 111.024C628.26 111.024 627.332 110.064 627.332 108.064C627.332 106.064 628.26 105.056 629.604 105.056C630.948 105.056 631.876 106.064 631.876 108.064C631.876 110.064 630.948 111.024 629.604 111.024ZM635.344 112H636.704V108.368C636.704 106.512 637.44 105.376 639.232 105.376C639.552 105.376 639.824 105.408 640.08 105.456V104.064C639.888 104.016 639.648 103.968 639.264 103.968C637.76 103.968 636.944 105.136 636.688 105.728V104.08H635.344V112ZM641.688 112H643.048V108.64C643.048 107.472 643.096 105.056 645.272 105.056C646.328 105.056 647.016 105.664 647.016 107.152V112H648.376V106.832C648.376 105.072 647.576 103.856 645.608 103.856C643.896 103.856 643.128 105.072 643.016 105.424V104.08H641.688V112ZM653.946 112.224C655.434 112.224 656.762 111.552 657.354 109.936L656.106 109.504C655.898 110.016 655.338 111.04 653.994 111.04C652.89 111.04 651.786 110.4 651.706 108.4H657.29C657.594 105.808 656.17 103.856 653.866 103.856C651.85 103.856 650.362 105.472 650.362 108.08C650.362 110.768 651.786 112.224 653.946 112.224ZM651.738 107.264C651.85 105.824 652.826 104.976 653.866 104.976C654.954 104.976 655.898 105.76 655.898 107.264H651.738ZM659.469 112H660.829V108.368C660.829 106.512 661.565 105.376 663.357 105.376C663.677 105.376 663.949 105.408 664.205 105.456V104.064C664.013 104.016 663.773 103.968 663.389 103.968C661.885 103.968 661.069 105.136 660.813 105.728V104.08H659.469V112ZM669.516 112H670.876V108.368C670.876 106.512 671.612 105.376 673.404 105.376C673.724 105.376 673.996 105.408 674.252 105.456V104.064C674.06 104.016 673.82 103.968 673.436 103.968C671.932 103.968 671.116 105.136 670.86 105.728V104.08H669.516V112ZM678.359 112.224C679.751 112.224 680.519 111.456 680.903 110.784V112H682.231V104.08H680.871V105.312C680.487 104.64 679.751 103.856 678.359 103.856C676.535 103.856 675.143 105.44 675.143 108.048C675.143 110.656 676.535 112.224 678.359 112.224ZM678.711 111.024C677.447 111.024 676.535 110.272 676.535 108.064C676.535 105.856 677.447 105.056 678.711 105.056C680.007 105.056 680.951 106.064 680.951 108.064C680.951 110.064 680.007 111.024 678.711 111.024ZM687.547 112.224C688.939 112.224 689.707 111.456 690.091 110.784V112H691.419V100.8H690.059V103.76V105.312C689.675 104.64 688.939 103.856 687.547 103.856C685.723 103.856 684.331 105.44 684.331 108.048C684.331 110.656 685.723 112.224 687.547 112.224ZM687.899 111.024C686.635 111.024 685.723 110.272 685.723 108.064C685.723 105.856 686.635 105.056 687.899 105.056C689.195 105.056 690.139 106.064 690.139 108.064C690.139 110.064 689.195 111.024 687.899 111.024ZM694.062 102.528H695.502V100.8H694.062V102.528ZM694.11 112H695.47V104.08H694.11V112ZM700.685 112.224C702.333 112.224 703.085 111.056 703.325 110.624V112H704.653V104.08H703.293V107.44C703.293 108.656 703.261 111.024 701.117 111.024C700.077 111.024 699.405 110.416 699.405 108.928V104.08H698.045V109.248C698.045 111.008 698.829 112.224 700.685 112.224ZM710.016 112.224C712.016 112.224 713.168 111.28 713.168 109.792C713.168 107.984 711.296 107.504 710.496 107.344L709.584 107.168C708.448 106.944 708.192 106.624 708.192 106.096C708.192 105.52 708.704 104.976 709.808 104.976C711.152 104.976 711.6 105.824 711.792 106.352L713.024 105.904C712.704 104.864 711.776 103.856 709.808 103.856C708.256 103.856 706.912 104.816 706.912 106.24C706.912 107.744 708.064 108.24 709.376 108.496L710.288 108.672C711.44 108.896 711.808 109.312 711.808 109.904C711.808 110.656 711.168 111.056 710.016 111.056C708.768 111.056 708.128 110.464 707.888 109.52L706.576 109.952C706.928 111.472 708.4 112.224 710.016 112.224Z" fill="#6E6E78"/><path d="M415 262.5C415 263.052 415.448 263.5 416 263.5C416.552 263.5 417 263.052 417 262.5L415 262.5ZM416.707 192.293C416.317 191.902 415.683 191.902 415.293 192.293L408.929 198.657C408.538 199.047 408.538 199.681 408.929 200.071C409.319 200.462 409.953 200.462 410.343 200.071L416 194.414L421.657 200.071C422.047 200.462 422.681 200.462 423.071 200.071C423.462 199.681 423.462 199.047 423.071 198.657L416.707 192.293ZM417 262.5L417 193L415 193L415 262.5L417 262.5Z" fill="#DA372C"/><path d="M424 214.5L424 213.5L424 214.5ZM532 214.5L532 215.5L532 214.5ZM540 206.5L539 206.5L540 206.5ZM540.707 191.293C540.317 190.902 539.683 190.902 539.293 191.293L532.929 197.657C532.538 198.047 532.538 198.681 532.929 199.071C533.319 199.462 533.953 199.462 534.343 199.071L540 193.414L545.657 199.071C546.047 199.462 546.681 199.462 547.071 199.071C547.462 198.681 547.462 198.047 547.071 197.657L540.707 191.293ZM416 222.5L415 222.5L416 222.5ZM415 250L415 251L417 251L417 250H415ZM424 215.5L532 215.5L532 213.5L424 213.5L424 215.5ZM541 206.5L541 192L539 192L539 206.5L541 206.5ZM415 222.5L415 250H417L417 222.5L415 222.5ZM532 215.5C536.971 215.5 541 211.471 541 206.5L539 206.5C539 210.366 535.866 213.5 532 213.5L532 215.5ZM424 213.5C419.029 213.5 415 217.529 415 222.5L417 222.5C417 218.634 420.134 215.5 424 215.5L424 213.5Z" fill="#DA372C"/><path d="M432.256 264.68H433.456V263.208C435.728 263.032 436.976 261.72 436.976 259.896C436.976 258.2 435.712 257.24 433.936 256.792L433.456 256.664V252.952C434.752 253.208 435.264 254.2 435.472 254.792L436.8 254.136C436.512 253.192 435.472 251.832 433.456 251.608V250.12H432.256V251.608C430.352 251.832 429.088 253.064 429.088 254.712C429.088 256.568 430.24 257.384 431.888 257.736L432.256 257.816V261.848C431.008 261.576 430.256 260.664 429.888 259.544L428.528 260.2C429.024 261.768 430.288 262.952 432.256 263.192V264.68ZM432.256 256.392C431.008 256.072 430.464 255.592 430.464 254.632C430.464 253.72 431.136 253.032 432.256 252.904V254.968V256.392ZM433.456 261.912V259.848V258.088C434.848 258.408 435.52 259.032 435.52 260.024C435.52 261.064 434.768 261.784 433.456 261.912ZM441.672 263.224C443.672 263.224 444.824 262.28 444.824 260.792C444.824 258.984 442.952 258.504 442.152 258.344L441.24 258.168C440.104 257.944 439.848 257.624 439.848 257.096C439.848 256.52 440.36 255.976 441.464 255.976C442.808 255.976 443.256 256.824 443.448 257.352L444.68 256.904C444.36 255.864 443.432 254.856 441.464 254.856C439.912 254.856 438.568 255.816 438.568 257.24C438.568 258.744 439.72 259.24 441.032 259.496L441.944 259.672C443.096 259.896 443.464 260.312 443.464 260.904C443.464 261.656 442.824 262.056 441.672 262.056C440.424 262.056 439.784 261.464 439.544 260.52L438.232 260.952C438.584 262.472 440.056 263.224 441.672 263.224ZM446.86 266.12H448.22V263.32V261.768C448.604 262.44 449.34 263.224 450.732 263.224C452.556 263.224 453.948 261.64 453.948 259.032C453.948 256.424 452.556 254.856 450.732 254.856C449.34 254.856 448.572 255.624 448.188 256.296V255.08H446.86V266.12ZM450.38 262.024C449.084 262.024 448.14 261.016 448.14 259.016C448.14 257.016 449.084 256.056 450.38 256.056C451.644 256.056 452.556 256.808 452.556 259.016C452.556 261.224 451.644 262.024 450.38 262.024ZM458.671 263.224C460.063 263.224 460.831 262.456 461.215 261.784V263H462.543V255.08H461.183V256.312C460.799 255.64 460.063 254.856 458.671 254.856C456.847 254.856 455.455 256.44 455.455 259.048C455.455 261.656 456.847 263.224 458.671 263.224ZM459.023 262.024C457.759 262.024 456.847 261.272 456.847 259.064C456.847 256.856 457.759 256.056 459.023 256.056C460.319 256.056 461.263 257.064 461.263 259.064C461.263 261.064 460.319 262.024 459.023 262.024ZM468.387 263.224C470.163 263.224 471.315 262.184 471.827 260.712L470.547 260.264C470.291 261.128 469.699 262.024 468.387 262.024C467.075 262.024 466.051 261.064 466.051 259.032C466.051 257.048 467.107 256.056 468.371 256.056C469.523 256.056 470.099 256.808 470.355 257.56L471.619 257.144C471.251 255.912 470.163 254.856 468.371 254.856C466.179 254.856 464.627 256.584 464.627 259.032C464.627 261.592 466.099 263.224 468.387 263.224ZM473.593 253.528H475.033V251.8H473.593V253.528ZM473.641 263H475.001V255.08H473.641V263ZM477.688 263H479.048V259.64C479.048 258.472 479.096 256.056 481.272 256.056C482.328 256.056 483.016 256.664 483.016 258.152V263H484.376V257.832C484.376 256.072 483.576 254.856 481.608 254.856C479.896 254.856 479.128 256.072 479.016 256.424V255.08H477.688V263ZM488.233 266.12H491.929C493.273 266.12 494.409 265.416 494.409 263.944C494.409 262.616 493.417 261.752 491.897 261.752H488.441C487.881 261.752 487.769 261.464 487.769 261.208C487.769 260.92 488.057 260.616 488.489 260.424C488.921 260.68 489.417 260.728 489.961 260.728C491.721 260.728 492.921 259.56 493.049 257.768L493.081 257.336C493.145 256.408 493.417 256.232 494.137 256.232H494.745V255.08H493.897C493.129 255.08 492.761 255.608 492.601 256.216C492.265 255.656 491.433 254.856 489.961 254.856C488.137 254.856 486.809 256.152 486.809 257.8C486.809 258.792 487.241 259.512 487.689 259.912C487.177 260.28 486.521 260.808 486.521 261.592C486.521 262.216 486.777 262.584 487.225 262.856C486.745 263.128 486.169 263.72 486.169 264.52C486.169 265.448 486.713 266.12 488.233 266.12ZM489.961 259.608C488.889 259.608 488.185 258.888 488.185 257.8C488.185 256.712 488.889 255.976 489.961 255.976C491.033 255.976 491.737 256.712 491.737 257.8C491.737 258.888 491.033 259.608 489.961 259.608ZM488.697 264.904C487.865 264.904 487.417 264.728 487.417 264.072C487.417 263.528 487.769 263.176 488.041 263H491.785C492.409 263 493.033 263.128 493.033 263.944C493.033 264.76 492.409 264.904 491.785 264.904H488.697ZM495.901 258.776H500.317V257.336H495.901V258.776ZM501.367 263H502.855L503.863 261.496L504.871 259.976C505.095 260.328 505.271 260.6 505.863 261.496L506.855 263H508.487L505.735 258.968L508.327 255.08H506.823L505.959 256.44C505.351 257.384 505.159 257.672 504.935 257.992C504.743 257.672 504.567 257.384 503.975 256.44L503.111 255.08H501.527L504.087 258.952L501.367 263ZM512.813 263.224C514.813 263.224 515.965 262.28 515.965 260.792C515.965 258.984 514.093 258.504 513.293 258.344L512.381 258.168C511.245 257.944 510.989 257.624 510.989 257.096C510.989 256.52 511.501 255.976 512.605 255.976C513.949 255.976 514.397 256.824 514.589 257.352L515.821 256.904C515.501 255.864 514.573 254.856 512.605 254.856C511.053 254.856 509.709 255.816 509.709 257.24C509.709 258.744 510.861 259.24 512.173 259.496L513.085 259.672C514.237 259.896 514.605 260.312 514.605 260.904C514.605 261.656 513.965 262.056 512.813 262.056C511.565 262.056 510.925 261.464 510.685 260.52L509.373 260.952C509.725 262.472 511.197 263.224 512.813 263.224Z" fill="#6E6E78"/></svg>