<svg viewBox="0 0 48 48" fill="none" xmlns="http://www.w3.org/2000/svg"><circle cx="24" cy="24" r="24" fill="#FFC61C"/><path d="M28.8507 13.7423C29.1365 12.6754 28.5034 11.5787 27.4364 11.2928 26.3695 11.0069 25.2728 11.6401 24.987 12.707L19.2929 33.9574C19.0071 35.0243 19.6402 36.121 20.7072 36.4069 21.7741 36.6928 22.8708 36.0596 23.1566 34.9927L28.8507 13.7423zM15.9141 20.4142C16.6952 19.6332 16.6952 18.3668 15.9141 17.5858 15.1331 16.8047 13.8668 16.8047 13.0857 17.5858L8.93926 21.7322C7.96295 22.7085 7.96296 24.2915 8.93926 25.2678L13.0857 29.4142C13.8668 30.1953 15.1331 30.1953 15.9141 29.4142 16.6952 28.6332 16.6952 27.3668 15.9141 26.5858L12.8284 23.5 15.9141 20.4142zM31.5859 20.4142C30.8048 19.6332 30.8048 18.3668 31.5859 17.5858 32.3669 16.8047 33.6332 16.8047 34.4143 17.5858L38.5607 21.7322C39.537 22.7085 39.537 24.2915 38.5607 25.2678L34.4143 29.4142C33.6332 30.1953 32.3669 30.1953 31.5859 29.4142 30.8048 28.6332 30.8048 27.3668 31.5859 26.5858L34.6716 23.5 31.5859 20.4142z" fill="#fff" stroke="#1D1D21" stroke-width="2" stroke-linecap="round"/></svg>