<svg viewBox="0 0 48 48" fill="none" xmlns="http://www.w3.org/2000/svg"><circle cx="24" cy="24" r="24" fill="#65ADB7"/><path d="M12 16C12 15.4477 12.4477 15 13 15H29C29.5523 15 30 15.4477 30 16V20C30 20.5523 29.5523 21 29 21H13C12.4477 21 12 20.5523 12 20V16zM12 23C12 22.4477 12.4477 22 13 22H35C35.5523 22 36 22.4477 36 23V32C36 32.5523 35.5523 33 35 33H13C12.4477 33 12 32.5523 12 32V23z" fill="#fff"/><path fill-rule="evenodd" clip-rule="evenodd" d="M14 17V19H28V17H14zM13 15C12.4477 15 12 15.4477 12 16V20C12 20.5523 12.4477 21 13 21H29C29.5523 21 30 20.5523 30 20V16C30 15.4477 29.5523 15 29 15H13zM14 24V31H34V24H14zM13 22C12.4477 22 12 22.4477 12 23V32C12 32.5523 12.4477 33 13 33H35C35.5523 33 36 32.5523 36 32V23C36 22.4477 35.5523 22 35 22H13z" fill="#1D1D21"/></svg>