<svg width="48" height="48" viewBox="0 0 48 48" fill="none" xmlns="http://www.w3.org/2000/svg">
<circle cx="24" cy="24" r="24" fill="#E5E9F9"/>
<g clip-path="url(#clip0)">
<rect x="20.001" y="13" width="8" height="22" fill="white"/>
<path d="M29.001 16H32.001L31.501 18.5L29.001 19V16Z" fill="white"/>
<path d="M29.001 16H32.001L31.501 18.5L29.001 19V16Z" fill="white"/>
<path d="M29.001 22L32.501 22.5L31.501 25.3333L29.001 26V22Z" fill="white"/>
<path d="M29.001 29L32.501 29.5L31.501 32.3333L29.001 33V29Z" fill="white"/>
<path d="M19.001 29H15.501L17.001 32H19.001V29Z" fill="white"/>
<path d="M19.001 22.5H15.501L17.001 25.5H19.001V22.5Z" fill="white"/>
<path d="M19.001 16H15.501L17.001 19H19.001V16Z" fill="white"/>
<path d="M30.9666 26.586C31.2135 26.586 31.4424 26.4563 31.5695 26.2446L33.8288 22.479C33.9591 22.2617 33.9626 21.9912 33.8377 21.7708C33.713 21.5503 33.4792 21.4141 33.2259 21.4141H29.4103V19.9961H30.9665C31.2135 19.9961 31.4423 19.8665 31.5694 19.6547L33.8288 15.8891C33.9591 15.6719 33.9626 15.4014 33.8377 15.1809C33.7129 14.9605 33.4792 14.8243 33.2258 14.8243H29.4103V14.2094C29.4104 12.9911 28.4192 12 27.2009 12H20.7994C19.5812 12 18.59 12.9911 18.59 14.2094V14.8242H14.7744C14.5211 14.8242 14.2874 14.9605 14.1626 15.1809C14.0377 15.4013 14.0412 15.6719 14.1715 15.8891L16.4309 19.6547C16.5579 19.8665 16.7868 19.9961 17.0338 19.9961H18.59V21.414H14.7744C14.5211 21.414 14.2874 21.5503 14.1626 21.7707C14.0377 21.9912 14.0412 22.2617 14.1715 22.4789L16.4309 26.2445C16.5579 26.4563 16.7868 26.5859 17.0338 26.5859H18.59V28.0039H14.7744C14.5211 28.0039 14.2874 28.1401 14.1626 28.3605C14.0377 28.581 14.0412 28.8515 14.1715 29.0687L16.4309 32.8343C16.5579 33.0461 16.7868 33.1757 17.0338 33.1757H18.59V33.7906C18.59 35.0088 19.5811 36 20.7994 36H27.2009C28.4191 36 29.4103 35.0088 29.4103 33.7906V33.1758H30.9665C31.2135 33.1758 31.4423 33.0462 31.5694 32.8344L33.8288 29.0688C33.9591 28.8516 33.9626 28.581 33.8377 28.3606C33.7129 28.1401 33.4792 28.0039 33.2258 28.0039H29.4103V26.586H30.9666ZM29.4103 16.2305H31.9841L30.5684 18.5898H29.4103V16.2305ZM29.4103 22.8203H31.9841L30.5684 25.1797H29.4103V22.8203ZM18.59 31.7695H17.4319L16.0163 29.4102H18.59V31.7695ZM18.59 25.1797H17.4319L16.0163 22.8203H18.59V25.1797ZM18.59 18.5898H17.4319L16.0163 16.2305H18.59V18.5898ZM28.0041 33.7906C28.0041 34.2335 27.6438 34.5938 27.2009 34.5938H20.7994C20.3566 34.5938 19.9963 34.2335 19.9963 33.7906V14.2094C19.9963 13.7665 20.3566 13.4062 20.7994 13.4062H27.2009C27.6438 13.4062 28.0041 13.7665 28.0041 14.2094V33.7906ZM31.9841 29.4102L30.5684 31.7695H29.4103V29.4102H31.9841Z" fill="#1D1D21"/>
<path d="M24.001 28.0039C22.5751 28.0039 21.415 29.164 21.415 30.5899C21.415 32.0158 22.5751 33.1758 24.001 33.1758C25.4269 33.1758 26.587 32.0157 26.587 30.5898C26.587 29.1639 25.4269 28.0039 24.001 28.0039ZM24.001 31.7695C23.3505 31.7695 22.8213 31.2403 22.8213 30.5898C22.8213 29.9393 23.3505 29.4101 24.001 29.4101C24.6515 29.4101 25.1807 29.9393 25.1807 30.5898C25.1807 31.2403 24.6515 31.7695 24.001 31.7695Z" fill="#1D1D21"/>
<path d="M24.001 21.4141C22.5751 21.4141 21.415 22.5741 21.415 24C21.415 25.4259 22.5751 26.586 24.001 26.586C25.4269 26.586 26.587 25.4259 26.587 24C26.587 22.5741 25.4269 21.4141 24.001 21.4141ZM24.001 25.1797C23.3505 25.1797 22.8213 24.6505 22.8213 24C22.8213 23.3495 23.3505 22.8203 24.001 22.8203C24.6515 22.8203 25.1807 23.3495 25.1807 24C25.1807 24.6505 24.6515 25.1797 24.001 25.1797Z" fill="#1D1D21"/>
<path d="M24.001 14.8242C22.5751 14.8242 21.415 15.9843 21.415 17.4102C21.415 18.8361 22.5751 19.9961 24.001 19.9961C25.4269 19.9961 26.587 18.8361 26.587 17.4102C26.587 15.9843 25.4269 14.8242 24.001 14.8242ZM24.001 18.5898C23.3505 18.5898 22.8213 18.0606 22.8213 17.4101C22.8213 16.7596 23.3505 16.2305 24.001 16.2305C24.6515 16.2305 25.1807 16.7597 25.1807 17.4102C25.1807 18.0607 24.6515 18.5898 24.001 18.5898Z" fill="#1D1D21"/>
</g>
<defs>
<clipPath id="clip0">
<rect width="24" height="24" fill="white" transform="translate(12 12)"/>
</clipPath>
</defs>
</svg>
