<svg viewBox="0 0 48 48" fill="none" xmlns="http://www.w3.org/2000/svg"><circle cx="24" cy="24" r="24" fill="#65ADB7"/><path d="M28.9707 14.8281L33.2133 19.0708L19.0712 33.2129L14.8286 28.9703L28.9707 14.8281Z" fill="#fff"/><path d="M26.8494 16.9497L24.3745 19.4246C24.3745 19.4246 22.9603 18.7175 21.5461 19.4246L25.4352 15.5355C27.3878 13.5829 30.5536 13.5829 32.5062 15.5355C34.4589 17.4882 34.4589 20.654 32.5062 22.6066L28.9707 26.1421C27.0181 28.0948 24.021 28.2635 21.1925 25.435L21.8996 24.7279C22.2902 24.3374 22.918 24.348 23.3661 24.6709C24.9249 25.7944 26.5501 25.7343 27.5565 24.7279L31.092 21.1924C32.2636 20.0208 32.2636 18.1213 31.092 16.9497C29.9205 15.7782 28.021 15.7782 26.8494 16.9497Z" fill="#1D1D21"/><path d="M21.1925 31.0919L23.6674 28.617C23.6674 28.617 25.0816 29.3241 26.4958 28.617L22.6067 32.5061C20.6541 34.4587 17.4883 34.4587 15.5357 32.5061C13.5831 30.5535 13.5831 27.3876 15.5357 25.435L19.0712 21.8995C21.0238 19.9469 24.021 19.7782 26.8494 22.6066L26.1423 23.3137C25.7518 23.7042 25.1239 23.6936 24.6758 23.3707C23.1171 22.2473 21.4918 22.3074 20.4854 23.3137L16.9499 26.8492C15.7783 28.0208 15.7783 29.9203 16.9499 31.0919C18.1215 32.2635 20.021 32.2635 21.1925 31.0919Z" fill="#1D1D21"/></svg>