<svg viewBox="0 0 48 48" fill="none" xmlns="http://www.w3.org/2000/svg"><circle cx="24" cy="24" r="24" fill="#65ADB7"/><path d="M20.7285 20.7281L35.4815 27.1121L29.2993 28.5518L28.6933 28.6929L28.5521 29.2989L27.1124 35.4813L20.7285 20.7281Z" fill="#fff" stroke="#1D1D21" stroke-width="2"/><path d="M20.9023 17.0938C21.3234 17.0938 21.6641 16.7531 21.6641 16.332V11.7617C21.6641 11.3407 21.3234 11 20.9023 11 20.4813 11 20.1406 11.3407 20.1406 11.7617V16.332C20.1406 16.7531 20.4813 17.0938 20.9023 17.0938zM17.133 23.5942L13.9009 26.8263C13.6034 27.1238 13.6034 27.6059 13.9009 27.9034 14.1985 28.201 14.6804 28.201 14.978 27.9034L18.2101 24.6714C18.5076 24.3738 18.5076 23.8918 18.2101 23.5942 17.9125 23.2967 17.4305 23.2967 17.133 23.5942zM24.6714 18.2101L27.9034 14.978C28.201 14.6805 28.201 14.1984 27.9034 13.9009 27.6059 13.6034 27.1238 13.6034 26.8263 13.9009L23.5942 17.133C23.2967 17.4305 23.2967 17.9125 23.5942 18.2101 23.8918 18.5076 24.3738 18.5076 24.6714 18.2101zM14.978 13.9009C14.6805 13.6034 14.1984 13.6034 13.9009 13.9009 13.6034 14.1984 13.6034 14.6805 13.9009 14.978L17.133 18.2101C17.4305 18.5077 17.9125 18.5077 18.2101 18.2101 18.5076 17.9126 18.5076 17.4305 18.2101 17.133L14.978 13.9009zM17.0938 20.9023C17.0938 20.4813 16.7531 20.1406 16.332 20.1406H11.7617C11.3407 20.1406 11 20.4813 11 20.9023 11 21.3234 11.3407 21.6641 11.7617 21.6641H16.332C16.7531 21.6641 17.0938 21.3234 17.0938 20.9023z" fill="#1D1D21"/></svg>