<svg viewBox="0 0 48 48" fill="none" xmlns="http://www.w3.org/2000/svg"><circle cx="24" cy="24" r="24" fill="#65ADB7"/><path fill="#fff" d="M14 14H34V34H14z"/><path d="M19.5859 18H27.7891C28.1129 18 28.375 18.2621 28.375 18.5859V20.9297C28.375 21.1666 28.2325 21.3806 28.0134 21.471C27.7959 21.5625 27.543 21.5122 27.3748 21.3439L26.3746 20.3438H24.8594V27.2367L25.9329 28.8859C26.0524 29.0656 26.0639 29.2968 25.962 29.4873C25.8602 29.6779 25.6616 29.7969 25.4453 29.7969H21.9297C21.7134 29.7969 21.5148 29.6779 21.413 29.4873C21.3112 29.2968 21.3226 29.0656 21.4422 28.8859L22.5156 27.2367V20.3438H21.0004L20.0002 21.3439C19.8326 21.5116 19.5814 21.562 19.3616 21.471C19.1425 21.3806 19 21.1666 19 20.9297V18.5859C19 18.2621 19.2621 18 19.5859 18Z" fill="#1D1D21"/><path fill-rule="evenodd" clip-rule="evenodd" d="M16 12H12V16H13.5V32H12V36H16V34.5H32V36H36V32H34.5V16H36V12H32V13.5H16V12ZM14.5 32V16H16V14.5H32V16H33.5V32H32V33.5H16V32H14.5Z" fill="#1D1D21"/></svg>