<svg viewBox="0 0 48 48" fill="none" xmlns="http://www.w3.org/2000/svg"><circle cx="24" cy="24" r="24" fill="#FFC61C"/><path d="M24 11C16.821 11 11 16.821 11 24C11 31.179 16.821 37 24 37C25.659 37 27 35.659 27 34C27 33.2289 26.7125 32.5247 26.2232 31.9908C26.0711 31.8167 25.98 31.5934 25.98 31.3333C25.98 30.7789 26.4256 30.3333 26.98 30.3333H29.3333C33.5656 30.3333 37 26.8989 37 22.6666C37 16.1134 31.0648 11 24 11ZM16.6667 23C16.1123 23 15.6667 22.5544 15.6667 22C15.6667 21.4456 16.1123 21 16.6667 21C17.2211 21 17.6667 21.4456 17.6667 22C17.6667 22.5544 17.221 23 16.6667 23ZM20.6667 17.6667C20.1123 17.6667 19.6667 17.2211 19.6667 16.6667C19.6667 16.1123 20.1123 15.6667 20.6667 15.6667C21.2211 15.6667 21.6667 16.1123 21.6667 16.6667C21.6667 17.2211 21.221 17.6667 20.6667 17.6667ZM27.3333 17.6667C26.7789 17.6667 26.3333 17.2211 26.3333 16.6667C26.3333 16.1123 26.7789 15.6667 27.3333 15.6667C27.8877 15.6667 28.3333 16.1123 28.3333 16.6667C28.3333 17.2211 27.8877 17.6667 27.3333 17.6667ZM31.3333 23C30.7789 23 30.3333 22.5544 30.3333 22C30.3333 21.4456 30.7789 21 31.3333 21C31.8877 21 32.3333 21.4456 32.3333 22C32.3333 22.5544 31.8877 23 31.3333 23Z" fill="#fff" stroke="#1D1D21" stroke-width="2"/></svg>