<svg width="48" height="48" viewBox="0 0 48 48" fill="none" xmlns="http://www.w3.org/2000/svg">
<circle cx="24" cy="24" r="24" fill="#E5E9F9"/>
<rect x="16" y="16" width="16" height="16" fill="white"/>
<path d="M33.4141 17.5156C33.7379 17.5156 34 17.2536 34 16.9297V14.5859C34 14.2621 33.7379 14 33.4141 14H31.0703C30.7464 14 30.4844 14.2621 30.4844 14.5859V15.1719H17.5156V14.5859C17.5156 14.2578 17.2579 14 16.9297 14H14.5859C14.2578 14 14 14.2578 14 14.5859V16.9297C14 17.2578 14.2578 17.5156 14.5859 17.5156H15.1719V30.4844H14.5859C14.2621 30.4844 14 30.7464 14 31.0703V33.4141C14 33.7379 14.2621 34 14.5859 34H16.9297C17.2536 34 17.5156 33.7379 17.5156 33.4141V32.8281H30.4844V33.4141C30.4844 33.7421 30.7421 34 31.0703 34H33.4141C33.7422 34 34 33.7421 34 33.4141V31.0703C34 30.7421 33.7422 30.4844 33.4141 30.4844H32.8281V17.5156H33.4141ZM31.6562 30.4844H31.0703C30.7421 30.4844 30.4844 30.7421 30.4844 31.0703V31.6562H17.5156V31.0703C17.5156 30.7464 17.2536 30.4844 16.9297 30.4844H16.3438V17.5156H16.9297C17.2579 17.5156 17.5156 17.2578 17.5156 16.9297V16.3438H30.4844V16.9297C30.4844 17.2536 30.7464 17.5156 31.0703 17.5156H31.6562V30.4844Z" fill="#1D1D21"/>
<path d="M28.1016 18.1016H19.8984C19.5746 18.1016 19.3125 18.3636 19.3125 18.6875V21.0312C19.3125 21.2681 19.455 21.4821 19.6741 21.5725C19.8939 21.6635 20.1451 21.6132 20.3127 21.4455L21.3129 20.4453H22.8281V27.3382L21.7547 28.9875C21.6351 29.1672 21.6237 29.3984 21.7255 29.5889C21.8273 29.7795 22.0259 29.8984 22.2422 29.8984H25.7578C25.9741 29.8984 26.1727 29.7794 26.2745 29.5889C26.3764 29.3983 26.3649 29.1671 26.2454 28.9875L25.1719 27.3382V20.4453H26.6871L27.6873 21.4455C27.8555 21.6137 28.1084 21.6641 28.3259 21.5725C28.545 21.4821 28.6875 21.2681 28.6875 21.0312V18.6875C28.6875 18.3636 28.4254 18.1016 28.1016 18.1016Z" fill="#1D1D21"/>
</svg>
