<svg width="48" height="48" viewBox="0 0 48 48" fill="none" xmlns="http://www.w3.org/2000/svg">
<circle cx="24" cy="24" r="24" fill="#E5E9F9"/>
<path d="M20.7285 20.7281L35.4815 27.1121L29.2993 28.5518L28.6933 28.6929L28.5521 29.2989L27.1124 35.4813L20.7285 20.7281Z" fill="white" stroke="#1D1D21" stroke-width="2"/>
<path d="M20.9023 17.0938C21.3234 17.0938 21.6641 16.7531 21.6641 16.332V11.7617C21.6641 11.3407 21.3234 11 20.9023 11C20.4813 11 20.1406 11.3407 20.1406 11.7617V16.332C20.1406 16.7531 20.4813 17.0938 20.9023 17.0938Z" fill="#1D1D21"/>
<path d="M17.1325 23.5942L13.9004 26.8263C13.6029 27.1238 13.6029 27.6059 13.9004 27.9034C14.198 28.201 14.6799 28.201 14.9775 27.9034L18.2096 24.6714C18.5071 24.3738 18.5071 23.8918 18.2096 23.5942C17.9121 23.2967 17.43 23.2967 17.1325 23.5942Z" fill="#1D1D21"/>
<path d="M24.6719 18.2101L27.9039 14.978C28.2015 14.6805 28.2015 14.1984 27.9039 13.9009C27.6064 13.6034 27.1243 13.6034 26.8268 13.9009L23.5947 17.133C23.2972 17.4305 23.2972 17.9125 23.5947 18.2101C23.8923 18.5076 24.3743 18.5076 24.6719 18.2101Z" fill="#1D1D21"/>
<path d="M14.9775 13.9009C14.68 13.6034 14.1979 13.6034 13.9004 13.9009C13.6029 14.1984 13.6029 14.6805 13.9004 14.978L17.1325 18.2101C17.4301 18.5077 17.912 18.5077 18.2096 18.2101C18.5071 17.9126 18.5071 17.4305 18.2096 17.133L14.9775 13.9009Z" fill="#1D1D21"/>
<path d="M17.0938 20.9023C17.0938 20.4813 16.7531 20.1406 16.332 20.1406H11.7617C11.3407 20.1406 11 20.4813 11 20.9023C11 21.3234 11.3407 21.6641 11.7617 21.6641H16.332C16.7531 21.6641 17.0938 21.3234 17.0938 20.9023Z" fill="#1D1D21"/>
</svg>
