<svg width="96" height="96" viewBox="0 0 96 96" fill="none" xmlns="http://www.w3.org/2000/svg">
<rect width="96" height="96" rx="48" fill="#2D8C9E"/>
<path d="M48 19L62 27L53.3939 32.2251L67 40L57.69 45.6525L72 54L71.7563 54.1422L72 54.2873L48 68.5779L24 54.2873L24.2437 54.1422L24 54L38.31 45.6525L29 40L42.6061 32.2251L34 27L48 19Z" fill="#F5F5F6"/>
<path d="M34.1211 37.0741L41.1175 33.0762L47.9999 37.5005L54.8822 33.0762L61.8787 37.0741L47.9999 45.5005L34.1211 37.0741Z" fill="#D7D7DC"/>
<path d="M48 54.5L58 46L67 51.2245L48 62.9997L29 51.2245L38 46L48 54.5Z" fill="#D7D7DC"/>
<path d="M48 35.5L34 27V33L48 41.5V35.5Z" fill="#1D1D21"/>
<path d="M29 40L48 51.5V59L29 47.5V40Z" fill="#1D1D21"/>
<path d="M24 54L48 68V78L24 64V54Z" fill="#1D1D21"/>
<path d="M48 35.5L62 27V33L48 41.5V35.5Z" fill="#C1C1C8"/>
<path d="M67 40L48 51.5V59L67 47.5V40Z" fill="#C1C1C8"/>
<path d="M72 54L48 68V78L72 64V54Z" fill="#C1C1C8"/>
</svg>
