<svg viewBox="0 0 48 48" fill="none" xmlns="http://www.w3.org/2000/svg"><circle cx="24" cy="24" r="24" fill="#65ADB7"/><path d="M18 16C18 14.3431 19.3431 13 21 13H27C28.6569 13 30 14.3431 30 16V32C30 33.6569 28.6569 35 27 35H21C19.3431 35 18 33.6569 18 32V16Z" fill="#fff"/><path fill-rule="evenodd" clip-rule="evenodd" d="M17 16C17 13.7909 18.7909 12 21 12H27C29.2091 12 31 13.7909 31 16V32C31 34.2091 29.2091 36 27 36H21C18.7909 36 17 34.2091 17 32V16ZM21 14C19.8954 14 19 14.8954 19 16V32C19 33.1046 19.8954 34 21 34H27C28.1046 34 29 33.1046 29 32V16C29 14.8954 28.1046 14 27 14H21Z" fill="#1D1D21"/><path fill-rule="evenodd" clip-rule="evenodd" d="M24 17C23.4477 17 23 17.4477 23 18 23 18.5523 23.4477 19 24 19 24.5523 19 25 18.5523 25 18 25 17.4477 24.5523 17 24 17zM21 18C21 16.3431 22.3431 15 24 15 25.6569 15 27 16.3431 27 18 27 19.6569 25.6569 21 24 21 22.3431 21 21 19.6569 21 18zM24 23C23.4477 23 23 23.4477 23 24 23 24.5523 23.4477 25 24 25 24.5523 25 25 24.5523 25 24 25 23.4477 24.5523 23 24 23zM21 24C21 22.3431 22.3431 21 24 21 25.6569 21 27 22.3431 27 24 27 25.6569 25.6569 27 24 27 22.3431 27 21 25.6569 21 24zM24 29C23.4477 29 23 29.4477 23 30 23 30.5523 23.4477 31 24 31 24.5523 31 25 30.5523 25 30 25 29.4477 24.5523 29 24 29zM21 30C21 28.3431 22.3431 27 24 27 25.6569 27 27 28.3431 27 30 27 31.6569 25.6569 33 24 33 22.3431 33 21 31.6569 21 30z" fill="#1D1D21"/></svg>