<svg viewBox="0 0 48 48" fill="none" xmlns="http://www.w3.org/2000/svg"><circle cx="24" cy="24" r="24" fill="#65ADB7"/><path d="M15.6675 25.5659C15.1388 25.0373 14.8266 24.3303 14.792 23.5834L14.4157 15.4599C14.3885 14.8717 14.8728 14.3874 15.4609 14.4147L23.5845 14.791C24.3313 14.8256 25.0383 15.1378 25.567 15.6664L34.8711 24.9705C35.6521 25.7516 35.6521 27.0179 34.8711 27.7989L27.8 34.87C27.019 35.6511 25.7526 35.6511 24.9716 34.87L15.6675 25.5659Z" fill="#fff"/><path d="M21.436 18.6066C22.2171 19.3876 22.2171 20.6539 21.436 21.435C20.655 22.216 19.3887 22.216 18.6076 21.435C17.8266 20.6539 17.8266 19.3876 18.6076 18.6066C19.3887 17.8255 20.655 17.8255 21.436 18.6066Z" fill="#fff"/><path fill-rule="evenodd" clip-rule="evenodd" d="M13.0667 15.1961C12.9979 14.0004 13.9997 12.9987 15.1953 13.0675L23.456 13.5427C24.4134 13.5978 25.3119 13.9989 25.9845 14.6715L35.6157 24.3028C36.766 25.453 36.7487 27.3353 35.5772 28.5068L28.5061 35.5779C27.3345 36.7495 25.4523 36.7667 24.302 35.6165L14.6708 25.9853C13.9981 25.3126 13.597 24.4141 13.5419 23.4568L13.0667 15.1961ZM15.0454 15.0461L15.5206 23.3068C15.5481 23.7855 15.7487 24.2347 16.085 24.571L25.7162 34.2023C26.0997 34.5857 26.7271 34.5799 27.1176 34.1894L34.1887 27.1183C34.5792 26.7278 34.5849 26.1004 34.2015 25.717L24.5703 16.0858C24.234 15.7494 23.7847 15.5489 23.306 15.5213L15.0454 15.0461Z" fill="#1D1D21"/><path fill-rule="evenodd" clip-rule="evenodd" d="M19.3137 19.3145C18.9232 19.705 18.9232 20.3381 19.3137 20.7287C19.7042 21.1192 20.3374 21.1192 20.7279 20.7287C21.1184 20.3381 21.1184 19.705 20.7279 19.3145C20.3374 18.9239 19.7042 18.9239 19.3137 19.3145ZM17.8995 22.1429C16.7279 20.9713 16.7279 19.0718 17.8995 17.9002C19.0711 16.7287 20.9706 16.7287 22.1421 17.9002C23.3137 19.0718 23.3137 20.9713 22.1421 22.1429C20.9706 23.3145 19.0711 23.3145 17.8995 22.1429Z" fill="#1D1D21"/></svg>