<svg viewBox="0 0 48 48" fill="none" xmlns="http://www.w3.org/2000/svg"><circle cx="24" cy="24" r="24" fill="#65ADB7"/><path d="M18 22C18 18.6863 20.6863 16 24 16 27.3137 16 30 18.6863 30 22V24C30 26.6963 30.8745 29.166 32.4923 31.3231L33 32H15L15.5077 31.3231C17.1255 29.166 18 26.6963 18 24V22zM21 32H27V33C27 34.6569 25.6569 36 24 36 22.3431 36 21 34.6569 21 33V32z" fill="#fff"/><path fill-rule="evenodd" clip-rule="evenodd" d="M21 16C21 16.2587 21.0327 16.5098 21.0943 16.7493 19.249 17.7726 18 19.7404 18 22V23.8462C18 26.0125 17.4355 28.1318 16.3745 30 16.115 30.4571 15.8257 30.8991 15.5077 31.3231L15 32H21V33C21 34.6569 22.3431 36 24 36 25.6569 36 27 34.6569 27 33V32H33L32.4923 31.3231C32.1743 30.8991 31.885 30.4571 31.6255 30 30.5645 28.1318 30 26.0125 30 23.8462V22C30 19.7404 28.751 17.7726 26.9057 16.7493 26.9673 16.5098 27 16.2587 27 16 27 14.3431 25.6569 13 24 13 22.3431 13 21 14.3431 21 16zM24 16C23.6605 16 23.3275 16.0282 23.0033 16.0824 23.0011 16.0552 23 16.0277 23 16 23 15.4477 23.4477 15 24 15 24.5523 15 25 15.4477 25 16 25 16.0277 24.9989 16.0552 24.9967 16.0824 24.6725 16.0282 24.3395 16 24 16zM25 32H23V33C23 33.5523 23.4477 34 24 34 24.5523 34 25 33.5523 25 33V32zM29.3746 30C28.4744 28.0856 28 25.9856 28 23.8462V22C28 20.4298 27.0952 19.0709 25.7786 18.4162 25.2809 18.7831 24.6658 19 24 19 23.3342 19 22.7191 18.7831 22.2214 18.4162 20.9048 19.0709 20 20.4298 20 22V23.8462C20 25.9856 19.5256 28.0856 18.6253 30H29.3746zM17.7731 13.3107C18.0965 13.6994 18.0711 14.3017 17.7165 14.6561 15.8852 16.4863 14.7379 19.1195 14.7379 22.0476 14.7379 22.5736 14.3489 23 13.869 23 13.3891 23 13 22.5736 13 22.0476 13 18.5616 14.3682 15.4245 16.5455 13.2486 16.9002 12.8942 17.4498 12.922 17.7731 13.3107zM30.2269 13.3107C29.9035 13.6994 29.9289 14.3017 30.2835 14.6561 32.1148 16.4863 33.2621 19.1195 33.2621 22.0476 33.2621 22.5736 33.6511 23 34.131 23 34.6109 23 35 22.5736 35 22.0476 35 18.5616 33.6318 15.4245 31.4545 13.2486 31.0998 12.8942 30.5502 12.922 30.2269 13.3107z" fill="#1D1D21"/><path fill-rule="evenodd" clip-rule="evenodd" d="M19.84 15.35C20.105 15.7366 20.0334 16.2851 19.68 16.575 18.2814 17.7223 17.6 19.2129 17.6 21.125 17.6 21.6083 17.2418 22 16.8 22 16.3582 22 16 21.6083 16 21.125 16 18.6621 16.9185 16.6528 18.72 15.1751 19.0734 14.8851 19.5749 14.9635 19.84 15.35zM28.16 15.35C27.895 15.7366 27.9666 16.2851 28.32 16.575 29.7186 17.7223 30.4 19.2129 30.4 21.125 30.4 21.6083 30.7582 22 31.2 22 31.6418 22 32 21.6083 32 21.125 32 18.6621 31.0815 16.6528 29.28 15.1751 28.9266 14.8851 28.4251 14.9635 28.16 15.35z" fill="#1D1D21"/><path d="M25 16C25 16.5523 24.5523 17 24 17C23.4477 17 23 16.5523 23 16C23 15.4477 23.4477 15 24 15C24.5523 15 25 15.4477 25 16Z" fill="#fff"/></svg>