<svg width="48" height="48" viewBox="0 0 48 48" fill="none" xmlns="http://www.w3.org/2000/svg">
<path d="M48 24C48 37.2548 37.2548 48 24 48C10.7452 48 0 37.2548 0 24C0 10.7452 10.7452 0 24 0C37.2548 0 48 10.7452 48 24Z" fill="#FFC61C"/>
<path d="M21.9717 6.97416C21.9717 6.37837 21.4532 5.91251 20.8662 6.01409C18.1594 6.48244 15.6569 7.54692 13.4987 9.06742C13.0115 9.41069 12.9742 10.1069 13.3956 10.5284L15.6158 12.7486C15.9646 13.0973 16.5134 13.1361 16.9295 12.8712C18.1983 12.0633 19.6147 11.4665 21.1292 11.1301C21.6108 11.0232 21.9717 10.6076 21.9717 10.1143V6.97416Z" fill="white"/>
<path d="M26.8708 11.13C26.3891 11.0231 26.0282 10.6075 26.0282 10.1142V6.97407C26.0282 6.37829 26.5467 5.91243 27.1337 6.01399C29.8407 6.48229 32.3433 7.54678 34.5015 9.06732C34.9888 9.41059 35.0261 10.1068 34.6047 10.5283L32.3845 12.7485C32.0357 13.0972 31.4869 13.136 31.0708 12.8711C29.8018 12.0632 28.3853 11.4663 26.8708 11.13Z" fill="white"/>
<path d="M37.8864 21.9731C37.393 21.9731 36.9774 21.6121 36.8705 21.1304C36.5343 19.6159 35.9376 18.1995 35.1299 16.9306C34.8651 16.5145 34.9039 15.9657 35.2526 15.617L37.4729 13.3968C37.8943 12.9753 38.5906 13.0127 38.9339 13.5C40.4542 15.6582 41.5184 18.1608 41.9865 20.8676C42.088 21.4546 41.6222 21.9731 41.0264 21.9731H37.8864Z" fill="white"/>
<path d="M35.2517 32.3844C34.903 32.0356 34.8642 31.4868 35.1291 31.0707C35.9368 29.8021 36.5336 28.3861 36.87 26.872C36.977 26.3904 37.3925 26.0295 37.8858 26.0295H41.026C41.6218 26.0295 42.0877 26.548 41.9861 27.1351C41.5176 29.8415 40.4532 32.3436 38.9329 34.5015C38.5896 34.9887 37.8934 35.026 37.4719 34.6046L35.2517 32.3844Z" fill="white"/>
<path d="M26.0282 37.8859C26.0282 37.3925 26.3891 36.977 26.8708 36.87C28.3849 36.5338 29.8009 35.9373 31.0696 35.1298C31.4856 34.8649 32.0344 34.9037 32.3831 35.2524L34.6034 37.4727C35.0249 37.8942 34.9875 38.5905 34.5002 38.9337C32.3422 40.4537 29.8401 41.5179 27.1337 41.9861C26.5467 42.0876 26.0282 41.6218 26.0282 41.026V37.8859Z" fill="white"/>
<path d="M15.6172 35.2524C15.9659 34.9036 16.5147 34.8649 16.9307 35.1297C18.1993 35.9371 19.6152 36.5337 21.1292 36.8699C21.6108 36.9769 21.9717 37.3924 21.9717 37.8858V41.0259C21.9717 41.6217 21.4532 42.0876 20.8662 41.986C18.16 41.5177 15.6579 40.4536 13.5001 38.9336C13.0128 38.5904 12.9754 37.8941 13.3969 37.4726L15.6172 35.2524Z" fill="white"/>
<path d="M10.1146 26.0295C10.6079 26.0295 11.0235 26.3904 11.1305 26.872C11.4668 28.386 12.0635 29.802 12.8712 31.0706C13.1361 31.4867 13.0974 32.0355 12.7486 32.3842L10.5284 34.6044C10.1069 35.0259 9.4107 34.9885 9.06743 34.5013C7.54717 32.3435 6.48279 29.8414 6.01436 27.1351C5.91274 26.548 6.3786 26.0295 6.97442 26.0295H10.1146Z" fill="white"/>
<path d="M12.7477 15.6172C13.0965 15.9659 13.1352 16.5147 12.8704 16.9307C12.0627 18.1996 11.4661 19.616 11.1299 21.1304C11.023 21.6121 10.6075 21.9731 10.1141 21.9731H6.97399C6.37823 21.9731 5.91238 21.4546 6.0139 20.8676C6.48201 18.1608 7.54623 15.6583 9.06646 13.5001C9.40971 13.0128 10.106 12.9754 10.5275 13.3969L12.7477 15.6172Z" fill="white"/>
<path d="M10.5275 13.3969L9.82036 14.104L10.5275 13.3969ZM12.7477 15.6172L12.0406 16.3243L12.7477 15.6172ZM6.01436 27.1351L5.02901 27.3057L6.01436 27.1351ZM10.5284 34.6044L9.82128 33.8973L9.82128 33.8973L10.5284 34.6044ZM9.06743 34.5013L8.24994 35.0773L9.06743 34.5013ZM12.8712 31.0706L12.0277 31.6077L12.8712 31.0706ZM12.7486 32.3842L12.0415 31.6771L12.7486 32.3842ZM13.5001 38.9336L12.9242 39.7511L13.5001 38.9336ZM13.3969 37.4726L12.6898 36.7655L13.3969 37.4726ZM21.1292 36.8699L20.9124 37.8461L20.9124 37.8461L21.1292 36.8699ZM16.9307 35.1297L16.3937 35.9733L16.9307 35.1297ZM15.6172 35.2524L16.3243 35.9595L15.6172 35.2524ZM27.1337 41.9861L27.3042 42.9714L27.1337 41.9861ZM34.6034 37.4727L35.3105 36.7656L34.6034 37.4727ZM34.5002 38.9337L35.076 39.7512L34.5002 38.9337ZM31.0696 35.1298L30.5326 34.2861L31.0696 35.1298ZM32.3831 35.2524L31.676 35.9596L32.3831 35.2524ZM26.8708 36.87L27.0876 37.8463L26.8708 36.87ZM38.9329 34.5015L38.1154 33.9255L38.9329 34.5015ZM37.4719 34.6046L38.1791 33.8975L37.4719 34.6046ZM41.9861 27.1351L42.9714 27.3057L41.9861 27.1351ZM36.87 26.872L37.8462 27.0889L36.87 26.872ZM35.1291 31.0707L35.9727 31.6078L35.1291 31.0707ZM35.2517 32.3844L34.5446 33.0915L35.2517 32.3844ZM41.9865 20.8676L42.9719 20.6972L41.9865 20.8676ZM37.4729 13.3968L38.18 14.1039L37.4729 13.3968ZM35.1299 16.9306L35.9735 16.3936L35.1299 16.9306ZM35.2526 15.617L35.9597 16.3241L35.2526 15.617ZM36.8705 21.1304L37.8467 20.9137L36.8705 21.1304ZM32.3845 12.7485L31.6774 12.0414L32.3845 12.7485ZM31.0708 12.8711L31.6079 12.0276L31.0708 12.8711ZM34.5015 9.06732L35.0775 8.24983L34.5015 9.06732ZM34.6047 10.5283L33.8976 9.82117L34.6047 10.5283ZM27.1337 6.01399L26.9633 6.99936L27.1337 6.01399ZM26.8708 11.13L26.654 12.1063L26.8708 11.13ZM21.1292 11.1301L20.9124 10.1539L21.1292 11.1301ZM16.9295 12.8712L17.4665 13.7147L16.9295 12.8712ZM13.4987 9.06742L14.0747 9.8849L13.4987 9.06742ZM20.6957 5.02873C17.8394 5.52295 15.1989 6.64629 12.9228 8.24994L14.0747 9.8849C16.1148 8.44756 18.4794 7.44192 21.0367 6.99944L20.6957 5.02873ZM16.3229 12.0415L14.1027 9.82127L12.6885 11.2355L14.9087 13.4557L16.3229 12.0415ZM20.9124 10.1539C19.282 10.516 17.7575 11.1585 16.3924 12.0276L17.4665 13.7147C18.6392 12.9681 19.9475 12.417 21.346 12.1063L20.9124 10.1539ZM20.9717 6.97416V10.1143H22.9717V6.97416H20.9717ZM27.0282 10.1142V6.97407H25.0282V10.1142H27.0282ZM35.0775 8.24983C32.8012 6.64613 30.1607 5.52279 27.3042 5.02863L26.9633 6.99936C29.5206 7.44178 31.8854 8.44742 33.9256 9.88481L35.0775 8.24983ZM33.8976 9.82117L31.6774 12.0414L33.0916 13.4556L35.3118 11.2354L33.8976 9.82117ZM31.6079 12.0276C30.2426 11.1584 28.718 10.5159 27.0876 10.1538L26.654 12.1063C28.0526 12.4168 29.3611 12.968 30.5338 13.7147L31.6079 12.0276ZM37.8467 20.9137C37.4848 19.2833 36.8425 17.7588 35.9735 16.3936L34.2863 17.4675C35.0328 18.6402 35.5838 19.9486 35.8942 21.3471L37.8467 20.9137ZM35.9597 16.3241L38.18 14.1039L36.7658 12.6897L34.5455 14.9099L35.9597 16.3241ZM42.9719 20.6972C42.4779 17.8408 41.3548 15.2003 39.7514 12.9241L38.1163 14.0759C39.5535 16.1161 40.5589 18.4807 41.0012 21.038L42.9719 20.6972ZM41.0264 20.9731H37.8864V22.9731H41.0264V20.9731ZM35.9727 31.6078C36.8416 30.243 37.484 28.7188 37.8462 27.0889L35.8938 26.6551C35.5831 28.0533 35.032 29.3613 34.2856 30.5337L35.9727 31.6078ZM37.8858 27.0295H41.026V25.0295H37.8858V27.0295ZM39.7504 35.0774C41.3538 32.8016 42.4771 30.1615 42.9714 27.3057L41.0007 26.9646C40.5582 29.5214 39.5526 31.8857 38.1154 33.9255L39.7504 35.0774ZM38.1791 33.8975L35.9588 31.6773L34.5446 33.0915L36.7648 35.3117L38.1791 33.8975ZM27.0876 37.8463C28.7175 37.4843 30.2416 36.8421 31.6066 35.9734L30.5326 34.2861C29.3602 35.0324 28.0522 35.5833 26.654 35.8938L27.0876 37.8463ZM31.676 35.9596L33.8963 38.1798L35.3105 36.7656L33.0902 34.5453L31.676 35.9596ZM27.3042 42.9714C30.1601 42.4774 32.8001 41.3544 35.076 39.7512L33.9243 38.1162C31.8844 39.5531 29.5201 40.5584 26.9633 41.0007L27.3042 42.9714ZM27.0282 41.026V37.8859H25.0282V41.026H27.0282ZM16.3937 35.9733C17.7585 36.842 19.2825 37.4842 20.9124 37.8461L21.346 35.8937C19.9479 35.5832 18.64 35.0323 17.4677 34.2861L16.3937 35.9733ZM20.9717 37.8858V41.0259H22.9717V37.8858H20.9717ZM12.9242 39.7511C15.2 41.3542 17.84 42.4772 20.6957 42.9713L21.0367 41.0006C18.48 40.5582 16.1158 39.5529 14.076 38.1161L12.9242 39.7511ZM14.104 38.1797L16.3243 35.9595L14.9101 34.5452L12.6898 36.7655L14.104 38.1797ZM10.1543 27.0889C10.5164 28.7188 11.1587 30.2428 12.0277 31.6077L13.7148 30.5336C12.9684 29.3612 12.4173 28.0532 12.1067 26.6551L10.1543 27.0889ZM12.0415 31.6771L9.82128 33.8973L11.2355 35.3116L13.4557 33.0914L12.0415 31.6771ZM5.02901 27.3057C5.52332 30.1615 6.64655 32.8015 8.24994 35.0773L9.88491 33.9254C8.44779 31.8856 7.44226 29.5214 6.9997 26.9646L5.02901 27.3057ZM6.97442 27.0295H10.1146V25.0295H6.97442V27.0295ZM12.0268 16.3937C11.1579 17.7589 10.5156 19.2834 10.1537 20.9137L12.1062 21.3471C12.4166 19.9486 12.9676 18.6403 13.714 17.4677L12.0268 16.3937ZM10.1141 20.9731H6.97399V22.9731H10.1141V20.9731ZM8.24892 12.9242C6.64555 15.2005 5.52249 17.8409 5.02853 20.6972L6.99928 21.038C7.44152 18.4808 8.4469 16.1162 9.884 14.076L8.24892 12.9242ZM9.82036 14.104L12.0406 16.3243L13.4548 14.9101L11.2346 12.6898L9.82036 14.104ZM9.884 14.076C9.88023 14.0813 9.87141 14.0904 9.85867 14.0973C9.84722 14.1035 9.83792 14.1053 9.83266 14.1056C9.82274 14.1063 9.81852 14.1022 9.82036 14.104L11.2346 12.6898C10.405 11.8602 8.97414 11.8947 8.24892 12.9242L9.884 14.076ZM6.97399 20.9731C6.97147 20.9731 6.97735 20.9732 6.98389 20.9806C6.98737 20.9846 6.99272 20.9924 6.99641 21.0049C7.00052 21.0188 7.0004 21.0315 6.99928 21.038L5.02853 20.6972C4.81401 21.9376 5.80124 22.9731 6.97399 22.9731V20.9731ZM10.1537 20.9137C10.1481 20.9389 10.135 20.9571 10.1233 20.967C10.118 20.9715 10.1145 20.9729 10.1139 20.9731C10.1139 20.9731 10.1145 20.9731 10.1141 20.9731V22.9731C11.115 22.9731 11.9063 22.2475 12.1062 21.3471L10.1537 20.9137ZM13.714 17.4677C14.2093 16.6895 14.1622 15.6174 13.4548 14.9101L12.0406 16.3243C12.0409 16.3246 12.0406 16.3241 12.0406 16.3242C12.0409 16.3247 12.0423 16.3282 12.0429 16.3351C12.0442 16.3502 12.0406 16.3721 12.0268 16.3937L13.714 17.4677ZM6.9997 26.9646C7.00083 26.9711 7.00096 26.9837 6.99685 26.9976C6.99316 27.0101 6.98781 27.0179 6.98433 27.0219C6.97778 27.0294 6.9719 27.0295 6.97442 27.0295V25.0295C5.80156 25.0295 4.81429 26.0652 5.02901 27.3057L6.9997 26.9646ZM9.82128 33.8973C9.81944 33.8992 9.82366 33.8951 9.83357 33.8957C9.83883 33.8961 9.84814 33.8978 9.85958 33.9041C9.87232 33.911 9.88114 33.92 9.88491 33.9254L8.24994 35.0773C8.9752 36.1067 10.4059 36.1411 11.2355 35.3116L9.82128 33.8973ZM12.0277 31.6077C12.0414 31.6293 12.0451 31.6512 12.0438 31.6663C12.0432 31.6732 12.0417 31.6767 12.0415 31.6772C12.0414 31.6773 12.0418 31.6768 12.0415 31.6771L13.4557 33.0914C14.1631 32.384 14.2102 31.3117 13.7148 30.5336L12.0277 31.6077ZM12.1067 26.6551C11.9066 25.7549 11.1154 25.0295 10.1146 25.0295V27.0295C10.115 27.0295 10.1144 27.0294 10.1145 27.0294C10.1151 27.0297 10.1186 27.0311 10.1239 27.0356C10.1356 27.0454 10.1487 27.0636 10.1543 27.0889L12.1067 26.6551ZM14.076 38.1161C14.0813 38.1198 14.0903 38.1287 14.0973 38.1414C14.1035 38.1528 14.1053 38.1621 14.1056 38.1674C14.1063 38.1773 14.1022 38.1815 14.104 38.1797L12.6898 36.7655C11.8602 37.5951 11.8947 39.0259 12.9242 39.7511L14.076 38.1161ZM20.9717 41.0259C20.9717 41.0284 20.9719 41.0225 20.9793 41.016C20.9833 41.0125 20.9911 41.0072 21.0036 41.0035C21.0175 40.9994 21.0302 40.9995 21.0367 41.0006L20.6957 42.9713C21.9361 43.186 22.9717 42.1987 22.9717 41.0259H20.9717ZM20.9124 37.8461C20.9376 37.8517 20.9558 37.8648 20.9657 37.8765C20.9701 37.8818 20.9716 37.8853 20.9718 37.8859C20.9718 37.886 20.9717 37.8854 20.9717 37.8858H22.9717C22.9717 36.8849 22.2463 36.0937 21.346 35.8937L20.9124 37.8461ZM17.4677 34.2861C16.6895 33.7908 15.6174 33.8379 14.9101 34.5452L16.3243 35.9595C16.3246 35.9592 16.3241 35.9595 16.3242 35.9595C16.3247 35.9592 16.3282 35.9578 16.3351 35.9572C16.3502 35.9559 16.3721 35.9595 16.3937 35.9733L17.4677 34.2861ZM26.9633 41.0007C26.9698 40.9996 26.9824 40.9995 26.9963 41.0036C27.0088 41.0073 27.0166 41.0126 27.0206 41.0161C27.0281 41.0226 27.0282 41.0285 27.0282 41.026H25.0282C25.0282 42.1988 26.0637 43.186 27.3042 42.9714L26.9633 41.0007ZM33.8963 38.1798C33.8981 38.1816 33.894 38.1774 33.8947 38.1675C33.895 38.1622 33.8968 38.1529 33.903 38.1415C33.9099 38.1288 33.919 38.1199 33.9243 38.1162L35.076 39.7512C36.1056 39.026 36.1401 37.5952 35.3105 36.7656L33.8963 38.1798ZM31.6066 35.9734C31.6282 35.9596 31.6501 35.956 31.6652 35.9573C31.6721 35.9579 31.6755 35.9593 31.6761 35.9596C31.6762 35.9596 31.6757 35.9593 31.676 35.9596L33.0902 34.5453C32.3829 33.838 31.3108 33.7909 30.5326 34.2861L31.6066 35.9734ZM26.654 35.8938C25.7537 36.0937 25.0282 36.885 25.0282 37.8859H27.0282C27.0282 37.8855 27.0281 37.8861 27.0281 37.886C27.0284 37.8854 27.0298 37.8819 27.0343 37.8766C27.0441 37.8649 27.0623 37.8518 27.0876 37.8463L26.654 35.8938ZM38.1154 33.9255C38.1192 33.9201 38.128 33.9111 38.1407 33.9042C38.1522 33.898 38.1615 33.8962 38.1668 33.8959C38.1767 33.8952 38.1809 33.8993 38.1791 33.8975L36.7648 35.3117C37.5944 36.1412 39.0251 36.1068 39.7504 35.0774L38.1154 33.9255ZM41.026 27.0295C41.0285 27.0295 41.0226 27.0294 41.0161 27.0219C41.0126 27.0179 41.0073 27.0101 41.0036 26.9976C40.9995 26.9837 40.9996 26.9711 41.0007 26.9646L42.9714 27.3057C43.1861 26.0652 42.1989 25.0295 41.026 25.0295V27.0295ZM37.8462 27.0889C37.8518 27.0636 37.8648 27.0454 37.8765 27.0356C37.8819 27.0311 37.8853 27.0297 37.8859 27.0294C37.886 27.0294 37.8854 27.0295 37.8858 27.0295V25.0295C36.885 25.0295 36.0938 25.7549 35.8938 26.6551L37.8462 27.0889ZM34.2856 30.5337C33.7901 31.3118 33.8372 32.3841 34.5446 33.0915L35.9588 31.6773C35.9585 31.677 35.9589 31.6775 35.9589 31.6774C35.9586 31.6768 35.9572 31.6734 35.9566 31.6665C35.9553 31.6514 35.9589 31.6294 35.9727 31.6078L34.2856 30.5337ZM41.0012 21.038C41 21.0315 40.9999 21.0188 41.004 21.0049C41.0077 20.9924 41.0131 20.9846 41.0165 20.9806C41.0231 20.9732 41.029 20.9731 41.0264 20.9731V22.9731C42.1992 22.9731 43.1864 21.9376 42.9719 20.6972L41.0012 21.038ZM38.18 14.1039C38.1818 14.102 38.1776 14.1061 38.1677 14.1055C38.1624 14.1051 38.1531 14.1034 38.1417 14.0972C38.1289 14.0902 38.1201 14.0812 38.1163 14.0759L39.7514 12.9241C39.0262 11.8946 37.5953 11.8601 36.7658 12.6897L38.18 14.1039ZM35.9735 16.3936C35.9598 16.372 35.9561 16.35 35.9574 16.3349C35.958 16.328 35.9595 16.3246 35.9597 16.324C35.9598 16.324 35.9594 16.3244 35.9597 16.3241L34.5455 14.9099C33.8382 15.6172 33.791 16.6894 34.2863 17.4675L35.9735 16.3936ZM35.8942 21.3471C36.0941 22.2475 36.8854 22.9731 37.8864 22.9731V20.9731C37.886 20.9731 37.8866 20.9731 37.8865 20.9731C37.8859 20.9729 37.8824 20.9715 37.8771 20.967C37.8654 20.9571 37.8523 20.9389 37.8467 20.9137L35.8942 21.3471ZM31.6774 12.0414C31.6771 12.0417 31.6775 12.0413 31.6775 12.0413C31.6769 12.0416 31.6734 12.043 31.6666 12.0436C31.6515 12.0449 31.6295 12.0413 31.6079 12.0276L30.5338 13.7147C31.3119 14.2101 32.3842 14.163 33.0916 13.4556L31.6774 12.0414ZM33.9256 9.88481C33.9202 9.88104 33.9112 9.87221 33.9043 9.85948C33.8981 9.84803 33.8963 9.83873 33.896 9.83347C33.8953 9.82355 33.8994 9.81933 33.8976 9.82117L35.3118 11.2354C36.1413 10.4058 36.1069 8.97509 35.0775 8.24983L33.9256 9.88481ZM27.0282 6.97407C27.0282 6.97155 27.0281 6.97743 27.0206 6.98398C27.0166 6.98746 27.0088 6.99281 26.9963 6.9965C26.9824 7.00061 26.9698 7.00048 26.9633 6.99936L27.3042 5.02863C26.0637 4.81403 25.0282 5.80128 25.0282 6.97407H27.0282ZM25.0282 10.1142C25.0282 11.1151 25.7537 11.9063 26.654 12.1063L27.0876 10.1538C27.0623 10.1482 27.0441 10.1351 27.0343 10.1234C27.0298 10.1181 27.0284 10.1146 27.0281 10.114C27.0281 10.114 27.0282 10.1146 27.0282 10.1142H25.0282ZM21.346 12.1063C22.2463 11.9064 22.9717 11.1151 22.9717 10.1143H20.9717C20.9717 10.1147 20.9718 10.1141 20.9718 10.1142C20.9716 10.1148 20.9701 10.1182 20.9657 10.1236C20.9558 10.1353 20.9376 10.1483 20.9124 10.1539L21.346 12.1063ZM14.9087 13.4557C15.6161 14.1631 16.6884 14.2102 17.4665 13.7147L16.3924 12.0276C16.3708 12.0414 16.3488 12.045 16.3337 12.0437C16.3268 12.0431 16.3234 12.0417 16.3228 12.0414C16.3227 12.0414 16.3232 12.0418 16.3229 12.0415L14.9087 13.4557ZM12.9228 8.24994C11.8934 8.9752 11.859 10.4059 12.6885 11.2355L14.1027 9.82127C14.1009 9.81943 14.105 9.82365 14.1043 9.83356C14.104 9.83883 14.1022 9.84813 14.096 9.85957C14.0891 9.87231 14.08 9.88113 14.0747 9.8849L12.9228 8.24994ZM21.0367 6.99944C21.0302 7.00057 21.0175 7.00069 21.0036 6.99659C20.9911 6.99289 20.9833 6.98754 20.9793 6.98407C20.9719 6.97752 20.9717 6.97164 20.9717 6.97416H22.9717C22.9717 5.80134 21.9361 4.81409 20.6957 5.02873L21.0367 6.99944Z" fill="#1D1D21"/>
<path d="M33 24C33 28.9706 28.9706 33 24 33C19.0294 33 15 28.9706 15 24C15 19.0294 19.0294 15 24 15C28.9706 15 33 19.0294 33 24Z" fill="white"/>
<path fill-rule="evenodd" clip-rule="evenodd" d="M24 31C27.866 31 31 27.866 31 24C31 20.134 27.866 17 24 17C20.134 17 17 20.134 17 24C17 27.866 20.134 31 24 31ZM24 33C28.9706 33 33 28.9706 33 24C33 19.0294 28.9706 15 24 15C19.0294 15 15 19.0294 15 24C15 28.9706 19.0294 33 24 33Z" fill="#1D1D21"/>
</svg>
