<svg width="96" height="96" viewBox="0 0 96 96" fill="none" xmlns="http://www.w3.org/2000/svg">
<rect width="96" height="96" rx="48" fill="#E97107"/>
<path d="M19 34L41 50V78L19 59.5V34Z" fill="#1D1D21"/>
<path d="M54.0029 34.0039L65.0029 41V71.0039L54.0029 63.0039V34.0039Z" fill="#1D1D21"/>
<path d="M52.0001 42L40.9956 50V78L52.0001 70V42Z" fill="#C1C1C8"/>
<path d="M76.0001 34L64.9956 41V71.0039L76.0001 63.0039V34Z" fill="#C1C1C8"/>
<path d="M41 19L19 34L41 50L52 42L41 34L52 27L41 19Z" fill="#EBEBED"/>
<path d="M54 34L65.0029 27.5039L76 34L64.982 41.018L54 34Z" fill="#EBEBED"/>
<path d="M41 34L52 27V42L41 34Z" fill="#AEAEB4"/>
</svg>
