<svg width="48" height="48" viewBox="0 0 48 48" fill="none" xmlns="http://www.w3.org/2000/svg">
<circle cx="24" cy="24" r="24" fill="#FFC61C"/>
<path d="M22.5317 33.7063H25.2643L20.3115 20H17.0287L12 33.7063H14.6567L15.8142 30.3189H21.4121L22.5317 33.7063ZM16.5543 28.1455L17.6928 24.8364C18.2052 23.3091 18.4519 22.5846 18.6227 22.0559L19.5715 24.8168L20.6721 28.1455H16.5543Z" fill="#1D1D21"/>
<path d="M29.3204 34C30.9144 34 31.9201 33.1776 32.4894 32.2573C32.6033 33.1189 33.0208 33.7063 34.2162 33.7063H36V31.8266H35.1081C34.6147 31.8266 34.5388 31.7091 34.5388 31.2392V27.3035C34.5388 24.9147 33.1156 23.6615 30.5159 23.6615C27.8593 23.6615 26.3791 25.0909 26.1514 26.5399L28.2957 27.1077C28.5234 26.2462 29.1117 25.4825 30.5159 25.4825C31.7304 25.4825 32.2617 26.0503 32.2617 27.0098V27.3427C29.1307 27.6364 26.3032 28.4783 26.3032 31.2C26.3032 32.9231 27.5556 34 29.3204 34ZM30.0795 32.1986C29.1307 32.1986 28.6563 31.7091 28.6563 30.965C28.6563 29.5748 30.3072 29.1441 32.2617 28.9091V29.6923C32.2617 31.435 31.1991 32.1986 30.0795 32.1986Z" fill="#1D1D21"/>
<path d="M34 14.5C34 14.2239 34.2239 14 34.5 14H35.5C35.7761 14 36 14.2239 36 14.5V17.5C36 17.7761 35.7761 18 35.5 18H34.5C34.2239 18 34 17.7761 34 17.5C34 17.2239 33.7761 17 33.5 17H14.5C14.2239 17 14 17.2239 14 17.5C14 17.7761 13.7761 18 13.5 18H12.5C12.2239 18 12 17.7761 12 17.5V14.5C12 14.2239 12.2239 14 12.5 14H13.5C13.7761 14 14 14.2239 14 14.5C14 14.7761 14.2239 15 14.5 15H33.5C33.7761 15 34 14.7761 34 14.5Z" fill="#1D1D21"/>
</svg>
