<svg width="48" height="48" viewBox="0 0 48 48" fill="none" xmlns="http://www.w3.org/2000/svg">
<circle cx="24" cy="24" r="24" fill="#FFC61C"/>
<path fill-rule="evenodd" clip-rule="evenodd" d="M27.1776 12.2589C27.711 12.4019 28.0276 12.9502 27.8847 13.4837L22.1907 34.734C22.0477 35.2675 21.4994 35.5841 20.9659 35.4412C20.4325 35.2982 20.1159 34.7499 20.2588 34.2164L25.9528 12.966C26.0958 12.4326 26.6441 12.116 27.1776 12.2589Z" fill="#1D1D21"/>
<path fill-rule="evenodd" clip-rule="evenodd" d="M18.2071 18.293C18.5976 18.6835 18.5976 19.3167 18.2071 19.7072L14.4142 23.5001L18.2071 27.293C18.5976 27.6835 18.5976 28.3167 18.2071 28.7072C17.8166 29.0977 17.1834 29.0977 16.7929 28.7072L12.6464 24.5608C12.0606 23.975 12.0606 23.0252 12.6464 22.4395L16.7929 18.293C17.1834 17.9025 17.8166 17.9025 18.2071 18.293Z" fill="#1D1D21"/>
<path fill-rule="evenodd" clip-rule="evenodd" d="M29.2929 18.293C28.9024 18.6835 28.9024 19.3167 29.2929 19.7072L33.0858 23.5001L29.2929 27.293C28.9024 27.6835 28.9024 28.3167 29.2929 28.7072C29.6834 29.0977 30.3166 29.0977 30.7071 28.7072L34.8535 24.5608C35.4393 23.975 35.4393 23.0252 34.8535 22.4395L30.7071 18.293C30.3166 17.9025 29.6834 17.9025 29.2929 18.293Z" fill="#1D1D21"/>
</svg>
