<svg width="48" height="48" viewBox="0 0 48 48" fill="none" xmlns="http://www.w3.org/2000/svg">
<circle cx="24" cy="24" r="24" fill="#E5E9F9"/>
<path d="M23.3661 15.9089L23.3655 15.9083C23.1465 15.6892 22.8191 15.4705 22.3438 15.2738L23.3661 15.9089ZM23.3661 15.9089L32.7939 25.3235C32.9438 25.4848 32.9998 25.6394 32.9998 25.8285C32.9998 26.0336 32.9398 26.1739 32.8042 26.3095L32.8037 26.3101L26.3329 32.794C26.1717 32.9439 26.0169 33 25.8283 33C25.623 33 25.4827 32.9399 25.3472 32.8044L15.9089 23.3528L15.909 23.3527M23.3661 15.9089L15.909 23.3527M15.909 23.3527L15.8989 23.343M15.909 23.3527L15.8989 23.343M15.8989 23.343C15.6866 23.1361 15.4701 22.8179 15.2737 22.3435C15.076 21.8661 15 21.4832 15 21.1815V15.6898C15 15.507 15.0548 15.3627 15.2085 15.2089M15.8989 23.343L15.2085 15.2089M15.2085 15.2089C15.2086 15.2088 15.2086 15.2088 15.2087 15.2087C15.3627 15.0548 15.5072 15 15.6898 15H21.1815C21.4832 15 21.8661 15.0761 22.3438 15.2738L15.2085 15.2089Z" fill="white" stroke="#1D1D21" stroke-width="2"/>
<circle cx="20" cy="20" r="2" fill="white" stroke="#1D1D21" stroke-width="2"/>
</svg>
