<svg width="988" height="460" viewBox="0 0 988 460" fill="none" xmlns="http://www.w3.org/2000/svg" class="home-hero-rocket">
<g clip-path="url(#clip0)">
<path d="M988 279.533L401.634 254.36L122.907 243.748L105.487 243.086L96.777 242.754C93.777 242.631 90.606 242.461 87.543 242.073C69.1598 239.944 51.7324 232.739 37.213 221.264C22.6936 209.79 11.6558 194.499 5.33597 177.106C-2.99887 154.333 0.340782 129.033 7.47397 107C12.168 96.1392 18.8711 86.2627 27.231 77.8899C35.5405 69.6414 44.184 62.883 54.8408 58.0332C43.7746 63.0693 35.6213 69.9369 27.8408 78.5332C20.1758 87.076 14.9508 97.6425 10.966 108.406C6.98293 119.043 5.05712 130.341 5.29097 141.697C5.55079 152.933 7.94392 164.017 12.343 174.36C21.0821 194.919 37.1027 211.53 57.333 221.006C67.2184 225.588 77.8722 228.284 88.747 228.957C91.466 229.152 94.108 229.147 96.914 229.114L105.629 228.977L123.059 228.704L401.948 224.333L988 218.533V279.533Z" fill="#8D6E97"/>
<path d="M1050.51 353.064L398.327 276.64L120.966 247.23L103.631 245.392L94.9629 244.473L90.63 244.013C89.156 243.846 87.569 243.621 86.048 243.424C79.9178 242.529 73.878 241.099 67.9979 239.149C62.1508 237.176 56.4965 234.672 51.106 231.669C45.7392 228.687 40.649 225.233 35.896 221.347C31.1838 217.457 26.8309 213.151 22.89 208.481C15.0102 199.21 9.85908 187.984 5.84092 176.5C-2.16396 153.64 -1.83547 129.204 7.84073 107C8.46273 105.655 8.64096 104.246 9.33896 102.938L11.365 98.9907L13.602 95.1637C14.341 93.8867 15.213 92.6897 16.011 91.4507C19.3203 86.5814 23.0729 82.0287 27.221 77.8507C31.3919 73.7395 35.9052 69.9906 40.712 66.6447C45.5476 63.3922 49.561 59.9669 54.8408 57.5C49.726 60.2332 44.9731 63.4145 40.3412 66.904C35.7899 70.4507 31.7287 74.2361 27.8412 78.5C24.0227 82.7854 20.8082 87.5864 17.8412 92.5C17.1322 93.743 16.895 95.4077 16.247 96.6827L14.287 100.491L12.542 104.398C11.937 105.688 11.502 107.052 10.974 108.373C4.99428 124.218 3.59752 141.426 6.94361 158.028C10.2897 174.63 16.6903 191.208 28.3409 203.5C35.8761 211.556 45.4098 218.199 55.3409 223C60.2439 225.398 64.5833 226.036 69.8409 227.5C75.0821 228.926 82.1888 229.895 87.598 230.391C88.965 230.491 90.263 230.61 91.682 230.691L96.035 230.917L104.735 231.369L122.144 232.269L400.687 246.733L1055.06 283.252L1050.51 353.064Z" fill="#E97107"/>
<path d="M1041.82 411.928L395.319 298.479L119.946 250.6L85.6133 244.045C84.2213 243.821 82.7751 243.29 81.2811 243C80.6093 242.273 79.5963 242.89 78.8413 242.715L76.8413 242C75.4296 241.052 73.5793 241.399 72.1073 240.912C70.6353 240.425 69.1343 240.047 67.6903 239.485C61.851 237.462 56.2138 234.897 50.8523 231.824C40.1733 225.735 30.5764 218.363 22.684 208.939C14.8934 199.57 9.8518 188.506 5.84111 177C-2.11568 154.08 -1.78733 129.769 7.84171 107.5C8.46171 106.15 8.65571 104.817 9.34171 103.5L11.3081 99.1047L13.548 95.2687C14.277 93.9817 15.1601 92.7867 15.9571 91.5437C19.2639 86.6577 23.0198 82.0912 27.176 77.9037C31.3517 73.7798 35.8714 70.0195 40.6861 66.6637C45.5298 63.4042 44.5519 62.9725 49.8408 60.5C44.7152 63.2395 44.4835 63.7613 39.8417 67.2585C35.2819 70.8142 31.7332 74.2232 27.8417 78.5C24.0138 82.7943 20.807 87.5704 17.8417 92.5C17.1347 93.747 16.5931 95.215 15.9571 96.5L14.2241 100.603L12.479 104.52C11.888 105.82 11.4411 107.182 10.9151 108.506C2.92656 129.922 3.26306 153.556 11.858 174.736C20.308 195.492 36.0254 212.463 56.0741 222.477C60.9623 224.943 66.0719 226.944 71.3351 228.454C72.6291 228.885 73.975 229.144 75.289 229.499C76.603 229.854 77.9451 230.108 79.2811 230.369L81.2811 230.769C81.9511 230.886 82.6281 230.969 83.3011 231.069C84.6751 231.255 85.926 231.469 87.42 231.633L122.113 235.762L399.658 268.799L1050.5 352.564L1041.82 411.928Z" fill="#2D8C9E"/>
<path d="M1053.05 474.539L390.139 318.341L118.339 252.267L84.3638 244.007L75.8508 241.935C72.8508 241.202 69.8841 240.342 66.9508 239.357C61.0724 237.393 55.3911 234.882 49.9818 231.857C48.6311 231.097 47.2978 230.303 45.9818 229.475L42.1548 226.875L40.2478 225.575L38.4308 224.148L34.8098 221.288L31.3938 218.188L29.6938 216.635L28.0998 214.972L24.9298 211.638L21.9968 208.1C21.5138 207.506 21.0108 206.93 20.5468 206.322L19.2068 204.46C18.3248 203.211 17.4008 201.994 16.5608 200.72C14.9688 198.114 13.2668 195.582 11.9138 192.849L10.8438 190.833C10.4808 190.166 10.1308 189.491 9.83478 188.79L7.96778 184.635C7.32578 183.26 6.87278 181.806 6.31878 180.397C5.79178 178.977 5.23278 177.569 4.83178 176.107C-2.57937 153.038 -1.43452 128.071 8.05678 105.776C12.7339 94.8736 19.4232 84.9499 27.7748 76.5242C36.1417 68.289 45.874 61.568 56.5388 56.6602C46.2532 62.0761 36.9849 69.2349 29.1458 77.8182C21.4872 86.4107 15.5164 96.3695 11.5458 107.173C3.67981 128.658 3.814 152.257 11.9238 173.651C12.3618 174.982 12.9528 176.251 13.5098 177.537C14.0928 178.808 14.5718 180.124 15.2348 181.356L17.1528 185.076C17.4624 185.701 17.8046 186.308 18.1778 186.897L19.2568 188.686C20.6178 191.117 22.3068 193.336 23.8688 195.626C24.6928 196.741 25.5968 197.797 26.4528 198.885L27.7528 200.504C28.2008 201.031 28.6878 201.526 29.1528 202.038L31.9628 205.085L34.9758 207.925L36.4818 209.341L38.0818 210.648L41.2818 213.257L44.6558 215.634L46.3378 216.821L48.1058 217.885L51.6298 220.014C52.8184 220.681 54.0244 221.314 55.2478 221.914C60.155 224.322 65.2775 226.264 70.5478 227.714C73.1851 228.447 75.8518 229.067 78.5478 229.573L87.1188 231.173L121.487 237.599L396.439 289.011L1065.65 415.877L1053.05 474.539Z" fill="#FFC61C"/>
<path d="M120.721 20.5983C120.721 20.5983 119.329 17.3223 111.266 20.4048C105.941 22.4406 93.8811 27.2417 86.3052 30.2675C81.9916 31.9903 77.275 32.4296 72.7184 31.5281L62.7711 29.5602C60.8691 29.1839 58.8965 29.4319 57.1469 30.2672L52.0873 32.6828C51.1067 33.151 50.6793 34.3165 51.1248 35.3076L56.9768 48.3255L54.3363 49.9121C53.8629 50.1965 53.7097 50.8109 53.9942 51.2843L54.5202 52.1597C54.8046 52.6331 54.6514 53.2475 54.1781 53.5319L53.3209 54.0469C52.8475 54.3314 52.6943 54.9457 52.9788 55.4191L53.5218 56.3229C53.2373 56.4849 52.9495 56.6532 52.6595 56.8275C48.8723 59.1031 46.148 61.5234 46.5747 62.2335C47.0014 62.9436 50.4174 61.6746 54.2046 59.399C54.4946 59.2247 54.7783 59.0496 55.0549 58.8745L55.576 59.7416L120.721 20.5983Z" class="home-hero-rocket--rocket" />
</g>
<defs>
<clipPath id="clip0">
<path d="M0 0H924C959.346 0 988 28.6538 988 64V460H64C28.6538 460 0 431.346 0 396V0Z" fill="white"/>
</clipPath>
</defs>
</svg>
