<svg width="988" height="534" viewBox="0 0 988 534" fill="none" xmlns="http://www.w3.org/2000/svg" class="home-hero-rocket">
<g clip-path="url(#clip0)">
<path d="M988 349L445.293 326.327L166.566 315.715L149.146 315.053L140.436 314.721C137.436 314.598 134.265 314.428 131.202 314.04C112.819 311.911 95.3915 304.706 80.8722 293.231C66.3528 281.757 55.315 266.466 48.9951 249.073C40.6603 226.3 44 201 51.1332 178.967C55.8271 168.106 62.5303 158.229 70.8901 149.857C79.1996 141.608 87.8432 134.85 98.5 130C87.4338 135.036 79.2805 141.904 71.5 150.5C63.835 159.043 58.61 169.609 54.6251 180.373C50.6421 191.01 48.7163 202.307 48.9502 213.664C49.21 224.9 51.6031 235.984 56.0021 246.327C64.7413 266.886 80.7619 283.496 100.992 292.973C110.878 297.554 121.531 300.251 132.406 300.924C135.125 301.119 137.767 301.114 140.573 301.081L149.288 300.944L166.718 300.671L445.607 296.3L988 290.5V349Z" fill="#8D6E97"/>
<path d="M1094.17 425.064L441.986 348.64L164.625 319.23L147.29 317.392L138.622 316.473L134.289 316.013C132.815 315.846 131.228 315.621 129.707 315.424C123.577 314.529 117.537 313.099 111.657 311.149C105.81 309.176 100.156 306.672 94.7651 303.669C89.3983 300.687 84.3082 297.233 79.5551 293.347C74.843 289.457 70.4901 285.151 66.5491 280.481C58.6694 271.21 53.5183 259.984 49.5001 248.5C41.4952 225.64 41.8237 201.204 51.4999 179C52.1219 177.655 52.3001 176.246 52.9981 174.938L55.0241 170.991L57.2611 167.164C58.0001 165.887 58.8721 164.69 59.6701 163.451C62.9795 158.581 66.7321 154.029 70.8801 149.851C75.0511 145.739 79.5644 141.991 84.3711 138.645C89.2068 135.392 93.2202 131.967 98.5 129.5C93.3852 132.233 88.6323 135.415 84.0004 138.904C79.4491 142.451 75.3879 146.236 71.5004 150.5C67.6819 154.785 64.4674 159.586 61.5004 164.5C60.7914 165.743 60.5541 167.408 59.9061 168.683L57.9461 172.491L56.2011 176.398C55.5961 177.688 55.1611 179.052 54.6331 180.373C48.6535 196.218 47.2567 213.426 50.6028 230.028C53.9489 246.63 60.3495 263.208 72.0001 275.5C79.5353 283.556 89.069 290.199 99.0001 295C103.903 297.398 108.242 298.036 113.5 299.5C118.741 300.926 125.848 301.895 131.257 302.391C132.624 302.491 133.922 302.61 135.341 302.691L139.694 302.917L148.394 303.369L165.803 304.269L444.346 318.733L1098.72 355.252L1094.17 425.064Z" fill="#E97107"/>
<path d="M1085.48 483.928L438.978 370.479L163.605 322.6L129.272 316.045C127.88 315.821 126.434 315.29 124.94 315C124.268 314.273 123.255 314.89 122.5 314.715L120.5 314C119.089 313.052 117.238 313.399 115.766 312.912C114.294 312.425 112.793 312.047 111.349 311.485C105.51 309.462 99.873 306.897 94.5115 303.824C83.8325 297.735 74.2356 290.363 66.3432 280.939C58.5525 271.57 53.511 260.506 49.5003 249C41.5435 226.08 41.8719 201.769 51.5009 179.5C52.1209 178.15 52.3149 176.817 53.0009 175.5L54.9672 171.105L57.2072 167.269C57.9362 165.982 58.8192 164.787 59.6162 163.544C62.923 158.658 66.679 154.091 70.8352 149.904C75.0108 145.78 79.5306 142.02 84.3452 138.664C89.189 135.404 88.211 134.973 93.5 132.5C88.3744 135.239 88.1426 135.761 83.5009 139.259C78.9411 142.814 75.3924 146.223 71.5009 150.5C67.673 154.794 64.4662 159.57 61.5009 164.5C60.7939 165.747 60.2522 167.215 59.6162 168.5L57.8832 172.603L56.1382 176.52C55.5472 177.82 55.1002 179.182 54.5742 180.506C46.5857 201.922 46.9222 225.556 55.5172 246.736C63.9672 267.492 79.6845 284.463 99.7332 294.477C104.622 296.943 109.731 298.944 114.994 300.454C116.288 300.885 117.634 301.144 118.948 301.499C120.262 301.854 121.604 302.108 122.94 302.369L124.94 302.769C125.61 302.886 126.287 302.969 126.96 303.069C128.334 303.255 129.585 303.469 131.079 303.633L165.772 307.762L443.317 340.799L1094.16 424.564L1085.48 483.928Z" fill="#2D8C9E"/>
<path d="M1096.71 546.539L433.798 390.341L161.998 324.267L128.023 316.007L119.51 313.935C116.51 313.202 113.543 312.342 110.61 311.357C104.732 309.393 99.0503 306.882 93.6409 303.857C92.2903 303.097 90.9569 302.303 89.6409 301.475L85.814 298.875L83.907 297.575L82.09 296.148L78.469 293.288L75.053 290.188L73.353 288.635L71.759 286.972L68.589 283.638L65.656 280.1C65.173 279.506 64.67 278.93 64.206 278.322L62.866 276.46C61.984 275.211 61.06 273.994 60.22 272.72C58.628 270.114 56.926 267.582 55.573 264.849L54.503 262.833C54.14 262.166 53.79 261.491 53.494 260.79L51.627 256.635C50.985 255.26 50.532 253.806 49.978 252.397C49.451 250.977 48.892 249.569 48.491 248.107C41.0798 225.038 42.2247 200.071 51.716 177.776C56.3931 166.874 63.0824 156.95 71.434 148.524C79.8009 140.289 89.5332 133.568 100.198 128.66C89.9124 134.076 80.6441 141.235 72.805 149.818C65.1464 158.411 59.1756 168.369 55.205 179.173C47.339 200.658 47.4732 224.257 55.583 245.651C56.021 246.982 56.612 248.251 57.169 249.537C57.752 250.808 58.231 252.124 58.894 253.356L60.812 257.076C61.1216 257.701 61.4637 258.308 61.837 258.897L62.916 260.686C64.277 263.117 65.966 265.336 67.528 267.626C68.352 268.741 69.256 269.797 70.112 270.885L71.412 272.504C71.86 273.031 72.347 273.526 72.812 274.038L75.622 277.085L78.635 279.925L80.141 281.341L81.741 282.648L84.941 285.257L88.315 287.634L89.997 288.821L91.765 289.885L95.289 292.014C96.4776 292.681 97.6836 293.314 98.907 293.914C103.814 296.322 108.937 298.264 114.207 299.714C116.844 300.447 119.511 301.067 122.207 301.573L130.778 303.173L165.146 309.599L440.098 361.011L1109.31 487.877L1096.71 546.539Z" fill="#FFC61C"/>
<path d="M163.707 93.4159C163.707 93.4159 162.311 90.1417 154.252 93.2341C148.929 95.2765 136.875 100.093 129.303 103.128C124.992 104.856 120.276 105.301 115.718 104.405L105.768 102.45C103.866 102.076 101.893 102.326 100.145 103.164L95.0883 105.585C94.1082 106.055 93.6823 107.221 94.129 108.211L99.9971 121.222L97.3586 122.812C96.8856 123.097 96.7331 123.712 97.0182 124.185L97.5453 125.059C97.8303 125.532 97.6779 126.147 97.2048 126.432L96.3483 126.948C95.8752 127.233 95.7228 127.848 96.0079 128.321L96.552 129.224C96.2677 129.386 95.9801 129.555 95.6903 129.729C91.9059 132.01 89.1847 134.433 89.6122 135.143C90.0398 135.853 93.4542 134.579 97.2386 132.299C97.5284 132.124 97.812 131.949 98.0883 131.773L98.6104 132.64L163.707 93.4159Z" class="home-hero-rocket--rocket" />
</g>
<defs>
<clipPath id="clip0">
<path d="M0 0H924C959.346 0 988 28.6538 988 64V534H64C28.6538 534 0 505.346 0 470V0Z" fill="white"/>
</clipPath>
</defs>
</svg>
