<svg width="247" height="128" viewBox="0 0 247 128" fill="none" xmlns="http://www.w3.org/2000/svg">
<rect x="2.5" y="2" width="124" height="124" stroke="#FFDFE2" stroke-width="4"/>
<path d="M3.5 3L125.5 125" stroke="#FFDFE2" stroke-width="4" stroke-linecap="round"/>
<path d="M125.5 3L3.49999 125" stroke="#FFDFE2" stroke-width="4" stroke-linecap="round"/>
<circle cx="64.5" cy="64" r="58" stroke="#FFDFE2" stroke-width="4"/>
<rect x="96.5" y="2" width="124" height="64" rx="2" transform="rotate(90 96.5 2)" stroke="#FFDFE2" stroke-width="4"/>
<rect x="126.5" y="97" width="124" height="66" rx="3" transform="rotate(-180 126.5 97)" stroke="#FFDFE2" stroke-width="2"/>
<path d="M246.5 53.5H247V52.5H246.5V53.5ZM152.146 52.6464C151.951 52.8417 151.951 53.1583 152.146 53.3536L155.328 56.5355C155.524 56.7308 155.84 56.7308 156.036 56.5355C156.231 56.3403 156.231 56.0237 156.036 55.8284L153.207 53L156.036 50.1716C156.231 49.9763 156.231 49.6597 156.036 49.4645C155.84 49.2692 155.524 49.2692 155.328 49.4645L152.146 52.6464ZM246.5 52.5L152.5 52.5V53.5L246.5 53.5V52.5Z" fill="#DA372C"/>
<path d="M161.857 61.896H162.937V60.6H161.857V61.896ZM160.321 71.34H161.401C162.385 71.34 162.901 70.884 162.901 69.9V63.06H161.881V69.804C161.881 70.224 161.701 70.404 161.281 70.404H160.321V71.34ZM166.81 69.168C168.046 69.168 168.61 68.292 168.79 67.968V69H169.786V63.06H168.766V65.58C168.766 66.492 168.742 68.268 167.134 68.268C166.354 68.268 165.85 67.812 165.85 66.696V63.06H164.83V66.936C164.83 68.256 165.418 69.168 166.81 69.168ZM173.809 69.168C175.309 69.168 176.173 68.46 176.173 67.344C176.173 65.988 174.769 65.628 174.169 65.508L173.485 65.376C172.633 65.208 172.441 64.968 172.441 64.572C172.441 64.14 172.825 63.732 173.653 63.732C174.661 63.732 174.997 64.368 175.141 64.764L176.065 64.428C175.825 63.648 175.129 62.892 173.653 62.892C172.489 62.892 171.481 63.612 171.481 64.68C171.481 65.808 172.345 66.18 173.329 66.372L174.013 66.504C174.877 66.672 175.153 66.984 175.153 67.428C175.153 67.992 174.673 68.292 173.809 68.292C172.873 68.292 172.393 67.848 172.213 67.14L171.229 67.464C171.493 68.604 172.597 69.168 173.809 69.168ZM179.705 69H181.073V68.1H179.837C179.417 68.1 179.237 67.92 179.237 67.5V63.924H180.857V63.06H179.237V61.2H178.217V63.06H176.837V63.924H178.217V67.56C178.217 68.544 178.721 69 179.705 69ZM187.005 69.168C187.929 69.168 188.493 68.772 188.937 68.1C189.009 68.592 189.141 69 190.041 69H190.821V68.1H190.197C189.921 68.1 189.849 68.028 189.849 67.752V64.932C189.849 63.708 189.117 62.892 187.533 62.892C185.985 62.892 185.169 63.732 184.953 64.524L185.949 64.884C186.105 64.44 186.429 63.792 187.521 63.792C188.433 63.792 188.829 64.224 188.829 64.944V65.112C186.897 65.268 185.085 65.832 185.085 67.464C185.085 68.52 185.829 69.168 187.005 69.168ZM187.245 68.304C186.501 68.304 186.141 67.944 186.141 67.38C186.141 66.408 187.377 66.036 188.829 65.88V66.54C188.829 67.776 188.025 68.304 187.245 68.304ZM191.914 69H192.934V66.48C192.934 65.604 192.97 63.792 194.602 63.792C195.394 63.792 195.91 64.248 195.91 65.364V69H196.93V65.124C196.93 63.804 196.33 62.892 194.854 62.892C193.57 62.892 192.994 63.804 192.91 64.068V63.06H191.914V69ZM204.213 69.168C205.329 69.168 206.325 68.664 206.769 67.452L205.833 67.128C205.677 67.512 205.257 68.28 204.249 68.28C203.421 68.28 202.593 67.8 202.533 66.3H206.721C206.949 64.356 205.881 62.892 204.153 62.892C202.641 62.892 201.525 64.104 201.525 66.06C201.525 68.076 202.593 69.168 204.213 69.168ZM202.557 65.448C202.641 64.368 203.373 63.732 204.153 63.732C204.969 63.732 205.677 64.32 205.677 65.448H202.557ZM207.517 69H208.633L209.389 67.872L210.145 66.732C210.313 66.996 210.445 67.2 210.889 67.872L211.633 69H212.857L210.793 65.976L212.737 63.06H211.609L210.961 64.08C210.505 64.788 210.361 65.004 210.193 65.244C210.049 65.004 209.917 64.788 209.473 64.08L208.825 63.06H207.637L209.557 65.964L207.517 69ZM215.634 69.168C216.558 69.168 217.122 68.772 217.566 68.1C217.638 68.592 217.77 69 218.67 69H219.45V68.1H218.826C218.55 68.1 218.478 68.028 218.478 67.752V64.932C218.478 63.708 217.746 62.892 216.162 62.892C214.614 62.892 213.798 63.732 213.582 64.524L214.578 64.884C214.734 64.44 215.058 63.792 216.15 63.792C217.062 63.792 217.458 64.224 217.458 64.944V65.112C215.526 65.268 213.714 65.832 213.714 67.464C213.714 68.52 214.458 69.168 215.634 69.168ZM215.874 68.304C215.13 68.304 214.77 67.944 214.77 67.38C214.77 66.408 216.006 66.036 217.458 65.88V66.54C217.458 67.776 216.654 68.304 215.874 68.304ZM220.543 69H221.563V66.24C221.563 65.388 221.635 63.804 223.087 63.804C223.879 63.804 224.407 64.212 224.407 65.364V69H225.403V66.24C225.403 65.388 225.439 63.804 226.939 63.804C227.731 63.804 228.247 64.212 228.247 65.364V69H229.267V65.064C229.267 63.684 228.547 62.892 227.191 62.892C225.931 62.892 225.403 63.672 225.199 64.164C224.899 63.36 224.203 62.892 223.327 62.892C222.259 62.892 221.755 63.576 221.539 63.96V63.06H220.543V69ZM231.196 71.34H232.216V69.24V68.076C232.504 68.58 233.056 69.168 234.1 69.168C235.468 69.168 236.512 67.98 236.512 66.024C236.512 64.068 235.468 62.892 234.1 62.892C233.056 62.892 232.48 63.468 232.192 63.972V63.06H231.196V71.34ZM233.836 68.268C232.864 68.268 232.156 67.512 232.156 66.012C232.156 64.512 232.864 63.792 233.836 63.792C234.784 63.792 235.468 64.356 235.468 66.012C235.468 67.668 234.784 68.268 233.836 68.268ZM238.086 69H239.106V60.6H238.086V69ZM243.365 69.168C244.481 69.168 245.477 68.664 245.921 67.452L244.985 67.128C244.829 67.512 244.409 68.28 243.401 68.28C242.573 68.28 241.745 67.8 241.685 66.3H245.873C246.101 64.356 245.033 62.892 243.305 62.892C241.793 62.892 240.677 64.104 240.677 66.06C240.677 68.076 241.745 69.168 243.365 69.168ZM241.709 65.448C241.793 64.368 242.525 63.732 243.305 63.732C244.121 63.732 244.829 64.32 244.829 65.448H241.709Z" fill="#DA372C"/>
</svg>
