<svg width="24" height="24" viewBox="0 0 24 24" fill="none" xmlns="http://www.w3.org/2000/svg">
<path d="M12 0C5.37305 0 0 5.37305 0 12C0 17.3027 3.438 21.7998 8.20678 23.3862C8.80664 23.4961 9.02564 23.1255 9.02564 22.8091C9.02564 22.5234 9.01465 21.5771 9.00879 20.5752C5.67188 21.3003 4.96655 19.1602 4.96655 19.1602C4.42017 17.7744 3.63427 17.4053 3.63427 17.4053C2.5437 16.6611 3.717 16.6758 3.717 16.6758C4.92183 16.7593 5.55614 17.9121 5.55614 17.9121C6.62695 19.7461 8.36571 19.2158 9.04833 18.9082C9.15741 18.1348 9.46795 17.6045 9.81005 17.3057C7.14623 17.0025 4.344 15.9727 4.344 11.3745C4.344 10.0635 4.81202 8.99414 5.57812 8.15405C5.4558 7.84936 5.04272 6.62841 5.69677 4.97681C5.69677 4.97681 6.70312 4.65455 8.99705 6.20728C9.95358 5.93995 10.9797 5.80812 12 5.80371C13.0195 5.80812 14.0464 5.94141 15.0044 6.20873C17.2939 4.65455 18.3018 4.97827 18.3018 4.97827C18.958 6.63134 18.5449 7.85081 18.4219 8.15405C19.1909 8.99414 19.6553 10.0635 19.6553 11.3745C19.6553 15.9844 16.8486 16.9995 14.1753 17.2969C14.6074 17.6689 14.9898 18.3984 14.9898 19.5176C14.9898 21.1216 14.9736 22.415 14.9736 22.8105C14.9736 23.1299 15.1919 23.5034 15.7998 23.3862C20.565 21.7969 24 17.2998 24 12C24 5.37305 18.627 0 12 0Z" fill="black"/>
</svg>
