<svg width="237" height="92" viewBox="0 0 237 92" fill="none" xmlns="http://www.w3.org/2000/svg">
<rect x="0.5" y="54.5" width="180" height="37" rx="3.5" fill="white"/>
<path d="M17.474 77.196C19.896 77.196 21.31 75.782 21.744 74.214L20.47 73.738C20.106 74.914 19.406 76.006 17.474 76.006C15.444 76.006 14.086 74.354 14.086 71.988C14.086 69.622 15.458 68.194 17.474 68.194C19.448 68.194 20.176 69.538 20.428 70.336L21.73 69.888C21.338 68.586 20.008 67.004 17.474 67.004C14.646 67.004 12.728 69.16 12.728 72.002C12.728 74.844 14.408 77.196 17.474 77.196ZM25.2356 77.196C26.3136 77.196 26.9716 76.734 27.4896 75.95C27.5736 76.524 27.7276 77 28.7776 77H29.6876V75.95H28.9596C28.6376 75.95 28.5536 75.866 28.5536 75.544V72.254C28.5536 70.826 27.6996 69.874 25.8516 69.874C24.0456 69.874 23.0936 70.854 22.8416 71.778L24.0036 72.198C24.1856 71.68 24.5636 70.924 25.8376 70.924C26.9016 70.924 27.3636 71.428 27.3636 72.268V72.464C25.1096 72.646 22.9956 73.304 22.9956 75.208C22.9956 76.44 23.8636 77.196 25.2356 77.196ZM25.5156 76.188C24.6476 76.188 24.2276 75.768 24.2276 75.11C24.2276 73.976 25.6696 73.542 27.3636 73.36V74.13C27.3636 75.572 26.4256 76.188 25.5156 76.188ZM30.9631 77H32.1531V67.2H30.9631V77ZM34.4621 68.712H35.7221V67.2H34.4621V68.712ZM34.5041 77H35.6941V70.07H34.5041V77ZM38.6751 77H39.8651V71.078H41.6851V70.07H39.8651V68.95C39.8651 68.46 40.0751 68.25 40.5651 68.25H41.9371V67.2H40.4251C39.2771 67.2 38.6751 67.746 38.6751 69.034V70.07H37.1351V71.078H38.6751V77ZM45.682 77.196C47.502 77.196 48.902 75.628 48.902 73.542C48.902 71.456 47.558 69.874 45.682 69.874C43.806 69.874 42.462 71.456 42.462 73.542C42.462 75.628 43.862 77.196 45.682 77.196ZM45.682 76.146C44.506 76.146 43.694 75.306 43.694 73.556C43.694 71.806 44.506 70.924 45.682 70.924C46.858 70.924 47.67 71.806 47.67 73.556C47.67 75.306 46.858 76.146 45.682 76.146ZM50.7053 77H51.8953V73.822C51.8953 72.198 52.5393 71.204 54.1073 71.204C54.3873 71.204 54.6253 71.232 54.8493 71.274V70.056C54.6813 70.014 54.4713 69.972 54.1353 69.972C52.8193 69.972 52.1053 70.994 51.8813 71.512V70.07H50.7053V77ZM56.2561 77H57.4461V74.06C57.4461 73.038 57.4881 70.924 59.3921 70.924C60.3161 70.924 60.9181 71.456 60.9181 72.758V77H62.1081V72.478C62.1081 70.938 61.4081 69.874 59.6861 69.874C58.1881 69.874 57.5161 70.938 57.4181 71.246V70.07H56.2561V77ZM64.3215 68.712H65.5815V67.2H64.3215V68.712ZM64.3635 77H65.5535V70.07H64.3635V77ZM69.6965 77.196C70.7745 77.196 71.4325 76.734 71.9505 75.95C72.0345 76.524 72.1885 77 73.2385 77H74.1485V75.95H73.4205C73.0985 75.95 73.0145 75.866 73.0145 75.544V72.254C73.0145 70.826 72.1605 69.874 70.3125 69.874C68.5065 69.874 67.5545 70.854 67.3025 71.778L68.4645 72.198C68.6465 71.68 69.0245 70.924 70.2985 70.924C71.3625 70.924 71.8245 71.428 71.8245 72.268V72.464C69.5705 72.646 67.4565 73.304 67.4565 75.208C67.4565 76.44 68.3245 77.196 69.6965 77.196ZM69.9765 76.188C69.1085 76.188 68.6885 75.768 68.6885 75.11C68.6885 73.976 70.1305 73.542 71.8245 73.36V74.13C71.8245 75.572 70.8865 76.188 69.9765 76.188Z" fill="#1D1D21"/>
<path fill-rule="evenodd" clip-rule="evenodd" d="M161 74.3333L156.066 69.6342C155.693 69.279 155.107 69.279 154.734 69.6342C154.335 70.0147 154.335 70.652 154.734 71.0325L161 77L167.273 70.9428C167.665 70.564 167.651 69.9314 167.243 69.5698C166.879 69.2476 166.33 69.2575 165.978 69.5926L161 74.3333Z" fill="#1D1D21"/>
<rect x="0.5" y="54.5" width="180" height="37" rx="3.5" stroke="#8C8C96"/>
<path d="M4.704 41.21C7.364 41.21 8.61 39.866 8.61 38.186C8.61 36.492 7.308 35.554 5.446 35.246L4.172 35.022C3.262 34.854 2.786 34.476 2.786 33.804C2.786 33.104 3.318 32.502 4.55 32.502C5.922 32.502 6.538 33.328 6.804 34.126L8.498 33.468C8.12 32.278 6.958 30.99 4.606 30.99C2.254 30.99 0.924 32.306 0.924 33.888C0.924 35.638 2.058 36.45 3.794 36.744L5.04 36.954C6.23 37.164 6.72 37.612 6.72 38.312C6.72 39.11 6.104 39.698 4.732 39.698C3.192 39.698 2.422 38.704 2.156 37.668L0.434 38.326C0.84 39.894 2.198 41.21 4.704 41.21ZM12.7148 41H14.7868V39.6H13.3028C12.8548 39.6 12.6588 39.404 12.6588 38.956V35.358H14.5068V34.028H12.6588V31.83H10.9508V34.028H9.43884V35.358H10.9508V39.222C10.9508 40.328 11.5808 41 12.7148 41ZM17.9494 41.21C19.1254 41.21 19.8674 40.622 20.2874 39.964C20.3714 40.58 20.6794 41 21.5614 41H22.8774V39.656H22.2194C21.8554 39.656 21.7994 39.572 21.7994 39.236V36.422C21.7994 34.714 20.7494 33.818 18.8314 33.818C16.8714 33.818 15.7794 34.84 15.6114 35.876L17.1934 36.282C17.3614 35.666 17.7954 35.12 18.8314 35.12C19.7274 35.12 20.1194 35.526 20.1194 36.212V36.45C17.8094 36.66 15.7234 37.262 15.7234 39.208C15.7234 40.44 16.6474 41.21 17.9494 41.21ZM18.5094 39.922C17.8094 39.922 17.4594 39.572 17.4594 39.04C17.4594 38.046 18.6774 37.738 20.1194 37.57V38.13C20.1194 39.376 19.3354 39.922 18.5094 39.922ZM26.3457 41H28.4177V39.6H26.9337C26.4857 39.6 26.2897 39.404 26.2897 38.956V35.358H28.1377V34.028H26.2897V31.83H24.5817V34.028H23.0697V35.358H24.5817V39.222C24.5817 40.328 25.2117 41 26.3457 41ZM32.6183 41.21C34.4523 41.21 35.4323 40.258 35.8803 39.18L34.3403 38.606C34.0883 39.194 33.6263 39.866 32.6323 39.866C31.7363 39.866 30.9803 39.348 30.9103 37.934H35.8383C36.0623 35.624 34.8163 33.818 32.5903 33.818C30.6583 33.818 29.2163 35.288 29.2163 37.514C29.2163 39.838 30.5603 41.21 32.6183 41.21ZM30.9663 36.674C31.0923 35.666 31.7503 35.092 32.5903 35.092C33.4723 35.092 34.0883 35.652 34.1443 36.674H30.9663Z" fill="#1D1D21"/>
<path d="M161 1L161 0.5L160 0.5L160 1L161 1ZM160.146 60.3536C160.342 60.5488 160.658 60.5488 160.854 60.3536L164.036 57.1716C164.231 56.9763 164.231 56.6597 164.036 56.4645C163.84 56.2692 163.524 56.2692 163.328 56.4645L160.5 59.2929L157.672 56.4645C157.476 56.2692 157.16 56.2692 156.964 56.4645C156.769 56.6597 156.769 56.9763 156.964 57.1716L160.146 60.3536ZM160 1L160 60L161 60L161 1L160 1Z" fill="#DA372C"/>
<path d="M173.736 16H174.816V11.068V8.944L179.796 16H180.888V7.6H179.808V12.292V14.164L175.176 7.6H173.736V16ZM185.327 16.168C186.887 16.168 188.087 14.824 188.087 13.036C188.087 11.248 186.935 9.892 185.327 9.892C183.719 9.892 182.567 11.248 182.567 13.036C182.567 14.824 183.767 16.168 185.327 16.168ZM185.327 15.268C184.319 15.268 183.623 14.548 183.623 13.048C183.623 11.548 184.319 10.792 185.327 10.792C186.335 10.792 187.031 11.548 187.031 13.048C187.031 14.548 186.335 15.268 185.327 15.268ZM191.638 16H193.006V15.1H191.77C191.35 15.1 191.17 14.92 191.17 14.5V10.924H192.79V10.06H191.17V8.2H190.15V10.06H188.77V10.924H190.15V14.56C190.15 15.544 190.654 16 191.638 16ZM198.939 16.168C199.863 16.168 200.427 15.772 200.871 15.1C200.943 15.592 201.075 16 201.975 16H202.755V15.1H202.131C201.855 15.1 201.783 15.028 201.783 14.752V11.932C201.783 10.708 201.051 9.892 199.467 9.892C197.919 9.892 197.103 10.732 196.887 11.524L197.883 11.884C198.039 11.44 198.363 10.792 199.455 10.792C200.367 10.792 200.763 11.224 200.763 11.944V12.112C198.831 12.268 197.019 12.832 197.019 14.464C197.019 15.52 197.763 16.168 198.939 16.168ZM199.179 15.304C198.435 15.304 198.075 14.944 198.075 14.38C198.075 13.408 199.311 13.036 200.763 12.88V13.54C200.763 14.776 199.959 15.304 199.179 15.304ZM203.848 16H204.868V13.48C204.868 12.604 204.904 10.792 206.536 10.792C207.328 10.792 207.844 11.248 207.844 12.364V16H208.864V12.124C208.864 10.804 208.264 9.892 206.788 9.892C205.504 9.892 204.928 10.804 204.844 11.068V10.06H203.848V16ZM213.867 8.896H214.947V7.6H213.867V8.896ZM213.903 16H214.923V10.06H213.903V16ZM219.302 16.168C220.634 16.168 221.498 15.388 221.882 14.284L220.922 13.948C220.73 14.596 220.286 15.268 219.302 15.268C218.318 15.268 217.55 14.548 217.55 13.024C217.55 11.536 218.342 10.792 219.29 10.792C220.154 10.792 220.586 11.356 220.778 11.92L221.726 11.608C221.45 10.684 220.634 9.892 219.29 9.892C217.646 9.892 216.482 11.188 216.482 13.024C216.482 14.944 217.586 16.168 219.302 16.168ZM225.534 16.168C227.094 16.168 228.294 14.824 228.294 13.036C228.294 11.248 227.142 9.892 225.534 9.892C223.926 9.892 222.774 11.248 222.774 13.036C222.774 14.824 223.974 16.168 225.534 16.168ZM225.534 15.268C224.526 15.268 223.83 14.548 223.83 13.048C223.83 11.548 224.526 10.792 225.534 10.792C226.542 10.792 227.238 11.548 227.238 13.048C227.238 14.548 226.542 15.268 225.534 15.268ZM229.84 16H230.86V13.48C230.86 12.604 230.896 10.792 232.528 10.792C233.32 10.792 233.836 11.248 233.836 12.364V16H234.856V12.124C234.856 10.804 234.256 9.892 232.78 9.892C231.496 9.892 230.92 10.804 230.836 11.068V10.06H229.84V16Z" fill="#DA372C"/>
</svg>
