<svg width="90" height="116" viewBox="0 0 90 116" fill="none" xmlns="http://www.w3.org/2000/svg">
<path d="M0 34.9062L34 60V105L0 76V34.9062Z" fill="#1D1D21"/>
<path d="M55 35L72 46V94L55 82V35Z" fill="#1D1D21"/>
<path d="M52 47L34 60V105L52 92V47Z" fill="#C1C1C8"/>
<path d="M90 35L72 46V94L90 81.9985V35Z" fill="#C1C1C8"/>
<path d="M34 12L0 35L34 60L52 47L34 35L49 25L34 12Z" fill="#EBEBED"/>
<path d="M55 35L72 25L90 35L72 46L55 35Z" fill="#EBEBED"/>
<path d="M34 35L49 25V45L34 35Z" fill="#AEAEB4"/>
</svg>
