<svg width="90" height="116" viewBox="0 0 90 116" fill="none" xmlns="http://www.w3.org/2000/svg">
<path d="M45 3L71.25 18.0067L55.1136 27.8081L80.625 42.3926L63.1687 52.9957L90 68.6543L89.543 68.9209L90 69.1931L45 96L0 69.1931L0.456953 68.9209L0 68.6543L26.8313 52.9957L9.375 42.3926L34.8864 27.8081L18.75 18.0067L45 3Z" fill="#F5F5F6"/>
<path d="M19.5684 37.4819L32.6406 30L45.4998 38.2799L58.3589 30L71.4312 37.4819L45.4998 53.2514L19.5684 37.4819Z" fill="#D7D7DC"/>
<path d="M45.5 70.0934L64.1842 54.1861L81 63.9635L45.5 86L10 63.9635L26.8158 54.1861L45.5 70.0934Z" fill="#D7D7DC"/>
<path d="M45 34L18.75 18V29.2941L45 45.2941V34Z" fill="#1D1D21"/>
<path d="M9.375 42.4706L45 64.1176V78.2353L9.375 56.5882V42.4706Z" fill="#1D1D21"/>
<path d="M0 68.8235L45 95.1765V114L0 87.6471V68.8235Z" fill="#1D1D21"/>
<path d="M45 34L71.25 18V29.2941L45 45.2941V34Z" fill="#C1C1C8"/>
<path d="M80.625 42.4706L45 64.1176V78.2353L80.625 56.5882V42.4706Z" fill="#C1C1C8"/>
<path d="M90 68.8235L45 95.1765V114L90 87.6471V68.8235Z" fill="#C1C1C8"/>
</svg>
