<svg width="36" height="36" viewBox="0 0 36 36" fill="none" xmlns="http://www.w3.org/2000/svg">
<path d="M18.0691 10.497C18.6193 10.497 19.0653 10.9422 19.0653 11.4913V15.9779H23.7126C24.972 15.9779 25.993 16.9969 25.993 18.2538V18.9608C25.993 19.5099 25.547 19.9551 24.9968 19.9551C24.4466 19.9551 24.0006 19.5099 24.0006 18.9608V18.2538C24.0006 18.0951 23.8717 17.9665 23.7126 17.9665H19.0653V22.7956C19.0653 23.3448 18.6193 23.7899 18.0691 23.7899C17.5189 23.7899 17.0729 23.3448 17.0729 22.7956V17.9665H12.2737C12.1146 17.9665 11.9857 18.0951 11.9857 18.2538V18.9252C11.9857 19.4743 11.5397 19.9195 10.9895 19.9195C10.4393 19.9195 9.99331 19.4743 9.99331 18.9252V18.2538C9.99331 16.9969 11.0143 15.9779 12.2737 15.9779H17.0729V11.4913C17.0729 10.9422 17.5189 10.497 18.0691 10.497Z" fill="#C1C9F6"/>
<path d="M18.0691 30.5C19.7197 30.5 21.0577 29.1645 21.0577 27.5171C21.0577 25.8697 19.7197 24.5342 18.0691 24.5342C16.4185 24.5342 15.0805 25.8697 15.0805 27.5171C15.0805 29.1645 16.4185 30.5 18.0691 30.5Z" fill="#C1C9F6"/>
<path d="M13.9773 23.6721C13.9773 25.3195 12.6392 26.655 10.9886 26.655C9.33806 26.655 8 25.3195 8 23.6721C8 22.0247 9.33806 20.6892 10.9886 20.6892C12.6392 20.6892 13.9773 22.0247 13.9773 23.6721Z" fill="#C1C9F6"/>
<path d="M25.0114 26.655C26.6619 26.655 28 25.3195 28 23.6721C28 22.0247 26.6619 20.6892 25.0114 20.6892C23.3608 20.6892 22.0227 22.0247 22.0227 23.6721C22.0227 25.3195 23.3608 26.655 25.0114 26.655Z" fill="#C1C9F6"/>
<circle cx="18" cy="9.25" r="3.75" fill="#3F59E4"/>
</svg>
