<svg width="14" height="14" viewBox="0 0 14 14" fill="none" xmlns="http://www.w3.org/2000/svg">
<g clip-path="url(#clip0)">
<path fill-rule="evenodd" clip-rule="evenodd" d="M2.67504 0.341709C3.13066 -0.113903 3.86934 -0.113903 4.32496 0.341709L6.65829 2.67504C7.1139 3.13066 7.1139 3.86934 6.65829 4.32496C6.20268 4.78057 5.46399 4.78057 5.00837 4.32496L4.66667 3.98325V11.6667C4.66667 12.311 4.14433 12.8333 3.5 12.8333C2.85567 12.8333 2.33333 12.311 2.33333 11.6667V3.98325L1.99163 4.32496C1.53601 4.78057 0.79732 4.78057 0.341709 4.32496C-0.113903 3.86934 -0.113903 3.13066 0.341709 2.67504L2.67504 0.341709Z" fill="black"/>
<path fill-rule="evenodd" clip-rule="evenodd" d="M10.5 14C10.1906 14 9.89383 13.877 9.67504 13.6583L7.3417 11.325C6.8861 10.8693 6.8861 10.1307 7.3417 9.67504C7.79732 9.21943 8.53601 9.21943 8.99163 9.67504L9.33333 10.0168V2.33333C9.33333 1.689 9.85567 1.16667 10.5 1.16667C11.1443 1.16667 11.6667 1.689 11.6667 2.33333V10.0168L12.0084 9.67504C12.464 9.21943 13.2027 9.21943 13.6583 9.67504C14.1139 10.1307 14.1139 10.8693 13.6583 11.325L11.325 13.6583C11.1062 13.877 10.8094 14 10.5 14Z" fill="black"/>
</g>
<defs>
<clipPath id="clip0">
<rect width="14" height="14" fill="white"/>
</clipPath>
</defs>
</svg>
