<svg role="presentation" width="48" height="48" viewBox="0 0 48 48" fill="none" xmlns="http://www.w3.org/2000/svg">
<path d="M17.0012 45C20.8644 45 23.9997 41.864 23.9997 38V31H17.0012C13.1379 31 10.0026 34.136 10.0026 38C10.0026 41.864 13.1379 45 17.0012 45Z" fill="#5ECB89"/>
<path d="M10.0026 24C10.0026 20.1361 13.1379 17.0001 17.0012 17.0001H23.9997V31H17.0012C13.1379 31 10.0026 27.864 10.0026 24Z" fill="#9862F6"/>
<path d="M10.0023 10.0001C10.0023 6.13609 13.1377 3.00009 17.0009 3.00009H23.9995V17.0001H17.0009C13.1377 17.0001 10.0023 13.8641 10.0023 10.0001Z" fill="#E05A32"/>
<path d="M24 3.00012H30.9986C34.8618 3.00012 37.9972 6.13612 37.9972 10.0001C37.9972 13.8641 34.8618 17.0001 30.9986 17.0001H24V3.00012Z" fill="#EE7A69"/>
<path d="M37.9972 24C37.9972 27.864 34.8618 31 30.9986 31C27.1354 31 24 27.864 24 24C24 20.1361 27.1354 17.0001 30.9986 17.0001C34.8618 17.0001 37.9972 20.1361 37.9972 24Z" fill="#57BAF8"/>
</svg>
