<svg width="24" height="24" viewBox="0 0 24 24" fill="none" xmlns="http://www.w3.org/2000/svg">
<g clip-path="url(#clip0)">
<path d="M8.33828 22.0001C10.1803 22.0001 11.6753 20.5067 11.6753 18.6667V15.3334H8.33828C6.49622 15.3334 5.00122 16.8267 5.00122 18.6667C5.00122 20.5067 6.49622 22.0001 8.33828 22.0001Z" fill="#5ECB89"/>
<path d="M5.00122 12.0001C5.00122 10.1601 6.49622 8.66675 8.33828 8.66675H11.6753V15.3334H8.33828C6.49622 15.3334 5.00122 13.8401 5.00122 12.0001Z" fill="#9862F6"/>
<path d="M5.00122 5.33333C5.00122 3.49333 6.49622 2 8.33828 2H11.6753V8.66667H8.33828C6.49622 8.66667 5.00122 7.17333 5.00122 5.33333Z" fill="#E05A32"/>
<path d="M11.6754 2H15.0125C16.8545 2 18.3495 3.49333 18.3495 5.33333C18.3495 7.17333 16.8545 8.66667 15.0125 8.66667H11.6754V2Z" fill="#EE7A69"/>
<path d="M18.3495 12.0001C18.3495 13.8401 16.8545 15.3334 15.0125 15.3334C13.1704 15.3334 11.6754 13.8401 11.6754 12.0001C11.6754 10.1601 13.1704 8.66675 15.0125 8.66675C16.8545 8.66675 18.3495 10.1601 18.3495 12.0001Z" fill="#57BAF8"/>
</g>
<defs>
<clipPath id="clip0">
<rect width="13.3509" height="20" fill="white" transform="translate(5 2)"/>
</clipPath>
</defs>
</svg>
