<svg role="presentation" width="48" height="48" viewBox="0 0 48 48" fill="none" xmlns="http://www.w3.org/2000/svg">
<path d="M24 0C10.7461 0 0 10.7461 0 24C0 34.6055 6.876 43.5996 16.4136 46.7724C17.6133 46.9922 18.0513 46.251 18.0513 45.6181C18.0513 45.0468 18.0293 43.1543 18.0176 41.1504C11.3438 42.6006 9.93309 38.3203 9.93309 38.3203C8.84034 35.5488 7.26853 34.8105 7.26853 34.8105C5.08739 33.3223 7.434 33.3516 7.434 33.3516C9.84366 33.5185 11.1123 35.8242 11.1123 35.8242C13.2539 39.4922 16.7314 38.4316 18.0967 37.8164C18.3148 36.2695 18.9359 35.209 19.6201 34.6113C14.2925 34.0049 8.688 31.9453 8.688 22.749C8.688 20.1269 9.62405 17.9883 11.1562 16.3081C10.9116 15.6987 10.0854 13.2568 11.3935 9.95362C11.3935 9.95362 13.4062 9.30909 17.9941 12.4146C19.9072 11.8799 21.9594 11.6162 24 11.6074C26.039 11.6162 28.0927 11.8828 30.0088 12.4175C34.5879 9.30909 36.6035 9.95653 36.6035 9.95653C37.916 13.2627 37.0898 15.7016 36.8438 16.3081C38.3818 17.9883 39.3105 20.127 39.3105 22.749C39.3105 31.9688 33.6973 33.999 28.3506 34.5938C29.2149 35.3379 29.9795 36.7969 29.9795 39.0352C29.9795 42.2432 29.9473 44.8301 29.9473 45.6211C29.9473 46.2598 30.3838 47.0068 31.5996 46.7724C41.1299 43.5938 48 34.5996 48 24C48 10.7461 37.2539 0 24 0Z" fill="#1D1D21"/>
</svg>
