<svg width="24" height="24" viewBox="0 0 24 24" fill="none" xmlns="http://www.w3.org/2000/svg">
<g clip-path="url(#clip0)">
<path d="M8.84296 12.651C7.45096 12.651 6.32196 13.78 6.32196 15.172V21.478C6.32196 22.87 7.45096 23.999 8.84296 23.999C10.235 23.999 11.364 22.87 11.364 21.478V15.172C11.363 13.78 10.234 12.651 8.84296 12.651Z" fill="#E91E63"/>
<path d="M0.0189819 15.1719C0.0189819 16.5649 1.14898 17.6949 2.54198 17.6949C3.93498 17.6949 5.06498 16.5649 5.06498 15.1719V12.6489H2.54398C2.54298 12.6489 2.54298 12.6489 2.54198 12.6489C1.14898 12.6489 0.0189819 13.7789 0.0189819 15.1719Z" fill="#E91E63"/>
<path d="M8.84601 -0.000976562C8.84501 -0.000976562 8.84401 -0.000976562 8.84301 -0.000976562C7.45001 -0.000976562 6.32001 1.12902 6.32001 2.52202C6.32001 3.91502 7.45001 5.04502 8.84301 5.04502H11.364V2.52202C11.364 2.52102 11.364 2.51902 11.364 2.51702C11.363 1.12602 10.236 -0.000976562 8.84601 -0.000976562Z" fill="#00BCD4"/>
<path d="M2.52501 11.37H8.84301C10.236 11.37 11.366 10.24 11.366 8.84697C11.366 7.45397 10.236 6.32397 8.84301 6.32397H2.52501C1.13201 6.32397 0.00201416 7.45397 0.00201416 8.84697C0.00201416 10.24 1.13201 11.37 2.52501 11.37Z" fill="#00BCD4"/>
<path d="M21.457 6.323C20.066 6.323 18.939 7.45 18.939 8.841V8.846V11.369H21.46C22.853 11.369 23.983 10.239 23.983 8.846C23.983 7.453 22.853 6.323 21.46 6.323C21.459 6.323 21.458 6.323 21.457 6.323Z" fill="#4CAF50"/>
<path d="M12.6411 2.52198V8.84698C12.6411 10.239 13.7701 11.368 15.1621 11.368C16.5541 11.368 17.6831 10.239 17.6831 8.84698V2.52198C17.6831 1.12998 16.5541 0.000976562 15.1621 0.000976562C13.7701 0.000976562 12.6411 1.12998 12.6411 2.52198Z" fill="#4CAF50"/>
<path d="M17.682 21.476C17.682 20.084 16.553 18.955 15.161 18.955H12.64V21.478C12.641 22.869 13.769 23.997 15.161 23.997C16.553 23.997 17.682 22.868 17.682 21.476Z" fill="#FF9800"/>
<path d="M21.479 12.6489H15.161C13.768 12.6489 12.638 13.7789 12.638 15.1719C12.638 16.5649 13.768 17.6949 15.161 17.6949H21.479C22.872 17.6949 24.002 16.5649 24.002 15.1719C24.002 13.7789 22.872 12.6489 21.479 12.6489Z" fill="#FF9800"/>
</g>
<defs>
<clipPath id="clip0">
<rect width="24" height="24" fill="white"/>
</clipPath>
</defs>
</svg>
