<svg width="48" height="48" viewBox="0 0 48 48" fill="none" xmlns="http://www.w3.org/2000/svg">
<g clip-path="url(#clip0)">
<path d="M8.00132 48C12.4164 48 15.9997 44.416 15.9997 40V32H8.00132C3.58621 32 0.00292969 35.584 0.00292969 40C0.00292969 44.416 3.58621 48 8.00132 48Z" fill="#5ECB89"/>
<path d="M0.00292969 24C0.00292969 19.584 3.58621 16 8.00132 16H15.9997V32H8.00132C3.58621 32 0.00292969 28.416 0.00292969 24Z" fill="#9862F6"/>
<path d="M0.00238037 8C0.00238037 3.584 3.58566 0 8.00077 0H15.9992V16H8.00077C3.58566 16 0.00238037 12.416 0.00238037 8Z" fill="#E05A32"/>
<path d="M16.0001 0H23.9985C28.4136 0 31.9969 3.584 31.9969 8C31.9969 12.416 28.4136 16 23.9985 16H16.0001V0Z" fill="#EE7A69"/>
<path d="M31.9969 24C31.9969 28.416 28.4136 32 23.9985 32C19.5834 32 16.0001 28.416 16.0001 24C16.0001 19.584 19.5834 16 23.9985 16C28.4136 16 31.9969 19.584 31.9969 24Z" fill="#57BAF8"/>
</g>
<defs>
<clipPath id="clip0">
<rect width="48" height="48" fill="white"/>
</clipPath>
</defs>
</svg>
