<svg viewBox="0 0 17 17" fill="none" xmlns="http://www.w3.org/2000/svg"><path fill-rule="evenodd" clip-rule="evenodd" d="M0.585856 6.58256L6.58336 0.585705C7.36444 -0.195295 8.63076 -0.195226 9.41175 0.585857L15.4224 6.59716C16.2034 7.37818 16.2034 8.64438 15.4224 9.42541L9.4262 15.4223C8.6452 16.2033 7.37888 16.2034 6.5978 15.4224L0.585856 9.41111C-0.195285 8.63006 -0.195285 7.36362 0.585856 6.58256ZM7.5181 8.4734V4.16615H8.5181V8.4734C8.5181 8.74954 8.29424 8.9734 8.0181 8.9734C7.74196 8.9734 7.5181 8.74954 7.5181 8.4734ZM8.73502 11.3426C8.73502 11.7388 8.41383 12.06 8.01762 12.06C7.62141 12.06 7.30022 11.7388 7.30022 11.3426C7.30022 10.9463 7.62141 10.6251 8.01762 10.6251C8.41383 10.6251 8.73502 10.9463 8.73502 11.3426Z" fill="currentColor"/></svg>