<svg viewBox="0 0 16 16" fill="none" xmlns="http://www.w3.org/2000/svg"><path fill-rule="evenodd" clip-rule="evenodd" d="M8 1C11.7963 1 15 4.18294 15 8H16C16 3.62869 12.3466 0 8 0V1ZM3.70273 2.68893C3.52945 2.48276 3.224 2.45088 3.01188 2.61682C2.99377 2.63099 2.96565 2.65784 2.84383 2.78029L2.39552 3.23094C1.50173 4.12938 1 5.34514 1 6.61244C1 7.86686 1.49161 9.07133 2.36939 9.96747L5.86897 13.5403C6.78318 14.4736 8.03466 14.9996 9.34115 14.9996C10.605 14.9996 11.8192 14.5073 12.7262 13.627L13.15 13.2157C13.2703 13.099 13.2967 13.072 13.3107 13.0546C13.4797 12.8454 13.453 12.54 13.2502 12.3634C13.2333 12.3487 13.2027 12.3268 13.0639 12.2327L10.8645 10.7416C10.6674 10.608 10.5417 10.5232 10.4404 10.4649C10.3447 10.4098 10.3008 10.3967 10.2753 10.3918C10.1857 10.3748 10.0931 10.3827 10.0075 10.4145C9.98328 10.4236 9.94225 10.4439 9.85709 10.5143C9.76707 10.5888 9.65744 10.6935 9.48563 10.8584L9.30493 11.0318L9.29106 11.0451C9.10157 11.2269 8.93807 11.3838 8.79282 11.5021C8.63947 11.627 8.47345 11.7371 8.27085 11.7986C7.96851 11.8903 7.64492 11.8843 7.34622 11.7813C7.14605 11.7123 6.98426 11.5961 6.83568 11.4656C6.69493 11.3419 6.53739 11.179 6.35482 10.9903L6.34147 10.9765L4.93755 9.52486L4.92431 9.51117L4.92429 9.51116L4.9242 9.51107C4.74424 9.325 4.58881 9.1643 4.47135 9.02135C4.34723 8.8703 4.23759 8.70679 4.17506 8.50695C4.08164 8.20841 4.0839 7.88813 4.18151 7.59094C4.24686 7.392 4.35879 7.23005 4.48502 7.08076C4.6045 6.93946 4.76222 6.78094 4.94483 6.59739L4.95828 6.58387L5.10288 6.43851C5.27036 6.27016 5.37678 6.16274 5.45265 6.07434C5.52441 5.99072 5.54544 5.95018 5.55493 5.92612C5.58833 5.84139 5.59796 5.74916 5.58277 5.65937C5.57846 5.63386 5.56625 5.58985 5.5133 5.49321C5.45732 5.39105 5.37538 5.26397 5.24627 5.06467L3.8334 2.88357C3.73949 2.7386 3.71752 2.70652 3.70273 2.68893ZM2.39571 1.82921C3.03207 1.33137 3.94841 1.42701 4.46825 2.04552C4.52889 2.11767 4.58771 2.20858 4.65697 2.3156L4.65697 2.31561L4.67269 2.33989L6.08557 4.52099L6.0947 4.53509C6.21205 4.71624 6.31447 4.87433 6.39027 5.01267C6.47107 5.16012 6.53865 5.31451 6.56877 5.49262C6.61433 5.762 6.58545 6.0387 6.48525 6.29287C6.419 6.46092 6.321 6.59802 6.21149 6.72561C6.10875 6.84533 5.97589 6.97887 5.82365 7.13189L5.81183 7.14378L5.66722 7.28914C5.46738 7.49002 5.33879 7.61982 5.24862 7.72645C5.16229 7.82855 5.1402 7.87674 5.13158 7.90299C5.09904 8.00205 5.09829 8.10881 5.12943 8.20832C5.13768 8.23469 5.15909 8.28319 5.24397 8.38649C5.33263 8.49438 5.45937 8.62598 5.65636 8.82966L7.06028 10.2812C7.25999 10.4877 7.38918 10.6208 7.49559 10.7142C7.59759 10.8038 7.64598 10.8269 7.67218 10.8359C7.77175 10.8703 7.87962 10.8723 7.9804 10.8417C8.00692 10.8336 8.05614 10.8124 8.16141 10.7266C8.27123 10.6372 8.4053 10.5091 8.61257 10.3102L8.79327 10.1368L8.80535 10.1252C8.96155 9.97536 9.09784 9.84457 9.21971 9.74376C9.34958 9.63634 9.48879 9.54063 9.65846 9.47743C9.91503 9.38185 10.1929 9.35832 10.4619 9.40938C10.6397 9.44315 10.7931 9.51409 10.9392 9.59814C11.0762 9.677 11.2325 9.78296 11.4116 9.90441L11.4117 9.90447L11.4256 9.9139L13.6251 11.405L13.6483 11.4207C13.7508 11.4901 13.8379 11.5491 13.907 11.6094C14.5154 12.1393 14.5956 13.0555 14.0886 13.683C14.031 13.7544 13.9554 13.8276 13.8666 13.9138L13.8464 13.9333L13.4227 14.3446C12.3291 15.406 10.8651 15.9996 9.34115 15.9996C7.76585 15.9996 6.25688 15.3654 5.15457 14.24L1.655 10.6672C0.594147 9.58417 0 8.12849 0 6.61244C0 5.08082 0.60638 3.6115 1.68658 2.52567L2.13489 2.07502L2.15529 2.0545L2.15529 2.0545C2.24515 1.96408 2.32148 1.88728 2.39571 1.82921ZM11.5 8C11.5 6.09418 9.89621 4.5 8 4.5V3.5C10.4466 3.5 12.5 5.54004 12.5 8H11.5Z" fill="currentColor"/></svg>