<svg viewBox="0 0 16 16" fill="none" xmlns="http://www.w3.org/2000/svg"><path fill-rule="evenodd" clip-rule="evenodd" d="M2.9 2.27658e-07H2.87935C2.47687 -6.38846e-06 2.14469 -1.16337e-05 1.87409 0.022097C1.59304 0.0450596 1.33469 0.0943418 1.09202 0.217987C0.715695 0.409734 0.409734 0.715695 0.217987 1.09202C0.0943418 1.33469 0.0450596 1.59304 0.022097 1.87409C-1.16337e-05 2.14468 -6.38846e-06 2.47687 2.27658e-07 2.87935V2.9V10V10.809L0.723607 10.4472L3.61803 9H5V11.1V11.1206C4.99999 11.5231 4.99999 11.8553 5.0221 12.1259C5.04506 12.407 5.09434 12.6653 5.21799 12.908C5.40973 13.2843 5.71569 13.5903 6.09202 13.782C6.33469 13.9057 6.59304 13.9549 6.87409 13.9779C7.14468 14 7.47686 14 7.87934 14H7.9H12.382L15.2764 15.4472L16 15.809V15V7.9V7.87934C16 7.47686 16 7.14468 15.9779 6.87409C15.9549 6.59304 15.9057 6.33469 15.782 6.09202C15.5903 5.71569 15.2843 5.40973 14.908 5.21799C14.6653 5.09434 14.407 5.04506 14.1259 5.0221C13.8553 4.99999 13.5231 4.99999 13.1206 5H13.1H11V0.5V2.27658e-07H10.5H2.9ZM11 6V6.1V6.12066C11 6.52314 11 6.85532 10.9779 7.12591C10.9549 7.40696 10.9057 7.66531 10.782 7.90798C10.5903 8.28431 10.2843 8.59027 9.90798 8.78201C9.66531 8.90566 9.40696 8.95494 9.12591 8.9779C8.85532 9.00001 8.52314 9.00001 8.12066 9H8.1H6V11.1C6 11.5283 6.00039 11.8194 6.01878 12.0445C6.03669 12.2637 6.06915 12.3758 6.10899 12.454C6.20487 12.6422 6.35785 12.7951 6.54601 12.891C6.62421 12.9309 6.73631 12.9633 6.95552 12.9812C7.18056 12.9996 7.47171 13 7.9 13H12.5H12.618L12.7236 13.0528L15 14.191V7.9C15 7.47171 14.9996 7.18056 14.9812 6.95552C14.9633 6.73631 14.9309 6.62421 14.891 6.54601C14.7951 6.35785 14.6422 6.20487 14.454 6.10899C14.3758 6.06915 14.2637 6.03669 14.0445 6.01878C13.8194 6.00039 13.5283 6 13.1 6H11ZM1.54601 1.10899C1.62421 1.06915 1.73631 1.03669 1.95552 1.01878C2.18056 1.00039 2.47171 1 2.9 1H10V6.1C10 6.52829 9.99961 6.81944 9.98122 7.04448C9.96331 7.26369 9.93085 7.37579 9.89101 7.45399C9.79513 7.64215 9.64215 7.79513 9.45399 7.89101C9.37579 7.93085 9.26369 7.96331 9.04448 7.98122C8.81944 7.99961 8.52829 8 8.1 8H3.5H3.38197L3.27639 8.05279L1 9.19098V2.9C1 2.47171 1.00039 2.18056 1.01878 1.95552C1.03669 1.73631 1.06915 1.62421 1.10899 1.54601C1.20487 1.35785 1.35785 1.20487 1.54601 1.10899Z" fill="currentColor"/></svg>