<svg viewBox="0 0 16 16" fill="none" xmlns="http://www.w3.org/2000/svg" class="ods-icon"><path d="M13.7757 3.37285C14.0748 3.07382 14.0748 2.58899 13.7757 2.28996L13.71 2.22427C13.411 1.92524 12.9262 1.92524 12.6271 2.22427L8 6.85142L3.37285 2.22427C3.07382 1.92524 2.58899 1.92524 2.28996 2.22427L2.22427 2.28996C1.92524 2.58899 1.92524 3.07382 2.22428 3.37285L6.85142 8L2.22427 12.6271C1.92524 12.9262 1.92524 13.411 2.22427 13.71L2.28996 13.7757C2.58899 14.0748 3.07382 14.0748 3.37285 13.7757L8 9.14857L12.6272 13.7757C12.9262 14.0748 13.411 14.0748 13.71 13.7757L13.7757 13.71C14.0748 13.411 14.0748 12.9262 13.7757 12.6271L9.14858 8L13.7757 3.37285Z" fill="currentColor"/></svg>