<svg viewBox="0 0 24 24" fill="none" xmlns="http://www.w3.org/2000/svg"><path fill-rule="evenodd" clip-rule="evenodd" d="M1.99998 22V2H3.99998V22H1.99998ZM9.4142 13H23V11H9.4142L14.7071 5.70711L13.2929 4.29289L6.85856 10.7272L6.8422 10.7436L6.84218 10.7436C6.75792 10.8278 6.6573 10.9283 6.57593 11.0242C6.48164 11.1352 6.35609 11.3038 6.28051 11.5365C6.18262 11.8377 6.18262 12.1623 6.28051 12.4635C6.35609 12.6962 6.48164 12.8648 6.57593 12.9758C6.65731 13.0717 6.75794 13.1722 6.84219 13.2564L6.84222 13.2565L6.85856 13.2728L13.2929 19.7071L14.7071 18.2929L9.4142 13Z" fill="currentColor"/></svg>