<svg viewBox="0 0 16 16" fill="none" xmlns="http://www.w3.org/2000/svg"><path fill-rule="evenodd" clip-rule="evenodd" d="M2 1V15H1V1H2ZM4.7933 7.5L15 7.5V8.5L4.7933 8.5L9.33634 12.63L8.66366 13.37L3.17669 8.38181L3.16776 8.37358C3.16338 8.36946 3.15329 8.3599 3.14148 8.34719C3.11888 8.32286 3.06586 8.262 3.03291 8.1668C2.99552 8.05874 2.99552 7.94126 3.03291 7.8332C3.06586 7.738 3.11888 7.67714 3.14148 7.65281C3.15329 7.6401 3.16338 7.63054 3.16776 7.62642L3.17669 7.61819L8.66366 2.63003L9.33634 3.36997L4.7933 7.5ZM3.84936 8.35813L3.85049 8.35711C3.84668 8.36067 3.84559 8.36156 3.84936 8.35813ZM3.85048 7.64289L3.84936 7.64187C3.84559 7.63844 3.84668 7.63933 3.85048 7.64289Z" fill="currentColor"/></svg>