<svg viewBox="0 0 16 16" fill="none" xmlns="http://www.w3.org/2000/svg"><path fill-rule="evenodd" clip-rule="evenodd" d="M15.0625 15H14.0625V1H15.0625V15ZM11.2067 8.5H1V7.5H11.2067L6.66366 3.36997L7.33634 2.63003L12.8233 7.61819L12.8322 7.62642C12.8366 7.63054 12.8467 7.6401 12.8585 7.65281C12.8811 7.67714 12.9341 7.738 12.9671 7.8332C13.0045 7.94126 13.0045 8.05874 12.9671 8.1668C12.9341 8.262 12.8811 8.32286 12.8585 8.34719C12.8467 8.3599 12.8366 8.36946 12.8322 8.37358L12.8233 8.38181L7.33634 13.37L6.66366 12.63L11.2067 8.5ZM12.1527 8.36002C12.1534 8.36067 12.1529 8.36016 12.1506 8.35813L12.1495 8.35711C12.1511 8.35857 12.1522 8.35957 12.1527 8.36002ZM12.1495 7.64289C12.1533 7.63933 12.1544 7.63845 12.1506 7.64187L12.1495 7.64289Z" fill="currentColor"/></svg>