<svg viewBox="0 0 16 16" fill="none" xmlns="http://www.w3.org/2000/svg"><path fill-rule="evenodd" clip-rule="evenodd" d="M10.1 2C10.5283 2 10.8194 2.00039 11.0445 2.01878C11.2637 2.03669 11.3758 2.06915 11.454 2.10899C11.6422 2.20487 11.7951 2.35785 11.891 2.54601C11.9309 2.62421 11.9633 2.73631 11.9812 2.95552C11.9996 3.18056 12 3.47171 12 3.9V12H3.9C3.47171 12 3.18056 11.9996 2.95552 11.9812C2.73631 11.9633 2.62421 11.9309 2.54601 11.891C2.35785 11.7951 2.20487 11.6422 2.10899 11.454C2.06915 11.3758 2.03669 11.2637 2.01878 11.0445C2.00039 10.8194 2 10.5283 2 10.1V2H10.1ZM11.908 1.21799C11.6653 1.09434 11.407 1.04506 11.1259 1.0221C10.8553 0.999989 10.5231 0.999994 10.1207 1H10.1207H10.1H1.5H1V1.5V10.1V10.1207V10.1207C0.999994 10.5231 0.999989 10.8553 1.0221 11.1259C1.04506 11.407 1.09434 11.6653 1.21799 11.908C1.40973 12.2843 1.7157 12.5903 2.09202 12.782C2.33469 12.9057 2.59304 12.9549 2.87409 12.9779C3.14468 13 3.47686 13 3.87934 13H3.9H12.5H13V12.5V3.9V3.87934C13 3.47686 13 3.14468 12.9779 2.87409C12.9549 2.59304 12.9057 2.33469 12.782 2.09202C12.5903 1.7157 12.2843 1.40973 11.908 1.21799ZM15 14.5V4H14V14H4V15H14.5H15V14.5Z" fill="currentColor"/></svg>