<svg viewBox="0 0 16 16" fill="none" xmlns="http://www.w3.org/2000/svg"><path fill-rule="evenodd" clip-rule="evenodd" d="M5.19098 0H5.5H10.5H10.809L10.9472 0.276393L11.809 2H14.5H15V2.5V5.5V6H14.5H14V13.1V13.1207C14 13.5231 14 13.8553 13.9779 14.1259C13.9549 14.407 13.9057 14.6653 13.782 14.908C13.5903 15.2843 13.2843 15.5903 12.908 15.782C12.6653 15.9057 12.407 15.9549 12.1259 15.9779C11.8553 16 11.5231 16 11.1207 16H11.1H4.9H4.87934C4.47686 16 4.14468 16 3.87409 15.9779C3.59304 15.9549 3.33469 15.9057 3.09202 15.782C2.71569 15.5903 2.40973 15.2843 2.21799 14.908C2.09434 14.6653 2.04506 14.407 2.0221 14.1259C1.99999 13.8553 1.99999 13.5231 2 13.1206L2 13.1V6H1.5H1V5.5V2.5V2H1.5H4.19098L5.05279 0.276393L5.19098 0ZM2 5H2.5H13.5H14V3H12.309H11.5H4.5H3.69098H2V5ZM3 6V13.1C3 13.5283 3.00039 13.8194 3.01878 14.0445C3.03669 14.2637 3.06915 14.3758 3.10899 14.454C3.20487 14.6422 3.35785 14.7951 3.54601 14.891C3.62421 14.9309 3.73631 14.9633 3.95552 14.9812C4.18056 14.9996 4.47171 15 4.9 15H11.1C11.5283 15 11.8194 14.9996 12.0445 14.9812C12.2637 14.9633 12.3758 14.9309 12.454 14.891C12.6422 14.7951 12.7951 14.6422 12.891 14.454C12.9309 14.3758 12.9633 14.2637 12.9812 14.0445C12.9996 13.8194 13 13.5283 13 13.1V6H3ZM10.191 1L10.691 2H5.30902L5.80902 1H10.191Z" fill="currentColor"/></svg>