<svg viewBox="0 0 16 16" fill="none" xmlns="http://www.w3.org/2000/svg"><path fill-rule="evenodd" clip-rule="evenodd" d="M3.87935 1H3.9H11.1H11.1207H11.1207C11.5231 0.999994 11.8553 0.999989 12.1259 1.0221C12.407 1.04506 12.6653 1.09434 12.908 1.21799C13.2843 1.40973 13.5903 1.7157 13.782 2.09202C13.9057 2.33469 13.9549 2.59304 13.9779 2.87409C14 3.14468 14 3.47686 14 3.87934V3.9V6H14.5H15V6.5V14.5V15H14.5H9.5H9V14.5V13H5V12H7V11H3.9H3.87934C3.47686 11 3.14468 11 2.87409 10.9779C2.59304 10.9549 2.33469 10.9057 2.09202 10.782C1.7157 10.5903 1.40973 10.2843 1.21799 9.90798C1.09434 9.66531 1.04506 9.40696 1.0221 9.12591C0.999989 8.85532 0.999994 8.52314 1 8.12066V8.12065V8.1V3.9V3.87935V3.87934C0.999994 3.47686 0.999989 3.14468 1.0221 2.87409C1.04506 2.59304 1.09434 2.33469 1.21799 2.09202C1.40973 1.7157 1.7157 1.40973 2.09202 1.21799C2.33469 1.09434 2.59304 1.04506 2.87409 1.0221C3.14468 0.999989 3.47686 0.999994 3.87934 1H3.87935ZM9 11V12H8V11H9ZM13 3.9V6H9.5H9V6.5V10H3.9C3.47171 10 3.18056 9.99961 2.95552 9.98122C2.73631 9.96331 2.62421 9.93085 2.54601 9.89101C2.35785 9.79513 2.20487 9.64215 2.10899 9.45399C2.06915 9.37579 2.03669 9.26369 2.01878 9.04448C2.00039 8.81944 2 8.52829 2 8.1V3.9C2 3.47171 2.00039 3.18056 2.01878 2.95552C2.03669 2.73631 2.06915 2.62421 2.10899 2.54601C2.20487 2.35785 2.35785 2.20487 2.54601 2.10899C2.62421 2.06915 2.73631 2.03669 2.95552 2.01878C3.18056 2.00039 3.47171 2 3.9 2H11.1C11.5283 2 11.8194 2.00039 12.0445 2.01878C12.2637 2.03669 12.3758 2.06915 12.454 2.10899C12.6422 2.20487 12.7951 2.35785 12.891 2.54601C12.9309 2.62421 12.9633 2.73631 12.9812 2.95552C12.9996 3.18056 13 3.47171 13 3.9ZM10 7V14H14V7H10ZM11 13H13V12H11V13Z" fill="currentColor"/></svg>