<svg viewBox="0 0 16 16" fill="none" xmlns="http://www.w3.org/2000/svg"><path fill-rule="evenodd" clip-rule="evenodd" d="M5.4134 2C5.74557 2 5.87622 2.00063 5.99957 2.0135C6.44138 2.05958 6.86294 2.22256 7.22086 2.48566C7.2949 2.54009 7.3674 2.60219 7.5 2.72163V13.5461C6.89061 13.2086 6.20269 13 5.5 13H1V2H5.4134ZM8.05999 14.9835C8.03372 14.9871 8.00702 14.9887 7.9801 14.9882C7.82396 14.9852 7.71801 14.9102 7.69788 14.8959L7.69634 14.8949C7.68043 14.8837 7.66816 14.8738 7.66299 14.8695L7.65104 14.8596C7.02474 14.3311 6.24648 14 5.5 14H0.5H0V13.5V1.5V1H0.5H5.4134L5.44156 1H5.4416C5.73667 0.999984 5.92195 0.999973 6.10332 1.01889C6.72186 1.08342 7.31204 1.31159 7.81313 1.67992C7.87183 1.72307 7.92896 1.76888 7.99033 1.82099C8.57044 1.33326 9.29416 1.04633 10.053 1.00515C10.1479 0.999995 10.2449 0.999998 10.3994 1L10.4142 1H15.5H16V1.5V13.5V14H15.5H10.4C9.65057 14 8.88772 14.3324 8.37653 14.8309L8.36501 14.842C8.36015 14.8466 8.34871 14.8573 8.33382 14.8695L8.33237 14.8707C8.31646 14.884 8.21593 14.968 8.05999 14.9835ZM8.5 13.5064C9.07061 13.1888 9.73245 13 10.4 13H15V2H10.4142C10.2402 2 10.1717 2.00017 10.1072 2.00368C9.53841 2.03454 8.99726 2.2587 8.57327 2.63903C8.55129 2.65875 8.52922 2.67954 8.5 2.70804V13.5064ZM6 6H2V5H6V6ZM10 6H14V5H10V6ZM6 10H2V9H6V10ZM10 10H14V9H10V10Z" fill="currentColor"/></svg>