<svg viewBox="0 0 16 16" fill="none" xmlns="http://www.w3.org/2000/svg"><path fill-rule="evenodd" clip-rule="evenodd" d="M8.5 11.2146L13.1314 6.16214L13.8686 6.83786L8.38037 12.825L8.37214 12.8339C8.36802 12.8382 8.35845 12.8482 8.34573 12.8599C8.32133 12.8824 8.26065 12.9348 8.16601 12.9674C8.05843 13.0045 7.94157 13.0045 7.834 12.9674C7.73935 12.9348 7.67867 12.8824 7.65427 12.8599C7.64155 12.8482 7.63198 12.8382 7.62786 12.8339L7.61963 12.825L2.13142 6.83786L2.86858 6.16214L7.5 11.2146V0H8.5V11.2146ZM1 13.1V11H2V13.1C2 13.5283 2.00039 13.8194 2.01878 14.0445C2.03669 14.2637 2.06915 14.3758 2.10899 14.454C2.20487 14.6422 2.35785 14.7951 2.54601 14.891C2.62421 14.9309 2.73631 14.9633 2.95552 14.9812C3.18056 14.9996 3.47171 15 3.9 15H12.1C12.5283 15 12.8194 14.9996 13.0445 14.9812C13.2637 14.9633 13.3758 14.9309 13.454 14.891C13.6422 14.7951 13.7951 14.6422 13.891 14.454C13.9309 14.3758 13.9633 14.2637 13.9812 14.0445C13.9996 13.8194 14 13.5283 14 13.1V11H15V13.1V13.1207C15 13.5231 15 13.8553 14.9779 14.1259C14.9549 14.407 14.9057 14.6653 14.782 14.908C14.5903 15.2843 14.2843 15.5903 13.908 15.782C13.6653 15.9057 13.407 15.9549 13.1259 15.9779C12.8553 16 12.5231 16 12.1206 16H12.1H3.9H3.87936C3.47687 16 3.14469 16 2.87409 15.9779C2.59304 15.9549 2.33469 15.9057 2.09202 15.782C1.7157 15.5903 1.40973 15.2843 1.21799 14.908C1.09434 14.6653 1.04506 14.407 1.0221 14.1259C0.999989 13.8553 0.999994 13.5231 1 13.1207V13.1206V13.1ZM7.64322 12.1493C7.63979 12.153 7.64068 12.1519 7.64425 12.1481L7.64322 12.1493ZM8.35575 12.1481C8.35932 12.1519 8.36021 12.153 8.35678 12.1493L8.35575 12.1481Z" fill="currentColor"/></svg>