<svg xmlns="http://www.w3.org/2000/svg" fill="none" viewBox="0 0 24 24"><path fill="currentColor" d="M18.7038 12.0127C19.0987 11.6363 19.0987 11.026 18.7038 10.6496C18.3089 10.2732 17.6686 10.2732 17.2736 10.6496L13 14.7119V3.00262C13 2.47031 12.5585 2.00003 12 2.00003C11.4415 2.00003 11 2.47031 11 3.00262V14.7119L6.72638 10.6496C6.33144 10.2732 5.69113 10.2732 5.2962 10.6496C4.90127 11.026 4.90127 11.6363 5.2962 12.0127L11.2849 17.7203C11.6798 18.0967 12.3202 18.0967 12.7151 17.7203L18.7038 12.0127Z"/><path fill="currentColor" d="M4 16C4 15.4477 3.55228 15 3 15C2.44772 15 2 15.4477 2 16V20.75C2 21.4404 2.55964 22 3.25 22H20.75C21.4404 22 22 21.4404 22 20.75V16C22 15.4477 21.5523 15 21 15C20.4477 15 20 15.4477 20 16V20H4V16Z"/></svg>