<svg viewBox="0 0 16 16" fill="none" xmlns="http://www.w3.org/2000/svg" class="ods-icon"><path fill-rule="evenodd" clip-rule="evenodd" d="M10.3536 2.06066C10.1583 1.8654 9.84171 1.8654 9.64645 2.06066L8.70711 3L11 5.29289L11.9393 4.35355C12.1346 4.15829 12.1346 3.84171 11.9393 3.64645L10.3536 2.06066ZM2 9.70711L8 3.70711L10.2929 6L4.29289 12H2V9.70711ZM8.93934 1.35355C9.52513 0.767767 10.4749 0.767766 11.0607 1.35355L12.6464 2.93934C13.2322 3.52513 13.2322 4.47487 12.6464 5.06066L4.85355 12.8536L4.70711 13H4.5H1.5H1V12.5V9.5V9.29289L1.14645 9.14645L8.93934 1.35355ZM1 14V15H15V14H1Z" fill="currentColor"/></svg>