<svg viewBox="0 0 16 16" fill="none" xmlns="http://www.w3.org/2000/svg"><path fill-rule="evenodd" clip-rule="evenodd" d="M2 15V1H1V15H2ZM14.1506 7.64187L14.1495 7.6429C14.1533 7.63933 14.1544 7.63845 14.1506 7.64187ZM14.1495 8.35712L14.1506 8.35813C14.1544 8.36156 14.1533 8.36068 14.1495 8.35712ZM8.66366 12.63L13.2067 8.5L3 8.5V7.5L13.2067 7.5L8.66367 3.36997L9.33634 2.63003L14.8233 7.61819L14.8322 7.62643C14.8366 7.63054 14.8467 7.6401 14.8585 7.65282C14.8811 7.67715 14.9341 7.738 14.9671 7.8332C15.0045 7.94126 15.0045 8.05875 14.9671 8.1668C14.9341 8.262 14.8811 8.32286 14.8585 8.34719C14.8467 8.35991 14.8366 8.36947 14.8322 8.37358L14.8233 8.38181L9.33633 13.37L8.66366 12.63Z" fill="currentColor"/></svg>