<svg viewBox="0 0 24 24" fill="none" xmlns="http://www.w3.org/2000/svg"><path fill-rule="evenodd" clip-rule="evenodd" d="M8.29289 14.2929L18.5858 4.00001H10V2.00001H20.2L20.2231 2.00001C20.3423 1.99996 20.4845 1.99991 20.6098 2.01015C20.755 2.02201 20.963 2.05245 21.181 2.1635C21.4632 2.30731 21.6927 2.53678 21.8365 2.81903C21.9476 3.03697 21.978 3.24496 21.9899 3.39018C22.0001 3.51549 22.0001 3.65773 22 3.77684V3.77686V3.77688L22 3.80001V13H20V5.41423L9.70711 15.7071L8.29289 14.2929ZM16.0375 20.0339V12.1857L18.0375 10.1441V21.0339V22.0339H17.0375H3.02393H2.02393V21.0339V6.96616V5.96616H3.02393H13.8522L11.8106 7.96616H4.02393V20.0339H16.0375Z" fill="currentColor"/></svg>