<svg viewBox="0 0 16 16" fill="none" xmlns="http://www.w3.org/2000/svg"><path fill-rule="evenodd" clip-rule="evenodd" d="M3.12495 10.9608L2.418 11.6678C0.704736 9.98207 0 8 0 8C0 8 2.13333 2 8 2C9.28926 2 10.3982 2.28977 11.3439 2.74194L10.5864 3.49939C9.83464 3.18942 8.97634 3 8 3C5.45266 3 3.70892 4.28939 2.56403 5.64518C1.99021 6.32471 1.57952 7.00835 1.31275 7.52282C1.21655 7.70834 1.1399 7.87027 1.08174 8C1.1399 8.12973 1.21655 8.29166 1.31275 8.47718C1.57952 8.99165 1.99021 9.67529 2.56403 10.3548C2.73708 10.5598 2.92382 10.7632 3.12495 10.9608ZM5.28771 10.2123L3.88233 11.6177L3.16974 12.3303L0.999999 14.5L1.70711 15.2071L4.00624 12.908C5.0823 13.5553 6.40279 14 8 14C13.8667 14 16 8 16 8C16 8 15.153 5.61781 13.0587 3.85549L14.7071 2.20711L14 1.5L12.2483 3.25174L11.5237 3.97628L10.2123 5.28771L9.5001 5.9999L5.9999 9.5001L5.28771 10.2123ZM5.5562 8.52959L4.75988 9.32591C4.59235 8.91697 4.5 8.46927 4.5 8C4.5 6.067 6.067 4.5 8 4.5C8.46927 4.5 8.91697 4.59235 9.32591 4.75988L8.52959 5.5562C8.35889 5.51939 8.18171 5.5 8 5.5C6.61929 5.5 5.5 6.61929 5.5 8C5.5 8.18171 5.51939 8.35889 5.5562 8.52959ZM8 13C6.71786 13 5.6393 12.6734 4.73822 12.176L6.02457 10.8896C6.58679 11.2747 7.26709 11.5 8 11.5C9.933 11.5 11.5 9.933 11.5 8C11.5 7.26709 11.2747 6.58679 10.8896 6.02457L12.349 4.56523C12.7596 4.90312 13.1205 5.27163 13.436 5.64518C14.0098 6.32471 14.4205 7.00835 14.6872 7.52282C14.7834 7.70834 14.8601 7.87027 14.9183 8C14.8601 8.12973 14.7834 8.29166 14.6872 8.47718C14.4205 8.99165 14.0098 9.67529 13.436 10.3548C12.2911 11.7106 10.5473 13 8 13ZM8 10.5C7.54429 10.5 7.11706 10.3781 6.74916 10.1651L10.1651 6.74916C10.3781 7.11706 10.5 7.54429 10.5 8C10.5 9.38071 9.38071 10.5 8 10.5Z" fill="currentColor"/></svg>