<svg viewBox="0 0 16 16" fill="none" xmlns="http://www.w3.org/2000/svg"><path fill-rule="evenodd" clip-rule="evenodd" d="M8 1.00032L8.33379 1.29961L14.8338 7.12773L15 7.27676V7.5V13.1V13.1207C15 13.5231 15 13.8553 14.9779 14.1259C14.9549 14.407 14.9057 14.6653 14.782 14.908C14.5903 15.2843 14.2843 15.5903 13.908 15.782C13.6653 15.9057 13.407 15.9549 13.1259 15.9779C12.8553 16 12.5231 16 12.1207 16H12.1H10.5H10V15.5V11C10 9.89543 9.10457 9 8 9C6.89543 9 6 9.89543 6 11V15.5V16H5.5H3.9H3.87934C3.47686 16 3.14468 16 2.87409 15.9779C2.59304 15.9549 2.33469 15.9057 2.09202 15.782C1.7157 15.5903 1.40973 15.2843 1.21799 14.908C1.09434 14.6653 1.04506 14.407 1.0221 14.1259C0.999989 13.8553 0.999994 13.5231 1 13.1206L1 13.1V7.5V7.27676L1.16621 7.12773L7.66621 1.29961L8 1.00032ZM2 7.72324V13.1C2 13.5283 2.00039 13.8194 2.01878 14.0445C2.03669 14.2637 2.06915 14.3758 2.10899 14.454C2.20487 14.6422 2.35785 14.7951 2.54601 14.891C2.62421 14.9309 2.73631 14.9633 2.95552 14.9812C3.18056 14.9996 3.47171 15 3.9 15H5V11C5 9.34315 6.34315 8 8 8C9.65685 8 11 9.34315 11 11V15H12.1C12.5283 15 12.8194 14.9996 13.0445 14.9812C13.2637 14.9633 13.3758 14.9309 13.454 14.891C13.6422 14.7951 13.7951 14.6422 13.891 14.454C13.9309 14.3758 13.9633 14.2637 13.9812 14.0445C13.9996 13.8194 14 13.5283 14 13.1V7.72324L8 2.34343L2 7.72324Z" fill="currentColor"/></svg>