<svg viewBox="0 0 16 16" fill="none" xmlns="http://www.w3.org/2000/svg"><path fill-rule="evenodd" clip-rule="evenodd" d="M1 8C1 4.13401 4.13401 1 8 1C11.866 1 15 4.13401 15 8C15 11.866 11.866 15 8 15C4.13401 15 1 11.866 1 8ZM8 0C3.58172 0 0 3.58172 0 8C0 12.4183 3.58172 16 8 16C12.4183 16 16 12.4183 16 8C16 3.58172 12.4183 0 8 0ZM8 5.25C8.41421 5.25 8.75 4.91421 8.75 4.5C8.75 4.08579 8.41421 3.75 8 3.75C7.58579 3.75 7.25 4.08579 7.25 4.5C7.25 4.91421 7.58579 5.25 8 5.25ZM8 7C8.27614 7 8.5 7.22386 8.5 7.5V11.5V12H7.5V11.5V7.5C7.5 7.22386 7.72386 7 8 7Z" fill="currentColor"/></svg>