<svg viewBox="0 0 24 24" fill="none" xmlns="http://www.w3.org/2000/svg"><path fill-rule="evenodd" clip-rule="evenodd" d="M5 11L16 11H17L19 11V19C19 20.1046 18.1046 21 17 21H7C5.89543 21 5 20.1046 5 19V11ZM17 6V9H19H21V11V19C21 21.2091 19.2091 23 17 23H7C4.79086 23 3 21.2091 3 19V11V9H5H7L7 6C7 3.23858 9.23858 1 12 1C14.7614 1 17 3.23858 17 6ZM15 6V9L9 9L9 6C9 4.34315 10.3431 3 12 3C13.6569 3 15 4.34315 15 6ZM12 17.5C12.8284 17.5 13.5 16.8284 13.5 16C13.5 15.1716 12.8284 14.5 12 14.5C11.1716 14.5 10.5 15.1716 10.5 16C10.5 16.8284 11.1716 17.5 12 17.5Z" fill="currentColor"/></svg>