<svg xmlns="http://www.w3.org/2000/svg" fill="none" viewBox="0 0 24 24"><path fill="currentColor" d="M19.9433 18.3872L18.6667 16.1667C18.0323 15.0973 17.3334 14.58 17.3334 13.3333V9.08333C17.3334 6.5212 15.6439 5.53196 13.3334 4.83333V3.41667C13.3334 2.52375 12.8822 2 11.9997 2 11.1173 2 10.6667 2.52375 10.6667 3.41667V4.83333C8.35621 5.53196 6.66667 6.5212 6.66667 9.08333V13.3333C6.66667 14.58 5.96696 15.0973 5.33334 16.1667L4.05703 18.3864C3.98263 18.5119 3.98102 18.6673 4.05223 18.7944 4.12345 18.9215 4.25545 19 4.39946 19H19.6001C19.7441 19 19.8769 18.9215 19.9481 18.7952 20.0193 18.6689 20.0169 18.5118 19.9433 18.3872zM9 20C9 21 10.4994 22 11.9997 22 13.5 22 15 21 15 20H9z"/></svg>