<svg viewBox="0 0 16 16" fill="none" xmlns="http://www.w3.org/2000/svg"><path fill-rule="evenodd" clip-rule="evenodd" d="M16 8C16 12.4183 12.4183 16 8 16C3.58172 16 0 12.4183 0 8C0 3.58172 3.58172 0 8 0C12.4183 0 16 3.58172 16 8ZM8 5C7.17614 5 6.5 5.67614 6.5 6.5H5.5C5.5 5.12386 6.62386 4 8 4C9.37614 4 10.5 5.12386 10.5 6.5C10.5 7.50398 9.98131 8.25797 9.14807 8.73411L9.13602 8.741L9.12361 8.7472C8.89654 8.86073 8.65584 9.05888 8.475 9.29999C8.29267 9.5431 8.2 9.79016 8.2 10H7.2C7.2 9.50984 7.40733 9.05689 7.675 8.7C7.94088 8.34549 8.29469 8.04663 8.66273 7.85966C9.22227 7.53631 9.5 7.09223 9.5 6.5C9.5 5.67614 8.82386 5 8 5ZM7.75001 13.5C8.16423 13.5 8.50002 13.1642 8.50002 12.75C8.50002 12.3358 8.16423 12 7.75001 12C7.33579 12 7 12.3358 7 12.75C7 13.1642 7.33579 13.5 7.75001 13.5Z" fill="currentColor"/></svg>