<svg viewBox="0 0 16 16" fill="none" xmlns="http://www.w3.org/2000/svg"><path fill-rule="evenodd" clip-rule="evenodd" d="M1 8C1 4.13401 4.13401 1 8 1C11.866 1 15 4.13401 15 8C15 11.866 11.866 15 8 15C4.13401 15 1 11.866 1 8ZM8 0C3.58172 0 0 3.58172 0 8C0 12.4183 3.58172 16 8 16C12.4183 16 16 12.4183 16 8C16 3.58172 12.4183 0 8 0ZM8 5C7.17614 5 6.5 5.67614 6.5 6.5H5.5C5.5 5.12386 6.62386 4 8 4C9.37614 4 10.5 5.12386 10.5 6.5C10.5 7.50398 9.98131 8.25797 9.14807 8.73411L9.13602 8.741L9.12361 8.7472C8.89654 8.86073 8.65584 9.05888 8.475 9.29999C8.29267 9.5431 8.2 9.79016 8.2 10H7.2C7.2 9.50984 7.40733 9.05689 7.675 8.7C7.94088 8.34549 8.29469 8.04663 8.66273 7.85966C9.22227 7.53631 9.5 7.09223 9.5 6.5C9.5 5.67614 8.82386 5 8 5ZM7.8 12.6C8.24183 12.6 8.6 12.2418 8.6 11.8C8.6 11.3582 8.24183 11 7.8 11C7.35818 11 7 11.3582 7 11.8C7 12.2418 7.35818 12.6 7.8 12.6Z" fill="currentColor"/></svg>