<svg xmlns="http://www.w3.org/2000/svg" fill="none" viewBox="0 0 24 24"><path fill="currentColor" d="M21.653 14.1916L19.7652 12.7541C19.8238 12.2524 19.8238 11.7459 19.7652 11.2441L21.6547 9.80583C22.0088 9.52813 22.1034 9.04118 21.8781 8.65665L19.9141 5.35084C19.6879 4.96389 19.2062 4.7949 18.7786 4.95252L16.5537 5.8242C16.1356 5.52881 15.6877 5.27557 15.217 5.06838L14.8755 2.76671C14.814 2.32483 14.4247 1.9964 13.9667 2.00003H10.0304C9.57625 1.99737 9.19008 2.32214 9.1267 2.76003L8.78442 5.06834C8.31514 5.27752 7.86801 5.53096 7.44947 5.82502L5.21852 4.95166C4.79533 4.7892 4.31402 4.95615 4.09151 5.34248L2.12587 8.65415C1.89446 9.03931 1.98973 9.53161 2.34922 9.80833L4.23696 11.2458C4.17788 11.7475 4.17788 12.2541 4.23696 12.7558L2.34749 14.1933C1.99282 14.4706 1.89775 14.9578 2.1233 15.3425L4.08638 18.6492C4.31229 19.0364 4.79433 19.2055 5.22193 19.0475L7.44686 18.1758C7.86532 18.4713 8.31346 18.7249 8.78438 18.9325L9.12666 21.2325C9.18691 21.6732 9.5738 22.0018 10.0303 22H13.9667C14.4217 22.0035 14.8091 21.6786 14.8729 21.24L15.2152 18.9317C15.6845 18.7224 16.1315 18.469 16.5502 18.175L18.7836 19.0492C19.2068 19.2112 19.6879 19.0444 19.9106 18.6583L21.8823 15.3334C22.103 14.9494 22.006 14.4663 21.653 14.1916ZM11.9985 16.1666C9.63549 16.1666 7.71983 14.3012 7.71983 12C7.71983 9.69876 9.63545 7.83329 11.9985 7.83329C14.3616 7.83329 16.2772 9.69876 16.2772 12C16.2744 14.3 14.3604 16.1639 11.9985 16.1666Z"/></svg>