<svg viewBox="0 0 16 16" fill="none" xmlns="http://www.w3.org/2000/svg"><path fill-rule="evenodd" clip-rule="evenodd" d="M14.4726 7.5H14.5V8.5H14.4726H14.4452H14.4178H14.3905H14.3633H14.3361H14.3089H14.2818H14.2548H14.2277H14.2008H14.1738H14.147H14.1201H14.0933H14.0666H14.0399H14.0132H13.9866H13.96H13.9335H13.907H13.8805H13.8541H13.8278H13.8015H13.7752H13.749H13.7228H13.6966H13.6705H13.6444H13.6184H13.5924H13.5665H13.5406H13.5147H13.4889H13.4631H13.4374H13.4117H13.386H13.3604H13.3348H13.3093H13.2838H13.2583H13.2329H13.2075H13.1821H13.1568H13.1315H13.1063H13.0811H13.0559H13.0308H13.0057H12.9807H12.9557H12.9307H12.9057H12.8808H12.8559H12.8311H12.8063H12.7815H12.7568H12.7321H12.7074H12.6828H12.6582H12.6337H12.6091H12.5846H12.5602H12.5358H12.5114H12.487H12.4627H12.4384H12.4141H12.3899H12.3657H12.3415H12.3174H12.2933H12.2692H12.2452H12.2212H12.1972H12.1733H12.1493H12.1254H12.1016H12.0778H12.054H12.0302H12.0065H11.9827H11.9591H11.9354H11.9118H11.8882H11.8646H11.8411H11.8176H11.7941H11.7706H11.7472H11.7238H11.7004H11.6771H11.6538H11.6305H11.6072H11.5839H11.5607H11.5375H11.5144H11.4912H11.4681H11.445H11.422H11.3989H11.3759H11.3529H11.3299H11.307H11.2841H11.2612H11.2383H11.2154H11.1926H11.1698H11.147H11.1242H11.1015H11.0788H11.0561H11.0334H11.0108H10.9881H10.9655H10.9429H10.9203H10.8978H10.8753H10.8528H10.8303H10.8078H10.7853H10.7629H10.7405H10.7181H10.6957H10.6734H10.651H10.6287H10.6064H10.5841H10.5619H10.5396H10.5174H10.4952H10.473H10.4508H10.4286H10.4065H10.3843H10.3622H10.3401H10.318H10.296H10.2739H10.2519H10.2299H10.2078H10.1859H10.1639H10.1419H10.12H10.098H10.0761H10.0542H10.0323H10.0104H9.98853H9.96667H9.94483H9.92299H9.90117H9.87936H9.85756H9.83578H9.814H9.79224H9.77049H9.74874H9.72701H9.70529H9.68358H9.66188H9.64019H9.61851H9.59684H9.57518H9.55353H9.53188H9.51025H9.48862H9.46701H9.4454H9.4238H9.4022H9.38062H9.35904H9.33747H9.31591H9.29435H9.2728H9.25126H9.22972H9.20819H9.18667H9.16515H9.14363H9.12213H9.10063H9.07913H9.05764H9.03615H9.01467H8.99319H8.97172H8.95025H8.92878H8.90732H8.88586H8.86441H8.84296H8.82151H8.80006H8.77862H8.75718H8.73574H8.7143H8.69286H8.67143H8.65H8.62857H8.60714H8.58571H8.56428H8.54285H8.52143H8.5H8.47857H8.45715H8.43572H8.41429H8.39286H8.37143H8.35H8.32857H8.30714H8.2857H8.26426H8.24282H8.22138H8.19994H8.17849H8.15704H8.13559H8.11414H8.09268H8.07122H8.04975H8.02828H8.00681H7.98533H7.96385H7.94236H7.92087H7.89937H7.87787H7.85637H7.83485H7.81333H7.79181H7.77028H7.74874H7.7272H7.70565H7.68409H7.66253H7.64096H7.61938H7.5978H7.5762H7.5546H7.53299H7.51138H7.48975H7.46812H7.44647H7.42482H7.40316H7.38149H7.35981H7.33812H7.31642H7.29471H7.27299H7.25126H7.22951H7.20776H7.186H7.16422H7.14244H7.12064H7.09883H7.07701H7.05517H7.03333H7.01147H6.98959H6.96771H6.94581H6.9239H6.90198H6.88004H6.85809H6.83612H6.81414H6.79215H6.77014H6.74812H6.72608H6.70403H6.68196H6.65987H6.63777H6.61566H6.59353H6.57138H6.54922H6.52703H6.50484H6.48262H6.46039H6.43814H6.41588H6.39359H6.37129H6.34897H6.32663H6.30428H6.2819H6.25951H6.23709H6.21466H6.19221H6.16974H6.14725H6.12474H6.10221H6.07966H6.05709H6.0345H6.01188H5.98925H5.96659H5.94392H5.92122H5.8985H5.87576H5.853H5.83021H5.8074H5.78457H5.76172H5.73884H5.71594H5.69302H5.67007H5.6471H5.62411H5.60109H5.57805H5.55498H5.53189H5.50877H5.48563H5.46246H5.43927H5.41605H5.39281H5.36954H5.34624H5.32292H5.29957H5.2762H5.25279H5.22936H5.20591H5.18242H5.15891H5.13537H5.11181H5.08821H5.06459H5.04093H5.01725H4.99354H4.9698H4.94604H4.92224H4.89841H4.87455H4.85067H4.82675H4.8028H4.77882H4.75481H4.73077H4.7067H4.6826H4.65846H4.6343H4.6101H4.58587H4.56161H4.53732H4.51299H4.48863H4.46424H4.43981H4.41535H4.39086H4.36633H4.34177H4.31718H4.29255H4.26789H4.24319H4.21846H4.19369H4.16889H4.14405H4.11918H4.09427H4.06933H4.04435H4.01933H3.99428H3.96919H3.94406H3.9189H3.89369H3.86846H3.84318H3.81787H3.79252H3.76713H3.7417H3.71623H3.69073H3.66518H3.6396H3.61398H3.58832H3.56261H3.53687H3.51109H3.48527H3.45941H3.43351H3.40757H3.38158H3.35556H3.32949H3.30338H3.27724H3.25105H3.22481H3.19854H3.17222H3.14586H3.11946H3.09301H3.06653H3.04H3.01342H2.9868H2.96014H2.93343H2.90668H2.87989H2.85305H2.82617H2.79924H2.77226H2.74524H2.71818H2.69107H2.66391H2.63671H2.60946H2.58216H2.55482H2.52744H2.5V7.5H2.52744H2.55482H2.58216H2.60946H2.63671H2.66391H2.69107H2.71818H2.74524H2.77226H2.79924H2.82617H2.85305H2.87989H2.90668H2.93343H2.96014H2.9868H3.01342H3.04H3.06653H3.09301H3.11946H3.14586H3.17222H3.19854H3.22481H3.25105H3.27724H3.30338H3.32949H3.35556H3.38158H3.40757H3.43351H3.45941H3.48527H3.51109H3.53687H3.56261H3.58832H3.61398H3.6396H3.66518H3.69073H3.71623H3.7417H3.76713H3.79252H3.81787H3.84318H3.86846H3.89369H3.9189H3.94406H3.96919H3.99428H4.01933H4.04435H4.06933H4.09427H4.11918H4.14405H4.16889H4.19369H4.21846H4.24319H4.26789H4.29255H4.31718H4.34177H4.36633H4.39086H4.41535H4.43981H4.46424H4.48863H4.51299H4.53732H4.56161H4.58587H4.6101H4.6343H4.65846H4.6826H4.7067H4.73077H4.75481H4.77882H4.8028H4.82675H4.85067H4.87455H4.89841H4.92224H4.94604H4.9698H4.99354H5.01725H5.04093H5.06459H5.08821H5.11181H5.13537H5.15891H5.18242H5.20591H5.22936H5.25279H5.2762H5.29957H5.32292H5.34624H5.36954H5.39281H5.41605H5.43927H5.46246H5.48563H5.50877H5.53189H5.55498H5.57805H5.60109H5.62411H5.6471H5.67007H5.69302H5.71594H5.73884H5.76172H5.78457H5.8074H5.83021H5.853H5.87576H5.8985H5.92122H5.94392H5.96659H5.98925H6.01188H6.0345H6.05709H6.07966H6.10221H6.12474H6.14725H6.16974H6.19221H6.21466H6.23709H6.25951H6.2819H6.30428H6.32663H6.34897H6.37129H6.39359H6.41588H6.43814H6.46039H6.48262H6.50484H6.52703H6.54922H6.57138H6.59353H6.61566H6.63777H6.65987H6.68196H6.70403H6.72608H6.74812H6.77014H6.79215H6.81414H6.83612H6.85809H6.88004H6.90198H6.9239H6.94581H6.96771H6.98959H7.01147H7.03333H7.05517H7.07701H7.09883H7.12064H7.14244H7.16422H7.186H7.20776H7.22951H7.25126H7.27299H7.29471H7.31642H7.33812H7.35981H7.38149H7.40316H7.42482H7.44647H7.46812H7.48975H7.51138H7.53299H7.5546H7.5762H7.5978H7.61938H7.64096H7.66253H7.68409H7.70565H7.7272H7.74874H7.77028H7.79181H7.81333H7.83485H7.85637H7.87787H7.89937H7.92087H7.94236H7.96385H7.98533H8.00681H8.02828H8.04975H8.07122H8.09268H8.11414H8.13559H8.15704H8.17849H8.19994H8.22138H8.24282H8.26426H8.2857H8.30714H8.32857H8.35H8.37143H8.39286H8.41429H8.43572H8.45715H8.47857H8.5H8.52143H8.54285H8.56428H8.58571H8.60714H8.62857H8.65H8.67143H8.69286H8.7143H8.73574H8.75718H8.77862H8.80006H8.82151H8.84296H8.86441H8.88586H8.90732H8.92878H8.95025H8.97172H8.99319H9.01467H9.03615H9.05764H9.07913H9.10063H9.12213H9.14363H9.16515H9.18667H9.20819H9.22972H9.25126H9.2728H9.29435H9.31591H9.33747H9.35904H9.38062H9.4022H9.4238H9.4454H9.46701H9.48862H9.51025H9.53188H9.55353H9.57518H9.59684H9.61851H9.64019H9.66188H9.68358H9.70529H9.72701H9.74874H9.77049H9.79224H9.814H9.83578H9.85756H9.87936H9.90117H9.92299H9.94483H9.96667H9.98853H10.0104H10.0323H10.0542H10.0761H10.098H10.12H10.1419H10.1639H10.1859H10.2078H10.2299H10.2519H10.2739H10.296H10.318H10.3401H10.3622H10.3843H10.4065H10.4286H10.4508H10.473H10.4952H10.5174H10.5396H10.5619H10.5841H10.6064H10.6287H10.651H10.6734H10.6957H10.7181H10.7405H10.7629H10.7853H10.8078H10.8303H10.8528H10.8753H10.8978H10.9203H10.9429H10.9655H10.9881H11.0108H11.0334H11.0561H11.0788H11.1015H11.1242H11.147H11.1698H11.1926H11.2154H11.2383H11.2612H11.2841H11.307H11.3299H11.3529H11.3759H11.3989H11.422H11.445H11.4681H11.4912H11.5144H11.5375H11.5607H11.5839H11.6072H11.6305H11.6538H11.6771H11.7004H11.7238H11.7472H11.7706H11.7941H11.8176H11.8411H11.8646H11.8882H11.9118H11.9354H11.9591H11.9827H12.0065H12.0302H12.054H12.0778H12.1016H12.1254H12.1493H12.1733H12.1972H12.2212H12.2452H12.2692H12.2933H12.3174H12.3415H12.3657H12.3899H12.4141H12.4384H12.4627H12.487H12.5114H12.5358H12.5602H12.5846H12.6091H12.6337H12.6582H12.6828H12.7074H12.7321H12.7568H12.7815H12.8063H12.8311H12.8559H12.8808H12.9057H12.9307H12.9557H12.9807H13.0057H13.0308H13.0559H13.0811H13.1063H13.1315H13.1568H13.1821H13.2075H13.2329H13.2583H13.2838H13.3093H13.3348H13.3604H13.386H13.4117H13.4374H13.4631H13.4889H13.5147H13.5406H13.5665H13.5924H13.6184H13.6444H13.6705H13.6966H13.7228H13.749H13.7752H13.8015H13.8278H13.8541H13.8805H13.907H13.9335H13.96H13.9866H14.0132H14.0399H14.0666H14.0933H14.1201H14.147H14.1738H14.2008H14.2277H14.2548H14.2818H14.3089H14.3361H14.3633H14.3905H14.4178H14.4452H14.4726Z" fill="currentColor"/></svg>