<svg viewBox="0 0 16 16" fill="none" xmlns="http://www.w3.org/2000/svg"><path fill-rule="evenodd" clip-rule="evenodd" d="M14.2972 3.00196L12.0062 0.711013L12.7134 0.00390625L15.8466 3.13712L15.8547 3.14536C15.8587 3.14953 15.868 3.15913 15.8787 3.17183C15.8999 3.19676 15.9463 3.25548 15.9752 3.34439C16.0085 3.44682 16.0085 3.55716 15.9752 3.65959C15.9463 3.74851 15.8999 3.80723 15.8787 3.83215C15.868 3.84485 15.8587 3.85446 15.8547 3.85862L15.8466 3.86686L12.7134 7.00008L12.0062 6.29297L14.2973 4.00196H3.89815C3.46986 4.00196 3.17872 4.00235 2.95367 4.02074C2.73447 4.03865 2.62236 4.07111 2.54416 4.11095C2.356 4.20683 2.20302 4.35981 2.10715 4.54797C2.0673 4.62617 2.03484 4.73827 2.01693 4.95748C1.99854 5.18252 1.99815 5.47367 1.99815 5.90196V8.87869L0.998154 9.87869V5.90196V5.88131C0.998147 5.47883 0.998142 5.14665 1.02025 4.87605C1.04321 4.595 1.0925 4.33665 1.21614 4.09398C1.40789 3.71766 1.71385 3.41169 2.09017 3.21995C2.33284 3.0963 2.59119 3.04702 2.87224 3.02406C3.14284 3.00195 3.47502 3.00195 3.8775 3.00196H3.89815H14.2972ZM15.1395 3.84423C15.1428 3.84762 15.1418 3.84669 15.1383 3.8431L15.1395 3.84423ZM15.1383 3.16088C15.1418 3.15729 15.1428 3.15636 15.1395 3.15975L15.1383 3.16088ZM13.9996 10.1016V7.12693L14.9996 6.12693V10.1016V10.1223C14.9996 10.5248 14.9996 10.8569 14.9775 11.1275C14.9545 11.4086 14.9052 11.6669 14.7816 11.9096C14.5899 12.2859 14.2839 12.5919 13.9076 12.7836C13.6649 12.9073 13.4065 12.9566 13.1255 12.9795C12.8549 13.0016 12.5228 13.0016 12.1203 13.0016H12.1202H12.0996H1.70284L3.99394 15.2927L3.28684 15.9998L0.153618 12.8666L0.145495 12.8584C0.141457 12.8542 0.132231 12.8446 0.121453 12.8319C0.100292 12.807 0.053852 12.7483 0.0249612 12.6593C-0.0083204 12.5569 -0.00832039 12.4466 0.0249612 12.3441C0.0538523 12.2552 0.100294 12.1965 0.121454 12.1716C0.132231 12.1589 0.141457 12.1493 0.145495 12.1451L0.153618 12.1369L3.28684 9.00366L3.99394 9.71077L1.70309 12.0016L12.0996 12.0016C12.5279 12.0016 12.819 12.0012 13.0441 11.9828C13.2633 11.9649 13.3754 11.9325 13.4536 11.8926C13.6417 11.7968 13.7947 11.6438 13.8906 11.4556C13.9304 11.3774 13.9629 11.2653 13.9808 11.0461C13.9992 10.8211 13.9996 10.5299 13.9996 10.1016ZM0.860725 12.1595C0.857338 12.1561 0.858364 12.157 0.861852 12.1606L0.860725 12.1595ZM0.861853 12.8429C0.858365 12.8464 0.857338 12.8474 0.860725 12.844L0.861853 12.8429Z" fill="currentColor"/></svg>