<svg viewBox="0 0 24 24" fill="none" xmlns="http://www.w3.org/2000/svg"><path fill-rule="evenodd" clip-rule="evenodd" d="M17.2929 2.70712L19.5858 5.00001H4.99999C3.34313 5.00001 1.99999 6.34316 1.99999 8.00001V13.7574L3.99999 11.7574V8.00001C3.99999 7.44773 4.4477 7.00001 4.99999 7.00001H19.5858L17.2929 9.29291L18.7071 10.7071L22.1414 7.27281L22.1578 7.25645C22.242 7.17225 22.3427 7.0717 22.424 6.97585C22.5183 6.86477 22.6439 6.69617 22.7195 6.46354C22.8174 6.16228 22.8174 5.83775 22.7195 5.53649C22.6439 5.30385 22.5183 5.13526 22.424 5.02418C22.3427 4.92833 22.242 4.82778 22.1578 4.74359L22.1414 4.72722L18.7071 1.29291L17.2929 2.70712ZM20 16V12.2427L22 10.2427V16C22 17.6569 20.6568 19 19 19H4.41421L6.70709 21.2929L5.29288 22.7071L1.85856 19.2728L1.84219 19.2564C1.75793 19.1722 1.65731 19.0717 1.57594 18.9758C1.48164 18.8648 1.3561 18.6962 1.28051 18.4635C1.18262 18.1623 1.18262 17.8378 1.28051 17.5365C1.3561 17.3039 1.48164 17.1353 1.57594 17.0242C1.65731 16.9283 1.75794 16.8278 1.8422 16.7436L1.85856 16.7272L5.29288 13.2929L6.70709 14.7071L4.41418 17H19C19.5523 17 20 16.5523 20 16Z" fill="currentColor"/></svg>