<svg viewBox="0 0 24 24" fill="none" xmlns="http://www.w3.org/2000/svg"><path fill-rule="evenodd" clip-rule="evenodd" d="M4 3C2.34315 3 1 4.34315 1 6V18C1 19.6569 2.34315 21 4 21H20C21.6569 21 23 19.6569 23 18V6C23 4.34315 21.6569 3 20 3H4ZM3 6C3 5.44772 3.44772 5 4 5H20C20.5523 5 21 5.44772 21 6V18C21 18.5523 20.5523 19 20 19H4C3.44772 19 3 18.5523 3 18V6ZM16.5528 13.3416C17.6584 12.7888 17.6584 11.2111 16.5528 10.6584L10.1708 7.46737C9.17347 6.96869 8 7.69394 8 8.80901L8 15.191C8 16.306 9.17347 17.0313 10.1708 16.5326L16.5528 13.3416ZM10 9.61803L14.7639 12L10 14.382V9.61803Z" fill="currentColor"/></svg>