<svg viewBox="0 0 24 24" fill="none" xmlns="http://www.w3.org/2000/svg"><path fill-rule="evenodd" clip-rule="evenodd" d="M9.34252 2.91828C10.4656 0.77431 13.5345 0.774309 14.6575 2.91828L22.3521 17.608C23.3984 19.6055 21.9496 22 19.6946 22H4.3054C2.05046 22 0.601595 19.6055 1.6479 17.608L9.34252 2.91828ZM12.8858 3.8463C12.5115 3.13164 11.4885 3.13164 11.1142 3.8463L3.41957 18.536C3.0708 19.2018 3.55375 20 4.3054 20H19.6946C20.4463 20 20.9292 19.2018 20.5805 18.536L12.8858 3.8463ZM12 15.75C11.3097 15.75 10.75 16.3097 10.75 17C10.75 17.6904 11.3097 18.25 12 18.25C12.6904 18.25 13.25 17.6904 13.25 17C13.25 16.3097 12.6904 15.75 12 15.75ZM11 13C11 13.5523 11.4477 14 12 14C12.5523 14 13 13.5523 13 13L13 8.00002L11 8.00002L11 13Z" fill="currentColor"/></svg>