<svg viewBox="0 0 16 16" fill="none" xmlns="http://www.w3.org/2000/svg"><path fill-rule="evenodd" clip-rule="evenodd" d="M9.89281 1.17072C9.11233 -0.390243 6.88476 -0.390236 6.10429 1.17072L0.227078 12.9251C-0.479363 14.338 0.548044 16.0004 2.12769 16.0004H13.8694C15.4491 16.0004 16.4765 14.338 15.77 12.9251L9.89281 1.17072ZM6.9988 1.61798C7.41072 0.794141 8.58638 0.794141 8.99829 1.61798L14.8755 13.3724C15.2495 14.1203 14.7056 15.0003 13.8694 15.0003H2.12769C1.2915 15.0003 0.747639 14.1203 1.1216 13.3724L6.9988 1.61798ZM8.4991 5.00121V5.50121V9.50121C8.4991 9.77735 8.27524 10.0012 7.9991 10.0012C7.72296 10.0012 7.4991 9.77735 7.4991 9.50121V5.50121V5.00121H8.4991ZM7.9991 13.2512C8.41331 13.2512 8.7491 12.9154 8.7491 12.5012C8.7491 12.087 8.41331 11.7512 7.9991 11.7512C7.58489 11.7512 7.2491 12.087 7.2491 12.5012C7.2491 12.9154 7.58489 13.2512 7.9991 13.2512Z" fill="currentColor"/></svg>