<svg width="32" height="33" viewBox="0 0 32 33" fill="none" xmlns="http://www.w3.org/2000/svg">
<g clip-path="url(#clip0_417_1241)">
<path d="M8.97265 21.7158C6.72949 21.7158 4.90527 19.8915 4.90527 17.6484C4.90527 15.4052 6.72949 13.58 8.97265 13.58C11.2158 13.58 13.041 15.4052 13.041 17.6484C13.041 19.8915 11.2158 21.7158 8.97265 21.7158ZM8.97265 15.08C7.55663 15.08 6.40527 16.2324 6.40527 17.6484C6.40527 19.0644 7.55664 20.2158 8.97265 20.2158C10.3887 20.2158 11.541 19.0644 11.541 17.6484C11.541 16.2324 10.3887 15.08 8.97265 15.08ZM22.9727 21.7158C20.7295 21.7158 18.9053 19.8915 18.9053 17.6484C18.9053 15.4052 20.7295 13.58 22.9727 13.58C25.2158 13.58 27.041 15.4052 27.041 17.6484C27.041 19.8915 25.2158 21.7158 22.9727 21.7158ZM22.9727 15.08C21.5566 15.08 20.4053 16.2324 20.4053 17.6484C20.4053 19.0644 21.5566 20.2158 22.9727 20.2158C24.3887 20.2158 25.541 19.0644 25.541 17.6484C25.541 16.2324 24.3887 15.08 22.9727 15.08ZM14.3403 27.42C14.5605 26.8738 14.8174 26.353 15.1047 25.8558C14.5718 25.1457 13.9685 24.6082 13.2637 24.2587C12.0234 23.6669 10.5889 23.3661 9 23.3661C7.41113 23.3661 5.97656 23.6669 4.72949 24.2617C2.42773 25.3906 1.4414 28.332 0.78125 31.0595L2.23828 31.413C2.81738 29.0234 3.64453 26.4648 5.38281 25.6122C6.41992 25.1171 7.63672 24.8662 9 24.8662C10.3633 24.8662 11.5801 25.1171 12.6074 25.6074C13.2764 25.9388 13.8428 26.5436 14.3403 27.42ZM31.2178 31.0634C30.5244 28.1972 29.5654 25.3906 27.2647 24.2636C26.0264 23.6689 24.5918 23.3671 23 23.3671C21.4082 23.3671 19.9736 23.6689 18.7305 24.2656C16.4336 25.3906 15.4756 28.1982 14.7832 31.0634L16.2402 31.416C16.8183 29.0263 17.6445 26.4677 19.3857 25.6152C20.4189 25.1191 21.6348 24.8671 23 24.8671C24.3652 24.8671 25.5811 25.1191 26.6094 25.6132C28.3545 26.4677 29.1817 29.0263 29.7607 31.4169L31.2178 31.0634Z" fill="#191919"/>
<path d="M10.8739 6.75958C7.03979 8.25232 3.94311 11.3801 2.56836 15.2949L1.15234 14.7968C2.61328 10.6409 5.82641 7.28045 9.83349 5.55902L10.8739 6.75958ZM20.5996 4.98047L19.5043 6.24439C24.0768 7.409 27.8679 10.8418 29.4316 15.2949L30.8477 14.7968C29.2007 10.1115 25.3286 6.43336 20.5996 4.98047ZM21.5664 1.57416L20.4336 0.591736L14.9658 6.90033L12.5664 4.13178L11.4336 5.1142L14.9658 9.19135L21.5664 1.57416Z" fill="#3F59E4"/>
</g>
<defs>
<clipPath id="clip0_417_1241">
<rect width="32" height="32" fill="white" transform="translate(0 0.0458374)"/>
</clipPath>
</defs>
</svg>
